  0
SECTION
  2
HEADER
  9
$ACADVER
  1
AC1014
  9
$ACADMAINTVER
 70
     9
  9
$DWGCODEPAGE
  3
ANSI_1252
  9
$INSBASE
 10
0.0
 20
0.0
 30
0.0
  9
$EXTMIN
 10
-7.171572875260248
 20
-102.4219976099055
 30
0.0
  9
$EXTMAX
 10
292.9215737128691
 20
7.171991687195449
 30
0.0
  9
$LIMMIN
 10
0.0
 20
0.0
  9
$LIMMAX
 10
12.0
 20
9.0
  9
$ORTHOMODE
 70
     0
  9
$REGENMODE
 70
     1
  9
$FILLMODE
 70
     1
  9
$QTEXTMODE
 70
     0
  9
$MIRRTEXT
 70
     1
  9
$DRAGMODE
 70
     2
  9
$LTSCALE
 40
1.0
  9
$OSMODE
 70
    37
  9
$ATTMODE
 70
     1
  9
$TEXTSIZE
 40
0.2
  9
$TRACEWID
 40
0.05
  9
$TEXTSTYLE
  7
STANDARD
  9
$CLAYER
  8
0
  9
$CELTYPE
  6
BYLAYER
  9
$CECOLOR
 62
   256
  9
$CELTSCALE
 40
1.0
  9
$DELOBJ
 70
     1
  9
$DISPSILH
 70
     0
  9
$DIMSCALE
 40
1.0
  9
$DIMASZ
 40
0.18
  9
$DIMEXO
 40
0.0625
  9
$DIMDLI
 40
0.38
  9
$DIMRND
 40
0.0
  9
$DIMDLE
 40
0.0
  9
$DIMEXE
 40
0.18
  9
$DIMTP
 40
0.0
  9
$DIMTM
 40
0.0
  9
$DIMTXT
 40
0.18
  9
$DIMCEN
 40
0.09
  9
$DIMTSZ
 40
0.0
  9
$DIMTOL
 70
     0
  9
$DIMLIM
 70
     0
  9
$DIMTIH
 70
     1
  9
$DIMTOH
 70
     1
  9
$DIMSE1
 70
     0
  9
$DIMSE2
 70
     0
  9
$DIMTAD
 70
     0
  9
$DIMZIN
 70
     0
  9
$DIMBLK
  1

  9
$DIMASO
 70
     1
  9
$DIMSHO
 70
     1
  9
$DIMPOST
  1

  9
$DIMAPOST
  1

  9
$DIMALT
 70
     0
  9
$DIMALTD
 70
     2
  9
$DIMALTF
 40
25.4
  9
$DIMLFAC
 40
1.0
  9
$DIMTOFL
 70
     0
  9
$DIMTVP
 40
0.0
  9
$DIMTIX
 70
     0
  9
$DIMSOXD
 70
     0
  9
$DIMSAH
 70
     0
  9
$DIMBLK1
  1

  9
$DIMBLK2
  1

  9
$DIMSTYLE
  2
STANDARD
  9
$DIMCLRD
 70
    18
  9
$DIMCLRE
 70
    18
  9
$DIMCLRT
 70
    18
  9
$DIMTFAC
 40
1.0
  9
$DIMGAP
 40
0.09
  9
$DIMJUST
 70
     0
  9
$DIMSD1
 70
     0
  9
$DIMSD2
 70
     0
  9
$DIMTOLJ
 70
     1
  9
$DIMTZIN
 70
     0
  9
$DIMALTZ
 70
     0
  9
$DIMALTTZ
 70
     0
  9
$DIMFIT
 70
     3
  9
$DIMUPT
 70
     0
  9
$DIMUNIT
 70
     2
  9
$DIMDEC
 70
     4
  9
$DIMTDEC
 70
     4
  9
$DIMALTU
 70
     2
  9
$DIMALTTD
 70
     2
  9
$DIMTXSTY
  7
STANDARD
  9
$DIMAUNIT
 70
     0
  9
$LUNITS
 70
     2
  9
$LUPREC
 70
     4
  9
$SKETCHINC
 40
0.1
  9
$FILLETRAD
 40
0.5
  9
$AUNITS
 70
     0
  9
$AUPREC
 70
     0
  9
$MENU
  1
.
  9
$ELEVATION
 40
0.0
  9
$PELEVATION
 40
0.0
  9
$THICKNESS
 40
0.0
  9
$LIMCHECK
 70
     0
  9
$CHAMFERA
 40
0.0
  9
$CHAMFERB
 40
0.0
  9
$CHAMFERC
 40
0.0
  9
$CHAMFERD
 40
0.0
  9
$SKPOLY
 70
     0
  9
$TDCREATE
 40
2459229.872530533
  9
$TDUPDATE
 40
2459229.872530555
  9
$TDINDWG
 40
0.0000000116
  9
$TDUSRTIMER
 40
0.0000000116
  9
$USRTIMER
 70
     1
  9
$ANGBASE
 50
0.0
  9
$ANGDIR
 70
     0
  9
$PDMODE
 70
     0
  9
$PDSIZE
 40
0.0
  9
$PLINEWID
 40
0.0
  9
$COORDS
 70
     1
  9
$SPLFRAME
 70
     0
  9
$SPLINETYPE
 70
     6
  9
$SPLINESEGS
 70
     8
  9
$ATTDIA
 70
     0
  9
$ATTREQ
 70
     1
  9
$HANDLING
 70
     1
  9
$HANDSEED
  5
1093F
  9
$SURFTAB1
 70
     6
  9
$SURFTAB2
 70
     6
  9
$SURFTYPE
 70
     6
  9
$SURFU
 70
     6
  9
$SURFV
 70
     6
  9
$UCSNAME
  2

  9
$UCSORG
 10
0.0
 20
0.0
 30
0.0
  9
$UCSXDIR
 10
1.0
 20
0.0
 30
0.0
  9
$UCSYDIR
 10
0.0
 20
1.0
 30
0.0
  9
$PUCSNAME
  2

  9
$PUCSORG
 10
0.0
 20
0.0
 30
0.0
  9
$PUCSXDIR
 10
1.0
 20
0.0
 30
0.0
  9
$PUCSYDIR
 10
0.0
 20
1.0
 30
0.0
  9
$USERI1
 70
     0
  9
$USERI2
 70
     0
  9
$USERI3
 70
     0
  9
$USERI4
 70
     0
  9
$USERI5
 70
     0
  9
$USERR1
 40
0.0
  9
$USERR2
 40
0.0
  9
$USERR3
 40
0.0
  9
$USERR4
 40
0.0
  9
$USERR5
 40
0.0
  9
$WORLDVIEW
 70
     1
  9
$SHADEDGE
 70
     3
  9
$SHADEDIF
 70
    70
  9
$TILEMODE
 70
     1
  9
$MAXACTVP
 70
    64
  9
$PINSBASE
 10
0.0
 20
0.0
 30
0.0
  9
$PLIMCHECK
 70
     0
  9
$PEXTMIN
 10
1.000000000000000E+20
 20
1.000000000000000E+20
 30
1.000000000000000E+20
  9
$PEXTMAX
 10
-1.000000000000000E+20
 20
-1.000000000000000E+20
 30
-1.000000000000000E+20
  9
$PLIMMIN
 10
-0.25
 20
-0.25
  9
$PLIMMAX
 10
10.75
 20
8.25
  9
$UNITMODE
 70
     0
  9
$VISRETAIN
 70
     1
  9
$PLINEGEN
 70
     0
  9
$PSLTSCALE
 70
     1
  9
$TREEDEPTH
 70
  3020
  9
$PICKSTYLE
 70
     1
  9
$CMLSTYLE
  2
STANDARD
  9
$CMLJUST
 70
     0
  9
$CMLSCALE
 40
1.0
  9
$PROXYGRAPHICS
 70
     1
  9
$MEASUREMENT
 70
     0
  0
ENDSEC
  0
SECTION
  2
CLASSES
  0
CLASS
  1
ACDBDICTIONARYWDFLT
  2
AcDbDictionaryWithDefault
  3
ObjectDBX Classes
 90
        0
280
     0
281
     0
  0
CLASS
  1
VISUALSTYLE
  2
AcDbVisualStyle
  3
ObjectDBX Classes
 90
     4095
280
     0
281
     0
  0
CLASS
  1
MATERIAL
  2
AcDbMaterial
  3
ObjectDBX Classes
 90
     1153
280
     0
281
     0
  0
CLASS
  1
SCALE
  2
AcDbScale
  3
ObjectDBX Classes
 90
     1153
280
     0
281
     0
  0
CLASS
  1
TABLESTYLE
  2
AcDbTableStyle
  3
ObjectDBX Classes
 90
     4095
280
     0
281
     0
  0
CLASS
  1
MLEADERSTYLE
  2
AcDbMLeaderStyle
  3
ACDB_MLEADERSTYLE_CLASS
 90
     4095
280
     0
281
     0
  0
CLASS
  1
SUN
  2
AcDbSun
  3
SCENEOE
 90
     1153
280
     0
281
     0
  0
CLASS
  1
DICTIONARYVAR
  2
AcDbDictionaryVar
  3
ObjectDBX Classes
 90
        0
280
     0
281
     0
  0
CLASS
  1
XRECORD
  2
AcDbXrecord
  3
ObjectDBX Classes
 90
        0
280
     0
281
     0
  0
CLASS
  1
LWPOLYLINE
  2
AcDbPolyline
  3
ObjectDBX Classes
 90
        0
280
     0
281
     1
  0
CLASS
  1
HATCH
  2
AcDbHatch
  3
ObjectDBX Classes
 90
        0
280
     0
281
     1
  0
CLASS
  1
ACDBPLACEHOLDER
  2
AcDbPlaceHolder
  3
ObjectDBX Classes
 90
        0
280
     0
281
     0
  0
CLASS
  1
LAYOUT
  2
AcDbLayout
  3
ObjectDBX Classes
 90
        0
280
     0
281
     0
  0
ENDSEC
  0
SECTION
  2
TABLES
  0
TABLE
  2
VPORT
  5
1082B
102
{ACAD_XDICTIONARY
360
10934
102
}
330
0
100
AcDbSymbolTable
 70
     1
  0
VPORT
  5
1084B
330
1082B
100
AcDbSymbolTableRecord
100
AcDbViewportTableRecord
  2
*ACTIVE
 70
     0
 10
0.0
 20
0.0
 11
1.0
 21
1.0
 12
154.9134331263735
 22
-37.88363398581784
 13
0.0
 23
0.0
 14
0.5
 24
0.5
 15
0.5
 25
0.5
 16
0.0
 26
0.0
 36
1.0
 17
0.0
 27
0.0
 37
0.0
 40
213.9767551440468
 41
1.750663129973475
 42
50.0
 43
0.0
 44
0.0
 50
0.0
 51
0.0
 71
     0
 72
   100
 73
     1
 74
     3
 75
     0
 76
     0
 77
     0
 78
     0
  0
ENDTAB
  0
TABLE
  2
LTYPE
  5
10828
330
0
100
AcDbSymbolTable
 70
    48
  0
LTYPE
  5
10836
330
10828
100
AcDbSymbolTableRecord
100
AcDbLinetypeTableRecord
  2
BYBLOCK
 70
     0
  3

 72
    65
 73
     0
 40
0.0
  0
LTYPE
  5
10837
330
10828
100
AcDbSymbolTableRecord
100
AcDbLinetypeTableRecord
  2
BYLAYER
 70
     0
  3

 72
    65
 73
     0
 40
0.0
  0
LTYPE
  5
10838
330
10828
100
AcDbSymbolTableRecord
100
AcDbLinetypeTableRecord
  2
CONTINUOUS
 70
     0
  3
Solid line
 72
    65
 73
     0
 40
0.0
  0
LTYPE
  5
108CF
330
10828
100
AcDbSymbolTableRecord
100
AcDbLinetypeTableRecord
  2
ACAD_ISO05W100
 70
     0
  3
ISO long-dash double-dot ____ .. ____ .. ____ . 
 72
    65
 73
     6
 40
33.0
 49
24.0
 74
     0
 49
-3.0
 74
     0
 49
0.0
 74
     0
 49
-3.0
 74
     0
 49
0.0
 74
     0
 49
-3.0
 74
     0
  0
LTYPE
  5
108D0
330
10828
100
AcDbSymbolTableRecord
100
AcDbLinetypeTableRecord
  2
PHANTOMX2
 70
     0
  3
Phantom (2x) ____________    ____    ____   _
 72
    65
 73
     6
 40
127.0
 49
63.5
 74
     0
 49
-12.7
 74
     0
 49
12.7
 74
     0
 49
-12.7
 74
     0
 49
12.7
 74
     0
 49
-12.7
 74
     0
  0
LTYPE
  5
108D2
330
10828
100
AcDbSymbolTableRecord
100
AcDbLinetypeTableRecord
  2
TRACKS
 70
     0
  3
Tracks -|-|-|-|-|-|-|-|-|-|-|-|-|-|-|-|-|-|-|-|-|-|-|-|-
 72
    65
 73
     2
 40
7.62
 49
3.81
 74
     2
 75
     0
340
108D1
 46
6.35
 50
0.0
 44
0.0
 45
0.0
  9
TRACK1
 49
3.81
 74
     0
  0
LTYPE
  5
108D5
330
10828
100
AcDbSymbolTableRecord
100
AcDbLinetypeTableRecord
  2
ZIGZAG
 70
     0
  3
Zig zag /\/\/\/\/\/\/\/\/\/\/\/\/\/\/\/\/\/\/\/\/\/\/\/
 72
    65
 73
     4
 40
20.32254
 49
0.00254
 74
     0
 49
-5.08
 74
     2
 75
     0
340
108D3
 46
5.08
 50
0.0
 44
-5.08
 45
0.0
  9
ZIG
 49
-10.16
 74
     2
 75
     0
340
108D4
 46
5.08
 50
180.0
 44
5.08
 45
0.0
  9
ZIG
 49
-5.08
 74
     0
  0
LTYPE
  5
108D6
330
10828
100
AcDbSymbolTableRecord
100
AcDbLinetypeTableRecord
  2
HIDDENX2
 70
     0
  3
Hidden (2x) ____ ____ ____ ____ ____ ____ ____ 
 72
    65
 73
     2
 40
19.05
 49
12.7
 74
     0
 49
-6.35
 74
     0
  0
LTYPE
  5
108D8
330
10828
100
AcDbSymbolTableRecord
100
AcDbLinetypeTableRecord
  2
HOT_WATER_SUPPLY
 70
     0
  3
Hot water supply ---- HW ---- HW ---- HW ----
 72
    65
 73
     3
 40
22.86
 49
12.7
 74
     0
 49
-5.08
 74
     2
 75
     0
340
108D7
 46
2.54
 50
0.0
 44
-2.54
 45
-1.27
  9
HW
 49
-5.08
 74
     0
  0
LTYPE
  5
108D9
330
10828
100
AcDbSymbolTableRecord
100
AcDbLinetypeTableRecord
  2
PHANTOM
 70
     0
  3
Phantom ______  __  __  ______  __  __  ______ 
 72
    65
 73
     6
 40
63.50000000000001
 49
31.75
 74
     0
 49
-6.35
 74
     0
 49
6.35
 74
     0
 49
-6.35
 74
     0
 49
6.35
 74
     0
 49
-6.35
 74
     0
  0
LTYPE
  5
108DA
330
10828
100
AcDbSymbolTableRecord
100
AcDbLinetypeTableRecord
  2
PHANTOM2
 70
     0
  3
Phantom (.5x) ___ _ _ ___ _ _ ___ _ _ ___ _ _
 72
    65
 73
     6
 40
31.75
 49
15.875
 74
     0
 49
-3.175
 74
     0
 49
3.175
 74
     0
 49
-3.175
 74
     0
 49
3.175
 74
     0
 49
-3.175
 74
     0
  0
LTYPE
  5
108DB
330
10828
100
AcDbSymbolTableRecord
100
AcDbLinetypeTableRecord
  2
DIVIDE2
 70
     0
  3
Divide (.5x) __..__..__..__..__..__..__..__.._
 72
    65
 73
     6
 40
15.875
 49
6.35
 74
     0
 49
-3.175
 74
     0
 49
0.0
 74
     0
 49
-3.175
 74
     0
 49
0.0
 74
     0
 49
-3.175
 74
     0
  0
LTYPE
  5
108DC
330
10828
100
AcDbSymbolTableRecord
100
AcDbLinetypeTableRecord
  2
DIVIDEX2
 70
     0
  3
Divide (2x) ________  .  .  ________  .  .  _
 72
    65
 73
     6
 40
63.5
 49
25.4
 74
     0
 49
-12.7
 74
     0
 49
0.0
 74
     0
 49
-12.7
 74
     0
 49
0.0
 74
     0
 49
-12.7
 74
     0
  0
LTYPE
  5
108DD
330
10828
100
AcDbSymbolTableRecord
100
AcDbLinetypeTableRecord
  2
DOT
 70
     0
  3
Dot . . . . . . . . . . . . . . . . . . . . . . . .
 72
    65
 73
     2
 40
6.35
 49
0.0
 74
     0
 49
-6.35
 74
     0
  0
LTYPE
  5
108DE
330
10828
100
AcDbSymbolTableRecord
100
AcDbLinetypeTableRecord
  2
DOT2
 70
     0
  3
Dot (.5x) ........................................
 72
    65
 73
     2
 40
3.175
 49
0.0
 74
     0
 49
-3.175
 74
     0
  0
LTYPE
  5
108DF
330
10828
100
AcDbSymbolTableRecord
100
AcDbLinetypeTableRecord
  2
DASHED
 70
     0
  3
Dashed __ __ __ __ __ __ __ __ __ __ __ __ __ _
 72
    65
 73
     2
 40
19.05
 49
12.7
 74
     0
 49
-6.35
 74
     0
  0
LTYPE
  5
108E0
330
10828
100
AcDbSymbolTableRecord
100
AcDbLinetypeTableRecord
  2
DASHED2
 70
     0
  3
Dashed (.5x) _ _ _ _ _ _ _ _ _ _ _ _ _ _ _ _ _ 
 72
    65
 73
     2
 40
9.524999999999999
 49
6.35
 74
     0
 49
-3.175
 74
     0
  0
LTYPE
  5
108E1
330
10828
100
AcDbSymbolTableRecord
100
AcDbLinetypeTableRecord
  2
DASHEDX2
 70
     0
  3
Dashed (2x) ____  ____  ____  ____  ____  ___
 72
    65
 73
     2
 40
38.09999999999999
 49
25.4
 74
     0
 49
-12.7
 74
     0
  0
LTYPE
  5
108E2
330
10828
100
AcDbSymbolTableRecord
100
AcDbLinetypeTableRecord
  2
DIVIDE
 70
     0
  3
Divide ____ . . ____ . . ____ . . ____ . . ____
 72
    65
 73
     6
 40
31.75
 49
12.7
 74
     0
 49
-6.35
 74
     0
 49
0.0
 74
     0
 49
-6.35
 74
     0
 49
0.0
 74
     0
 49
-6.35
 74
     0
  0
LTYPE
  5
108E4
330
10828
100
AcDbSymbolTableRecord
100
AcDbLinetypeTableRecord
  2
FENCELINE2
 70
     0
  3
Fenceline square ----[]-----[]----[]-----[]----[]---
 72
    65
 73
     4
 40
36.83
 49
6.35
 74
     0
 49
-2.54
 74
     2
 75
     0
340
108E3
 46
2.54
 50
0.0
 44
-2.54
 45
0.0
  9
BOX
 49
-2.54
 74
     0
 49
25.4
 74
     0
  0
LTYPE
  5
108E6
330
10828
100
AcDbSymbolTableRecord
100
AcDbLinetypeTableRecord
  2
GAS_LINE
 70
     0
  3
Gas line ----GAS----GAS----GAS----GAS----GAS----GAS--
 72
    65
 73
     3
 40
24.13
 49
12.7
 74
     0
 49
-5.08
 74
     2
 75
     0
340
108E5
 46
2.54
 50
0.0
 44
-2.54
 45
-1.27
  9
GAS
 49
-6.35
 74
     0
  0
LTYPE
  5
108E7
330
10828
100
AcDbSymbolTableRecord
100
AcDbLinetypeTableRecord
  2
HIDDEN
 70
     0
  3
Hidden __ __ __ __ __ __ __ __ __ __ __ __ __ __
 72
    65
 73
     2
 40
9.524999999999999
 49
6.35
 74
     0
 49
-3.175
 74
     0
  0
LTYPE
  5
108E8
330
10828
100
AcDbSymbolTableRecord
100
AcDbLinetypeTableRecord
  2
HIDDEN2
 70
     0
  3
Hidden (.5x) _ _ _ _ _ _ _ _ _ _ _ _ _ _ _ _ _ 
 72
    65
 73
     2
 40
4.762499999999999
 49
3.175
 74
     0
 49
-1.5875
 74
     0
  0
LTYPE
  5
108E9
330
10828
100
AcDbSymbolTableRecord
100
AcDbLinetypeTableRecord
  2
DOTX2
 70
     0
  3
Dot (2x) .  .  .  .  .  .  .  .  .  .  .  .  .  .
 72
    65
 73
     2
 40
12.7
 49
0.0
 74
     0
 49
-12.7
 74
     0
  0
LTYPE
  5
108EB
330
10828
100
AcDbSymbolTableRecord
100
AcDbLinetypeTableRecord
  2
DRAINAGE
 70
     0
  3
Drainage ---->---->---->----
 72
    65
 73
     2
 40
10.16
 49
5.08
 74
     2
 75
     0
340
108EA
 46
2.54
 50
180.0
 44
0.0
 45
0.0
  9
RIGHT_ARROW
 49
5.08
 74
     0
  0
LTYPE
  5
108ED
330
10828
100
AcDbSymbolTableRecord
100
AcDbLinetypeTableRecord
  2
DRAINAGE2
 70
     0
  3
Drainage reversed----<----<----<----
 72
    65
 73
     2
 40
10.16
 49
5.08
 74
     2
 75
     0
340
108EC
 46
2.54
 50
0.0
 44
0.0
 45
0.0
  9
RIGHT_ARROW
 49
5.08
 74
     0
  0
LTYPE
  5
108EF
330
10828
100
AcDbSymbolTableRecord
100
AcDbLinetypeTableRecord
  2
FENCELINE1
 70
     0
  3
Fenceline circle ----0-----0----0-----0----0-----0--
 72
    65
 73
     4
 40
36.83
 49
6.35
 74
     0
 49
-2.54
 74
     2
 75
     0
340
108EE
 46
2.54
 50
0.0
 44
-2.54
 45
0.0
  9
CIRC1
 49
-2.54
 74
     0
 49
25.4
 74
     0
  0
LTYPE
  5
108F0
330
10828
100
AcDbSymbolTableRecord
100
AcDbLinetypeTableRecord
  2
ACAD_ISO14W100
 70
     0
  3
ISO dash triple-dot __ . . . __ . . . __ . . . _
 72
    65
 73
     8
 40
24.0
 49
12.0
 74
     0
 49
-3.0
 74
     0
 49
0.0
 74
     0
 49
-3.0
 74
     0
 49
0.0
 74
     0
 49
-3.0
 74
     0
 49
0.0
 74
     0
 49
-3.0
 74
     0
  0
LTYPE
  5
108F1
330
10828
100
AcDbSymbolTableRecord
100
AcDbLinetypeTableRecord
  2
ACAD_ISO15W100
 70
     0
  3
ISO double-dash triple-dot __ __ . . . __ __ . .
 72
    65
 73
    10
 40
39.0
 49
12.0
 74
     0
 49
-3.0
 74
     0
 49
12.0
 74
     0
 49
-3.0
 74
     0
 49
0.0
 74
     0
 49
-3.0
 74
     0
 49
0.0
 74
     0
 49
-3.0
 74
     0
 49
0.0
 74
     0
 49
-3.0
 74
     0
  0
LTYPE
  5
108F4
330
10828
100
AcDbSymbolTableRecord
100
AcDbLinetypeTableRecord
  2
BATTING
 70
     0
  3
Batting SSSSSSSSSSSSSSSSSSSSSSSSSSSSSSSSSSSSSSSSSSSSSSS
 72
    65
 73
     4
 40
10.16254
 49
0.00254
 74
     0
 49
-2.54
 74
     2
 75
     0
340
108F2
 46
2.54
 50
0.0
 44
-2.54
 45
0.0
  9
BAT
 49
-5.08
 74
     2
 75
     0
340
108F3
 46
2.54
 50
180.0
 44
2.54
 45
0.0
  9
BAT
 49
-2.54
 74
     0
  0
LTYPE
  5
108F5
330
10828
100
AcDbSymbolTableRecord
100
AcDbLinetypeTableRecord
  2
BORDER
 70
     0
  3
Border __ __ . __ __ . __ __ . __ __ . __ __ .
 72
    65
 73
     6
 40
44.45
 49
12.7
 74
     0
 49
-6.35
 74
     0
 49
12.7
 74
     0
 49
-6.35
 74
     0
 49
0.0
 74
     0
 49
-6.35
 74
     0
  0
LTYPE
  5
108F6
330
10828
100
AcDbSymbolTableRecord
100
AcDbLinetypeTableRecord
  2
ACAD_ISO10W100
 70
     0
  3
ISO dash dot __ . __ . __ . __ . __ . __ . __ . 
 72
    65
 73
     4
 40
18.0
 49
12.0
 74
     0
 49
-3.0
 74
     0
 49
0.0
 74
     0
 49
-3.0
 74
     0
  0
LTYPE
  5
108F7
330
10828
100
AcDbSymbolTableRecord
100
AcDbLinetypeTableRecord
  2
ACAD_ISO11W100
 70
     0
  3
ISO double-dash dot __ __ . __ __ . __ __ . __ _
 72
    65
 73
     6
 40
33.0
 49
12.0
 74
     0
 49
-3.0
 74
     0
 49
12.0
 74
     0
 49
-3.0
 74
     0
 49
0.0
 74
     0
 49
-3.0
 74
     0
  0
LTYPE
  5
108F8
330
10828
100
AcDbSymbolTableRecord
100
AcDbLinetypeTableRecord
  2
ACAD_ISO12W100
 70
     0
  3
ISO dash double-dot __ . . __ . . __ . . __ . . 
 72
    65
 73
     6
 40
21.0
 49
12.0
 74
     0
 49
-3.0
 74
     0
 49
0.0
 74
     0
 49
-3.0
 74
     0
 49
0.0
 74
     0
 49
-3.0
 74
     0
  0
LTYPE
  5
108F9
330
10828
100
AcDbSymbolTableRecord
100
AcDbLinetypeTableRecord
  2
ACAD_ISO13W100
 70
     0
  3
ISO double-dash double-dot __ __ . . __ __ . . _
 72
    65
 73
     8
 40
36.0
 49
12.0
 74
     0
 49
-3.0
 74
     0
 49
12.0
 74
     0
 49
-3.0
 74
     0
 49
0.0
 74
     0
 49
-3.0
 74
     0
 49
0.0
 74
     0
 49
-3.0
 74
     0
  0
LTYPE
  5
108FA
330
10828
100
AcDbSymbolTableRecord
100
AcDbLinetypeTableRecord
  2
CENTERX2
 70
     0
  3
Center (2x) ________  __  ________  __  _____
 72
    65
 73
     4
 40
101.6
 49
63.5
 74
     0
 49
-12.7
 74
     0
 49
12.7
 74
     0
 49
-12.7
 74
     0
  0
LTYPE
  5
108FB
330
10828
100
AcDbSymbolTableRecord
100
AcDbLinetypeTableRecord
  2
DASHDOT
 70
     0
  3
Dash dot __ . __ . __ . __ . __ . __ . __ . __
 72
    65
 73
     4
 40
25.4
 49
12.7
 74
     0
 49
-6.35
 74
     0
 49
0.0
 74
     0
 49
-6.35
 74
     0
  0
LTYPE
  5
108FC
330
10828
100
AcDbSymbolTableRecord
100
AcDbLinetypeTableRecord
  2
DASHDOT2
 70
     0
  3
Dash dot (.5x) _._._._._._._._._._._._._._._.
 72
    65
 73
     4
 40
12.7
 49
6.35
 74
     0
 49
-3.175
 74
     0
 49
0.0
 74
     0
 49
-3.175
 74
     0
  0
LTYPE
  5
108FD
330
10828
100
AcDbSymbolTableRecord
100
AcDbLinetypeTableRecord
  2
DASHDOTX2
 70
     0
  3
Dash dot (2x) ____  .  ____  .  ____  .  ___
 72
    65
 73
     4
 40
50.8
 49
25.4
 74
     0
 49
-12.7
 74
     0
 49
0.0
 74
     0
 49
-12.7
 74
     0
  0
LTYPE
  5
108FE
330
10828
100
AcDbSymbolTableRecord
100
AcDbLinetypeTableRecord
  2
BORDER2
 70
     0
  3
Border (.5x) __.__.__.__.__.__.__.__.__.__.__.
 72
    65
 73
     6
 40
22.225
 49
6.35
 74
     0
 49
-3.175
 74
     0
 49
6.35
 74
     0
 49
-3.175
 74
     0
 49
0.0
 74
     0
 49
-3.175
 74
     0
  0
LTYPE
  5
108FF
330
10828
100
AcDbSymbolTableRecord
100
AcDbLinetypeTableRecord
  2
BORDERX2
 70
     0
  3
Border (2x) ____  ____  .  ____  ____  .  ___
 72
    65
 73
     6
 40
88.89999999999999
 49
25.4
 74
     0
 49
-12.7
 74
     0
 49
25.4
 74
     0
 49
-12.7
 74
     0
 49
0.0
 74
     0
 49
-12.7
 74
     0
  0
LTYPE
  5
10900
330
10828
100
AcDbSymbolTableRecord
100
AcDbLinetypeTableRecord
  2
CENTER
 70
     0
  3
Center ____ _ ____ _ ____ _ ____ _ ____ _ ____
 72
    65
 73
     4
 40
50.8
 49
31.75
 74
     0
 49
-6.35
 74
     0
 49
6.35
 74
     0
 49
-6.35
 74
     0
  0
LTYPE
  5
10901
330
10828
100
AcDbSymbolTableRecord
100
AcDbLinetypeTableRecord
  2
CENTER2
 70
     0
  3
Center (.5x) ___ _ ___ _ ___ _ ___ _ ___ _ ___
 72
    65
 73
     4
 40
28.575
 49
19.05
 74
     0
 49
-3.175
 74
     0
 49
3.175
 74
     0
 49
-3.175
 74
     0
  0
LTYPE
  5
10902
330
10828
100
AcDbSymbolTableRecord
100
AcDbLinetypeTableRecord
  2
ACAD_ISO06W100
 70
     0
  3
ISO long-dash triple-dot ____ ... ____ ... ____
 72
    65
 73
     8
 40
36.0
 49
24.0
 74
     0
 49
-3.0
 74
     0
 49
0.0
 74
     0
 49
-3.0
 74
     0
 49
0.0
 74
     0
 49
-3.0
 74
     0
 49
0.0
 74
     0
 49
-3.0
 74
     0
  0
LTYPE
  5
10903
330
10828
100
AcDbSymbolTableRecord
100
AcDbLinetypeTableRecord
  2
ACAD_ISO07W100
 70
     0
  3
ISO dot . . . . . . . . . . . . . . . . . . . . 
 72
    65
 73
     2
 40
3.0
 49
0.0
 74
     0
 49
-3.0
 74
     0
  0
LTYPE
  5
10904
330
10828
100
AcDbSymbolTableRecord
100
AcDbLinetypeTableRecord
  2
ACAD_ISO08W100
 70
     0
  3
ISO long-dash short-dash ____ __ ____ __ ____ _
 72
    65
 73
     4
 40
36.0
 49
24.0
 74
     0
 49
-3.0
 74
     0
 49
6.0
 74
     0
 49
-3.0
 74
     0
  0
LTYPE
  5
10905
330
10828
100
AcDbSymbolTableRecord
100
AcDbLinetypeTableRecord
  2
ACAD_ISO09W100
 70
     0
  3
ISO long-dash double-short-dash ____ __ __ ____
 72
    65
 73
     6
 40
45.0
 49
24.0
 74
     0
 49
-3.0
 74
     0
 49
6.0
 74
     0
 49
-3.0
 74
     0
 49
6.0
 74
     0
 49
-3.0
 74
     0
  0
LTYPE
  5
10906
330
10828
100
AcDbSymbolTableRecord
100
AcDbLinetypeTableRecord
  2
ACAD_ISO02W100
 70
     0
  3
ISO dash __ __ __ __ __ __ __ __ __ __ __ __ __
 72
    65
 73
     2
 40
15.0
 49
12.0
 74
     0
 49
-3.0
 74
     0
  0
LTYPE
  5
10907
330
10828
100
AcDbSymbolTableRecord
100
AcDbLinetypeTableRecord
  2
ACAD_ISO03W100
 70
     0
  3
ISO dash space __    __    __    __    __    __
 72
    65
 73
     2
 40
30.0
 49
12.0
 74
     0
 49
-18.0
 74
     0
  0
LTYPE
  5
10908
330
10828
100
AcDbSymbolTableRecord
100
AcDbLinetypeTableRecord
  2
ACAD_ISO04W100
 70
     0
  3
ISO long-dash dot ____ . ____ . ____ . ____ . _
 72
    65
 73
     4
 40
30.0
 49
24.0
 74
     0
 49
-3.0
 74
     0
 49
0.0
 74
     0
 49
-3.0
 74
     0
  0
ENDTAB
  0
TABLE
  2
LAYER
  5
10826
330
0
100
AcDbSymbolTable
 70
     1
  0
LAYER
  5
10833
330
10826
100
AcDbSymbolTableRecord
100
AcDbLayerTableRecord
  2
0
 70
     0
 62
     7
  6
CONTINUOUS
  0
ENDTAB
  0
TABLE
  2
STYLE
  5
10827
330
0
100
AcDbSymbolTable
 70
    13
  0
STYLE
  5
10834
330
10827
100
AcDbSymbolTableRecord
100
AcDbTextStyleTableRecord
  2
STANDARD
 70
     0
 40
0.0
 41
1.0
 50
0.0
 71
     0
 42
0.2
  3
txt
  4

  0
STYLE
  5
108CD
330
10827
100
AcDbSymbolTableRecord
100
AcDbTextStyleTableRecord
  2
QCADDIMTEXTSTYLE
 70
     0
 40
0.0
 41
1.0
 50
0.0
 71
     0
 42
0.2
  3

  4

  0
STYLE
  5
108D1
330
10827
100
AcDbSymbolTableRecord
100
AcDbTextStyleTableRecord
  2
TEXTSTYLE0
 70
     0
 40
0.0
 41
1.0
 50
0.0
 71
     0
 42
0.2
  3
ltypeshp.shx
  4

  0
STYLE
  5
108D3
330
10827
100
AcDbSymbolTableRecord
100
AcDbTextStyleTableRecord
  2
TEXTSTYLE1
 70
     0
 40
0.0
 41
1.0
 50
0.0
 71
     0
 42
0.2
  3
ltypeshp.shx
  4

  0
STYLE
  5
108D4
330
10827
100
AcDbSymbolTableRecord
100
AcDbTextStyleTableRecord
  2
TEXTSTYLE2
 70
     0
 40
0.0
 41
1.0
 50
0.0
 71
     0
 42
0.2
  3
ltypeshp.shx
  4

  0
STYLE
  5
108D7
330
10827
100
AcDbSymbolTableRecord
100
AcDbTextStyleTableRecord
  2
TEXTSTYLE3
 70
     0
 40
0.0
 41
1.0
 50
0.0
 71
     0
 42
0.2
  3
STANDARD
  4

  0
STYLE
  5
108E3
330
10827
100
AcDbSymbolTableRecord
100
AcDbTextStyleTableRecord
  2
TEXTSTYLE4
 70
     0
 40
0.0
 41
1.0
 50
0.0
 71
     0
 42
0.2
  3
ltypeshp.shx
  4

  0
STYLE
  5
108E5
330
10827
100
AcDbSymbolTableRecord
100
AcDbTextStyleTableRecord
  2
TEXTSTYLE5
 70
     0
 40
0.0
 41
1.0
 50
0.0
 71
     0
 42
0.2
  3
STANDARD
  4

  0
STYLE
  5
108EA
330
10827
100
AcDbSymbolTableRecord
100
AcDbTextStyleTableRecord
  2
TEXTSTYLE6
 70
     0
 40
0.0
 41
1.0
 50
0.0
 71
     0
 42
0.2
  3
qcadshp.shx
  4

  0
STYLE
  5
108EC
330
10827
100
AcDbSymbolTableRecord
100
AcDbTextStyleTableRecord
  2
TEXTSTYLE7
 70
     0
 40
0.0
 41
1.0
 50
0.0
 71
     0
 42
0.2
  3
qcadshp.shx
  4

  0
STYLE
  5
108EE
330
10827
100
AcDbSymbolTableRecord
100
AcDbTextStyleTableRecord
  2
TEXTSTYLE8
 70
     0
 40
0.0
 41
1.0
 50
0.0
 71
     0
 42
0.2
  3
ltypeshp.shx
  4

  0
STYLE
  5
108F2
330
10827
100
AcDbSymbolTableRecord
100
AcDbTextStyleTableRecord
  2
TEXTSTYLE9
 70
     0
 40
0.0
 41
1.0
 50
0.0
 71
     0
 42
0.2
  3
ltypeshp.shx
  4

  0
STYLE
  5
108F3
330
10827
100
AcDbSymbolTableRecord
100
AcDbTextStyleTableRecord
  2
TEXTSTYLE10
 70
     0
 40
0.0
 41
1.0
 50
0.0
 71
     0
 42
0.2
  3
ltypeshp.shx
  4

  0
ENDTAB
  0
TABLE
  2
VIEW
  5
10829
330
0
100
AcDbSymbolTable
 70
     0
  0
ENDTAB
  0
TABLE
  2
UCS
  5
1082A
330
0
100
AcDbSymbolTable
 70
     0
  0
ENDTAB
  0
TABLE
  2
APPID
  5
1082C
330
0
100
AcDbSymbolTable
 70
     3
  0
APPID
  5
10835
330
1082C
100
AcDbSymbolTableRecord
100
AcDbRegAppTableRecord
  2
ACAD
 70
     0
  0
APPID
  5
10890
330
1082C
100
AcDbSymbolTableRecord
100
AcDbRegAppTableRecord
  2
QCAD
 70
     0
  0
APPID
  5
1093E
330
1082C
100
AcDbSymbolTableRecord
100
AcDbRegAppTableRecord
  2
ACAD_MLEADERVER
 70
     0
  0
ENDTAB
  0
TABLE
  2
DIMSTYLE
  5
1082D
330
0
100
AcDbSymbolTable
 70
     2
  0
DIMSTYLE
105
10849
330
1082D
100
AcDbSymbolTableRecord
100
AcDbDimStyleTableRecord
  2
STANDARD
 70
     0
  3

  4

  5

  6

  7

 40
1.0
 41
0.18
 42
0.0625
 43
0.38
 44
0.18
 45
0.0
 46
0.0
 47
0.0
 48
0.0
140
0.18
141
0.09
142
0.0
143
25.4
144
1.0
145
0.0
146
1.0
147
0.09
 71
     0
 72
     0
 73
     1
 74
     1
 75
     0
 76
     0
 77
     0
 78
     0
170
     0
171
     2
172
     0
173
     0
174
     0
175
     0
176
     0
177
     0
178
     0
270
     2
271
     4
272
     4
273
     2
274
     2
340
10834
275
     0
280
     0
281
     0
282
     0
283
     1
284
     0
285
     0
286
     0
287
     3
288
     0
  0
DIMSTYLE
105
108CE
330
1082D
100
AcDbSymbolTableRecord
100
AcDbDimStyleTableRecord
  2
QCADDIMSTYLE
 70
     0
  3

  4

  5

  6

  7

 40
1.0
 41
0.18
 42
0.0625
 43
0.38
 44
0.18
 45
0.0
 46
0.0
 47
0.0
 48
0.0
140
0.18
141
0.09
142
0.0
143
25.4
144
1.0
145
0.0
146
1.0
147
0.09
 71
     0
 72
     0
 73
     0
 74
     1
 75
     0
 76
     0
 77
     1
 78
     0
170
     0
171
     2
172
     0
173
     0
174
     0
175
     0
176
     0
177
     0
178
     0
270
     2
271
     4
272
     4
273
     2
274
     2
340
108CD
275
     0
280
     0
281
     0
282
     0
283
     1
284
     0
285
     0
286
     0
287
     3
288
     0
  0
ENDTAB
  0
TABLE
  2
BLOCK_RECORD
  5
10825
330
0
100
AcDbSymbolTable
 70
     0
  0
BLOCK_RECORD
  5
10841
330
10825
100
AcDbSymbolTableRecord
100
AcDbBlockTableRecord
  2
*MODEL_SPACE
  0
BLOCK_RECORD
  5
1083D
330
10825
100
AcDbSymbolTableRecord
100
AcDbBlockTableRecord
  2
*PAPER_SPACE
  0
ENDTAB
  0
ENDSEC
  0
SECTION
  2
BLOCKS
  0
BLOCK
  5
10842
330
10841
100
AcDbEntity
  8
0
100
AcDbBlockBegin
  2
*MODEL_SPACE
 70
     0
 10
0.0
 20
0.0
 30
0.0
  3
*MODEL_SPACE
  1

  0
ENDBLK
  5
10843
330
10841
100
AcDbEntity
  8
0
100
AcDbBlockEnd
  0
BLOCK
  5
1083E
330
1083D
100
AcDbEntity
 67
     1
  8
0
100
AcDbBlockBegin
  2
*PAPER_SPACE
 70
     0
 10
0.0
 20
0.0
 30
0.0
  3
*PAPER_SPACE
  1

  0
ENDBLK
  5
1083F
330
1083D
100
AcDbEntity
 67
     1
  8
0
100
AcDbBlockEnd
  0
ENDSEC
  0
SECTION
  2
ENTITIES
  0
LWPOLYLINE
  5
1019C
330
10841
100
AcDbEntity
  8
0
100
AcDbPolyline
 90
       20
 70
     1
 43
0.0
 10
275.263
 20
-16.52500000000022
 10
258.137
 20
-16.52499999999959
 10
258.137
 20
-17.02500000000053
 42
-0.4142135623730001
 10
257.637
 20
-17.52499999999972
 10
251.887
 20
-17.52500000000032
 42
-0.4142135623730924
 10
251.387
 20
-17.02499999999989
 10
251.387
 20
-16.52499999999989
 10
250.675
 20
-16.52499999999975
 42
-0.4142135623731757
 10
250.175
 20
-16.02500000000009
 10
250.175
 20
-3.025000000000716
 42
-0.4142135623730258
 10
250.675
 20
-2.524999999997618
 10
282.725
 20
-2.524999999998926
 42
-0.4142135623731461
 10
283.225
 20
-3.025000000000801
 10
283.225
 20
-16.02500000000049
 42
-0.414213562373108
 10
282.725
 20
-16.52499999999969
 10
282.013
 20
-16.52499999999981
 10
282.013
 20
-17.02499999999989
 42
-0.4142135623730066
 10
281.513
 20
-17.52499999999986
 10
275.763
 20
-17.52499999999986
 42
-0.4142135623730859
 10
275.263
 20
-17.025000000001
  0
LWPOLYLINE
  5
1019E
330
10841
100
AcDbEntity
  8
0
100
AcDbPolyline
 90
        8
 70
     1
 43
0.0
 10
130.825
 20
-3.025000000000063
 42
0.4142135623730901
 10
130.325
 20
-2.524999999999721
 10
117.325
 20
-2.524999999999849
 42
0.4142135623730869
 10
116.825
 20
-3.024999999999665
 10
116.825
 20
-16.02499999999992
 42
0.4142135623730742
 10
117.325
 20
-16.52500000000002
 10
130.325
 20
-16.52500000000005
 42
0.414213562373095
 10
130.825
 20
-16.02499999999996
  0
LWPOLYLINE
  5
106E4
330
10841
100
AcDbEntity
  8
0
100
AcDbPolyline
 90
        6
 70
   128
 43
0.0
 10
6.118249999999962
 20
-73.6750000005933
 10
6.118249999999961
 20
-74.17500000000004
 42
0.4142135623731096
 10
6.618249999999989
 20
-74.67500000000001
 10
12.36825000000001
 20
-74.67500000000001
 42
0.4142135623730846
 10
12.86824999999996
 20
-74.17500000000004
 10
12.86824999999996
 20
-73.67500000059331
  0
LWPOLYLINE
  5
101A0
330
10841
100
AcDbEntity
  8
0
100
AcDbPolyline
 90
        8
 70
     1
 43
0.0
 10
44.59999999999999
 20
-78.72500000000001
 10
31.60000000000002
 20
-78.72500000000001
 42
0.4142135623731106
 10
31.10000000000002
 20
-79.225
 10
31.10000000000002
 20
-92.22500000000001
 42
0.4142135623731341
 10
31.60000000000002
 20
-92.72500000000001
 10
44.59999999999999
 20
-92.72500000000004
 42
0.414213562373069
 10
45.09999999999997
 20
-92.22500000000005
 10
45.09999999999998
 20
-79.22500000000004
 42
0.4142135623731054
  0
LWPOLYLINE
  5
101A1
330
10841
100
AcDbEntity
  8
0
100
AcDbPolyline
 90
        8
 70
     1
 43
0.0
 10
197.7875000005933
 20
-60.17500000059341
 10
197.7875000005933
 20
-73.17500000059337
 42
0.414213562373121
 10
198.2875000005933
 20
-73.67500000059319
 10
211.2875000005933
 20
-73.6750000005933
 42
0.4142135623730742
 10
211.7875000005933
 20
-73.17500000059323
 10
211.7875000005933
 20
-60.17500000059331
 42
0.4142135623731367
 10
211.2875000005932
 20
-59.67500000059349
 10
198.2875000005933
 20
-59.67500000059327
 42
0.4142135623730222
  0
LWPOLYLINE
  5
106E3
330
10841
100
AcDbEntity
  8
0
100
AcDbPolyline
 90
        6
 70
   128
 43
0.0
 10
36.74425000000001
 20
-73.6750000005933
 10
36.74425000000001
 20
-74.17500000000004
 42
-0.4142135623731117
 10
36.24424999999999
 20
-74.67500000000001
 10
30.49424999999995
 20
-74.67500000000004
 42
-0.4142135623730867
 10
29.99424999999997
 20
-74.17500000000004
 10
29.99424999999997
 20
-73.67500000059331
  0
LWPOLYLINE
  5
101A2
330
10841
100
AcDbEntity
  8
0
100
AcDbPolyline
 90
        8
 70
     1
 43
0.0
 10
98.275
 20
-2.525000000000063
 42
0.4142135623730983
 10
97.77499999999998
 20
-3.025000000000063
 10
97.77500000000002
 20
-16.02500000000002
 42
0.414213562373056
 10
98.275
 20
-16.52500000000002
 10
111.275
 20
-16.52500000000006
 42
0.4142135623731015
 10
111.775
 20
-16.02499999999999
 10
111.775
 20
-3.025000000000261
 42
0.4142135623730898
 10
111.275
 20
-2.525000000000006
  0
LWPOLYLINE
  5
101A3
330
10841
100
AcDbEntity
  8
0
100
AcDbPolyline
 90
        8
 70
     1
 43
0.0
 10
5.40875
 20
-54.62500000000001
 10
23.16874999999999
 20
-54.62500000000003
 42
0.414213562373121
 10
23.66875
 20
-54.12500000000003
 10
23.66874999999999
 20
-41.12500000000003
 42
0.4142135623731003
 10
23.16874999999999
 20
-40.62500000000003
 10
5.40875
 20
-40.62500000000001
 42
0.4142135623730697
 10
4.908749999999971
 20
-41.12500000000001
 10
4.90875
 20
-54.12500000000003
 42
0.4142135623731061
  0
LWPOLYLINE
  5
101A4
330
10841
100
AcDbEntity
  8
0
100
AcDbPolyline
 90
        8
 70
     1
 43
0.0
 10
207.3125000005933
 20
-41.12500000059325
 42
-0.4142135623730222
 10
207.8125000005933
 20
-40.62500000059327
 10
220.8125000005933
 20
-40.62500000059327
 42
-0.4142135623731314
 10
221.3125000005933
 20
-41.12500000059327
 10
221.3125000005934
 20
-54.1250000005933
 42
-0.4142135623730742
 10
220.8125000005933
 20
-54.62500000059322
 10
207.8125000005933
 20
-54.62500000059333
 42
-0.414213562373121
 10
207.3125000005933
 20
-54.12500000059325
  0
LWPOLYLINE
  5
101A5
330
10841
100
AcDbEntity
  8
0
100
AcDbPolyline
 90
        8
 70
     1
 43
0.0
 10
79.22500000000002
 20
-16.52500000000002
 10
92.22499999999998
 20
-16.52500000000006
 42
0.4142135623730937
 10
92.725
 20
-16.02499999999998
 10
92.725
 20
-3.02500000000029
 42
0.414213562373056
 10
92.225
 20
-2.525000000000304
 10
79.22500000000002
 20
-2.524999999999864
 42
0.4142135623731048
 10
78.72500000000005
 20
-3.025000000000176
 10
78.72500000000005
 20
-16.02500000000001
 42
0.4142135623730989
  0
LWPOLYLINE
  5
101A6
330
10841
100
AcDbEntity
  8
0
100
AcDbPolyline
 90
        8
 70
     1
 43
0.0
 10
131.1125000005933
 20
-41.12500000059337
 42
-0.4142135623730898
 10
131.6125000005933
 20
-40.62500000059333
 10
144.6125000005933
 20
-40.62500000059333
 42
-0.4142135623730742
 10
145.1125000005933
 20
-41.12500000059333
 10
145.1125000005933
 20
-54.12500000059325
 42
-0.4142135623731002
 10
144.6125000005933
 20
-54.62500000059327
 10
131.6125000005933
 20
-54.62500000059319
 42
-0.4142135623730951
 10
131.1125000005933
 20
-54.12500000059325
  0
LWPOLYLINE
  5
10821
330
10841
100
AcDbEntity
  8
0
100
AcDbPolyline
 90
       16
 70
   128
 43
0.0
 10
244.24325
 20
-59.67499999999996
 10
243.53125
 20
-59.67500000000015
 42
0.4142135623731117
 10
243.03125
 20
-60.17500000000012
 10
243.03125
 20
-73.17500000000004
 42
0.4142135623731783
 10
243.5312500000001
 20
-73.67499999999981
 10
244.24325
 20
-73.675
 10
244.24325
 20
-74.175
 42
0.4142135623730617
 10
244.74325
 20
-74.675
 10
250.49325
 20
-74.67500000000008
 42
0.414213562373095
 10
250.99325
 20
-74.17500000000007
 10
250.99325
 20
-73.67499999999988
 10
266.05625
 20
-73.67500000000004
 42
0.414213562373095
 10
266.55625
 20
-73.17500000000004
 10
266.55625
 20
-60.17500000000006
 42
0.414213562373095
 10
266.05625
 20
-59.67499999999996
 10
250.99325
 20
-59.6749999999999
  0
LWPOLYLINE
  5
10817
330
10841
100
AcDbEntity
  8
0
100
AcDbPolyline
 90
        6
 70
   128
 43
0.0
 10
196.65
 20
-92.22500000000046
 10
196.65
 20
-78.22500000000007
 42
-0.4142135623729951
 10
197.15
 20
-77.72499999999995
 10
202.9
 20
-77.72500000000004
 42
-0.4142135623731616
 10
203.4000000000001
 20
-78.225
 10
203.4
 20
-92.22500000000043
  0
LWPOLYLINE
  5
101AB
330
10841
100
AcDbEntity
  8
0
100
AcDbPolyline
 90
        8
 70
     1
 43
0.0
 10
277.9625
 20
-92.72500000000024
 42
0.4142135623730638
 10
278.4625
 20
-92.22499999999982
 10
278.4625
 20
-79.2249999999999
 42
0.4142135623731159
 10
277.9625
 20
-78.72499999999997
 10
264.9624999999999
 20
-78.72500000000021
 42
0.4142135623730794
 10
264.4625
 20
-79.22499999999998
 10
264.4625
 20
-92.22499999999992
 42
0.4142135623731887
 10
264.9625
 20
-92.72499999999988
  0
LWPOLYLINE
  5
101AC
330
10841
100
AcDbEntity
  8
0
100
AcDbPolyline
 90
        8
 70
     1
 43
0.0
 10
3.024999999999979
 20
-2.525000000000006
 42
0.4142135623730944
 10
2.524999999999979
 20
-3.025000000000006
 10
2.525000000000007
 20
-16.02500000000002
 42
0.414213562373082
 10
3.024999999999979
 20
-16.52500000000001
 10
16.02500000000001
 20
-16.52500000000001
 42
0.4142135623730924
 10
16.52499999999998
 20
-16.02500000000001
 10
16.52500000000001
 20
-3.024999999999977
 42
0.4142135623731035
 10
16.02499999999998
 20
-2.525000000000006
  0
LWPOLYLINE
  5
101AD
330
10841
100
AcDbEntity
  8
0
100
AcDbPolyline
 90
        8
 70
     1
 43
0.0
 10
193.0250000000001
 20
-16.02500000000001
 42
0.4142135623732225
 10
193.525
 20
-16.52499999999986
 10
206.525
 20
-16.52499999999986
 42
0.4142135623730027
 10
207.025
 20
-16.02499999999991
 10
207.025
 20
-3.02499999999992
 42
0.4142135623731357
 10
206.525
 20
-2.525000000001214
 10
193.525
 20
-2.524999999999409
 42
0.4142135623730401
 10
193.025
 20
-3.0250000000011
  0
LWPOLYLINE
  5
139
330
10841
100
AcDbEntity
  8
0
100
AcDbPolyline
 90
       24
 70
     1
 43
0.0
 10
140.9893833595073
 20
6.505327725794397
 42
0.3178372263070919
 10
140.0465728738651
 20
7.171991687192067
 10
-4.343147790581178
 20
7.17157526655442
 42
0.3178366837267295
 10
-5.285954228979204
 20
6.50490780206559
 42
-0.2265411417528733
 10
-6.504906208612814
 20
5.285954792162098
 42
0.3178372452014083
 10
-7.171572875260248
 20
4.34314575050724
 10
-7.171572875253807
 20
-99.59314575050762
 42
0.3178372451957759
 10
-6.504906208587176
 20
-100.5359547920897
 42
-0.2265416775788713
 10
-5.285952869645242
 20
-101.7549116461061
 42
0.3178372448052537
 10
-4.343145751937705
 20
-102.4215810315284
 10
140.0465708351838
 20
-102.4219976099013
 42
0.3178378067359132
 10
140.989382480183
 20
-101.7553317399354
 42
-0.7071053829229765
 10
144.7606161607033
 20
-101.75532789582
 42
0.3178372455853561
 10
145.7034271261523
 20
-102.4219918437043
 10
290.0931477905812
 20
-102.4215752652317
 42
0.3178366836433098
 10
291.035954228404
 20
-101.7549078018622
 42
-0.2265411418092806
 10
292.2549062081576
 20
-100.5359547908747
 42
0.3178372449089047
 10
292.9215728665757
 20
-99.59314575050755
 10
292.9215737128656
 20
4.343145752109637
 42
0.3178376407022412
 10
292.2549073911645
 20
5.285958166710411
 42
-0.2265416238511037
 10
291.0359618605441
 20
6.504915361848939
 42
0.3178433292848413
 10
290.0931464088493
 20
7.171631242548017
 10
145.7034290893087
 20
7.171972765688432
 42
0.3178345124256174
 10
144.7606232107568
 20
6.505329808238911
 42
-0.7071057862554295
  0
LWPOLYLINE
  5
101AE
330
10841
100
AcDbEntity
  8
0
100
AcDbPolyline
 90
        8
 70
     1
 43
0.0
 10
35.07499999999999
 20
-2.524999999999991
 10
22.07499999999999
 20
-2.525000000000006
 42
0.414213562373097
 10
21.57499999999999
 20
-3.025000000000034
 10
21.57499999999999
 20
-16.02500000000001
 42
0.4142135623731003
 10
22.075
 20
-16.52500000000001
 10
35.07499999999999
 20
-16.52500000000001
 42
0.4142135623730885
 10
35.57499999999999
 20
-16.02500000000001
 10
35.57499999999999
 20
-3.02500000000002
 42
0.4142135623730915
  0
LWPOLYLINE
  5
101B0
330
10841
100
AcDbEntity
  8
0
100
AcDbPolyline
 90
        8
 70
     1
 43
0.0
 10
68.41250000000005
 20
-78.72499999999998
 10
55.41250000000004
 20
-78.72500000000001
 42
0.4142135623731159
 10
54.91249999999999
 20
-79.22500000000004
 10
54.91250000000004
 20
-92.225
 42
0.414213562373095
 10
55.41250000000002
 20
-92.72500000000001
 10
68.41250000000004
 20
-92.72499999999998
 42
0.4142135623731106
 10
68.9125
 20
-92.22500000000004
 10
68.91250000000001
 20
-79.22500000000001
 42
0.4142135623731106
  0
LWPOLYLINE
  5
101B1
330
10841
100
AcDbEntity
  8
0
100
AcDbPolyline
 90
        8
 70
     1
 43
0.0
 10
149.375
 20
-16.52500000000009
 42
0.4142135623731145
 10
149.875
 20
-16.02500000000012
 10
149.875
 20
-3.025000000000887
 42
0.4142135623730892
 10
149.375
 20
-2.524999999999963
 10
136.375
 20
-2.524999999999608
 42
0.4142135623730648
 10
135.875
 20
-3.024999999999295
 10
135.875
 20
-16.02500000000006
 42
0.4142135623730976
 10
136.375
 20
-16.52500000000022
  0
LWPOLYLINE
  5
101B2
330
10841
100
AcDbEntity
  8
0
100
AcDbPolyline
 90
        8
 70
     1
 43
0.0
 10
31.10000000059327
 20
-22.07500000059328
 10
31.10000000059328
 20
-35.07500000059328
 42
0.4142135623730951
 10
31.60000000059325
 20
-35.57500000059329
 10
44.60000000059324
 20
-35.57500000059329
 42
0.4142135623730951
 10
45.10000000059328
 20
-35.07500000059328
 10
45.10000000059327
 20
-22.07500000059329
 42
0.4142135623730951
 10
44.60000000059324
 20
-21.57500000059332
 10
31.60000000059327
 20
-21.57500000059329
 42
0.4142135623730924
  0
LWPOLYLINE
  5
101B3
330
10841
100
AcDbEntity
  8
0
100
AcDbPolyline
 90
        8
 70
     1
 43
0.0
 10
230.3375
 20
-78.72500000000016
 10
217.3375
 20
-78.72500000000005
 42
0.4142135623730014
 10
216.8375000000001
 20
-79.2249999999999
 10
216.8375000000001
 20
-92.22499999999987
 42
0.4142135623731783
 10
217.3375
 20
-92.72500000000001
 10
230.3375
 20
-92.72500000000004
 42
0.4142135623731262
 10
230.8375
 20
-92.22500000000015
 10
230.8375
 20
-79.2250000000001
 42
0.4142135623732095
  0
LWPOLYLINE
  5
101B4
330
10841
100
AcDbEntity
  8
0
100
AcDbPolyline
 90
        8
 70
     1
 43
0.0
 10
50.15000000059328
 20
-22.07500000059325
 42
-0.4142135623730951
 10
50.65000000059324
 20
-21.57500000059326
 10
63.65000000059324
 20
-21.57500000059328
 42
-0.4142135623730977
 10
64.15000000059322
 20
-22.07500000059329
 10
64.15000000059324
 20
-35.07500000059328
 42
-0.4142135623730977
 10
63.65000000059325
 20
-35.57500000059328
 10
50.65000000059322
 20
-35.57500000059329
 42
-0.4142135623730951
 10
50.15000000059324
 20
-35.07500000059329
  0
LWPOLYLINE
  5
101B5
330
10841
100
AcDbEntity
  8
0
100
AcDbPolyline
 90
        8
 70
     1
 43
0.0
 10
254.65
 20
-79.22500000000015
 42
0.4142135623731367
 10
254.15
 20
-78.72499999999997
 10
241.15
 20
-78.72500000000021
 42
0.4142135623730118
 10
240.6500000000001
 20
-79.22499999999987
 10
240.65
 20
-92.22500000000005
 42
0.4142135623730222
 10
241.15
 20
-92.72500000000001
 10
254.15
 20
-92.72500000000022
 42
0.4142135623730846
 10
254.6500000000001
 20
-92.22500000000005
  0
LWPOLYLINE
  5
101B6
330
10841
100
AcDbEntity
  8
0
100
AcDbPolyline
 90
        8
 70
     1
 43
0.0
 10
107.3000000005933
 20
-22.07500000059329
 10
107.3000000005933
 20
-35.07500000059322
 42
0.4142135623730924
 10
107.8000000005933
 20
-35.57500000059323
 10
120.8000000005933
 20
-35.57500000059328
 42
0.4142135623731002
 10
121.3000000005933
 20
-35.07500000059323
 10
121.3000000005933
 20
-22.07500000059322
 42
0.4142135623730742
 10
120.8000000005933
 20
-21.57500000059339
 10
107.8000000005933
 20
-21.57500000059325
 42
0.4142135623731054
  0
LWPOLYLINE
  5
101B7
330
10841
100
AcDbEntity
  8
0
100
AcDbPolyline
 90
        8
 70
     1
 43
0.0
 10
41.125
 20
-16.52500000000001
 10
54.125
 20
-16.52500000000005
 42
0.4142135623731015
 10
54.625
 20
-16.02500000000008
 10
54.625
 20
-3.025000000000034
 42
0.4142135623730944
 10
54.125
 20
-2.525000000000006
 10
41.125
 20
-2.524999999999949
 42
0.4142135623731152
 10
40.625
 20
-3.025000000000063
 10
40.625
 20
-16.02500000000002
 42
0.4142135623730756
  0
LWPOLYLINE
  5
10818
330
10841
100
AcDbEntity
  8
0
100
AcDbPolyline
 90
        6
 70
   128
 43
0.0
 10
89.10000000000001
 20
-92.22499999999984
 10
89.10000000000002
 20
-78.225
 42
0.41421356237312
 10
88.59999999999998
 20
-77.72500000000005
 10
82.85000000000002
 20
-77.72500000000004
 42
0.4142135623730867
 10
82.35000000000002
 20
-78.22500000000005
 10
82.35
 20
-92.22499999999987
  0
LWPOLYLINE
  5
101B9
330
10841
100
AcDbEntity
  8
0
100
AcDbPolyline
 90
        8
 70
     1
 43
0.0
 10
169.2125000005933
 20
-41.1250000005933
 42
-0.4142135623730742
 10
169.7125000005933
 20
-40.62500000059339
 10
182.7125000005933
 20
-40.62500000059325
 42
-0.414213562373121
 10
183.2125000005933
 20
-41.12500000059327
 10
183.2125000005933
 20
-54.12500000059325
 42
-0.4142135623730222
 10
182.7125000005934
 20
-54.6250000005932
 10
169.7125000005933
 20
-54.62500000059339
 42
-0.4142135623731314
 10
169.2125000005933
 20
-54.12500000059325
  0
LWPOLYLINE
  5
101BA
330
10841
100
AcDbEntity
  8
0
100
AcDbPolyline
 90
        8
 70
     1
 43
0.0
 10
155.425
 20
-2.524999999999665
 42
0.4142135623730508
 10
154.925
 20
-3.024999999999707
 10
154.925
 20
-16.02499999999998
 42
0.4142135623730638
 10
155.425
 20
-16.52500000000009
 10
168.425
 20
-16.52499999999998
 42
0.4142135623730209
 10
168.925
 20
-16.02499999999995
 10
168.925
 20
-3.024999999999267
 42
0.4142135623730329
 10
168.425
 20
-2.524999999999778
  0
LWPOLYLINE
  5
101BB
330
10841
100
AcDbEntity
  8
0
100
AcDbPolyline
 90
        8
 70
     1
 43
0.0
 10
145.4000000005933
 20
-22.07500000059335
 10
145.4000000005933
 20
-35.07500000059326
 42
0.4142135623730716
 10
145.9000000005933
 20
-35.57500000059333
 10
158.9000000005933
 20
-35.57500000059318
 42
0.4142135623731054
 10
159.4000000005933
 20
-35.07500000059326
 10
159.4000000005933
 20
-22.07500000059335
 42
0.4142135623730951
 10
158.9000000005933
 20
-21.57500000059322
 10
145.9000000005933
 20
-21.57500000059333
 42
0.414213562373082
  0
LWPOLYLINE
  5
101BC
330
10841
100
AcDbEntity
  8
0
100
AcDbPolyline
 90
        8
 70
     1
 43
0.0
 10
7.787500000000025
 20
-21.57500000000003
 42
0.4142135623730924
 10
7.287500000000025
 20
-22.07500000000002
 10
7.287500000000025
 20
-35.07500000000002
 42
0.4142135623730937
 10
7.787500000000025
 20
-35.57500000000002
 10
20.78749999999999
 20
-35.57500000000005
 42
0.4142135623731028
 10
21.28750000000002
 20
-35.07500000000002
 10
21.28750000000002
 20
-22.075
 42
0.4142135623730872
 10
20.78750000000002
 20
-21.57500000000002
  0
LWPOLYLINE
  5
101BD
330
10841
100
AcDbEntity
  8
0
100
AcDbPolyline
 90
        8
 70
     1
 43
0.0
 10
216.8375000005934
 20
-60.1750000005931
 10
216.8375000005933
 20
-73.17500000059322
 42
0.414213562373121
 10
217.3375000005933
 20
-73.6750000005931
 10
230.3375000005933
 20
-73.6750000005933
 42
0.4142135623730794
 10
230.8375000005933
 20
-73.17500000059336
 10
230.8375000005934
 20
-60.17500000059315
 42
0.4142135623730847
 10
230.3375000005932
 20
-59.6750000005931
 10
217.3375000005933
 20
-59.67500000059329
 42
0.4142135623731575
  0
LWPOLYLINE
  5
101BE
330
10841
100
AcDbEntity
  8
0
100
AcDbPolyline
 90
        8
 70
     1
 43
0.0
 10
173.975
 20
-3.024999999999523
 10
173.975
 20
-16.02500000000006
 42
0.4142135623731991
 10
174.475
 20
-16.52500000000009
 10
187.475
 20
-16.52500000000026
 42
0.4142135623731106
 10
187.975
 20
-16.02500000000023
 10
187.975
 20
-3.025000000000603
 42
0.4142135623731464
 10
187.475
 20
-2.524999999999579
 10
174.475
 20
-2.52500000000154
 42
0.4142135623730794
  0
LWPOLYLINE
  5
101BF
330
10841
100
AcDbEntity
  8
0
100
AcDbPolyline
 90
        8
 70
     1
 43
0.0
 10
202.5500000005933
 20
-22.07500000059295
 42
-0.414213562373082
 10
203.0500000005933
 20
-21.57500000059345
 10
216.0500000005933
 20
-21.57500000059339
 42
-0.4142135623731028
 10
216.5500000005933
 20
-22.07500000059341
 10
216.5500000005933
 20
-35.07500000059329
 42
-0.4142135623730456
 10
216.0500000005933
 20
-35.57500000059341
 10
203.0500000005933
 20
-35.57500000059355
 42
-0.4142135623731314
 10
202.5500000005933
 20
-35.07500000059333
  0
LWPOLYLINE
  5
10822
330
10841
100
AcDbEntity
  8
0
100
AcDbPolyline
 90
       11
 70
   128
 43
0.0
 10
268.1192500000001
 20
-60.17500000000003
 10
268.1192500000001
 20
-74.17499999999997
 42
0.4142135623730617
 10
268.6192500000001
 20
-74.67500000000005
 10
274.3692500000001
 20
-74.6749999999998
 42
0.4142135623731616
 10
274.8692500000001
 20
-74.1749999999999
 10
274.8692500000001
 20
-73.67499999999988
 10
282.725
 20
-73.67500000000018
 42
0.414213562373095
 10
283.225
 20
-73.17500000000017
 10
283.225
 20
-60.175
 42
0.4142135623731283
 10
282.725
 20
-59.67499999999998
 10
274.8692500000001
 20
-59.67499999999998
  0
LWPOLYLINE
  5
101C1
330
10841
100
AcDbEntity
  8
0
100
AcDbPolyline
 90
        8
 70
     1
 43
0.0
 10
35.86250000059329
 20
-41.12500000059327
 42
-0.4142135623730951
 10
36.36250000059326
 20
-40.62500000059327
 10
49.36250000059326
 20
-40.62500000059327
 42
-0.4142135623730951
 10
49.86250000059329
 20
-41.12500000059327
 10
49.86250000059324
 20
-54.12500000059333
 42
-0.4142135623730951
 10
49.36250000059326
 20
-54.62500000059327
 10
36.36250000059326
 20
-54.62500000059332
 42
-0.4142135623730951
 10
35.86250000059326
 20
-54.12500000059327
  0
LWPOLYLINE
  5
101C3
330
10841
100
AcDbEntity
  8
0
100
AcDbPolyline
 90
        8
 70
     1
 43
0.0
 10
231.125
 20
-16.02500000000016
 42
0.4142135623730898
 10
231.625
 20
-16.52499999999974
 10
244.625
 20
-16.52499999999984
 42
0.4142135623730339
 10
245.1250000000001
 20
-16.02500000000035
 10
245.125
 20
-3.025000000000205
 42
0.4142135623731835
 10
244.625
 20
-2.525000000000134
 10
231.625
 20
-2.52500000000046
 42
0.4142135623730658
 10
231.125
 20
-3.024999999998983
  0
LWPOLYLINE
  5
101C5
330
10841
100
AcDbEntity
  8
0
100
AcDbPolyline
 90
        8
 70
     1
 43
0.0
 10
7.287500000000025
 20
-92.22500000000001
 10
7.287500000000025
 20
-79.22500000000001
 42
-0.4142135623730866
 10
7.787500000000025
 20
-78.72500000000001
 10
20.78749999999999
 20
-78.72500000000001
 42
-0.4142135623731106
 10
21.28750000000002
 20
-79.22500000000001
 10
21.28749999999997
 20
-92.22500000000001
 42
-0.414213562373069
 10
20.78749999999998
 20
-92.72500000000004
 10
7.787499999999996
 20
-92.72500000000001
 42
-0.414213562373069
  0
LWPOLYLINE
  5
101C6
330
10841
100
AcDbEntity
  8
0
100
AcDbPolyline
 90
        8
 70
     1
 43
0.0
 10
149.875
 20
-79.22500000000007
 42
0.4142135623730898
 10
149.3749999999999
 20
-78.72500000000008
 10
136.375
 20
-78.72500000000001
 42
0.4142135623730794
 10
135.875
 20
-79.22500000000007
 10
135.875
 20
-92.22499999999998
 42
0.4142135623730742
 10
136.375
 20
-92.72499999999998
 10
149.375
 20
-92.72500000000011
 42
0.4142135623731159
 10
149.875
 20
-92.22500000000004
  0
LWPOLYLINE
  5
101C7
330
10841
100
AcDbEntity
  8
0
100
AcDbPolyline
 90
        8
 70
     1
 43
0.0
 10
178.7375000005933
 20
-60.17500000059329
 42
-0.4142135623730742
 10
179.2375000005933
 20
-59.67500000059336
 10
192.2375000005933
 20
-59.67500000059337
 42
-0.4142135623731263
 10
192.7375000005933
 20
-60.17500000059336
 10
192.7375000005933
 20
-73.17500000059323
 42
-0.4142135623730222
 10
192.2375000005933
 20
-73.67500000059319
 10
179.2375000005933
 20
-73.6750000005933
 42
-0.4142135623731314
 10
178.7375000005933
 20
-73.17500000059341
  0
LWPOLYLINE
  5
101C8
330
10841
100
AcDbEntity
  8
0
100
AcDbPolyline
 90
        8
 70
     1
 43
0.0
 10
226.075
 20
-3.025000000001228
 42
0.4142135623731724
 10
225.575
 20
-2.525000000000489
 10
212.575
 20
-2.525000000001143
 42
0.4142135623731022
 10
212.075
 20
-3.025000000000176
 10
212.075
 20
-16.02500000000026
 42
0.4142135623730469
 10
212.575
 20
-16.5250000000004
 10
225.575
 20
-16.52500000000008
 42
0.4142135623730144
 10
226.075
 20
-16.02500000000042
  0
LWPOLYLINE
  5
101C9
330
10841
100
AcDbEntity
  8
0
100
AcDbPolyline
 90
        8
 70
     1
 43
0.0
 10
59.67500000000001
 20
-3.025000000000006
 10
59.67500000000001
 20
-16.02500000000006
 42
0.4142135623730963
 10
60.17500000000001
 20
-16.52500000000002
 10
73.17500000000003
 20
-16.52500000000009
 42
0.4142135623730898
 10
73.67500000000004
 20
-16.02500000000001
 10
73.67500000000004
 20
-3.024999999999878
 42
0.41421356237311
 10
73.17500000000003
 20
-2.525000000000176
 10
60.17500000000001
 20
-2.524999999999991
 42
0.4142135623730859
  0
LWPOLYLINE
  5
101CA
330
10841
100
AcDbEntity
  8
0
100
AcDbPolyline
 90
        8
 70
     1
 43
0.0
 10
226.3625000005933
 20
-41.12500000059319
 42
-0.4142135623730222
 10
226.8625000005933
 20
-40.62500000059337
 10
239.8625000005933
 20
-40.62500000059322
 42
-0.4142135623731314
 10
240.3625000005933
 20
-41.12500000059315
 10
240.3625000005933
 20
-54.12500000059347
 42
-0.4142135623730742
 10
239.8625000005933
 20
-54.62500000059342
 10
226.8625000005933
 20
-54.62500000059333
 42
-0.414213562373121
 10
226.3625000005933
 20
-54.12500000059347
  0
LWPOLYLINE
  5
101CB
330
10841
100
AcDbEntity
  8
0
100
AcDbPolyline
 90
        8
 70
     1
 43
0.0
 10
4.26249999999999
 20
-21.57500000000003
 10
3.025000000000007
 20
-21.57500000000003
 42
0.4142135623730966
 10
2.525000000000007
 20
-22.07500000000002
 10
2.525000000000007
 20
-35.07500000000002
 42
0.414213562373096
 10
3.025000000000007
 20
-35.57500000000002
 10
4.26249999999999
 20
-35.57500000000002
 42
0.4142135623730966
 10
4.76249999999999
 20
-35.07500000000002
 10
4.76249999999999
 20
-22.07500000000002
 42
0.4142135623730966
  0
LWPOLYLINE
  5
101CC
330
10841
100
AcDbEntity
  8
0
100
AcDbPolyline
 90
        8
 70
     1
 43
0.0
 10
26.81250000029664
 20
-21.57500000029667
 10
25.57500000029665
 20
-21.57500000029667
 42
0.4142135623730966
 10
25.07500000029665
 20
-22.07500000029665
 10
25.07500000029665
 20
-35.07500000029665
 42
0.414213562373096
 10
25.57500000029665
 20
-35.57500000029665
 10
26.81250000029664
 20
-35.57500000029665
 42
0.4142135623730966
 10
27.31250000029664
 20
-35.07500000029665
 10
27.31250000029664
 20
-22.07500000029665
 42
0.4142135623730966
  0
LWPOLYLINE
  5
101CD
330
10841
100
AcDbEntity
  8
0
100
AcDbPolyline
 90
        8
 70
     1
 43
0.0
 10
30.38437500029661
 20
-40.62500000029665
 10
29.14687500029663
 20
-40.62500000029665
 42
0.4142135623730966
 10
28.64687500029663
 20
-41.12500000029664
 10
28.64687500029663
 20
-54.12500000029664
 42
0.414213562373096
 10
29.14687500029663
 20
-54.62500000029664
 10
30.38437500029661
 20
-54.62500000029664
 42
0.4142135623730966
 10
30.88437500029661
 20
-54.12500000029664
 10
30.88437500029661
 20
-41.12500000029664
 42
0.4142135623730966
  0
LWPOLYLINE
  5
101CF
330
10841
100
AcDbEntity
  8
0
100
AcDbPolyline
 90
        8
 70
     1
 43
0.0
 10
116.0375000005933
 20
-59.67500000059331
 42
-0.414213562373069
 10
116.5375000005933
 20
-60.17500000059337
 10
116.5375000005933
 20
-73.17500000059324
 42
-0.4142135623731002
 10
116.0375000005933
 20
-73.67500000059331
 10
103.0375000005933
 20
-73.67500000059334
 42
-0.4142135623730951
 10
102.5375000005932
 20
-73.17500000059337
 10
102.5375000005933
 20
-60.17500000059329
 42
-0.4142135623731054
 10
103.0375000005933
 20
-59.67500000059324
  0
LWPOLYLINE
  5
101D3
330
10841
100
AcDbEntity
  8
0
100
AcDbPolyline
 90
        8
 70
     1
 43
0.0
 10
237.5531250002966
 20
-59.67500000029663
 10
236.3156250002966
 20
-59.67500000029663
 42
0.4142135623730924
 10
235.8156250002966
 20
-60.17500000029663
 10
235.8156250002966
 20
-73.17500000029713
 42
0.4142135623730924
 10
236.3156250002966
 20
-73.67500000029713
 10
237.5531250002966
 20
-73.6750000002971
 42
0.4142135623731236
 10
238.0531250002966
 20
-73.17500000029713
 10
238.0531250002966
 20
-60.17500000029663
 42
0.4142135623731236
  0
LWPOLYLINE
  5
101D4
330
10841
100
AcDbEntity
  8
0
100
AcDbPolyline
 90
        8
 70
     1
 43
0.0
 10
140.6375000005933
 20
-60.17500000059326
 42
-0.4142135623731054
 10
141.1375000005933
 20
-59.67500000059336
 10
154.1375000005933
 20
-59.67500000059337
 42
-0.4142135623731002
 10
154.6375000005933
 20
-60.17500000059337
 10
154.6375000005933
 20
-73.1750000005933
 42
-0.4142135623730898
 10
154.1375000005933
 20
-73.67500000059326
 10
141.1375000005933
 20
-73.6750000005933
 42
-0.4142135623730951
 10
140.6375000005933
 20
-73.17500000059327
  0
LWPOLYLINE
  5
101D5
330
10841
100
AcDbEntity
  8
0
100
AcDbPolyline
 90
        8
 70
     1
 43
0.0
 10
282.7250000000001
 20
-78.72499999999997
 10
281.4875000000001
 20
-78.72499999999997
 42
0.4142135623730898
 10
280.9875000000001
 20
-79.22499999999995
 10
280.9875000000001
 20
-92.22500000000048
 42
0.414213562373095
 10
281.4875000000001
 20
-92.72500000000046
 10
282.7250000000001
 20
-92.72500000000045
 42
0.4142135623731159
 10
283.2250000000001
 20
-92.22500000000048
 10
283.2250000000001
 20
-79.22499999999995
 42
0.414213562373121
  0
LWPOLYLINE
  5
101D6
330
10841
100
AcDbEntity
  8
0
100
AcDbPolyline
 90
        8
 70
     1
 43
0.0
 10
135.0875000005933
 20
-59.67500000059331
 42
-0.414213562373069
 10
135.5875000005933
 20
-60.17500000059326
 10
135.5875000005933
 20
-73.17500000059334
 42
-0.4142135623731002
 10
135.0875000005933
 20
-73.67500000059326
 10
122.0875000005933
 20
-73.67500000059329
 42
-0.4142135623730951
 10
121.5875000005933
 20
-73.1750000005933
 10
121.5875000005933
 20
-60.17500000059332
 42
-0.4142135623731054
 10
122.0875000005933
 20
-59.67500000059336
  0
LWPOLYLINE
  5
101D7
330
10841
100
AcDbEntity
  8
0
100
AcDbPolyline
 90
       10
 70
     1
 43
0.0
 10
261.9375
 20
-92.22500000000049
 10
261.9375
 20
-79.22499999999998
 42
0.414213562373121
 10
261.4375
 20
-78.72499999999998
 10
260.1999999999999
 20
-78.72499999999998
 10
257.675
 20
-78.72500000000016
 42
0.4142135623730898
 10
257.175
 20
-79.22500000000015
 10
257.175
 20
-92.22500000000068
 42
0.414213562373095
 10
257.675
 20
-92.72500000000066
 10
260.1999999999999
 20
-92.72500000000049
 10
261.4375
 20
-92.72500000000046
 42
0.4142135623731159
  0
LWPOLYLINE
  5
101D8
330
10841
100
AcDbEntity
  8
0
100
AcDbPolyline
 90
       10
 70
     1
 43
0.0
 10
237.6250000000001
 20
-78.72499999999988
 10
236.3875
 20
-78.72499999999988
 10
233.8625
 20
-78.72500000000011
 42
0.4142135623730898
 10
233.3625
 20
-79.2250000000001
 10
233.3625
 20
-92.22500000000062
 42
0.414213562373095
 10
233.8625
 20
-92.7250000000006
 10
236.3875
 20
-92.72500000000038
 10
237.6250000000001
 20
-92.72500000000036
 42
0.4142135623731159
 10
238.1250000000001
 20
-92.22500000000039
 10
238.1250000000001
 20
-79.22499999999987
 42
0.414213562373121
  0
LWPOLYLINE
  5
101DA
330
10841
100
AcDbEntity
  8
0
100
AcDbPolyline
 90
        8
 70
     1
 43
0.0
 10
212.075
 20
-79.2249999999999
 42
-0.4142135623730898
 10
212.575
 20
-78.72499999999991
 10
213.8125000000001
 20
-78.72499999999992
 42
-0.414213562373121
 10
214.3125000000001
 20
-79.2249999999999
 10
214.3125000000001
 20
-92.22500000000042
 42
-0.4142135623731159
 10
213.8125000000001
 20
-92.72500000000039
 10
212.575
 20
-92.72500000000043
 42
-0.414213562373095
 10
212.075
 20
-92.22500000000042
  0
LWPOLYLINE
  5
101DC
330
10841
100
AcDbEntity
  8
0
100
AcDbPolyline
 90
        8
 70
     1
 43
0.0
 10
71.43750000000001
 20
-79.22500000000001
 42
-0.4142135623730898
 10
71.93750000000001
 20
-78.72500000000002
 10
73.17500000000007
 20
-78.72500000000002
 42
-0.414213562373121
 10
73.67500000000007
 20
-79.22500000000001
 10
73.67500000000007
 20
-92.22500000000053
 42
-0.4142135623731159
 10
73.17500000000007
 20
-92.7250000000005
 10
71.93750000000001
 20
-92.72500000000053
 42
-0.414213562373095
 10
71.4375
 20
-92.22500000000053
  0
LWPOLYLINE
  5
101DD
330
10841
100
AcDbEntity
  8
0
100
AcDbPolyline
 90
       10
 70
     1
 43
0.0
 10
50.64999999999992
 20
-92.72500000000055
 10
51.88749999999999
 20
-92.72500000000053
 42
0.4142135623731159
 10
52.38749999999999
 20
-92.22500000000056
 10
52.38749999999999
 20
-79.22500000000004
 42
0.414213562373121
 10
51.88749999999999
 20
-78.72500000000005
 10
50.64999999999992
 20
-78.72500000000005
 10
48.125
 20
-78.72500000000005
 42
0.4142135623730898
 10
47.625
 20
-79.22500000000004
 10
47.625
 20
-92.22500000000056
 42
0.414213562373095
 10
48.125
 20
-92.72500000000055
  0
LWPOLYLINE
  5
101DE
330
10841
100
AcDbEntity
  8
0
100
AcDbPolyline
 90
        8
 70
     1
 43
0.0
 10
126.3500000005933
 20
-22.07500000059336
 42
-0.4142135623730847
 10
126.8500000005933
 20
-21.57500000059335
 10
139.8500000005932
 20
-21.57500000059319
 42
-0.4142135623730951
 10
140.3500000005932
 20
-22.07500000059335
 10
140.3500000005932
 20
-35.07500000059339
 42
-0.4142135623731054
 10
139.8500000005932
 20
-35.57500000059338
 10
126.8500000005933
 20
-35.57500000059328
 42
-0.4142135623730716
 10
126.3500000005933
 20
-35.07500000059328
  0
LWPOLYLINE
  5
101DF
330
10841
100
AcDbEntity
  8
0
100
AcDbPolyline
 90
       10
 70
     1
 43
0.0
 10
25.55000000000007
 20
-92.7250000000005
 10
28.07500000000002
 20
-92.72500000000049
 42
0.4142135623731159
 10
28.57500000000002
 20
-92.22500000000052
 10
28.57500000000002
 20
-79.225
 42
0.414213562373121
 10
28.07500000000002
 20
-78.72500000000001
 10
26.83749999999998
 20
-78.72500000000001
 10
24.31250000000003
 20
-78.72500000000002
 42
0.4142135623730898
 10
23.81250000000003
 20
-79.22500000000001
 10
23.81250000000003
 20
-92.22500000000053
 42
0.414213562373095
 10
24.31250000000003
 20
-92.72500000000052
  0
LWPOLYLINE
  5
101E0
330
10841
100
AcDbEntity
  8
0
100
AcDbPolyline
 90
        8
 70
     1
 43
0.0
 10
3.024999999999951
 20
-92.72500000000052
 10
4.262500000000019
 20
-92.7250000000005
 42
0.4142135623731159
 10
4.762500000000019
 20
-92.22500000000053
 10
4.762500000000019
 20
-79.22500000000001
 42
0.414213562373121
 10
4.262500000000019
 20
-78.72500000000002
 10
3.024999999999951
 20
-78.72500000000002
 42
0.4142135623730898
 10
2.524999999999951
 20
-79.22500000000001
 10
2.524999999999951
 20
-92.22500000000053
 42
0.414213562373095
  0
LWPOLYLINE
  5
101E1
330
10841
100
AcDbEntity
  8
0
100
AcDbPolyline
 90
        8
 70
     1
 43
0.0
 10
156.663
 20
-78.72500000000011
 10
152.9
 20
-78.72500000000011
 42
0.4142135623731159
 10
152.4
 20
-79.22500000000011
 10
152.4
 20
-92.22500000000012
 42
0.4142135623731262
 10
152.9
 20
-92.72500000000012
 10
156.663
 20
-92.72500000000012
 42
0.414213562373095
 10
157.163
 20
-92.22500000000012
 10
157.163
 20
-79.22500000000011
 42
0.4142135623730898
  0
LWPOLYLINE
  5
101E2
330
10841
100
AcDbEntity
  8
0
100
AcDbPolyline
 90
        8
 70
     1
 43
0.0
 10
235.1000000005932
 20
-21.57500000059322
 42
-0.414213562373134
 10
235.6000000005932
 20
-22.07500000059331
 10
235.6000000005934
 20
-35.07500000059321
 42
-0.4142135623730768
 10
235.1000000005934
 20
-35.57500000059322
 10
222.1000000005932
 20
-35.57500000059329
 42
-0.4142135623731002
 10
221.6000000005932
 20
-35.07500000059335
 10
221.6000000005932
 20
-22.07500000059339
 42
-0.4142135623730482
 10
222.1000000005932
 20
-21.57500000059335
  0
LWPOLYLINE
  5
101E3
330
10841
100
AcDbEntity
  8
0
100
AcDbPolyline
 90
        8
 70
     1
 43
0.0
 10
129.087
 20
-78.72499999999998
 10
132.85
 20
-78.72499999999998
 42
-0.4142135623730898
 10
133.35
 20
-79.22499999999998
 10
133.35
 20
-92.22499999999997
 42
-0.4142135623730742
 10
132.85
 20
-92.72499999999997
 10
129.087
 20
-92.72499999999997
 42
-0.4142135623730534
 10
128.587
 20
-92.22499999999997
 10
128.587
 20
-79.22499999999998
 42
-0.414213562373069
  0
LWPOLYLINE
  5
101E4
330
10841
100
AcDbEntity
  8
0
100
AcDbPolyline
 90
        8
 70
     1
 43
0.0
 10
93.01250000059323
 20
-41.12500000059327
 42
-0.4142135623730898
 10
93.51250000059326
 20
-40.62500000059333
 10
106.5125000005933
 20
-40.62500000059333
 42
-0.4142135623730951
 10
107.0125000005933
 20
-41.12500000059327
 10
107.0125000005933
 20
-54.12500000059327
 42
-0.4142135623730898
 10
106.5125000005933
 20
-54.62500000059325
 10
93.51250000059326
 20
-54.62500000059327
 42
-0.4142135623730951
 10
93.01250000059326
 20
-54.1250000005933
  0
LWPOLYLINE
  5
101E5
330
10841
100
AcDbEntity
  8
0
100
AcDbPolyline
 90
        8
 70
     1
 43
0.0
 10
101.7500000005933
 20
-21.57500000059325
 42
-0.4142135623730951
 10
102.2500000005933
 20
-22.07500000059333
 10
102.2500000005933
 20
-35.07500000059332
 42
-0.4142135623731054
 10
101.7500000005933
 20
-35.57500000059332
 10
88.75000000059326
 20
-35.57500000059323
 42
-0.4142135623730924
 10
88.25000000059325
 20
-35.07500000059329
 10
88.25000000059326
 20
-22.07500000059322
 42
-0.4142135623731054
 10
88.75000000059325
 20
-21.57500000059329
  0
LWPOLYLINE
  5
101E6
330
10841
100
AcDbEntity
  8
0
100
AcDbPolyline
 90
        8
 70
     1
 43
0.0
 10
159.6875000005933
 20
-60.17500000059337
 42
-0.4142135623730951
 10
160.1875000005933
 20
-59.67500000059341
 10
173.1875000005933
 20
-59.67500000059341
 42
-0.4142135623731263
 10
173.6875000005933
 20
-60.17500000059344
 10
173.6875000005933
 20
-73.17500000059322
 42
-0.4142135623730222
 10
173.1875000005933
 20
-73.67500000059326
 10
160.1875000005933
 20
-73.67500000059327
 42
-0.4142135623730951
 10
159.6875000005933
 20
-73.17500000059323
  0
LWPOLYLINE
  5
101E7
330
10841
100
AcDbEntity
  8
0
100
AcDbPolyline
 90
        8
 70
     1
 43
0.0
 10
83.48750000059336
 20
-60.17500000059324
 10
83.48750000059331
 20
-73.1750000005933
 42
0.4142135623730951
 10
83.98750000059331
 20
-73.67500000059333
 10
96.9875000005933
 20
-73.6750000005933
 42
0.4142135623730898
 10
97.48750000059326
 20
-73.17500000059336
 10
97.48750000059331
 20
-60.17500000059327
 42
0.4142135623731002
 10
96.98750000059331
 20
-59.67500000059327
 10
83.98750000059336
 20
-59.67500000059324
 42
0.4142135623731054
  0
LWPOLYLINE
  5
101E8
330
10841
100
AcDbEntity
  8
0
100
AcDbPolyline
 90
        8
 70
     1
 43
0.0
 10
183.5000000005933
 20
-22.07500000059319
 10
183.5000000005933
 20
-35.07500000059331
 42
0.4142135623731314
 10
184.0000000005933
 20
-35.57500000059332
 10
197.0000000005933
 20
-35.57500000059348
 42
0.4142135623730456
 10
197.5000000005934
 20
-35.07500000059322
 10
197.5000000005933
 20
-22.07500000059336
 42
0.4142135623731028
 10
197.0000000005933
 20
-21.5750000005937
 10
184.0000000005933
 20
-21.57500000059335
 42
0.4142135623730794
  0
LWPOLYLINE
  5
101E9
330
10841
100
AcDbEntity
  8
0
100
AcDbPolyline
 90
        8
 70
     1
 43
0.0
 10
54.9125000005933
 20
-41.12500000059327
 42
-0.4142135623730951
 10
55.41250000059328
 20
-40.62500000059332
 10
68.4125000005933
 20
-40.62500000059327
 42
-0.4142135623730951
 10
68.91250000059327
 20
-41.1250000005933
 10
68.9125000005933
 20
-54.12500000059327
 42
-0.4142135623730951
 10
68.4125000005933
 20
-54.62500000059327
 10
55.4125000005933
 20
-54.62500000059327
 42
-0.4142135623730951
 10
54.91250000059333
 20
-54.12500000059325
  0
LWPOLYLINE
  5
101EA
330
10841
100
AcDbEntity
  8
0
100
AcDbPolyline
 90
        8
 70
     1
 43
0.0
 10
112.0625000005933
 20
-41.12500000059333
 42
-0.4142135623730898
 10
112.5625000005933
 20
-40.62500000059327
 10
125.5625000005933
 20
-40.6250000005933
 42
-0.4142135623730742
 10
126.0625000005933
 20
-41.12500000059327
 10
126.0625000005933
 20
-54.12500000059327
 42
-0.4142135623731002
 10
125.5625000005933
 20
-54.62500000059333
 10
112.5625000005933
 20
-54.62500000059327
 42
-0.4142135623730951
 10
112.0625000005933
 20
-54.1250000005933
  0
LWPOLYLINE
  5
101EB
330
10841
100
AcDbEntity
  8
0
100
AcDbPolyline
 90
        8
 70
     1
 43
0.0
 10
150.1625000005933
 20
-41.12500000059337
 42
-0.4142135623730898
 10
150.6625000005933
 20
-40.62500000059327
 10
163.6625000005933
 20
-40.6250000005934
 42
-0.414213562373121
 10
164.1625000005933
 20
-41.12500000059332
 10
164.1625000005933
 20
-54.12500000059327
 42
-0.4142135623730222
 10
163.6625000005933
 20
-54.62500000059333
 10
150.6625000005933
 20
-54.62500000059325
 42
-0.4142135623730951
 10
150.1625000005933
 20
-54.12500000059327
  0
LWPOLYLINE
  5
101EC
330
10841
100
AcDbEntity
  8
0
100
AcDbPolyline
 90
        8
 70
     1
 43
0.0
 10
73.96250000059322
 20
-41.12500000059336
 42
-0.4142135623730951
 10
74.46250000059325
 20
-40.62500000059327
 10
87.46250000059331
 20
-40.62500000059322
 42
-0.4142135623730742
 10
87.96250000059328
 20
-41.12500000059327
 10
87.96250000059331
 20
-54.12500000059325
 42
-0.4142135623731002
 10
87.46250000059331
 20
-54.62500000059323
 10
74.46250000059322
 20
-54.6250000005933
 42
-0.4142135623730951
 10
73.96250000059325
 20
-54.1250000005933
  0
LWPOLYLINE
  5
101ED
330
10841
100
AcDbEntity
  8
0
100
AcDbPolyline
 90
        8
 70
     1
 43
0.0
 10
188.2625000005933
 20
-41.12500000059322
 42
-0.4142135623730222
 10
188.7625000005933
 20
-40.62500000059333
 10
201.7625000005933
 20
-40.62500000059333
 42
-0.4142135623731314
 10
202.2625000005933
 20
-41.12500000059333
 10
202.2625000005933
 20
-54.12500000059327
 42
-0.4142135623730742
 10
201.7625000005933
 20
-54.62500000059327
 10
188.7625000005933
 20
-54.62500000059333
 42
-0.414213562373121
 10
188.2625000005933
 20
-54.12500000059306
  0
LWPOLYLINE
  5
101EE
330
10841
100
AcDbEntity
  8
0
100
AcDbPolyline
 90
        8
 70
     1
 43
0.0
 10
69.20000000059326
 20
-22.07500000059326
 42
-0.4142135623730977
 10
69.70000000059325
 20
-21.57500000059331
 10
82.70000000059322
 20
-21.57500000059332
 42
-0.4142135623730742
 10
83.20000000059325
 20
-22.07500000059325
 10
83.2000000005932
 20
-35.07500000059332
 42
-0.4142135623731002
 10
82.70000000059323
 20
-35.57500000059328
 10
69.70000000059323
 20
-35.57500000059331
 42
-0.4142135623730977
 10
69.20000000059325
 20
-35.07500000059326
  0
LWPOLYLINE
  5
101EF
330
10841
100
AcDbEntity
  8
0
100
AcDbPolyline
 90
        8
 70
     1
 43
0.0
 10
164.4500000005933
 20
-22.07500000059322
 42
-0.414213562373082
 10
164.9500000005933
 20
-21.57500000059329
 10
177.9500000005933
 20
-21.57500000059322
 42
-0.414213562373134
 10
178.4500000005933
 20
-22.07500000059338
 10
178.4500000005933
 20
-35.07500000059329
 42
-0.4142135623730768
 10
177.9500000005933
 20
-35.57500000059329
 10
164.9500000005933
 20
-35.57500000059323
 42
-0.4142135623731314
 10
164.4500000005933
 20
-35.07500000059323
  0
LWPOLYLINE
  5
101F0
330
10841
100
AcDbEntity
  8
0
100
AcDbPolyline
 90
        8
 70
     1
 43
0.0
 10
64.43750000059333
 20
-60.17500000059324
 42
-0.4142135623731054
 10
64.93750000059329
 20
-59.67500000059329
 10
77.93750000059327
 20
-59.67500000059331
 42
-0.4142135623730951
 10
78.4375000005933
 20
-60.17500000059327
 10
78.43750000059332
 20
-73.17500000059324
 42
-0.4142135623730951
 10
77.93750000059327
 20
-73.6750000005933
 10
64.93750000059329
 20
-73.67500000059329
 42
-0.4142135623730951
 10
64.43750000059326
 20
-73.17500000059331
  0
LINE
  5
1034E
330
10841
100
AcDbEntity
  8
0
100
AcDbLine
 10
241.1500000005933
 20
-21.57500000059349
 30
0.0
 11
254.1500000005933
 21
-21.57500000059349
 31
0.0
  0
LINE
  5
1034F
330
10841
100
AcDbEntity
  8
0
100
AcDbLine
 10
241.1500000005933
 20
-35.57500000059349
 30
0.0
 11
254.1500000005933
 21
-35.57500000059349
 31
0.0
  0
LINE
  5
10350
330
10841
100
AcDbEntity
  8
0
100
AcDbLine
 10
240.6500000005933
 20
-22.07500000059349
 30
0.0
 11
240.6500000005933
 21
-35.07500000059349
 31
0.0
  0
LINE
  5
10351
330
10841
100
AcDbEntity
  8
0
100
AcDbLine
 10
254.6500000005933
 20
-22.07500000059349
 30
0.0
 11
254.6500000005933
 21
-35.07500000059349
 31
0.0
  0
ARC
  5
10352
330
10841
100
AcDbEntity
  8
0
100
AcDbCircle
 10
241.1500000005933
 20
-22.07500000059349
 30
0.0
 40
0.5
100
AcDbArc
 50
90.0
 51
180.0
  0
ARC
  5
10353
330
10841
100
AcDbEntity
  8
0
100
AcDbCircle
 10
254.1500000005933
 20
-22.07500000059349
 30
0.0
 40
0.5
100
AcDbArc
 50
0.0
 51
90.0
  0
ARC
  5
10354
330
10841
100
AcDbEntity
  8
0
100
AcDbCircle
 10
241.1500000005933
 20
-35.07500000059349
 30
0.0
 40
0.5
100
AcDbArc
 50
180.0
 51
270.0
  0
ARC
  5
10355
330
10841
100
AcDbEntity
  8
0
100
AcDbCircle
 10
254.1500000005933
 20
-35.07500000059349
 30
0.0
 40
0.5
100
AcDbArc
 50
270.0
 51
0.0
  0
LINE
  5
10356
330
10841
100
AcDbEntity
  8
0
100
AcDbLine
 10
280.8437500005933
 20
-31.60000000059349
 30
0.0
 11
280.8437500005933
 21
-44.6000000005935
 31
0.0
  0
LINE
  5
10357
330
10841
100
AcDbEntity
  8
0
100
AcDbLine
 10
266.8437500005933
 20
-31.60000000059349
 30
0.0
 11
266.8437500005933
 21
-44.6000000005935
 31
0.0
  0
LINE
  5
10358
330
10841
100
AcDbEntity
  8
0
100
AcDbLine
 10
280.3437500005933
 20
-31.10000000059349
 30
0.0
 11
267.3437500005933
 21
-31.10000000059349
 31
0.0
  0
LINE
  5
10359
330
10841
100
AcDbEntity
  8
0
100
AcDbLine
 10
280.3437500005933
 20
-45.1000000005935
 30
0.0
 11
267.3437500005933
 21
-45.1000000005935
 31
0.0
  0
ARC
  5
1035A
330
10841
100
AcDbEntity
  8
0
100
AcDbCircle
 10
280.3437500005933
 20
-31.60000000059349
 30
0.0
 40
0.5
100
AcDbArc
 50
0.0
 51
90.0
  0
ARC
  5
1035B
330
10841
100
AcDbEntity
  8
0
100
AcDbCircle
 10
280.3437500005933
 20
-44.6000000005935
 30
0.0
 40
0.5
100
AcDbArc
 50
270.0
 51
0.0
  0
ARC
  5
1035C
330
10841
100
AcDbEntity
  8
0
100
AcDbCircle
 10
267.3437500005933
 20
-31.60000000059349
 30
0.0
 40
0.5
100
AcDbArc
 50
90.0
 51
180.0
  0
ARC
  5
1035D
330
10841
100
AcDbEntity
  8
0
100
AcDbCircle
 10
267.3437500005933
 20
-44.6000000005935
 30
0.0
 40
0.5
100
AcDbArc
 50
180.0
 51
270.0
  0
LINE
  5
1035E
330
10841
100
AcDbEntity
  8
0
100
AcDbLine
 10
279.8437500005933
 20
-47.0380000005935
 30
0.0
 11
279.8437500005933
 21
-53.0380000005935
 31
0.0
  0
LINE
  5
1035F
330
10841
100
AcDbEntity
  8
0
100
AcDbLine
 10
264.8437500005933
 20
-47.0380000005935
 30
0.0
 11
264.8437500005933
 21
-53.0380000005935
 31
0.0
  0
LINE
  5
10360
330
10841
100
AcDbEntity
  8
0
100
AcDbLine
 10
279.3437500005933
 20
-46.5380000005935
 30
0.0
 11
265.3437500005933
 21
-46.5380000005935
 31
0.0
  0
LINE
  5
10361
330
10841
100
AcDbEntity
  8
0
100
AcDbLine
 10
279.3437500005933
 20
-53.5380000005935
 30
0.0
 11
265.3437500005933
 21
-53.5380000005935
 31
0.0
  0
ARC
  5
10362
330
10841
100
AcDbEntity
  8
0
100
AcDbCircle
 10
279.3437500005933
 20
-47.0380000005935
 30
0.0
 40
0.5
100
AcDbArc
 50
0.0
 51
90.0
  0
ARC
  5
10363
330
10841
100
AcDbEntity
  8
0
100
AcDbCircle
 10
279.3437500005933
 20
-53.0380000005935
 30
0.0
 40
0.5
100
AcDbArc
 50
270.0
 51
0.0
  0
ARC
  5
10364
330
10841
100
AcDbEntity
  8
0
100
AcDbCircle
 10
265.3437500005933
 20
-47.0380000005935
 30
0.0
 40
0.5
100
AcDbArc
 50
90.0
 51
180.0
  0
ARC
  5
10365
330
10841
100
AcDbEntity
  8
0
100
AcDbCircle
 10
265.3437500005933
 20
-53.0380000005935
 30
0.0
 40
0.5
100
AcDbArc
 50
180.0
 51
270.0
  0
LINE
  5
10366
330
10841
100
AcDbEntity
  8
0
100
AcDbLine
 10
279.8437500005933
 20
-23.16200000059349
 30
0.0
 11
279.8437500005933
 21
-29.16200000059349
 31
0.0
  0
LINE
  5
10367
330
10841
100
AcDbEntity
  8
0
100
AcDbLine
 10
264.8437500005933
 20
-23.16200000059349
 30
0.0
 11
264.8437500005933
 21
-29.16200000059349
 31
0.0
  0
LINE
  5
10368
330
10841
100
AcDbEntity
  8
0
100
AcDbLine
 10
279.3437500005933
 20
-22.66200000059349
 30
0.0
 11
265.3437500005933
 21
-22.66200000059349
 31
0.0
  0
LINE
  5
10369
330
10841
100
AcDbEntity
  8
0
100
AcDbLine
 10
279.3437500005933
 20
-29.66200000059349
 30
0.0
 11
265.3437500005933
 21
-29.66200000059349
 31
0.0
  0
ARC
  5
1036A
330
10841
100
AcDbEntity
  8
0
100
AcDbCircle
 10
279.3437500005933
 20
-23.16200000059349
 30
0.0
 40
0.5
100
AcDbArc
 50
0.0
 51
90.0
  0
ARC
  5
1036B
330
10841
100
AcDbEntity
  8
0
100
AcDbCircle
 10
279.3437500005933
 20
-29.16200000059349
 30
0.0
 40
0.5
100
AcDbArc
 50
270.0
 51
0.0
  0
ARC
  5
1036C
330
10841
100
AcDbEntity
  8
0
100
AcDbCircle
 10
265.3437500005933
 20
-23.16200000059349
 30
0.0
 40
0.5
100
AcDbArc
 50
90.0
 51
180.0
  0
ARC
  5
1036D
330
10841
100
AcDbEntity
  8
0
100
AcDbCircle
 10
265.3437500005933
 20
-29.16200000059349
 30
0.0
 40
0.5
100
AcDbArc
 50
180.0
 51
270.0
  0
LINE
  5
1036F
330
10841
100
AcDbEntity
  8
0
100
AcDbLine
 10
245.9125000005934
 20
-40.62500000059349
 30
0.0
 11
258.9125000005934
 21
-40.62500000059349
 31
0.0
  0
LINE
  5
10370
330
10841
100
AcDbEntity
  8
0
100
AcDbLine
 10
245.9125000005934
 20
-54.62500000059349
 30
0.0
 11
258.9125000005934
 21
-54.62500000059349
 31
0.0
  0
LINE
  5
10371
330
10841
100
AcDbEntity
  8
0
100
AcDbLine
 10
245.4125000005934
 20
-41.12500000059349
 30
0.0
 11
245.4125000005934
 21
-54.12500000059349
 31
0.0
  0
LINE
  5
10372
330
10841
100
AcDbEntity
  8
0
100
AcDbLine
 10
259.4125000005934
 20
-41.12500000059349
 30
0.0
 11
259.4125000005934
 21
-54.12500000059349
 31
0.0
  0
ARC
  5
10373
330
10841
100
AcDbEntity
  8
0
100
AcDbCircle
 10
245.9125000005934
 20
-41.12500000059349
 30
0.0
 40
0.5
100
AcDbArc
 50
90.0
 51
180.0
  0
ARC
  5
10374
330
10841
100
AcDbEntity
  8
0
100
AcDbCircle
 10
258.9125000005934
 20
-41.12500000059349
 30
0.0
 40
0.5
100
AcDbArc
 50
0.0
 51
90.0
  0
ARC
  5
10375
330
10841
100
AcDbEntity
  8
0
100
AcDbCircle
 10
245.9125000005934
 20
-54.12500000059349
 30
0.0
 40
0.5
100
AcDbArc
 50
180.0
 51
270.0
  0
ARC
  5
10376
330
10841
100
AcDbEntity
  8
0
100
AcDbCircle
 10
258.9125000005934
 20
-54.12500000059349
 30
0.0
 40
0.5
100
AcDbArc
 50
270.0
 51
0.0
  0
LINE
  5
10313
330
10841
100
AcDbEntity
  8
0
100
AcDbLine
 10
4.906250000593275
 20
-60.17500000059331
 30
0.0
 11
4.906250000593275
 21
-73.17500000059331
 31
0.0
  0
ARC
  5
10315
330
10841
100
AcDbEntity
  8
0
100
AcDbCircle
 10
5.406250000593275
 20
-60.17500000059331
 30
0.0
 40
0.5
100
AcDbArc
 50
90.0
 51
180.0
  0
ARC
  5
10317
330
10841
100
AcDbEntity
  8
0
100
AcDbCircle
 10
5.406250000593275
 20
-73.17500000059331
 30
0.0
 40
0.5
100
AcDbArc
 50
180.0
 51
270.0
  0
LINE
  5
1031C
330
10841
100
AcDbEntity
  8
0
100
AcDbLine
 10
40.33750000059327
 20
-60.17500000059331
 30
0.0
 11
40.33750000059327
 21
-73.17500000059331
 31
0.0
  0
ARC
  5
1031E
330
10841
100
AcDbEntity
  8
0
100
AcDbCircle
 10
39.83750000059327
 20
-60.17500000059331
 30
0.0
 40
0.5
100
AcDbArc
 50
0.0
 51
90.0
  0
ARC
  5
10320
330
10841
100
AcDbEntity
  8
0
100
AcDbCircle
 10
39.83750000059327
 20
-73.17500000059331
 30
0.0
 40
0.5
100
AcDbArc
 50
270.0
 51
0.0
  0
LINE
  5
10321
330
10841
100
AcDbEntity
  8
0
100
AcDbLine
 10
45.88750000059328
 20
-59.67500000059331
 30
0.0
 11
58.88750000059328
 21
-59.67500000059331
 31
0.0
  0
LINE
  5
10322
330
10841
100
AcDbEntity
  8
0
100
AcDbLine
 10
45.88750000059328
 20
-73.67500000059331
 30
0.0
 11
58.88750000059328
 21
-73.67500000059331
 31
0.0
  0
LINE
  5
10323
330
10841
100
AcDbEntity
  8
0
100
AcDbLine
 10
45.38750000059328
 20
-60.17500000059331
 30
0.0
 11
45.38750000059328
 21
-73.17500000059331
 31
0.0
  0
LINE
  5
10324
330
10841
100
AcDbEntity
  8
0
100
AcDbLine
 10
59.38750000059328
 20
-60.17500000059331
 30
0.0
 11
59.38750000059328
 21
-73.17500000059331
 31
0.0
  0
ARC
  5
10325
330
10841
100
AcDbEntity
  8
0
100
AcDbCircle
 10
45.88750000059328
 20
-60.17500000059331
 30
0.0
 40
0.5
100
AcDbArc
 50
90.0
 51
180.0
  0
ARC
  5
10326
330
10841
100
AcDbEntity
  8
0
100
AcDbCircle
 10
58.88750000059328
 20
-60.17500000059331
 30
0.0
 40
0.5
100
AcDbArc
 50
0.0
 51
90.0
  0
ARC
  5
10327
330
10841
100
AcDbEntity
  8
0
100
AcDbCircle
 10
45.88750000059328
 20
-73.17500000059331
 30
0.0
 40
0.5
100
AcDbArc
 50
180.0
 51
270.0
  0
ARC
  5
10328
330
10841
100
AcDbEntity
  8
0
100
AcDbCircle
 10
58.88750000059328
 20
-73.17500000059331
 30
0.0
 40
0.5
100
AcDbArc
 50
270.0
 51
0.0
  0
LINE
  5
106DD
330
10841
100
AcDbEntity
  8
0
100
AcDbLine
 10
5.406250000593275
 20
-59.67500000059331
 30
0.0
 11
39.83750000059327
 21
-59.67500000059331
 31
0.0
  0
LINE
  5
106DF
330
10841
100
AcDbEntity
  8
0
100
AcDbLine
 10
5.406250000593275
 20
-73.67500000059331
 30
0.0
 11
6.118249999999962
 21
-73.67500000059331
 31
0.0
  0
LINE
  5
106E1
330
10841
100
AcDbEntity
  8
0
100
AcDbLine
 10
12.86824999999996
 20
-73.67500000059331
 30
0.0
 11
29.99424999999997
 21
-73.67500000059331
 31
0.0
  0
LINE
  5
106E2
330
10841
100
AcDbEntity
  8
0
100
AcDbLine
 10
36.74425000000001
 20
-73.67500000059331
 30
0.0
 11
39.83750000059327
 21
-73.67500000059331
 31
0.0
  0
LINE
  5
10819
330
10841
100
AcDbEntity
  8
0
100
AcDbLine
 10
82.85
 20
-92.72499999999987
 30
0.0
 11
88.6
 21
-92.72499999999984
 31
0.0
  0
LINE
  5
1081A
330
10841
100
AcDbEntity
  8
0
100
AcDbLine
 10
197.15
 20
-92.72500000000045
 30
0.0
 11
202.9
 21
-92.72500000000043
 31
0.0
  0
ARC
  5
1081B
330
10841
100
AcDbEntity
  8
0
100
AcDbCircle
 10
202.9
 20
-92.22500000000043
 30
0.0
 40
0.5
100
AcDbArc
 50
270.0
 51
0.0
1001
QCAD
1000
reversed:1
  0
ARC
  5
1081C
330
10841
100
AcDbEntity
  8
0
100
AcDbCircle
 10
197.15
 20
-92.22500000000046
 30
0.0
 40
0.5
100
AcDbArc
 50
180.0
 51
270.0
  0
ARC
  5
1081D
330
10841
100
AcDbEntity
  8
0
100
AcDbCircle
 10
82.85
 20
-92.22499999999987
 30
0.0
 40
0.5
100
AcDbArc
 50
180.0
 51
270.0
  0
ARC
  5
1081E
330
10841
100
AcDbEntity
  8
0
100
AcDbCircle
 10
88.6
 20
-92.22499999999984
 30
0.0
 40
0.5
100
AcDbArc
 50
270.0
 51
0.0
1001
QCAD
1000
reversed:1
  0
LINE
  5
1081F
330
10841
100
AcDbEntity
  8
0
100
AcDbLine
 10
274.8692500000001
 20
-59.67500000000003
 30
0.0
 11
268.6192500000001
 21
-59.67500000000003
 31
0.0
  0
LINE
  5
10820
330
10841
100
AcDbEntity
  8
0
100
AcDbLine
 10
250.99325
 20
-59.6749999999999
 30
0.0
 11
244.24325
 21
-59.67499999999996
 31
0.0
  0
ARC
  5
10823
330
10841
100
AcDbEntity
  8
0
100
AcDbCircle
 10
268.6192500000001
 20
-60.17500000000003
 30
0.0
 40
0.5
100
AcDbArc
 50
90.0
 51
180.0
  0
VIEWPORT
  5
10909
330
1083D
100
AcDbEntity
 67
     1
  8
0
100
AcDbViewport
 10
5.25
 20
4.0
 30
0.0
 40
11.638
 41
8.993
 68
     1
 69
     1
1001
ACAD
1000
MVIEW
1002
{
1070
    16
1010
0.0
1020
0.0
1030
0.0
1010
0.0
1020
0.0
1030
1.0
1040
0.0
1040
8.993
1040
5.25
1040
4.0
1040
50.0
1040
0.0
1040
0.0
1070
     0
1070
   100
1070
     0
1070
     3
1070
     0
1070
     0
1070
     0
1070
     0
1040
0.0
1040
0.0
1040
0.0
1040
0.5
1040
0.5
1040
0.5
1040
0.5
1070
     0
1002
{
1002
}
1002
}
  0
ENDSEC
  0
SECTION
  2
OBJECTS
  0
DICTIONARY
  5
1082F
330
0
100
AcDbDictionary
  3
ACAD_GROUP
350
10830
  3
ACAD_LAYOUT
350
1083C
  3
ACAD_MATERIAL
350
10865
  3
ACAD_MLEADERSTYLE
350
1088D
  3
ACAD_MLINESTYLE
350
10839
  3
ACAD_PLOTSETTINGS
350
1083B
  3
ACAD_SCALELIST
350
10869
  3
ACAD_VISUALSTYLE
350
1084C
  3
ACDBHEADERROUNDTRIPXREC
350
1090B
  3
ACDBVARIABLEDICTIONARY
350
1092C
  3
DWGPROPS
350
10933
  3
QCAD_OBJECTS
350
10891
  0
DICTIONARY
  5
10934
330
1082B
100
AcDbDictionary
280
     1
  3
ACAD_XREC_ROUNDTRIP
360
10935
  0
DICTIONARY
  5
10830
102
{ACAD_REACTORS
330
1082F
102
}
330
1082F
100
AcDbDictionary
  0
DICTIONARY
  5
1083C
102
{ACAD_REACTORS
330
1082F
102
}
330
1082F
100
AcDbDictionary
  0
DICTIONARY
  5
10865
102
{ACAD_REACTORS
330
1082F
102
}
330
1082F
100
AcDbDictionary
  3
BYBLOCK
350
10867
  3
BYLAYER
350
10866
  3
GLOBAL
350
10868
  0
DICTIONARY
  5
1088D
102
{ACAD_REACTORS
330
1082F
102
}
330
1082F
100
AcDbDictionary
  3
STANDARD
350
1088E
  0
DICTIONARY
  5
10839
102
{ACAD_REACTORS
330
1082F
102
}
330
1082F
100
AcDbDictionary
  3
STANDARD
350
1083A
  0
DICTIONARY
  5
1083B
102
{ACAD_REACTORS
330
1082F
102
}
330
1082F
100
AcDbDictionary
  0
DICTIONARY
  5
10869
102
{ACAD_REACTORS
330
1082F
102
}
330
1082F
100
AcDbDictionary
  3
A0
350
1086A
  3
A1
350
1086B
  3
A2
350
1086C
  3
A3
350
1086D
  3
A4
350
1086E
  3
A5
350
1086F
  3
A6
350
10870
  3
A7
350
10871
  3
A8
350
10872
  3
A9
350
10873
  3
B0
350
10874
  3
B1
350
10875
  3
B2
350
10876
  3
B3
350
10877
  3
B4
350
10878
  3
B5
350
10879
  3
B6
350
1087A
  3
B7
350
1087B
  3
B8
350
1087C
  3
B9
350
1087D
  3
C0
350
1087E
  3
C1
350
1087F
  3
C2
350
10880
  3
C3
350
10881
  3
C4
350
10882
  3
C5
350
10883
  3
C6
350
10884
  3
C7
350
10885
  3
C8
350
10886
  3
C9
350
10887
  3
D0
350
10888
  3
D1
350
10889
  3
D2
350
1088A
  0
DICTIONARY
  5
1084C
102
{ACAD_REACTORS
330
1082F
102
}
330
1082F
100
AcDbDictionary
  3
2DWIREFRAME
350
10851
  3
BASIC
350
10854
  3
BRIGHTEN
350
10858
  3
COLORCHANGE
350
1085C
  3
CONCEPTUAL
350
10856
  3
DIM
350
10857
  3
EDGECOLOROFF
350
1085F
  3
FACEPATTERN
350
1085B
  3
FLAT
350
1084D
  3
FLATWITHEDGES
350
1084E
  3
GOURAUD
350
1084F
  3
GOURAUDWITHEDGES
350
10850
  3
HIDDEN
350
10853
  3
JITTEROFF
350
1085D
  3
LINEPATTERN
350
1085A
  3
OVERHANGOFF
350
1085E
  3
REALISTIC
350
10855
  3
SHADED
350
10864
  3
SHADED_WITH_EDGES
350
10863
  3
SHADES_OF_GRAY
350
10860
  3
SKETCHY
350
10861
  3
THICKEN
350
10859
  3
WIREFRAME
350
10852
  3
X-RAY
350
10862
  0
DICTIONARY
  5
1090B
102
{ACAD_REACTORS
330
1082F
102
}
330
1082F
100
AcDbDictionary
  3
CEPSNID
350
10915
  3
CEPSNTYPE
350
10914
  3
DIMSTYLEDATA
350
1092B
  3
FINGERPRINTGUID
350
10916
  3
HYPERLINKBASE
350
1090E
  3
INSUNITS
350
10913
  3
LAYOUTDICT
350
10910
  3
LWETCUNION
350
10912
  3
PLOTSETDICT
350
10911
  3
PSVPSCALE
350
10918
  3
PUCSBASE
350
1091B
  3
PUCSORGBACK
350
10921
  3
PUCSORGBOTTOM
350
1091D
  3
PUCSORGFRONT
350
10920
  3
PUCSORGLEFT
350
1091E
  3
PUCSORGRIGHT
350
1091F
  3
PUCSORGTOP
350
1091C
  3
PUCSORTHOREF
350
10919
  3
PUCSORTHOVIEW
350
1091A
  3
STYLESHEET
350
1090F
  3
TSTACKALIGN
350
1090C
  3
TSTACKSIZE
350
1090D
  3
UCSBASE
350
10924
  3
UCSORGBACK
350
1092A
  3
UCSORGBOTTOM
350
10926
  3
UCSORGFRONT
350
10929
  3
UCSORGLEFT
350
10927
  3
UCSORGRIGHT
350
10928
  3
UCSORGTOP
350
10925
  3
UCSORTHOREF
350
10922
  3
UCSORTHOVIEW
350
10923
  3
VERSIONGUID
350
10917
  0
DICTIONARY
  5
1092C
102
{ACAD_REACTORS
330
1082F
102
}
330
1082F
100
AcDbDictionary
  3
CANNOSCALE
350
10936
  3
CMLEADERSTYLE
350
1092E
  3
CTABLESTYLE
350
1092D
  3
DIMASSOC
350
10931
  3
HIDETEXT
350
10932
  3
MSLTSCALE
350
10937
  0
XRECORD
  5
10933
102
{ACAD_REACTORS
330
1082F
102
}
330
1082F
100
AcDbXrecord
  1
DWGPROPS COOKIE
  2

  3

  4

  6

  7

  8
ilya
  9

300
=
301
=
302
=
303
=
304
=
305
=
306
=
307
=
308
=
309
=
 40
0.0
 41
2459229.747530533
 42
2459229.747530555
  1

 90
        0
  0
DICTIONARY
  5
10891
102
{ACAD_REACTORS
330
1082F
102
}
330
1082F
100
AcDbDictionary
  3
COLORSETTINGS/BACKGROUNDCOLOR
350
10893
  3
COLORSETTINGS/COLORMODE
350
10894
  3
GRID/DISPLAYGRID00
350
108B0
  3
GRID/DISPLAYGRID01
350
10895
  3
GRID/DISPLAYGRID02
350
10896
  3
GRID/DISPLAYGRID03
350
10897
  3
GRID/GRIDSPACINGX00
350
10898
  3
GRID/GRIDSPACINGX01
350
10899
  3
GRID/GRIDSPACINGX02
350
1089A
  3
GRID/GRIDSPACINGX03
350
1089B
  3
GRID/GRIDSPACINGY00
350
1089C
  3
GRID/GRIDSPACINGY01
350
1089D
  3
GRID/GRIDSPACINGY02
350
1089E
  3
GRID/GRIDSPACINGY03
350
1089F
  3
GRID/ISOMETRICGRID00
350
108A0
  3
GRID/ISOMETRICGRID01
350
108A1
  3
GRID/ISOMETRICGRID02
350
108A2
  3
GRID/ISOMETRICGRID03
350
108A3
  3
GRID/ISOMETRICPROJECTION00
350
108A4
  3
GRID/ISOMETRICPROJECTION01
350
108A5
  3
GRID/ISOMETRICPROJECTION02
350
108A6
  3
GRID/ISOMETRICPROJECTION03
350
108A7
  3
GRID/METAGRIDSPACINGX00
350
108A8
  3
GRID/METAGRIDSPACINGX01
350
108A9
  3
GRID/METAGRIDSPACINGX02
350
108AA
  3
GRID/METAGRIDSPACINGX03
350
108AB
  3
GRID/METAGRIDSPACINGY00
350
108AC
  3
GRID/METAGRIDSPACINGY01
350
108AD
  3
GRID/METAGRIDSPACINGY02
350
108AE
  3
GRID/METAGRIDSPACINGY03
350
108AF
  3
MULTIPAGESETTINGS/COLUMNS
350
108B1
  3
MULTIPAGESETTINGS/GLUEMAR0
350
108B2
  3
MULTIPAGESETTINGS/GLUEMAR1
350
108B3
  3
MULTIPAGESETTINGS/GLUEMAR2
350
108B4
  3
MULTIPAGESETTINGS/GLUEMARG
350
108B5
  3
MultiPageSettings/GlueMarginsBottom
350
108B8
  3
MultiPageSettings/GlueMarginsLeft
350
108B9
  3
MultiPageSettings/GlueMarginsRight
350
108BA
  3
MultiPageSettings/GlueMarginsTop
350
108BB
  3
MULTIPAGESETTINGS/PRINTCRO
350
108B6
  3
MultiPageSettings/PrintCropMarks
350
108BC
  3
MULTIPAGESETTINGS/ROWS
350
108B7
  3
PAGESETTINGS/OFFSETX
350
108BD
  3
PAGESETTINGS/OFFSETY
350
108BE
  3
PAGESETTINGS/PAGEORIENTATION
350
108BF
  3
PAGESETTINGS/PAPERHEIGHT
350
108C0
  3
PAGESETTINGS/PAPERWIDTH
350
108C1
  3
PAGESETTINGS/SCALE
350
108C2
  3
PAGESETTINGS/SHOWPAPERBORDERS
350
108C3
  3
PAGETAGSETTINGS/ENABLEPAGETAGS
350
108C4
  3
PAGETAGSETTINGS/TAGALIGNMENT
350
108C5
  3
PAGETAGSETTINGS/TAGFONT
350
108C6
  3
PAGETAGSETTINGS/TAGPOSITION
350
108C7
  3
QCADVERSION
350
108C8
  3
UNITSETTINGS/PAPERUNIT
350
108C9
  3
VIEWPORTCENTER
350
108CA
  3
VIEWPORTHEIGHT
350
108CB
  3
VIEWPORTWIDTH
350
108CC
  0
XRECORD
  5
10935
102
{ACAD_REACTORS
330
10934
102
}
330
10934
100
AcDbXrecord
102
VTR_0.000_0.000_1.000_1.000_VISUALSTYLE
340
10851
102
VTR_0.000_0.000_1.000_1.000_GRIDDISPLAY
 70
     3
102
VTR_0.000_0.000_1.000_1.000_GRIDMAJOR
 70
     5
102
VTR_0.000_0.000_1.000_1.000_DEFAULTLIGHTING
280
     1
102
VTR_0.000_0.000_1.000_1.000_DEFAULTLIGHTINGTYPE
 70
     1
102
VTR_0.000_0.000_1.000_1.000_BRIGHTNESS
141
0.0
102
VTR_0.000_0.000_1.000_1.000_CONTRAST
142
0.0
  0
MATERIAL
  5
10867
102
{ACAD_REACTORS
330
10865
102
}
102
{ACAD_XDICTIONARY
360
1093A
102
}
330
10865
100
AcDbMaterial
  1
BYBLOCK
  0
MATERIAL
  5
10866
102
{ACAD_REACTORS
330
10865
102
}
102
{ACAD_XDICTIONARY
360
10938
102
}
330
10865
100
AcDbMaterial
  1
BYLAYER
  0
MATERIAL
  5
10868
102
{ACAD_REACTORS
330
10865
102
}
102
{ACAD_XDICTIONARY
360
1093C
102
}
330
10865
100
AcDbMaterial
  1
GLOBAL
  0
ACAD_PROXY_OBJECT
  5
1088E
102
{ACAD_REACTORS
330
1088D
102
}
330
1088D
100
AcDbProxyObject
 90
      499
 91
      505
 93
      610
310
40901902A4063FBFFFFFE056BD1B81E855B9FC0AD7A3703D0AD73F4214DD185B99185C9900AD7A3703D0AC73F90141901A02B5E8DC0F42B1CFC02B5E8DC0F42B1CFE5764000000000000300FC0
340
10836
340
0
340
10834
340
0
 94
        0
1001
ACAD_MLEADERVER
1070
     2
  0
MLINESTYLE
  5
1083A
102
{ACAD_REACTORS
330
10839
102
}
330
10839
100
AcDbMlineStyle
  2
Standard
 70
     0
  3

 62
   256
 51
90.0
 52
90.0
 71
     2
 49
0.5
 62
   256
  6
BYLAYER
 49
-0.5
 62
   256
  6
BYLAYER
  0
ACAD_PROXY_OBJECT
  5
1086A
102
{ACAD_REACTORS
330
10869
102
}
330
10869
100
AcDbProxyObject
 90
      499
 91
      503
 93
       41
310
903313A31580
  0
ACAD_PROXY_OBJECT
  5
1086B
102
{ACAD_REACTORS
330
10869
102
}
330
10869
100
AcDbProxyObject
 90
      499
 91
      503
 93
      105
310
903313A324000000000000004000
  0
ACAD_PROXY_OBJECT
  5
1086C
102
{ACAD_REACTORS
330
10869
102
}
330
10869
100
AcDbProxyObject
 90
      499
 91
      503
 93
      105
310
903313A344000000000000104000
  0
ACAD_PROXY_OBJECT
  5
1086D
102
{ACAD_REACTORS
330
10869
102
}
330
10869
100
AcDbProxyObject
 90
      499
 91
      503
 93
      105
310
903313A354000000000000144000
  0
ACAD_PROXY_OBJECT
  5
1086E
102
{ACAD_REACTORS
330
10869
102
}
330
10869
100
AcDbProxyObject
 90
      499
 91
      503
 93
      105
310
903313A384000000000000204000
  0
ACAD_PROXY_OBJECT
  5
1086F
102
{ACAD_REACTORS
330
10869
102
}
330
10869
100
AcDbProxyObject
 90
      499
 91
      503
 93
      113
310
904313A31304000000000000244000
  0
ACAD_PROXY_OBJECT
  5
10870
102
{ACAD_REACTORS
330
10869
102
}
330
10869
100
AcDbProxyObject
 90
      499
 91
      503
 93
      113
310
904313A31364000000000000304000
  0
ACAD_PROXY_OBJECT
  5
10871
102
{ACAD_REACTORS
330
10869
102
}
330
10869
100
AcDbProxyObject
 90
      499
 91
      503
 93
      113
310
904313A32304000000000000344000
  0
ACAD_PROXY_OBJECT
  5
10872
102
{ACAD_REACTORS
330
10869
102
}
330
10869
100
AcDbProxyObject
 90
      499
 91
      503
 93
      113
310
904313A333040000000000003E4000
  0
ACAD_PROXY_OBJECT
  5
10873
102
{ACAD_REACTORS
330
10869
102
}
330
10869
100
AcDbProxyObject
 90
      499
 91
      503
 93
      113
310
904313A34304000000000000444000
  0
ACAD_PROXY_OBJECT
  5
10874
102
{ACAD_REACTORS
330
10869
102
}
330
10869
100
AcDbProxyObject
 90
      499
 91
      503
 93
      113
310
904313A35304000000000000494000
  0
ACAD_PROXY_OBJECT
  5
10875
102
{ACAD_REACTORS
330
10869
102
}
330
10869
100
AcDbProxyObject
 90
      499
 91
      503
 93
      121
310
905313A3130304000000000000594000
  0
ACAD_PROXY_OBJECT
  5
10876
102
{ACAD_REACTORS
330
10869
102
}
330
10869
100
AcDbProxyObject
 90
      499
 91
      503
 93
      105
310
903323A310000000000000010100
  0
ACAD_PROXY_OBJECT
  5
10877
102
{ACAD_REACTORS
330
10869
102
}
330
10869
100
AcDbProxyObject
 90
      499
 91
      503
 93
      105
310
903343A310000000000000410100
  0
ACAD_PROXY_OBJECT
  5
10878
102
{ACAD_REACTORS
330
10869
102
}
330
10869
100
AcDbProxyObject
 90
      499
 91
      503
 93
      105
310
903383A310000000000000810100
  0
ACAD_PROXY_OBJECT
  5
10879
102
{ACAD_REACTORS
330
10869
102
}
330
10869
100
AcDbProxyObject
 90
      499
 91
      503
 93
      113
310
90431303A310000000000000910100
  0
ACAD_PROXY_OBJECT
  5
1087A
102
{ACAD_REACTORS
330
10869
102
}
330
10869
100
AcDbProxyObject
 90
      499
 91
      503
 93
      121
310
9053130303A310000000000001650100
  0
ACAD_PROXY_OBJECT
  5
1087B
102
{ACAD_REACTORS
330
10869
102
}
330
10869
100
AcDbProxyObject
 90
      499
 91
      503
 93
      257
310
90E312F31323822203D2031272D3022000000000000200FC000000000000284000
  0
ACAD_PROXY_OBJECT
  5
1087C
102
{ACAD_REACTORS
330
10869
102
}
330
10869
100
AcDbProxyObject
 90
      499
 91
      503
 93
      249
310
90D312F363422203D2031272D3022000000000000240FC000000000000284000
  0
ACAD_PROXY_OBJECT
  5
1087D
102
{ACAD_REACTORS
330
10869
102
}
330
10869
100
AcDbProxyObject
 90
      499
 91
      503
 93
      249
310
90D312F333222203D2031272D3022000000000000280FC000000000000284000
  0
ACAD_PROXY_OBJECT
  5
1087E
102
{ACAD_REACTORS
330
10869
102
}
330
10869
100
AcDbProxyObject
 90
      499
 91
      503
 93
      249
310
90D312F313622203D2031272D30220000000000002C0FC000000000000284000
  0
ACAD_PROXY_OBJECT
  5
1087F
102
{ACAD_REACTORS
330
10869
102
}
330
10869
100
AcDbProxyObject
 90
      499
 91
      503
 93
      249
310
90D332F333222203D2031272D30220000000000002E0FC000000000000284000
  0
ACAD_PROXY_OBJECT
  5
10880
102
{ACAD_REACTORS
330
10869
102
}
330
10869
100
AcDbProxyObject
 90
      499
 91
      503
 93
      241
310
90C312F3822203D2031272D3022000000000000300FC000000000000284000
  0
ACAD_PROXY_OBJECT
  5
10881
102
{ACAD_REACTORS
330
10869
102
}
330
10869
100
AcDbProxyObject
 90
      499
 91
      503
 93
      249
310
90D332F313622203D2031272D3022000000000000320FC000000000000284000
  0
ACAD_PROXY_OBJECT
  5
10882
102
{ACAD_REACTORS
330
10869
102
}
330
10869
100
AcDbProxyObject
 90
      499
 91
      503
 93
      241
310
90C312F3422203D2031272D3022000000000000340FC000000000000284000
  0
ACAD_PROXY_OBJECT
  5
10883
102
{ACAD_REACTORS
330
10869
102
}
330
10869
100
AcDbProxyObject
 90
      499
 91
      503
 93
      241
310
90C332F3822203D2031272D3022000000000000360FC000000000000284000
  0
ACAD_PROXY_OBJECT
  5
10884
102
{ACAD_REACTORS
330
10869
102
}
330
10869
100
AcDbProxyObject
 90
      499
 91
      503
 93
      241
310
90C312F3222203D2031272D3022000000000000380FC000000000000284000
  0
ACAD_PROXY_OBJECT
  5
10885
102
{ACAD_REACTORS
330
10869
102
}
330
10869
100
AcDbProxyObject
 90
      499
 91
      503
 93
      241
310
90C332F3422203D2031272D30220000000000003A0FC000000000000284000
  0
ACAD_PROXY_OBJECT
  5
10886
102
{ACAD_REACTORS
330
10869
102
}
330
10869
100
AcDbProxyObject
 90
      499
 91
      503
 93
      161
310
90A3122203D2031272D30224000000000000284000
  0
ACAD_PROXY_OBJECT
  5
10887
102
{ACAD_REACTORS
330
10869
102
}
330
10869
100
AcDbProxyObject
 90
      499
 91
      503
 93
      257
310
90E312D312F3222203D2031272D30220000000000003E0FC000000000000284000
  0
ACAD_PROXY_OBJECT
  5
10888
102
{ACAD_REACTORS
330
10869
102
}
330
10869
100
AcDbProxyObject
 90
      499
 91
      503
 93
      225
310
90A3322203D2031272D302200000000000002100000000000000284000
  0
ACAD_PROXY_OBJECT
  5
10889
102
{ACAD_REACTORS
330
10869
102
}
330
10869
100
AcDbProxyObject
 90
      499
 91
      503
 93
      225
310
90A3622203D2031272D302200000000000006100000000000000284000
  0
ACAD_PROXY_OBJECT
  5
1088A
102
{ACAD_REACTORS
330
10869
102
}
330
10869
100
AcDbProxyObject
 90
      499
 91
      503
 93
      249
310
90D31272D3022203D2031272D30220000000000000A100000000000000284000
  0
ACAD_PROXY_OBJECT
  5
10851
102
{ACAD_REACTORS
330
1084C
102
}
330
1084C
100
AcDbProxyObject
 90
      499
 91
      501
 93
      436
310
42CC9915DA5C99599C985B595049028333333333333E33F0000000000000F90107901411070040501600405405064090741402480A0340
1001
ACAD
1000
AcDbSavedByObjectVersion
1070
     0
  0
ACAD_PROXY_OBJECT
  5
10854
102
{ACAD_REACTORS
330
1084C
102
}
330
1084C
100
AcDbProxyObject
 90
      499
 91
      501
 93
      388
310
4150985CDA58D07406404333333333333E33F0000000000000F90107A41107004050150841D405064090741402480A0350
1001
ACAD
1000
AcDbSavedByObjectVersion
1070
     0
  0
ACAD_PROXY_OBJECT
  5
10858
102
{ACAD_REACTORS
330
1084C
102
}
330
1084C
100
AcDbProxyObject
 90
      499
 91
      501
 93
      428
310
42109C9A59DA1D195B90C409028333333333333E33F0000000000000F9010790141107004050150841D405064090741402480A029950
1001
ACAD
1000
AcDbSavedByObjectVersion
1070
     0
  0
ACAD_PROXY_OBJECT
  5
1085C
102
{ACAD_REACTORS
330
1084C
102
}
330
1084C
100
AcDbProxyObject
 90
      499
 91
      501
 93
      452
310
42D0DBDB1BDC90DA185B99D95104090240C333333333333E33F0000000000000F90108901411070040501508421405064090741402480A0350
1001
ACAD
1000
AcDbSavedByObjectVersion
1070
     0
  0
ACAD_PROXY_OBJECT
  5
10856
102
{ACAD_REACTORS
330
1084C
102
}
330
1084C
100
AcDbProxyObject
 90
      499
 91
      501
 93
      500
310
4290DBDB98D95C1D1D585B10940D028333333333333E33F0000000000000F90107902409070040501000000000018199010841D405064090740C02480A0340
1001
ACAD
1000
AcDbSavedByObjectVersion
1070
     0
  0
ACAD_PROXY_OBJECT
  5
10857
102
{ACAD_REACTORS
330
1084C
102
}
330
1084C
100
AcDbProxyObject
 90
      499
 91
      501
 93
      412
310
40D11A5B50B409028333333333333E33F0000000000000F9010790141107004050150841D405064090741402480A02677FFFFFD0
1001
ACAD
1000
AcDbSavedByObjectVersion
1070
     0
  0
ACAD_PROXY_OBJECT
  5
1085F
102
{ACAD_REACTORS
330
1084C
102
}
330
1084C
100
AcDbProxyObject
 90
      499
 91
      501
 93
      452
310
43115919D950DBDB1BDC93D999916409028333333333333E33F0000000000000F9010790141107004050150841D405064090741402480A0350
1001
ACAD
1000
AcDbSavedByObjectVersion
1070
     0
  0
ACAD_PROXY_OBJECT
  5
1085B
102
{ACAD_REACTORS
330
1084C
102
}
330
1084C
100
AcDbProxyObject
 90
      499
 91
      501
 93
      444
310
42D19858D95C185D1D195C9B90F409028333333333333E33F0000000000000F9010790141107004050150841D405064090741402480A0350
1001
ACAD
1000
AcDbSavedByObjectVersion
1070
     0
  0
ACAD_PROXY_OBJECT
  5
1084D
102
{ACAD_REACTORS
330
1084C
102
}
330
1084C
100
AcDbProxyObject
 90
      499
 91
      501
 93
      380
310
41119B185D240901404333333333333E33F0000000000000F9010740A907004050150841D405064090741402480A1B50
1001
ACAD
1000
AcDbSavedByObjectVersion
1070
     0
  0
ACAD_PROXY_OBJECT
  5
1084E
102
{ACAD_REACTORS
330
1084C
102
}
330
1084C
100
AcDbProxyObject
 90
      499
 91
      501
 93
      468
310
43519B185D15DA5D1A115919D95CD0140901404333333333333E33F0000000000000F90107409019070040501600405405064090741402480A1B50
1001
ACAD
1000
AcDbSavedByObjectVersion
1070
     0
  0
ACAD_PROXY_OBJECT
  5
1084F
102
{ACAD_REACTORS
330
1084C
102
}
330
1084C
100
AcDbProxyObject
 90
      499
 91
      501
 93
      404
310
41D1DBDD5C985D5910240902404333333333333E33F0000000000000F9010740A9070040501641D405064090741402480A1B50
1001
ACAD
1000
AcDbSavedByObjectVersion
1070
     0
  0
ACAD_PROXY_OBJECT
  5
10850
102
{ACAD_REACTORS
330
1084C
102
}
330
1084C
100
AcDbProxyObject
 90
      499
 91
      501
 93
      492
310
4411DBDD5C985D5915DA5D1A115919D95CD0340902404333333333333E33F0000000000000F90107409019070040501600405405064090741402480A1B50
1001
ACAD
1000
AcDbSavedByObjectVersion
1070
     0
  0
ACAD_PROXY_OBJECT
  5
10853
102
{ACAD_REACTORS
330
1084C
102
}
330
1084C
100
AcDbProxyObject
 90
      499
 91
      501
 93
      476
310
41921A5919195B90640502408333333333333E33F0000000000000F901079024090700405020000000000001110200405405064090740C02480A0340
1001
ACAD
1000
AcDbSavedByObjectVersion
1070
     0
  0
ACAD_PROXY_OBJECT
  5
1085D
102
{ACAD_REACTORS
330
1084C
102
}
330
1084C
100
AcDbProxyObject
 90
      499
 91
      501
 93
      428
310
42529A5D1D195C93D999914409028333333333333E33F0000000000000F9010790141107004050150A41D405064090741402480A0350
1001
ACAD
1000
AcDbSavedByObjectVersion
1070
     0
  0
ACAD_PROXY_OBJECT
  5
1085A
102
{ACAD_REACTORS
330
1084C
102
}
330
1084C
100
AcDbProxyObject
 90
      499
 91
      501
 93
      444
310
42D31A5B995C185D1D195C9B90E409028333333333333E33F0000000000000F9010790141107004050750841D405064090741402483A0350
1001
ACAD
1000
AcDbSavedByObjectVersion
1070
     0
  0
ACAD_PROXY_OBJECT
  5
1085E
102
{ACAD_REACTORS
330
1084C
102
}
330
1084C
100
AcDbProxyObject
 90
      499
 91
      501
 93
      444
310
42D3DD995C9A185B99D3D999915409028333333333333E33F0000000000000F9010790141107004050150941D405064090741402480A0350
1001
ACAD
1000
AcDbSavedByObjectVersion
1070
     0
  0
ACAD_PROXY_OBJECT
  5
10855
102
{ACAD_REACTORS
330
1084C
102
}
330
1084C
100
AcDbProxyObject
 90
      499
 91
      501
 93
      428
310
425499585B1A5CDD1A58D08409038333333333333E33F0000000000000F9010740A907004050150800405405064090740C02480A1B40
1001
ACAD
1000
AcDbSavedByObjectVersion
1070
     0
  0
ACAD_PROXY_OBJECT
  5
10864
102
{ACAD_REACTORS
330
1084C
102
}
330
1084C
100
AcDbProxyObject
 90
      499
 91
      501
 93
      420
310
4194DA1859195911B40902404333333333333E33F0000000000000F9010740A41107004050150800405405064090840C02480A0B40
1001
ACAD
1000
AcDbSavedByObjectVersion
1070
     0
  0
ACAD_PROXY_OBJECT
  5
10863
102
{ACAD_REACTORS
330
1084C
102
}
330
1084C
100
AcDbProxyObject
 90
      499
 91
      501
 93
      516
310
4454DA18591959081DDA5D1A08195919D95CD1A40902404333333333333E33F0000000000000F901074090142907004050250800405405064090740C02480A0B40
1001
ACAD
1000
AcDbSavedByObjectVersion
1070
     0
  0
ACAD_PROXY_OBJECT
  5
10860
102
{ACAD_REACTORS
330
1084C
102
}
330
1084C
100
AcDbProxyObject
 90
      499
 91
      501
 93
      532
310
4394DA1859195CC81BD98811DC985E5174090240C333333333333E33F0000000000000F901079024090741D01000000000000111010841D405064090740C02480A0340
1001
ACAD
1000
AcDbSavedByObjectVersion
1070
     0
  0
ACAD_PROXY_OBJECT
  5
10861
102
{ACAD_REACTORS
330
1084C
102
}
330
1084C
100
AcDbProxyObject
 90
      499
 91
      501
 93
      476
310
41D4DAD95D18DA1E51840502408333333333333E33F0000000000000F901079024090741D01000000000000111010B41D405064090741802480A0340
1001
ACAD
1000
AcDbSavedByObjectVersion
1070
     0
  0
ACAD_PROXY_OBJECT
  5
10859
102
{ACAD_REACTORS
330
1084C
102
}
330
1084C
100
AcDbProxyObject
 90
      499
 91
      501
 93
      412
310
41D51A1A58DAD95B90D409028333333333333E33F0000000000000F9010790141107004050150C41D405064090741402480A0350
1001
ACAD
1000
AcDbSavedByObjectVersion
1070
     0
  0
ACAD_PROXY_OBJECT
  5
10852
102
{ACAD_REACTORS
330
1084C
102
}
330
1084C
100
AcDbProxyObject
 90
      499
 91
      501
 93
      420
310
4255DA5C99599C985B595059028333333333333E33F0000000000000F90107901411070040501600405405064090740C02480A0340
1001
ACAD
1000
AcDbSavedByObjectVersion
1070
     0
  0
ACAD_PROXY_OBJECT
  5
10862
102
{ACAD_REACTORS
330
1084C
102
}
330
1084C
100
AcDbProxyObject
 90
      499
 91
      501
 93
      404
310
41560B54985E51940902404000000000000E03F0000000000000F9010740501907004050150841D405064090740C02480A1B40
1001
ACAD
1000
AcDbSavedByObjectVersion
1070
     0
  0
XRECORD
  5
10915
102
{ACAD_REACTORS
330
1090B
102
}
330
1090B
100
AcDbXrecord
340
0
  0
XRECORD
  5
10914
102
{ACAD_REACTORS
330
1090B
102
}
330
1090B
100
AcDbXrecord
 90
        0
  0
XRECORD
  5
1092B
102
{ACAD_REACTORS
330
1090B
102
}
330
1090B
100
AcDbXrecord
1000
DSTYLE
1002
{
1070
   176
 70
    18
1070
   177
 70
    18
1070
   178
 70
    18
1070
   340
340
10834
1002
}
  0
XRECORD
  5
10916
102
{ACAD_REACTORS
330
1090B
102
}
330
1090B
100
AcDbXrecord
  1
{f5832971-0efe-407c-bf50-bb83d24d2239}
  0
XRECORD
  5
1090E
102
{ACAD_REACTORS
330
1090B
102
}
330
1090B
100
AcDbXrecord
  1

  0
XRECORD
  5
10913
102
{ACAD_REACTORS
330
1090B
102
}
330
1090B
100
AcDbXrecord
 90
        4
  0
XRECORD
  5
10910
102
{ACAD_REACTORS
330
1090B
102
}
330
1090B
100
AcDbXrecord
340
1083C
  0
XRECORD
  5
10912
102
{ACAD_REACTORS
330
1090B
102
}
330
1090B
100
AcDbXrecord
 90
    10781
  0
XRECORD
  5
10911
102
{ACAD_REACTORS
330
1090B
102
}
330
1090B
100
AcDbXrecord
340
1083B
  0
XRECORD
  5
10918
102
{ACAD_REACTORS
330
1090B
102
}
330
1090B
100
AcDbXrecord
 40
0.0
  0
XRECORD
  5
1091B
102
{ACAD_REACTORS
330
1090B
102
}
330
1090B
100
AcDbXrecord
340
0
  0
XRECORD
  5
10921
102
{ACAD_REACTORS
330
1090B
102
}
330
1090B
100
AcDbXrecord
 10
0.0
 20
0.0
 30
0.0
  0
XRECORD
  5
1091D
102
{ACAD_REACTORS
330
1090B
102
}
330
1090B
100
AcDbXrecord
 10
0.0
 20
0.0
 30
0.0
  0
XRECORD
  5
10920
102
{ACAD_REACTORS
330
1090B
102
}
330
1090B
100
AcDbXrecord
 10
0.0
 20
0.0
 30
0.0
  0
XRECORD
  5
1091E
102
{ACAD_REACTORS
330
1090B
102
}
330
1090B
100
AcDbXrecord
 10
0.0
 20
0.0
 30
0.0
  0
XRECORD
  5
1091F
102
{ACAD_REACTORS
330
1090B
102
}
330
1090B
100
AcDbXrecord
 10
0.0
 20
0.0
 30
0.0
  0
XRECORD
  5
1091C
102
{ACAD_REACTORS
330
1090B
102
}
330
1090B
100
AcDbXrecord
 10
0.0
 20
0.0
 30
0.0
  0
XRECORD
  5
10919
102
{ACAD_REACTORS
330
1090B
102
}
330
1090B
100
AcDbXrecord
340
0
  0
XRECORD
  5
1091A
102
{ACAD_REACTORS
330
1090B
102
}
330
1090B
100
AcDbXrecord
 70
     0
  0
XRECORD
  5
1090F
102
{ACAD_REACTORS
330
1090B
102
}
330
1090B
100
AcDbXrecord
  1

  0
XRECORD
  5
1090C
102
{ACAD_REACTORS
330
1090B
102
}
330
1090B
100
AcDbXrecord
 90
        1
  0
XRECORD
  5
1090D
102
{ACAD_REACTORS
330
1090B
102
}
330
1090B
100
AcDbXrecord
 90
       70
  0
XRECORD
  5
10924
102
{ACAD_REACTORS
330
1090B
102
}
330
1090B
100
AcDbXrecord
340
0
  0
XRECORD
  5
1092A
102
{ACAD_REACTORS
330
1090B
102
}
330
1090B
100
AcDbXrecord
 10
0.0
 20
0.0
 30
0.0
  0
XRECORD
  5
10926
102
{ACAD_REACTORS
330
1090B
102
}
330
1090B
100
AcDbXrecord
 10
0.0
 20
0.0
 30
0.0
  0
XRECORD
  5
10929
102
{ACAD_REACTORS
330
1090B
102
}
330
1090B
100
AcDbXrecord
 10
0.0
 20
0.0
 30
0.0
  0
XRECORD
  5
10927
102
{ACAD_REACTORS
330
1090B
102
}
330
1090B
100
AcDbXrecord
 10
0.0
 20
0.0
 30
0.0
  0
XRECORD
  5
10928
102
{ACAD_REACTORS
330
1090B
102
}
330
1090B
100
AcDbXrecord
 10
0.0
 20
0.0
 30
0.0
  0
XRECORD
  5
10925
102
{ACAD_REACTORS
330
1090B
102
}
330
1090B
100
AcDbXrecord
 10
0.0
 20
0.0
 30
0.0
  0
XRECORD
  5
10922
102
{ACAD_REACTORS
330
1090B
102
}
330
1090B
100
AcDbXrecord
340
0
  0
XRECORD
  5
10923
102
{ACAD_REACTORS
330
1090B
102
}
330
1090B
100
AcDbXrecord
 70
     0
  0
XRECORD
  5
10917
102
{ACAD_REACTORS
330
1090B
102
}
330
1090B
100
AcDbXrecord
  1
{FAEB1C32-E019-11D5-929B-00C0DF256EC4}
  0
DICTIONARYVAR
  5
10936
102
{ACAD_REACTORS
330
1092C
102
}
330
1092C
100
DictionaryVariables
280
     0
  1
1:1
  0
DICTIONARYVAR
  5
1092E
102
{ACAD_REACTORS
330
1092C
102
}
330
1092C
100
DictionaryVariables
280
     0
  1
Standard
  0
DICTIONARYVAR
  5
1092D
102
{ACAD_REACTORS
330
1092C
102
}
330
1092C
100
DictionaryVariables
280
     0
  1
Standard
  0
DICTIONARYVAR
  5
10931
102
{ACAD_REACTORS
330
1092C
102
}
330
1092C
100
DictionaryVariables
280
     0
  1
2
  0
DICTIONARYVAR
  5
10932
102
{ACAD_REACTORS
330
1092C
102
}
330
1092C
100
DictionaryVariables
280
     0
  1
1
  0
DICTIONARYVAR
  5
10937
102
{ACAD_REACTORS
330
1092C
102
}
330
1092C
100
DictionaryVariables
280
     0
  1
1
  0
XRECORD
  5
10893
102
{ACAD_REACTORS
330
10891
102
}
330
10891
100
AcDbXrecord
1000
#ffffff
  0
XRECORD
  5
10894
102
{ACAD_REACTORS
330
10891
102
}
330
10891
100
AcDbXrecord
1000
FullColor
  0
ACAD_PROXY_OBJECT
  5
108B0
102
{ACAD_REACTORS
330
10891
102
}
330
10891
100
AcDbProxyObject
 90
      499
 91
      508
 93
       34
310
40C8804000
  0
ACAD_PROXY_OBJECT
  5
10895
102
{ACAD_REACTORS
330
10891
102
}
330
10891
100
AcDbProxyObject
 90
      499
 91
      508
 93
       34
310
40C8804040
  0
ACAD_PROXY_OBJECT
  5
10896
102
{ACAD_REACTORS
330
10891
102
}
330
10891
100
AcDbProxyObject
 90
      499
 91
      508
 93
       34
310
40C8804040
  0
ACAD_PROXY_OBJECT
  5
10897
102
{ACAD_REACTORS
330
10891
102
}
330
10891
100
AcDbProxyObject
 90
      499
 91
      508
 93
       34
310
40C8804040
  0
XRECORD
  5
10898
102
{ACAD_REACTORS
330
10891
102
}
330
10891
100
AcDbXrecord
1000
auto
  0
XRECORD
  5
10899
102
{ACAD_REACTORS
330
10891
102
}
330
10891
100
AcDbXrecord
1000
auto
  0
XRECORD
  5
1089A
102
{ACAD_REACTORS
330
10891
102
}
330
10891
100
AcDbXrecord
1000
auto
  0
XRECORD
  5
1089B
102
{ACAD_REACTORS
330
10891
102
}
330
10891
100
AcDbXrecord
1000
auto
  0
XRECORD
  5
1089C
102
{ACAD_REACTORS
330
10891
102
}
330
10891
100
AcDbXrecord
1000
auto
  0
XRECORD
  5
1089D
102
{ACAD_REACTORS
330
10891
102
}
330
10891
100
AcDbXrecord
1000
auto
  0
XRECORD
  5
1089E
102
{ACAD_REACTORS
330
10891
102
}
330
10891
100
AcDbXrecord
1000
auto
  0
XRECORD
  5
1089F
102
{ACAD_REACTORS
330
10891
102
}
330
10891
100
AcDbXrecord
1000
auto
  0
ACAD_PROXY_OBJECT
  5
108A0
102
{ACAD_REACTORS
330
10891
102
}
330
10891
100
AcDbProxyObject
 90
      499
 91
      508
 93
       34
310
40C8804000
  0
ACAD_PROXY_OBJECT
  5
108A1
102
{ACAD_REACTORS
330
10891
102
}
330
10891
100
AcDbProxyObject
 90
      499
 91
      508
 93
       34
310
40C8804000
  0
ACAD_PROXY_OBJECT
  5
108A2
102
{ACAD_REACTORS
330
10891
102
}
330
10891
100
AcDbProxyObject
 90
      499
 91
      508
 93
       34
310
40C8804000
  0
ACAD_PROXY_OBJECT
  5
108A3
102
{ACAD_REACTORS
330
10891
102
}
330
10891
100
AcDbProxyObject
 90
      499
 91
      508
 93
       34
310
40C8804000
  0
XRECORD
  5
108A4
102
{ACAD_REACTORS
330
10891
102
}
330
10891
100
AcDbXrecord
 90
    65537
  0
XRECORD
  5
108A5
102
{ACAD_REACTORS
330
10891
102
}
330
10891
100
AcDbXrecord
 90
    65537
  0
XRECORD
  5
108A6
102
{ACAD_REACTORS
330
10891
102
}
330
10891
100
AcDbXrecord
 90
    65537
  0
XRECORD
  5
108A7
102
{ACAD_REACTORS
330
10891
102
}
330
10891
100
AcDbXrecord
 90
    65537
  0
XRECORD
  5
108A8
102
{ACAD_REACTORS
330
10891
102
}
330
10891
100
AcDbXrecord
1000
auto
  0
XRECORD
  5
108A9
102
{ACAD_REACTORS
330
10891
102
}
330
10891
100
AcDbXrecord
1000
auto
  0
XRECORD
  5
108AA
102
{ACAD_REACTORS
330
10891
102
}
330
10891
100
AcDbXrecord
1000
auto
  0
XRECORD
  5
108AB
102
{ACAD_REACTORS
330
10891
102
}
330
10891
100
AcDbXrecord
1000
auto
  0
XRECORD
  5
108AC
102
{ACAD_REACTORS
330
10891
102
}
330
10891
100
AcDbXrecord
1000
auto
  0
XRECORD
  5
108AD
102
{ACAD_REACTORS
330
10891
102
}
330
10891
100
AcDbXrecord
1000
auto
  0
XRECORD
  5
108AE
102
{ACAD_REACTORS
330
10891
102
}
330
10891
100
AcDbXrecord
1000
auto
  0
XRECORD
  5
108AF
102
{ACAD_REACTORS
330
10891
102
}
330
10891
100
AcDbXrecord
1000
auto
  0
XRECORD
  5
108B1
102
{ACAD_REACTORS
330
10891
102
}
330
10891
100
AcDbXrecord
 90
        1
  0
XRECORD
  5
108B2
102
{ACAD_REACTORS
330
10891
102
}
330
10891
100
AcDbXrecord
 40
10.0
  0
XRECORD
  5
108B3
102
{ACAD_REACTORS
330
10891
102
}
330
10891
100
AcDbXrecord
 40
10.0
  0
XRECORD
  5
108B4
102
{ACAD_REACTORS
330
10891
102
}
330
10891
100
AcDbXrecord
 40
10.0
  0
XRECORD
  5
108B5
102
{ACAD_REACTORS
330
10891
102
}
330
10891
100
AcDbXrecord
 40
10.0
  0
XRECORD
  5
108B8
102
{ACAD_REACTORS
330
10891
102
}
330
10891
100
AcDbXrecord
 40
10.0
  0
XRECORD
  5
108B9
102
{ACAD_REACTORS
330
10891
102
}
330
10891
100
AcDbXrecord
 40
10.0
  0
XRECORD
  5
108BA
102
{ACAD_REACTORS
330
10891
102
}
330
10891
100
AcDbXrecord
 40
10.0
  0
XRECORD
  5
108BB
102
{ACAD_REACTORS
330
10891
102
}
330
10891
100
AcDbXrecord
 40
10.0
  0
ACAD_PROXY_OBJECT
  5
108B6
102
{ACAD_REACTORS
330
10891
102
}
330
10891
100
AcDbProxyObject
 90
      499
 91
      508
 93
       34
310
40C8804000
  0
ACAD_PROXY_OBJECT
  5
108BC
102
{ACAD_REACTORS
330
10891
102
}
330
10891
100
AcDbProxyObject
 90
      499
 91
      508
 93
       34
310
40C8804000
  0
XRECORD
  5
108B7
102
{ACAD_REACTORS
330
10891
102
}
330
10891
100
AcDbXrecord
 90
        1
  0
XRECORD
  5
108BD
102
{ACAD_REACTORS
330
10891
102
}
330
10891
100
AcDbXrecord
 40
0.0
  0
XRECORD
  5
108BE
102
{ACAD_REACTORS
330
10891
102
}
330
10891
100
AcDbXrecord
 40
0.0
  0
XRECORD
  5
108BF
102
{ACAD_REACTORS
330
10891
102
}
330
10891
100
AcDbXrecord
1000
Portrait
  0
XRECORD
  5
108C0
102
{ACAD_REACTORS
330
10891
102
}
330
10891
100
AcDbXrecord
 40
297.0
  0
XRECORD
  5
108C1
102
{ACAD_REACTORS
330
10891
102
}
330
10891
100
AcDbXrecord
 40
210.0
  0
XRECORD
  5
108C2
102
{ACAD_REACTORS
330
10891
102
}
330
10891
100
AcDbXrecord
1000
1:1
  0
ACAD_PROXY_OBJECT
  5
108C3
102
{ACAD_REACTORS
330
10891
102
}
330
10891
100
AcDbProxyObject
 90
      499
 91
      508
 93
       34
310
40C8804040
  0
ACAD_PROXY_OBJECT
  5
108C4
102
{ACAD_REACTORS
330
10891
102
}
330
10891
100
AcDbProxyObject
 90
      499
 91
      508
 93
       34
310
40C8804000
  0
XRECORD
  5
108C5
102
{ACAD_REACTORS
330
10891
102
}
330
10891
100
AcDbXrecord
1000
Inside
  0
XRECORD
  5
108C6
102
{ACAD_REACTORS
330
10891
102
}
330
10891
100
AcDbXrecord
1000
Arial,10,-1,5,50,0,0,0,0,0
  0
XRECORD
  5
108C7
102
{ACAD_REACTORS
330
10891
102
}
330
10891
100
AcDbXrecord
1000
TopLeft
  0
XRECORD
  5
108C8
102
{ACAD_REACTORS
330
10891
102
}
330
10891
100
AcDbXrecord
1000
3.24.3
  0
XRECORD
  5
108C9
102
{ACAD_REACTORS
330
10891
102
}
330
10891
100
AcDbXrecord
 90
        4
  0
XRECORD
  5
108CA
102
{ACAD_REACTORS
330
10891
102
}
330
10891
100
AcDbXrecord
  0
XRECORD
  5
108CB
102
{ACAD_REACTORS
330
10891
102
}
330
10891
100
AcDbXrecord
 40
213.9767551440468
  0
XRECORD
  5
108CC
102
{ACAD_REACTORS
330
10891
102
}
330
10891
100
AcDbXrecord
 40
374.6012159020448
  0
DICTIONARY
  5
1093A
330
10867
100
AcDbDictionary
280
     1
  3
ACAD_XREC_ROUNDTRIP
360
1093B
  0
DICTIONARY
  5
10938
330
10866
100
AcDbDictionary
280
     1
  3
ACAD_XREC_ROUNDTRIP
360
10939
  0
DICTIONARY
  5
1093C
330
10868
100
AcDbDictionary
280
     1
  3
ACAD_XREC_ROUNDTRIP
360
1093D
  0
XRECORD
  5
1093B
102
{ACAD_REACTORS
330
1093A
102
}
330
1093A
100
AcDbXrecord
102
MATERIAL
148
0.0
149
0.0
149
0.0
 93
        0
 94
      127
282
     0
 72
     1
 77
     1
171
     1
175
     1
179
     1
273
     0
  0
XRECORD
  5
10939
102
{ACAD_REACTORS
330
10938
102
}
330
10938
100
AcDbXrecord
102
MATERIAL
148
0.0
149
0.0
149
0.0
 93
        0
 94
      127
282
     0
 72
     1
 77
     1
171
     1
175
     1
179
     1
273
     0
  0
XRECORD
  5
1093D
102
{ACAD_REACTORS
330
1093C
102
}
330
1093C
100
AcDbXrecord
102
MATERIAL
148
0.0
149
0.0
149
0.0
 93
        0
 94
      127
282
     0
 72
     1
 77
     1
171
     1
175
     1
179
     1
273
     0
  0
ENDSEC
  0
EOF
