M48
; DRILL file {KiCad (5.99.0-10161-g3a96736b1f)} date Sunday, April 25, 2021 at 02:13:06 PM
; FORMAT={-:-/ absolute / inch / decimal}
; #@! TF.CreationDate,2021-04-25T14:13:06+03:00
; #@! TF.GenerationSoftware,Kicad,Pcbnew,(5.99.0-10161-g3a96736b1f)
; #@! TF.FileFunction,NonPlated,1,2,NPTH
FMAT,2
INCH
; #@! TA.AperFunction,NonPlated,NPTH,ComponentDrill
T1C0.0669
; #@! TA.AperFunction,NonPlated,NPTH,ComponentDrill
T2C0.1201
; #@! TA.AperFunction,NonPlated,NPTH,ComponentDrill
T3C0.1570
; #@! TA.AperFunction,NonPlated,NPTH,ComponentDrill
T4C0.1575
%
G90
G05
T1
X2.3625Y-3.625
X2.4562Y-5.125
X2.4562Y-5.875
X2.55Y-4.375
X2.55Y-6.625
X2.6437Y-5.125
X2.7625Y-3.625
X2.8312Y-5.875
X2.8562Y-5.125
X2.8562Y-5.875
X2.95Y-4.375
X2.95Y-6.625
X3.0437Y-5.125
X3.1125Y-3.625
X3.2312Y-5.875
X3.3Y-5.875
X3.4875Y-4.375
X3.4875Y-6.625
X3.5125Y-3.625
X3.675Y-5.125
X3.7Y-5.875
X3.8625Y-3.625
X3.8875Y-4.375
X3.8875Y-6.625
X4.05Y-5.875
X4.075Y-5.125
X4.2375Y-4.375
X4.2625Y-3.625
X4.425Y-5.125
X4.425Y-6.625
X4.45Y-5.875
X4.6125Y-3.625
X4.6375Y-4.375
X4.8Y-5.875
X4.825Y-5.125
X4.825Y-6.625
X4.9875Y-4.375
X5.0125Y-3.625
X5.175Y-5.125
X5.2Y-5.875
X5.3625Y-3.625
X5.3875Y-4.375
X5.55Y-5.875
X5.575Y-5.125
X5.7375Y-4.375
X5.7625Y-3.625
X5.925Y-5.125
X5.95Y-5.875
X6.1125Y-3.625
X6.1375Y-4.375
X6.3Y-5.875
X6.325Y-5.125
X6.4875Y-4.375
X6.5125Y-3.625
X6.675Y-5.125
X6.7Y-5.875
X6.8625Y-3.625
X6.8875Y-4.375
X7.05Y-5.875
X7.075Y-5.125
X7.2375Y-4.375
X7.2625Y-3.625
X7.425Y-5.125
X7.45Y-5.875
X7.6125Y-3.625
X7.6125Y-6.625
X7.6375Y-4.375
X7.8Y-5.875
X7.825Y-5.125
X7.9875Y-4.375
X8.0125Y-3.625
X8.0125Y-6.625
X8.175Y-5.125
X8.2Y-5.875
X8.3625Y-3.625
X8.3875Y-4.375
X8.55Y-5.875
X8.575Y-5.125
X8.7375Y-4.375
X8.7625Y-3.625
X8.925Y-5.125
X8.95Y-5.875
X9.1125Y-3.625
X9.1375Y-4.375
X9.3Y-5.875
X9.325Y-5.125
X9.4875Y-4.375
X9.5125Y-3.625
X9.675Y-5.125
X9.7Y-5.875
X9.8625Y-3.625
X9.8875Y-4.375
X10.05Y-5.875
X10.075Y-5.125
X10.2375Y-4.375
X10.2625Y-3.625
X10.425Y-5.125
X10.45Y-5.875
X10.6125Y-3.625
X10.6375Y-4.375
X10.8Y-5.875
X10.8Y-6.625
X10.825Y-5.125
X10.9875Y-4.375
X11.0125Y-3.625
X11.175Y-5.125
X11.2Y-5.875
X11.2Y-6.625
X11.3625Y-3.625
X11.3875Y-4.375
X11.575Y-5.125
X11.7375Y-4.375
X11.7375Y-6.625
X11.7625Y-3.625
X11.8312Y-5.875
X11.925Y-5.125
X12.1125Y-3.625
X12.1375Y-4.375
X12.1375Y-6.625
X12.2062Y-5.875
X12.2312Y-5.875
X12.325Y-5.125
X12.3937Y-5.125
X12.4875Y-3.625
X12.5125Y-3.625
X12.6062Y-5.875
X12.675Y-4.375
X12.675Y-6.625
X12.7687Y-4.75
X12.7937Y-5.125
X12.8625Y-3.625
X12.8625Y-5.875
X12.8875Y-3.625
X13.075Y-4.375
X13.075Y-6.625
X13.1687Y-4.75
X13.2625Y-3.625
X13.2625Y-5.875
T2
X2.5625Y-5.6
X3.5Y-5.6
X5.5625Y-6.9
X10.0625Y-6.9
X11.9375Y-5.6
X12.125Y-4.85
X12.2188Y-3.35
X12.875Y-5.6
X13.0625Y-4.85
X13.1562Y-3.35
X13.2438Y-4.28
X13.2438Y-5.22
T3
X10.0625Y-6.3
X12.9688Y-4.75
T4
X2.5625Y-3.625
X2.5625Y-6.2
X2.6562Y-5.125
X2.6562Y-5.875
X2.75Y-4.375
X2.75Y-6.625
X2.8438Y-5.125
X3.0312Y-5.875
X3.3125Y-3.625
X3.5Y-5.875
X3.5Y-6.2
X3.6875Y-4.375
X3.6875Y-6.625
X3.875Y-5.125
X4.0625Y-3.625
X4.25Y-5.875
X4.4375Y-4.375
X4.625Y-5.125
X4.625Y-6.625
X4.8125Y-3.625
X5.0Y-5.875
X5.1875Y-4.375
X5.375Y-5.125
X5.5625Y-3.625
X5.5625Y-6.3
X5.75Y-5.875
X5.9375Y-4.375
X6.125Y-5.125
X6.3125Y-3.625
X6.5Y-5.875
X6.6875Y-4.375
X6.875Y-5.125
X7.0625Y-3.625
X7.25Y-5.875
X7.4375Y-4.375
X7.625Y-5.125
X7.8125Y-3.625
X7.8125Y-6.625
X8.0Y-5.875
X8.1875Y-4.375
X8.375Y-5.125
X8.5625Y-3.625
X8.75Y-5.875
X8.9375Y-4.375
X9.125Y-5.125
X9.3125Y-3.625
X9.5Y-5.875
X9.6875Y-4.375
X9.875Y-5.125
X10.0625Y-3.625
X10.25Y-5.875
X10.4375Y-4.375
X10.625Y-5.125
X10.8125Y-3.625
X11.0Y-5.875
X11.0Y-6.625
X11.1875Y-4.375
X11.375Y-5.125
X11.5625Y-3.625
X11.9375Y-4.375
X11.9375Y-6.2
X11.9375Y-6.625
X12.0312Y-5.875
X12.125Y-5.125
X12.125Y-5.45
X12.2188Y-3.95
X12.3125Y-3.625
X12.4062Y-5.875
X12.5938Y-5.125
X12.6437Y-4.2812
X12.6437Y-5.2188
X12.6875Y-3.625
X12.875Y-4.375
X12.875Y-6.2
X12.875Y-6.625
X13.0625Y-3.625
X13.0625Y-5.45
X13.0625Y-5.875
X13.1562Y-3.95
T0
M30
