%TF.GenerationSoftware,KiCad,Pcbnew,(5.99.0-10161-g3a96736b1f)*%
%TF.CreationDate,2021-04-25T14:13:02+03:00*%
%TF.ProjectId,Monoflex60,4d6f6e6f-666c-4657-9836-302e6b696361,rev?*%
%TF.SameCoordinates,Original*%
%TF.FileFunction,Soldermask,Top*%
%TF.FilePolarity,Negative*%
%FSLAX46Y46*%
G04 Gerber Fmt 4.6, Leading zero omitted, Abs format (unit mm)*
G04 Created by KiCad (PCBNEW (5.99.0-10161-g3a96736b1f)) date 2021-04-25 14:13:02*
%MOMM*%
%LPD*%
G01*
G04 APERTURE LIST*
%ADD10C,1.700000*%
%ADD11C,4.000000*%
%ADD12C,2.500000*%
%ADD13C,3.000000*%
%ADD14C,3.050000*%
%ADD15C,3.987800*%
%ADD16R,1.500000X1.500000*%
%ADD17C,1.500000*%
G04 APERTURE END LIST*
D10*
%TO.C,SW1*%
X60007500Y-92075000D03*
D11*
X65087500Y-92075000D03*
D10*
X70167500Y-92075000D03*
D12*
X61277500Y-89535000D03*
X67627500Y-86995000D03*
%TD*%
D10*
%TO.C,SW3*%
X108267500Y-92075000D03*
D11*
X103187500Y-92075000D03*
D10*
X98107500Y-92075000D03*
D12*
X99377500Y-89535000D03*
X105727500Y-86995000D03*
%TD*%
D10*
%TO.C,SW4*%
X117157500Y-92075000D03*
X127317500Y-92075000D03*
D11*
X122237500Y-92075000D03*
D12*
X118427500Y-89535000D03*
X124777500Y-86995000D03*
%TD*%
D10*
%TO.C,SW5*%
X136207500Y-92075000D03*
X146367500Y-92075000D03*
D11*
X141287500Y-92075000D03*
D12*
X137477500Y-89535000D03*
X143827500Y-86995000D03*
%TD*%
D10*
%TO.C,SW6*%
X155257500Y-92075000D03*
X165417500Y-92075000D03*
D11*
X160337500Y-92075000D03*
D12*
X156527500Y-89535000D03*
X162877500Y-86995000D03*
%TD*%
D11*
%TO.C,SW7*%
X179387500Y-92075000D03*
D10*
X184467500Y-92075000D03*
X174307500Y-92075000D03*
D12*
X175577500Y-89535000D03*
X181927500Y-86995000D03*
%TD*%
D11*
%TO.C,SW8*%
X198437500Y-92075000D03*
D10*
X203517500Y-92075000D03*
X193357500Y-92075000D03*
D12*
X194627500Y-89535000D03*
X200977500Y-86995000D03*
%TD*%
D10*
%TO.C,SW9*%
X222567500Y-92075000D03*
X212407500Y-92075000D03*
D11*
X217487500Y-92075000D03*
D12*
X213677500Y-89535000D03*
X220027500Y-86995000D03*
%TD*%
D10*
%TO.C,SW10*%
X231457500Y-92075000D03*
X241617500Y-92075000D03*
D11*
X236537500Y-92075000D03*
D12*
X232727500Y-89535000D03*
X239077500Y-86995000D03*
%TD*%
D10*
%TO.C,SW11*%
X260667500Y-92075000D03*
X250507500Y-92075000D03*
D11*
X255587500Y-92075000D03*
D12*
X251777500Y-89535000D03*
X258127500Y-86995000D03*
%TD*%
D11*
%TO.C,SW12*%
X274637500Y-92075000D03*
D10*
X279717500Y-92075000D03*
X269557500Y-92075000D03*
D12*
X270827500Y-89535000D03*
X277177500Y-86995000D03*
%TD*%
D10*
%TO.C,SW13*%
X298767500Y-92075000D03*
D11*
X293687500Y-92075000D03*
D10*
X288607500Y-92075000D03*
D12*
X289877500Y-89535000D03*
X296227500Y-86995000D03*
%TD*%
D10*
%TO.C,SW14*%
X307657500Y-92075000D03*
D11*
X312737500Y-92075000D03*
D10*
X317817500Y-92075000D03*
D12*
X308927500Y-89535000D03*
X315277500Y-86995000D03*
%TD*%
D11*
%TO.C,SW16*%
X331787500Y-92075000D03*
D10*
X326707500Y-92075000D03*
X336867500Y-92075000D03*
D12*
X327977500Y-89535000D03*
D13*
X334327500Y-86995000D03*
%TD*%
D10*
%TO.C,SW19*%
X107632500Y-111125000D03*
D11*
X112712500Y-111125000D03*
D10*
X117792500Y-111125000D03*
D12*
X108902500Y-108585000D03*
X115252500Y-106045000D03*
%TD*%
D10*
%TO.C,SW20*%
X136842500Y-111125000D03*
D11*
X131762500Y-111125000D03*
D10*
X126682500Y-111125000D03*
D12*
X127952500Y-108585000D03*
X134302500Y-106045000D03*
%TD*%
D11*
%TO.C,SW21*%
X150812500Y-111125000D03*
D10*
X145732500Y-111125000D03*
X155892500Y-111125000D03*
D12*
X147002500Y-108585000D03*
X153352500Y-106045000D03*
%TD*%
D10*
%TO.C,SW22*%
X174942500Y-111125000D03*
X164782500Y-111125000D03*
D11*
X169862500Y-111125000D03*
D12*
X166052500Y-108585000D03*
X172402500Y-106045000D03*
%TD*%
D11*
%TO.C,SW23*%
X188912500Y-111125000D03*
D10*
X183832500Y-111125000D03*
X193992500Y-111125000D03*
D12*
X185102500Y-108585000D03*
X191452500Y-106045000D03*
%TD*%
D11*
%TO.C,SW24*%
X207962500Y-111125000D03*
D10*
X202882500Y-111125000D03*
X213042500Y-111125000D03*
D12*
X204152500Y-108585000D03*
X210502500Y-106045000D03*
%TD*%
D10*
%TO.C,SW25*%
X232092500Y-111125000D03*
D11*
X227012500Y-111125000D03*
D10*
X221932500Y-111125000D03*
D12*
X223202500Y-108585000D03*
X229552500Y-106045000D03*
%TD*%
D10*
%TO.C,SW26*%
X251142500Y-111125000D03*
X240982500Y-111125000D03*
D11*
X246062500Y-111125000D03*
D12*
X242252500Y-108585000D03*
X248602500Y-106045000D03*
%TD*%
D10*
%TO.C,SW27*%
X260032500Y-111125000D03*
D11*
X265112500Y-111125000D03*
D10*
X270192500Y-111125000D03*
D12*
X261302500Y-108585000D03*
X267652500Y-106045000D03*
%TD*%
D11*
%TO.C,SW28*%
X284162500Y-111125000D03*
D10*
X289242500Y-111125000D03*
X279082500Y-111125000D03*
D12*
X280352500Y-108585000D03*
X286702500Y-106045000D03*
%TD*%
D10*
%TO.C,SW29*%
X308292500Y-111125000D03*
D11*
X303212500Y-111125000D03*
D10*
X298132500Y-111125000D03*
D12*
X299402500Y-108585000D03*
X305752500Y-106045000D03*
%TD*%
D10*
%TO.C,SW30*%
X321945000Y-111125000D03*
D11*
X327025000Y-111125000D03*
D10*
X332105000Y-111125000D03*
D13*
X323215000Y-108585000D03*
D12*
X329565000Y-106045000D03*
%TD*%
D10*
%TO.C,SW34*%
X112395000Y-130175000D03*
D11*
X117475000Y-130175000D03*
D10*
X122555000Y-130175000D03*
D12*
X113665000Y-127635000D03*
X120015000Y-125095000D03*
%TD*%
D11*
%TO.C,SW35*%
X136525000Y-130175000D03*
D10*
X131445000Y-130175000D03*
X141605000Y-130175000D03*
D12*
X132715000Y-127635000D03*
X139065000Y-125095000D03*
%TD*%
D11*
%TO.C,SW36*%
X155575000Y-130175000D03*
D10*
X160655000Y-130175000D03*
X150495000Y-130175000D03*
D12*
X151765000Y-127635000D03*
X158115000Y-125095000D03*
%TD*%
D10*
%TO.C,SW37*%
X179705000Y-130175000D03*
X169545000Y-130175000D03*
D11*
X174625000Y-130175000D03*
D12*
X170815000Y-127635000D03*
X177165000Y-125095000D03*
%TD*%
D10*
%TO.C,SW38*%
X188595000Y-130175000D03*
D11*
X193675000Y-130175000D03*
D10*
X198755000Y-130175000D03*
D12*
X189865000Y-127635000D03*
X196215000Y-125095000D03*
%TD*%
D11*
%TO.C,SW39*%
X212725000Y-130175000D03*
D10*
X217805000Y-130175000D03*
X207645000Y-130175000D03*
D12*
X208915000Y-127635000D03*
X215265000Y-125095000D03*
%TD*%
D10*
%TO.C,SW40*%
X226695000Y-130175000D03*
X236855000Y-130175000D03*
D11*
X231775000Y-130175000D03*
D12*
X227965000Y-127635000D03*
X234315000Y-125095000D03*
%TD*%
D10*
%TO.C,SW41*%
X255905000Y-130175000D03*
X245745000Y-130175000D03*
D11*
X250825000Y-130175000D03*
D12*
X247015000Y-127635000D03*
X253365000Y-125095000D03*
%TD*%
D10*
%TO.C,SW42*%
X264795000Y-130175000D03*
X274955000Y-130175000D03*
D11*
X269875000Y-130175000D03*
D12*
X266065000Y-127635000D03*
X272415000Y-125095000D03*
%TD*%
D10*
%TO.C,SW43*%
X294005000Y-130175000D03*
X283845000Y-130175000D03*
D11*
X288925000Y-130175000D03*
D12*
X285115000Y-127635000D03*
X291465000Y-125095000D03*
%TD*%
D11*
%TO.C,SW44*%
X307975000Y-130175000D03*
D10*
X302895000Y-130175000D03*
X313055000Y-130175000D03*
D12*
X304165000Y-127635000D03*
X310515000Y-125095000D03*
%TD*%
D10*
%TO.C,SW47*%
X72548750Y-149225000D03*
X62388750Y-149225000D03*
D11*
X67468750Y-149225000D03*
D12*
X63658750Y-146685000D03*
X70008750Y-144145000D03*
%TD*%
D14*
%TO.C,SW48*%
X65087500Y-142240000D03*
D10*
X82073750Y-149225000D03*
D11*
X65087500Y-157480000D03*
D10*
X71913750Y-149225000D03*
D11*
X88900000Y-157480000D03*
X76993750Y-149225000D03*
D14*
X88900000Y-142240000D03*
D12*
X73183750Y-146685000D03*
X79533750Y-144145000D03*
%TD*%
D11*
%TO.C,SW49*%
X88900000Y-149225000D03*
D10*
X93980000Y-149225000D03*
X83820000Y-149225000D03*
D12*
X85090000Y-146685000D03*
X91440000Y-144145000D03*
%TD*%
D11*
%TO.C,SW50*%
X107950000Y-149225000D03*
D10*
X102870000Y-149225000D03*
X113030000Y-149225000D03*
D12*
X104140000Y-146685000D03*
X110490000Y-144145000D03*
%TD*%
D10*
%TO.C,SW51*%
X121920000Y-149225000D03*
D11*
X127000000Y-149225000D03*
D10*
X132080000Y-149225000D03*
D12*
X123190000Y-146685000D03*
X129540000Y-144145000D03*
%TD*%
D10*
%TO.C,SW52*%
X151130000Y-149225000D03*
X140970000Y-149225000D03*
D11*
X146050000Y-149225000D03*
D12*
X142240000Y-146685000D03*
X148590000Y-144145000D03*
%TD*%
D10*
%TO.C,SW53*%
X170180000Y-149225000D03*
X160020000Y-149225000D03*
D11*
X165100000Y-149225000D03*
D12*
X161290000Y-146685000D03*
X167640000Y-144145000D03*
%TD*%
D10*
%TO.C,SW54*%
X189230000Y-149225000D03*
X179070000Y-149225000D03*
D11*
X184150000Y-149225000D03*
D12*
X180340000Y-146685000D03*
X186690000Y-144145000D03*
%TD*%
D10*
%TO.C,SW55*%
X208280000Y-149225000D03*
D11*
X203200000Y-149225000D03*
D10*
X198120000Y-149225000D03*
D12*
X199390000Y-146685000D03*
X205740000Y-144145000D03*
%TD*%
D10*
%TO.C,SW56*%
X227330000Y-149225000D03*
D11*
X222250000Y-149225000D03*
D10*
X217170000Y-149225000D03*
D12*
X218440000Y-146685000D03*
X224790000Y-144145000D03*
%TD*%
D10*
%TO.C,SW57*%
X246380000Y-149225000D03*
X236220000Y-149225000D03*
D11*
X241300000Y-149225000D03*
D12*
X237490000Y-146685000D03*
X243840000Y-144145000D03*
%TD*%
D10*
%TO.C,SW58*%
X265430000Y-149225000D03*
D11*
X260350000Y-149225000D03*
D10*
X255270000Y-149225000D03*
D12*
X256540000Y-146685000D03*
X262890000Y-144145000D03*
%TD*%
D10*
%TO.C,SW59*%
X274320000Y-149225000D03*
D11*
X279400000Y-149225000D03*
D10*
X284480000Y-149225000D03*
D12*
X275590000Y-146685000D03*
X281940000Y-144145000D03*
%TD*%
D10*
%TO.C,SW60*%
X300513750Y-149225000D03*
X310673750Y-149225000D03*
D11*
X305593750Y-149225000D03*
D12*
X301783750Y-146685000D03*
X308133750Y-144145000D03*
%TD*%
D14*
%TO.C,SW61*%
X303212500Y-142240000D03*
D10*
X320198750Y-149225000D03*
D11*
X303212500Y-157480000D03*
D10*
X310038750Y-149225000D03*
D11*
X327025000Y-157480000D03*
X315118750Y-149225000D03*
D14*
X327025000Y-142240000D03*
D12*
X311308750Y-146685000D03*
X317658750Y-144145000D03*
%TD*%
D11*
%TO.C,SW62*%
X331787500Y-149225000D03*
D10*
X326707500Y-149225000D03*
X336867500Y-149225000D03*
D12*
X327977500Y-146685000D03*
X334327500Y-144145000D03*
%TD*%
D11*
%TO.C,SW63*%
X69850000Y-168275000D03*
D10*
X64770000Y-168275000D03*
X74930000Y-168275000D03*
D12*
X66040000Y-165735000D03*
X72390000Y-163195000D03*
%TD*%
D10*
%TO.C,SW64*%
X98742500Y-168275000D03*
X88582500Y-168275000D03*
D11*
X93662500Y-168275000D03*
D12*
X89852500Y-165735000D03*
X96202500Y-163195000D03*
%TD*%
D11*
%TO.C,SW65*%
X117475000Y-168275000D03*
D10*
X112395000Y-168275000D03*
X122555000Y-168275000D03*
D12*
X113665000Y-165735000D03*
X120015000Y-163195000D03*
%TD*%
D11*
%TO.C,SW67*%
X279400000Y-168275000D03*
D10*
X274320000Y-168275000D03*
X284480000Y-168275000D03*
D12*
X275590000Y-165735000D03*
X281940000Y-163195000D03*
%TD*%
D10*
%TO.C,SW68*%
X298132500Y-168275000D03*
X308292500Y-168275000D03*
D11*
X303212500Y-168275000D03*
D12*
X299402500Y-165735000D03*
X305752500Y-163195000D03*
%TD*%
D10*
%TO.C,SW69*%
X332105000Y-168275000D03*
X321945000Y-168275000D03*
D11*
X327025000Y-168275000D03*
D12*
X323215000Y-165735000D03*
X329565000Y-163195000D03*
%TD*%
D10*
%TO.C,SW2*%
X89217500Y-92075000D03*
X79057500Y-92075000D03*
D11*
X84137500Y-92075000D03*
D12*
X80327500Y-89535000D03*
X86677500Y-86995000D03*
%TD*%
D10*
%TO.C,SW18*%
X88582500Y-111125000D03*
X98742500Y-111125000D03*
D11*
X93662500Y-111125000D03*
D12*
X89852500Y-108585000D03*
X96202500Y-106045000D03*
%TD*%
D11*
%TO.C,SW32*%
X72231250Y-130175000D03*
D10*
X67151250Y-130175000D03*
X77311250Y-130175000D03*
D12*
X68421250Y-127635000D03*
X74771250Y-125095000D03*
%TD*%
D14*
%TO.C,SW66*%
X255587500Y-175260000D03*
X141287500Y-175260000D03*
D15*
X255587500Y-160020000D03*
D11*
X198437500Y-168275000D03*
D10*
X193357500Y-168275000D03*
X203517500Y-168275000D03*
D11*
X141287500Y-160020000D03*
D12*
X194627500Y-165735000D03*
X200977500Y-163195000D03*
%TD*%
D14*
%TO.C,SW45*%
X307975000Y-123190000D03*
D10*
X324961250Y-130175000D03*
X314801250Y-130175000D03*
D11*
X319881250Y-130175000D03*
D14*
X331787500Y-123190000D03*
D11*
X307975000Y-138430000D03*
X331787500Y-138430000D03*
D12*
X316071250Y-127635000D03*
X322421250Y-125095000D03*
%TD*%
D11*
%TO.C,SW31*%
X67468750Y-130175000D03*
D10*
X72548750Y-130175000D03*
X62388750Y-130175000D03*
D12*
X63658750Y-127635000D03*
X70008750Y-125095000D03*
%TD*%
D11*
%TO.C,SW15*%
X322262500Y-92075000D03*
D14*
X334168750Y-85090000D03*
X310356250Y-85090000D03*
D10*
X317182500Y-92075000D03*
X327342500Y-92075000D03*
D11*
X334168750Y-100330000D03*
X310356250Y-100330000D03*
D12*
X318452500Y-89535000D03*
X324802500Y-86995000D03*
%TD*%
D10*
%TO.C,SW33*%
X93345000Y-130175000D03*
X103505000Y-130175000D03*
D11*
X98425000Y-130175000D03*
D12*
X94615000Y-127635000D03*
X100965000Y-125095000D03*
%TD*%
D10*
%TO.C,SW17*%
X74930000Y-111125000D03*
X64770000Y-111125000D03*
D11*
X69850000Y-111125000D03*
D12*
X66040000Y-108585000D03*
X72390000Y-106045000D03*
%TD*%
D14*
%TO.C,SW46*%
X336391250Y-132588000D03*
D11*
X321151250Y-132556250D03*
D14*
X336391250Y-108712000D03*
D10*
X324326250Y-120650000D03*
X334486250Y-120650000D03*
D15*
X329406250Y-120650000D03*
D11*
X321151250Y-108743750D03*
D12*
X325596250Y-118110000D03*
X331946250Y-115570000D03*
%TD*%
D16*
%TO.C,J2*%
X78882240Y-136357360D03*
D17*
X78882240Y-138897360D03*
X81422240Y-136484360D03*
X81422240Y-139024360D03*
X83962240Y-136357360D03*
X83962240Y-138897360D03*
%TD*%
M02*
