%TF.GenerationSoftware,KiCad,Pcbnew,(5.99.0-10161-g3a96736b1f)*%
%TF.CreationDate,2021-04-25T14:13:02+03:00*%
%TF.ProjectId,Monoflex60,4d6f6e6f-666c-4657-9836-302e6b696361,rev?*%
%TF.SameCoordinates,Original*%
%TF.FileFunction,Legend,Bot*%
%TF.FilePolarity,Positive*%
%FSLAX46Y46*%
G04 Gerber Fmt 4.6, Leading zero omitted, Abs format (unit mm)*
G04 Created by KiCad (PCBNEW (5.99.0-10161-g3a96736b1f)) date 2021-04-25 14:13:02*
%MOMM*%
%LPD*%
G01*
G04 APERTURE LIST*
%ADD10C,0.200000*%
G04 APERTURE END LIST*
D10*
%TO.C,D34*%
X315118750Y-168675000D02*
X314718750Y-167875000D01*
X315118750Y-167875000D02*
X315518750Y-167875000D01*
X314718750Y-167875000D02*
X315118750Y-167875000D01*
X315518750Y-167875000D02*
X315118750Y-168675000D01*
%TO.C,U1*%
X80363220Y-124289160D02*
G75*
G03*
X80363220Y-124289160I-100000J0D01*
G01*
%TO.C,D22*%
X84925000Y-131075480D02*
X85325000Y-131075480D01*
X85725000Y-131075480D02*
X85325000Y-131875480D01*
X85325000Y-131875480D02*
X84925000Y-131075480D01*
X85325000Y-131075480D02*
X85725000Y-131075480D01*
%TO.C,D8*%
X339260180Y-91675000D02*
X339660180Y-91675000D01*
X338860180Y-91675000D02*
X339260180Y-91675000D01*
X339260180Y-92475000D02*
X338860180Y-91675000D01*
X339660180Y-91675000D02*
X339260180Y-92475000D01*
%TO.C,D30*%
X81756250Y-168675000D02*
X81356250Y-167875000D01*
X82156250Y-167875000D02*
X81756250Y-168675000D01*
X81356250Y-167875000D02*
X81756250Y-167875000D01*
X81756250Y-167875000D02*
X82156250Y-167875000D01*
%TO.C,D32*%
X205930500Y-167875000D02*
X206330500Y-167875000D01*
X206330500Y-167875000D02*
X205930500Y-168675000D01*
X205530500Y-167875000D02*
X205930500Y-167875000D01*
X205930500Y-168675000D02*
X205530500Y-167875000D01*
%TD*%
M02*
