  0
SECTION
  2
HEADER
  9
$ACADVER
  1
AC1027
  9
$ACADMAINTVER
 70
   105
  9
$DWGCODEPAGE
  3
ANSI_1252
  9
$LASTSAVEDBY
  1
ilya
  9
$REQUIREDVERSIONS
160
                 0
  9
$INSBASE
 10
0.0
 20
0.0
 30
0.0
  9
$EXTMIN
 10
-7.171572875260248
 20
-102.4219976099055
 30
0.0
  9
$EXTMAX
 10
292.9215737128691
 20
7.171991687195449
 30
0.0
  9
$LIMMIN
 10
0.0
 20
0.0
  9
$LIMMAX
 10
12.0
 20
9.0
  9
$ORTHOMODE
 70
     0
  9
$REGENMODE
 70
     1
  9
$FILLMODE
 70
     1
  9
$QTEXTMODE
 70
     0
  9
$MIRRTEXT
 70
     1
  9
$LTSCALE
 40
1.0
  9
$ATTMODE
 70
     1
  9
$TEXTSIZE
 40
0.2
  9
$TRACEWID
 40
0.05
  9
$TEXTSTYLE
  7
Standard
  9
$CLAYER
  8
0
  9
$CELTYPE
  6
ByLayer
  9
$CECOLOR
 62
   256
  9
$CELTSCALE
 40
1.0
  9
$DISPSILH
 70
     0
  9
$DIMSCALE
 40
1.0
  9
$DIMASZ
 40
0.18
  9
$DIMEXO
 40
0.0625
  9
$DIMDLI
 40
0.38
  9
$DIMRND
 40
0.0
  9
$DIMDLE
 40
0.0
  9
$DIMEXE
 40
0.18
  9
$DIMTP
 40
0.0
  9
$DIMTM
 40
0.0
  9
$DIMTXT
 40
0.18
  9
$DIMCEN
 40
0.09
  9
$DIMTSZ
 40
0.0
  9
$DIMTOL
 70
     0
  9
$DIMLIM
 70
     0
  9
$DIMTIH
 70
     1
  9
$DIMTOH
 70
     1
  9
$DIMSE1
 70
     0
  9
$DIMSE2
 70
     0
  9
$DIMTAD
 70
     0
  9
$DIMZIN
 70
     0
  9
$DIMBLK
  1

  9
$DIMASO
 70
     1
  9
$DIMSHO
 70
     1
  9
$DIMPOST
  1

  9
$DIMAPOST
  1

  9
$DIMALT
 70
     0
  9
$DIMALTD
 70
     2
  9
$DIMALTF
 40
25.4
  9
$DIMLFAC
 40
1.0
  9
$DIMTOFL
 70
     0
  9
$DIMTVP
 40
0.0
  9
$DIMTIX
 70
     0
  9
$DIMSOXD
 70
     0
  9
$DIMSAH
 70
     0
  9
$DIMBLK1
  1

  9
$DIMBLK2
  1

  9
$DIMSTYLE
  2
Standard
  9
$DIMCLRD
 70
    18
  9
$DIMCLRE
 70
    18
  9
$DIMCLRT
 70
    18
  9
$DIMTFAC
 40
1.0
  9
$DIMGAP
 40
0.09
  9
$DIMJUST
 70
     0
  9
$DIMSD1
 70
     0
  9
$DIMSD2
 70
     0
  9
$DIMTOLJ
 70
     1
  9
$DIMTZIN
 70
     0
  9
$DIMALTZ
 70
     0
  9
$DIMALTTZ
 70
     0
  9
$DIMUPT
 70
     0
  9
$DIMDEC
 70
     4
  9
$DIMTDEC
 70
     4
  9
$DIMALTU
 70
     2
  9
$DIMALTTD
 70
     2
  9
$DIMTXSTY
  7
Standard
  9
$DIMAUNIT
 70
     0
  9
$DIMADEC
 70
     0
  9
$DIMALTRND
 40
0.0
  9
$DIMAZIN
 70
     0
  9
$DIMDSEP
 70
    46
  9
$DIMATFIT
 70
     3
  9
$DIMFRAC
 70
     0
  9
$DIMLDRBLK
  1

  9
$DIMLUNIT
 70
     2
  9
$DIMLWD
 70
    -2
  9
$DIMLWE
 70
    -2
  9
$DIMTMOVE
 70
     0
  9
$DIMFXL
 40
1.0
  9
$DIMFXLON
 70
     0
  9
$DIMJOGANG
 40
0.7853981633974483
  9
$DIMTFILL
 70
     0
  9
$DIMTFILLCLR
 70
     0
  9
$DIMARCSYM
 70
     0
  9
$DIMLTYPE
  6

  9
$DIMLTEX1
  6

  9
$DIMLTEX2
  6

  9
$DIMTXTDIRECTION
 70
     0
  9
$LUNITS
 70
     2
  9
$LUPREC
 70
     4
  9
$SKETCHINC
 40
0.1
  9
$FILLETRAD
 40
0.5
  9
$AUNITS
 70
     0
  9
$AUPREC
 70
     0
  9
$MENU
  1
.
  9
$ELEVATION
 40
0.0
  9
$PELEVATION
 40
0.0
  9
$THICKNESS
 40
0.0
  9
$LIMCHECK
 70
     0
  9
$CHAMFERA
 40
0.0
  9
$CHAMFERB
 40
0.0
  9
$CHAMFERC
 40
0.0
  9
$CHAMFERD
 40
0.0
  9
$SKPOLY
 70
     0
  9
$TDCREATE
 40
2459229.863557731
  9
$TDUCREATE
 40
2459229.738557731
  9
$TDUPDATE
 40
2459229.863557755
  9
$TDUUPDATE
 40
2459229.738557755
  9
$TDINDWG
 40
0.0000000116
  9
$TDUSRTIMER
 40
0.0000000116
  9
$USRTIMER
 70
     1
  9
$ANGBASE
 50
0.0
  9
$ANGDIR
 70
     0
  9
$PDMODE
 70
     0
  9
$PDSIZE
 40
0.0
  9
$PLINEWID
 40
0.0
  9
$SPLFRAME
 70
     0
  9
$SPLINETYPE
 70
     6
  9
$SPLINESEGS
 70
     8
  9
$HANDSEED
  5
10412
  9
$SURFTAB1
 70
     6
  9
$SURFTAB2
 70
     6
  9
$SURFTYPE
 70
     6
  9
$SURFU
 70
     6
  9
$SURFV
 70
     6
  9
$UCSBASE
  2

  9
$UCSNAME
  2

  9
$UCSORG
 10
0.0
 20
0.0
 30
0.0
  9
$UCSXDIR
 10
1.0
 20
0.0
 30
0.0
  9
$UCSYDIR
 10
0.0
 20
1.0
 30
0.0
  9
$UCSORTHOREF
  2

  9
$UCSORTHOVIEW
 70
     0
  9
$UCSORGTOP
 10
0.0
 20
0.0
 30
0.0
  9
$UCSORGBOTTOM
 10
0.0
 20
0.0
 30
0.0
  9
$UCSORGLEFT
 10
0.0
 20
0.0
 30
0.0
  9
$UCSORGRIGHT
 10
0.0
 20
0.0
 30
0.0
  9
$UCSORGFRONT
 10
0.0
 20
0.0
 30
0.0
  9
$UCSORGBACK
 10
0.0
 20
0.0
 30
0.0
  9
$PUCSBASE
  2

  9
$PUCSNAME
  2

  9
$PUCSORG
 10
0.0
 20
0.0
 30
0.0
  9
$PUCSXDIR
 10
1.0
 20
0.0
 30
0.0
  9
$PUCSYDIR
 10
0.0
 20
1.0
 30
0.0
  9
$PUCSORTHOREF
  2

  9
$PUCSORTHOVIEW
 70
     0
  9
$PUCSORGTOP
 10
0.0
 20
0.0
 30
0.0
  9
$PUCSORGBOTTOM
 10
0.0
 20
0.0
 30
0.0
  9
$PUCSORGLEFT
 10
0.0
 20
0.0
 30
0.0
  9
$PUCSORGRIGHT
 10
0.0
 20
0.0
 30
0.0
  9
$PUCSORGFRONT
 10
0.0
 20
0.0
 30
0.0
  9
$PUCSORGBACK
 10
0.0
 20
0.0
 30
0.0
  9
$USERI1
 70
     0
  9
$USERI2
 70
     0
  9
$USERI3
 70
     0
  9
$USERI4
 70
     0
  9
$USERI5
 70
     0
  9
$USERR1
 40
0.0
  9
$USERR2
 40
0.0
  9
$USERR3
 40
0.0
  9
$USERR4
 40
0.0
  9
$USERR5
 40
0.0
  9
$WORLDVIEW
 70
     1
  9
$SHADEDGE
 70
     3
  9
$SHADEDIF
 70
    70
  9
$TILEMODE
 70
     1
  9
$MAXACTVP
 70
    64
  9
$PINSBASE
 10
0.0
 20
0.0
 30
0.0
  9
$PLIMCHECK
 70
     0
  9
$PEXTMIN
 10
1.000000000000000E+20
 20
1.000000000000000E+20
 30
1.000000000000000E+20
  9
$PEXTMAX
 10
-1.000000000000000E+20
 20
-1.000000000000000E+20
 30
-1.000000000000000E+20
  9
$PLIMMIN
 10
-0.25
 20
-0.25
  9
$PLIMMAX
 10
10.75
 20
8.25
  9
$UNITMODE
 70
     0
  9
$VISRETAIN
 70
     1
  9
$PLINEGEN
 70
     0
  9
$PSLTSCALE
 70
     1
  9
$TREEDEPTH
 70
  3020
  9
$CMLSTYLE
  2
Standard
  9
$CMLJUST
 70
     0
  9
$CMLSCALE
 40
1.0
  9
$PROXYGRAPHICS
 70
     1
  9
$MEASUREMENT
 70
     0
  9
$CELWEIGHT
370
    -1
  9
$ENDCAPS
280
     0
  9
$JOINSTYLE
280
     0
  9
$LWDISPLAY
290
     0
  9
$INSUNITS
 70
     4
  9
$HYPERLINKBASE
  1

  9
$STYLESHEET
  1

  9
$XEDIT
290
     1
  9
$CEPSNTYPE
380
     0
  9
$PSTYLEMODE
290
     1
  9
$FINGERPRINTGUID
  2
{147e16d9-7fee-493a-9e5d-89552abd4d9a}
  9
$VERSIONGUID
  2
{FAEB1C32-E019-11D5-929B-00C0DF256EC4}
  9
$EXTNAMES
290
     1
  9
$PSVPSCALE
 40
0.0
  9
$OLESTARTUP
290
     0
  9
$SORTENTS
280
   127
  9
$INDEXCTL
280
     0
  9
$HIDETEXT
280
     1
  9
$XCLIPFRAME
280
     2
  9
$HALOGAP
280
     0
  9
$OBSCOLOR
 70
   257
  9
$OBSLTYPE
280
     0
  9
$INTERSECTIONDISPLAY
280
     0
  9
$INTERSECTIONCOLOR
 70
   257
  9
$DIMASSOC
280
     2
  9
$PROJECTNAME
  1

  9
$CAMERADISPLAY
290
     0
  9
$LENSLENGTH
 40
50.0
  9
$CAMERAHEIGHT
 40
0.0
  9
$STEPSPERSEC
 40
2.0
  9
$STEPSIZE
 40
6.0
  9
$3DDWFPREC
 40
2.0
  9
$PSOLWIDTH
 40
0.25
  9
$PSOLHEIGHT
 40
4.0
  9
$LOFTANG1
 40
1.570796326794897
  9
$LOFTANG2
 40
1.570796326794897
  9
$LOFTMAG1
 40
0.0
  9
$LOFTMAG2
 40
0.0
  9
$LOFTPARAM
 70
     7
  9
$LOFTNORMALS
280
     1
  9
$LATITUDE
 40
37.795
  9
$LONGITUDE
 40
-122.394
  9
$NORTHDIRECTION
 40
0.0
  9
$TIMEZONE
 70
 -8000
  9
$LIGHTGLYPHDISPLAY
280
     1
  9
$TILEMODELIGHTSYNCH
280
     1
  9
$CMATERIAL
347
10364
  9
$SOLIDHIST
280
     0
  9
$SHOWHIST
280
     1
  9
$DWFFRAME
280
     2
  9
$DGNFRAME
280
     2
  9
$REALWORLDSCALE
290
     1
  9
$INTERFERECOLOR
 62
   256
  9
$CSHADOW
280
     0
  9
$SHADOWPLANELOCATION
 40
0.0
  0
ENDSEC
  0
SECTION
  2
CLASSES
  0
CLASS
  1
ACDBDICTIONARYWDFLT
  2
AcDbDictionaryWithDefault
  3
ObjectDBX Classes
 90
        0
 91
        3
280
     0
281
     0
  0
CLASS
  1
VISUALSTYLE
  2
AcDbVisualStyle
  3
ObjectDBX Classes
 90
     4095
 91
        3
280
     0
281
     0
  0
CLASS
  1
MATERIAL
  2
AcDbMaterial
  3
ObjectDBX Classes
 90
     1153
 91
        3
280
     0
281
     0
  0
CLASS
  1
SCALE
  2
AcDbScale
  3
ObjectDBX Classes
 90
     1153
 91
        3
280
     0
281
     0
  0
CLASS
  1
TABLESTYLE
  2
AcDbTableStyle
  3
ObjectDBX Classes
 90
     4095
 91
        3
280
     0
281
     0
  0
CLASS
  1
MLEADERSTYLE
  2
AcDbMLeaderStyle
  3
ACDB_MLEADERSTYLE_CLASS
 90
     4095
 91
        3
280
     0
281
     0
  0
CLASS
  1
SUN
  2
AcDbSun
  3
SCENEOE
 90
     1153
 91
        3
280
     0
281
     0
  0
CLASS
  1
DICTIONARYVAR
  2
AcDbDictionaryVar
  3
ObjectDBX Classes
 90
        0
 91
        3
280
     0
281
     0
  0
CLASS
  1
CELLSTYLEMAP
  2
AcDbCellStyleMap
  3
ObjectDBX Classes
 90
     1152
 91
        3
280
     0
281
     0
  0
ENDSEC
  0
SECTION
  2
TABLES
  0
TABLE
  2
VPORT
  5
10329
330
0
100
AcDbSymbolTable
 70
     1
  0
VPORT
  5
10349
330
10329
100
AcDbSymbolTableRecord
100
AcDbViewportTableRecord
  2
*Active
 70
     0
 10
0.0
 20
0.0
 11
1.0
 21
1.0
 12
145.1637229164488
 22
-46.3269199324496
 13
0.0
 23
0.0
 14
0.5
 24
0.5
 15
0.5
 25
0.5
 16
0.0
 26
0.0
 36
1.0
 17
0.0
 27
0.0
 37
0.0
 40
178.313962620039
 41
1.750663129973475
 42
50.0
 43
0.0
 44
0.0
 50
0.0
 51
0.0
 71
     0
 72
   100
 73
     1
 74
     3
 75
     0
 76
     0
 77
     0
 78
     0
281
     0
 65
     1
110
0.0
120
0.0
130
0.0
111
1.0
121
0.0
131
0.0
112
0.0
122
1.0
132
0.0
 79
     0
146
0.0
348
1034F
 60
     3
 61
     5
292
     1
282
     1
141
0.0
142
0.0
 63
   250
361
1038D
  0
ENDTAB
  0
TABLE
  2
LTYPE
  5
10326
330
0
100
AcDbSymbolTable
 70
    48
  0
LTYPE
  5
10334
330
10326
100
AcDbSymbolTableRecord
100
AcDbLinetypeTableRecord
  2
ByBlock
 70
     0
  3

 72
    65
 73
     0
 40
0.0
  0
LTYPE
  5
10335
330
10326
100
AcDbSymbolTableRecord
100
AcDbLinetypeTableRecord
  2
ByLayer
 70
     0
  3

 72
    65
 73
     0
 40
0.0
  0
LTYPE
  5
10336
330
10326
100
AcDbSymbolTableRecord
100
AcDbLinetypeTableRecord
  2
Continuous
 70
     0
  3
Solid line
 72
    65
 73
     0
 40
0.0
  0
LTYPE
  5
103CD
330
10326
100
AcDbSymbolTableRecord
100
AcDbLinetypeTableRecord
  2
PHANTOM2
 70
     0
  3
Phantom (.5x) ___ _ _ ___ _ _ ___ _ _ ___ _ _
 72
    65
 73
     6
 40
31.75
 49
15.875
 74
     0
 49
-3.175
 74
     0
 49
3.175
 74
     0
 49
-3.175
 74
     0
 49
3.175
 74
     0
 49
-3.175
 74
     0
  0
LTYPE
  5
103CE
330
10326
100
AcDbSymbolTableRecord
100
AcDbLinetypeTableRecord
  2
PHANTOM
 70
     0
  3
Phantom ______  __  __  ______  __  __  ______ 
 72
    65
 73
     6
 40
63.50000000000001
 49
31.75
 74
     0
 49
-6.35
 74
     0
 49
6.35
 74
     0
 49
-6.35
 74
     0
 49
6.35
 74
     0
 49
-6.35
 74
     0
  0
LTYPE
  5
103D0
330
10326
100
AcDbSymbolTableRecord
100
AcDbLinetypeTableRecord
  2
HOT_WATER_SUPPLY
 70
     0
  3
Hot water supply ---- HW ---- HW ---- HW ----
 72
    65
 73
     3
 40
22.86
 49
12.7
 74
     0
 49
-5.08
 74
     2
 75
     0
340
103CF
 46
2.54
 50
0.0
 44
-2.54
 45
-1.27
  9
HW
 49
-5.08
 74
     0
  0
LTYPE
  5
103D1
330
10326
100
AcDbSymbolTableRecord
100
AcDbLinetypeTableRecord
  2
HIDDENX2
 70
     0
  3
Hidden (2x) ____ ____ ____ ____ ____ ____ ____ 
 72
    65
 73
     2
 40
19.05
 49
12.7
 74
     0
 49
-6.35
 74
     0
  0
LTYPE
  5
103D4
330
10326
100
AcDbSymbolTableRecord
100
AcDbLinetypeTableRecord
  2
ZIGZAG
 70
     0
  3
Zig zag /\/\/\/\/\/\/\/\/\/\/\/\/\/\/\/\/\/\/\/\/\/\/\/
 72
    65
 73
     4
 40
20.32254
 49
0.00254
 74
     0
 49
-5.08
 74
     2
 75
     0
340
103D2
 46
5.08
 50
0.0
 44
-5.08
 45
0.0
  9
ZIG
 49
-10.16
 74
     2
 75
     0
340
103D3
 46
5.08
 50
180.0
 44
5.08
 45
0.0
  9
ZIG
 49
-5.08
 74
     0
  0
LTYPE
  5
103D6
330
10326
100
AcDbSymbolTableRecord
100
AcDbLinetypeTableRecord
  2
TRACKS
 70
     0
  3
Tracks -|-|-|-|-|-|-|-|-|-|-|-|-|-|-|-|-|-|-|-|-|-|-|-|-
 72
    65
 73
     2
 40
7.62
 49
3.81
 74
     2
 75
     0
340
103D5
 46
6.35
 50
0.0
 44
0.0
 45
0.0
  9
TRACK1
 49
3.81
 74
     0
  0
LTYPE
  5
103D7
330
10326
100
AcDbSymbolTableRecord
100
AcDbLinetypeTableRecord
  2
PHANTOMX2
 70
     0
  3
Phantom (2x) ____________    ____    ____   _
 72
    65
 73
     6
 40
127.0
 49
63.5
 74
     0
 49
-12.7
 74
     0
 49
12.7
 74
     0
 49
-12.7
 74
     0
 49
12.7
 74
     0
 49
-12.7
 74
     0
  0
LTYPE
  5
103D8
330
10326
100
AcDbSymbolTableRecord
100
AcDbLinetypeTableRecord
  2
ACAD_ISO05W100
 70
     0
  3
ISO long-dash double-dot ____ .. ____ .. ____ . 
 72
    65
 73
     6
 40
33.0
 49
24.0
 74
     0
 49
-3.0
 74
     0
 49
0.0
 74
     0
 49
-3.0
 74
     0
 49
0.0
 74
     0
 49
-3.0
 74
     0
  0
LTYPE
  5
103D9
330
10326
100
AcDbSymbolTableRecord
100
AcDbLinetypeTableRecord
  2
ACAD_ISO04W100
 70
     0
  3
ISO long-dash dot ____ . ____ . ____ . ____ . _
 72
    65
 73
     4
 40
30.0
 49
24.0
 74
     0
 49
-3.0
 74
     0
 49
0.0
 74
     0
 49
-3.0
 74
     0
  0
LTYPE
  5
103DA
330
10326
100
AcDbSymbolTableRecord
100
AcDbLinetypeTableRecord
  2
ACAD_ISO03W100
 70
     0
  3
ISO dash space __    __    __    __    __    __
 72
    65
 73
     2
 40
30.0
 49
12.0
 74
     0
 49
-18.0
 74
     0
  0
LTYPE
  5
103DB
330
10326
100
AcDbSymbolTableRecord
100
AcDbLinetypeTableRecord
  2
ACAD_ISO02W100
 70
     0
  3
ISO dash __ __ __ __ __ __ __ __ __ __ __ __ __
 72
    65
 73
     2
 40
15.0
 49
12.0
 74
     0
 49
-3.0
 74
     0
  0
LTYPE
  5
103DC
330
10326
100
AcDbSymbolTableRecord
100
AcDbLinetypeTableRecord
  2
ACAD_ISO09W100
 70
     0
  3
ISO long-dash double-short-dash ____ __ __ ____
 72
    65
 73
     6
 40
45.0
 49
24.0
 74
     0
 49
-3.0
 74
     0
 49
6.0
 74
     0
 49
-3.0
 74
     0
 49
6.0
 74
     0
 49
-3.0
 74
     0
  0
LTYPE
  5
103DD
330
10326
100
AcDbSymbolTableRecord
100
AcDbLinetypeTableRecord
  2
ACAD_ISO08W100
 70
     0
  3
ISO long-dash short-dash ____ __ ____ __ ____ _
 72
    65
 73
     4
 40
36.0
 49
24.0
 74
     0
 49
-3.0
 74
     0
 49
6.0
 74
     0
 49
-3.0
 74
     0
  0
LTYPE
  5
103DE
330
10326
100
AcDbSymbolTableRecord
100
AcDbLinetypeTableRecord
  2
ACAD_ISO07W100
 70
     0
  3
ISO dot . . . . . . . . . . . . . . . . . . . . 
 72
    65
 73
     2
 40
3.0
 49
0.0
 74
     0
 49
-3.0
 74
     0
  0
LTYPE
  5
103DF
330
10326
100
AcDbSymbolTableRecord
100
AcDbLinetypeTableRecord
  2
ACAD_ISO06W100
 70
     0
  3
ISO long-dash triple-dot ____ ... ____ ... ____
 72
    65
 73
     8
 40
36.0
 49
24.0
 74
     0
 49
-3.0
 74
     0
 49
0.0
 74
     0
 49
-3.0
 74
     0
 49
0.0
 74
     0
 49
-3.0
 74
     0
 49
0.0
 74
     0
 49
-3.0
 74
     0
  0
LTYPE
  5
103E0
330
10326
100
AcDbSymbolTableRecord
100
AcDbLinetypeTableRecord
  2
CENTER2
 70
     0
  3
Center (.5x) ___ _ ___ _ ___ _ ___ _ ___ _ ___
 72
    65
 73
     4
 40
28.575
 49
19.05
 74
     0
 49
-3.175
 74
     0
 49
3.175
 74
     0
 49
-3.175
 74
     0
  0
LTYPE
  5
103E1
330
10326
100
AcDbSymbolTableRecord
100
AcDbLinetypeTableRecord
  2
CENTER
 70
     0
  3
Center ____ _ ____ _ ____ _ ____ _ ____ _ ____
 72
    65
 73
     4
 40
50.8
 49
31.75
 74
     0
 49
-6.35
 74
     0
 49
6.35
 74
     0
 49
-6.35
 74
     0
  0
LTYPE
  5
103E2
330
10326
100
AcDbSymbolTableRecord
100
AcDbLinetypeTableRecord
  2
BORDERX2
 70
     0
  3
Border (2x) ____  ____  .  ____  ____  .  ___
 72
    65
 73
     6
 40
88.89999999999999
 49
25.4
 74
     0
 49
-12.7
 74
     0
 49
25.4
 74
     0
 49
-12.7
 74
     0
 49
0.0
 74
     0
 49
-12.7
 74
     0
  0
LTYPE
  5
103E3
330
10326
100
AcDbSymbolTableRecord
100
AcDbLinetypeTableRecord
  2
BORDER2
 70
     0
  3
Border (.5x) __.__.__.__.__.__.__.__.__.__.__.
 72
    65
 73
     6
 40
22.225
 49
6.35
 74
     0
 49
-3.175
 74
     0
 49
6.35
 74
     0
 49
-3.175
 74
     0
 49
0.0
 74
     0
 49
-3.175
 74
     0
  0
LTYPE
  5
103E4
330
10326
100
AcDbSymbolTableRecord
100
AcDbLinetypeTableRecord
  2
DASHDOTX2
 70
     0
  3
Dash dot (2x) ____  .  ____  .  ____  .  ___
 72
    65
 73
     4
 40
50.8
 49
25.4
 74
     0
 49
-12.7
 74
     0
 49
0.0
 74
     0
 49
-12.7
 74
     0
  0
LTYPE
  5
103E5
330
10326
100
AcDbSymbolTableRecord
100
AcDbLinetypeTableRecord
  2
DASHDOT2
 70
     0
  3
Dash dot (.5x) _._._._._._._._._._._._._._._.
 72
    65
 73
     4
 40
12.7
 49
6.35
 74
     0
 49
-3.175
 74
     0
 49
0.0
 74
     0
 49
-3.175
 74
     0
  0
LTYPE
  5
103E6
330
10326
100
AcDbSymbolTableRecord
100
AcDbLinetypeTableRecord
  2
DASHDOT
 70
     0
  3
Dash dot __ . __ . __ . __ . __ . __ . __ . __
 72
    65
 73
     4
 40
25.4
 49
12.7
 74
     0
 49
-6.35
 74
     0
 49
0.0
 74
     0
 49
-6.35
 74
     0
  0
LTYPE
  5
103E7
330
10326
100
AcDbSymbolTableRecord
100
AcDbLinetypeTableRecord
  2
CENTERX2
 70
     0
  3
Center (2x) ________  __  ________  __  _____
 72
    65
 73
     4
 40
101.6
 49
63.5
 74
     0
 49
-12.7
 74
     0
 49
12.7
 74
     0
 49
-12.7
 74
     0
  0
LTYPE
  5
103E8
330
10326
100
AcDbSymbolTableRecord
100
AcDbLinetypeTableRecord
  2
ACAD_ISO13W100
 70
     0
  3
ISO double-dash double-dot __ __ . . __ __ . . _
 72
    65
 73
     8
 40
36.0
 49
12.0
 74
     0
 49
-3.0
 74
     0
 49
12.0
 74
     0
 49
-3.0
 74
     0
 49
0.0
 74
     0
 49
-3.0
 74
     0
 49
0.0
 74
     0
 49
-3.0
 74
     0
  0
LTYPE
  5
103E9
330
10326
100
AcDbSymbolTableRecord
100
AcDbLinetypeTableRecord
  2
ACAD_ISO12W100
 70
     0
  3
ISO dash double-dot __ . . __ . . __ . . __ . . 
 72
    65
 73
     6
 40
21.0
 49
12.0
 74
     0
 49
-3.0
 74
     0
 49
0.0
 74
     0
 49
-3.0
 74
     0
 49
0.0
 74
     0
 49
-3.0
 74
     0
  0
LTYPE
  5
103EA
330
10326
100
AcDbSymbolTableRecord
100
AcDbLinetypeTableRecord
  2
ACAD_ISO11W100
 70
     0
  3
ISO double-dash dot __ __ . __ __ . __ __ . __ _
 72
    65
 73
     6
 40
33.0
 49
12.0
 74
     0
 49
-3.0
 74
     0
 49
12.0
 74
     0
 49
-3.0
 74
     0
 49
0.0
 74
     0
 49
-3.0
 74
     0
  0
LTYPE
  5
103EB
330
10326
100
AcDbSymbolTableRecord
100
AcDbLinetypeTableRecord
  2
ACAD_ISO10W100
 70
     0
  3
ISO dash dot __ . __ . __ . __ . __ . __ . __ . 
 72
    65
 73
     4
 40
18.0
 49
12.0
 74
     0
 49
-3.0
 74
     0
 49
0.0
 74
     0
 49
-3.0
 74
     0
  0
LTYPE
  5
103EC
330
10326
100
AcDbSymbolTableRecord
100
AcDbLinetypeTableRecord
  2
BORDER
 70
     0
  3
Border __ __ . __ __ . __ __ . __ __ . __ __ .
 72
    65
 73
     6
 40
44.45
 49
12.7
 74
     0
 49
-6.35
 74
     0
 49
12.7
 74
     0
 49
-6.35
 74
     0
 49
0.0
 74
     0
 49
-6.35
 74
     0
  0
LTYPE
  5
103EF
330
10326
100
AcDbSymbolTableRecord
100
AcDbLinetypeTableRecord
  2
BATTING
 70
     0
  3
Batting SSSSSSSSSSSSSSSSSSSSSSSSSSSSSSSSSSSSSSSSSSSSSSS
 72
    65
 73
     4
 40
10.16254
 49
0.00254
 74
     0
 49
-2.54
 74
     2
 75
     0
340
103ED
 46
2.54
 50
0.0
 44
-2.54
 45
0.0
  9
BAT
 49
-5.08
 74
     2
 75
     0
340
103EE
 46
2.54
 50
180.0
 44
2.54
 45
0.0
  9
BAT
 49
-2.54
 74
     0
  0
LTYPE
  5
103F0
330
10326
100
AcDbSymbolTableRecord
100
AcDbLinetypeTableRecord
  2
ACAD_ISO15W100
 70
     0
  3
ISO double-dash triple-dot __ __ . . . __ __ . .
 72
    65
 73
    10
 40
39.0
 49
12.0
 74
     0
 49
-3.0
 74
     0
 49
12.0
 74
     0
 49
-3.0
 74
     0
 49
0.0
 74
     0
 49
-3.0
 74
     0
 49
0.0
 74
     0
 49
-3.0
 74
     0
 49
0.0
 74
     0
 49
-3.0
 74
     0
  0
LTYPE
  5
103F1
330
10326
100
AcDbSymbolTableRecord
100
AcDbLinetypeTableRecord
  2
ACAD_ISO14W100
 70
     0
  3
ISO dash triple-dot __ . . . __ . . . __ . . . _
 72
    65
 73
     8
 40
24.0
 49
12.0
 74
     0
 49
-3.0
 74
     0
 49
0.0
 74
     0
 49
-3.0
 74
     0
 49
0.0
 74
     0
 49
-3.0
 74
     0
 49
0.0
 74
     0
 49
-3.0
 74
     0
  0
LTYPE
  5
103F3
330
10326
100
AcDbSymbolTableRecord
100
AcDbLinetypeTableRecord
  2
FENCELINE1
 70
     0
  3
Fenceline circle ----0-----0----0-----0----0-----0--
 72
    65
 73
     4
 40
36.83
 49
6.35
 74
     0
 49
-2.54
 74
     2
 75
     0
340
103F2
 46
2.54
 50
0.0
 44
-2.54
 45
0.0
  9
CIRC1
 49
-2.54
 74
     0
 49
25.4
 74
     0
  0
LTYPE
  5
103F5
330
10326
100
AcDbSymbolTableRecord
100
AcDbLinetypeTableRecord
  2
DRAINAGE2
 70
     0
  3
Drainage reversed----<----<----<----
 72
    65
 73
     2
 40
10.16
 49
5.08
 74
     2
 75
     0
340
103F4
 46
2.54
 50
0.0
 44
0.0
 45
0.0
  9
RIGHT_ARROW
 49
5.08
 74
     0
  0
LTYPE
  5
103F7
330
10326
100
AcDbSymbolTableRecord
100
AcDbLinetypeTableRecord
  2
DRAINAGE
 70
     0
  3
Drainage ---->---->---->----
 72
    65
 73
     2
 40
10.16
 49
5.08
 74
     2
 75
     0
340
103F6
 46
2.54
 50
180.0
 44
0.0
 45
0.0
  9
RIGHT_ARROW
 49
5.08
 74
     0
  0
LTYPE
  5
103F8
330
10326
100
AcDbSymbolTableRecord
100
AcDbLinetypeTableRecord
  2
DOTX2
 70
     0
  3
Dot (2x) .  .  .  .  .  .  .  .  .  .  .  .  .  .
 72
    65
 73
     2
 40
12.7
 49
0.0
 74
     0
 49
-12.7
 74
     0
  0
LTYPE
  5
103F9
330
10326
100
AcDbSymbolTableRecord
100
AcDbLinetypeTableRecord
  2
HIDDEN2
 70
     0
  3
Hidden (.5x) _ _ _ _ _ _ _ _ _ _ _ _ _ _ _ _ _ 
 72
    65
 73
     2
 40
4.762499999999999
 49
3.175
 74
     0
 49
-1.5875
 74
     0
  0
LTYPE
  5
103FA
330
10326
100
AcDbSymbolTableRecord
100
AcDbLinetypeTableRecord
  2
HIDDEN
 70
     0
  3
Hidden __ __ __ __ __ __ __ __ __ __ __ __ __ __
 72
    65
 73
     2
 40
9.524999999999999
 49
6.35
 74
     0
 49
-3.175
 74
     0
  0
LTYPE
  5
103FC
330
10326
100
AcDbSymbolTableRecord
100
AcDbLinetypeTableRecord
  2
GAS_LINE
 70
     0
  3
Gas line ----GAS----GAS----GAS----GAS----GAS----GAS--
 72
    65
 73
     3
 40
24.13
 49
12.7
 74
     0
 49
-5.08
 74
     2
 75
     0
340
103FB
 46
2.54
 50
0.0
 44
-2.54
 45
-1.27
  9
GAS
 49
-6.35
 74
     0
  0
LTYPE
  5
103FE
330
10326
100
AcDbSymbolTableRecord
100
AcDbLinetypeTableRecord
  2
FENCELINE2
 70
     0
  3
Fenceline square ----[]-----[]----[]-----[]----[]---
 72
    65
 73
     4
 40
36.83
 49
6.35
 74
     0
 49
-2.54
 74
     2
 75
     0
340
103FD
 46
2.54
 50
0.0
 44
-2.54
 45
0.0
  9
BOX
 49
-2.54
 74
     0
 49
25.4
 74
     0
  0
LTYPE
  5
103FF
330
10326
100
AcDbSymbolTableRecord
100
AcDbLinetypeTableRecord
  2
DIVIDE
 70
     0
  3
Divide ____ . . ____ . . ____ . . ____ . . ____
 72
    65
 73
     6
 40
31.75
 49
12.7
 74
     0
 49
-6.35
 74
     0
 49
0.0
 74
     0
 49
-6.35
 74
     0
 49
0.0
 74
     0
 49
-6.35
 74
     0
  0
LTYPE
  5
10400
330
10326
100
AcDbSymbolTableRecord
100
AcDbLinetypeTableRecord
  2
DASHEDX2
 70
     0
  3
Dashed (2x) ____  ____  ____  ____  ____  ___
 72
    65
 73
     2
 40
38.09999999999999
 49
25.4
 74
     0
 49
-12.7
 74
     0
  0
LTYPE
  5
10401
330
10326
100
AcDbSymbolTableRecord
100
AcDbLinetypeTableRecord
  2
DASHED2
 70
     0
  3
Dashed (.5x) _ _ _ _ _ _ _ _ _ _ _ _ _ _ _ _ _ 
 72
    65
 73
     2
 40
9.524999999999999
 49
6.35
 74
     0
 49
-3.175
 74
     0
  0
LTYPE
  5
10402
330
10326
100
AcDbSymbolTableRecord
100
AcDbLinetypeTableRecord
  2
DASHED
 70
     0
  3
Dashed __ __ __ __ __ __ __ __ __ __ __ __ __ _
 72
    65
 73
     2
 40
19.05
 49
12.7
 74
     0
 49
-6.35
 74
     0
  0
LTYPE
  5
10403
330
10326
100
AcDbSymbolTableRecord
100
AcDbLinetypeTableRecord
  2
DOT2
 70
     0
  3
Dot (.5x) ........................................
 72
    65
 73
     2
 40
3.175
 49
0.0
 74
     0
 49
-3.175
 74
     0
  0
LTYPE
  5
10404
330
10326
100
AcDbSymbolTableRecord
100
AcDbLinetypeTableRecord
  2
DOT
 70
     0
  3
Dot . . . . . . . . . . . . . . . . . . . . . . . .
 72
    65
 73
     2
 40
6.35
 49
0.0
 74
     0
 49
-6.35
 74
     0
  0
LTYPE
  5
10405
330
10326
100
AcDbSymbolTableRecord
100
AcDbLinetypeTableRecord
  2
DIVIDEX2
 70
     0
  3
Divide (2x) ________  .  .  ________  .  .  _
 72
    65
 73
     6
 40
63.5
 49
25.4
 74
     0
 49
-12.7
 74
     0
 49
0.0
 74
     0
 49
-12.7
 74
     0
 49
0.0
 74
     0
 49
-12.7
 74
     0
  0
LTYPE
  5
10406
330
10326
100
AcDbSymbolTableRecord
100
AcDbLinetypeTableRecord
  2
DIVIDE2
 70
     0
  3
Divide (.5x) __..__..__..__..__..__..__..__.._
 72
    65
 73
     6
 40
15.875
 49
6.35
 74
     0
 49
-3.175
 74
     0
 49
0.0
 74
     0
 49
-3.175
 74
     0
 49
0.0
 74
     0
 49
-3.175
 74
     0
  0
ENDTAB
  0
TABLE
  2
LAYER
  5
10324
330
0
100
AcDbSymbolTable
 70
     1
  0
LAYER
  5
10331
330
10324
100
AcDbSymbolTableRecord
100
AcDbLayerTableRecord
  2
0
 70
     0
 62
     7
  6
Continuous
370
     0
390
10330
347
10366
348
0
  0
ENDTAB
  0
TABLE
  2
STYLE
  5
10325
330
0
100
AcDbSymbolTable
 70
    13
  0
STYLE
  5
10332
330
10325
100
AcDbSymbolTableRecord
100
AcDbTextStyleTableRecord
  2
Standard
 70
     0
 40
0.0
 41
1.0
 50
0.0
 71
     0
 42
0.2
  3
txt
  4

  0
STYLE
  5
103CB
330
10325
100
AcDbSymbolTableRecord
100
AcDbTextStyleTableRecord
  2
QCADDimTextStyle
 70
     0
 40
0.0
 41
1.0
 50
0.0
 71
     0
 42
0.2
  3

  4

  0
STYLE
  5
103CF
330
10325
100
AcDbSymbolTableRecord
100
AcDbTextStyleTableRecord
  2
textstyle0
 70
     0
 40
0.0
 41
1.0
 50
0.0
 71
     0
 42
0.2
  3
STANDARD
  4

  0
STYLE
  5
103D2
330
10325
100
AcDbSymbolTableRecord
100
AcDbTextStyleTableRecord
  2
textstyle1
 70
     0
 40
0.0
 41
1.0
 50
0.0
 71
     0
 42
0.2
  3
ltypeshp.shx
  4

  0
STYLE
  5
103D3
330
10325
100
AcDbSymbolTableRecord
100
AcDbTextStyleTableRecord
  2
textstyle2
 70
     0
 40
0.0
 41
1.0
 50
0.0
 71
     0
 42
0.2
  3
ltypeshp.shx
  4

  0
STYLE
  5
103D5
330
10325
100
AcDbSymbolTableRecord
100
AcDbTextStyleTableRecord
  2
textstyle3
 70
     0
 40
0.0
 41
1.0
 50
0.0
 71
     0
 42
0.2
  3
ltypeshp.shx
  4

  0
STYLE
  5
103ED
330
10325
100
AcDbSymbolTableRecord
100
AcDbTextStyleTableRecord
  2
textstyle4
 70
     0
 40
0.0
 41
1.0
 50
0.0
 71
     0
 42
0.2
  3
ltypeshp.shx
  4

  0
STYLE
  5
103EE
330
10325
100
AcDbSymbolTableRecord
100
AcDbTextStyleTableRecord
  2
textstyle5
 70
     0
 40
0.0
 41
1.0
 50
0.0
 71
     0
 42
0.2
  3
ltypeshp.shx
  4

  0
STYLE
  5
103F2
330
10325
100
AcDbSymbolTableRecord
100
AcDbTextStyleTableRecord
  2
textstyle6
 70
     0
 40
0.0
 41
1.0
 50
0.0
 71
     0
 42
0.2
  3
ltypeshp.shx
  4

  0
STYLE
  5
103F4
330
10325
100
AcDbSymbolTableRecord
100
AcDbTextStyleTableRecord
  2
textstyle7
 70
     0
 40
0.0
 41
1.0
 50
0.0
 71
     0
 42
0.2
  3
qcadshp.shx
  4

  0
STYLE
  5
103F6
330
10325
100
AcDbSymbolTableRecord
100
AcDbTextStyleTableRecord
  2
textstyle8
 70
     0
 40
0.0
 41
1.0
 50
0.0
 71
     0
 42
0.2
  3
qcadshp.shx
  4

  0
STYLE
  5
103FB
330
10325
100
AcDbSymbolTableRecord
100
AcDbTextStyleTableRecord
  2
textstyle9
 70
     0
 40
0.0
 41
1.0
 50
0.0
 71
     0
 42
0.2
  3
STANDARD
  4

  0
STYLE
  5
103FD
330
10325
100
AcDbSymbolTableRecord
100
AcDbTextStyleTableRecord
  2
textstyle10
 70
     0
 40
0.0
 41
1.0
 50
0.0
 71
     0
 42
0.2
  3
ltypeshp.shx
  4

  0
ENDTAB
  0
TABLE
  2
VIEW
  5
10327
330
0
100
AcDbSymbolTable
 70
     0
  0
ENDTAB
  0
TABLE
  2
UCS
  5
10328
330
0
100
AcDbSymbolTable
 70
     0
  0
ENDTAB
  0
TABLE
  2
APPID
  5
1032A
330
0
100
AcDbSymbolTable
 70
     2
  0
APPID
  5
10333
330
1032A
100
AcDbSymbolTableRecord
100
AcDbRegAppTableRecord
  2
ACAD
 70
     0
  0
APPID
  5
1038E
330
1032A
100
AcDbSymbolTableRecord
100
AcDbRegAppTableRecord
  2
QCAD
 70
     0
  0
ENDTAB
  0
TABLE
  2
DIMSTYLE
  5
1032B
330
0
100
AcDbSymbolTable
 70
     2
100
AcDbDimStyleTable
  0
DIMSTYLE
105
10347
330
1032B
100
AcDbSymbolTableRecord
100
AcDbDimStyleTableRecord
  2
Standard
 70
     0
178
     0
340
10332
  0
DIMSTYLE
105
103CC
330
1032B
100
AcDbSymbolTableRecord
100
AcDbDimStyleTableRecord
  2
QCADDimStyle
 70
     0
 73
     0
 77
     1
178
     0
340
103CB
  0
ENDTAB
  0
TABLE
  2
BLOCK_RECORD
  5
10323
330
0
100
AcDbSymbolTable
 70
     0
  0
BLOCK_RECORD
  5
1033F
330
10323
100
AcDbSymbolTableRecord
100
AcDbBlockTableRecord
  2
*Model_Space
340
10342
 70
     0
280
     1
281
     0
  0
BLOCK_RECORD
  5
1033B
330
10323
100
AcDbSymbolTableRecord
100
AcDbBlockTableRecord
  2
*Paper_Space
340
1033E
 70
     0
280
     1
281
     0
  0
ENDTAB
  0
ENDSEC
  0
SECTION
  2
BLOCKS
  0
BLOCK
  5
10340
330
1033F
100
AcDbEntity
  8
0
100
AcDbBlockBegin
  2
*Model_Space
 70
     0
 10
0.0
 20
0.0
 30
0.0
  3
*Model_Space
  1

  0
ENDBLK
  5
10341
330
1033F
100
AcDbEntity
  8
0
100
AcDbBlockEnd
  0
BLOCK
  5
1033C
330
1033B
100
AcDbEntity
 67
     1
  8
0
100
AcDbBlockBegin
  2
*Paper_Space
 70
     0
 10
0.0
 20
0.0
 30
0.0
  3
*Paper_Space
  1

  0
ENDBLK
  5
1033D
330
1033B
100
AcDbEntity
 67
     1
  8
0
100
AcDbBlockEnd
  0
ENDSEC
  0
SECTION
  2
ENTITIES
  0
LWPOLYLINE
  5
1019C
330
1033F
100
AcDbEntity
  8
0
100
AcDbPolyline
 90
       20
 70
     1
 43
0.0
 10
275.263
 20
-16.52500000000022
 10
258.137
 20
-16.52499999999959
 10
258.137
 20
-17.02500000000053
 42
-0.4142135623730001
 10
257.637
 20
-17.52499999999972
 10
251.887
 20
-17.52500000000032
 42
-0.4142135623730924
 10
251.387
 20
-17.02499999999989
 10
251.387
 20
-16.52499999999989
 10
250.675
 20
-16.52499999999975
 42
-0.4142135623731757
 10
250.175
 20
-16.02500000000009
 10
250.175
 20
-3.025000000000716
 42
-0.4142135623730258
 10
250.675
 20
-2.524999999997618
 10
282.725
 20
-2.524999999998926
 42
-0.4142135623731461
 10
283.225
 20
-3.025000000000801
 10
283.225
 20
-16.02500000000049
 42
-0.414213562373108
 10
282.725
 20
-16.52499999999969
 10
282.013
 20
-16.52499999999981
 10
282.013
 20
-17.02499999999989
 42
-0.4142135623730066
 10
281.513
 20
-17.52499999999986
 10
275.763
 20
-17.52499999999986
 42
-0.4142135623730859
 10
275.263
 20
-17.025000000001
  0
LWPOLYLINE
  5
1019D
330
1033F
100
AcDbEntity
  8
0
100
AcDbPolyline
 90
        8
 70
     1
 43
0.0
 10
6.618250000000019
 20
-60.675
 42
0.4142135623731009
 10
6.118249999999991
 20
-61.17500000000001
 10
6.118249999999962
 20
-74.17500000000004
 42
0.4142135623730905
 10
6.618249999999991
 20
-74.67500000000001
 10
12.36825000000002
 20
-74.67500000000001
 42
0.4142135623730859
 10
12.86824999999996
 20
-74.17500000000004
 10
12.86824999999996
 20
-61.17500000000001
 42
0.4142135623731003
 10
12.36825000000002
 20
-60.675
  0
LWPOLYLINE
  5
1019E
330
1033F
100
AcDbEntity
  8
0
100
AcDbPolyline
 90
        8
 70
     1
 43
0.0
 10
130.825
 20
-3.025000000000063
 42
0.4142135623730901
 10
130.325
 20
-2.524999999999721
 10
117.325
 20
-2.524999999999849
 42
0.4142135623730869
 10
116.825
 20
-3.024999999999665
 10
116.825
 20
-16.02499999999992
 42
0.4142135623730742
 10
117.325
 20
-16.52500000000002
 10
130.325
 20
-16.52500000000005
 42
0.414213562373095
 10
130.825
 20
-16.02499999999996
  0
LWPOLYLINE
  5
109
330
1033F
100
AcDbEntity
  8
0
100
AcDbPolyline
 90
        8
 70
     1
 43
0.0
 10
-4.000000000000013
 20
-78.4375
 10
-3.500000000000004
 20
-78.43750000000001
 42
0.4142135623730892
 10
-2.999999999999993
 20
-77.9375
 10
-3.000000000000008
 20
-17.3125
 42
0.414213562373095
 10
-3.500000000000004
 20
-16.8125
 10
-4.000000000000012
 20
-16.8125
 42
0.414213562373096
 10
-4.500000000000006
 20
-17.31250000000001
 10
-4.49999999999998
 20
-77.93750000000001
 42
0.4142135623730866
  0
LWPOLYLINE
  5
1019F
330
1033F
100
AcDbEntity
  8
0
100
AcDbPolyline
 90
        8
 70
     1
 43
0.0
 10
30.49424999999997
 20
-60.67500000000001
 10
36.24424999999992
 20
-60.67500000000005
 42
-0.4142135623730742
 10
36.74424999999995
 20
-61.17500000000001
 10
36.74425000000001
 20
-74.17500000000003
 42
-0.4142135623731003
 10
36.24424999999999
 20
-74.675
 10
30.49424999999995
 20
-74.67500000000003
 42
-0.4142135623730898
 10
29.99424999999997
 20
-74.17500000000004
 10
29.99424999999999
 20
-61.175
 42
-0.4142135623731106
  0
LWPOLYLINE
  5
101A0
330
1033F
100
AcDbEntity
  8
0
100
AcDbPolyline
 90
        8
 70
     1
 43
0.0
 10
44.59999999999999
 20
-78.72500000000001
 10
31.60000000000002
 20
-78.72500000000001
 42
0.4142135623731106
 10
31.10000000000002
 20
-79.225
 10
31.10000000000002
 20
-92.22500000000001
 42
0.4142135623731341
 10
31.60000000000002
 20
-92.72500000000001
 10
44.59999999999999
 20
-92.72500000000004
 42
0.414213562373069
 10
45.09999999999997
 20
-92.22500000000005
 10
45.09999999999998
 20
-79.22500000000004
 42
0.4142135623731054
  0
ARC
  5
113
330
1033F
100
AcDbEntity
  8
0
100
AcDbCircle
 10
0.4999999999999942
 20
-94.75
 30
0.0
 40
0.5000000000000117
100
AcDbArc
 50
180.0
 51
269.9999999999927
  0
LWPOLYLINE
  5
101A1
330
1033F
100
AcDbEntity
  8
0
100
AcDbPolyline
 90
        8
 70
     1
 43
0.0
 10
197.7875000005933
 20
-60.17500000059341
 10
197.7875000005933
 20
-73.17500000059337
 42
0.414213562373121
 10
198.2875000005933
 20
-73.67500000059319
 10
211.2875000005933
 20
-73.6750000005933
 42
0.4142135623730742
 10
211.7875000005933
 20
-73.17500000059323
 10
211.7875000005933
 20
-60.17500000059331
 42
0.4142135623731367
 10
211.2875000005932
 20
-59.67500000059349
 10
198.2875000005933
 20
-59.67500000059327
 42
0.4142135623730222
  0
LWPOLYLINE
  5
101A2
330
1033F
100
AcDbEntity
  8
0
100
AcDbPolyline
 90
        8
 70
     1
 43
0.0
 10
98.275
 20
-2.525000000000063
 42
0.4142135623730983
 10
97.77499999999998
 20
-3.025000000000063
 10
97.77500000000002
 20
-16.02500000000002
 42
0.414213562373056
 10
98.275
 20
-16.52500000000002
 10
111.275
 20
-16.52500000000006
 42
0.4142135623731015
 10
111.775
 20
-16.02499999999999
 10
111.775
 20
-3.025000000000261
 42
0.4142135623730898
 10
111.275
 20
-2.525000000000006
  0
LWPOLYLINE
  5
101A3
330
1033F
100
AcDbEntity
  8
0
100
AcDbPolyline
 90
        8
 70
     1
 43
0.0
 10
5.40875
 20
-54.62500000000001
 10
23.16874999999999
 20
-54.62500000000003
 42
0.414213562373121
 10
23.66875
 20
-54.12500000000003
 10
23.66874999999999
 20
-41.12500000000003
 42
0.4142135623731003
 10
23.16874999999999
 20
-40.62500000000003
 10
5.40875
 20
-40.62500000000001
 42
0.4142135623730697
 10
4.908749999999971
 20
-41.12500000000001
 10
4.90875
 20
-54.12500000000003
 42
0.4142135623731061
  0
LWPOLYLINE
  5
101A4
330
1033F
100
AcDbEntity
  8
0
100
AcDbPolyline
 90
        8
 70
     1
 43
0.0
 10
207.3125000005933
 20
-41.12500000059325
 42
-0.4142135623730222
 10
207.8125000005933
 20
-40.62500000059327
 10
220.8125000005933
 20
-40.62500000059327
 42
-0.4142135623731314
 10
221.3125000005933
 20
-41.12500000059327
 10
221.3125000005934
 20
-54.1250000005933
 42
-0.4142135623730742
 10
220.8125000005933
 20
-54.62500000059322
 10
207.8125000005933
 20
-54.62500000059333
 42
-0.414213562373121
 10
207.3125000005933
 20
-54.12500000059325
  0
LWPOLYLINE
  5
101A5
330
1033F
100
AcDbEntity
  8
0
100
AcDbPolyline
 90
        8
 70
     1
 43
0.0
 10
79.22500000000002
 20
-16.52500000000002
 10
92.22499999999998
 20
-16.52500000000006
 42
0.4142135623730937
 10
92.725
 20
-16.02499999999998
 10
92.725
 20
-3.02500000000029
 42
0.414213562373056
 10
92.225
 20
-2.525000000000304
 10
79.22500000000002
 20
-2.524999999999864
 42
0.4142135623731048
 10
78.72500000000005
 20
-3.025000000000176
 10
78.72500000000005
 20
-16.02500000000001
 42
0.4142135623730989
  0
ARC
  5
121
330
1033F
100
AcDbEntity
  8
0
100
AcDbCircle
 10
-1.000000000088898
 20
-96.24999999997029
 30
0.0
 40
0.5000000000297256
100
AcDbArc
 50
180.0
 51
270.0000000101873
1001
QCAD
1000
reversed:1
  0
LWPOLYLINE
  5
101A6
330
1033F
100
AcDbEntity
  8
0
100
AcDbPolyline
 90
        8
 70
     1
 43
0.0
 10
131.1125000005933
 20
-41.12500000059337
 42
-0.4142135623730898
 10
131.6125000005933
 20
-40.62500000059333
 10
144.6125000005933
 20
-40.62500000059333
 42
-0.4142135623730742
 10
145.1125000005933
 20
-41.12500000059333
 10
145.1125000005933
 20
-54.12500000059325
 42
-0.4142135623731002
 10
144.6125000005933
 20
-54.62500000059327
 10
131.6125000005933
 20
-54.62500000059319
 42
-0.4142135623730951
 10
131.1125000005933
 20
-54.12500000059325
  0
LWPOLYLINE
  5
10313
330
1033F
100
AcDbEntity
  8
0
100
AcDbPolyline
 90
       16
 70
   128
 43
0.0
 10
244.24325
 20
-59.67499999999996
 10
243.53125
 20
-59.67500000000015
 42
0.4142135623731117
 10
243.03125
 20
-60.17500000000012
 10
243.03125
 20
-73.17500000000004
 42
0.4142135623731783
 10
243.5312500000001
 20
-73.67499999999981
 10
244.24325
 20
-73.675
 10
244.24325
 20
-74.175
 42
0.4142135623730617
 10
244.74325
 20
-74.675
 10
250.49325
 20
-74.67500000000008
 42
0.414213562373095
 10
250.99325
 20
-74.17500000000007
 10
250.99325
 20
-73.67499999999988
 10
266.05625
 20
-73.67500000000004
 42
0.414213562373095
 10
266.55625
 20
-73.17500000000004
 10
266.55625
 20
-60.17500000000006
 42
0.414213562373095
 10
266.05625
 20
-59.67499999999996
 10
250.99325
 20
-59.6749999999999
  0
LWPOLYLINE
  5
101A8
330
1033F
100
AcDbEntity
  8
0
100
AcDbPolyline
 90
        8
 70
     1
 43
0.0
 10
279.63175
 20
-42.12500000000009
 42
0.4142135623731003
 10
279.13175
 20
-41.62500000000037
 10
273.38175
 20
-41.62500000000003
 42
0.414213562373095
 10
272.88175
 20
-42.12499999999989
 10
272.88175
 20
-55.1250000000002
 42
0.4142135623732407
 10
273.38175
 20
-55.62499999999991
 10
279.13175
 20
-55.62500000000026
 42
0.4142135623729754
 10
279.63175
 20
-55.12500000000017
  0
ARC
  5
131
330
1033F
100
AcDbEntity
  8
0
100
AcDbCircle
 10
286.7500194561908
 20
0.9999743682976745
 30
0.0
 40
0.4999805438091798
100
AcDbArc
 50
0.0
 51
89.99827780018846
  0
LWPOLYLINE
  5
1031F
330
1033F
100
AcDbEntity
  8
0
100
AcDbPolyline
 90
        6
 70
   128
 43
0.0
 10
196.65
 20
-92.22500000000042
 10
196.65
 20
-78.22500000000007
 42
-0.4142135623729951
 10
197.15
 20
-77.72499999999995
 10
202.9
 20
-77.72500000000004
 42
-0.4142135623731616
 10
203.4000000000001
 20
-78.225
 10
203.4
 20
-92.22500000000043
  0
LWPOLYLINE
  5
101AA
330
1033F
100
AcDbEntity
  8
0
100
AcDbPolyline
 90
        8
 70
     1
 43
0.0
 10
249.50575
 20
-41.62499999999991
 42
0.414213562372991
 10
249.00575
 20
-42.12499999999986
 10
249.00575
 20
-55.12500000000011
 42
0.4142135623730586
 10
249.50575
 20
-55.62500000000016
 10
255.25575
 20
-55.62500000000018
 42
0.4142135623730118
 10
255.75575
 20
-55.12499999999991
 10
255.75575
 20
-42.12500000000017
 42
0.4142135623731418
 10
255.25575
 20
-41.62499999999989
  0
ARC
  5
134
330
1033F
100
AcDbEntity
  8
0
100
AcDbCircle
 10
285.2499999808601
 20
-0.5000000191400382
 30
0.0
 40
0.5000000191399687
100
AcDbArc
 50
0.0000020913097892
 51
90.00000219327298
1001
QCAD
1000
reversed:1
  0
LWPOLYLINE
  5
101AB
330
1033F
100
AcDbEntity
  8
0
100
AcDbPolyline
 90
        8
 70
     1
 43
0.0
 10
277.9625
 20
-92.72500000000024
 42
0.4142135623730638
 10
278.4625
 20
-92.22499999999982
 10
278.4625
 20
-79.2249999999999
 42
0.4142135623731159
 10
277.9625
 20
-78.72499999999997
 10
264.9624999999999
 20
-78.72500000000021
 42
0.4142135623730794
 10
264.4625
 20
-79.22499999999998
 10
264.4625
 20
-92.22499999999992
 42
0.4142135623731887
 10
264.9625
 20
-92.72499999999988
  0
LWPOLYLINE
  5
101AC
330
1033F
100
AcDbEntity
  8
0
100
AcDbPolyline
 90
        8
 70
     1
 43
0.0
 10
3.024999999999979
 20
-2.525000000000006
 42
0.4142135623730944
 10
2.524999999999979
 20
-3.025000000000006
 10
2.525000000000007
 20
-16.02500000000002
 42
0.414213562373082
 10
3.024999999999979
 20
-16.52500000000001
 10
16.02500000000001
 20
-16.52500000000001
 42
0.4142135623730924
 10
16.52499999999998
 20
-16.02500000000001
 10
16.52500000000001
 20
-3.024999999999977
 42
0.4142135623731035
 10
16.02499999999998
 20
-2.525000000000006
  0
LWPOLYLINE
  5
137
330
1033F
100
AcDbEntity
  8
0
100
AcDbPolyline
 90
        8
 70
     1
 43
0.0
 10
-1.499999999999996
 20
4.000000000000004
 10
-1.499999999999996
 20
3.500000000000002
 42
0.4142135623730934
 10
-0.9999999999999964
 20
3.000000000000004
 10
87.75000000000004
 20
2.999999999999319
 42
0.4142135623730576
 10
88.25000000000004
 20
3.499999999999333
 10
88.25000000000004
 20
3.999999999999755
 42
0.4142135623730479
 10
87.75000000000004
 20
4.49999999999989
 10
-0.999999999999998
 20
4.499999999999998
 42
0.414213562373098
  0
LWPOLYLINE
  5
101AD
330
1033F
100
AcDbEntity
  8
0
100
AcDbPolyline
 90
        8
 70
     1
 43
0.0
 10
193.0250000000001
 20
-16.02500000000001
 42
0.4142135623732225
 10
193.525
 20
-16.52499999999986
 10
206.525
 20
-16.52499999999986
 42
0.4142135623730027
 10
207.025
 20
-16.02499999999991
 10
207.025
 20
-3.02499999999992
 42
0.4142135623731357
 10
206.525
 20
-2.525000000001214
 10
193.525
 20
-2.524999999999409
 42
0.4142135623730401
 10
193.025
 20
-3.0250000000011
  0
LWPOLYLINE
  5
139
330
1033F
100
AcDbEntity
  8
0
100
AcDbPolyline
 90
       24
 70
     1
 43
0.0
 10
140.9893833595073
 20
6.505327725794397
 42
0.3178372263070919
 10
140.0465728738651
 20
7.171991687192067
 10
-4.343147790581178
 20
7.17157526655442
 42
0.3178366837267295
 10
-5.285954228979204
 20
6.50490780206559
 42
-0.2265411417528733
 10
-6.504906208612814
 20
5.285954792162098
 42
0.3178372452014083
 10
-7.171572875260248
 20
4.34314575050724
 10
-7.171572875253807
 20
-99.59314575050762
 42
0.3178372451957759
 10
-6.504906208587176
 20
-100.5359547920897
 42
-0.2265416775788713
 10
-5.285952869645242
 20
-101.7549116461061
 42
0.3178372448052537
 10
-4.343145751937705
 20
-102.4215810315284
 10
140.0465708351838
 20
-102.4219976099013
 42
0.3178378067359132
 10
140.989382480183
 20
-101.7553317399354
 42
-0.7071053829229765
 10
144.7606161607033
 20
-101.75532789582
 42
0.3178372455853561
 10
145.7034271261523
 20
-102.4219918437043
 10
290.0931477905812
 20
-102.4215752652317
 42
0.3178366836433098
 10
291.035954228404
 20
-101.7549078018622
 42
-0.2265411418092806
 10
292.2549062081576
 20
-100.5359547908747
 42
0.3178372449089047
 10
292.9215728665757
 20
-99.59314575050755
 10
292.9215737128656
 20
4.343145752109637
 42
0.3178376407022412
 10
292.2549073911645
 20
5.285958166710411
 42
-0.2265416238511037
 10
291.0359618605441
 20
6.504915361848939
 42
0.3178433292848413
 10
290.0931464088493
 20
7.171631242548017
 10
145.7034290893087
 20
7.171972765688432
 42
0.3178345124256174
 10
144.7606232107568
 20
6.505329808238911
 42
-0.7071057862554295
  0
LWPOLYLINE
  5
101AE
330
1033F
100
AcDbEntity
  8
0
100
AcDbPolyline
 90
        8
 70
     1
 43
0.0
 10
35.07499999999999
 20
-2.524999999999991
 10
22.07499999999999
 20
-2.525000000000006
 42
0.414213562373097
 10
21.57499999999999
 20
-3.025000000000034
 10
21.57499999999999
 20
-16.02500000000001
 42
0.4142135623731003
 10
22.075
 20
-16.52500000000001
 10
35.07499999999999
 20
-16.52500000000001
 42
0.4142135623730885
 10
35.57499999999999
 20
-16.02500000000001
 10
35.57499999999999
 20
-3.02500000000002
 42
0.4142135623730915
  0
LWPOLYLINE
  5
140
330
1033F
100
AcDbEntity
  8
0
100
AcDbPolyline
 90
        8
 70
     1
 43
0.0
 10
184.0
 20
4.499999999998585
 10
101.75
 20
4.500000000000093
 42
0.414213562373096
 10
101.25
 20
4.000000000000084
 10
101.25
 20
3.499999999999988
 42
0.4142135623731103
 10
101.75
 20
3.000000000000127
 10
184.0
 20
2.999999999999614
 42
0.4142135623731126
 10
184.5000000000001
 20
3.500000000000504
 10
184.4999999999999
 20
3.999999999998965
 42
0.414213562373111
  0
LWPOLYLINE
  5
101AF
330
1033F
100
AcDbEntity
  8
0
100
AcDbPolyline
 90
        8
 70
     1
 43
0.0
 10
264.9625
 20
-35.57499999999987
 10
277.9625
 20
-35.57500000000036
 42
0.4142135623730794
 10
278.4625
 20
-35.07500000000005
 10
278.4625
 20
-22.07500000000016
 42
0.4142135623730872
 10
277.9625
 20
-21.57499999999996
 10
264.9625
 20
-21.57499999999949
 42
0.4142135623730534
 10
264.4625
 20
-22.07499999999979
 10
264.4625
 20
-35.07500000000012
 42
0.4142135623731991
  0
ARC
  5
143
330
1033F
100
AcDbEntity
  8
0
100
AcDbCircle
 10
285.2499999353849
 20
-94.74999993538461
 30
0.0
 40
0.5000000646153289
100
AcDbArc
 50
270.0000074043385
 51
359.9999926555614
  0
LWPOLYLINE
  5
101B0
330
1033F
100
AcDbEntity
  8
0
100
AcDbPolyline
 90
        8
 70
     1
 43
0.0
 10
68.41250000000005
 20
-78.72499999999998
 10
55.41250000000004
 20
-78.72500000000001
 42
0.4142135623731159
 10
54.91249999999999
 20
-79.22500000000004
 10
54.91250000000004
 20
-92.225
 42
0.414213562373095
 10
55.41250000000002
 20
-92.72500000000001
 10
68.41250000000004
 20
-92.72499999999998
 42
0.4142135623731106
 10
68.9125
 20
-92.22500000000004
 10
68.91250000000001
 20
-79.22500000000001
 42
0.4142135623731106
  0
ARC
  5
144
330
1033F
100
AcDbEntity
  8
0
100
AcDbCircle
 10
286.7500000000426
 20
-96.25000000004391
 30
0.0
 40
0.499999999957339
100
AcDbArc
 50
269.9999999999544
 51
0.0
1001
QCAD
1000
reversed:1
  0
LWPOLYLINE
  5
101B1
330
1033F
100
AcDbEntity
  8
0
100
AcDbPolyline
 90
        8
 70
     1
 43
0.0
 10
149.375
 20
-16.52500000000009
 42
0.4142135623731145
 10
149.875
 20
-16.02500000000012
 10
149.875
 20
-3.025000000000887
 42
0.4142135623730892
 10
149.375
 20
-2.524999999999963
 10
136.375
 20
-2.524999999999608
 42
0.4142135623730648
 10
135.875
 20
-3.024999999999295
 10
135.875
 20
-16.02500000000006
 42
0.4142135623730976
 10
136.375
 20
-16.52500000000022
  0
ARC
  5
145
330
1033F
100
AcDbEntity
  8
0
100
AcDbCircle
 10
0.4999999999999999
 20
-0.5000000000000002
 30
0.0
 40
0.4999999999999999
100
AcDbArc
 50
89.99999999999982
 51
180.0
1001
QCAD
1000
reversed:1
  0
LWPOLYLINE
  5
101B2
330
1033F
100
AcDbEntity
  8
0
100
AcDbPolyline
 90
        8
 70
     1
 43
0.0
 10
31.10000000059327
 20
-22.07500000059328
 10
31.10000000059328
 20
-35.07500000059328
 42
0.4142135623730951
 10
31.60000000059325
 20
-35.57500000059329
 10
44.60000000059324
 20
-35.57500000059329
 42
0.4142135623730951
 10
45.10000000059328
 20
-35.07500000059328
 10
45.10000000059327
 20
-22.07500000059329
 42
0.4142135623730951
 10
44.60000000059324
 20
-21.57500000059332
 10
31.60000000059327
 20
-21.57500000059329
 42
0.4142135623730924
  0
ARC
  5
146
330
1033F
100
AcDbEntity
  8
0
100
AcDbCircle
 10
-1.000000000000001
 20
1.000000000000001
 30
0.0
 40
0.5000000000000029
100
AcDbArc
 50
89.99999999999952
 51
180.0
  0
LWPOLYLINE
  5
101B3
330
1033F
100
AcDbEntity
  8
0
100
AcDbPolyline
 90
        8
 70
     1
 43
0.0
 10
230.3375
 20
-78.72500000000016
 10
217.3375
 20
-78.72500000000005
 42
0.4142135623730014
 10
216.8375000000001
 20
-79.2249999999999
 10
216.8375000000001
 20
-92.22499999999987
 42
0.4142135623731783
 10
217.3375
 20
-92.72500000000001
 10
230.3375
 20
-92.72500000000004
 42
0.4142135623731262
 10
230.8375
 20
-92.22500000000015
 10
230.8375
 20
-79.2250000000001
 42
0.4142135623732095
  0
LWPOLYLINE
  5
101B4
330
1033F
100
AcDbEntity
  8
0
100
AcDbPolyline
 90
        8
 70
     1
 43
0.0
 10
50.15000000059328
 20
-22.07500000059325
 42
-0.4142135623730951
 10
50.65000000059324
 20
-21.57500000059326
 10
63.65000000059324
 20
-21.57500000059328
 42
-0.4142135623730977
 10
64.15000000059322
 20
-22.07500000059329
 10
64.15000000059324
 20
-35.07500000059328
 42
-0.4142135623730977
 10
63.65000000059325
 20
-35.57500000059328
 10
50.65000000059322
 20
-35.57500000059329
 42
-0.4142135623730951
 10
50.15000000059324
 20
-35.07500000059329
  0
LWPOLYLINE
  5
101B5
330
1033F
100
AcDbEntity
  8
0
100
AcDbPolyline
 90
        8
 70
     1
 43
0.0
 10
254.65
 20
-79.22500000000015
 42
0.4142135623731367
 10
254.15
 20
-78.72499999999997
 10
241.15
 20
-78.72500000000021
 42
0.4142135623730118
 10
240.6500000000001
 20
-79.22499999999987
 10
240.65
 20
-92.22500000000005
 42
0.4142135623730222
 10
241.15
 20
-92.72500000000001
 10
254.15
 20
-92.72500000000022
 42
0.4142135623730846
 10
254.6500000000001
 20
-92.22500000000005
  0
LWPOLYLINE
  5
101B6
330
1033F
100
AcDbEntity
  8
0
100
AcDbPolyline
 90
        8
 70
     1
 43
0.0
 10
107.3000000005933
 20
-22.07500000059329
 10
107.3000000005933
 20
-35.07500000059322
 42
0.4142135623730924
 10
107.8000000005933
 20
-35.57500000059323
 10
120.8000000005933
 20
-35.57500000059328
 42
0.4142135623731002
 10
121.3000000005933
 20
-35.07500000059323
 10
121.3000000005933
 20
-22.07500000059322
 42
0.4142135623730742
 10
120.8000000005933
 20
-21.57500000059339
 10
107.8000000005933
 20
-21.57500000059325
 42
0.4142135623731054
  0
LWPOLYLINE
  5
101B7
330
1033F
100
AcDbEntity
  8
0
100
AcDbPolyline
 90
        8
 70
     1
 43
0.0
 10
41.125
 20
-16.52500000000001
 10
54.125
 20
-16.52500000000005
 42
0.4142135623731015
 10
54.625
 20
-16.02500000000008
 10
54.625
 20
-3.025000000000034
 42
0.4142135623730944
 10
54.125
 20
-2.525000000000006
 10
41.125
 20
-2.524999999999949
 42
0.4142135623731152
 10
40.625
 20
-3.025000000000063
 10
40.625
 20
-16.02500000000002
 42
0.4142135623730756
  0
LWPOLYLINE
  5
10319
330
1033F
100
AcDbEntity
  8
0
100
AcDbPolyline
 90
        6
 70
   128
 43
0.0
 10
89.10000000000001
 20
-92.22499999999988
 10
89.10000000000002
 20
-78.225
 42
0.41421356237312
 10
88.59999999999998
 20
-77.72500000000005
 10
82.85000000000002
 20
-77.72500000000004
 42
0.4142135623730867
 10
82.35000000000002
 20
-78.22500000000005
 10
82.35
 20
-92.22499999999987
  0
LWPOLYLINE
  5
155
330
1033F
100
AcDbEntity
  8
0
100
AcDbPolyline
 90
        8
 70
     1
 43
0.0
 10
87.75
 20
-98.25000000000004
 42
-0.4142135623730638
 10
88.25000000000001
 20
-98.75000000000007
 10
88.24999999999996
 20
-99.25000000000009
 42
-0.4142135623731054
 10
87.74999999999997
 20
-99.75000000000006
 10
-1.000000000000029
 20
-99.75000000000007
 42
-0.4142135623730231
 10
-1.500000000000005
 20
-99.25
 10
-1.500000000000042
 20
-98.75000000000006
 42
-0.414213562373109
 10
-0.9999999999999787
 20
-98.25000000000004
  0
LWPOLYLINE
  5
101B9
330
1033F
100
AcDbEntity
  8
0
100
AcDbPolyline
 90
        8
 70
     1
 43
0.0
 10
169.2125000005933
 20
-41.1250000005933
 42
-0.4142135623730742
 10
169.7125000005933
 20
-40.62500000059339
 10
182.7125000005933
 20
-40.62500000059325
 42
-0.414213562373121
 10
183.2125000005933
 20
-41.12500000059327
 10
183.2125000005933
 20
-54.12500000059325
 42
-0.4142135623730222
 10
182.7125000005934
 20
-54.6250000005932
 10
169.7125000005933
 20
-54.62500000059339
 42
-0.4142135623731314
 10
169.2125000005933
 20
-54.12500000059325
  0
LWPOLYLINE
  5
101BA
330
1033F
100
AcDbEntity
  8
0
100
AcDbPolyline
 90
        8
 70
     1
 43
0.0
 10
155.425
 20
-2.524999999999665
 42
0.4142135623730508
 10
154.925
 20
-3.024999999999707
 10
154.925
 20
-16.02499999999998
 42
0.4142135623730638
 10
155.425
 20
-16.52500000000009
 10
168.425
 20
-16.52499999999998
 42
0.4142135623730209
 10
168.925
 20
-16.02499999999995
 10
168.925
 20
-3.024999999999267
 42
0.4142135623730329
 10
168.425
 20
-2.524999999999778
  0
LWPOLYLINE
  5
101BB
330
1033F
100
AcDbEntity
  8
0
100
AcDbPolyline
 90
        8
 70
     1
 43
0.0
 10
145.4000000005933
 20
-22.07500000059335
 10
145.4000000005933
 20
-35.07500000059326
 42
0.4142135623730716
 10
145.9000000005933
 20
-35.57500000059333
 10
158.9000000005933
 20
-35.57500000059318
 42
0.4142135623731054
 10
159.4000000005933
 20
-35.07500000059326
 10
159.4000000005933
 20
-22.07500000059335
 42
0.4142135623730951
 10
158.9000000005933
 20
-21.57500000059322
 10
145.9000000005933
 20
-21.57500000059333
 42
0.414213562373082
  0
LWPOLYLINE
  5
101BC
330
1033F
100
AcDbEntity
  8
0
100
AcDbPolyline
 90
        8
 70
     1
 43
0.0
 10
7.787500000000025
 20
-21.57500000000003
 42
0.4142135623730924
 10
7.287500000000025
 20
-22.07500000000002
 10
7.287500000000025
 20
-35.07500000000002
 42
0.4142135623730937
 10
7.787500000000025
 20
-35.57500000000002
 10
20.78749999999999
 20
-35.57500000000005
 42
0.4142135623731028
 10
21.28750000000002
 20
-35.07500000000002
 10
21.28750000000002
 20
-22.075
 42
0.4142135623730872
 10
20.78750000000002
 20
-21.57500000000002
  0
LWPOLYLINE
  5
101BD
330
1033F
100
AcDbEntity
  8
0
100
AcDbPolyline
 90
        8
 70
     1
 43
0.0
 10
216.8375000005934
 20
-60.1750000005931
 10
216.8375000005933
 20
-73.17500000059322
 42
0.414213562373121
 10
217.3375000005933
 20
-73.6750000005931
 10
230.3375000005933
 20
-73.6750000005933
 42
0.4142135623730794
 10
230.8375000005933
 20
-73.17500000059336
 10
230.8375000005934
 20
-60.17500000059315
 42
0.4142135623730847
 10
230.3375000005932
 20
-59.6750000005931
 10
217.3375000005933
 20
-59.67500000059329
 42
0.4142135623731575
  0
LWPOLYLINE
  5
101BE
330
1033F
100
AcDbEntity
  8
0
100
AcDbPolyline
 90
        8
 70
     1
 43
0.0
 10
173.975
 20
-3.024999999999523
 10
173.975
 20
-16.02500000000006
 42
0.4142135623731991
 10
174.475
 20
-16.52500000000009
 10
187.475
 20
-16.52500000000026
 42
0.4142135623731106
 10
187.975
 20
-16.02500000000023
 10
187.975
 20
-3.025000000000603
 42
0.4142135623731464
 10
187.475
 20
-2.524999999999579
 10
174.475
 20
-2.52500000000154
 42
0.4142135623730794
  0
LWPOLYLINE
  5
101BF
330
1033F
100
AcDbEntity
  8
0
100
AcDbPolyline
 90
        8
 70
     1
 43
0.0
 10
202.5500000005933
 20
-22.07500000059295
 42
-0.414213562373082
 10
203.0500000005933
 20
-21.57500000059345
 10
216.0500000005933
 20
-21.57500000059339
 42
-0.4142135623731028
 10
216.5500000005933
 20
-22.07500000059341
 10
216.5500000005933
 20
-35.07500000059329
 42
-0.4142135623730456
 10
216.0500000005933
 20
-35.57500000059341
 10
203.0500000005933
 20
-35.57500000059355
 42
-0.4142135623731314
 10
202.5500000005933
 20
-35.07500000059333
  0
LWPOLYLINE
  5
10314
330
1033F
100
AcDbEntity
  8
0
100
AcDbPolyline
 90
       11
 70
   128
 43
0.0
 10
268.1192500000001
 20
-60.17500000000003
 10
268.1192500000001
 20
-74.17499999999997
 42
0.4142135623730617
 10
268.6192500000001
 20
-74.67500000000005
 10
274.3692500000001
 20
-74.6749999999998
 42
0.4142135623731616
 10
274.8692500000001
 20
-74.1749999999999
 10
274.8692500000001
 20
-73.67499999999988
 10
282.725
 20
-73.67500000000018
 42
0.414213562373095
 10
283.225
 20
-73.17500000000017
 10
283.225
 20
-60.175
 42
0.4142135623731283
 10
282.725
 20
-59.67499999999998
 10
274.8692500000001
 20
-59.67499999999998
  0
LWPOLYLINE
  5
101C1
330
1033F
100
AcDbEntity
  8
0
100
AcDbPolyline
 90
        8
 70
     1
 43
0.0
 10
35.86250000059329
 20
-41.12500000059327
 42
-0.4142135623730951
 10
36.36250000059326
 20
-40.62500000059327
 10
49.36250000059326
 20
-40.62500000059327
 42
-0.4142135623730951
 10
49.86250000059329
 20
-41.12500000059327
 10
49.86250000059324
 20
-54.12500000059333
 42
-0.4142135623730951
 10
49.36250000059326
 20
-54.62500000059327
 10
36.36250000059326
 20
-54.62500000059332
 42
-0.4142135623730951
 10
35.86250000059326
 20
-54.12500000059327
  0
LWPOLYLINE
  5
167
330
1033F
100
AcDbEntity
  8
0
100
AcDbPolyline
 90
        8
 70
     1
 43
0.0
 10
287.2500000000001
 20
-99.25000000000013
 10
287.2499999999999
 20
-98.75000000000021
 42
0.4142135623730222
 10
286.7499999999999
 20
-98.25000000000028
 10
198.0000000000001
 20
-98.2499999999999
 42
0.4142135623730742
 10
197.5000000000001
 20
-98.74999999999987
 10
197.5000000000001
 20
-99.25000000000023
 42
0.4142135623731783
 10
198.0
 20
-99.75000000000028
 10
286.7499999999999
 20
-99.7500000000003
 42
0.4142135623730222
  0
LWPOLYLINE
  5
101C2
330
1033F
100
AcDbEntity
  8
0
100
AcDbPolyline
 90
        8
 70
     1
 43
0.0
 10
257.81875
 20
-54.62500000000011
 42
-0.4142135623730846
 10
257.31875
 20
-54.12500000000003
 10
257.31875
 20
-41.12500000000023
 42
-0.414213562373043
 10
257.81875
 20
-40.62499999999974
 10
270.81875
 20
-40.62500000000014
 42
-0.4142135623731054
 10
271.31875
 20
-41.12500000000017
 10
271.31875
 20
-54.12500000000011
 42
-0.4142135623729442
 10
270.81875
 20
-54.62500000000007
  0
LWPOLYLINE
  5
168
330
1033F
100
AcDbEntity
  8
0
100
AcDbPolyline
 90
        8
 70
     1
 43
0.0
 10
289.7499999999999
 20
-78.43750000000026
 42
0.4142135623731054
 10
290.2499999999999
 20
-77.9374999999999
 10
290.25
 20
-17.31250000000042
 42
0.414213562373004
 10
289.75
 20
-16.81249999999951
 10
289.25
 20
-16.81250000000045
 42
0.4142135623730807
 10
288.7499999999999
 20
-17.31250000000011
 10
288.75
 20
-77.9375
 42
0.4142135623731159
 10
289.25
 20
-78.43750000000016
  0
LWPOLYLINE
  5
101C3
330
1033F
100
AcDbEntity
  8
0
100
AcDbPolyline
 90
        8
 70
     1
 43
0.0
 10
231.125
 20
-16.02500000000016
 42
0.4142135623730898
 10
231.625
 20
-16.52499999999974
 10
244.625
 20
-16.52499999999984
 42
0.4142135623730339
 10
245.1250000000001
 20
-16.02500000000035
 10
245.125
 20
-3.025000000000205
 42
0.4142135623731835
 10
244.625
 20
-2.525000000000134
 10
231.625
 20
-2.52500000000046
 42
0.4142135623730658
 10
231.125
 20
-3.024999999998983
  0
LWPOLYLINE
  5
101C4
330
1033F
100
AcDbEntity
  8
0
100
AcDbPolyline
 90
        8
 70
     1
 43
0.0
 10
27.93124999999995
 20
-73.67500000000005
 42
0.4142135623731003
 10
28.43125000000001
 20
-73.175
 10
28.43124999999995
 20
-60.17500000000003
 42
0.414213562373108
 10
27.93124999999998
 20
-59.67500000000003
 10
14.93124999999998
 20
-59.67500000000001
 42
0.4142135623731197
 10
14.43124999999995
 20
-60.17500000000001
 10
14.43124999999995
 20
-73.17500000000004
 42
0.4142135623730937
 10
14.93124999999998
 20
-73.67500000000001
  0
LWPOLYLINE
  5
101C5
330
1033F
100
AcDbEntity
  8
0
100
AcDbPolyline
 90
        8
 70
     1
 43
0.0
 10
7.287500000000025
 20
-92.22500000000001
 10
7.287500000000025
 20
-79.22500000000001
 42
-0.4142135623730866
 10
7.787500000000025
 20
-78.72500000000001
 10
20.78749999999999
 20
-78.72500000000001
 42
-0.4142135623731106
 10
21.28750000000002
 20
-79.22500000000001
 10
21.28749999999997
 20
-92.22500000000001
 42
-0.414213562373069
 10
20.78749999999998
 20
-92.72500000000004
 10
7.787499999999996
 20
-92.72500000000001
 42
-0.414213562373069
  0
LWPOLYLINE
  5
101C6
330
1033F
100
AcDbEntity
  8
0
100
AcDbPolyline
 90
        8
 70
     1
 43
0.0
 10
149.875
 20
-79.22500000000007
 42
0.4142135623730898
 10
149.3749999999999
 20
-78.72500000000008
 10
136.375
 20
-78.72500000000001
 42
0.4142135623730794
 10
135.875
 20
-79.22500000000007
 10
135.875
 20
-92.22499999999998
 42
0.4142135623730742
 10
136.375
 20
-92.72499999999998
 10
149.375
 20
-92.72500000000011
 42
0.4142135623731159
 10
149.875
 20
-92.22500000000004
  0
LWPOLYLINE
  5
101C7
330
1033F
100
AcDbEntity
  8
0
100
AcDbPolyline
 90
        8
 70
     1
 43
0.0
 10
178.7375000005933
 20
-60.17500000059329
 42
-0.4142135623730742
 10
179.2375000005933
 20
-59.67500000059336
 10
192.2375000005933
 20
-59.67500000059337
 42
-0.4142135623731263
 10
192.7375000005933
 20
-60.17500000059336
 10
192.7375000005933
 20
-73.17500000059323
 42
-0.4142135623730222
 10
192.2375000005933
 20
-73.67500000059319
 10
179.2375000005933
 20
-73.6750000005933
 42
-0.4142135623731314
 10
178.7375000005933
 20
-73.17500000059341
  0
LWPOLYLINE
  5
101C8
330
1033F
100
AcDbEntity
  8
0
100
AcDbPolyline
 90
        8
 70
     1
 43
0.0
 10
226.075
 20
-3.025000000001228
 42
0.4142135623731724
 10
225.575
 20
-2.525000000000489
 10
212.575
 20
-2.525000000001143
 42
0.4142135623731022
 10
212.075
 20
-3.025000000000176
 10
212.075
 20
-16.02500000000026
 42
0.4142135623730469
 10
212.575
 20
-16.5250000000004
 10
225.575
 20
-16.52500000000008
 42
0.4142135623730144
 10
226.075
 20
-16.02500000000042
  0
LWPOLYLINE
  5
101C9
330
1033F
100
AcDbEntity
  8
0
100
AcDbPolyline
 90
        8
 70
     1
 43
0.0
 10
59.67500000000001
 20
-3.025000000000006
 10
59.67500000000001
 20
-16.02500000000006
 42
0.4142135623730963
 10
60.17500000000001
 20
-16.52500000000002
 10
73.17500000000003
 20
-16.52500000000009
 42
0.4142135623730898
 10
73.67500000000004
 20
-16.02500000000001
 10
73.67500000000004
 20
-3.024999999999878
 42
0.41421356237311
 10
73.17500000000003
 20
-2.525000000000176
 10
60.17500000000001
 20
-2.524999999999991
 42
0.4142135623730859
  0
LWPOLYLINE
  5
176
330
1033F
100
AcDbEntity
  8
0
100
AcDbPolyline
 90
        8
 70
     1
 43
0.0
 10
101.75
 20
-99.74999999999996
 10
183.9999999999999
 20
-99.75000000000001
 42
0.4142135623731159
 10
184.4999999999999
 20
-99.24999999999997
 10
184.5
 20
-98.75000000000021
 42
0.4142135623731575
 10
184.0
 20
-98.25000000000014
 10
101.7499999999999
 20
-98.25000000000014
 42
0.4142135623731054
 10
101.25
 20
-98.75000000000006
 10
101.25
 20
-99.25
 42
0.4142135623731262
  0
LWPOLYLINE
  5
101CA
330
1033F
100
AcDbEntity
  8
0
100
AcDbPolyline
 90
        8
 70
     1
 43
0.0
 10
226.3625000005933
 20
-41.12500000059319
 42
-0.4142135623730222
 10
226.8625000005933
 20
-40.62500000059337
 10
239.8625000005933
 20
-40.62500000059322
 42
-0.4142135623731314
 10
240.3625000005933
 20
-41.12500000059315
 10
240.3625000005933
 20
-54.12500000059347
 42
-0.4142135623730742
 10
239.8625000005933
 20
-54.62500000059342
 10
226.8625000005933
 20
-54.62500000059333
 42
-0.414213562373121
 10
226.3625000005933
 20
-54.12500000059347
  0
LWPOLYLINE
  5
101CB
330
1033F
100
AcDbEntity
  8
0
100
AcDbPolyline
 90
        8
 70
     1
 43
0.0
 10
4.26249999999999
 20
-21.57500000000003
 10
3.025000000000007
 20
-21.57500000000003
 42
0.4142135623730966
 10
2.525000000000007
 20
-22.07500000000002
 10
2.525000000000007
 20
-35.07500000000002
 42
0.414213562373096
 10
3.025000000000007
 20
-35.57500000000002
 10
4.26249999999999
 20
-35.57500000000002
 42
0.4142135623730966
 10
4.76249999999999
 20
-35.07500000000002
 10
4.76249999999999
 20
-22.07500000000002
 42
0.4142135623730966
  0
LWPOLYLINE
  5
178
330
1033F
100
AcDbEntity
  8
0
100
AcDbPolyline
 90
        8
 70
     1
 43
0.0
 10
197.5000000000003
 20
3.999999999999837
 10
197.5000000000003
 20
3.499999999999
 42
0.4142135623730134
 10
198.0000000000003
 20
2.999999999999265
 10
286.75
 20
2.999999999998124
 42
0.4142135623723592
 10
287.2500000000001
 20
3.500000000000534
 10
287.25
 20
4.000000000001855
 42
0.4142135623732144
 10
286.75
 20
4.500000000001918
 10
198.0000000000003
 20
4.499999999999427
 42
0.414213562373059
  0
LWPOLYLINE
  5
101CC
330
1033F
100
AcDbEntity
  8
0
100
AcDbPolyline
 90
        8
 70
     1
 43
0.0
 10
26.81250000029664
 20
-21.57500000029667
 10
25.57500000029665
 20
-21.57500000029667
 42
0.4142135623730966
 10
25.07500000029665
 20
-22.07500000029665
 10
25.07500000029665
 20
-35.07500000029665
 42
0.414213562373096
 10
25.57500000029665
 20
-35.57500000029665
 10
26.81250000029664
 20
-35.57500000029665
 42
0.4142135623730966
 10
27.31250000029664
 20
-35.07500000029665
 10
27.31250000029664
 20
-22.07500000029665
 42
0.4142135623730966
  0
LWPOLYLINE
  5
101CD
330
1033F
100
AcDbEntity
  8
0
100
AcDbPolyline
 90
        8
 70
     1
 43
0.0
 10
30.38437500029661
 20
-40.62500000029665
 10
29.14687500029663
 20
-40.62500000029665
 42
0.4142135623730966
 10
28.64687500029663
 20
-41.12500000029664
 10
28.64687500029663
 20
-54.12500000029664
 42
0.414213562373096
 10
29.14687500029663
 20
-54.62500000029664
 10
30.38437500029661
 20
-54.62500000029664
 42
0.4142135623730966
 10
30.88437500029661
 20
-54.12500000029664
 10
30.88437500029661
 20
-41.12500000029664
 42
0.4142135623730966
  0
LINE
  5
184
330
1033F
100
AcDbEntity
  8
0
100
AcDbLine
 10
-0.9999999999999964
 20
1.500000000000004
 30
0.0
 11
0.5000000000000029
 21
1.5
 31
0.0
  0
LWPOLYLINE
  5
101CE
330
1033F
100
AcDbEntity
  8
0
100
AcDbPolyline
 90
        8
 70
     1
 43
0.0
 10
41.93462500032139
 20
-59.67500000044227
 10
40.69712500032141
 20
-59.67500000044227
 42
0.4142135623730966
 10
40.19712500032141
 20
-60.17500000044225
 10
40.19712500032141
 20
-73.17500000044224
 42
0.414213562373096
 10
40.69712500032141
 20
-73.67500000044224
 10
41.93462500032139
 20
-73.67500000044224
 42
0.4142135623730966
 10
42.43462500032139
 20
-73.17500000044224
 10
42.43462500032139
 20
-60.17500000044225
 42
0.4142135623730966
  0
LINE
  5
185
330
1033F
100
AcDbEntity
  8
0
100
AcDbLine
 10
-0.9999999999999966
 20
-96.75
 30
0.0
 11
0.4999999999999306
 21
-96.74999783746898
 31
0.0
  0
LWPOLYLINE
  5
101CF
330
1033F
100
AcDbEntity
  8
0
100
AcDbPolyline
 90
        8
 70
     1
 43
0.0
 10
116.0375000005933
 20
-59.67500000059331
 42
-0.414213562373069
 10
116.5375000005933
 20
-60.17500000059337
 10
116.5375000005933
 20
-73.17500000059324
 42
-0.4142135623731002
 10
116.0375000005933
 20
-73.67500000059331
 10
103.0375000005933
 20
-73.67500000059334
 42
-0.4142135623730951
 10
102.5375000005932
 20
-73.17500000059337
 10
102.5375000005933
 20
-60.17500000059329
 42
-0.4142135623731054
 10
103.0375000005933
 20
-59.67500000059324
  0
LINE
  5
186
330
1033F
100
AcDbEntity
  8
0
100
AcDbLine
 10
88.24999999999994
 20
1.499999999999833
 30
0.0
 11
101.25
 21
1.499999999999696
 31
0.0
  0
LWPOLYLINE
  5
101D0
330
1033F
100
AcDbEntity
  8
0
100
AcDbPolyline
 90
        8
 70
     1
 43
0.0
 10
282.725
 20
-21.57500000000003
 10
281.4875000000001
 20
-21.57500000000003
 42
0.4142135623730924
 10
280.9875000000001
 20
-22.07500000000003
 10
280.9875000000001
 20
-35.07500000000054
 42
0.4142135623730924
 10
281.4875000000001
 20
-35.57500000000054
 10
282.725
 20
-35.57500000000053
 42
0.4142135623731236
 10
283.225
 20
-35.07500000000054
 10
283.225
 20
-22.07500000000003
 42
0.4142135623731236
  0
LINE
  5
187
330
1033F
100
AcDbEntity
  8
0
100
AcDbLine
 10
88.24999999999986
 20
0.0
 30
0.0
 11
101.25
 21
0.0
 31
0.0
  0
LWPOLYLINE
  5
101D1
330
1033F
100
AcDbEntity
  8
0
100
AcDbPolyline
 90
        8
 70
     1
 43
0.0
 10
260.1750000002966
 20
-21.57500000029627
 10
258.9375000002966
 20
-21.57500000029627
 42
0.4142135623730924
 10
258.4375000002966
 20
-22.07500000029627
 10
258.4375000002966
 20
-35.07500000029678
 42
0.4142135623730924
 10
258.9375000002966
 20
-35.57500000029678
 10
260.1750000002966
 20
-35.57500000029677
 42
0.4142135623731236
 10
260.6750000002966
 20
-35.07500000029678
 10
260.6750000002966
 20
-22.07500000029627
 42
0.4142135623731236
  0
LINE
  5
188
330
1033F
100
AcDbEntity
  8
0
100
AcDbLine
 10
88.24999999999996
 20
-95.25000000000006
 30
0.0
 11
101.25
 21
-95.25000000000004
 31
0.0
  0
LWPOLYLINE
  5
101D2
330
1033F
100
AcDbEntity
  8
0
100
AcDbPolyline
 90
        8
 70
     1
 43
0.0
 10
245.0528750002719
 20
-40.62500000044213
 10
243.8153750002719
 20
-40.62500000044213
 42
0.4142135623730924
 10
243.3153750002719
 20
-41.12500000044213
 10
243.3153750002719
 20
-54.12500000044264
 42
0.4142135623730924
 10
243.8153750002719
 20
-54.62500000044264
 10
245.0528750002719
 20
-54.62500000044261
 42
0.4142135623731236
 10
245.5528750002719
 20
-54.12500000044264
 10
245.5528750002719
 20
-41.12500000044213
 42
0.4142135623731236
  0
LINE
  5
189
330
1033F
100
AcDbEntity
  8
0
100
AcDbLine
 10
88.24999999999996
 20
-96.75000000000006
 30
0.0
 11
101.25
 21
-96.75000000000006
 31
0.0
  0
LWPOLYLINE
  5
101D3
330
1033F
100
AcDbEntity
  8
0
100
AcDbPolyline
 90
        8
 70
     1
 43
0.0
 10
237.5531250002966
 20
-59.67500000029663
 10
236.3156250002966
 20
-59.67500000029663
 42
0.4142135623730924
 10
235.8156250002966
 20
-60.17500000029663
 10
235.8156250002966
 20
-73.17500000029713
 42
0.4142135623730924
 10
236.3156250002966
 20
-73.67500000029713
 10
237.5531250002966
 20
-73.6750000002971
 42
0.4142135623731236
 10
238.0531250002966
 20
-73.17500000029713
 10
238.0531250002966
 20
-60.17500000029663
 42
0.4142135623731236
  0
LINE
  5
190
330
1033F
100
AcDbEntity
  8
0
100
AcDbLine
 10
184.5000000000007
 20
1.5000000000005
 30
0.0
 11
197.5000029429793
 21
1.500000022351742
 31
0.0
  0
LWPOLYLINE
  5
101D4
330
1033F
100
AcDbEntity
  8
0
100
AcDbPolyline
 90
        8
 70
     1
 43
0.0
 10
140.6375000005933
 20
-60.17500000059326
 42
-0.4142135623731054
 10
141.1375000005933
 20
-59.67500000059336
 10
154.1375000005933
 20
-59.67500000059337
 42
-0.4142135623731002
 10
154.6375000005933
 20
-60.17500000059337
 10
154.6375000005933
 20
-73.1750000005933
 42
-0.4142135623730898
 10
154.1375000005933
 20
-73.67500000059326
 10
141.1375000005933
 20
-73.6750000005933
 42
-0.4142135623730951
 10
140.6375000005933
 20
-73.17500000059327
  0
LINE
  5
191
330
1033F
100
AcDbEntity
  8
0
100
AcDbLine
 10
184.5000000000012
 20
0.0
 30
0.0
 11
197.4999999999984
 21
0.0
 31
0.0
  0
LWPOLYLINE
  5
101D5
330
1033F
100
AcDbEntity
  8
0
100
AcDbPolyline
 90
        8
 70
     1
 43
0.0
 10
282.7250000000001
 20
-78.72499999999997
 10
281.4875000000001
 20
-78.72499999999997
 42
0.4142135623730898
 10
280.9875000000001
 20
-79.22499999999995
 10
280.9875000000001
 20
-92.22500000000048
 42
0.414213562373095
 10
281.4875000000001
 20
-92.72500000000046
 10
282.7250000000001
 20
-92.72500000000045
 42
0.4142135623731159
 10
283.2250000000001
 20
-92.22500000000048
 10
283.2250000000001
 20
-79.22499999999995
 42
0.414213562373121
  0
LINE
  5
192
330
1033F
100
AcDbEntity
  8
0
100
AcDbLine
 10
88.24999999999994
 20
1.499999999999833
 30
0.0
 11
59.93749999999974
 21
1.500000000000731
 31
0.0
  0
LWPOLYLINE
  5
101D6
330
1033F
100
AcDbEntity
  8
0
100
AcDbPolyline
 90
        8
 70
     1
 43
0.0
 10
135.0875000005933
 20
-59.67500000059331
 42
-0.414213562373069
 10
135.5875000005933
 20
-60.17500000059326
 10
135.5875000005933
 20
-73.17500000059334
 42
-0.4142135623731002
 10
135.0875000005933
 20
-73.67500000059326
 10
122.0875000005933
 20
-73.67500000059329
 42
-0.4142135623730951
 10
121.5875000005933
 20
-73.1750000005933
 10
121.5875000005933
 20
-60.17500000059332
 42
-0.4142135623731054
 10
122.0875000005933
 20
-59.67500000059336
  0
LINE
  5
193
330
1033F
100
AcDbEntity
  8
0
100
AcDbLine
 10
88.24999999999986
 20
0.0
 30
0.0
 11
59.93749999999977
 21
0.0
 31
0.0
  0
LWPOLYLINE
  5
101D7
330
1033F
100
AcDbEntity
  8
0
100
AcDbPolyline
 90
       10
 70
     1
 43
0.0
 10
261.9375
 20
-92.22500000000049
 10
261.9375
 20
-79.22499999999998
 42
0.414213562373121
 10
261.4375
 20
-78.72499999999998
 10
260.1999999999999
 20
-78.72499999999998
 10
257.675
 20
-78.72500000000016
 42
0.4142135623730898
 10
257.175
 20
-79.22500000000015
 10
257.175
 20
-92.22500000000068
 42
0.414213562373095
 10
257.675
 20
-92.72500000000066
 10
260.1999999999999
 20
-92.72500000000049
 10
261.4375
 20
-92.72500000000046
 42
0.4142135623731159
  0
LINE
  5
194
330
1033F
100
AcDbEntity
  8
0
100
AcDbLine
 10
101.25
 20
1.499999999999696
 30
0.0
 11
129.5625
 21
1.499999999999396
 31
0.0
  0
LWPOLYLINE
  5
101D8
330
1033F
100
AcDbEntity
  8
0
100
AcDbPolyline
 90
       10
 70
     1
 43
0.0
 10
237.6250000000001
 20
-78.72499999999988
 10
236.3875
 20
-78.72499999999988
 10
233.8625
 20
-78.72500000000011
 42
0.4142135623730898
 10
233.3625
 20
-79.2250000000001
 10
233.3625
 20
-92.22500000000062
 42
0.414213562373095
 10
233.8625
 20
-92.7250000000006
 10
236.3875
 20
-92.72500000000038
 10
237.6250000000001
 20
-92.72500000000036
 42
0.4142135623731159
 10
238.1250000000001
 20
-92.22500000000039
 10
238.1250000000001
 20
-79.22499999999987
 42
0.414213562373121
  0
LINE
  5
195
330
1033F
100
AcDbEntity
  8
0
100
AcDbLine
 10
101.25
 20
0.0
 30
0.0
 11
129.5625
 21
0.0
 31
0.0
  0
LWPOLYLINE
  5
101D9
330
1033F
100
AcDbEntity
  8
0
100
AcDbPolyline
 90
        8
 70
     1
 43
0.0
 10
45.38750000059328
 20
-60.17500000059329
 42
-0.4142135623731054
 10
45.88750000059328
 20
-59.67500000059331
 10
58.88750000059325
 20
-59.67500000059331
 42
-0.4142135623730951
 10
59.38750000059332
 20
-60.17500000059327
 10
59.38750000059325
 20
-73.1750000005933
 42
-0.4142135623730951
 10
58.88750000059329
 20
-73.67500000059329
 10
45.88750000059322
 20
-73.67500000059331
 42
-0.4142135623730951
 10
45.38750000059332
 20
-73.17500000059327
  0
LINE
  5
196
330
1033F
100
AcDbEntity
  8
0
100
AcDbLine
 10
59.43749999999977
 20
1.000000000000823
 30
0.0
 11
59.43749999999977
 21
0.4999999999999983
 31
0.0
  0
LWPOLYLINE
  5
101DA
330
1033F
100
AcDbEntity
  8
0
100
AcDbPolyline
 90
        8
 70
     1
 43
0.0
 10
212.075
 20
-79.2249999999999
 42
-0.4142135623730898
 10
212.575
 20
-78.72499999999991
 10
213.8125000000001
 20
-78.72499999999992
 42
-0.414213562373121
 10
214.3125000000001
 20
-79.2249999999999
 10
214.3125000000001
 20
-92.22500000000042
 42
-0.4142135623731159
 10
213.8125000000001
 20
-92.72500000000039
 10
212.575
 20
-92.72500000000043
 42
-0.414213562373095
 10
212.075
 20
-92.22500000000042
  0
LINE
  5
197
330
1033F
100
AcDbEntity
  8
0
100
AcDbLine
 10
130.0625
 20
0.9999999999993723
 30
0.0
 11
130.0625
 21
0.499999999999981
 31
0.0
  0
LWPOLYLINE
  5
101DB
330
1033F
100
AcDbEntity
  8
0
100
AcDbPolyline
 90
        8
 70
     1
 43
0.0
 10
254.1500000005933
 20
-21.57500000059305
 42
-0.414213562373134
 10
254.6500000005933
 20
-22.07500000059366
 10
254.6500000005934
 20
-35.07500000059301
 42
-0.4142135623730768
 10
254.1500000005933
 20
-35.57500000059343
 10
241.1500000005933
 20
-35.57500000059338
 42
-0.4142135623731002
 10
240.6500000005933
 20
-35.07500000059329
 10
240.6500000005933
 20
-22.07500000059331
 42
-0.4142135623730482
 10
241.1500000005933
 20
-21.57500000059349
  0
LINE
  5
198
330
1033F
100
AcDbEntity
  8
0
100
AcDbLine
 10
88.24999999999996
 20
-95.25000000000006
 30
0.0
 11
59.93750000000009
 21
-95.25
 31
0.0
  0
LWPOLYLINE
  5
101DC
330
1033F
100
AcDbEntity
  8
0
100
AcDbPolyline
 90
        8
 70
     1
 43
0.0
 10
71.43750000000001
 20
-79.22500000000001
 42
-0.4142135623730898
 10
71.93750000000001
 20
-78.72500000000002
 10
73.17500000000007
 20
-78.72500000000002
 42
-0.414213562373121
 10
73.67500000000007
 20
-79.22500000000001
 10
73.67500000000007
 20
-92.22500000000053
 42
-0.4142135623731159
 10
73.17500000000007
 20
-92.7250000000005
 10
71.93750000000001
 20
-92.72500000000053
 42
-0.414213562373095
 10
71.4375
 20
-92.22500000000053
  0
LINE
  5
199
330
1033F
100
AcDbEntity
  8
0
100
AcDbLine
 10
88.24999999999996
 20
-96.75000000000006
 30
0.0
 11
59.9375
 21
-96.75000000000006
 31
0.0
  0
LWPOLYLINE
  5
101DD
330
1033F
100
AcDbEntity
  8
0
100
AcDbPolyline
 90
       10
 70
     1
 43
0.0
 10
50.64999999999992
 20
-92.72500000000055
 10
51.88749999999999
 20
-92.72500000000053
 42
0.4142135623731159
 10
52.38749999999999
 20
-92.22500000000056
 10
52.38749999999999
 20
-79.22500000000004
 42
0.414213562373121
 10
51.88749999999999
 20
-78.72500000000005
 10
50.64999999999992
 20
-78.72500000000005
 10
48.125
 20
-78.72500000000005
 42
0.4142135623730898
 10
47.625
 20
-79.22500000000004
 10
47.625
 20
-92.22500000000056
 42
0.414213562373095
 10
48.125
 20
-92.72500000000055
  0
LINE
  5
200
330
1033F
100
AcDbEntity
  8
0
100
AcDbLine
 10
101.25
 20
-95.25000000000004
 30
0.0
 11
129.5624999999999
 21
-95.25
 31
0.0
  0
LWPOLYLINE
  5
101DE
330
1033F
100
AcDbEntity
  8
0
100
AcDbPolyline
 90
        8
 70
     1
 43
0.0
 10
126.3500000005933
 20
-22.07500000059336
 42
-0.4142135623730847
 10
126.8500000005933
 20
-21.57500000059335
 10
139.8500000005932
 20
-21.57500000059319
 42
-0.4142135623730951
 10
140.3500000005932
 20
-22.07500000059335
 10
140.3500000005932
 20
-35.07500000059339
 42
-0.4142135623731054
 10
139.8500000005932
 20
-35.57500000059338
 10
126.8500000005933
 20
-35.57500000059328
 42
-0.4142135623730716
 10
126.3500000005933
 20
-35.07500000059328
  0
LINE
  5
201
330
1033F
100
AcDbEntity
  8
0
100
AcDbLine
 10
101.25
 20
-96.75000000000006
 30
0.0
 11
129.5625
 21
-96.75000000000006
 31
0.0
  0
LWPOLYLINE
  5
101DF
330
1033F
100
AcDbEntity
  8
0
100
AcDbPolyline
 90
       10
 70
     1
 43
0.0
 10
25.55000000000007
 20
-92.7250000000005
 10
28.07500000000002
 20
-92.72500000000049
 42
0.4142135623731159
 10
28.57500000000002
 20
-92.22500000000052
 10
28.57500000000002
 20
-79.225
 42
0.414213562373121
 10
28.07500000000002
 20
-78.72500000000001
 10
26.83749999999998
 20
-78.72500000000001
 10
24.31250000000003
 20
-78.72500000000002
 42
0.4142135623730898
 10
23.81250000000003
 20
-79.22500000000001
 10
23.81250000000003
 20
-92.22500000000053
 42
0.414213562373095
 10
24.31250000000003
 20
-92.72500000000052
  0
LINE
  5
202
330
1033F
100
AcDbEntity
  8
0
100
AcDbLine
 10
130.0625
 20
-96.24999999999999
 30
0.0
 11
130.0624999999999
 21
-95.74999999999996
 31
0.0
  0
LWPOLYLINE
  5
101E0
330
1033F
100
AcDbEntity
  8
0
100
AcDbPolyline
 90
        8
 70
     1
 43
0.0
 10
3.024999999999951
 20
-92.72500000000052
 10
4.262500000000019
 20
-92.7250000000005
 42
0.4142135623731159
 10
4.762500000000019
 20
-92.22500000000053
 10
4.762500000000019
 20
-79.22500000000001
 42
0.414213562373121
 10
4.262500000000019
 20
-78.72500000000002
 10
3.024999999999951
 20
-78.72500000000002
 42
0.4142135623730898
 10
2.524999999999951
 20
-79.22500000000001
 10
2.524999999999951
 20
-92.22500000000053
 42
0.414213562373095
  0
LINE
  5
203
330
1033F
100
AcDbEntity
  8
0
100
AcDbLine
 10
59.43749999999996
 20
-95.75000000000014
 30
0.0
 11
59.43749999999996
 21
-96.25000000000001
 31
0.0
  0
LWPOLYLINE
  5
101E1
330
1033F
100
AcDbEntity
  8
0
100
AcDbPolyline
 90
        8
 70
     1
 43
0.0
 10
156.663
 20
-78.72500000000011
 10
152.9
 20
-78.72500000000011
 42
0.4142135623731159
 10
152.4
 20
-79.22500000000011
 10
152.4
 20
-92.22500000000012
 42
0.4142135623731262
 10
152.9
 20
-92.72500000000012
 10
156.663
 20
-92.72500000000012
 42
0.414213562373095
 10
157.163
 20
-92.22500000000012
 10
157.163
 20
-79.22500000000011
 42
0.4142135623730898
  0
LINE
  5
204
330
1033F
100
AcDbEntity
  8
0
100
AcDbLine
 10
184.5000000000007
 20
1.5000000000005
 30
0.0
 11
156.1874999991412
 21
1.499999951322085
 31
0.0
  0
LWPOLYLINE
  5
101E2
330
1033F
100
AcDbEntity
  8
0
100
AcDbPolyline
 90
        8
 70
     1
 43
0.0
 10
235.1000000005932
 20
-21.57500000059322
 42
-0.414213562373134
 10
235.6000000005932
 20
-22.07500000059331
 10
235.6000000005934
 20
-35.07500000059321
 42
-0.4142135623730768
 10
235.1000000005934
 20
-35.57500000059322
 10
222.1000000005932
 20
-35.57500000059329
 42
-0.4142135623731002
 10
221.6000000005932
 20
-35.07500000059335
 10
221.6000000005932
 20
-22.07500000059339
 42
-0.4142135623730482
 10
222.1000000005932
 20
-21.57500000059335
  0
LINE
  5
205
330
1033F
100
AcDbEntity
  8
0
100
AcDbLine
 10
184.5000000000012
 20
0.0
 30
0.0
 11
156.1875000000009
 21
0.0
 31
0.0
  0
LWPOLYLINE
  5
101E3
330
1033F
100
AcDbEntity
  8
0
100
AcDbPolyline
 90
        8
 70
     1
 43
0.0
 10
129.087
 20
-78.72499999999998
 10
132.85
 20
-78.72499999999998
 42
-0.4142135623730898
 10
133.35
 20
-79.22499999999998
 10
133.35
 20
-92.22499999999997
 42
-0.4142135623730742
 10
132.85
 20
-92.72499999999997
 10
129.087
 20
-92.72499999999997
 42
-0.4142135623730534
 10
128.587
 20
-92.22499999999997
 10
128.587
 20
-79.22499999999998
 42
-0.414213562373069
  0
LINE
  5
206
330
1033F
100
AcDbEntity
  8
0
100
AcDbLine
 10
197.5000029429793
 20
1.500000022351742
 30
0.0
 11
225.8125019611252
 21
1.500000071030155
 31
0.0
  0
LWPOLYLINE
  5
101E4
330
1033F
100
AcDbEntity
  8
0
100
AcDbPolyline
 90
        8
 70
     1
 43
0.0
 10
93.01250000059323
 20
-41.12500000059327
 42
-0.4142135623730898
 10
93.51250000059326
 20
-40.62500000059333
 10
106.5125000005933
 20
-40.62500000059333
 42
-0.4142135623730951
 10
107.0125000005933
 20
-41.12500000059327
 10
107.0125000005933
 20
-54.12500000059327
 42
-0.4142135623730898
 10
106.5125000005933
 20
-54.62500000059325
 10
93.51250000059326
 20
-54.62500000059327
 42
-0.4142135623730951
 10
93.01250000059326
 20
-54.1250000005933
  0
LINE
  5
207
330
1033F
100
AcDbEntity
  8
0
100
AcDbLine
 10
197.4999999999984
 20
0.0
 30
0.0
 11
225.8125051727463
 21
0.0
 31
0.0
  0
LWPOLYLINE
  5
101E5
330
1033F
100
AcDbEntity
  8
0
100
AcDbPolyline
 90
        8
 70
     1
 43
0.0
 10
101.7500000005933
 20
-21.57500000059325
 42
-0.4142135623730951
 10
102.2500000005933
 20
-22.07500000059333
 10
102.2500000005933
 20
-35.07500000059332
 42
-0.4142135623731054
 10
101.7500000005933
 20
-35.57500000059332
 10
88.75000000059326
 20
-35.57500000059323
 42
-0.4142135623730924
 10
88.25000000059325
 20
-35.07500000059329
 10
88.25000000059326
 20
-22.07500000059322
 42
-0.4142135623731054
 10
88.75000000059325
 20
-21.57500000059329
  0
LINE
  5
208
330
1033F
100
AcDbEntity
  8
0
100
AcDbLine
 10
226.3125019619838
 20
0.9999990900366005
 30
0.0
 11
226.3125009809818
 21
0.4999948272511099
 31
0.0
  0
LWPOLYLINE
  5
101E6
330
1033F
100
AcDbEntity
  8
0
100
AcDbPolyline
 90
        8
 70
     1
 43
0.0
 10
159.6875000005933
 20
-60.17500000059337
 42
-0.4142135623730951
 10
160.1875000005933
 20
-59.67500000059341
 10
173.1875000005933
 20
-59.67500000059341
 42
-0.4142135623731263
 10
173.6875000005933
 20
-60.17500000059344
 10
173.6875000005933
 20
-73.17500000059322
 42
-0.4142135623730222
 10
173.1875000005933
 20
-73.67500000059326
 10
160.1875000005933
 20
-73.67500000059327
 42
-0.4142135623730951
 10
159.6875000005933
 20
-73.17500000059323
  0
LINE
  5
209
330
1033F
100
AcDbEntity
  8
0
100
AcDbLine
 10
155.6875000000009
 20
0.999999951322002
 30
0.0
 11
155.6875000000009
 21
0.4999999999999008
 31
0.0
  0
LWPOLYLINE
  5
101E7
330
1033F
100
AcDbEntity
  8
0
100
AcDbPolyline
 90
        8
 70
     1
 43
0.0
 10
83.48750000059336
 20
-60.17500000059324
 10
83.48750000059331
 20
-73.1750000005933
 42
0.4142135623730951
 10
83.98750000059331
 20
-73.67500000059333
 10
96.9875000005933
 20
-73.6750000005933
 42
0.4142135623730898
 10
97.48750000059326
 20
-73.17500000059336
 10
97.48750000059331
 20
-60.17500000059327
 42
0.4142135623731002
 10
96.98750000059331
 20
-59.67500000059327
 10
83.98750000059336
 20
-59.67500000059324
 42
0.4142135623731054
  0
LINE
  5
210
330
1033F
100
AcDbEntity
  8
0
100
AcDbLine
 10
184.4999999999996
 20
-95.25
 30
0.0
 11
197.5000000000012
 21
-95.25000000000004
 31
0.0
  0
LWPOLYLINE
  5
101E8
330
1033F
100
AcDbEntity
  8
0
100
AcDbPolyline
 90
        8
 70
     1
 43
0.0
 10
183.5000000005933
 20
-22.07500000059319
 10
183.5000000005933
 20
-35.07500000059331
 42
0.4142135623731314
 10
184.0000000005933
 20
-35.57500000059332
 10
197.0000000005933
 20
-35.57500000059348
 42
0.4142135623730456
 10
197.5000000005934
 20
-35.07500000059322
 10
197.5000000005933
 20
-22.07500000059336
 42
0.4142135623731028
 10
197.0000000005933
 20
-21.5750000005937
 10
184.0000000005933
 20
-21.57500000059335
 42
0.4142135623730794
  0
LINE
  5
211
330
1033F
100
AcDbEntity
  8
0
100
AcDbLine
 10
184.4999999999997
 20
-96.75000000000013
 30
0.0
 11
197.5000000000008
 21
-96.75000000000013
 31
0.0
  0
LWPOLYLINE
  5
101E9
330
1033F
100
AcDbEntity
  8
0
100
AcDbPolyline
 90
        8
 70
     1
 43
0.0
 10
54.9125000005933
 20
-41.12500000059327
 42
-0.4142135623730951
 10
55.41250000059328
 20
-40.62500000059332
 10
68.4125000005933
 20
-40.62500000059327
 42
-0.4142135623730951
 10
68.91250000059327
 20
-41.1250000005933
 10
68.9125000005933
 20
-54.12500000059327
 42
-0.4142135623730951
 10
68.4125000005933
 20
-54.62500000059327
 10
55.4125000005933
 20
-54.62500000059327
 42
-0.4142135623730951
 10
54.91250000059333
 20
-54.12500000059325
  0
LINE
  5
212
330
1033F
100
AcDbEntity
  8
0
100
AcDbLine
 10
197.5000000000012
 20
-95.25000000000004
 30
0.0
 11
225.812500000001
 21
-95.25000000000011
 31
0.0
  0
LWPOLYLINE
  5
101EA
330
1033F
100
AcDbEntity
  8
0
100
AcDbPolyline
 90
        8
 70
     1
 43
0.0
 10
112.0625000005933
 20
-41.12500000059333
 42
-0.4142135623730898
 10
112.5625000005933
 20
-40.62500000059327
 10
125.5625000005933
 20
-40.6250000005933
 42
-0.4142135623730742
 10
126.0625000005933
 20
-41.12500000059327
 10
126.0625000005933
 20
-54.12500000059327
 42
-0.4142135623731002
 10
125.5625000005933
 20
-54.62500000059333
 10
112.5625000005933
 20
-54.62500000059327
 42
-0.4142135623730951
 10
112.0625000005933
 20
-54.1250000005933
  0
LINE
  5
213
330
1033F
100
AcDbEntity
  8
0
100
AcDbLine
 10
197.5000000000008
 20
-96.75000000000013
 30
0.0
 11
225.8125000000009
 21
-96.75000000000013
 31
0.0
  0
LWPOLYLINE
  5
101EB
330
1033F
100
AcDbEntity
  8
0
100
AcDbPolyline
 90
        8
 70
     1
 43
0.0
 10
150.1625000005933
 20
-41.12500000059337
 42
-0.4142135623730898
 10
150.6625000005933
 20
-40.62500000059327
 10
163.6625000005933
 20
-40.6250000005934
 42
-0.414213562373121
 10
164.1625000005933
 20
-41.12500000059332
 10
164.1625000005933
 20
-54.12500000059327
 42
-0.4142135623730222
 10
163.6625000005933
 20
-54.62500000059333
 10
150.6625000005933
 20
-54.62500000059325
 42
-0.4142135623730951
 10
150.1625000005933
 20
-54.12500000059327
  0
LINE
  5
214
330
1033F
100
AcDbEntity
  8
0
100
AcDbLine
 10
184.4999999999997
 20
-96.75000000000013
 30
0.0
 11
156.1874999999997
 21
-96.75000000000013
 31
0.0
  0
LWPOLYLINE
  5
101EC
330
1033F
100
AcDbEntity
  8
0
100
AcDbPolyline
 90
        8
 70
     1
 43
0.0
 10
73.96250000059322
 20
-41.12500000059336
 42
-0.4142135623730951
 10
74.46250000059325
 20
-40.62500000059327
 10
87.46250000059331
 20
-40.62500000059322
 42
-0.4142135623730742
 10
87.96250000059328
 20
-41.12500000059327
 10
87.96250000059331
 20
-54.12500000059325
 42
-0.4142135623731002
 10
87.46250000059331
 20
-54.62500000059323
 10
74.46250000059322
 20
-54.6250000005933
 42
-0.4142135623730951
 10
73.96250000059325
 20
-54.1250000005933
  0
LINE
  5
215
330
1033F
100
AcDbEntity
  8
0
100
AcDbLine
 10
184.4999999999996
 20
-95.25
 30
0.0
 11
156.1874999999997
 21
-95.24999999999993
 31
0.0
  0
LWPOLYLINE
  5
101ED
330
1033F
100
AcDbEntity
  8
0
100
AcDbPolyline
 90
        8
 70
     1
 43
0.0
 10
188.2625000005933
 20
-41.12500000059322
 42
-0.4142135623730222
 10
188.7625000005933
 20
-40.62500000059333
 10
201.7625000005933
 20
-40.62500000059333
 42
-0.4142135623731314
 10
202.2625000005933
 20
-41.12500000059333
 10
202.2625000005933
 20
-54.12500000059327
 42
-0.4142135623730742
 10
201.7625000005933
 20
-54.62500000059327
 10
188.7625000005933
 20
-54.62500000059333
 42
-0.414213562373121
 10
188.2625000005933
 20
-54.12500000059306
  0
LINE
  5
216
330
1033F
100
AcDbEntity
  8
0
100
AcDbLine
 10
155.6874999999997
 20
-95.74999999999997
 30
0.0
 11
155.6874999999997
 21
-96.25000000000011
 31
0.0
  0
LWPOLYLINE
  5
101EE
330
1033F
100
AcDbEntity
  8
0
100
AcDbPolyline
 90
        8
 70
     1
 43
0.0
 10
69.20000000059326
 20
-22.07500000059326
 42
-0.4142135623730977
 10
69.70000000059325
 20
-21.57500000059331
 10
82.70000000059322
 20
-21.57500000059332
 42
-0.4142135623730742
 10
83.20000000059325
 20
-22.07500000059325
 10
83.2000000005932
 20
-35.07500000059332
 42
-0.4142135623731002
 10
82.70000000059323
 20
-35.57500000059328
 10
69.70000000059323
 20
-35.57500000059331
 42
-0.4142135623730977
 10
69.20000000059325
 20
-35.07500000059326
  0
LINE
  5
217
330
1033F
100
AcDbEntity
  8
0
100
AcDbLine
 10
226.3125000000011
 20
-95.7500000000003
 30
0.0
 11
226.3125000000009
 21
-96.25000000000023
 31
0.0
  0
LWPOLYLINE
  5
101EF
330
1033F
100
AcDbEntity
  8
0
100
AcDbPolyline
 90
        8
 70
     1
 43
0.0
 10
164.4500000005933
 20
-22.07500000059322
 42
-0.414213562373082
 10
164.9500000005933
 20
-21.57500000059329
 10
177.9500000005933
 20
-21.57500000059322
 42
-0.414213562373134
 10
178.4500000005933
 20
-22.07500000059338
 10
178.4500000005933
 20
-35.07500000059329
 42
-0.4142135623730768
 10
177.9500000005933
 20
-35.57500000059329
 10
164.9500000005933
 20
-35.57500000059323
 42
-0.4142135623731314
 10
164.4500000005933
 20
-35.07500000059323
  0
LINE
  5
218
330
1033F
100
AcDbEntity
  8
0
100
AcDbLine
 10
285.2499999999996
 20
1.500000000003205
 30
0.0
 11
286.7500344846346
 21
1.499954911881009
 31
0.0
  0
LWPOLYLINE
  5
101F0
330
1033F
100
AcDbEntity
  8
0
100
AcDbPolyline
 90
        8
 70
     1
 43
0.0
 10
64.43750000059333
 20
-60.17500000059324
 42
-0.4142135623731054
 10
64.93750000059329
 20
-59.67500000059329
 10
77.93750000059327
 20
-59.67500000059331
 42
-0.4142135623730951
 10
78.4375000005933
 20
-60.17500000059327
 10
78.43750000059332
 20
-73.17500000059324
 42
-0.4142135623730951
 10
77.93750000059327
 20
-73.6750000005933
 10
64.93750000059329
 20
-73.67500000059329
 42
-0.4142135623730951
 10
64.43750000059326
 20
-73.17500000059331
  0
LINE
  5
219
330
1033F
100
AcDbEntity
  8
0
100
AcDbLine
 10
285.25
 20
-96.74999999999997
 30
0.0
 11
286.7500000000422
 21
-96.75000000000114
 31
0.0
  0
LINE
  5
220
330
1033F
100
AcDbEntity
  8
0
100
AcDbLine
 10
0.5000000000000029
 20
1.5
 30
0.0
 11
29.50000000000005
 21
1.499999999999343
 31
0.0
  0
LINE
  5
221
330
1033F
100
AcDbEntity
  8
0
100
AcDbLine
 10
0.4999999999999982
 20
-0.0000000000000001
 30
0.0
 11
29.49999999999999
 21
-0.0000000000006637
 31
0.0
  0
LINE
  5
222
330
1033F
100
AcDbEntity
  8
0
100
AcDbLine
 10
30.00000000000001
 20
0.9999999999993653
 30
0.0
 11
29.99999999999999
 21
0.499999999999317
 31
0.0
  0
LINE
  5
223
330
1033F
100
AcDbEntity
  8
0
100
AcDbLine
 10
285.2499999999996
 20
1.500000000003205
 30
0.0
 11
256.250015037915
 21
1.500871683206851
 31
0.0
  0
LINE
  5
224
330
1033F
100
AcDbEntity
  8
0
100
AcDbLine
 10
285.25
 20
-0.0000000000000699
 30
0.0
 11
256.2500000000002
 21
0.0000002574778915
 31
0.0
  0
LINE
  5
225
330
1033F
100
AcDbEntity
  8
0
100
AcDbLine
 10
255.7500000088865
 20
1.000871687872052
 30
0.0
 11
255.7500000044394
 21
0.5000002619171402
 31
0.0
  0
LINE
  5
226
330
1033F
100
AcDbEntity
  8
0
100
AcDbLine
 10
0.4999999999999306
 20
-95.25
 30
0.0
 11
29.50000000000033
 21
-95.25000000002333
 31
0.0
  0
LINE
  5
227
330
1033F
100
AcDbEntity
  8
0
100
AcDbLine
 10
0.4999999999999306
 20
-96.74999783746898
 30
0.0
 11
29.49999999999907
 21
-96.74999783749249
 31
0.0
  0
LINE
  5
228
330
1033F
100
AcDbEntity
  8
0
100
AcDbLine
 10
29.99999999999993
 20
-95.75000000002369
 30
0.0
 11
29.99999999999949
 21
-96.24999783749286
 31
0.0
  0
LINE
  5
229
330
1033F
100
AcDbEntity
  8
0
100
AcDbLine
 10
285.25
 20
-95.24999999999993
 30
0.0
 11
256.2500000000006
 21
-95.24999999997729
 31
0.0
  0
LINE
  5
230
330
1033F
100
AcDbEntity
  8
0
100
AcDbLine
 10
285.25
 20
-96.74999999999997
 30
0.0
 11
256.2499999999994
 21
-96.74999999997739
 31
0.0
  0
LINE
  5
231
330
1033F
100
AcDbEntity
  8
0
100
AcDbLine
 10
255.75
 20
-95.74999999997692
 30
0.0
 11
255.7499999999997
 21
-96.24999999997699
 31
0.0
  0
LINE
  5
232
330
1033F
100
AcDbEntity
  8
0
100
AcDbLine
 10
-1.500000000000004
 20
0.9999999999999976
 30
0.0
 11
-1.499999999999992
 21
-0.4999999999999982
 31
0.0
  0
LINE
  5
233
330
1033F
100
AcDbEntity
  8
0
100
AcDbLine
 10
-0.0000000000000001
 20
-0.4999999999999982
 30
0.0
 11
-0.0000000000001594
 21
-41.49999999999999
 31
0.0
  0
LINE
  5
234
330
1033F
100
AcDbEntity
  8
0
100
AcDbLine
 10
-1.499999999999992
 20
-0.4999999999999982
 30
0.0
 11
-1.499999999999673
 21
-41.5
 31
0.0
  0
LINE
  5
235
330
1033F
100
AcDbEntity
  8
0
100
AcDbLine
 10
-0.9999999999996647
 20
-42.0
 30
0.0
 11
-0.5000000000001488
 21
-41.99999999999999
 31
0.0
  0
LINE
  5
236
330
1033F
100
AcDbEntity
  8
0
100
AcDbLine
 10
-1.500000000119866
 20
-96.24999999996874
 30
0.0
 11
-1.500000000115206
 21
-94.74999999999532
 31
0.0
  0
LINE
  5
237
330
1033F
100
AcDbEntity
  8
0
100
AcDbLine
 10
-1.500000000115206
 20
-94.74999999999532
 30
0.0
 11
-1.499999999987509
 21
-53.74999999999531
 31
0.0
  0
LINE
  5
238
330
1033F
100
AcDbEntity
  8
0
100
AcDbLine
 10
-0.0000000000000174
 20
-94.75
 30
0.0
 11
0.0000000001276814
 21
-53.74999999999996
 31
0.0
  0
LINE
  5
239
330
1033F
100
AcDbEntity
  8
0
100
AcDbLine
 10
-0.9999999999859631
 20
-53.24999999999687
 30
0.0
 11
-0.4999999998707436
 21
-53.24999999999843
 31
0.0
  0
LINE
  5
240
330
1033F
100
AcDbEntity
  8
0
100
AcDbLine
 10
287.2499999999999
 20
-94.75
 30
0.0
 11
287.25
 21
-96.2500000000439
 31
0.0
  0
LINE
  5
241
330
1033F
100
AcDbEntity
  8
0
100
AcDbLine
 10
287.25
 20
-0.5000000000082088
 30
0.0
 11
287.25
 21
0.9999743682976738
 31
0.0
  0
LINE
  5
242
330
1033F
100
AcDbEntity
  8
0
100
AcDbLine
 10
285.75
 20
-94.75
 30
0.0
 11
285.7499893847238
 21
-53.75000012945524
 31
0.0
  0
LINE
  5
243
330
1033F
100
AcDbEntity
  8
0
100
AcDbLine
 10
287.2499999999999
 20
-94.75
 30
0.0
 11
287.2499999999998
 21
-53.7499999999996
 31
0.0
  0
LINE
  5
244
330
1033F
100
AcDbEntity
  8
0
100
AcDbLine
 10
286.249989384723
 20
-53.25000000000088
 30
0.0
 11
286.7500000000001
 21
-53.25000000000034
 31
0.0
  0
LINE
  5
245
330
1033F
100
AcDbEntity
  8
0
100
AcDbLine
 10
285.75
 20
-0.500000000008205
 30
0.0
 11
285.7499996359795
 21
-41.49999999556898
 31
0.0
  0
LINE
  5
246
330
1033F
100
AcDbEntity
  8
0
100
AcDbLine
 10
287.25
 20
-0.5000000000082088
 30
0.0
 11
287.2499999999999
 21
-41.50000000000829
 31
0.0
  0
LINE
  5
247
330
1033F
100
AcDbEntity
  8
0
100
AcDbLine
 10
286.2499996359794
 20
-42.00000000000826
 30
0.0
 11
286.75
 21
-42.00000000000826
 31
0.0
  0
ARC
  5
248
330
1033F
100
AcDbEntity
  8
0
100
AcDbCircle
 10
29.50000000000004
 20
0.9999999999993718
 30
0.0
 40
0.4999999999999716
100
AcDbArc
 50
0.0
 51
89.99999999999837
  0
ARC
  5
249
330
1033F
100
AcDbEntity
  8
0
100
AcDbCircle
 10
29.49999999999999
 20
0.4999999999993283
 30
0.0
 40
0.4999999999999921
100
AcDbArc
 50
269.9999999999992
 51
0.0
  0
ARC
  5
250
330
1033F
100
AcDbEntity
  8
0
100
AcDbCircle
 10
-0.9999999999996736
 20
-41.5
 30
0.0
 40
0.4999999999999996
100
AcDbArc
 50
180.0
 51
270.000000000001
  0
ARC
  5
251
330
1033F
100
AcDbEntity
  8
0
100
AcDbCircle
 10
-0.5000000000001577
 20
-41.49999999999999
 30
0.0
 40
0.4999999999999982
100
AcDbArc
 50
270.000000000001
 51
0.0
  0
ARC
  5
252
330
1033F
100
AcDbEntity
  8
0
100
AcDbCircle
 10
59.93749999999973
 20
1.000000000000823
 30
0.0
 40
0.4999999999999084
100
AcDbArc
 50
89.99999999999919
 51
180.0
  0
ARC
  5
253
330
1033F
100
AcDbEntity
  8
0
100
AcDbCircle
 10
59.93749999999977
 20
0.4999999999999982
 30
0.0
 40
0.4999999999999982
100
AcDbArc
 50
180.0
 51
270.0
  0
ARC
  5
254
330
1033F
100
AcDbEntity
  8
0
100
AcDbCircle
 10
129.5625
 20
0.9999999999993894
 30
0.0
 40
0.5000000000000071
100
AcDbArc
 50
0.0
 51
90.0
  0
ARC
  5
255
330
1033F
100
AcDbEntity
  8
0
100
AcDbCircle
 10
129.5625
 20
0.4999999999999981
 30
0.0
 40
0.4999999999999981
100
AcDbArc
 50
270.0
 51
0.0
  0
ARC
  5
256
330
1033F
100
AcDbEntity
  8
0
100
AcDbCircle
 10
156.1875000000008
 20
0.9999999513221085
 30
0.0
 40
0.4999999999999761
100
AcDbArc
 50
90.0000000985111
 51
180.0
  0
ARC
  5
257
330
1033F
100
AcDbEntity
  8
0
100
AcDbCircle
 10
156.1875000000009
 20
0.5000000000000071
 30
0.0
 40
0.5000000000000071
100
AcDbArc
 50
180.0
 51
270.0
  0
ARC
  5
258
330
1033F
100
AcDbEntity
  8
0
100
AcDbCircle
 10
225.8125019619849
 20
1.000000071030216
 30
0.0
 40
0.4999999999999392
100
AcDbArc
 50
359.99988758683
 51
90.00000009850784
  0
ARC
  5
259
330
1033F
100
AcDbEntity
  8
0
100
AcDbCircle
 10
225.8125051727463
 20
0.4999958082365015
 30
0.0
 40
0.4999958082365015
100
AcDbArc
 50
270.0
 51
359.9998875900724
  0
ARC
  5
260
330
1033F
100
AcDbEntity
  8
0
100
AcDbCircle
 10
256.2500000088864
 20
1.000871683432777
 30
0.0
 40
0.4999999999999459
100
AcDbArc
 50
89.99827780018963
 51
180.0
  0
ARC
  5
261
330
1033F
100
AcDbEntity
  8
0
100
AcDbCircle
 10
256.2500000044394
 20
0.5000002574778649
 30
0.0
 40
0.4999999999999716
100
AcDbArc
 50
180.0
 51
269.9999994913067
  0
ARC
  5
262
330
1033F
100
AcDbEntity
  8
0
100
AcDbCircle
 10
286.2499996359795
 20
-41.50000000000826
 30
0.0
 40
0.5000000000000071
100
AcDbArc
 50
180.0
 51
269.9999999999935
  0
ARC
  5
263
330
1033F
100
AcDbEntity
  8
0
100
AcDbCircle
 10
286.75
 20
-41.50000000000829
 30
0.0
 40
0.4999999999999716
100
AcDbArc
 50
270.0
 51
0.0
  0
ARC
  5
264
330
1033F
100
AcDbEntity
  8
0
100
AcDbCircle
 10
286.2499893847236
 20
-53.75000000000067
 30
0.0
 40
0.4999999999997851
100
AcDbArc
 50
90.00000000007164
 51
180.0000148370041
  0
ARC
  5
265
330
1033F
100
AcDbEntity
  8
0
100
AcDbCircle
 10
286.7500000000006
 20
-53.7499999999996
 30
0.0
 40
0.499999999999261
100
AcDbArc
 50
0.0
 51
90.00000000005863
  0
ARC
  5
266
330
1033F
100
AcDbEntity
  8
0
100
AcDbCircle
 10
256.2500000000002
 20
-95.74999999997729
 30
0.0
 40
0.5000000000000071
100
AcDbArc
 50
89.99999999995441
 51
180.0
  0
ARC
  5
267
330
1033F
100
AcDbEntity
  8
0
100
AcDbCircle
 10
256.2499999999998
 20
-96.24999999997738
 30
0.0
 40
0.5000000000000426
100
AcDbArc
 50
180.0
 51
269.9999999999609
  0
ARC
  5
268
330
1033F
100
AcDbEntity
  8
0
100
AcDbCircle
 10
225.812500000001
 20
-95.75000000000016
 30
0.0
 40
0.5000000000000426
100
AcDbArc
 50
0.0
 51
90.0
  0
ARC
  5
269
330
1033F
100
AcDbEntity
  8
0
100
AcDbCircle
 10
225.8125000000009
 20
-96.25000000000009
 30
0.0
 40
0.5000000000000426
100
AcDbArc
 50
270.0
 51
0.0
  0
ARC
  5
270
330
1033F
100
AcDbEntity
  8
0
100
AcDbCircle
 10
156.1874999999997
 20
-95.74999999999996
 30
0.0
 40
0.5000000000000249
100
AcDbArc
 50
90.0
 51
180.0
  0
ARC
  5
271
330
1033F
100
AcDbEntity
  8
0
100
AcDbCircle
 10
156.1874999999997
 20
-96.25000000000009
 30
0.0
 40
0.5000000000000426
100
AcDbArc
 50
180.0
 51
270.0
  0
ARC
  5
272
330
1033F
100
AcDbEntity
  8
0
100
AcDbCircle
 10
129.5624999999999
 20
-95.75000000000001
 30
0.0
 40
0.5000000000000071
100
AcDbArc
 50
0.0
 51
90.0
  0
ARC
  5
273
330
1033F
100
AcDbEntity
  8
0
100
AcDbCircle
 10
129.5625
 20
-96.25000000000003
 30
0.0
 40
0.5000000000000249
100
AcDbArc
 50
270.0
 51
0.0
  0
ARC
  5
274
330
1033F
100
AcDbEntity
  8
0
100
AcDbCircle
 10
59.93750000000009
 20
-95.75000000000014
 30
0.0
 40
0.5000000000001315
100
AcDbArc
 50
90.0
 51
180.0
  0
ARC
  5
275
330
1033F
100
AcDbEntity
  8
0
100
AcDbCircle
 10
59.9375
 20
-96.25000000000001
 30
0.0
 40
0.5000000000000426
100
AcDbArc
 50
180.0
 51
270.0
  0
ARC
  5
276
330
1033F
100
AcDbEntity
  8
0
100
AcDbCircle
 10
29.49999999999993
 20
-95.75000000002332
 30
0.0
 40
0.5000000000000027
100
AcDbArc
 50
0.0
 51
89.99999999995359
  0
ARC
  5
277
330
1033F
100
AcDbEntity
  8
0
100
AcDbCircle
 10
29.49999999999947
 20
-96.24999783749246
 30
0.0
 40
0.5000000000000249
100
AcDbArc
 50
269.9999999999544
 51
0.0
  0
ARC
  5
278
330
1033F
100
AcDbEntity
  8
0
100
AcDbCircle
 10
-0.9999999999875202
 20
-53.74999999999687
 30
0.0
 40
0.4999999999999893
100
AcDbArc
 50
89.99999999982158
 51
180.0
  0
ARC
  5
279
330
1033F
100
AcDbEntity
  8
0
100
AcDbCircle
 10
-0.4999999998723009
 20
-53.74999999999841
 30
0.0
 40
0.4999999999999822
100
AcDbArc
 50
0.0
 51
89.99999999982154
  0
LINE
  5
10311
330
1033F
100
AcDbEntity
  8
0
100
AcDbLine
 10
244.24325
 20
-59.67499999999996
 30
0.0
 11
250.99325
 21
-59.6749999999999
 31
0.0
  0
LINE
  5
10312
330
1033F
100
AcDbEntity
  8
0
100
AcDbLine
 10
274.8692500000001
 20
-59.67500000000003
 30
0.0
 11
268.6192500000001
 21
-59.67500000000003
 31
0.0
  0
ARC
  5
10315
330
1033F
100
AcDbEntity
  8
0
100
AcDbCircle
 10
268.6192500000001
 20
-60.17500000000003
 30
0.0
 40
0.5
100
AcDbArc
 50
90.0
 51
180.0
  0
LINE
  5
10318
330
1033F
100
AcDbEntity
  8
0
100
AcDbLine
 10
88.6
 20
-92.72499999999988
 30
0.0
 11
82.85000000000001
 21
-92.72499999999987
 31
0.0
  0
ARC
  5
1031A
330
1033F
100
AcDbEntity
  8
0
100
AcDbCircle
 10
82.85000000000001
 20
-92.22499999999987
 30
0.0
 40
0.5
100
AcDbArc
 50
180.0
 51
270.0
  0
ARC
  5
1031B
330
1033F
100
AcDbEntity
  8
0
100
AcDbCircle
 10
88.6
 20
-92.22499999999988
 30
0.0
 40
0.5
100
AcDbArc
 50
270.0
 51
0.0
1001
QCAD
1000
reversed:1
  0
LINE
  5
1031E
330
1033F
100
AcDbEntity
  8
0
100
AcDbLine
 10
202.9
 20
-92.72500000000043
 30
0.0
 11
197.15
 21
-92.72500000000043
 31
0.0
  0
ARC
  5
10320
330
1033F
100
AcDbEntity
  8
0
100
AcDbCircle
 10
197.15
 20
-92.22500000000042
 30
0.0
 40
0.5
100
AcDbArc
 50
180.0
 51
270.0
  0
ARC
  5
10321
330
1033F
100
AcDbEntity
  8
0
100
AcDbCircle
 10
202.9
 20
-92.22500000000043
 30
0.0
 40
0.5
100
AcDbArc
 50
270.0
 51
0.0
1001
QCAD
1000
reversed:1
  0
VIEWPORT
  5
10407
330
1033B
100
AcDbEntity
 67
     1
  8
0
100
AcDbViewport
 10
5.25
 20
4.0
 30
0.0
 40
11.638
 41
8.993
 68
     1
 69
     1
 12
5.25
 22
4.0
 13
0.0
 23
0.0
 14
0.5
 24
0.5
 15
0.5
 25
0.5
 16
0.0
 26
0.0
 36
1.0
 17
0.0
 27
0.0
 37
0.0
 42
50.0
 43
0.0
 44
0.0
 45
8.993
 50
0.0
 51
0.0
 72
   100
 90
   557152
  1

281
     0
 71
     1
 74
     0
110
0.0
120
0.0
130
0.0
111
1.0
121
0.0
131
0.0
112
0.0
122
1.0
132
0.0
 79
     0
146
0.0
170
     0
 61
     5
348
1034F
292
     1
282
     1
141
0.0
142
0.0
 63
   256
361
10408
  0
ENDSEC
  0
SECTION
  2
OBJECTS
  0
DICTIONARY
  5
1032D
330
0
100
AcDbDictionary
281
     1
  3
ACAD_DETAILVIEWSTYLE
350
10410
  3
ACAD_GROUP
350
1032E
  3
ACAD_LAYOUT
350
1033A
  3
ACAD_MATERIAL
350
10363
  3
ACAD_MLEADERSTYLE
350
1038B
  3
ACAD_MLINESTYLE
350
10337
  3
ACAD_PLOTSETTINGS
350
10339
  3
ACAD_PLOTSTYLENAME
350
1032F
  3
ACAD_SCALELIST
350
10367
  3
ACAD_SECTIONVIEWSTYLE
350
10411
  3
ACAD_TABLESTYLE
350
10389
  3
ACAD_VISUALSTYLE
350
1034A
  3
ACDB_RECOMPOSE_DATA
350
1040D
  3
AcDbVariableDictionary
350
10409
  3
QCAD_OBJECTS
350
1038F
  0
SUN
  5
1038D
330
10349
100
AcDbSun
 90
        1
290
     0
 63
     7
421
 16777215
 40
1.0
291
     1
 91
  2455826
 92
 54000000
292
     0
 70
     2
 71
   256
280
     1
  0
SUN
  5
10408
330
10407
100
AcDbSun
 90
        1
290
     0
 63
     7
421
 16777215
 40
1.0
291
     1
 91
  2455826
 92
 54000000
292
     0
 70
     2
 71
   256
280
     1
  0
DICTIONARY
  5
10410
102
{ACAD_REACTORS
330
1032D
102
}
330
1032D
100
AcDbDictionary
281
     1
  0
DICTIONARY
  5
1032E
102
{ACAD_REACTORS
330
1032D
102
}
330
1032D
100
AcDbDictionary
281
     1
  0
DICTIONARY
  5
1033A
102
{ACAD_REACTORS
330
1032D
102
}
330
1032D
100
AcDbDictionary
281
     1
  3
Layout1
350
1033E
  3
Model
350
10342
  0
DICTIONARY
  5
10363
102
{ACAD_REACTORS
330
1032D
102
}
330
1032D
100
AcDbDictionary
281
     1
  3
ByBlock
350
10365
  3
ByLayer
350
10364
  3
Global
350
10366
  0
DICTIONARY
  5
1038B
102
{ACAD_REACTORS
330
1032D
102
}
330
1032D
100
AcDbDictionary
281
     1
  3
Standard
350
1038C
  0
DICTIONARY
  5
10337
102
{ACAD_REACTORS
330
1032D
102
}
330
1032D
100
AcDbDictionary
281
     1
  3
Standard
350
10338
  0
DICTIONARY
  5
10339
102
{ACAD_REACTORS
330
1032D
102
}
330
1032D
100
AcDbDictionary
281
     1
  0
ACDBDICTIONARYWDFLT
  5
1032F
102
{ACAD_REACTORS
330
1032D
102
}
330
1032D
100
AcDbDictionary
281
     1
  3
Normal
350
10330
100
AcDbDictionaryWithDefault
340
10330
  0
DICTIONARY
  5
10367
102
{ACAD_REACTORS
330
1032D
102
}
330
1032D
100
AcDbDictionary
281
     1
  3
A0
350
10368
  3
A1
350
10369
  3
A2
350
1036A
  3
A3
350
1036B
  3
A4
350
1036C
  3
A5
350
1036D
  3
A6
350
1036E
  3
A7
350
1036F
  3
A8
350
10370
  3
A9
350
10371
  3
B0
350
10372
  3
B1
350
10373
  3
B2
350
10374
  3
B3
350
10375
  3
B4
350
10376
  3
B5
350
10377
  3
B6
350
10378
  3
B7
350
10379
  3
B8
350
1037A
  3
B9
350
1037B
  3
C0
350
1037C
  3
C1
350
1037D
  3
C2
350
1037E
  3
C3
350
1037F
  3
C4
350
10380
  3
C5
350
10381
  3
C6
350
10382
  3
C7
350
10383
  3
C8
350
10384
  3
C9
350
10385
  3
D0
350
10386
  3
D1
350
10387
  3
D2
350
10388
  0
DICTIONARY
  5
10411
102
{ACAD_REACTORS
330
1032D
102
}
330
1032D
100
AcDbDictionary
281
     1
  0
DICTIONARY
  5
10389
102
{ACAD_REACTORS
330
1032D
102
}
330
1032D
100
AcDbDictionary
281
     1
  3
Standard
350
1038A
  0
DICTIONARY
  5
1034A
102
{ACAD_REACTORS
330
1032D
102
}
330
1032D
100
AcDbDictionary
281
     1
  3
2dWireframe
350
1034F
  3
Basic
350
10352
  3
Brighten
350
10356
  3
ColorChange
350
1035A
  3
Conceptual
350
10354
  3
Dim
350
10355
  3
EdgeColorOff
350
1035D
  3
Facepattern
350
10359
  3
Flat
350
1034B
  3
FlatWithEdges
350
1034C
  3
Gouraud
350
1034D
  3
GouraudWithEdges
350
1034E
  3
Hidden
350
10351
  3
JitterOff
350
1035B
  3
Linepattern
350
10358
  3
OverhangOff
350
1035C
  3
Realistic
350
10353
  3
Shaded
350
10362
  3
Shaded with edges
350
10361
  3
Shades of Gray
350
1035E
  3
Sketchy
350
1035F
  3
Thicken
350
10357
  3
Wireframe
350
10350
  3
X-Ray
350
10360
  0
XRECORD
  5
1040D
102
{ACAD_REACTORS
330
1032D
102
}
330
1032D
100
AcDbXrecord
280
     1
 90
        1
330
1038A
  0
DICTIONARY
  5
10409
102
{ACAD_REACTORS
330
1032D
102
}
330
1032D
100
AcDbDictionary
281
     1
  3
CANNOSCALE
350
1040A
  3
CMLEADERSTYLE
350
1040F
  3
CTABLESTYLE
350
1040E
  0
DICTIONARY
  5
1038F
102
{ACAD_REACTORS
330
1032D
102
}
330
1032D
100
AcDbDictionary
281
     1
  3
COLORSETTINGS/BACKGROUNDCOLOR
350
10391
  3
COLORSETTINGS/COLORMODE
350
10392
  3
GRID/DISPLAYGRID00
350
10393
  3
GRID/DISPLAYGRID01
350
10394
  3
GRID/DISPLAYGRID02
350
10395
  3
GRID/DISPLAYGRID03
350
10396
  3
GRID/GRIDSPACINGX00
350
10397
  3
GRID/GRIDSPACINGX01
350
10398
  3
GRID/GRIDSPACINGX02
350
10399
  3
GRID/GRIDSPACINGX03
350
1039A
  3
GRID/GRIDSPACINGY00
350
1039B
  3
GRID/GRIDSPACINGY01
350
1039C
  3
GRID/GRIDSPACINGY02
350
1039D
  3
GRID/GRIDSPACINGY03
350
1039E
  3
GRID/ISOMETRICGRID00
350
1039F
  3
GRID/ISOMETRICGRID01
350
103A0
  3
GRID/ISOMETRICGRID02
350
103A1
  3
GRID/ISOMETRICGRID03
350
103A2
  3
GRID/ISOMETRICPROJECTION00
350
103A3
  3
GRID/ISOMETRICPROJECTION01
350
103A4
  3
GRID/ISOMETRICPROJECTION02
350
103A5
  3
GRID/ISOMETRICPROJECTION03
350
103A6
  3
GRID/METAGRIDSPACINGX00
350
103A7
  3
GRID/METAGRIDSPACINGX01
350
103A8
  3
GRID/METAGRIDSPACINGX02
350
103A9
  3
GRID/METAGRIDSPACINGX03
350
103AA
  3
GRID/METAGRIDSPACINGY00
350
103AB
  3
GRID/METAGRIDSPACINGY01
350
103AC
  3
GRID/METAGRIDSPACINGY02
350
103AD
  3
GRID/METAGRIDSPACINGY03
350
103AE
  3
MULTIPAGESETTINGS/COLUMNS
350
103AF
  3
MULTIPAGESETTINGS/GLUEMAR0
350
103B0
  3
MULTIPAGESETTINGS/GLUEMAR1
350
103B1
  3
MULTIPAGESETTINGS/GLUEMAR2
350
103B2
  3
MULTIPAGESETTINGS/GLUEMARG
350
103B3
  3
MultiPageSettings/GlueMarginsBottom
350
103B6
  3
MultiPageSettings/GlueMarginsLeft
350
103B7
  3
MultiPageSettings/GlueMarginsRight
350
103B8
  3
MultiPageSettings/GlueMarginsTop
350
103B9
  3
MULTIPAGESETTINGS/PRINTCRO
350
103B4
  3
MultiPageSettings/PrintCropMarks
350
103BA
  3
MULTIPAGESETTINGS/ROWS
350
103B5
  3
PAGESETTINGS/OFFSETX
350
103BB
  3
PAGESETTINGS/OFFSETY
350
103BC
  3
PAGESETTINGS/PAGEORIENTATION
350
103BD
  3
PAGESETTINGS/PAPERHEIGHT
350
103BE
  3
PAGESETTINGS/PAPERWIDTH
350
103BF
  3
PAGESETTINGS/SCALE
350
103C0
  3
PAGESETTINGS/SHOWPAPERBORDERS
350
103C1
  3
PAGETAGSETTINGS/ENABLEPAGETAGS
350
103C2
  3
PAGETAGSETTINGS/TAGALIGNMENT
350
103C3
  3
PAGETAGSETTINGS/TAGFONT
350
103C4
  3
PAGETAGSETTINGS/TAGPOSITION
350
103C5
  3
QCADVersion
350
103C6
  3
UNITSETTINGS/PAPERUNIT
350
103C7
  3
ViewportCenter
350
103C8
  3
ViewportHeight
350
103C9
  3
ViewportWidth
350
103CA
  0
LAYOUT
  5
1033E
102
{ACAD_REACTORS
330
1033A
102
}
330
1033A
100
AcDbPlotSettings
  1

  2
none_device
  4
Letter_(8.50_x_11.00_Inches)
  6

 40
6.35
 41
6.35
 42
6.35001
 43
6.35001
 44
215.9
 45
279.4
 46
0.0
 47
0.0
 48
0.0
 49
0.0
140
0.0
141
0.0
142
1.0
143
1.0
 70
   688
 72
     0
 73
     1
 74
     5
  7

 75
    16
 76
     0
 77
     2
 78
   300
147
1.0
148
0.0
149
0.0
100
AcDbLayout
  1
Layout1
 70
     1
 71
     1
 10
-0.25
 20
-0.25
 11
10.75
 21
8.25
 12
0.0
 22
0.0
 32
0.0
 14
1.000000000000000E+20
 24
1.000000000000000E+20
 34
1.000000000000000E+20
 15
-1.000000000000000E+20
 25
-1.000000000000000E+20
 35
-1.000000000000000E+20
146
0.0
 13
0.0
 23
0.0
 33
0.0
 16
1.0
 26
0.0
 36
0.0
 17
0.0
 27
1.0
 37
0.0
 76
     0
330
1033B
331
10407
  0
LAYOUT
  5
10342
102
{ACAD_REACTORS
330
1033A
102
}
330
1033A
100
AcDbPlotSettings
  1

  2
none_device
  4
Letter_(8.50_x_11.00_Inches)
  6

 40
6.35
 41
6.35
 42
6.35000508
 43
6.35000508
 44
215.9
 45
279.4
 46
0.0
 47
0.0
 48
0.0
 49
0.0
140
0.0
141
0.0
142
1.0
143
1.0
 70
  1712
 72
     0
 73
     0
 74
     0
  7

 75
     0
 76
     0
 77
     2
 78
   300
147
1.0
148
0.0
149
0.0
100
AcDbLayout
  1
Model
 70
     1
 71
     0
 10
0.0
 20
0.0
 11
12.0
 21
9.0
 12
0.0
 22
0.0
 32
0.0
 14
-7.171572875260248
 24
-102.4219976099055
 34
0.0
 15
292.9215737128691
 25
7.171991687195449
 35
0.0
146
0.0
 13
0.0
 23
0.0
 33
0.0
 16
1.0
 26
0.0
 36
0.0
 17
0.0
 27
1.0
 37
0.0
 76
     0
330
1033F
331
10349
  0
MATERIAL
  5
10365
102
{ACAD_REACTORS
330
10363
102
}
330
10363
100
AcDbMaterial
  1
ByBlock
 72
     1
 94
      127
  0
MATERIAL
  5
10364
102
{ACAD_REACTORS
330
10363
102
}
330
10363
100
AcDbMaterial
  1
ByLayer
 72
     1
 94
      127
  0
MATERIAL
  5
10366
102
{ACAD_REACTORS
330
10363
102
}
330
10363
100
AcDbMaterial
  1
Global
 72
     1
 94
      127
  0
MLEADERSTYLE
  5
1038C
102
{ACAD_REACTORS
330
1038B
102
}
330
1038B
100
AcDbMLeaderStyle
179
     2
170
     2
171
     1
172
     0
 90
        2
 40
0.0
 41
0.0
173
     1
 91
-1056964608
340
10334
 92
       -2
290
     1
 42
0.09
291
     1
 43
0.36
  3
Standard
341
0
 44
0.18
300

342
10332
174
     1
178
     6
175
     1
176
     0
 93
-1056964608
 45
0.18
292
     0
297
     0
 46
0.18
343
0
 94
-1056964608
 47
1.0
 49
1.0
140
1.0
293
     1
141
0.0
294
     1
177
     0
142
1.0
295
     0
296
     0
143
0.125
271
     0
272
     9
273
     9
298
     0
  0
MLINESTYLE
  5
10338
102
{ACAD_REACTORS
330
10337
102
}
330
10337
100
AcDbMlineStyle
  2
Standard
 70
     0
  3

 62
   256
 51
90.0
 52
90.0
 71
     2
 49
0.5
 62
   256
  6
BYLAYER
 49
-0.5
 62
   256
  6
BYLAYER
  0
ACDBPLACEHOLDER
  5
10330
102
{ACAD_REACTORS
330
1032F
102
}
330
1032F
  0
SCALE
  5
10368
102
{ACAD_REACTORS
330
10367
102
}
330
10367
100
AcDbScale
 70
     0
300
1:1
140
1.0
141
1.0
290
     1
  0
SCALE
  5
10369
102
{ACAD_REACTORS
330
10367
102
}
330
10367
100
AcDbScale
 70
     0
300
1:2
140
1.0
141
2.0
290
     0
  0
SCALE
  5
1036A
102
{ACAD_REACTORS
330
10367
102
}
330
10367
100
AcDbScale
 70
     0
300
1:4
140
1.0
141
4.0
290
     0
  0
SCALE
  5
1036B
102
{ACAD_REACTORS
330
10367
102
}
330
10367
100
AcDbScale
 70
     0
300
1:5
140
1.0
141
5.0
290
     0
  0
SCALE
  5
1036C
102
{ACAD_REACTORS
330
10367
102
}
330
10367
100
AcDbScale
 70
     0
300
1:8
140
1.0
141
8.0
290
     0
  0
SCALE
  5
1036D
102
{ACAD_REACTORS
330
10367
102
}
330
10367
100
AcDbScale
 70
     0
300
1:10
140
1.0
141
10.0
290
     0
  0
SCALE
  5
1036E
102
{ACAD_REACTORS
330
10367
102
}
330
10367
100
AcDbScale
 70
     0
300
1:16
140
1.0
141
16.0
290
     0
  0
SCALE
  5
1036F
102
{ACAD_REACTORS
330
10367
102
}
330
10367
100
AcDbScale
 70
     0
300
1:20
140
1.0
141
20.0
290
     0
  0
SCALE
  5
10370
102
{ACAD_REACTORS
330
10367
102
}
330
10367
100
AcDbScale
 70
     0
300
1:30
140
1.0
141
30.0
290
     0
  0
SCALE
  5
10371
102
{ACAD_REACTORS
330
10367
102
}
330
10367
100
AcDbScale
 70
     0
300
1:40
140
1.0
141
40.0
290
     0
  0
SCALE
  5
10372
102
{ACAD_REACTORS
330
10367
102
}
330
10367
100
AcDbScale
 70
     0
300
1:50
140
1.0
141
50.0
290
     0
  0
SCALE
  5
10373
102
{ACAD_REACTORS
330
10367
102
}
330
10367
100
AcDbScale
 70
     0
300
1:100
140
1.0
141
100.0
290
     0
  0
SCALE
  5
10374
102
{ACAD_REACTORS
330
10367
102
}
330
10367
100
AcDbScale
 70
     0
300
2:1
140
2.0
141
1.0
290
     0
  0
SCALE
  5
10375
102
{ACAD_REACTORS
330
10367
102
}
330
10367
100
AcDbScale
 70
     0
300
4:1
140
4.0
141
1.0
290
     0
  0
SCALE
  5
10376
102
{ACAD_REACTORS
330
10367
102
}
330
10367
100
AcDbScale
 70
     0
300
8:1
140
8.0
141
1.0
290
     0
  0
SCALE
  5
10377
102
{ACAD_REACTORS
330
10367
102
}
330
10367
100
AcDbScale
 70
     0
300
10:1
140
10.0
141
1.0
290
     0
  0
SCALE
  5
10378
102
{ACAD_REACTORS
330
10367
102
}
330
10367
100
AcDbScale
 70
     0
300
100:1
140
100.0
141
1.0
290
     0
  0
SCALE
  5
10379
102
{ACAD_REACTORS
330
10367
102
}
330
10367
100
AcDbScale
 70
     0
300
1/128" = 1'-0"
140
0.0078125
141
12.0
290
     0
  0
SCALE
  5
1037A
102
{ACAD_REACTORS
330
10367
102
}
330
10367
100
AcDbScale
 70
     0
300
1/64" = 1'-0"
140
0.015625
141
12.0
290
     0
  0
SCALE
  5
1037B
102
{ACAD_REACTORS
330
10367
102
}
330
10367
100
AcDbScale
 70
     0
300
1/32" = 1'-0"
140
0.03125
141
12.0
290
     0
  0
SCALE
  5
1037C
102
{ACAD_REACTORS
330
10367
102
}
330
10367
100
AcDbScale
 70
     0
300
1/16" = 1'-0"
140
0.0625
141
12.0
290
     0
  0
SCALE
  5
1037D
102
{ACAD_REACTORS
330
10367
102
}
330
10367
100
AcDbScale
 70
     0
300
3/32" = 1'-0"
140
0.09375
141
12.0
290
     0
  0
SCALE
  5
1037E
102
{ACAD_REACTORS
330
10367
102
}
330
10367
100
AcDbScale
 70
     0
300
1/8" = 1'-0"
140
0.125
141
12.0
290
     0
  0
SCALE
  5
1037F
102
{ACAD_REACTORS
330
10367
102
}
330
10367
100
AcDbScale
 70
     0
300
3/16" = 1'-0"
140
0.1875
141
12.0
290
     0
  0
SCALE
  5
10380
102
{ACAD_REACTORS
330
10367
102
}
330
10367
100
AcDbScale
 70
     0
300
1/4" = 1'-0"
140
0.25
141
12.0
290
     0
  0
SCALE
  5
10381
102
{ACAD_REACTORS
330
10367
102
}
330
10367
100
AcDbScale
 70
     0
300
3/8" = 1'-0"
140
0.375
141
12.0
290
     0
  0
SCALE
  5
10382
102
{ACAD_REACTORS
330
10367
102
}
330
10367
100
AcDbScale
 70
     0
300
1/2" = 1'-0"
140
0.5
141
12.0
290
     0
  0
SCALE
  5
10383
102
{ACAD_REACTORS
330
10367
102
}
330
10367
100
AcDbScale
 70
     0
300
3/4" = 1'-0"
140
0.75
141
12.0
290
     0
  0
SCALE
  5
10384
102
{ACAD_REACTORS
330
10367
102
}
330
10367
100
AcDbScale
 70
     0
300
1" = 1'-0"
140
1.0
141
12.0
290
     0
  0
SCALE
  5
10385
102
{ACAD_REACTORS
330
10367
102
}
330
10367
100
AcDbScale
 70
     0
300
1-1/2" = 1'-0"
140
1.5
141
12.0
290
     0
  0
SCALE
  5
10386
102
{ACAD_REACTORS
330
10367
102
}
330
10367
100
AcDbScale
 70
     0
300
3" = 1'-0"
140
3.0
141
12.0
290
     0
  0
SCALE
  5
10387
102
{ACAD_REACTORS
330
10367
102
}
330
10367
100
AcDbScale
 70
     0
300
6" = 1'-0"
140
6.0
141
12.0
290
     0
  0
SCALE
  5
10388
102
{ACAD_REACTORS
330
10367
102
}
330
10367
100
AcDbScale
 70
     0
300
1'-0" = 1'-0"
140
12.0
141
12.0
290
     0
  0
TABLESTYLE
  5
1038A
102
{ACAD_REACTORS
330
10389
102
}
102
{ACAD_XDICTIONARY
360
1040B
102
}
330
10389
100
AcDbTableStyle
  3
Standard
 70
     0
 71
     0
 40
0.06
 41
0.06
280
     0
281
     0
  7
Standard
140
0.18
170
     2
 62
     0
 63
   257
283
     0
 90
        4
 91
        0
  1

274
    -2
284
     1
 64
     0
275
    -2
285
     1
 65
     0
276
    -2
286
     1
 66
     0
277
    -2
287
     1
 67
     0
278
    -2
288
     1
 68
     0
279
    -2
289
     1
 69
     0
  7
Standard
140
0.25
170
     5
 62
     0
 63
   257
283
     0
 90
        4
 91
        0
  1

274
    -2
284
     1
 64
     0
275
    -2
285
     1
 65
     0
276
    -2
286
     1
 66
     0
277
    -2
287
     1
 67
     0
278
    -2
288
     1
 68
     0
279
    -2
289
     1
 69
     0
  7
Standard
140
0.18
170
     5
 62
     0
 63
   257
283
     0
 90
        4
 91
        0
  1

274
    -2
284
     1
 64
     0
275
    -2
285
     1
 65
     0
276
    -2
286
     1
 66
     0
277
    -2
287
     1
 67
     0
278
    -2
288
     1
 68
     0
279
    -2
289
     1
 69
     0
  0
VISUALSTYLE
  5
1034F
102
{ACAD_REACTORS
330
1034A
102
}
330
1034A
100
AcDbVisualStyle
  2
2dWireframe
 70
     4
177
     3
291
     0
 70
    58
 90
        0
176
     1
 90
        2
176
     1
 90
        0
176
     1
 90
        0
176
     1
 40
0.6
176
     1
 40
30.0
176
     1
 62
     7
420
 16777215
176
     1
 90
        1
176
     1
 90
        4
176
     1
 62
     7
176
     1
 62
   257
176
     1
 90
        1
176
     1
 90
        1
176
     1
 40
1.0
176
     1
 90
        0
176
     1
 62
   257
176
     1
 40
1.0
176
     1
 90
        1
176
     1
 90
        6
176
     1
 90
        2
176
     1
 62
     7
176
     1
 90
        5
176
     1
 90
        0
176
     1
 90
        0
176
     1
290
     0
176
     1
 90
        1
176
     1
 40
0.0
176
     1
 90
        0
176
     1
290
     1
176
     1
290
     1
176
     1
290
     0
176
     1
290
     0
176
     1
290
     0
176
     1
290
     0
176
     1
290
     0
176
     1
290
     0
176
     1
290
     0
176
     1
 90
       50
176
     1
 40
0.0
176
     1
 40
1.0
176
     1
 90
        0
176
     1
 62
    18
420
        0
176
     1
 90
       50
176
     1
 90
        3
176
     1
 62
     5
420
      255
176
     1
290
     0
176
     1
 90
       50
176
     1
 90
       50
176
     1
 90
       50
176
     1
290
     0
176
     1
 90
       50
176
     1
 62
   256
176
     0
 40
1.0
176
     0
 90
        2
176
     1
  1
strokes_ogs.tif
176
     1
290
     0
176
     1
 40
1.0
176
     1
 40
1.0
176
     1
  0
VISUALSTYLE
  5
10352
102
{ACAD_REACTORS
330
1034A
102
}
330
1034A
100
AcDbVisualStyle
  2
Basic
 70
     7
177
     3
291
     1
 70
    58
 90
        1
176
     1
 90
        0
176
     1
 90
        1
176
     1
 90
        0
176
     1
 40
0.6
176
     1
 40
30.0
176
     1
 62
     7
420
 16777215
176
     1
 90
        0
176
     1
 90
        4
176
     1
 62
     7
176
     1
 62
   257
176
     1
 90
        1
176
     1
 90
        1
176
     1
 40
1.0
176
     1
 90
        8
176
     1
 62
     7
176
     1
 40
1.0
176
     1
 90
        1
176
     1
 90
        6
176
     1
 90
        2
176
     1
 62
     7
176
     1
 90
        5
176
     1
 90
        0
176
     1
 90
        0
176
     1
290
     0
176
     1
 90
        1
176
     1
 40
0.0
176
     1
 90
        0
176
     1
290
     0
176
     1
290
     1
176
     1
290
     1
176
     1
290
     0
176
     1
290
     0
176
     1
290
     0
176
     1
290
     0
176
     1
290
     0
176
     1
290
     0
176
     1
 90
       50
176
     1
 40
0.0
176
     1
 40
1.0
176
     1
 90
        0
176
     1
 62
    18
420
        0
176
     1
 90
       50
176
     1
 90
        3
176
     1
 62
     5
420
      255
176
     1
290
     0
176
     1
 90
       50
176
     1
 90
       50
176
     1
 90
       50
176
     1
290
     0
176
     1
 90
       50
176
     1
 62
   256
176
     0
 40
1.0
176
     0
 90
        2
176
     1
  1
strokes_ogs.tif
176
     1
290
     0
176
     1
 40
1.0
176
     1
 40
1.0
176
     1
  0
VISUALSTYLE
  5
10356
102
{ACAD_REACTORS
330
1034A
102
}
330
1034A
100
AcDbVisualStyle
  2
Brighten
 70
    12
177
     3
291
     1
 70
    58
 90
        2
176
     1
 90
        2
176
     1
 90
        0
176
     1
 90
        0
176
     1
 40
0.6
176
     1
 40
30.0
176
     1
 62
     7
420
 16777215
176
     1
 90
        1
176
     1
 90
        4
176
     1
 62
     7
176
     1
 62
   257
176
     1
 90
        1
176
     1
 90
        1
176
     1
 40
1.0
176
     1
 90
        8
176
     1
 62
     7
176
     1
 40
1.0
176
     1
 90
        1
176
     1
 90
        6
176
     1
 90
        2
176
     1
 62
     7
176
     1
 90
        5
176
     1
 90
        0
176
     1
 90
        0
176
     1
290
     0
176
     1
 90
        1
176
     1
 40
50.0
176
     1
 90
        0
176
     1
290
     0
176
     1
290
     1
176
     1
290
     1
176
     1
290
     0
176
     1
290
     0
176
     1
290
     0
176
     1
290
     0
176
     1
290
     0
176
     1
290
     0
176
     1
 90
       50
176
     1
 40
0.0
176
     1
 40
1.0
176
     1
 90
        0
176
     1
 62
    18
420
        0
176
     1
 90
       50
176
     1
 90
        3
176
     1
 62
     5
420
      255
176
     1
290
     0
176
     1
 90
       50
176
     1
 90
       50
176
     1
 90
       50
176
     1
290
     0
176
     1
 90
       50
176
     1
 62
   256
176
     0
 40
1.0
176
     0
 90
        2
176
     1
  1
strokes_ogs.tif
176
     1
290
     0
176
     1
 40
1.0
176
     1
 40
1.0
176
     1
  0
VISUALSTYLE
  5
1035A
102
{ACAD_REACTORS
330
1034A
102
}
330
1034A
100
AcDbVisualStyle
  2
ColorChange
 70
    16
177
     3
291
     1
 70
    58
 90
        2
176
     1
 90
        2
176
     1
 90
        3
176
     1
 90
        0
176
     1
 40
0.6
176
     1
 40
30.0
176
     1
 62
     8
420
  8421504
176
     1
 90
        1
176
     1
 90
        4
176
     1
 62
     7
176
     1
 62
   257
176
     1
 90
        1
176
     1
 90
        1
176
     1
 40
1.0
176
     1
 90
        8
176
     1
 62
     8
420
  8421504
176
     1
 40
1.0
176
     1
 90
        1
176
     1
 90
        6
176
     1
 90
        2
176
     1
 62
     7
176
     1
 90
        5
176
     1
 90
        0
176
     1
 90
        0
176
     1
290
     0
176
     1
 90
        1
176
     1
 40
0.0
176
     1
 90
        0
176
     1
290
     0
176
     1
290
     1
176
     1
290
     1
176
     1
290
     0
176
     1
290
     0
176
     1
290
     0
176
     1
290
     0
176
     1
290
     0
176
     1
290
     0
176
     1
 90
       50
176
     1
 40
0.0
176
     1
 40
1.0
176
     1
 90
        0
176
     1
 62
    18
420
        0
176
     1
 90
       50
176
     1
 90
        3
176
     1
 62
     5
420
      255
176
     1
290
     0
176
     1
 90
       50
176
     1
 90
       50
176
     1
 90
       50
176
     1
290
     0
176
     1
 90
       50
176
     1
 62
   256
176
     0
 40
1.0
176
     0
 90
        2
176
     1
  1
strokes_ogs.tif
176
     1
290
     0
176
     1
 40
1.0
176
     1
 40
1.0
176
     1
  0
VISUALSTYLE
  5
10354
102
{ACAD_REACTORS
330
1034A
102
}
330
1034A
100
AcDbVisualStyle
  2
Conceptual
 70
     9
177
     3
291
     0
 70
    58
 90
        3
176
     1
 90
        2
176
     1
 90
        0
176
     1
 90
        0
176
     1
 40
0.6
176
     1
 40
30.0
176
     1
 62
     7
420
 16777215
176
     1
 90
        2
176
     1
 90
        2
176
     1
 62
     7
176
     1
 62
   257
176
     1
 90
        1
176
     1
 90
        1
176
     1
 40
179.0
176
     1
 90
        8
176
     1
 62
     7
176
     1
 40
1.0
176
     1
 90
        1
176
     1
 90
        6
176
     1
 90
        2
176
     1
 62
     7
176
     1
 90
        3
176
     1
 90
        0
176
     1
 90
        0
176
     1
290
     0
176
     1
 90
        1
176
     1
 40
0.0
176
     1
 90
        0
176
     1
290
     0
176
     1
290
     1
176
     1
290
     1
176
     1
290
     0
176
     1
290
     0
176
     1
290
     0
176
     1
290
     0
176
     1
290
     0
176
     1
290
     0
176
     1
 90
       50
176
     1
 40
0.0
176
     1
 40
1.0
176
     1
 90
        0
176
     1
 62
    18
420
        0
176
     1
 90
       50
176
     1
 90
        3
176
     1
 62
     5
420
      255
176
     1
290
     0
176
     1
 90
       50
176
     1
 90
       50
176
     1
 90
       50
176
     1
290
     0
176
     1
 90
       50
176
     1
 62
   256
176
     0
 40
1.0
176
     0
 90
        2
176
     1
  1
strokes_ogs.tif
176
     1
290
     0
176
     1
 40
1.0
176
     1
 40
1.0
176
     1
  0
VISUALSTYLE
  5
10355
102
{ACAD_REACTORS
330
1034A
102
}
330
1034A
100
AcDbVisualStyle
  2
Dim
 70
    11
177
     3
291
     1
 70
    58
 90
        2
176
     1
 90
        2
176
     1
 90
        0
176
     1
 90
        0
176
     1
 40
0.6
176
     1
 40
30.0
176
     1
 62
     7
420
 16777215
176
     1
 90
        1
176
     1
 90
        4
176
     1
 62
     7
176
     1
 62
   257
176
     1
 90
        1
176
     1
 90
        1
176
     1
 40
1.0
176
     1
 90
        8
176
     1
 62
     7
176
     1
 40
1.0
176
     1
 90
        1
176
     1
 90
        6
176
     1
 90
        2
176
     1
 62
     7
176
     1
 90
        5
176
     1
 90
        0
176
     1
 90
        0
176
     1
290
     0
176
     1
 90
        1
176
     1
 40
-50.0
176
     1
 90
        0
176
     1
290
     0
176
     1
290
     1
176
     1
290
     1
176
     1
290
     0
176
     1
290
     0
176
     1
290
     0
176
     1
290
     0
176
     1
290
     0
176
     1
290
     0
176
     1
 90
       50
176
     1
 40
0.0
176
     1
 40
1.0
176
     1
 90
        0
176
     1
 62
    18
420
        0
176
     1
 90
       50
176
     1
 90
        3
176
     1
 62
     5
420
      255
176
     1
290
     0
176
     1
 90
       50
176
     1
 90
       50
176
     1
 90
       50
176
     1
290
     0
176
     1
 90
       50
176
     1
 62
   256
176
     0
 40
1.0
176
     0
 90
        2
176
     1
  1
strokes_ogs.tif
176
     1
290
     0
176
     1
 40
1.0
176
     1
 40
1.0
176
     1
  0
VISUALSTYLE
  5
1035D
102
{ACAD_REACTORS
330
1034A
102
}
330
1034A
100
AcDbVisualStyle
  2
EdgeColorOff
 70
    22
177
     3
291
     1
 70
    58
 90
        2
176
     0
 90
        2
176
     0
 90
        0
176
     0
 90
        0
176
     0
 40
0.6
176
     0
 40
30.0
176
     0
 62
     7
420
 16777215
176
     0
 90
        1
176
     0
 90
        4
176
     0
 62
     7
176
     0
 62
   257
176
     0
 90
        1
176
     0
 90
        1
176
     0
 40
1.0
176
     0
 90
        8
176
     2
 62
     7
176
     0
 40
1.0
176
     0
 90
        1
176
     0
 90
        6
176
     0
 90
        2
176
     0
 62
     7
176
     0
 90
        5
176
     0
 90
        0
176
     0
 90
        0
176
     0
290
     0
176
     0
 90
        1
176
     0
 40
0.0
176
     0
 90
        0
176
     0
290
     0
176
     0
290
     1
176
     0
290
     1
176
     0
290
     0
176
     0
290
     0
176
     0
290
     0
176
     0
290
     0
176
     0
290
     0
176
     0
290
     0
176
     0
 90
       50
176
     0
 40
0.0
176
     0
 40
1.0
176
     0
 90
        0
176
     0
 62
    18
420
        0
176
     0
 90
       50
176
     0
 90
        3
176
     0
 62
     5
420
      255
176
     0
290
     0
176
     0
 90
       50
176
     0
 90
       50
176
     0
 90
       50
176
     0
290
     0
176
     0
 90
       50
176
     0
 62
   256
176
     0
 40
1.0
176
     0
 90
        2
176
     0
  1
strokes_ogs.tif
176
     0
290
     0
176
     0
 40
1.0
176
     0
 40
1.0
176
     0
  0
VISUALSTYLE
  5
10359
102
{ACAD_REACTORS
330
1034A
102
}
330
1034A
100
AcDbVisualStyle
  2
Facepattern
 70
    15
177
     3
291
     1
 70
    58
 90
        2
176
     1
 90
        2
176
     1
 90
        0
176
     1
 90
        0
176
     1
 40
0.6
176
     1
 40
30.0
176
     1
 62
     7
420
 16777215
176
     1
 90
        1
176
     1
 90
        4
176
     1
 62
     7
176
     1
 62
   257
176
     1
 90
        1
176
     1
 90
        1
176
     1
 40
1.0
176
     1
 90
        8
176
     1
 62
     7
176
     1
 40
1.0
176
     1
 90
        1
176
     1
 90
        6
176
     1
 90
        2
176
     1
 62
     7
176
     1
 90
        5
176
     1
 90
        0
176
     1
 90
        0
176
     1
290
     0
176
     1
 90
        1
176
     1
 40
0.0
176
     1
 90
        0
176
     1
290
     0
176
     1
290
     1
176
     1
290
     1
176
     1
290
     0
176
     1
290
     0
176
     1
290
     0
176
     1
290
     0
176
     1
290
     0
176
     1
290
     0
176
     1
 90
       50
176
     1
 40
0.0
176
     1
 40
1.0
176
     1
 90
        0
176
     1
 62
    18
420
        0
176
     1
 90
       50
176
     1
 90
        3
176
     1
 62
     5
420
      255
176
     1
290
     0
176
     1
 90
       50
176
     1
 90
       50
176
     1
 90
       50
176
     1
290
     0
176
     1
 90
       50
176
     1
 62
   256
176
     0
 40
1.0
176
     0
 90
        2
176
     1
  1
strokes_ogs.tif
176
     1
290
     0
176
     1
 40
1.0
176
     1
 40
1.0
176
     1
  0
VISUALSTYLE
  5
1034B
102
{ACAD_REACTORS
330
1034A
102
}
330
1034A
100
AcDbVisualStyle
  2
Flat
 70
     0
177
     3
291
     1
 70
    58
 90
        2
176
     1
 90
        1
176
     1
 90
        1
176
     1
 90
        2
176
     1
 40
0.6
176
     1
 40
30.0
176
     1
 62
     7
420
 16777215
176
     1
 90
        0
176
     1
 90
        0
176
     1
 62
     7
176
     1
 62
   257
176
     1
 90
        1
176
     1
 90
        1
176
     1
 40
1.0
176
     1
 90
        8
176
     1
 62
     7
176
     1
 40
1.0
176
     1
 90
        1
176
     1
 90
        6
176
     1
 90
        2
176
     1
 62
     7
176
     1
 90
        5
176
     1
 90
        0
176
     1
 90
        0
176
     1
290
     0
176
     1
 90
       13
176
     1
 40
0.0
176
     1
 90
        0
176
     1
290
     0
176
     1
290
     1
176
     1
290
     1
176
     1
290
     0
176
     1
290
     0
176
     1
290
     0
176
     1
290
     0
176
     1
290
     0
176
     1
290
     0
176
     1
 90
       50
176
     1
 40
0.0
176
     1
 40
1.0
176
     1
 90
        0
176
     1
 62
    18
420
        0
176
     1
 90
       50
176
     1
 90
        3
176
     1
 62
     5
420
      255
176
     1
290
     0
176
     1
 90
       50
176
     1
 90
       50
176
     1
 90
       50
176
     1
290
     0
176
     1
 90
       50
176
     1
 62
   256
176
     0
 40
1.0
176
     0
 90
        2
176
     1
  1
strokes_ogs.tif
176
     1
290
     0
176
     1
 40
1.0
176
     1
 40
1.0
176
     1
  0
VISUALSTYLE
  5
1034C
102
{ACAD_REACTORS
330
1034A
102
}
330
1034A
100
AcDbVisualStyle
  2
FlatWithEdges
 70
     1
177
     3
291
     1
 70
    58
 90
        2
176
     1
 90
        1
176
     1
 90
        1
176
     1
 90
        2
176
     1
 40
0.6
176
     1
 40
30.0
176
     1
 62
     7
420
 16777215
176
     1
 90
        1
176
     1
 90
        0
176
     1
 62
     7
176
     1
 62
   257
176
     1
 90
        1
176
     1
 90
        1
176
     1
 40
1.0
176
     1
 90
        0
176
     1
 62
   257
176
     1
 40
1.0
176
     1
 90
        1
176
     1
 90
        6
176
     1
 90
        2
176
     1
 62
     7
176
     1
 90
        5
176
     1
 90
        0
176
     1
 90
        0
176
     1
290
     0
176
     1
 90
       13
176
     1
 40
0.0
176
     1
 90
        0
176
     1
290
     0
176
     1
290
     1
176
     1
290
     1
176
     1
290
     0
176
     1
290
     0
176
     1
290
     0
176
     1
290
     0
176
     1
290
     0
176
     1
290
     0
176
     1
 90
       50
176
     1
 40
0.0
176
     1
 40
1.0
176
     1
 90
        0
176
     1
 62
    18
420
        0
176
     1
 90
       50
176
     1
 90
        3
176
     1
 62
     5
420
      255
176
     1
290
     0
176
     1
 90
       50
176
     1
 90
       50
176
     1
 90
       50
176
     1
290
     0
176
     1
 90
       50
176
     1
 62
   256
176
     0
 40
1.0
176
     0
 90
        2
176
     1
  1
strokes_ogs.tif
176
     1
290
     0
176
     1
 40
1.0
176
     1
 40
1.0
176
     1
  0
VISUALSTYLE
  5
1034D
102
{ACAD_REACTORS
330
1034A
102
}
330
1034A
100
AcDbVisualStyle
  2
Gouraud
 70
     2
177
     3
291
     1
 70
    58
 90
        2
176
     1
 90
        2
176
     1
 90
        1
176
     1
 90
        2
176
     1
 40
0.6
176
     1
 40
30.0
176
     1
 62
     7
420
 16777215
176
     1
 90
        0
176
     1
 90
        0
176
     1
 62
     7
176
     1
 62
   257
176
     1
 90
        1
176
     1
 90
        1
176
     1
 40
1.0
176
     1
 90
        0
176
     1
 62
     7
176
     1
 40
1.0
176
     1
 90
        1
176
     1
 90
        6
176
     1
 90
        2
176
     1
 62
     7
176
     1
 90
        5
176
     1
 90
        0
176
     1
 90
        0
176
     1
290
     0
176
     1
 90
       13
176
     1
 40
0.0
176
     1
 90
        0
176
     1
290
     0
176
     1
290
     1
176
     1
290
     1
176
     1
290
     0
176
     1
290
     0
176
     1
290
     0
176
     1
290
     0
176
     1
290
     0
176
     1
290
     0
176
     1
 90
       50
176
     1
 40
0.0
176
     1
 40
1.0
176
     1
 90
        0
176
     1
 62
    18
420
        0
176
     1
 90
       50
176
     1
 90
        3
176
     1
 62
     5
420
      255
176
     1
290
     0
176
     1
 90
       50
176
     1
 90
       50
176
     1
 90
       50
176
     1
290
     0
176
     1
 90
       50
176
     1
 62
   256
176
     0
 40
1.0
176
     0
 90
        2
176
     1
  1
strokes_ogs.tif
176
     1
290
     0
176
     1
 40
1.0
176
     1
 40
1.0
176
     1
  0
VISUALSTYLE
  5
1034E
102
{ACAD_REACTORS
330
1034A
102
}
330
1034A
100
AcDbVisualStyle
  2
GouraudWithEdges
 70
     3
177
     3
291
     1
 70
    58
 90
        2
176
     1
 90
        2
176
     1
 90
        1
176
     1
 90
        2
176
     1
 40
0.6
176
     1
 40
30.0
176
     1
 62
     7
420
 16777215
176
     1
 90
        1
176
     1
 90
        0
176
     1
 62
     7
176
     1
 62
   257
176
     1
 90
        1
176
     1
 90
        1
176
     1
 40
1.0
176
     1
 90
        0
176
     1
 62
   257
176
     1
 40
1.0
176
     1
 90
        1
176
     1
 90
        6
176
     1
 90
        2
176
     1
 62
     7
176
     1
 90
        5
176
     1
 90
        0
176
     1
 90
        0
176
     1
290
     0
176
     1
 90
       13
176
     1
 40
0.0
176
     1
 90
        0
176
     1
290
     0
176
     1
290
     1
176
     1
290
     1
176
     1
290
     0
176
     1
290
     0
176
     1
290
     0
176
     1
290
     0
176
     1
290
     0
176
     1
290
     0
176
     1
 90
       50
176
     1
 40
0.0
176
     1
 40
1.0
176
     1
 90
        0
176
     1
 62
    18
420
        0
176
     1
 90
       50
176
     1
 90
        3
176
     1
 62
     5
420
      255
176
     1
290
     0
176
     1
 90
       50
176
     1
 90
       50
176
     1
 90
       50
176
     1
290
     0
176
     1
 90
       50
176
     1
 62
   256
176
     0
 40
1.0
176
     0
 90
        2
176
     1
  1
strokes_ogs.tif
176
     1
290
     0
176
     1
 40
1.0
176
     1
 40
1.0
176
     1
  0
VISUALSTYLE
  5
10351
102
{ACAD_REACTORS
330
1034A
102
}
330
1034A
100
AcDbVisualStyle
  2
Hidden
 70
     6
177
     3
291
     0
 70
    58
 90
        1
176
     1
 90
        2
176
     1
 90
        2
176
     1
 90
        0
176
     1
 40
0.6
176
     1
 40
30.0
176
     1
 62
     7
420
 16777215
176
     1
 90
        2
176
     1
 90
        2
176
     1
 62
     7
176
     1
 62
   257
176
     1
 90
        2
176
     1
 90
        1
176
     1
 40
40.0
176
     1
 90
        0
176
     1
 62
   257
176
     1
 40
1.0
176
     1
 90
        1
176
     1
 90
        6
176
     1
 90
        2
176
     1
 62
     7
176
     1
 90
        3
176
     1
 90
        0
176
     1
 90
        0
176
     1
290
     0
176
     1
 90
        1
176
     1
 40
0.0
176
     1
 90
        0
176
     1
290
     0
176
     1
290
     1
176
     1
290
     1
176
     1
290
     0
176
     1
290
     0
176
     1
290
     0
176
     1
290
     0
176
     1
290
     0
176
     1
290
     0
176
     1
 90
       50
176
     1
 40
0.0
176
     1
 40
1.0
176
     1
 90
        0
176
     1
 62
    18
420
        0
176
     1
 90
       50
176
     1
 90
        3
176
     1
 62
     5
420
      255
176
     1
290
     0
176
     1
 90
       50
176
     1
 90
       50
176
     1
 90
       50
176
     1
290
     0
176
     1
 90
       50
176
     1
 62
   256
176
     0
 40
1.0
176
     0
 90
        2
176
     1
  1
strokes_ogs.tif
176
     1
290
     0
176
     1
 40
1.0
176
     1
 40
1.0
176
     1
  0
VISUALSTYLE
  5
1035B
102
{ACAD_REACTORS
330
1034A
102
}
330
1034A
100
AcDbVisualStyle
  2
JitterOff
 70
    20
177
     3
291
     1
 70
    58
 90
        2
176
     0
 90
        2
176
     0
 90
        0
176
     0
 90
        0
176
     0
 40
0.6
176
     0
 40
30.0
176
     0
 62
     7
420
 16777215
176
     0
 90
        1
176
     0
 90
        4
176
     0
 62
     7
176
     0
 62
   257
176
     0
 90
        1
176
     0
 90
        1
176
     0
 40
1.0
176
     0
 90
       10
176
     2
 62
     7
176
     0
 40
1.0
176
     0
 90
        1
176
     0
 90
        6
176
     0
 90
        2
176
     0
 62
     7
176
     0
 90
        5
176
     0
 90
        0
176
     0
 90
        0
176
     0
290
     0
176
     0
 90
        1
176
     0
 40
0.0
176
     0
 90
        0
176
     0
290
     0
176
     0
290
     1
176
     0
290
     1
176
     0
290
     0
176
     0
290
     0
176
     0
290
     0
176
     0
290
     0
176
     0
290
     0
176
     0
290
     0
176
     0
 90
       50
176
     0
 40
0.0
176
     0
 40
1.0
176
     0
 90
        0
176
     0
 62
    18
420
        0
176
     0
 90
       50
176
     0
 90
        3
176
     0
 62
     5
420
      255
176
     0
290
     0
176
     0
 90
       50
176
     0
 90
       50
176
     0
 90
       50
176
     0
290
     0
176
     0
 90
       50
176
     0
 62
   256
176
     0
 40
1.0
176
     0
 90
        2
176
     0
  1
strokes_ogs.tif
176
     0
290
     0
176
     0
 40
1.0
176
     0
 40
1.0
176
     0
  0
VISUALSTYLE
  5
10358
102
{ACAD_REACTORS
330
1034A
102
}
330
1034A
100
AcDbVisualStyle
  2
Linepattern
 70
    14
177
     3
291
     1
 70
    58
 90
        2
176
     1
 90
        2
176
     1
 90
        0
176
     1
 90
        0
176
     1
 40
0.6
176
     1
 40
30.0
176
     1
 62
     7
420
 16777215
176
     1
 90
        1
176
     1
 90
        4
176
     1
 62
     7
176
     1
 62
   257
176
     1
 90
        7
176
     1
 90
        7
176
     1
 40
1.0
176
     1
 90
        8
176
     1
 62
     7
176
     1
 40
1.0
176
     1
 90
        1
176
     1
 90
        6
176
     1
 90
        2
176
     1
 62
     7
176
     1
 90
        5
176
     1
 90
        0
176
     1
 90
        0
176
     1
290
     0
176
     1
 90
        1
176
     1
 40
0.0
176
     1
 90
        0
176
     1
290
     0
176
     1
290
     1
176
     1
290
     1
176
     1
290
     0
176
     1
290
     0
176
     1
290
     0
176
     1
290
     0
176
     1
290
     0
176
     1
290
     0
176
     1
 90
       50
176
     1
 40
0.0
176
     1
 40
1.0
176
     1
 90
        0
176
     1
 62
    18
420
        0
176
     1
 90
       50
176
     1
 90
        3
176
     1
 62
     5
420
      255
176
     1
290
     0
176
     1
 90
       50
176
     1
 90
       50
176
     1
 90
       50
176
     1
290
     0
176
     1
 90
       50
176
     1
 62
   256
176
     0
 40
1.0
176
     0
 90
        2
176
     1
  1
strokes_ogs.tif
176
     1
290
     0
176
     1
 40
1.0
176
     1
 40
1.0
176
     1
  0
VISUALSTYLE
  5
1035C
102
{ACAD_REACTORS
330
1034A
102
}
330
1034A
100
AcDbVisualStyle
  2
OverhangOff
 70
    21
177
     3
291
     1
 70
    58
 90
        2
176
     0
 90
        2
176
     0
 90
        0
176
     0
 90
        0
176
     0
 40
0.6
176
     0
 40
30.0
176
     0
 62
     7
420
 16777215
176
     0
 90
        1
176
     0
 90
        4
176
     0
 62
     7
176
     0
 62
   257
176
     0
 90
        1
176
     0
 90
        1
176
     0
 40
1.0
176
     0
 90
        9
176
     2
 62
     7
176
     0
 40
1.0
176
     0
 90
        1
176
     0
 90
        6
176
     0
 90
        2
176
     0
 62
     7
176
     0
 90
        5
176
     0
 90
        0
176
     0
 90
        0
176
     0
290
     0
176
     0
 90
        1
176
     0
 40
0.0
176
     0
 90
        0
176
     0
290
     0
176
     0
290
     1
176
     0
290
     1
176
     0
290
     0
176
     0
290
     0
176
     0
290
     0
176
     0
290
     0
176
     0
290
     0
176
     0
290
     0
176
     0
 90
       50
176
     0
 40
0.0
176
     0
 40
1.0
176
     0
 90
        0
176
     0
 62
    18
420
        0
176
     0
 90
       50
176
     0
 90
        3
176
     0
 62
     5
420
      255
176
     0
290
     0
176
     0
 90
       50
176
     0
 90
       50
176
     0
 90
       50
176
     0
290
     0
176
     0
 90
       50
176
     0
 62
   256
176
     0
 40
1.0
176
     0
 90
        2
176
     0
  1
strokes_ogs.tif
176
     0
290
     0
176
     0
 40
1.0
176
     0
 40
1.0
176
     0
  0
VISUALSTYLE
  5
10353
102
{ACAD_REACTORS
330
1034A
102
}
330
1034A
100
AcDbVisualStyle
  2
Realistic
 70
     8
177
     3
291
     0
 70
    58
 90
        2
176
     1
 90
        3
176
     1
 90
        0
176
     1
 90
        2
176
     1
 40
0.6
176
     1
 40
30.0
176
     1
 62
     7
420
 16777215
176
     1
 90
        0
176
     1
 90
        0
176
     1
 62
     7
176
     1
 62
   257
176
     1
 90
        1
176
     1
 90
        1
176
     1
 40
1.0
176
     1
 90
        8
176
     1
 62
   257
176
     1
 40
1.0
176
     1
 90
        1
176
     1
 90
        6
176
     1
 90
        2
176
     1
 62
     7
176
     1
 90
        3
176
     1
 90
        0
176
     1
 90
        0
176
     1
290
     0
176
     1
 90
       13
176
     1
 40
0.0
176
     1
 90
        0
176
     1
290
     0
176
     1
290
     1
176
     1
290
     1
176
     1
290
     0
176
     1
290
     0
176
     1
290
     0
176
     1
290
     0
176
     1
290
     0
176
     1
290
     0
176
     1
 90
       50
176
     1
 40
0.0
176
     1
 40
1.0
176
     1
 90
        0
176
     1
 62
    18
420
        0
176
     1
 90
       50
176
     1
 90
        3
176
     1
 62
     5
420
      255
176
     1
290
     0
176
     1
 90
       50
176
     1
 90
       50
176
     1
 90
       50
176
     1
290
     0
176
     1
 90
       50
176
     1
 62
   256
176
     0
 40
1.0
176
     0
 90
        2
176
     1
  1
strokes_ogs.tif
176
     1
290
     0
176
     1
 40
1.0
176
     1
 40
1.0
176
     1
  0
VISUALSTYLE
  5
10362
102
{ACAD_REACTORS
330
1034A
102
}
330
1034A
100
AcDbVisualStyle
  2
Shaded
 70
    27
177
     3
291
     0
 70
    58
 90
        2
176
     1
 90
        2
176
     1
 90
        1
176
     1
 90
        2
176
     1
 40
0.6
176
     1
 40
30.0
176
     1
 62
     7
420
 16777215
176
     1
 90
        0
176
     1
 90
        4
176
     1
 62
     7
176
     1
 62
   257
176
     1
 90
        1
176
     1
 90
        1
176
     1
 40
1.0
176
     1
 90
        8
176
     1
 62
   257
176
     1
 40
1.0
176
     1
 90
        1
176
     1
 90
        6
176
     1
 90
        2
176
     1
 62
     8
420
  7895160
176
     1
 90
        3
176
     1
 90
        0
176
     1
 90
        0
176
     1
290
     0
176
     1
 90
        5
176
     1
 40
0.0
176
     1
 90
        0
176
     1
290
     0
176
     1
290
     1
176
     1
290
     1
176
     1
290
     0
176
     1
290
     0
176
     1
290
     0
176
     1
290
     0
176
     1
290
     0
176
     1
290
     0
176
     1
 90
       50
176
     1
 40
0.0
176
     1
 40
1.0
176
     1
 90
        0
176
     1
 62
    18
420
        0
176
     1
 90
       50
176
     1
 90
        3
176
     1
 62
     5
420
      255
176
     1
290
     0
176
     1
 90
       50
176
     1
 90
       50
176
     1
 90
       50
176
     1
290
     0
176
     1
 90
       50
176
     1
 62
   256
176
     0
 40
1.0
176
     0
 90
        2
176
     1
  1
strokes_ogs.tif
176
     1
290
     0
176
     1
 40
1.0
176
     1
 40
1.0
176
     1
  0
VISUALSTYLE
  5
10361
102
{ACAD_REACTORS
330
1034A
102
}
330
1034A
100
AcDbVisualStyle
  2
Shaded with edges
 70
    26
177
     3
291
     0
 70
    58
 90
        2
176
     1
 90
        2
176
     1
 90
        1
176
     1
 90
        2
176
     1
 40
0.6
176
     1
 40
30.0
176
     1
 62
     7
420
 16777215
176
     1
 90
        1
176
     1
 90
       10
176
     1
 62
     7
176
     1
 62
   257
176
     1
 90
        2
176
     1
 90
        1
176
     1
 40
1.0
176
     1
 90
        8
176
     1
 62
   257
176
     1
 40
1.0
176
     1
 90
        1
176
     1
 90
        6
176
     1
 90
        2
176
     1
 62
     7
176
     1
 90
        3
176
     1
 90
        0
176
     1
 90
        0
176
     1
290
     0
176
     1
 90
        5
176
     1
 40
0.0
176
     1
 90
        0
176
     1
290
     0
176
     1
290
     1
176
     1
290
     1
176
     1
290
     0
176
     1
290
     0
176
     1
290
     0
176
     1
290
     0
176
     1
290
     0
176
     1
290
     0
176
     1
 90
       50
176
     1
 40
0.0
176
     1
 40
1.0
176
     1
 90
        0
176
     1
 62
    18
420
        0
176
     1
 90
       50
176
     1
 90
        3
176
     1
 62
     5
420
      255
176
     1
290
     0
176
     1
 90
       50
176
     1
 90
       50
176
     1
 90
       50
176
     1
290
     0
176
     1
 90
       50
176
     1
 62
   256
176
     0
 40
1.0
176
     0
 90
        2
176
     1
  1
strokes_ogs.tif
176
     1
290
     0
176
     1
 40
1.0
176
     1
 40
1.0
176
     1
  0
VISUALSTYLE
  5
1035E
102
{ACAD_REACTORS
330
1034A
102
}
330
1034A
100
AcDbVisualStyle
  2
Shades of Gray
 70
    23
177
     3
291
     0
 70
    58
 90
        2
176
     1
 90
        2
176
     1
 90
        3
176
     1
 90
        0
176
     1
 40
0.6
176
     1
 40
30.0
176
     1
 62
     7
420
 16777215
176
     1
 90
        2
176
     1
 90
        2
176
     1
 62
     7
176
     1
 62
     7
176
     1
 90
        1
176
     1
 90
        1
176
     1
 40
40.0
176
     1
 90
        8
176
     1
 62
     7
176
     1
 40
1.0
176
     1
 90
        1
176
     1
 90
        6
176
     1
 90
        2
176
     1
 62
     7
176
     1
 90
        3
176
     1
 90
        0
176
     1
 90
        0
176
     1
290
     0
176
     1
 90
        1
176
     1
 40
0.0
176
     1
 90
        0
176
     1
290
     0
176
     1
290
     1
176
     1
290
     1
176
     1
290
     0
176
     1
290
     0
176
     1
290
     0
176
     1
290
     0
176
     1
290
     0
176
     1
290
     0
176
     1
 90
       50
176
     1
 40
0.0
176
     1
 40
1.0
176
     1
 90
        0
176
     1
 62
    18
420
        0
176
     1
 90
       50
176
     1
 90
        3
176
     1
 62
     5
420
      255
176
     1
290
     0
176
     1
 90
       50
176
     1
 90
       50
176
     1
 90
       50
176
     1
290
     0
176
     1
 90
       50
176
     1
 62
   256
176
     0
 40
1.0
176
     0
 90
        2
176
     1
  1
strokes_ogs.tif
176
     1
290
     0
176
     1
 40
1.0
176
     1
 40
1.0
176
     1
  0
VISUALSTYLE
  5
1035F
102
{ACAD_REACTORS
330
1034A
102
}
330
1034A
100
AcDbVisualStyle
  2
Sketchy
 70
    24
177
     3
291
     0
 70
    58
 90
        1
176
     1
 90
        2
176
     1
 90
        2
176
     1
 90
        0
176
     1
 40
0.6
176
     1
 40
30.0
176
     1
 62
     7
420
 16777215
176
     1
 90
        2
176
     1
 90
        2
176
     1
 62
     7
176
     1
 62
     7
176
     1
 90
        1
176
     1
 90
        1
176
     1
 40
40.0
176
     1
 90
       11
176
     1
 62
     7
176
     1
 40
1.0
176
     1
 90
        1
176
     1
 90
        6
176
     1
 90
        2
176
     1
 62
     7
176
     1
 90
        6
176
     1
 90
        0
176
     1
 90
        0
176
     1
290
     0
176
     1
 90
        1
176
     1
 40
0.0
176
     1
 90
        0
176
     1
290
     0
176
     1
290
     1
176
     1
290
     1
176
     1
290
     0
176
     1
290
     0
176
     1
290
     0
176
     1
290
     0
176
     1
290
     0
176
     1
290
     0
176
     1
 90
       50
176
     1
 40
0.0
176
     1
 40
1.0
176
     1
 90
        0
176
     1
 62
    18
420
        0
176
     1
 90
       50
176
     1
 90
        3
176
     1
 62
     5
420
      255
176
     1
290
     0
176
     1
 90
       50
176
     1
 90
       50
176
     1
 90
       50
176
     1
290
     0
176
     1
 90
       50
176
     1
 62
   256
176
     0
 40
1.0
176
     0
 90
        2
176
     1
  1
strokes_ogs.tif
176
     1
290
     0
176
     1
 40
1.0
176
     1
 40
1.0
176
     1
  0
VISUALSTYLE
  5
10357
102
{ACAD_REACTORS
330
1034A
102
}
330
1034A
100
AcDbVisualStyle
  2
Thicken
 70
    13
177
     3
291
     1
 70
    58
 90
        2
176
     1
 90
        2
176
     1
 90
        0
176
     1
 90
        0
176
     1
 40
0.6
176
     1
 40
30.0
176
     1
 62
     7
420
 16777215
176
     1
 90
        1
176
     1
 90
        4
176
     1
 62
     7
176
     1
 62
   257
176
     1
 90
        1
176
     1
 90
        1
176
     1
 40
1.0
176
     1
 90
       12
176
     1
 62
     7
176
     1
 40
1.0
176
     1
 90
        1
176
     1
 90
        6
176
     1
 90
        2
176
     1
 62
     7
176
     1
 90
        5
176
     1
 90
        0
176
     1
 90
        0
176
     1
290
     0
176
     1
 90
        1
176
     1
 40
0.0
176
     1
 90
        0
176
     1
290
     0
176
     1
290
     1
176
     1
290
     1
176
     1
290
     0
176
     1
290
     0
176
     1
290
     0
176
     1
290
     0
176
     1
290
     0
176
     1
290
     0
176
     1
 90
       50
176
     1
 40
0.0
176
     1
 40
1.0
176
     1
 90
        0
176
     1
 62
    18
420
        0
176
     1
 90
       50
176
     1
 90
        3
176
     1
 62
     5
420
      255
176
     1
290
     0
176
     1
 90
       50
176
     1
 90
       50
176
     1
 90
       50
176
     1
290
     0
176
     1
 90
       50
176
     1
 62
   256
176
     0
 40
1.0
176
     0
 90
        2
176
     1
  1
strokes_ogs.tif
176
     1
290
     0
176
     1
 40
1.0
176
     1
 40
1.0
176
     1
  0
VISUALSTYLE
  5
10350
102
{ACAD_REACTORS
330
1034A
102
}
330
1034A
100
AcDbVisualStyle
  2
Wireframe
 70
     5
177
     3
291
     0
 70
    58
 90
        0
176
     1
 90
        2
176
     1
 90
        0
176
     1
 90
        0
176
     1
 40
0.6
176
     1
 40
30.0
176
     1
 62
     7
420
 16777215
176
     1
 90
        1
176
     1
 90
        4
176
     1
 62
     7
176
     1
 62
   257
176
     1
 90
        1
176
     1
 90
        1
176
     1
 40
1.0
176
     1
 90
        0
176
     1
 62
   257
176
     1
 40
1.0
176
     1
 90
        1
176
     1
 90
        6
176
     1
 90
        2
176
     1
 62
     7
176
     1
 90
        3
176
     1
 90
        0
176
     1
 90
        0
176
     1
290
     0
176
     1
 90
        1
176
     1
 40
0.0
176
     1
 90
        0
176
     1
290
     0
176
     1
290
     1
176
     1
290
     1
176
     1
290
     0
176
     1
290
     0
176
     1
290
     0
176
     1
290
     0
176
     1
290
     0
176
     1
290
     0
176
     1
 90
       50
176
     1
 40
0.0
176
     1
 40
1.0
176
     1
 90
        0
176
     1
 62
    18
420
        0
176
     1
 90
       50
176
     1
 90
        3
176
     1
 62
     5
420
      255
176
     1
290
     0
176
     1
 90
       50
176
     1
 90
       50
176
     1
 90
       50
176
     1
290
     0
176
     1
 90
       50
176
     1
 62
   256
176
     0
 40
1.0
176
     0
 90
        2
176
     1
  1
strokes_ogs.tif
176
     1
290
     0
176
     1
 40
1.0
176
     1
 40
1.0
176
     1
  0
VISUALSTYLE
  5
10360
102
{ACAD_REACTORS
330
1034A
102
}
330
1034A
100
AcDbVisualStyle
  2
X-Ray
 70
    25
177
     3
291
     0
 70
    58
 90
        2
176
     1
 90
        2
176
     1
 90
        1
176
     1
 90
        1
176
     1
 40
0.5
176
     1
 40
30.0
176
     1
 62
     7
420
 16777215
176
     1
 90
        1
176
     1
 90
        0
176
     1
 62
     7
176
     1
 62
   257
176
     1
 90
        1
176
     1
 90
        1
176
     1
 40
1.0
176
     1
 90
        8
176
     1
 62
     7
176
     1
 40
1.0
176
     1
 90
        1
176
     1
 90
        6
176
     1
 90
        2
176
     1
 62
     7
176
     1
 90
        3
176
     1
 90
        0
176
     1
 90
        0
176
     1
290
     0
176
     1
 90
       13
176
     1
 40
0.0
176
     1
 90
        0
176
     1
290
     0
176
     1
290
     1
176
     1
290
     1
176
     1
290
     0
176
     1
290
     0
176
     1
290
     0
176
     1
290
     0
176
     1
290
     0
176
     1
290
     0
176
     1
 90
       50
176
     1
 40
0.0
176
     1
 40
1.0
176
     1
 90
        0
176
     1
 62
    18
420
        0
176
     1
 90
       50
176
     1
 90
        3
176
     1
 62
     5
420
      255
176
     1
290
     0
176
     1
 90
       50
176
     1
 90
       50
176
     1
 90
       50
176
     1
290
     0
176
     1
 90
       50
176
     1
 62
   256
176
     0
 40
1.0
176
     0
 90
        2
176
     1
  1
strokes_ogs.tif
176
     1
290
     0
176
     1
 40
1.0
176
     1
 40
1.0
176
     1
  0
DICTIONARYVAR
  5
1040A
102
{ACAD_REACTORS
330
10409
102
}
330
10409
100
DictionaryVariables
280
     0
  1
1:1
  0
DICTIONARYVAR
  5
1040F
102
{ACAD_REACTORS
330
10409
102
}
330
10409
100
DictionaryVariables
280
     0
  1
Standard
  0
DICTIONARYVAR
  5
1040E
102
{ACAD_REACTORS
330
10409
102
}
330
10409
100
DictionaryVariables
280
     0
  1
Standard
  0
XRECORD
  5
10391
102
{ACAD_REACTORS
330
1038F
102
}
330
1038F
100
AcDbXrecord
280
     1
1000
#ffffff
  0
XRECORD
  5
10392
102
{ACAD_REACTORS
330
1038F
102
}
330
1038F
100
AcDbXrecord
280
     1
1000
FullColor
  0
XRECORD
  5
10393
102
{ACAD_REACTORS
330
1038F
102
}
330
1038F
100
AcDbXrecord
280
     1
290
     1
  0
XRECORD
  5
10394
102
{ACAD_REACTORS
330
1038F
102
}
330
1038F
100
AcDbXrecord
280
     1
290
     1
  0
XRECORD
  5
10395
102
{ACAD_REACTORS
330
1038F
102
}
330
1038F
100
AcDbXrecord
280
     1
290
     1
  0
XRECORD
  5
10396
102
{ACAD_REACTORS
330
1038F
102
}
330
1038F
100
AcDbXrecord
280
     1
290
     1
  0
XRECORD
  5
10397
102
{ACAD_REACTORS
330
1038F
102
}
330
1038F
100
AcDbXrecord
280
     1
1000
auto
  0
XRECORD
  5
10398
102
{ACAD_REACTORS
330
1038F
102
}
330
1038F
100
AcDbXrecord
280
     1
1000
auto
  0
XRECORD
  5
10399
102
{ACAD_REACTORS
330
1038F
102
}
330
1038F
100
AcDbXrecord
280
     1
1000
auto
  0
XRECORD
  5
1039A
102
{ACAD_REACTORS
330
1038F
102
}
330
1038F
100
AcDbXrecord
280
     1
1000
auto
  0
XRECORD
  5
1039B
102
{ACAD_REACTORS
330
1038F
102
}
330
1038F
100
AcDbXrecord
280
     1
1000
auto
  0
XRECORD
  5
1039C
102
{ACAD_REACTORS
330
1038F
102
}
330
1038F
100
AcDbXrecord
280
     1
1000
auto
  0
XRECORD
  5
1039D
102
{ACAD_REACTORS
330
1038F
102
}
330
1038F
100
AcDbXrecord
280
     1
1000
auto
  0
XRECORD
  5
1039E
102
{ACAD_REACTORS
330
1038F
102
}
330
1038F
100
AcDbXrecord
280
     1
1000
auto
  0
XRECORD
  5
1039F
102
{ACAD_REACTORS
330
1038F
102
}
330
1038F
100
AcDbXrecord
280
     1
290
     0
  0
XRECORD
  5
103A0
102
{ACAD_REACTORS
330
1038F
102
}
330
1038F
100
AcDbXrecord
280
     1
290
     0
  0
XRECORD
  5
103A1
102
{ACAD_REACTORS
330
1038F
102
}
330
1038F
100
AcDbXrecord
280
     1
290
     0
  0
XRECORD
  5
103A2
102
{ACAD_REACTORS
330
1038F
102
}
330
1038F
100
AcDbXrecord
280
     1
290
     0
  0
XRECORD
  5
103A3
102
{ACAD_REACTORS
330
1038F
102
}
330
1038F
100
AcDbXrecord
280
     1
 90
    65537
  0
XRECORD
  5
103A4
102
{ACAD_REACTORS
330
1038F
102
}
330
1038F
100
AcDbXrecord
280
     1
 90
    65537
  0
XRECORD
  5
103A5
102
{ACAD_REACTORS
330
1038F
102
}
330
1038F
100
AcDbXrecord
280
     1
 90
    65537
  0
XRECORD
  5
103A6
102
{ACAD_REACTORS
330
1038F
102
}
330
1038F
100
AcDbXrecord
280
     1
 90
    65537
  0
XRECORD
  5
103A7
102
{ACAD_REACTORS
330
1038F
102
}
330
1038F
100
AcDbXrecord
280
     1
1000
auto
  0
XRECORD
  5
103A8
102
{ACAD_REACTORS
330
1038F
102
}
330
1038F
100
AcDbXrecord
280
     1
1000
auto
  0
XRECORD
  5
103A9
102
{ACAD_REACTORS
330
1038F
102
}
330
1038F
100
AcDbXrecord
280
     1
1000
auto
  0
XRECORD
  5
103AA
102
{ACAD_REACTORS
330
1038F
102
}
330
1038F
100
AcDbXrecord
280
     1
1000
auto
  0
XRECORD
  5
103AB
102
{ACAD_REACTORS
330
1038F
102
}
330
1038F
100
AcDbXrecord
280
     1
1000
auto
  0
XRECORD
  5
103AC
102
{ACAD_REACTORS
330
1038F
102
}
330
1038F
100
AcDbXrecord
280
     1
1000
auto
  0
XRECORD
  5
103AD
102
{ACAD_REACTORS
330
1038F
102
}
330
1038F
100
AcDbXrecord
280
     1
1000
auto
  0
XRECORD
  5
103AE
102
{ACAD_REACTORS
330
1038F
102
}
330
1038F
100
AcDbXrecord
280
     1
1000
auto
  0
XRECORD
  5
103AF
102
{ACAD_REACTORS
330
1038F
102
}
330
1038F
100
AcDbXrecord
280
     1
 90
        1
  0
XRECORD
  5
103B0
102
{ACAD_REACTORS
330
1038F
102
}
330
1038F
100
AcDbXrecord
280
     1
 40
10.0
  0
XRECORD
  5
103B1
102
{ACAD_REACTORS
330
1038F
102
}
330
1038F
100
AcDbXrecord
280
     1
 40
10.0
  0
XRECORD
  5
103B2
102
{ACAD_REACTORS
330
1038F
102
}
330
1038F
100
AcDbXrecord
280
     1
 40
10.0
  0
XRECORD
  5
103B3
102
{ACAD_REACTORS
330
1038F
102
}
330
1038F
100
AcDbXrecord
280
     1
 40
10.0
  0
XRECORD
  5
103B6
102
{ACAD_REACTORS
330
1038F
102
}
330
1038F
100
AcDbXrecord
280
     1
 40
10.0
  0
XRECORD
  5
103B7
102
{ACAD_REACTORS
330
1038F
102
}
330
1038F
100
AcDbXrecord
280
     1
 40
10.0
  0
XRECORD
  5
103B8
102
{ACAD_REACTORS
330
1038F
102
}
330
1038F
100
AcDbXrecord
280
     1
 40
10.0
  0
XRECORD
  5
103B9
102
{ACAD_REACTORS
330
1038F
102
}
330
1038F
100
AcDbXrecord
280
     1
 40
10.0
  0
XRECORD
  5
103B4
102
{ACAD_REACTORS
330
1038F
102
}
330
1038F
100
AcDbXrecord
280
     1
290
     0
  0
XRECORD
  5
103BA
102
{ACAD_REACTORS
330
1038F
102
}
330
1038F
100
AcDbXrecord
280
     1
290
     0
  0
XRECORD
  5
103B5
102
{ACAD_REACTORS
330
1038F
102
}
330
1038F
100
AcDbXrecord
280
     1
 90
        1
  0
XRECORD
  5
103BB
102
{ACAD_REACTORS
330
1038F
102
}
330
1038F
100
AcDbXrecord
280
     1
 40
0.0
  0
XRECORD
  5
103BC
102
{ACAD_REACTORS
330
1038F
102
}
330
1038F
100
AcDbXrecord
280
     1
 40
0.0
  0
XRECORD
  5
103BD
102
{ACAD_REACTORS
330
1038F
102
}
330
1038F
100
AcDbXrecord
280
     1
1000
Portrait
  0
XRECORD
  5
103BE
102
{ACAD_REACTORS
330
1038F
102
}
330
1038F
100
AcDbXrecord
280
     1
 40
297.0
  0
XRECORD
  5
103BF
102
{ACAD_REACTORS
330
1038F
102
}
330
1038F
100
AcDbXrecord
280
     1
 40
210.0
  0
XRECORD
  5
103C0
102
{ACAD_REACTORS
330
1038F
102
}
330
1038F
100
AcDbXrecord
280
     1
1000
1:1
  0
XRECORD
  5
103C1
102
{ACAD_REACTORS
330
1038F
102
}
330
1038F
100
AcDbXrecord
280
     1
290
     1
  0
XRECORD
  5
103C2
102
{ACAD_REACTORS
330
1038F
102
}
330
1038F
100
AcDbXrecord
280
     1
290
     0
  0
XRECORD
  5
103C3
102
{ACAD_REACTORS
330
1038F
102
}
330
1038F
100
AcDbXrecord
280
     1
1000
Inside
  0
XRECORD
  5
103C4
102
{ACAD_REACTORS
330
1038F
102
}
330
1038F
100
AcDbXrecord
280
     1
1000
Arial,10,-1,5,50,0,0,0,0,0
  0
XRECORD
  5
103C5
102
{ACAD_REACTORS
330
1038F
102
}
330
1038F
100
AcDbXrecord
280
     1
1000
TopLeft
  0
XRECORD
  5
103C6
102
{ACAD_REACTORS
330
1038F
102
}
330
1038F
100
AcDbXrecord
280
     1
1000
3.24.3
  0
XRECORD
  5
103C7
102
{ACAD_REACTORS
330
1038F
102
}
330
1038F
100
AcDbXrecord
280
     1
 90
        4
  0
XRECORD
  5
103C8
102
{ACAD_REACTORS
330
1038F
102
}
330
1038F
100
AcDbXrecord
280
     1
  0
XRECORD
  5
103C9
102
{ACAD_REACTORS
330
1038F
102
}
330
1038F
100
AcDbXrecord
280
     1
 40
178.313962620039
  0
XRECORD
  5
103CA
102
{ACAD_REACTORS
330
1038F
102
}
330
1038F
100
AcDbXrecord
280
     1
 40
312.1676799183707
  0
DICTIONARY
  5
1040B
330
1038A
100
AcDbDictionary
280
     1
281
     1
  3
ACAD_ROUNDTRIP_2008_TABLESTYLE_CELLSTYLEMAP
360
1040C
  0
CELLSTYLEMAP
  5
1040C
102
{ACAD_REACTORS
330
1040B
102
}
330
1040B
100
AcDbCellStyleMap
 90
        3
300
CELLSTYLE
  1
TABLEFORMAT_BEGIN
 90
        5
170
     1
 91
        0
 92
    32768
 62
   257
 93
        1
300
CONTENTFORMAT
  1
CONTENTFORMAT_BEGIN
 90
        0
 91
        0
 92
        4
 93
        0
300

 40
0.0
140
1.0
 94
        5
 62
     0
340
10332
144
0.25
309
CONTENTFORMAT_END
171
     1
301
MARGIN
  1
CELLMARGIN_BEGIN
 40
0.06
 40
0.06
 40
0.06
 40
0.06
 40
0.06
 40
0.06
309
CELLMARGIN_END
 94
        6
 95
        1
302
GRIDFORMAT
  1
GRIDFORMAT_BEGIN
 90
        0
 91
        1
 62
     0
 92
       -2
340
10334
 93
        0
 40
0.045
309
GRIDFORMAT_END
 95
        2
302
GRIDFORMAT
  1
GRIDFORMAT_BEGIN
 90
        0
 91
        1
 62
     0
 92
       -2
340
10334
 93
        0
 40
0.045
309
GRIDFORMAT_END
 95
        4
302
GRIDFORMAT
  1
GRIDFORMAT_BEGIN
 90
        0
 91
        1
 62
     0
 92
       -2
340
10334
 93
        0
 40
0.045
309
GRIDFORMAT_END
 95
        8
302
GRIDFORMAT
  1
GRIDFORMAT_BEGIN
 90
        0
 91
        1
 62
     0
 92
       -2
340
10334
 93
        0
 40
0.045
309
GRIDFORMAT_END
 95
       16
302
GRIDFORMAT
  1
GRIDFORMAT_BEGIN
 90
        0
 91
        1
 62
     0
 92
       -2
340
10334
 93
        0
 40
0.045
309
GRIDFORMAT_END
 95
       32
302
GRIDFORMAT
  1
GRIDFORMAT_BEGIN
 90
        0
 91
        1
 62
     0
 92
       -2
340
10334
 93
        0
 40
0.045
309
GRIDFORMAT_END
309
TABLEFORMAT_END
  1
CELLSTYLE_BEGIN
 90
        1
 91
        1
300
_TITLE
309
CELLSTYLE_END
300
CELLSTYLE
  1
TABLEFORMAT_BEGIN
 90
        5
170
     1
 91
        0
 92
        0
 62
   257
 93
        1
300
CONTENTFORMAT
  1
CONTENTFORMAT_BEGIN
 90
        0
 91
        0
 92
        4
 93
        0
300

 40
0.0
140
1.0
 94
        5
 62
     0
340
10332
144
0.18
309
CONTENTFORMAT_END
171
     1
301
MARGIN
  1
CELLMARGIN_BEGIN
 40
0.06
 40
0.06
 40
0.06
 40
0.06
 40
0.06
 40
0.06
309
CELLMARGIN_END
 94
        6
 95
        1
302
GRIDFORMAT
  1
GRIDFORMAT_BEGIN
 90
        0
 91
        1
 62
     0
 92
       -2
340
10334
 93
        0
 40
0.045
309
GRIDFORMAT_END
 95
        2
302
GRIDFORMAT
  1
GRIDFORMAT_BEGIN
 90
        0
 91
        1
 62
     0
 92
       -2
340
10334
 93
        0
 40
0.045
309
GRIDFORMAT_END
 95
        4
302
GRIDFORMAT
  1
GRIDFORMAT_BEGIN
 90
        0
 91
        1
 62
     0
 92
       -2
340
10334
 93
        0
 40
0.045
309
GRIDFORMAT_END
 95
        8
302
GRIDFORMAT
  1
GRIDFORMAT_BEGIN
 90
        0
 91
        1
 62
     0
 92
       -2
340
10334
 93
        0
 40
0.045
309
GRIDFORMAT_END
 95
       16
302
GRIDFORMAT
  1
GRIDFORMAT_BEGIN
 90
        0
 91
        1
 62
     0
 92
       -2
340
10334
 93
        0
 40
0.045
309
GRIDFORMAT_END
 95
       32
302
GRIDFORMAT
  1
GRIDFORMAT_BEGIN
 90
        0
 91
        1
 62
     0
 92
       -2
340
10334
 93
        0
 40
0.045
309
GRIDFORMAT_END
309
TABLEFORMAT_END
  1
CELLSTYLE_BEGIN
 90
        2
 91
        1
300
_HEADER
309
CELLSTYLE_END
300
CELLSTYLE
  1
TABLEFORMAT_BEGIN
 90
        5
170
     1
 91
        0
 92
        0
 62
   257
 93
        1
300
CONTENTFORMAT
  1
CONTENTFORMAT_BEGIN
 90
        0
 91
        0
 92
        4
 93
        0
300

 40
0.0
140
1.0
 94
        2
 62
     0
340
10332
144
0.18
309
CONTENTFORMAT_END
171
     1
301
MARGIN
  1
CELLMARGIN_BEGIN
 40
0.06
 40
0.06
 40
0.06
 40
0.06
 40
0.06
 40
0.06
309
CELLMARGIN_END
 94
        6
 95
        1
302
GRIDFORMAT
  1
GRIDFORMAT_BEGIN
 90
        0
 91
        1
 62
     0
 92
       -2
340
10334
 93
        0
 40
0.045
309
GRIDFORMAT_END
 95
        2
302
GRIDFORMAT
  1
GRIDFORMAT_BEGIN
 90
        0
 91
        1
 62
     0
 92
       -2
340
10334
 93
        0
 40
0.045
309
GRIDFORMAT_END
 95
        4
302
GRIDFORMAT
  1
GRIDFORMAT_BEGIN
 90
        0
 91
        1
 62
     0
 92
       -2
340
10334
 93
        0
 40
0.045
309
GRIDFORMAT_END
 95
        8
302
GRIDFORMAT
  1
GRIDFORMAT_BEGIN
 90
        0
 91
        1
 62
     0
 92
       -2
340
10334
 93
        0
 40
0.045
309
GRIDFORMAT_END
 95
       16
302
GRIDFORMAT
  1
GRIDFORMAT_BEGIN
 90
        0
 91
        1
 62
     0
 92
       -2
340
10334
 93
        0
 40
0.045
309
GRIDFORMAT_END
 95
       32
302
GRIDFORMAT
  1
GRIDFORMAT_BEGIN
 90
        0
 91
        1
 62
     0
 92
       -2
340
10334
 93
        0
 40
0.045
309
GRIDFORMAT_END
309
TABLEFORMAT_END
  1
CELLSTYLE_BEGIN
 90
        3
 91
        2
300
_DATA
309
CELLSTYLE_END
  0
ENDSEC
  0
EOF
