  0
SECTION
  2
HEADER
  9
$ACADVER
  1
AC1014
  9
$ACADMAINTVER
 70
     9
  9
$DWGCODEPAGE
  3
ANSI_1252
  9
$INSBASE
 10
0.0
 20
0.0
 30
0.0
  9
$EXTMIN
 10
-7.171572875260248
 20
-102.4219976099055
 30
0.0
  9
$EXTMAX
 10
292.9215737128691
 20
7.171991687195449
 30
0.0
  9
$LIMMIN
 10
0.0
 20
0.0
  9
$LIMMAX
 10
12.0
 20
9.0
  9
$ORTHOMODE
 70
     0
  9
$REGENMODE
 70
     1
  9
$FILLMODE
 70
     1
  9
$QTEXTMODE
 70
     0
  9
$MIRRTEXT
 70
     1
  9
$DRAGMODE
 70
     2
  9
$LTSCALE
 40
1.0
  9
$OSMODE
 70
    37
  9
$ATTMODE
 70
     1
  9
$TEXTSIZE
 40
0.2
  9
$TRACEWID
 40
0.05
  9
$TEXTSTYLE
  7
STANDARD
  9
$CLAYER
  8
0
  9
$CELTYPE
  6
BYLAYER
  9
$CECOLOR
 62
   256
  9
$CELTSCALE
 40
1.0
  9
$DELOBJ
 70
     1
  9
$DISPSILH
 70
     0
  9
$DIMSCALE
 40
1.0
  9
$DIMASZ
 40
0.18
  9
$DIMEXO
 40
0.0625
  9
$DIMDLI
 40
0.38
  9
$DIMRND
 40
0.0
  9
$DIMDLE
 40
0.0
  9
$DIMEXE
 40
0.18
  9
$DIMTP
 40
0.0
  9
$DIMTM
 40
0.0
  9
$DIMTXT
 40
0.18
  9
$DIMCEN
 40
0.09
  9
$DIMTSZ
 40
0.0
  9
$DIMTOL
 70
     0
  9
$DIMLIM
 70
     0
  9
$DIMTIH
 70
     1
  9
$DIMTOH
 70
     1
  9
$DIMSE1
 70
     0
  9
$DIMSE2
 70
     0
  9
$DIMTAD
 70
     0
  9
$DIMZIN
 70
     0
  9
$DIMBLK
  1

  9
$DIMASO
 70
     1
  9
$DIMSHO
 70
     1
  9
$DIMPOST
  1

  9
$DIMAPOST
  1

  9
$DIMALT
 70
     0
  9
$DIMALTD
 70
     2
  9
$DIMALTF
 40
25.4
  9
$DIMLFAC
 40
1.0
  9
$DIMTOFL
 70
     0
  9
$DIMTVP
 40
0.0
  9
$DIMTIX
 70
     0
  9
$DIMSOXD
 70
     0
  9
$DIMSAH
 70
     0
  9
$DIMBLK1
  1

  9
$DIMBLK2
  1

  9
$DIMSTYLE
  2
STANDARD
  9
$DIMCLRD
 70
    18
  9
$DIMCLRE
 70
    18
  9
$DIMCLRT
 70
    18
  9
$DIMTFAC
 40
1.0
  9
$DIMGAP
 40
0.09
  9
$DIMJUST
 70
     0
  9
$DIMSD1
 70
     0
  9
$DIMSD2
 70
     0
  9
$DIMTOLJ
 70
     1
  9
$DIMTZIN
 70
     0
  9
$DIMALTZ
 70
     0
  9
$DIMALTTZ
 70
     0
  9
$DIMFIT
 70
     3
  9
$DIMUPT
 70
     0
  9
$DIMUNIT
 70
     2
  9
$DIMDEC
 70
     4
  9
$DIMTDEC
 70
     4
  9
$DIMALTU
 70
     2
  9
$DIMALTTD
 70
     2
  9
$DIMTXSTY
  7
STANDARD
  9
$DIMAUNIT
 70
     0
  9
$LUNITS
 70
     2
  9
$LUPREC
 70
     4
  9
$SKETCHINC
 40
0.1
  9
$FILLETRAD
 40
0.5
  9
$AUNITS
 70
     0
  9
$AUPREC
 70
     0
  9
$MENU
  1
.
  9
$ELEVATION
 40
0.0
  9
$PELEVATION
 40
0.0
  9
$THICKNESS
 40
0.0
  9
$LIMCHECK
 70
     0
  9
$CHAMFERA
 40
0.0
  9
$CHAMFERB
 40
0.0
  9
$CHAMFERC
 40
0.0
  9
$CHAMFERD
 40
0.0
  9
$SKPOLY
 70
     0
  9
$TDCREATE
 40
2459229.869388322
  9
$TDUPDATE
 40
2459229.869388345
  9
$TDINDWG
 40
0.0000000116
  9
$TDUSRTIMER
 40
0.0000000116
  9
$USRTIMER
 70
     1
  9
$ANGBASE
 50
0.0
  9
$ANGDIR
 70
     0
  9
$PDMODE
 70
     0
  9
$PDSIZE
 40
0.0
  9
$PLINEWID
 40
0.0
  9
$COORDS
 70
     1
  9
$SPLFRAME
 70
     0
  9
$SPLINETYPE
 70
     6
  9
$SPLINESEGS
 70
     8
  9
$ATTDIA
 70
     0
  9
$ATTREQ
 70
     1
  9
$HANDLING
 70
     1
  9
$HANDSEED
  5
10271
  9
$SURFTAB1
 70
     6
  9
$SURFTAB2
 70
     6
  9
$SURFTYPE
 70
     6
  9
$SURFU
 70
     6
  9
$SURFV
 70
     6
  9
$UCSNAME
  2

  9
$UCSORG
 10
0.0
 20
0.0
 30
0.0
  9
$UCSXDIR
 10
1.0
 20
0.0
 30
0.0
  9
$UCSYDIR
 10
0.0
 20
1.0
 30
0.0
  9
$PUCSNAME
  2

  9
$PUCSORG
 10
0.0
 20
0.0
 30
0.0
  9
$PUCSXDIR
 10
1.0
 20
0.0
 30
0.0
  9
$PUCSYDIR
 10
0.0
 20
1.0
 30
0.0
  9
$USERI1
 70
     0
  9
$USERI2
 70
     0
  9
$USERI3
 70
     0
  9
$USERI4
 70
     0
  9
$USERI5
 70
     0
  9
$USERR1
 40
0.0
  9
$USERR2
 40
0.0
  9
$USERR3
 40
0.0
  9
$USERR4
 40
0.0
  9
$USERR5
 40
0.0
  9
$WORLDVIEW
 70
     1
  9
$SHADEDGE
 70
     3
  9
$SHADEDIF
 70
    70
  9
$TILEMODE
 70
     1
  9
$MAXACTVP
 70
    64
  9
$PINSBASE
 10
0.0
 20
0.0
 30
0.0
  9
$PLIMCHECK
 70
     0
  9
$PEXTMIN
 10
1.000000000000000E+20
 20
1.000000000000000E+20
 30
1.000000000000000E+20
  9
$PEXTMAX
 10
-1.000000000000000E+20
 20
-1.000000000000000E+20
 30
-1.000000000000000E+20
  9
$PLIMMIN
 10
-0.25
 20
-0.25
  9
$PLIMMAX
 10
10.75
 20
8.25
  9
$UNITMODE
 70
     0
  9
$VISRETAIN
 70
     1
  9
$PLINEGEN
 70
     0
  9
$PSLTSCALE
 70
     1
  9
$TREEDEPTH
 70
  3020
  9
$PICKSTYLE
 70
     1
  9
$CMLSTYLE
  2
STANDARD
  9
$CMLJUST
 70
     0
  9
$CMLSCALE
 40
1.0
  9
$PROXYGRAPHICS
 70
     1
  9
$MEASUREMENT
 70
     0
  0
ENDSEC
  0
SECTION
  2
CLASSES
  0
CLASS
  1
ACDBDICTIONARYWDFLT
  2
AcDbDictionaryWithDefault
  3
ObjectDBX Classes
 90
        0
280
     0
281
     0
  0
CLASS
  1
VISUALSTYLE
  2
AcDbVisualStyle
  3
ObjectDBX Classes
 90
     4095
280
     0
281
     0
  0
CLASS
  1
MATERIAL
  2
AcDbMaterial
  3
ObjectDBX Classes
 90
     1153
280
     0
281
     0
  0
CLASS
  1
SCALE
  2
AcDbScale
  3
ObjectDBX Classes
 90
     1153
280
     0
281
     0
  0
CLASS
  1
TABLESTYLE
  2
AcDbTableStyle
  3
ObjectDBX Classes
 90
     4095
280
     0
281
     0
  0
CLASS
  1
MLEADERSTYLE
  2
AcDbMLeaderStyle
  3
ACDB_MLEADERSTYLE_CLASS
 90
     4095
280
     0
281
     0
  0
CLASS
  1
SUN
  2
AcDbSun
  3
SCENEOE
 90
     1153
280
     0
281
     0
  0
CLASS
  1
DICTIONARYVAR
  2
AcDbDictionaryVar
  3
ObjectDBX Classes
 90
        0
280
     0
281
     0
  0
CLASS
  1
XRECORD
  2
AcDbXrecord
  3
ObjectDBX Classes
 90
        0
280
     0
281
     0
  0
CLASS
  1
LWPOLYLINE
  2
AcDbPolyline
  3
ObjectDBX Classes
 90
        0
280
     0
281
     1
  0
CLASS
  1
HATCH
  2
AcDbHatch
  3
ObjectDBX Classes
 90
        0
280
     0
281
     1
  0
CLASS
  1
ACDBPLACEHOLDER
  2
AcDbPlaceHolder
  3
ObjectDBX Classes
 90
        0
280
     0
281
     0
  0
CLASS
  1
LAYOUT
  2
AcDbLayout
  3
ObjectDBX Classes
 90
        0
280
     0
281
     0
  0
ENDSEC
  0
SECTION
  2
TABLES
  0
TABLE
  2
VPORT
  5
1015D
102
{ACAD_XDICTIONARY
360
10266
102
}
330
0
100
AcDbSymbolTable
 70
     1
  0
VPORT
  5
1017D
330
1015D
100
AcDbSymbolTableRecord
100
AcDbViewportTableRecord
  2
*ACTIVE
 70
     0
 10
0.0
 20
0.0
 11
1.0
 21
1.0
 12
144.0161742985461
 22
-43.08756554931082
 13
0.0
 23
0.0
 14
0.5
 24
0.5
 15
0.5
 25
0.5
 16
0.0
 26
0.0
 36
1.0
 17
0.0
 27
0.0
 37
0.0
 40
308.1265274074273
 41
1.750663129973475
 42
50.0
 43
0.0
 44
0.0
 50
0.0
 51
0.0
 71
     0
 72
   100
 73
     1
 74
     3
 75
     0
 76
     0
 77
     0
 78
     0
  0
ENDTAB
  0
TABLE
  2
LTYPE
  5
1015A
330
0
100
AcDbSymbolTable
 70
    48
  0
LTYPE
  5
10168
330
1015A
100
AcDbSymbolTableRecord
100
AcDbLinetypeTableRecord
  2
BYBLOCK
 70
     0
  3

 72
    65
 73
     0
 40
0.0
  0
LTYPE
  5
10169
330
1015A
100
AcDbSymbolTableRecord
100
AcDbLinetypeTableRecord
  2
BYLAYER
 70
     0
  3

 72
    65
 73
     0
 40
0.0
  0
LTYPE
  5
1016A
330
1015A
100
AcDbSymbolTableRecord
100
AcDbLinetypeTableRecord
  2
CONTINUOUS
 70
     0
  3
Solid line
 72
    65
 73
     0
 40
0.0
  0
LTYPE
  5
10201
330
1015A
100
AcDbSymbolTableRecord
100
AcDbLinetypeTableRecord
  2
ACAD_ISO06W100
 70
     0
  3
ISO long-dash triple-dot ____ ... ____ ... ____
 72
    65
 73
     8
 40
36.0
 49
24.0
 74
     0
 49
-3.0
 74
     0
 49
0.0
 74
     0
 49
-3.0
 74
     0
 49
0.0
 74
     0
 49
-3.0
 74
     0
 49
0.0
 74
     0
 49
-3.0
 74
     0
  0
LTYPE
  5
10202
330
1015A
100
AcDbSymbolTableRecord
100
AcDbLinetypeTableRecord
  2
ACAD_ISO07W100
 70
     0
  3
ISO dot . . . . . . . . . . . . . . . . . . . . 
 72
    65
 73
     2
 40
3.0
 49
0.0
 74
     0
 49
-3.0
 74
     0
  0
LTYPE
  5
10203
330
1015A
100
AcDbSymbolTableRecord
100
AcDbLinetypeTableRecord
  2
ACAD_ISO12W100
 70
     0
  3
ISO dash double-dot __ . . __ . . __ . . __ . . 
 72
    65
 73
     6
 40
21.0
 49
12.0
 74
     0
 49
-3.0
 74
     0
 49
0.0
 74
     0
 49
-3.0
 74
     0
 49
0.0
 74
     0
 49
-3.0
 74
     0
  0
LTYPE
  5
10204
330
1015A
100
AcDbSymbolTableRecord
100
AcDbLinetypeTableRecord
  2
ACAD_ISO13W100
 70
     0
  3
ISO double-dash double-dot __ __ . . __ __ . . _
 72
    65
 73
     8
 40
36.0
 49
12.0
 74
     0
 49
-3.0
 74
     0
 49
12.0
 74
     0
 49
-3.0
 74
     0
 49
0.0
 74
     0
 49
-3.0
 74
     0
 49
0.0
 74
     0
 49
-3.0
 74
     0
  0
LTYPE
  5
10205
330
1015A
100
AcDbSymbolTableRecord
100
AcDbLinetypeTableRecord
  2
ACAD_ISO10W100
 70
     0
  3
ISO dash dot __ . __ . __ . __ . __ . __ . __ . 
 72
    65
 73
     4
 40
18.0
 49
12.0
 74
     0
 49
-3.0
 74
     0
 49
0.0
 74
     0
 49
-3.0
 74
     0
  0
LTYPE
  5
10206
330
1015A
100
AcDbSymbolTableRecord
100
AcDbLinetypeTableRecord
  2
ACAD_ISO11W100
 70
     0
  3
ISO double-dash dot __ __ . __ __ . __ __ . __ _
 72
    65
 73
     6
 40
33.0
 49
12.0
 74
     0
 49
-3.0
 74
     0
 49
12.0
 74
     0
 49
-3.0
 74
     0
 49
0.0
 74
     0
 49
-3.0
 74
     0
  0
LTYPE
  5
10209
330
1015A
100
AcDbSymbolTableRecord
100
AcDbLinetypeTableRecord
  2
BATTING
 70
     0
  3
Batting SSSSSSSSSSSSSSSSSSSSSSSSSSSSSSSSSSSSSSSSSSSSSSS
 72
    65
 73
     4
 40
10.16254
 49
0.00254
 74
     0
 49
-2.54
 74
     2
 75
     0
340
10207
 46
2.54
 50
0.0
 44
-2.54
 45
0.0
  9
BAT
 49
-5.08
 74
     2
 75
     0
340
10208
 46
2.54
 50
180.0
 44
2.54
 45
0.0
  9
BAT
 49
-2.54
 74
     0
  0
LTYPE
  5
1020A
330
1015A
100
AcDbSymbolTableRecord
100
AcDbLinetypeTableRecord
  2
BORDER
 70
     0
  3
Border __ __ . __ __ . __ __ . __ __ . __ __ .
 72
    65
 73
     6
 40
44.45
 49
12.7
 74
     0
 49
-6.35
 74
     0
 49
12.7
 74
     0
 49
-6.35
 74
     0
 49
0.0
 74
     0
 49
-6.35
 74
     0
  0
LTYPE
  5
1020B
330
1015A
100
AcDbSymbolTableRecord
100
AcDbLinetypeTableRecord
  2
ACAD_ISO14W100
 70
     0
  3
ISO dash triple-dot __ . . . __ . . . __ . . . _
 72
    65
 73
     8
 40
24.0
 49
12.0
 74
     0
 49
-3.0
 74
     0
 49
0.0
 74
     0
 49
-3.0
 74
     0
 49
0.0
 74
     0
 49
-3.0
 74
     0
 49
0.0
 74
     0
 49
-3.0
 74
     0
  0
LTYPE
  5
1020C
330
1015A
100
AcDbSymbolTableRecord
100
AcDbLinetypeTableRecord
  2
ACAD_ISO15W100
 70
     0
  3
ISO double-dash triple-dot __ __ . . . __ __ . .
 72
    65
 73
    10
 40
39.0
 49
12.0
 74
     0
 49
-3.0
 74
     0
 49
12.0
 74
     0
 49
-3.0
 74
     0
 49
0.0
 74
     0
 49
-3.0
 74
     0
 49
0.0
 74
     0
 49
-3.0
 74
     0
 49
0.0
 74
     0
 49
-3.0
 74
     0
  0
LTYPE
  5
1020D
330
1015A
100
AcDbSymbolTableRecord
100
AcDbLinetypeTableRecord
  2
CENTER
 70
     0
  3
Center ____ _ ____ _ ____ _ ____ _ ____ _ ____
 72
    65
 73
     4
 40
50.8
 49
31.75
 74
     0
 49
-6.35
 74
     0
 49
6.35
 74
     0
 49
-6.35
 74
     0
  0
LTYPE
  5
1020E
330
1015A
100
AcDbSymbolTableRecord
100
AcDbLinetypeTableRecord
  2
CENTER2
 70
     0
  3
Center (.5x) ___ _ ___ _ ___ _ ___ _ ___ _ ___
 72
    65
 73
     4
 40
28.575
 49
19.05
 74
     0
 49
-3.175
 74
     0
 49
3.175
 74
     0
 49
-3.175
 74
     0
  0
LTYPE
  5
1020F
330
1015A
100
AcDbSymbolTableRecord
100
AcDbLinetypeTableRecord
  2
BORDER2
 70
     0
  3
Border (.5x) __.__.__.__.__.__.__.__.__.__.__.
 72
    65
 73
     6
 40
22.225
 49
6.35
 74
     0
 49
-3.175
 74
     0
 49
6.35
 74
     0
 49
-3.175
 74
     0
 49
0.0
 74
     0
 49
-3.175
 74
     0
  0
LTYPE
  5
10210
330
1015A
100
AcDbSymbolTableRecord
100
AcDbLinetypeTableRecord
  2
BORDERX2
 70
     0
  3
Border (2x) ____  ____  .  ____  ____  .  ___
 72
    65
 73
     6
 40
88.89999999999999
 49
25.4
 74
     0
 49
-12.7
 74
     0
 49
25.4
 74
     0
 49
-12.7
 74
     0
 49
0.0
 74
     0
 49
-12.7
 74
     0
  0
LTYPE
  5
10211
330
1015A
100
AcDbSymbolTableRecord
100
AcDbLinetypeTableRecord
  2
DASHDOT2
 70
     0
  3
Dash dot (.5x) _._._._._._._._._._._._._._._.
 72
    65
 73
     4
 40
12.7
 49
6.35
 74
     0
 49
-3.175
 74
     0
 49
0.0
 74
     0
 49
-3.175
 74
     0
  0
LTYPE
  5
10212
330
1015A
100
AcDbSymbolTableRecord
100
AcDbLinetypeTableRecord
  2
DASHDOTX2
 70
     0
  3
Dash dot (2x) ____  .  ____  .  ____  .  ___
 72
    65
 73
     4
 40
50.8
 49
25.4
 74
     0
 49
-12.7
 74
     0
 49
0.0
 74
     0
 49
-12.7
 74
     0
  0
LTYPE
  5
10213
330
1015A
100
AcDbSymbolTableRecord
100
AcDbLinetypeTableRecord
  2
CENTERX2
 70
     0
  3
Center (2x) ________  __  ________  __  _____
 72
    65
 73
     4
 40
101.6
 49
63.5
 74
     0
 49
-12.7
 74
     0
 49
12.7
 74
     0
 49
-12.7
 74
     0
  0
LTYPE
  5
10214
330
1015A
100
AcDbSymbolTableRecord
100
AcDbLinetypeTableRecord
  2
DASHDOT
 70
     0
  3
Dash dot __ . __ . __ . __ . __ . __ . __ . __
 72
    65
 73
     4
 40
25.4
 49
12.7
 74
     0
 49
-6.35
 74
     0
 49
0.0
 74
     0
 49
-6.35
 74
     0
  0
LTYPE
  5
10215
330
1015A
100
AcDbSymbolTableRecord
100
AcDbLinetypeTableRecord
  2
DASHEDX2
 70
     0
  3
Dashed (2x) ____  ____  ____  ____  ____  ___
 72
    65
 73
     2
 40
38.09999999999999
 49
25.4
 74
     0
 49
-12.7
 74
     0
  0
LTYPE
  5
10216
330
1015A
100
AcDbSymbolTableRecord
100
AcDbLinetypeTableRecord
  2
DIVIDE
 70
     0
  3
Divide ____ . . ____ . . ____ . . ____ . . ____
 72
    65
 73
     6
 40
31.75
 49
12.7
 74
     0
 49
-6.35
 74
     0
 49
0.0
 74
     0
 49
-6.35
 74
     0
 49
0.0
 74
     0
 49
-6.35
 74
     0
  0
LTYPE
  5
10217
330
1015A
100
AcDbSymbolTableRecord
100
AcDbLinetypeTableRecord
  2
DASHED
 70
     0
  3
Dashed __ __ __ __ __ __ __ __ __ __ __ __ __ _
 72
    65
 73
     2
 40
19.05
 49
12.7
 74
     0
 49
-6.35
 74
     0
  0
LTYPE
  5
10218
330
1015A
100
AcDbSymbolTableRecord
100
AcDbLinetypeTableRecord
  2
DASHED2
 70
     0
  3
Dashed (.5x) _ _ _ _ _ _ _ _ _ _ _ _ _ _ _ _ _ 
 72
    65
 73
     2
 40
9.524999999999999
 49
6.35
 74
     0
 49
-3.175
 74
     0
  0
LTYPE
  5
10219
330
1015A
100
AcDbSymbolTableRecord
100
AcDbLinetypeTableRecord
  2
DOT
 70
     0
  3
Dot . . . . . . . . . . . . . . . . . . . . . . . .
 72
    65
 73
     2
 40
6.35
 49
0.0
 74
     0
 49
-6.35
 74
     0
  0
LTYPE
  5
1021A
330
1015A
100
AcDbSymbolTableRecord
100
AcDbLinetypeTableRecord
  2
DOT2
 70
     0
  3
Dot (.5x) ........................................
 72
    65
 73
     2
 40
3.175
 49
0.0
 74
     0
 49
-3.175
 74
     0
  0
LTYPE
  5
1021B
330
1015A
100
AcDbSymbolTableRecord
100
AcDbLinetypeTableRecord
  2
DIVIDE2
 70
     0
  3
Divide (.5x) __..__..__..__..__..__..__..__.._
 72
    65
 73
     6
 40
15.875
 49
6.35
 74
     0
 49
-3.175
 74
     0
 49
0.0
 74
     0
 49
-3.175
 74
     0
 49
0.0
 74
     0
 49
-3.175
 74
     0
  0
LTYPE
  5
1021C
330
1015A
100
AcDbSymbolTableRecord
100
AcDbLinetypeTableRecord
  2
DIVIDEX2
 70
     0
  3
Divide (2x) ________  .  .  ________  .  .  _
 72
    65
 73
     6
 40
63.5
 49
25.4
 74
     0
 49
-12.7
 74
     0
 49
0.0
 74
     0
 49
-12.7
 74
     0
 49
0.0
 74
     0
 49
-12.7
 74
     0
  0
LTYPE
  5
1021E
330
1015A
100
AcDbSymbolTableRecord
100
AcDbLinetypeTableRecord
  2
DRAINAGE2
 70
     0
  3
Drainage reversed----<----<----<----
 72
    65
 73
     2
 40
10.16
 49
5.08
 74
     2
 75
     0
340
1021D
 46
2.54
 50
0.0
 44
0.0
 45
0.0
  9
RIGHT_ARROW
 49
5.08
 74
     0
  0
LTYPE
  5
10220
330
1015A
100
AcDbSymbolTableRecord
100
AcDbLinetypeTableRecord
  2
FENCELINE1
 70
     0
  3
Fenceline circle ----0-----0----0-----0----0-----0--
 72
    65
 73
     4
 40
36.83
 49
6.35
 74
     0
 49
-2.54
 74
     2
 75
     0
340
1021F
 46
2.54
 50
0.0
 44
-2.54
 45
0.0
  9
CIRC1
 49
-2.54
 74
     0
 49
25.4
 74
     0
  0
LTYPE
  5
10221
330
1015A
100
AcDbSymbolTableRecord
100
AcDbLinetypeTableRecord
  2
DOTX2
 70
     0
  3
Dot (2x) .  .  .  .  .  .  .  .  .  .  .  .  .  .
 72
    65
 73
     2
 40
12.7
 49
0.0
 74
     0
 49
-12.7
 74
     0
  0
LTYPE
  5
10223
330
1015A
100
AcDbSymbolTableRecord
100
AcDbLinetypeTableRecord
  2
DRAINAGE
 70
     0
  3
Drainage ---->---->---->----
 72
    65
 73
     2
 40
10.16
 49
5.08
 74
     2
 75
     0
340
10222
 46
2.54
 50
180.0
 44
0.0
 45
0.0
  9
RIGHT_ARROW
 49
5.08
 74
     0
  0
LTYPE
  5
10224
330
1015A
100
AcDbSymbolTableRecord
100
AcDbLinetypeTableRecord
  2
HIDDEN
 70
     0
  3
Hidden __ __ __ __ __ __ __ __ __ __ __ __ __ __
 72
    65
 73
     2
 40
9.524999999999999
 49
6.35
 74
     0
 49
-3.175
 74
     0
  0
LTYPE
  5
10225
330
1015A
100
AcDbSymbolTableRecord
100
AcDbLinetypeTableRecord
  2
HIDDEN2
 70
     0
  3
Hidden (.5x) _ _ _ _ _ _ _ _ _ _ _ _ _ _ _ _ _ 
 72
    65
 73
     2
 40
4.762499999999999
 49
3.175
 74
     0
 49
-1.5875
 74
     0
  0
LTYPE
  5
10227
330
1015A
100
AcDbSymbolTableRecord
100
AcDbLinetypeTableRecord
  2
FENCELINE2
 70
     0
  3
Fenceline square ----[]-----[]----[]-----[]----[]---
 72
    65
 73
     4
 40
36.83
 49
6.35
 74
     0
 49
-2.54
 74
     2
 75
     0
340
10226
 46
2.54
 50
0.0
 44
-2.54
 45
0.0
  9
BOX
 49
-2.54
 74
     0
 49
25.4
 74
     0
  0
LTYPE
  5
10229
330
1015A
100
AcDbSymbolTableRecord
100
AcDbLinetypeTableRecord
  2
GAS_LINE
 70
     0
  3
Gas line ----GAS----GAS----GAS----GAS----GAS----GAS--
 72
    65
 73
     3
 40
24.13
 49
12.7
 74
     0
 49
-5.08
 74
     2
 75
     0
340
10228
 46
2.54
 50
0.0
 44
-2.54
 45
-1.27
  9
GAS
 49
-6.35
 74
     0
  0
LTYPE
  5
1022A
330
1015A
100
AcDbSymbolTableRecord
100
AcDbLinetypeTableRecord
  2
PHANTOM
 70
     0
  3
Phantom ______  __  __  ______  __  __  ______ 
 72
    65
 73
     6
 40
63.50000000000001
 49
31.75
 74
     0
 49
-6.35
 74
     0
 49
6.35
 74
     0
 49
-6.35
 74
     0
 49
6.35
 74
     0
 49
-6.35
 74
     0
  0
LTYPE
  5
1022B
330
1015A
100
AcDbSymbolTableRecord
100
AcDbLinetypeTableRecord
  2
PHANTOM2
 70
     0
  3
Phantom (.5x) ___ _ _ ___ _ _ ___ _ _ ___ _ _
 72
    65
 73
     6
 40
31.75
 49
15.875
 74
     0
 49
-3.175
 74
     0
 49
3.175
 74
     0
 49
-3.175
 74
     0
 49
3.175
 74
     0
 49
-3.175
 74
     0
  0
LTYPE
  5
1022C
330
1015A
100
AcDbSymbolTableRecord
100
AcDbLinetypeTableRecord
  2
HIDDENX2
 70
     0
  3
Hidden (2x) ____ ____ ____ ____ ____ ____ ____ 
 72
    65
 73
     2
 40
19.05
 49
12.7
 74
     0
 49
-6.35
 74
     0
  0
LTYPE
  5
1022E
330
1015A
100
AcDbSymbolTableRecord
100
AcDbLinetypeTableRecord
  2
HOT_WATER_SUPPLY
 70
     0
  3
Hot water supply ---- HW ---- HW ---- HW ----
 72
    65
 73
     3
 40
22.86
 49
12.7
 74
     0
 49
-5.08
 74
     2
 75
     0
340
1022D
 46
2.54
 50
0.0
 44
-2.54
 45
-1.27
  9
HW
 49
-5.08
 74
     0
  0
LTYPE
  5
10231
330
1015A
100
AcDbSymbolTableRecord
100
AcDbLinetypeTableRecord
  2
ZIGZAG
 70
     0
  3
Zig zag /\/\/\/\/\/\/\/\/\/\/\/\/\/\/\/\/\/\/\/\/\/\/\/
 72
    65
 73
     4
 40
20.32254
 49
0.00254
 74
     0
 49
-5.08
 74
     2
 75
     0
340
1022F
 46
5.08
 50
0.0
 44
-5.08
 45
0.0
  9
ZIG
 49
-10.16
 74
     2
 75
     0
340
10230
 46
5.08
 50
180.0
 44
5.08
 45
0.0
  9
ZIG
 49
-5.08
 74
     0
  0
LTYPE
  5
10232
330
1015A
100
AcDbSymbolTableRecord
100
AcDbLinetypeTableRecord
  2
PHANTOMX2
 70
     0
  3
Phantom (2x) ____________    ____    ____   _
 72
    65
 73
     6
 40
127.0
 49
63.5
 74
     0
 49
-12.7
 74
     0
 49
12.7
 74
     0
 49
-12.7
 74
     0
 49
12.7
 74
     0
 49
-12.7
 74
     0
  0
LTYPE
  5
10234
330
1015A
100
AcDbSymbolTableRecord
100
AcDbLinetypeTableRecord
  2
TRACKS
 70
     0
  3
Tracks -|-|-|-|-|-|-|-|-|-|-|-|-|-|-|-|-|-|-|-|-|-|-|-|-
 72
    65
 73
     2
 40
7.62
 49
3.81
 74
     2
 75
     0
340
10233
 46
6.35
 50
0.0
 44
0.0
 45
0.0
  9
TRACK1
 49
3.81
 74
     0
  0
LTYPE
  5
10235
330
1015A
100
AcDbSymbolTableRecord
100
AcDbLinetypeTableRecord
  2
ACAD_ISO04W100
 70
     0
  3
ISO long-dash dot ____ . ____ . ____ . ____ . _
 72
    65
 73
     4
 40
30.0
 49
24.0
 74
     0
 49
-3.0
 74
     0
 49
0.0
 74
     0
 49
-3.0
 74
     0
  0
LTYPE
  5
10236
330
1015A
100
AcDbSymbolTableRecord
100
AcDbLinetypeTableRecord
  2
ACAD_ISO05W100
 70
     0
  3
ISO long-dash double-dot ____ .. ____ .. ____ . 
 72
    65
 73
     6
 40
33.0
 49
24.0
 74
     0
 49
-3.0
 74
     0
 49
0.0
 74
     0
 49
-3.0
 74
     0
 49
0.0
 74
     0
 49
-3.0
 74
     0
  0
LTYPE
  5
10237
330
1015A
100
AcDbSymbolTableRecord
100
AcDbLinetypeTableRecord
  2
ACAD_ISO02W100
 70
     0
  3
ISO dash __ __ __ __ __ __ __ __ __ __ __ __ __
 72
    65
 73
     2
 40
15.0
 49
12.0
 74
     0
 49
-3.0
 74
     0
  0
LTYPE
  5
10238
330
1015A
100
AcDbSymbolTableRecord
100
AcDbLinetypeTableRecord
  2
ACAD_ISO03W100
 70
     0
  3
ISO dash space __    __    __    __    __    __
 72
    65
 73
     2
 40
30.0
 49
12.0
 74
     0
 49
-18.0
 74
     0
  0
LTYPE
  5
10239
330
1015A
100
AcDbSymbolTableRecord
100
AcDbLinetypeTableRecord
  2
ACAD_ISO08W100
 70
     0
  3
ISO long-dash short-dash ____ __ ____ __ ____ _
 72
    65
 73
     4
 40
36.0
 49
24.0
 74
     0
 49
-3.0
 74
     0
 49
6.0
 74
     0
 49
-3.0
 74
     0
  0
LTYPE
  5
1023A
330
1015A
100
AcDbSymbolTableRecord
100
AcDbLinetypeTableRecord
  2
ACAD_ISO09W100
 70
     0
  3
ISO long-dash double-short-dash ____ __ __ ____
 72
    65
 73
     6
 40
45.0
 49
24.0
 74
     0
 49
-3.0
 74
     0
 49
6.0
 74
     0
 49
-3.0
 74
     0
 49
6.0
 74
     0
 49
-3.0
 74
     0
  0
ENDTAB
  0
TABLE
  2
LAYER
  5
10158
330
0
100
AcDbSymbolTable
 70
     1
  0
LAYER
  5
10165
330
10158
100
AcDbSymbolTableRecord
100
AcDbLayerTableRecord
  2
0
 70
     0
 62
     7
  6
CONTINUOUS
  0
ENDTAB
  0
TABLE
  2
STYLE
  5
10159
330
0
100
AcDbSymbolTable
 70
    13
  0
STYLE
  5
10166
330
10159
100
AcDbSymbolTableRecord
100
AcDbTextStyleTableRecord
  2
STANDARD
 70
     0
 40
0.0
 41
1.0
 50
0.0
 71
     0
 42
0.2
  3
txt
  4

  0
STYLE
  5
101FF
330
10159
100
AcDbSymbolTableRecord
100
AcDbTextStyleTableRecord
  2
QCADDIMTEXTSTYLE
 70
     0
 40
0.0
 41
1.0
 50
0.0
 71
     0
 42
0.2
  3

  4

  0
STYLE
  5
10207
330
10159
100
AcDbSymbolTableRecord
100
AcDbTextStyleTableRecord
  2
TEXTSTYLE0
 70
     0
 40
0.0
 41
1.0
 50
0.0
 71
     0
 42
0.2
  3
ltypeshp.shx
  4

  0
STYLE
  5
10208
330
10159
100
AcDbSymbolTableRecord
100
AcDbTextStyleTableRecord
  2
TEXTSTYLE1
 70
     0
 40
0.0
 41
1.0
 50
0.0
 71
     0
 42
0.2
  3
ltypeshp.shx
  4

  0
STYLE
  5
1021D
330
10159
100
AcDbSymbolTableRecord
100
AcDbTextStyleTableRecord
  2
TEXTSTYLE2
 70
     0
 40
0.0
 41
1.0
 50
0.0
 71
     0
 42
0.2
  3
qcadshp.shx
  4

  0
STYLE
  5
1021F
330
10159
100
AcDbSymbolTableRecord
100
AcDbTextStyleTableRecord
  2
TEXTSTYLE3
 70
     0
 40
0.0
 41
1.0
 50
0.0
 71
     0
 42
0.2
  3
ltypeshp.shx
  4

  0
STYLE
  5
10222
330
10159
100
AcDbSymbolTableRecord
100
AcDbTextStyleTableRecord
  2
TEXTSTYLE4
 70
     0
 40
0.0
 41
1.0
 50
0.0
 71
     0
 42
0.2
  3
qcadshp.shx
  4

  0
STYLE
  5
10226
330
10159
100
AcDbSymbolTableRecord
100
AcDbTextStyleTableRecord
  2
TEXTSTYLE5
 70
     0
 40
0.0
 41
1.0
 50
0.0
 71
     0
 42
0.2
  3
ltypeshp.shx
  4

  0
STYLE
  5
10228
330
10159
100
AcDbSymbolTableRecord
100
AcDbTextStyleTableRecord
  2
TEXTSTYLE6
 70
     0
 40
0.0
 41
1.0
 50
0.0
 71
     0
 42
0.2
  3
STANDARD
  4

  0
STYLE
  5
1022D
330
10159
100
AcDbSymbolTableRecord
100
AcDbTextStyleTableRecord
  2
TEXTSTYLE7
 70
     0
 40
0.0
 41
1.0
 50
0.0
 71
     0
 42
0.2
  3
STANDARD
  4

  0
STYLE
  5
1022F
330
10159
100
AcDbSymbolTableRecord
100
AcDbTextStyleTableRecord
  2
TEXTSTYLE8
 70
     0
 40
0.0
 41
1.0
 50
0.0
 71
     0
 42
0.2
  3
ltypeshp.shx
  4

  0
STYLE
  5
10230
330
10159
100
AcDbSymbolTableRecord
100
AcDbTextStyleTableRecord
  2
TEXTSTYLE9
 70
     0
 40
0.0
 41
1.0
 50
0.0
 71
     0
 42
0.2
  3
ltypeshp.shx
  4

  0
STYLE
  5
10233
330
10159
100
AcDbSymbolTableRecord
100
AcDbTextStyleTableRecord
  2
TEXTSTYLE10
 70
     0
 40
0.0
 41
1.0
 50
0.0
 71
     0
 42
0.2
  3
ltypeshp.shx
  4

  0
ENDTAB
  0
TABLE
  2
VIEW
  5
1015B
330
0
100
AcDbSymbolTable
 70
     0
  0
ENDTAB
  0
TABLE
  2
UCS
  5
1015C
330
0
100
AcDbSymbolTable
 70
     0
  0
ENDTAB
  0
TABLE
  2
APPID
  5
1015E
330
0
100
AcDbSymbolTable
 70
     3
  0
APPID
  5
10167
330
1015E
100
AcDbSymbolTableRecord
100
AcDbRegAppTableRecord
  2
ACAD
 70
     0
  0
APPID
  5
101C2
330
1015E
100
AcDbSymbolTableRecord
100
AcDbRegAppTableRecord
  2
QCAD
 70
     0
  0
APPID
  5
10270
330
1015E
100
AcDbSymbolTableRecord
100
AcDbRegAppTableRecord
  2
ACAD_MLEADERVER
 70
     0
  0
ENDTAB
  0
TABLE
  2
DIMSTYLE
  5
1015F
330
0
100
AcDbSymbolTable
 70
     2
  0
DIMSTYLE
105
1017B
330
1015F
100
AcDbSymbolTableRecord
100
AcDbDimStyleTableRecord
  2
STANDARD
 70
     0
  3

  4

  5

  6

  7

 40
1.0
 41
0.18
 42
0.0625
 43
0.38
 44
0.18
 45
0.0
 46
0.0
 47
0.0
 48
0.0
140
0.18
141
0.09
142
0.0
143
25.4
144
1.0
145
0.0
146
1.0
147
0.09
 71
     0
 72
     0
 73
     1
 74
     1
 75
     0
 76
     0
 77
     0
 78
     0
170
     0
171
     2
172
     0
173
     0
174
     0
175
     0
176
     0
177
     0
178
     0
270
     2
271
     4
272
     4
273
     2
274
     2
340
10166
275
     0
280
     0
281
     0
282
     0
283
     1
284
     0
285
     0
286
     0
287
     3
288
     0
  0
DIMSTYLE
105
10200
330
1015F
100
AcDbSymbolTableRecord
100
AcDbDimStyleTableRecord
  2
QCADDIMSTYLE
 70
     0
  3

  4

  5

  6

  7

 40
1.0
 41
0.18
 42
0.0625
 43
0.38
 44
0.18
 45
0.0
 46
0.0
 47
0.0
 48
0.0
140
0.18
141
0.09
142
0.0
143
25.4
144
1.0
145
0.0
146
1.0
147
0.09
 71
     0
 72
     0
 73
     0
 74
     1
 75
     0
 76
     0
 77
     1
 78
     0
170
     0
171
     2
172
     0
173
     0
174
     0
175
     0
176
     0
177
     0
178
     0
270
     2
271
     4
272
     4
273
     2
274
     2
340
101FF
275
     0
280
     0
281
     0
282
     0
283
     1
284
     0
285
     0
286
     0
287
     3
288
     0
  0
ENDTAB
  0
TABLE
  2
BLOCK_RECORD
  5
10157
330
0
100
AcDbSymbolTable
 70
     0
  0
BLOCK_RECORD
  5
10173
330
10157
100
AcDbSymbolTableRecord
100
AcDbBlockTableRecord
  2
*MODEL_SPACE
  0
BLOCK_RECORD
  5
1016F
330
10157
100
AcDbSymbolTableRecord
100
AcDbBlockTableRecord
  2
*PAPER_SPACE
  0
ENDTAB
  0
ENDSEC
  0
SECTION
  2
BLOCKS
  0
BLOCK
  5
10174
330
10173
100
AcDbEntity
  8
0
100
AcDbBlockBegin
  2
*MODEL_SPACE
 70
     0
 10
0.0
 20
0.0
 30
0.0
  3
*MODEL_SPACE
  1

  0
ENDBLK
  5
10175
330
10173
100
AcDbEntity
  8
0
100
AcDbBlockEnd
  0
BLOCK
  5
10170
330
1016F
100
AcDbEntity
 67
     1
  8
0
100
AcDbBlockBegin
  2
*PAPER_SPACE
 70
     0
 10
0.0
 20
0.0
 30
0.0
  3
*PAPER_SPACE
  1

  0
ENDBLK
  5
10171
330
1016F
100
AcDbEntity
 67
     1
  8
0
100
AcDbBlockEnd
  0
ENDSEC
  0
SECTION
  2
ENTITIES
  0
LWPOLYLINE
  5
100
330
10173
100
AcDbEntity
  8
0
100
AcDbPolyline
 90
       20
 70
     1
 43
0.0
 10
275.263
 20
-16.5250000000002
 10
258.137
 20
-16.52499999999958
 10
258.137
 20
-17.02500000000052
 42
-0.4142135623730001
 10
257.637
 20
-17.52499999999971
 10
251.887
 20
-17.5250000000003
 42
-0.4142135623730924
 10
251.387
 20
-17.02499999999987
 10
251.387
 20
-16.52499999999987
 10
250.675
 20
-16.52499999999973
 42
-0.4142135623731757
 10
250.175
 20
-16.02500000000008
 10
250.175
 20
-3.025000000000697
 42
-0.4142135623730258
 10
250.675
 20
-2.52499999999761
 10
282.725
 20
-2.524999999998907
 42
-0.4142135623731461
 10
283.225
 20
-3.025000000000777
 10
283.225
 20
-16.02500000000048
 42
-0.414213562373108
 10
282.725
 20
-16.52499999999967
 10
282.013
 20
-16.52499999999979
 10
282.013
 20
-17.02499999999988
 42
-0.4142135623730066
 10
281.513
 20
-17.52499999999985
 10
275.763
 20
-17.52499999999985
 42
-0.4142135623730859
 10
275.263
 20
-17.02500000000099
  0
LWPOLYLINE
  5
103
330
10173
100
AcDbEntity
  8
0
100
AcDbPolyline
 90
        8
 70
     1
 43
0.0
 10
6.618250000000012
 20
-60.67499999999999
 42
0.4142135623731009
 10
6.118249999999995
 20
-61.175
 10
6.118249999999957
 20
-74.17500000000003
 42
0.4142135623730905
 10
6.618249999999993
 20
-74.675
 10
12.36825000000001
 20
-74.675
 42
0.4142135623730859
 10
12.86824999999996
 20
-74.17500000000003
 10
12.86824999999997
 20
-61.175
 42
0.4142135623731003
 10
12.36825000000001
 20
-60.67499999999999
  0
LWPOLYLINE
  5
105
330
10173
100
AcDbEntity
  8
0
100
AcDbPolyline
 90
        8
 70
     1
 43
0.0
 10
130.825
 20
-3.025000000000051
 42
0.4142135623730901
 10
130.325
 20
-2.524999999999697
 10
117.325
 20
-2.524999999999835
 42
0.4142135623730869
 10
116.825
 20
-3.024999999999649
 10
116.825
 20
-16.0249999999999
 42
0.4142135623730742
 10
117.325
 20
-16.52500000000001
 10
130.325
 20
-16.52500000000003
 42
0.414213562373095
 10
130.825
 20
-16.02499999999995
  0
LWPOLYLINE
  5
109
330
10173
100
AcDbEntity
  8
0
100
AcDbPolyline
 90
        8
 70
     1
 43
0.0
 10
-4.000000000000013
 20
-78.4375
 10
-3.500000000000004
 20
-78.43750000000001
 42
0.4142135623730892
 10
-2.999999999999993
 20
-77.9375
 10
-3.000000000000008
 20
-17.3125
 42
0.414213562373095
 10
-3.500000000000004
 20
-16.8125
 10
-4.000000000000012
 20
-16.8125
 42
0.414213562373096
 10
-4.500000000000006
 20
-17.31250000000001
 10
-4.49999999999998
 20
-77.93750000000001
 42
0.4142135623730866
  0
LWPOLYLINE
  5
111
330
10173
100
AcDbEntity
  8
0
100
AcDbPolyline
 90
        8
 70
     1
 43
0.0
 10
30.49424999999997
 20
-60.675
 10
36.24424999999992
 20
-60.67500000000003
 42
-0.4142135623730742
 10
36.74424999999995
 20
-61.175
 10
36.74425000000001
 20
-74.17500000000001
 42
-0.4142135623731003
 10
36.24424999999999
 20
-74.67499999999998
 10
30.49424999999995
 20
-74.67500000000001
 42
-0.4142135623730898
 10
29.99424999999997
 20
-74.17500000000003
 10
29.99425
 20
-61.17499999999999
 42
-0.4142135623731106
  0
ARC
  5
113
330
10173
100
AcDbEntity
  8
0
100
AcDbCircle
 10
0.4999999999999942
 20
-94.75
 30
0.0
 40
0.5000000000000117
100
AcDbArc
 50
180.0
 51
269.9999999999927
  0
LWPOLYLINE
  5
114
330
10173
100
AcDbEntity
  8
0
100
AcDbPolyline
 90
        8
 70
     1
 43
0.0
 10
44.6
 20
-78.725
 10
31.60000000000002
 20
-78.725
 42
0.4142135623731106
 10
31.10000000000002
 20
-79.22499999999998
 10
31.10000000000003
 20
-92.225
 42
0.4142135623731341
 10
31.60000000000002
 20
-92.725
 10
44.59999999999999
 20
-92.72500000000002
 42
0.414213562373069
 10
45.09999999999997
 20
-92.22500000000004
 10
45.09999999999998
 20
-79.22500000000002
 42
0.4142135623731054
  0
LWPOLYLINE
  5
116
330
10173
100
AcDbEntity
  8
0
100
AcDbPolyline
 90
        8
 70
     1
 43
0.0
 10
98.275
 20
-2.525000000000054
 42
0.4142135623730983
 10
97.77499999999998
 20
-3.025000000000049
 10
97.77500000000002
 20
-16.02500000000001
 42
0.414213562373056
 10
98.275
 20
-16.52500000000001
 10
111.275
 20
-16.52500000000004
 42
0.4142135623731015
 10
111.775
 20
-16.02499999999998
 10
111.775
 20
-3.025000000000242
 42
0.4142135623730898
 10
111.275
 20
-2.524999999999991
  0
LWPOLYLINE
  5
117
330
10173
100
AcDbEntity
  8
0
100
AcDbPolyline
 90
        8
 70
     1
 43
0.0
 10
5.408749999999993
 20
-54.625
 10
23.16874999999998
 20
-54.62500000000001
 42
0.414213562373121
 10
23.66875
 20
-54.12500000000002
 10
23.66874999999998
 20
-41.12500000000001
 42
0.4142135623731003
 10
23.16874999999999
 20
-40.62500000000001
 10
5.408750000000006
 20
-40.625
 42
0.4142135623730697
 10
4.908749999999982
 20
-41.125
 10
4.908749999999985
 20
-54.12500000000001
 42
0.4142135623731061
  0
LWPOLYLINE
  5
119
330
10173
100
AcDbEntity
  8
0
100
AcDbPolyline
 90
        8
 70
     1
 43
0.0
 10
79.22500000000002
 20
-16.52500000000001
 10
92.22499999999998
 20
-16.52500000000004
 42
0.4142135623730937
 10
92.725
 20
-16.02499999999996
 10
92.725
 20
-3.025000000000285
 42
0.414213562373056
 10
92.225
 20
-2.525000000000289
 10
79.22500000000002
 20
-2.524999999999845
 42
0.4142135623731048
 10
78.72500000000005
 20
-3.025000000000153
 10
78.72500000000005
 20
-16.025
 42
0.4142135623730989
  0
ARC
  5
121
330
10173
100
AcDbEntity
  8
0
100
AcDbCircle
 10
-1.000000000088898
 20
-96.24999999997029
 30
0.0
 40
0.5000000000297256
100
AcDbArc
 50
180.0
 51
270.0000000101873
1001
QCAD
1000
reversed:1
  0
LWPOLYLINE
  5
10153
330
10173
100
AcDbEntity
  8
0
100
AcDbPolyline
 90
       16
 70
   128
 43
0.0
 10
244.2432499999999
 20
-59.67499999999995
 10
243.53125
 20
-59.67500000000014
 42
0.4142135623731117
 10
243.03125
 20
-60.1750000000001
 10
243.03125
 20
-73.17500000000003
 42
0.4142135623731783
 10
243.5312500000001
 20
-73.67499999999981
 10
244.24325
 20
-73.67499999999998
 10
244.24325
 20
-74.17499999999998
 42
0.4142135623730617
 10
244.74325
 20
-74.67499999999998
 10
250.49325
 20
-74.67500000000007
 42
0.414213562373095
 10
250.99325
 20
-74.17500000000007
 10
250.99325
 20
-73.67499999999987
 10
266.05625
 20
-73.67500000000003
 42
0.414213562373095
 10
266.55625
 20
-73.17500000000001
 10
266.55625
 20
-60.17500000000005
 42
0.414213562373095
 10
266.05625
 20
-59.67499999999995
 10
250.99325
 20
-59.67499999999986
  0
LWPOLYLINE
  5
125
330
10173
100
AcDbEntity
  8
0
100
AcDbPolyline
 90
        8
 70
     1
 43
0.0
 10
279.63175
 20
-42.12500000000007
 42
0.4142135623731003
 10
279.13175
 20
-41.62500000000036
 10
273.38175
 20
-41.62500000000001
 42
0.414213562373095
 10
272.88175
 20
-42.12499999999987
 10
272.88175
 20
-55.12500000000018
 42
0.4142135623732407
 10
273.38175
 20
-55.62499999999989
 10
279.13175
 20
-55.62500000000024
 42
0.4142135623729754
 10
279.63175
 20
-55.12500000000016
  0
ARC
  5
131
330
10173
100
AcDbEntity
  8
0
100
AcDbCircle
 10
286.7500194561908
 20
0.9999743682976745
 30
0.0
 40
0.4999805438091798
100
AcDbArc
 50
0.0
 51
89.99827780018846
  0
LWPOLYLINE
  5
1014A
330
10173
100
AcDbEntity
  8
0
100
AcDbPolyline
 90
        6
 70
   128
 43
0.0
 10
196.65
 20
-92.22500000000039
 10
196.65
 20
-78.22500000000005
 42
-0.4142135623729951
 10
197.15
 20
-77.72499999999994
 10
202.9
 20
-77.72500000000002
 42
-0.4142135623731616
 10
203.4000000000001
 20
-78.22499999999997
 10
203.4
 20
-92.22500000000038
  0
ARC
  5
134
330
10173
100
AcDbEntity
  8
0
100
AcDbCircle
 10
285.2499999808601
 20
-0.5000000191400382
 30
0.0
 40
0.5000000191399687
100
AcDbArc
 50
0.0000020913097892
 51
90.00000219327298
1001
QCAD
1000
reversed:1
  0
LWPOLYLINE
  5
135
330
10173
100
AcDbEntity
  8
0
100
AcDbPolyline
 90
        8
 70
     1
 43
0.0
 10
249.50575
 20
-41.62499999999991
 42
0.414213562372991
 10
249.00575
 20
-42.12499999999984
 10
249.00575
 20
-55.1250000000001
 42
0.4142135623730586
 10
249.50575
 20
-55.62500000000015
 10
255.25575
 20
-55.62500000000017
 42
0.4142135623730118
 10
255.75575
 20
-55.12499999999991
 10
255.75575
 20
-42.12500000000016
 42
0.4142135623731418
 10
255.25575
 20
-41.62499999999988
  0
LWPOLYLINE
  5
136
330
10173
100
AcDbEntity
  8
0
100
AcDbPolyline
 90
        8
 70
     1
 43
0.0
 10
277.9624999999999
 20
-92.72500000000022
 42
0.4142135623730638
 10
278.4625
 20
-92.22499999999981
 10
278.4625
 20
-79.22499999999988
 42
0.4142135623731159
 10
277.9625
 20
-78.72499999999995
 10
264.9624999999999
 20
-78.7250000000002
 42
0.4142135623730794
 10
264.4625
 20
-79.22499999999997
 10
264.4625
 20
-92.22499999999991
 42
0.4142135623731887
 10
264.9625
 20
-92.72499999999987
  0
LWPOLYLINE
  5
137
330
10173
100
AcDbEntity
  8
0
100
AcDbPolyline
 90
        8
 70
     1
 43
0.0
 10
-1.499999999999996
 20
4.000000000000004
 10
-1.499999999999996
 20
3.500000000000002
 42
0.4142135623730934
 10
-0.9999999999999964
 20
3.000000000000004
 10
87.75000000000004
 20
2.999999999999319
 42
0.4142135623730576
 10
88.25000000000004
 20
3.499999999999333
 10
88.25000000000004
 20
3.999999999999755
 42
0.4142135623730479
 10
87.75000000000004
 20
4.49999999999989
 10
-0.999999999999998
 20
4.499999999999998
 42
0.414213562373098
  0
LWPOLYLINE
  5
139
330
10173
100
AcDbEntity
  8
0
100
AcDbPolyline
 90
       24
 70
     1
 43
0.0
 10
140.9893833595073
 20
6.505327725794397
 42
0.3178372263070919
 10
140.0465728738651
 20
7.171991687192067
 10
-4.343147790581178
 20
7.17157526655442
 42
0.3178366837267295
 10
-5.285954228979204
 20
6.50490780206559
 42
-0.2265411417528733
 10
-6.504906208612814
 20
5.285954792162098
 42
0.3178372452014083
 10
-7.171572875260248
 20
4.34314575050724
 10
-7.171572875253807
 20
-99.59314575050762
 42
0.3178372451957759
 10
-6.504906208587176
 20
-100.5359547920897
 42
-0.2265416775788713
 10
-5.285952869645242
 20
-101.7549116461061
 42
0.3178372448052537
 10
-4.343145751937705
 20
-102.4215810315284
 10
140.0465708351838
 20
-102.4219976099013
 42
0.3178378067359132
 10
140.989382480183
 20
-101.7553317399354
 42
-0.7071053829229765
 10
144.7606161607033
 20
-101.75532789582
 42
0.3178372455853561
 10
145.7034271261523
 20
-102.4219918437043
 10
290.0931477905812
 20
-102.4215752652317
 42
0.3178366836433098
 10
291.035954228404
 20
-101.7549078018622
 42
-0.2265411418092806
 10
292.2549062081576
 20
-100.5359547908747
 42
0.3178372449089047
 10
292.9215728665757
 20
-99.59314575050755
 10
292.9215737128656
 20
4.343145752109637
 42
0.3178376407022412
 10
292.2549073911645
 20
5.285958166710411
 42
-0.2265416238511037
 10
291.0359618605441
 20
6.504915361848939
 42
0.3178433292848413
 10
290.0931464088493
 20
7.171631242548017
 10
145.7034290893087
 20
7.171972765688432
 42
0.3178345124256174
 10
144.7606232107568
 20
6.505329808238911
 42
-0.7071057862554295
  0
LWPOLYLINE
  5
140
330
10173
100
AcDbEntity
  8
0
100
AcDbPolyline
 90
        8
 70
     1
 43
0.0
 10
184.0
 20
4.499999999998585
 10
101.75
 20
4.500000000000093
 42
0.414213562373096
 10
101.25
 20
4.000000000000084
 10
101.25
 20
3.499999999999988
 42
0.4142135623731103
 10
101.75
 20
3.000000000000127
 10
184.0
 20
2.999999999999614
 42
0.4142135623731126
 10
184.5000000000001
 20
3.500000000000504
 10
184.4999999999999
 20
3.999999999998965
 42
0.414213562373111
  0
ARC
  5
143
330
10173
100
AcDbEntity
  8
0
100
AcDbCircle
 10
285.2499999353849
 20
-94.74999993538461
 30
0.0
 40
0.5000000646153289
100
AcDbArc
 50
270.0000074043385
 51
359.9999926555614
  0
ARC
  5
144
330
10173
100
AcDbEntity
  8
0
100
AcDbCircle
 10
286.7500000000426
 20
-96.25000000004391
 30
0.0
 40
0.499999999957339
100
AcDbArc
 50
269.9999999999544
 51
0.0
1001
QCAD
1000
reversed:1
  0
ARC
  5
145
330
10173
100
AcDbEntity
  8
0
100
AcDbCircle
 10
0.4999999999999999
 20
-0.5000000000000002
 30
0.0
 40
0.4999999999999999
100
AcDbArc
 50
89.99999999999982
 51
180.0
1001
QCAD
1000
reversed:1
  0
ARC
  5
146
330
10173
100
AcDbEntity
  8
0
100
AcDbCircle
 10
-1.000000000000001
 20
1.000000000000001
 30
0.0
 40
0.5000000000000029
100
AcDbArc
 50
89.99999999999952
 51
180.0
  0
LWPOLYLINE
  5
148
330
10173
100
AcDbEntity
  8
0
100
AcDbPolyline
 90
        8
 70
     1
 43
0.0
 10
3.024999999999979
 20
-2.524999999999999
 42
0.4142135623730944
 10
2.524999999999977
 20
-3.025
 10
2.524999999999997
 20
-16.02500000000001
 42
0.414213562373082
 10
3.024999999999973
 20
-16.525
 10
16.025
 20
-16.525
 42
0.4142135623730924
 10
16.52499999999998
 20
-16.025
 10
16.52500000000001
 20
-3.024999999999967
 42
0.4142135623731035
 10
16.02499999999998
 20
-2.525000000000001
  0
LWPOLYLINE
  5
150
330
10173
100
AcDbEntity
  8
0
100
AcDbPolyline
 90
        8
 70
     1
 43
0.0
 10
193.0250000000001
 20
-16.025
 42
0.4142135623732225
 10
193.525
 20
-16.52499999999985
 10
206.525
 20
-16.52499999999985
 42
0.4142135623730027
 10
207.025
 20
-16.02499999999989
 10
207.025
 20
-3.024999999999904
 42
0.4142135623731357
 10
206.525
 20
-2.525000000001203
 10
193.525
 20
-2.524999999999396
 42
0.4142135623730401
 10
193.025
 20
-3.025000000001086
  0
LWPOLYLINE
  5
151
330
10173
100
AcDbEntity
  8
0
100
AcDbPolyline
 90
        8
 70
     1
 43
0.0
 10
35.07499999999999
 20
-2.524999999999977
 10
22.07499999999999
 20
-2.524999999999983
 42
0.414213562373097
 10
21.57499999999999
 20
-3.025000000000011
 10
21.57499999999999
 20
-16.025
 42
0.4142135623731003
 10
22.075
 20
-16.52499999999999
 10
35.07499999999999
 20
-16.525
 42
0.4142135623730885
 10
35.57499999999999
 20
-16.025
 10
35.57499999999999
 20
-3.025000000000009
 42
0.4142135623730915
  0
LWPOLYLINE
  5
153
330
10173
100
AcDbEntity
  8
0
100
AcDbPolyline
 90
        8
 70
     1
 43
0.0
 10
264.9625
 20
-35.57499999999987
 10
277.9625
 20
-35.57500000000034
 42
0.4142135623730794
 10
278.4625
 20
-35.07500000000004
 10
278.4625
 20
-22.07500000000014
 42
0.4142135623730872
 10
277.9625
 20
-21.57499999999995
 10
264.9625
 20
-21.57499999999948
 42
0.4142135623730534
 10
264.4625
 20
-22.07499999999978
 10
264.4625
 20
-35.0750000000001
 42
0.4142135623731991
  0
LWPOLYLINE
  5
154
330
10173
100
AcDbEntity
  8
0
100
AcDbPolyline
 90
        8
 70
     1
 43
0.0
 10
68.41250000000005
 20
-78.72499999999997
 10
55.41250000000004
 20
-78.725
 42
0.4142135623731159
 10
54.91249999999999
 20
-79.22500000000002
 10
54.91250000000004
 20
-92.22499999999998
 42
0.414213562373095
 10
55.41250000000002
 20
-92.725
 10
68.41250000000004
 20
-92.72499999999997
 42
0.4142135623731106
 10
68.9125
 20
-92.22500000000002
 10
68.91250000000001
 20
-79.225
 42
0.4142135623731106
  0
LWPOLYLINE
  5
155
330
10173
100
AcDbEntity
  8
0
100
AcDbPolyline
 90
        8
 70
     1
 43
0.0
 10
87.75
 20
-98.25000000000004
 42
-0.4142135623730638
 10
88.25000000000001
 20
-98.75000000000007
 10
88.24999999999996
 20
-99.25000000000009
 42
-0.4142135623731054
 10
87.74999999999997
 20
-99.75000000000006
 10
-1.000000000000029
 20
-99.75000000000007
 42
-0.4142135623730231
 10
-1.500000000000005
 20
-99.25
 10
-1.500000000000042
 20
-98.75000000000006
 42
-0.414213562373109
 10
-0.9999999999999787
 20
-98.25000000000004
  0
LWPOLYLINE
  5
157
330
10173
100
AcDbEntity
  8
0
100
AcDbPolyline
 90
        8
 70
     1
 43
0.0
 10
149.375
 20
-16.52500000000007
 42
0.4142135623731145
 10
149.875
 20
-16.0250000000001
 10
149.875
 20
-3.025000000000866
 42
0.4142135623730892
 10
149.375
 20
-2.524999999999952
 10
136.375
 20
-2.5249999999996
 42
0.4142135623730648
 10
135.875
 20
-3.024999999999272
 10
135.875
 20
-16.02500000000005
 42
0.4142135623730976
 10
136.375
 20
-16.5250000000002
  0
LWPOLYLINE
  5
158
330
10173
100
AcDbEntity
  8
0
100
AcDbPolyline
 90
        8
 70
     1
 43
0.0
 10
230.3375
 20
-78.72500000000015
 10
217.3375
 20
-78.72500000000004
 42
0.4142135623730014
 10
216.8375000000001
 20
-79.22499999999988
 10
216.8375000000001
 20
-92.22499999999985
 42
0.4142135623731783
 10
217.3375
 20
-92.725
 10
230.3375
 20
-92.72500000000002
 42
0.4142135623731262
 10
230.8375
 20
-92.22500000000014
 10
230.8375
 20
-79.22500000000008
 42
0.4142135623732095
  0
LWPOLYLINE
  5
159
330
10173
100
AcDbEntity
  8
0
100
AcDbPolyline
 90
        8
 70
     1
 43
0.0
 10
254.65
 20
-79.22500000000014
 42
0.4142135623731367
 10
254.15
 20
-78.72499999999995
 10
241.15
 20
-78.7250000000002
 42
0.4142135623730118
 10
240.6500000000001
 20
-79.22499999999985
 10
240.65
 20
-92.22500000000004
 42
0.4142135623730222
 10
241.15
 20
-92.725
 10
254.15
 20
-92.72500000000021
 42
0.4142135623730846
 10
254.6500000000001
 20
-92.22500000000004
  0
LWPOLYLINE
  5
161
330
10173
100
AcDbEntity
  8
0
100
AcDbPolyline
 90
        8
 70
     1
 43
0.0
 10
41.12500000000001
 20
-16.52499999999999
 10
54.12500000000001
 20
-16.52500000000003
 42
0.4142135623731015
 10
54.62499999999999
 20
-16.02500000000006
 10
54.625
 20
-3.025000000000027
 42
0.4142135623730944
 10
54.12500000000001
 20
-2.525
 10
41.125
 20
-2.524999999999938
 42
0.4142135623731152
 10
40.625
 20
-3.025000000000042
 10
40.62499999999999
 20
-16.02500000000001
 42
0.4142135623730756
  0
LWPOLYLINE
  5
10149
330
10173
100
AcDbEntity
  8
0
100
AcDbPolyline
 90
        6
 70
   128
 43
0.0
 10
89.10000000000001
 20
-92.22499999999982
 10
89.10000000000002
 20
-78.22499999999998
 42
0.41421356237312
 10
88.59999999999998
 20
-77.72500000000002
 10
82.85000000000002
 20
-77.72500000000002
 42
0.4142135623730867
 10
82.35000000000002
 20
-78.22500000000004
 10
82.35
 20
-92.22499999999985
  0
LWPOLYLINE
  5
163
330
10173
100
AcDbEntity
  8
0
100
AcDbPolyline
 90
        8
 70
     1
 43
0.0
 10
155.425
 20
-2.524999999999657
 42
0.4142135623730508
 10
154.925
 20
-3.024999999999696
 10
154.925
 20
-16.02499999999997
 42
0.4142135623730638
 10
155.425
 20
-16.52500000000007
 10
168.425
 20
-16.52499999999996
 42
0.4142135623730209
 10
168.925
 20
-16.02499999999993
 10
168.925
 20
-3.024999999999245
 42
0.4142135623730329
 10
168.425
 20
-2.524999999999769
  0
LWPOLYLINE
  5
164
330
10173
100
AcDbEntity
  8
0
100
AcDbPolyline
 90
        8
 70
     1
 43
0.0
 10
7.787500000000009
 20
-21.57500000000002
 42
0.4142135623730924
 10
7.287500000000009
 20
-22.075
 10
7.287500000000009
 20
-35.075
 42
0.4142135623730937
 10
7.787500000000018
 20
-35.575
 10
20.7875
 20
-35.57500000000003
 42
0.4142135623731028
 10
21.28750000000003
 20
-35.075
 10
21.28750000000003
 20
-22.07499999999999
 42
0.4142135623730872
 10
20.78750000000002
 20
-21.57500000000001
  0
LWPOLYLINE
  5
166
330
10173
100
AcDbEntity
  8
0
100
AcDbPolyline
 90
        8
 70
     1
 43
0.0
 10
173.975
 20
-3.024999999999518
 10
173.975
 20
-16.02500000000004
 42
0.4142135623731991
 10
174.475
 20
-16.52500000000008
 10
187.475
 20
-16.52500000000025
 42
0.4142135623731106
 10
187.975
 20
-16.02500000000022
 10
187.975
 20
-3.025000000000587
 42
0.4142135623731464
 10
187.475
 20
-2.524999999999562
 10
174.475
 20
-2.525000000001527
 42
0.4142135623730794
  0
LWPOLYLINE
  5
167
330
10173
100
AcDbEntity
  8
0
100
AcDbPolyline
 90
        8
 70
     1
 43
0.0
 10
287.2500000000001
 20
-99.25000000000013
 10
287.2499999999999
 20
-98.75000000000021
 42
0.4142135623730222
 10
286.7499999999999
 20
-98.25000000000028
 10
198.0000000000001
 20
-98.2499999999999
 42
0.4142135623730742
 10
197.5000000000001
 20
-98.74999999999987
 10
197.5000000000001
 20
-99.25000000000023
 42
0.4142135623731783
 10
198.0
 20
-99.75000000000028
 10
286.7499999999999
 20
-99.7500000000003
 42
0.4142135623730222
  0
LWPOLYLINE
  5
168
330
10173
100
AcDbEntity
  8
0
100
AcDbPolyline
 90
        8
 70
     1
 43
0.0
 10
289.7499999999999
 20
-78.43750000000026
 42
0.4142135623731054
 10
290.2499999999999
 20
-77.9374999999999
 10
290.25
 20
-17.31250000000042
 42
0.414213562373004
 10
289.75
 20
-16.81249999999951
 10
289.25
 20
-16.81250000000045
 42
0.4142135623730807
 10
288.7499999999999
 20
-17.31250000000011
 10
288.75
 20
-77.9375
 42
0.4142135623731159
 10
289.25
 20
-78.43750000000016
  0
LWPOLYLINE
  5
10154
330
10173
100
AcDbEntity
  8
0
100
AcDbPolyline
 90
       11
 70
   128
 43
0.0
 10
268.1192500000001
 20
-60.17500000000003
 10
268.1192500000001
 20
-74.17499999999995
 42
0.4142135623730284
 10
268.61925
 20
-74.67500000000005
 10
274.3692500000001
 20
-74.67499999999978
 42
0.4142135623731616
 10
274.8692500000001
 20
-74.17499999999988
 10
274.8692500000001
 20
-73.67499999999987
 10
282.725
 20
-73.67500000000017
 42
0.414213562373095
 10
283.225
 20
-73.17500000000017
 10
283.225
 20
-60.17499999999998
 42
0.4142135623731283
 10
282.725
 20
-59.67499999999997
 10
274.8692500000001
 20
-59.67499999999996
  0
LWPOLYLINE
  5
170
330
10173
100
AcDbEntity
  8
0
100
AcDbPolyline
 90
        8
 70
     1
 43
0.0
 10
257.81875
 20
-54.6250000000001
 42
-0.4142135623730846
 10
257.31875
 20
-54.12500000000001
 10
257.31875
 20
-41.12500000000022
 42
-0.414213562373043
 10
257.81875
 20
-40.62499999999974
 10
270.81875
 20
-40.62500000000013
 42
-0.4142135623731054
 10
271.31875
 20
-41.12500000000015
 10
271.31875
 20
-54.12500000000011
 42
-0.4142135623729442
 10
270.81875
 20
-54.62500000000006
  0
LWPOLYLINE
  5
171
330
10173
100
AcDbEntity
  8
0
100
AcDbPolyline
 90
        8
 70
     1
 43
0.0
 10
231.125
 20
-16.02500000000015
 42
0.4142135623730898
 10
231.625
 20
-16.52499999999972
 10
244.625
 20
-16.52499999999982
 42
0.4142135623730339
 10
245.1250000000001
 20
-16.02500000000034
 10
245.125
 20
-3.025000000000185
 42
0.4142135623731835
 10
244.625
 20
-2.525000000000122
 10
231.625
 20
-2.52500000000044
 42
0.4142135623730658
 10
231.125
 20
-3.024999999998976
  0
LWPOLYLINE
  5
172
330
10173
100
AcDbEntity
  8
0
100
AcDbPolyline
 90
        8
 70
     1
 43
0.0
 10
27.93124999999995
 20
-73.67500000000004
 42
0.4142135623731003
 10
28.43125
 20
-73.17499999999998
 10
28.43124999999994
 20
-60.17500000000002
 42
0.414213562373108
 10
27.93124999999998
 20
-59.67500000000001
 10
14.93124999999997
 20
-59.675
 42
0.4142135623731197
 10
14.43124999999996
 20
-60.175
 10
14.43124999999996
 20
-73.17500000000003
 42
0.4142135623730937
 10
14.93124999999998
 20
-73.675
  0
LWPOLYLINE
  5
173
330
10173
100
AcDbEntity
  8
0
100
AcDbPolyline
 90
        8
 70
     1
 43
0.0
 10
7.287500000000016
 20
-92.225
 10
7.287500000000012
 20
-79.225
 42
-0.4142135623730866
 10
7.787500000000032
 20
-78.725
 10
20.78749999999999
 20
-78.725
 42
-0.4142135623731106
 10
21.28750000000002
 20
-79.225
 10
21.28749999999996
 20
-92.225
 42
-0.414213562373069
 10
20.78749999999998
 20
-92.72500000000002
 10
7.787500000000001
 20
-92.725
 42
-0.414213562373069
  0
LWPOLYLINE
  5
174
330
10173
100
AcDbEntity
  8
0
100
AcDbPolyline
 90
        8
 70
     1
 43
0.0
 10
149.875
 20
-79.22500000000005
 42
0.4142135623730898
 10
149.3749999999999
 20
-78.72500000000007
 10
136.375
 20
-78.725
 42
0.4142135623730794
 10
135.875
 20
-79.22500000000005
 10
135.875
 20
-92.22499999999997
 42
0.4142135623730742
 10
136.375
 20
-92.72499999999997
 10
149.375
 20
-92.7250000000001
 42
0.4142135623731159
 10
149.875
 20
-92.22500000000002
  0
LWPOLYLINE
  5
176
330
10173
100
AcDbEntity
  8
0
100
AcDbPolyline
 90
        8
 70
     1
 43
0.0
 10
101.75
 20
-99.74999999999996
 10
183.9999999999999
 20
-99.75000000000001
 42
0.4142135623731159
 10
184.4999999999999
 20
-99.24999999999997
 10
184.5
 20
-98.75000000000021
 42
0.4142135623731575
 10
184.0
 20
-98.25000000000014
 10
101.7499999999999
 20
-98.25000000000014
 42
0.4142135623731054
 10
101.25
 20
-98.75000000000006
 10
101.25
 20
-99.25
 42
0.4142135623731262
  0
LWPOLYLINE
  5
177
330
10173
100
AcDbEntity
  8
0
100
AcDbPolyline
 90
        8
 70
     1
 43
0.0
 10
226.075
 20
-3.025000000001219
 42
0.4142135623731724
 10
225.575
 20
-2.525000000000468
 10
212.575
 20
-2.525000000001134
 42
0.4142135623731022
 10
212.075
 20
-3.025000000000158
 10
212.075
 20
-16.02500000000025
 42
0.4142135623730469
 10
212.575
 20
-16.52500000000039
 10
225.575
 20
-16.52500000000006
 42
0.4142135623730144
 10
226.075
 20
-16.0250000000004
  0
LWPOLYLINE
  5
178
330
10173
100
AcDbEntity
  8
0
100
AcDbPolyline
 90
        8
 70
     1
 43
0.0
 10
197.5000000000003
 20
3.999999999999837
 10
197.5000000000003
 20
3.499999999999
 42
0.4142135623730134
 10
198.0000000000003
 20
2.999999999999265
 10
286.75
 20
2.999999999998124
 42
0.4142135623723592
 10
287.2500000000001
 20
3.500000000000534
 10
287.25
 20
4.000000000001855
 42
0.4142135623732144
 10
286.75
 20
4.500000000001918
 10
198.0000000000003
 20
4.499999999999427
 42
0.414213562373059
  0
LWPOLYLINE
  5
183
330
10173
100
AcDbEntity
  8
0
100
AcDbPolyline
 90
        8
 70
     1
 43
0.0
 10
59.67500000000002
 20
-3.024999999999995
 10
59.67500000000001
 20
-16.02500000000004
 42
0.4142135623730963
 10
60.17500000000002
 20
-16.52500000000001
 10
73.17500000000003
 20
-16.52500000000007
 42
0.4142135623730898
 10
73.67500000000004
 20
-16.025
 10
73.67500000000004
 20
-3.024999999999867
 42
0.41421356237311
 10
73.17500000000003
 20
-2.52500000000017
 10
60.17500000000002
 20
-2.524999999999977
 42
0.4142135623730859
  0
LINE
  5
184
330
10173
100
AcDbEntity
  8
0
100
AcDbLine
 10
-0.9999999999999964
 20
1.500000000000004
 30
0.0
 11
0.5000000000000029
 21
1.5
 31
0.0
  0
LINE
  5
185
330
10173
100
AcDbEntity
  8
0
100
AcDbLine
 10
-0.9999999999999966
 20
-96.75
 30
0.0
 11
0.4999999999999306
 21
-96.74999783746898
 31
0.0
  0
LINE
  5
186
330
10173
100
AcDbEntity
  8
0
100
AcDbLine
 10
88.24999999999994
 20
1.499999999999833
 30
0.0
 11
101.25
 21
1.499999999999696
 31
0.0
  0
LINE
  5
187
330
10173
100
AcDbEntity
  8
0
100
AcDbLine
 10
88.24999999999986
 20
0.0
 30
0.0
 11
101.25
 21
0.0
 31
0.0
  0
LINE
  5
188
330
10173
100
AcDbEntity
  8
0
100
AcDbLine
 10
88.24999999999996
 20
-95.25000000000006
 30
0.0
 11
101.25
 21
-95.25000000000004
 31
0.0
  0
LINE
  5
189
330
10173
100
AcDbEntity
  8
0
100
AcDbLine
 10
88.24999999999996
 20
-96.75000000000006
 30
0.0
 11
101.25
 21
-96.75000000000006
 31
0.0
  0
LINE
  5
190
330
10173
100
AcDbEntity
  8
0
100
AcDbLine
 10
184.5000000000007
 20
1.5000000000005
 30
0.0
 11
197.5000029429793
 21
1.500000022351742
 31
0.0
  0
LINE
  5
191
330
10173
100
AcDbEntity
  8
0
100
AcDbLine
 10
184.5000000000012
 20
0.0
 30
0.0
 11
197.4999999999984
 21
0.0
 31
0.0
  0
LINE
  5
192
330
10173
100
AcDbEntity
  8
0
100
AcDbLine
 10
88.24999999999994
 20
1.499999999999833
 30
0.0
 11
59.93749999999974
 21
1.500000000000731
 31
0.0
  0
LINE
  5
193
330
10173
100
AcDbEntity
  8
0
100
AcDbLine
 10
88.24999999999986
 20
0.0
 30
0.0
 11
59.93749999999977
 21
0.0
 31
0.0
  0
LINE
  5
194
330
10173
100
AcDbEntity
  8
0
100
AcDbLine
 10
101.25
 20
1.499999999999696
 30
0.0
 11
129.5625
 21
1.499999999999396
 31
0.0
  0
LINE
  5
195
330
10173
100
AcDbEntity
  8
0
100
AcDbLine
 10
101.25
 20
0.0
 30
0.0
 11
129.5625
 21
0.0
 31
0.0
  0
LINE
  5
196
330
10173
100
AcDbEntity
  8
0
100
AcDbLine
 10
59.43749999999977
 20
1.000000000000823
 30
0.0
 11
59.43749999999977
 21
0.4999999999999983
 31
0.0
  0
LINE
  5
197
330
10173
100
AcDbEntity
  8
0
100
AcDbLine
 10
130.0625
 20
0.9999999999993723
 30
0.0
 11
130.0625
 21
0.499999999999981
 31
0.0
  0
LINE
  5
198
330
10173
100
AcDbEntity
  8
0
100
AcDbLine
 10
88.24999999999996
 20
-95.25000000000006
 30
0.0
 11
59.93750000000009
 21
-95.25
 31
0.0
  0
LINE
  5
199
330
10173
100
AcDbEntity
  8
0
100
AcDbLine
 10
88.24999999999996
 20
-96.75000000000006
 30
0.0
 11
59.9375
 21
-96.75000000000006
 31
0.0
  0
LINE
  5
200
330
10173
100
AcDbEntity
  8
0
100
AcDbLine
 10
101.25
 20
-95.25000000000004
 30
0.0
 11
129.5624999999999
 21
-95.25
 31
0.0
  0
LINE
  5
201
330
10173
100
AcDbEntity
  8
0
100
AcDbLine
 10
101.25
 20
-96.75000000000006
 30
0.0
 11
129.5625
 21
-96.75000000000006
 31
0.0
  0
LINE
  5
202
330
10173
100
AcDbEntity
  8
0
100
AcDbLine
 10
130.0625
 20
-96.24999999999999
 30
0.0
 11
130.0624999999999
 21
-95.74999999999996
 31
0.0
  0
LINE
  5
203
330
10173
100
AcDbEntity
  8
0
100
AcDbLine
 10
59.43749999999996
 20
-95.75000000000014
 30
0.0
 11
59.43749999999996
 21
-96.25000000000001
 31
0.0
  0
LINE
  5
204
330
10173
100
AcDbEntity
  8
0
100
AcDbLine
 10
184.5000000000007
 20
1.5000000000005
 30
0.0
 11
156.1874999991412
 21
1.499999951322085
 31
0.0
  0
LINE
  5
205
330
10173
100
AcDbEntity
  8
0
100
AcDbLine
 10
184.5000000000012
 20
0.0
 30
0.0
 11
156.1875000000009
 21
0.0
 31
0.0
  0
LINE
  5
206
330
10173
100
AcDbEntity
  8
0
100
AcDbLine
 10
197.5000029429793
 20
1.500000022351742
 30
0.0
 11
225.8125019611252
 21
1.500000071030155
 31
0.0
  0
LINE
  5
207
330
10173
100
AcDbEntity
  8
0
100
AcDbLine
 10
197.4999999999984
 20
0.0
 30
0.0
 11
225.8125051727463
 21
0.0
 31
0.0
  0
LINE
  5
208
330
10173
100
AcDbEntity
  8
0
100
AcDbLine
 10
226.3125019619838
 20
0.9999990900366005
 30
0.0
 11
226.3125009809818
 21
0.4999948272511099
 31
0.0
  0
LINE
  5
209
330
10173
100
AcDbEntity
  8
0
100
AcDbLine
 10
155.6875000000009
 20
0.999999951322002
 30
0.0
 11
155.6875000000009
 21
0.4999999999999008
 31
0.0
  0
LINE
  5
210
330
10173
100
AcDbEntity
  8
0
100
AcDbLine
 10
184.4999999999996
 20
-95.25
 30
0.0
 11
197.5000000000012
 21
-95.25000000000004
 31
0.0
  0
LINE
  5
211
330
10173
100
AcDbEntity
  8
0
100
AcDbLine
 10
184.4999999999997
 20
-96.75000000000013
 30
0.0
 11
197.5000000000008
 21
-96.75000000000013
 31
0.0
  0
LINE
  5
212
330
10173
100
AcDbEntity
  8
0
100
AcDbLine
 10
197.5000000000012
 20
-95.25000000000004
 30
0.0
 11
225.812500000001
 21
-95.25000000000011
 31
0.0
  0
LINE
  5
213
330
10173
100
AcDbEntity
  8
0
100
AcDbLine
 10
197.5000000000008
 20
-96.75000000000013
 30
0.0
 11
225.8125000000009
 21
-96.75000000000013
 31
0.0
  0
LINE
  5
214
330
10173
100
AcDbEntity
  8
0
100
AcDbLine
 10
184.4999999999997
 20
-96.75000000000013
 30
0.0
 11
156.1874999999997
 21
-96.75000000000013
 31
0.0
  0
LINE
  5
215
330
10173
100
AcDbEntity
  8
0
100
AcDbLine
 10
184.4999999999996
 20
-95.25
 30
0.0
 11
156.1874999999997
 21
-95.24999999999993
 31
0.0
  0
LINE
  5
216
330
10173
100
AcDbEntity
  8
0
100
AcDbLine
 10
155.6874999999997
 20
-95.74999999999997
 30
0.0
 11
155.6874999999997
 21
-96.25000000000011
 31
0.0
  0
LINE
  5
217
330
10173
100
AcDbEntity
  8
0
100
AcDbLine
 10
226.3125000000011
 20
-95.7500000000003
 30
0.0
 11
226.3125000000009
 21
-96.25000000000023
 31
0.0
  0
LINE
  5
218
330
10173
100
AcDbEntity
  8
0
100
AcDbLine
 10
285.2499999999996
 20
1.500000000003205
 30
0.0
 11
286.7500344846346
 21
1.499954911881009
 31
0.0
  0
LINE
  5
219
330
10173
100
AcDbEntity
  8
0
100
AcDbLine
 10
285.25
 20
-96.74999999999997
 30
0.0
 11
286.7500000000422
 21
-96.75000000000114
 31
0.0
  0
LINE
  5
220
330
10173
100
AcDbEntity
  8
0
100
AcDbLine
 10
0.5000000000000029
 20
1.5
 30
0.0
 11
29.50000000000005
 21
1.499999999999343
 31
0.0
  0
LINE
  5
221
330
10173
100
AcDbEntity
  8
0
100
AcDbLine
 10
0.4999999999999982
 20
-0.0000000000000001
 30
0.0
 11
29.49999999999999
 21
-0.0000000000006637
 31
0.0
  0
LINE
  5
222
330
10173
100
AcDbEntity
  8
0
100
AcDbLine
 10
30.00000000000001
 20
0.9999999999993653
 30
0.0
 11
29.99999999999999
 21
0.499999999999317
 31
0.0
  0
LINE
  5
223
330
10173
100
AcDbEntity
  8
0
100
AcDbLine
 10
285.2499999999996
 20
1.500000000003205
 30
0.0
 11
256.250015037915
 21
1.500871683206851
 31
0.0
  0
LINE
  5
224
330
10173
100
AcDbEntity
  8
0
100
AcDbLine
 10
285.25
 20
-0.0000000000000699
 30
0.0
 11
256.2500000000002
 21
0.0000002574778915
 31
0.0
  0
LINE
  5
225
330
10173
100
AcDbEntity
  8
0
100
AcDbLine
 10
255.7500000088865
 20
1.000871687872052
 30
0.0
 11
255.7500000044394
 21
0.5000002619171402
 31
0.0
  0
LINE
  5
226
330
10173
100
AcDbEntity
  8
0
100
AcDbLine
 10
0.4999999999999306
 20
-95.25
 30
0.0
 11
29.50000000000033
 21
-95.25000000002333
 31
0.0
  0
LINE
  5
227
330
10173
100
AcDbEntity
  8
0
100
AcDbLine
 10
0.4999999999999306
 20
-96.74999783746898
 30
0.0
 11
29.49999999999907
 21
-96.74999783749249
 31
0.0
  0
LINE
  5
228
330
10173
100
AcDbEntity
  8
0
100
AcDbLine
 10
29.99999999999993
 20
-95.75000000002369
 30
0.0
 11
29.99999999999949
 21
-96.24999783749286
 31
0.0
  0
LINE
  5
229
330
10173
100
AcDbEntity
  8
0
100
AcDbLine
 10
285.25
 20
-95.24999999999993
 30
0.0
 11
256.2500000000006
 21
-95.24999999997729
 31
0.0
  0
LINE
  5
230
330
10173
100
AcDbEntity
  8
0
100
AcDbLine
 10
285.25
 20
-96.74999999999997
 30
0.0
 11
256.2499999999994
 21
-96.74999999997739
 31
0.0
  0
LINE
  5
231
330
10173
100
AcDbEntity
  8
0
100
AcDbLine
 10
255.75
 20
-95.74999999997692
 30
0.0
 11
255.7499999999997
 21
-96.24999999997699
 31
0.0
  0
LINE
  5
232
330
10173
100
AcDbEntity
  8
0
100
AcDbLine
 10
-1.500000000000004
 20
0.9999999999999976
 30
0.0
 11
-1.499999999999992
 21
-0.4999999999999982
 31
0.0
  0
LINE
  5
233
330
10173
100
AcDbEntity
  8
0
100
AcDbLine
 10
-0.0000000000000001
 20
-0.4999999999999982
 30
0.0
 11
-0.0000000000001594
 21
-41.49999999999999
 31
0.0
  0
LINE
  5
234
330
10173
100
AcDbEntity
  8
0
100
AcDbLine
 10
-1.499999999999992
 20
-0.4999999999999982
 30
0.0
 11
-1.499999999999673
 21
-41.5
 31
0.0
  0
LINE
  5
235
330
10173
100
AcDbEntity
  8
0
100
AcDbLine
 10
-0.9999999999996647
 20
-42.0
 30
0.0
 11
-0.5000000000001488
 21
-41.99999999999999
 31
0.0
  0
LINE
  5
236
330
10173
100
AcDbEntity
  8
0
100
AcDbLine
 10
-1.500000000119866
 20
-96.24999999996874
 30
0.0
 11
-1.500000000115206
 21
-94.74999999999532
 31
0.0
  0
LINE
  5
237
330
10173
100
AcDbEntity
  8
0
100
AcDbLine
 10
-1.500000000115206
 20
-94.74999999999532
 30
0.0
 11
-1.499999999987509
 21
-53.74999999999531
 31
0.0
  0
LINE
  5
238
330
10173
100
AcDbEntity
  8
0
100
AcDbLine
 10
-0.0000000000000174
 20
-94.75
 30
0.0
 11
0.0000000001276814
 21
-53.74999999999996
 31
0.0
  0
LINE
  5
239
330
10173
100
AcDbEntity
  8
0
100
AcDbLine
 10
-0.9999999999859631
 20
-53.24999999999687
 30
0.0
 11
-0.4999999998707436
 21
-53.24999999999843
 31
0.0
  0
LINE
  5
240
330
10173
100
AcDbEntity
  8
0
100
AcDbLine
 10
287.2499999999999
 20
-94.75
 30
0.0
 11
287.25
 21
-96.2500000000439
 31
0.0
  0
LINE
  5
241
330
10173
100
AcDbEntity
  8
0
100
AcDbLine
 10
287.25
 20
-0.5000000000082088
 30
0.0
 11
287.25
 21
0.9999743682976738
 31
0.0
  0
LINE
  5
242
330
10173
100
AcDbEntity
  8
0
100
AcDbLine
 10
285.75
 20
-94.75
 30
0.0
 11
285.7499893847238
 21
-53.75000012945524
 31
0.0
  0
LINE
  5
243
330
10173
100
AcDbEntity
  8
0
100
AcDbLine
 10
287.2499999999999
 20
-94.75
 30
0.0
 11
287.2499999999998
 21
-53.7499999999996
 31
0.0
  0
LINE
  5
244
330
10173
100
AcDbEntity
  8
0
100
AcDbLine
 10
286.249989384723
 20
-53.25000000000088
 30
0.0
 11
286.7500000000001
 21
-53.25000000000034
 31
0.0
  0
LINE
  5
245
330
10173
100
AcDbEntity
  8
0
100
AcDbLine
 10
285.75
 20
-0.500000000008205
 30
0.0
 11
285.7499996359795
 21
-41.49999999556898
 31
0.0
  0
LINE
  5
246
330
10173
100
AcDbEntity
  8
0
100
AcDbLine
 10
287.25
 20
-0.5000000000082088
 30
0.0
 11
287.2499999999999
 21
-41.50000000000829
 31
0.0
  0
LINE
  5
247
330
10173
100
AcDbEntity
  8
0
100
AcDbLine
 10
286.2499996359794
 20
-42.00000000000826
 30
0.0
 11
286.75
 21
-42.00000000000826
 31
0.0
  0
ARC
  5
248
330
10173
100
AcDbEntity
  8
0
100
AcDbCircle
 10
29.50000000000004
 20
0.9999999999993718
 30
0.0
 40
0.4999999999999716
100
AcDbArc
 50
0.0
 51
89.99999999999837
  0
ARC
  5
249
330
10173
100
AcDbEntity
  8
0
100
AcDbCircle
 10
29.49999999999999
 20
0.4999999999993283
 30
0.0
 40
0.4999999999999921
100
AcDbArc
 50
269.9999999999992
 51
0.0
  0
ARC
  5
250
330
10173
100
AcDbEntity
  8
0
100
AcDbCircle
 10
-0.9999999999996736
 20
-41.5
 30
0.0
 40
0.4999999999999996
100
AcDbArc
 50
180.0
 51
270.000000000001
  0
ARC
  5
251
330
10173
100
AcDbEntity
  8
0
100
AcDbCircle
 10
-0.5000000000001577
 20
-41.49999999999999
 30
0.0
 40
0.4999999999999982
100
AcDbArc
 50
270.000000000001
 51
0.0
  0
ARC
  5
252
330
10173
100
AcDbEntity
  8
0
100
AcDbCircle
 10
59.93749999999973
 20
1.000000000000823
 30
0.0
 40
0.4999999999999084
100
AcDbArc
 50
89.99999999999919
 51
180.0
  0
ARC
  5
253
330
10173
100
AcDbEntity
  8
0
100
AcDbCircle
 10
59.93749999999977
 20
0.4999999999999982
 30
0.0
 40
0.4999999999999982
100
AcDbArc
 50
180.0
 51
270.0
  0
ARC
  5
254
330
10173
100
AcDbEntity
  8
0
100
AcDbCircle
 10
129.5625
 20
0.9999999999993894
 30
0.0
 40
0.5000000000000071
100
AcDbArc
 50
0.0
 51
90.0
  0
ARC
  5
255
330
10173
100
AcDbEntity
  8
0
100
AcDbCircle
 10
129.5625
 20
0.4999999999999981
 30
0.0
 40
0.4999999999999981
100
AcDbArc
 50
270.0
 51
0.0
  0
ARC
  5
256
330
10173
100
AcDbEntity
  8
0
100
AcDbCircle
 10
156.1875000000008
 20
0.9999999513221085
 30
0.0
 40
0.4999999999999761
100
AcDbArc
 50
90.0000000985111
 51
180.0
  0
ARC
  5
257
330
10173
100
AcDbEntity
  8
0
100
AcDbCircle
 10
156.1875000000009
 20
0.5000000000000071
 30
0.0
 40
0.5000000000000071
100
AcDbArc
 50
180.0
 51
270.0
  0
ARC
  5
258
330
10173
100
AcDbEntity
  8
0
100
AcDbCircle
 10
225.8125019619849
 20
1.000000071030216
 30
0.0
 40
0.4999999999999392
100
AcDbArc
 50
359.99988758683
 51
90.00000009850784
  0
ARC
  5
259
330
10173
100
AcDbEntity
  8
0
100
AcDbCircle
 10
225.8125051727463
 20
0.4999958082365015
 30
0.0
 40
0.4999958082365015
100
AcDbArc
 50
270.0
 51
359.9998875900724
  0
ARC
  5
260
330
10173
100
AcDbEntity
  8
0
100
AcDbCircle
 10
256.2500000088864
 20
1.000871683432777
 30
0.0
 40
0.4999999999999459
100
AcDbArc
 50
89.99827780018963
 51
180.0
  0
ARC
  5
261
330
10173
100
AcDbEntity
  8
0
100
AcDbCircle
 10
256.2500000044394
 20
0.5000002574778649
 30
0.0
 40
0.4999999999999716
100
AcDbArc
 50
180.0
 51
269.9999994913067
  0
ARC
  5
262
330
10173
100
AcDbEntity
  8
0
100
AcDbCircle
 10
286.2499996359795
 20
-41.50000000000826
 30
0.0
 40
0.5000000000000071
100
AcDbArc
 50
180.0
 51
269.9999999999935
  0
ARC
  5
263
330
10173
100
AcDbEntity
  8
0
100
AcDbCircle
 10
286.75
 20
-41.50000000000829
 30
0.0
 40
0.4999999999999716
100
AcDbArc
 50
270.0
 51
0.0
  0
ARC
  5
264
330
10173
100
AcDbEntity
  8
0
100
AcDbCircle
 10
286.2499893847236
 20
-53.75000000000067
 30
0.0
 40
0.4999999999997851
100
AcDbArc
 50
90.00000000007164
 51
180.0000148370041
  0
ARC
  5
265
330
10173
100
AcDbEntity
  8
0
100
AcDbCircle
 10
286.7500000000006
 20
-53.7499999999996
 30
0.0
 40
0.499999999999261
100
AcDbArc
 50
0.0
 51
90.00000000005863
  0
ARC
  5
266
330
10173
100
AcDbEntity
  8
0
100
AcDbCircle
 10
256.2500000000002
 20
-95.74999999997729
 30
0.0
 40
0.5000000000000071
100
AcDbArc
 50
89.99999999995441
 51
180.0
  0
ARC
  5
267
330
10173
100
AcDbEntity
  8
0
100
AcDbCircle
 10
256.2499999999998
 20
-96.24999999997738
 30
0.0
 40
0.5000000000000426
100
AcDbArc
 50
180.0
 51
269.9999999999609
  0
ARC
  5
268
330
10173
100
AcDbEntity
  8
0
100
AcDbCircle
 10
225.812500000001
 20
-95.75000000000016
 30
0.0
 40
0.5000000000000426
100
AcDbArc
 50
0.0
 51
90.0
  0
ARC
  5
269
330
10173
100
AcDbEntity
  8
0
100
AcDbCircle
 10
225.8125000000009
 20
-96.25000000000009
 30
0.0
 40
0.5000000000000426
100
AcDbArc
 50
270.0
 51
0.0
  0
ARC
  5
270
330
10173
100
AcDbEntity
  8
0
100
AcDbCircle
 10
156.1874999999997
 20
-95.74999999999996
 30
0.0
 40
0.5000000000000249
100
AcDbArc
 50
90.0
 51
180.0
  0
ARC
  5
271
330
10173
100
AcDbEntity
  8
0
100
AcDbCircle
 10
156.1874999999997
 20
-96.25000000000009
 30
0.0
 40
0.5000000000000426
100
AcDbArc
 50
180.0
 51
270.0
  0
ARC
  5
272
330
10173
100
AcDbEntity
  8
0
100
AcDbCircle
 10
129.5624999999999
 20
-95.75000000000001
 30
0.0
 40
0.5000000000000071
100
AcDbArc
 50
0.0
 51
90.0
  0
ARC
  5
273
330
10173
100
AcDbEntity
  8
0
100
AcDbCircle
 10
129.5625
 20
-96.25000000000003
 30
0.0
 40
0.5000000000000249
100
AcDbArc
 50
270.0
 51
0.0
  0
ARC
  5
274
330
10173
100
AcDbEntity
  8
0
100
AcDbCircle
 10
59.93750000000009
 20
-95.75000000000014
 30
0.0
 40
0.5000000000001315
100
AcDbArc
 50
90.0
 51
180.0
  0
ARC
  5
275
330
10173
100
AcDbEntity
  8
0
100
AcDbCircle
 10
59.9375
 20
-96.25000000000001
 30
0.0
 40
0.5000000000000426
100
AcDbArc
 50
180.0
 51
270.0
  0
ARC
  5
276
330
10173
100
AcDbEntity
  8
0
100
AcDbCircle
 10
29.49999999999993
 20
-95.75000000002332
 30
0.0
 40
0.5000000000000027
100
AcDbArc
 50
0.0
 51
89.99999999995359
  0
ARC
  5
277
330
10173
100
AcDbEntity
  8
0
100
AcDbCircle
 10
29.49999999999947
 20
-96.24999783749246
 30
0.0
 40
0.5000000000000249
100
AcDbArc
 50
269.9999999999544
 51
0.0
  0
ARC
  5
278
330
10173
100
AcDbEntity
  8
0
100
AcDbCircle
 10
-0.9999999999875202
 20
-53.74999999999687
 30
0.0
 40
0.4999999999999893
100
AcDbArc
 50
89.99999999982158
 51
180.0
  0
ARC
  5
279
330
10173
100
AcDbEntity
  8
0
100
AcDbCircle
 10
-0.4999999998723009
 20
-53.74999999999841
 30
0.0
 40
0.4999999999999822
100
AcDbArc
 50
0.0
 51
89.99999999982154
  0
LWPOLYLINE
  5
280
330
10173
100
AcDbEntity
  8
0
100
AcDbPolyline
 90
       24
 70
     1
 43
0.0
 10
23.81250000000003
 20
-37.60000000000002
 10
23.81250000000003
 20
-19.54999999999999
 42
-0.4142135623730911
 10
24.31250000000002
 20
-19.04999999999999
 10
261.4375
 20
-19.04999999999947
 42
-0.414213562373095
 10
261.9375
 20
-19.54999999999948
 10
261.9375000000001
 20
-37.59999999999986
 42
-0.4142135623730924
 10
261.4375000000001
 20
-38.09999999999987
 10
246.98075
 20
-38.09999999999991
 42
0.4142135623730898
 10
246.48075
 20
-38.59999999999991
 10
246.4807499999999
 20
-56.64999999999993
 42
-0.414213562373121
 10
245.9807499999999
 20
-57.14999999999991
 10
241.00625
 20
-57.14999999999995
 42
0.414213562373121
 10
240.50625
 20
-57.64999999999993
 10
240.50625
 20
-75.7000000000002
 42
-0.414213562373121
 10
240.00625
 20
-76.2000000000002
 10
39.76924999999995
 20
-76.19999999999999
 42
-0.414213562373095
 10
39.26924999999996
 20
-75.69999999999999
 10
39.26924999999996
 20
-57.65000000000001
 42
0.4142135623730976
 10
38.76924999999996
 20
-57.15000000000001
 10
26.69374999999999
 20
-57.15
 42
-0.4142135623730976
 10
26.19375
 20
-56.65000000000001
 10
26.19374999999998
 20
-38.60000000000001
 42
0.414213562373095
 10
25.69374999999998
 20
-38.10000000000001
 10
24.31250000000003
 20
-38.10000000000001
 42
-0.4142135623730976
  0
LWPOLYLINE
  5
281
330
10173
100
AcDbEntity
  8
0
100
AcDbPolyline
 90
        8
 70
     1
 43
0.0
 10
4.262499999999983
 20
-21.57500000000002
 10
3.025000000000005
 20
-21.57500000000002
 42
0.4142135623730966
 10
2.525000000000005
 20
-22.07500000000001
 10
2.525000000000004
 20
-35.07500000000001
 42
0.414213562373096
 10
3.025000000000004
 20
-35.575
 10
4.262499999999983
 20
-35.575
 42
0.4142135623730966
 10
4.762499999999983
 20
-35.07500000000001
 10
4.762499999999984
 20
-22.07500000000001
 42
0.4142135623730966
  0
LWPOLYLINE
  5
282
330
10173
100
AcDbEntity
  8
0
100
AcDbPolyline
 90
        8
 70
     1
 43
0.0
 10
282.725
 20
-21.57500000000002
 10
281.4875
 20
-21.57500000000002
 42
0.4142135623730924
 10
280.9875
 20
-22.07500000000002
 10
280.9875
 20
-35.07500000000053
 42
0.4142135623730924
 10
281.4875
 20
-35.57500000000053
 10
282.725
 20
-35.57500000000051
 42
0.4142135623731236
 10
283.225
 20
-35.07500000000053
 10
283.225
 20
-22.07500000000002
 42
0.4142135623731236
  0
LWPOLYLINE
  5
283
330
10173
100
AcDbEntity
  8
0
100
AcDbPolyline
 90
        8
 70
     1
 43
0.0
 10
282.7250000000001
 20
-78.72499999999995
 10
281.4875
 20
-78.72499999999995
 42
0.4142135623730898
 10
280.9875
 20
-79.22499999999994
 10
280.9875
 20
-92.22500000000046
 42
0.414213562373095
 10
281.4875
 20
-92.72500000000045
 10
282.7250000000001
 20
-92.72500000000043
 42
0.4142135623731159
 10
283.2250000000001
 20
-92.22500000000046
 10
283.2250000000001
 20
-79.22499999999994
 42
0.414213562373121
  0
LWPOLYLINE
  5
284
330
10173
100
AcDbEntity
  8
0
100
AcDbPolyline
 90
       10
 70
     1
 43
0.0
 10
261.9375
 20
-92.22500000000048
 10
261.9375
 20
-79.22499999999997
 42
0.414213562373121
 10
261.4375
 20
-78.72499999999997
 10
260.1999999999999
 20
-78.72499999999997
 10
257.675
 20
-78.72500000000015
 42
0.4142135623730898
 10
257.175
 20
-79.22500000000014
 10
257.175
 20
-92.22500000000066
 42
0.414213562373095
 10
257.675
 20
-92.72500000000065
 10
260.1999999999999
 20
-92.72500000000048
 10
261.4375
 20
-92.72500000000045
 42
0.4142135623731159
  0
LWPOLYLINE
  5
285
330
10173
100
AcDbEntity
  8
0
100
AcDbPolyline
 90
       10
 70
     1
 43
0.0
 10
237.6250000000001
 20
-78.72499999999987
 10
236.3875
 20
-78.72499999999987
 10
233.8625
 20
-78.7250000000001
 42
0.4142135623730898
 10
233.3625
 20
-79.22500000000008
 10
233.3625
 20
-92.2250000000006
 42
0.414213562373095
 10
233.8625
 20
-92.72500000000059
 10
236.3875
 20
-92.72500000000036
 10
237.6250000000001
 20
-92.72500000000035
 42
0.4142135623731159
 10
238.1250000000001
 20
-92.22500000000038
 10
238.1250000000001
 20
-79.22499999999985
 42
0.414213562373121
  0
LWPOLYLINE
  5
286
330
10173
100
AcDbEntity
  8
0
100
AcDbPolyline
 90
        8
 70
     1
 43
0.0
 10
212.075
 20
-79.22499999999988
 42
-0.4142135623730898
 10
212.575
 20
-78.7249999999999
 10
213.8125000000001
 20
-78.72499999999991
 42
-0.414213562373121
 10
214.3125000000001
 20
-79.22499999999988
 10
214.3125000000001
 20
-92.2250000000004
 42
-0.4142135623731159
 10
213.8125000000001
 20
-92.72500000000038
 10
212.575
 20
-92.72500000000042
 42
-0.414213562373095
 10
212.075
 20
-92.2250000000004
  0
LWPOLYLINE
  5
287
330
10173
100
AcDbEntity
  8
0
100
AcDbPolyline
 90
        8
 70
     1
 43
0.0
 10
71.43750000000001
 20
-79.225
 42
-0.4142135623730898
 10
71.93750000000001
 20
-78.72500000000001
 10
73.17500000000007
 20
-78.72500000000001
 42
-0.414213562373121
 10
73.67500000000007
 20
-79.225
 10
73.67500000000007
 20
-92.22500000000052
 42
-0.4142135623731159
 10
73.17500000000007
 20
-92.72500000000049
 10
71.93750000000001
 20
-92.72500000000052
 42
-0.414213562373095
 10
71.4375
 20
-92.22500000000052
  0
LWPOLYLINE
  5
288
330
10173
100
AcDbEntity
  8
0
100
AcDbPolyline
 90
       10
 70
     1
 43
0.0
 10
50.64999999999993
 20
-92.72500000000053
 10
51.88749999999998
 20
-92.72500000000052
 42
0.4142135623731159
 10
52.38749999999999
 20
-92.22500000000055
 10
52.38749999999999
 20
-79.22500000000002
 42
0.414213562373121
 10
51.88749999999998
 20
-78.72500000000004
 10
50.64999999999993
 20
-78.72500000000004
 10
48.12499999999999
 20
-78.72500000000004
 42
0.4142135623730898
 10
47.62499999999999
 20
-79.22500000000002
 10
47.62499999999999
 20
-92.22500000000055
 42
0.414213562373095
 10
48.12499999999999
 20
-92.72500000000053
  0
LWPOLYLINE
  5
289
330
10173
100
AcDbEntity
  8
0
100
AcDbPolyline
 90
       10
 70
     1
 43
0.0
 10
25.55000000000007
 20
-92.72500000000049
 10
28.07500000000001
 20
-92.72500000000048
 42
0.4142135623731159
 10
28.57500000000002
 20
-92.2250000000005
 10
28.57500000000002
 20
-79.22499999999998
 42
0.414213562373121
 10
28.07500000000001
 20
-78.725
 10
26.83749999999997
 20
-78.725
 10
24.31250000000002
 20
-78.72500000000001
 42
0.4142135623730898
 10
23.81250000000002
 20
-79.225
 10
23.81250000000002
 20
-92.22500000000052
 42
0.414213562373095
 10
24.31250000000002
 20
-92.7250000000005
  0
LWPOLYLINE
  5
290
330
10173
100
AcDbEntity
  8
0
100
AcDbPolyline
 90
        8
 70
     1
 43
0.0
 10
3.024999999999958
 20
-92.7250000000005
 10
4.262500000000006
 20
-92.72500000000049
 42
0.4142135623731159
 10
4.762500000000013
 20
-92.22500000000052
 10
4.762500000000013
 20
-79.225
 42
0.414213562373121
 10
4.262500000000006
 20
-78.72500000000001
 10
3.024999999999958
 20
-78.72500000000001
 42
0.4142135623730898
 10
2.524999999999951
 20
-79.225
 10
2.524999999999951
 20
-92.22500000000052
 42
0.414213562373095
  0
LWPOLYLINE
  5
291
330
10173
100
AcDbEntity
  8
0
100
AcDbPolyline
 90
        8
 70
     1
 43
0.0
 10
156.663
 20
-78.7250000000001
 10
152.9
 20
-78.7250000000001
 42
0.4142135623731159
 10
152.4
 20
-79.2250000000001
 10
152.4
 20
-92.22500000000011
 42
0.4142135623731262
 10
152.9
 20
-92.72500000000011
 10
156.663
 20
-92.72500000000011
 42
0.414213562373095
 10
157.163
 20
-92.22500000000011
 10
157.163
 20
-79.2250000000001
 42
0.4142135623730898
  0
LWPOLYLINE
  5
292
330
10173
100
AcDbEntity
  8
0
100
AcDbPolyline
 90
        8
 70
     1
 43
0.0
 10
129.087
 20
-78.72499999999997
 10
132.85
 20
-78.72499999999997
 42
-0.4142135623730898
 10
133.35
 20
-79.22499999999997
 10
133.35
 20
-92.22499999999995
 42
-0.4142135623730742
 10
132.85
 20
-92.72499999999995
 10
129.087
 20
-92.72499999999995
 42
-0.4142135623730534
 10
128.587
 20
-92.22499999999995
 10
128.587
 20
-79.22499999999997
 42
-0.414213562373069
  0
LINE
  5
1014B
330
10173
100
AcDbEntity
  8
0
100
AcDbLine
 10
82.85
 20
-92.72499999999985
 30
0.0
 11
88.6
 21
-92.72499999999982
 31
0.0
  0
ARC
  5
1014C
330
10173
100
AcDbEntity
  8
0
100
AcDbCircle
 10
82.85
 20
-92.22499999999985
 30
0.0
 40
0.5
100
AcDbArc
 50
180.0
 51
270.0
  0
ARC
  5
1014D
330
10173
100
AcDbEntity
  8
0
100
AcDbCircle
 10
88.6
 20
-92.22499999999982
 30
0.0
 40
0.5
100
AcDbArc
 50
270.0
 51
0.0
1001
QCAD
1000
reversed:1
  0
LINE
  5
1014E
330
10173
100
AcDbEntity
  8
0
100
AcDbLine
 10
197.15
 20
-92.72500000000042
 30
0.0
 11
202.9
 21
-92.72500000000039
 31
0.0
  0
ARC
  5
1014F
330
10173
100
AcDbEntity
  8
0
100
AcDbCircle
 10
197.15
 20
-92.22500000000039
 30
0.0
 40
0.5
100
AcDbArc
 50
180.0
 51
270.0
  0
ARC
  5
10150
330
10173
100
AcDbEntity
  8
0
100
AcDbCircle
 10
202.9
 20
-92.22500000000038
 30
0.0
 40
0.5
100
AcDbArc
 50
270.0
 51
0.0
1001
QCAD
1000
reversed:1
  0
LINE
  5
10151
330
10173
100
AcDbEntity
  8
0
100
AcDbLine
 10
244.24325
 20
-59.67499999999995
 30
0.0
 11
250.99325
 21
-59.67499999999988
 31
0.0
  0
LINE
  5
10152
330
10173
100
AcDbEntity
  8
0
100
AcDbLine
 10
274.8692500000001
 20
-59.67500000000002
 30
0.0
 11
268.6192500000001
 21
-59.67500000000002
 31
0.0
  0
ARC
  5
10155
330
10173
100
AcDbEntity
  8
0
100
AcDbCircle
 10
268.6192500000001
 20
-60.17500000000003
 30
0.0
 40
0.5
100
AcDbArc
 50
90.0
 51
180.0
  0
VIEWPORT
  5
1023B
330
1016F
100
AcDbEntity
 67
     1
  8
0
100
AcDbViewport
 10
5.25
 20
4.0
 30
0.0
 40
11.638
 41
8.993
 68
     1
 69
     1
1001
ACAD
1000
MVIEW
1002
{
1070
    16
1010
0.0
1020
0.0
1030
0.0
1010
0.0
1020
0.0
1030
1.0
1040
0.0
1040
8.993
1040
5.25
1040
4.0
1040
50.0
1040
0.0
1040
0.0
1070
     0
1070
   100
1070
     0
1070
     3
1070
     0
1070
     0
1070
     0
1070
     0
1040
0.0
1040
0.0
1040
0.0
1040
0.5
1040
0.5
1040
0.5
1040
0.5
1070
     0
1002
{
1002
}
1002
}
  0
ENDSEC
  0
SECTION
  2
OBJECTS
  0
DICTIONARY
  5
10161
330
0
100
AcDbDictionary
  3
ACAD_GROUP
350
10162
  3
ACAD_LAYOUT
350
1016E
  3
ACAD_MATERIAL
350
10197
  3
ACAD_MLEADERSTYLE
350
101BF
  3
ACAD_MLINESTYLE
350
1016B
  3
ACAD_PLOTSETTINGS
350
1016D
  3
ACAD_SCALELIST
350
1019B
  3
ACAD_VISUALSTYLE
350
1017E
  3
ACDBHEADERROUNDTRIPXREC
350
1023D
  3
ACDBVARIABLEDICTIONARY
350
1025E
  3
DWGPROPS
350
10265
  3
QCAD_OBJECTS
350
101C3
  0
DICTIONARY
  5
10266
330
1015D
100
AcDbDictionary
280
     1
  3
ACAD_XREC_ROUNDTRIP
360
10267
  0
DICTIONARY
  5
10162
102
{ACAD_REACTORS
330
10161
102
}
330
10161
100
AcDbDictionary
  0
DICTIONARY
  5
1016E
102
{ACAD_REACTORS
330
10161
102
}
330
10161
100
AcDbDictionary
  0
DICTIONARY
  5
10197
102
{ACAD_REACTORS
330
10161
102
}
330
10161
100
AcDbDictionary
  3
BYBLOCK
350
10199
  3
BYLAYER
350
10198
  3
GLOBAL
350
1019A
  0
DICTIONARY
  5
101BF
102
{ACAD_REACTORS
330
10161
102
}
330
10161
100
AcDbDictionary
  3
STANDARD
350
101C0
  0
DICTIONARY
  5
1016B
102
{ACAD_REACTORS
330
10161
102
}
330
10161
100
AcDbDictionary
  3
STANDARD
350
1016C
  0
DICTIONARY
  5
1016D
102
{ACAD_REACTORS
330
10161
102
}
330
10161
100
AcDbDictionary
  0
DICTIONARY
  5
1019B
102
{ACAD_REACTORS
330
10161
102
}
330
10161
100
AcDbDictionary
  3
A0
350
1019C
  3
A1
350
1019D
  3
A2
350
1019E
  3
A3
350
1019F
  3
A4
350
101A0
  3
A5
350
101A1
  3
A6
350
101A2
  3
A7
350
101A3
  3
A8
350
101A4
  3
A9
350
101A5
  3
B0
350
101A6
  3
B1
350
101A7
  3
B2
350
101A8
  3
B3
350
101A9
  3
B4
350
101AA
  3
B5
350
101AB
  3
B6
350
101AC
  3
B7
350
101AD
  3
B8
350
101AE
  3
B9
350
101AF
  3
C0
350
101B0
  3
C1
350
101B1
  3
C2
350
101B2
  3
C3
350
101B3
  3
C4
350
101B4
  3
C5
350
101B5
  3
C6
350
101B6
  3
C7
350
101B7
  3
C8
350
101B8
  3
C9
350
101B9
  3
D0
350
101BA
  3
D1
350
101BB
  3
D2
350
101BC
  0
DICTIONARY
  5
1017E
102
{ACAD_REACTORS
330
10161
102
}
330
10161
100
AcDbDictionary
  3
2DWIREFRAME
350
10183
  3
BASIC
350
10186
  3
BRIGHTEN
350
1018A
  3
COLORCHANGE
350
1018E
  3
CONCEPTUAL
350
10188
  3
DIM
350
10189
  3
EDGECOLOROFF
350
10191
  3
FACEPATTERN
350
1018D
  3
FLAT
350
1017F
  3
FLATWITHEDGES
350
10180
  3
GOURAUD
350
10181
  3
GOURAUDWITHEDGES
350
10182
  3
HIDDEN
350
10185
  3
JITTEROFF
350
1018F
  3
LINEPATTERN
350
1018C
  3
OVERHANGOFF
350
10190
  3
REALISTIC
350
10187
  3
SHADED
350
10196
  3
SHADED_WITH_EDGES
350
10195
  3
SHADES_OF_GRAY
350
10192
  3
SKETCHY
350
10193
  3
THICKEN
350
1018B
  3
WIREFRAME
350
10184
  3
X-RAY
350
10194
  0
DICTIONARY
  5
1023D
102
{ACAD_REACTORS
330
10161
102
}
330
10161
100
AcDbDictionary
  3
CEPSNID
350
10247
  3
CEPSNTYPE
350
10246
  3
DIMSTYLEDATA
350
1025D
  3
FINGERPRINTGUID
350
10248
  3
HYPERLINKBASE
350
10240
  3
INSUNITS
350
10245
  3
LAYOUTDICT
350
10242
  3
LWETCUNION
350
10244
  3
PLOTSETDICT
350
10243
  3
PSVPSCALE
350
1024A
  3
PUCSBASE
350
1024D
  3
PUCSORGBACK
350
10253
  3
PUCSORGBOTTOM
350
1024F
  3
PUCSORGFRONT
350
10252
  3
PUCSORGLEFT
350
10250
  3
PUCSORGRIGHT
350
10251
  3
PUCSORGTOP
350
1024E
  3
PUCSORTHOREF
350
1024B
  3
PUCSORTHOVIEW
350
1024C
  3
STYLESHEET
350
10241
  3
TSTACKALIGN
350
1023E
  3
TSTACKSIZE
350
1023F
  3
UCSBASE
350
10256
  3
UCSORGBACK
350
1025C
  3
UCSORGBOTTOM
350
10258
  3
UCSORGFRONT
350
1025B
  3
UCSORGLEFT
350
10259
  3
UCSORGRIGHT
350
1025A
  3
UCSORGTOP
350
10257
  3
UCSORTHOREF
350
10254
  3
UCSORTHOVIEW
350
10255
  3
VERSIONGUID
350
10249
  0
DICTIONARY
  5
1025E
102
{ACAD_REACTORS
330
10161
102
}
330
10161
100
AcDbDictionary
  3
CANNOSCALE
350
10268
  3
CMLEADERSTYLE
350
10260
  3
CTABLESTYLE
350
1025F
  3
DIMASSOC
350
10263
  3
HIDETEXT
350
10264
  3
MSLTSCALE
350
10269
  0
XRECORD
  5
10265
102
{ACAD_REACTORS
330
10161
102
}
330
10161
100
AcDbXrecord
  1
DWGPROPS COOKIE
  2

  3

  4

  6

  7

  8
ilya
  9

300
=
301
=
302
=
303
=
304
=
305
=
306
=
307
=
308
=
309
=
 40
0.0
 41
2459229.744388322
 42
2459229.744388345
  1

 90
        0
  0
DICTIONARY
  5
101C3
102
{ACAD_REACTORS
330
10161
102
}
330
10161
100
AcDbDictionary
  3
COLORSETTINGS/BACKGROUNDCOLOR
350
101C5
  3
COLORSETTINGS/COLORMODE
350
101C6
  3
GRID/DISPLAYGRID00
350
101C7
  3
GRID/DISPLAYGRID01
350
101C8
  3
GRID/DISPLAYGRID02
350
101C9
  3
GRID/DISPLAYGRID03
350
101CA
  3
GRID/GRIDSPACINGX00
350
101CB
  3
GRID/GRIDSPACINGX01
350
101CC
  3
GRID/GRIDSPACINGX02
350
101CD
  3
GRID/GRIDSPACINGX03
350
101CE
  3
GRID/GRIDSPACINGY00
350
101CF
  3
GRID/GRIDSPACINGY01
350
101D0
  3
GRID/GRIDSPACINGY02
350
101D1
  3
GRID/GRIDSPACINGY03
350
101D2
  3
GRID/ISOMETRICGRID00
350
101D3
  3
GRID/ISOMETRICGRID01
350
101D4
  3
GRID/ISOMETRICGRID02
350
101D5
  3
GRID/ISOMETRICGRID03
350
101D6
  3
GRID/ISOMETRICPROJECTION00
350
101D7
  3
GRID/ISOMETRICPROJECTION01
350
101D8
  3
GRID/ISOMETRICPROJECTION02
350
101D9
  3
GRID/ISOMETRICPROJECTION03
350
101DA
  3
GRID/METAGRIDSPACINGX00
350
101DB
  3
GRID/METAGRIDSPACINGX01
350
101DC
  3
GRID/METAGRIDSPACINGX02
350
101DD
  3
GRID/METAGRIDSPACINGX03
350
101DE
  3
GRID/METAGRIDSPACINGY00
350
101DF
  3
GRID/METAGRIDSPACINGY01
350
101E0
  3
GRID/METAGRIDSPACINGY02
350
101E1
  3
GRID/METAGRIDSPACINGY03
350
101E2
  3
MULTIPAGESETTINGS/COLUMNS
350
101E3
  3
MULTIPAGESETTINGS/GLUEMAR0
350
101E4
  3
MULTIPAGESETTINGS/GLUEMAR1
350
101E5
  3
MULTIPAGESETTINGS/GLUEMAR2
350
101E6
  3
MULTIPAGESETTINGS/GLUEMARG
350
101E7
  3
MultiPageSettings/GlueMarginsBottom
350
101EA
  3
MultiPageSettings/GlueMarginsLeft
350
101EB
  3
MultiPageSettings/GlueMarginsRight
350
101EC
  3
MultiPageSettings/GlueMarginsTop
350
101ED
  3
MULTIPAGESETTINGS/PRINTCRO
350
101E8
  3
MultiPageSettings/PrintCropMarks
350
101EE
  3
MULTIPAGESETTINGS/ROWS
350
101E9
  3
PAGESETTINGS/OFFSETX
350
101EF
  3
PAGESETTINGS/OFFSETY
350
101F0
  3
PAGESETTINGS/PAGEORIENTATION
350
101F1
  3
PAGESETTINGS/PAPERHEIGHT
350
101F2
  3
PAGESETTINGS/PAPERWIDTH
350
101F3
  3
PAGESETTINGS/SCALE
350
101F4
  3
PAGESETTINGS/SHOWPAPERBORDERS
350
101F5
  3
PAGETAGSETTINGS/ENABLEPAGETAGS
350
101F6
  3
PAGETAGSETTINGS/TAGALIGNMENT
350
101F7
  3
PAGETAGSETTINGS/TAGFONT
350
101F8
  3
PAGETAGSETTINGS/TAGPOSITION
350
101F9
  3
QCADVERSION
350
101FA
  3
UNITSETTINGS/PAPERUNIT
350
101FB
  3
VIEWPORTCENTER
350
101FC
  3
VIEWPORTHEIGHT
350
101FD
  3
VIEWPORTWIDTH
350
101FE
  0
XRECORD
  5
10267
102
{ACAD_REACTORS
330
10266
102
}
330
10266
100
AcDbXrecord
102
VTR_0.000_0.000_1.000_1.000_VISUALSTYLE
340
10183
102
VTR_0.000_0.000_1.000_1.000_GRIDDISPLAY
 70
     3
102
VTR_0.000_0.000_1.000_1.000_GRIDMAJOR
 70
     5
102
VTR_0.000_0.000_1.000_1.000_DEFAULTLIGHTING
280
     1
102
VTR_0.000_0.000_1.000_1.000_DEFAULTLIGHTINGTYPE
 70
     1
102
VTR_0.000_0.000_1.000_1.000_BRIGHTNESS
141
0.0
102
VTR_0.000_0.000_1.000_1.000_CONTRAST
142
0.0
  0
MATERIAL
  5
10199
102
{ACAD_REACTORS
330
10197
102
}
102
{ACAD_XDICTIONARY
360
1026C
102
}
330
10197
100
AcDbMaterial
  1
BYBLOCK
  0
MATERIAL
  5
10198
102
{ACAD_REACTORS
330
10197
102
}
102
{ACAD_XDICTIONARY
360
1026A
102
}
330
10197
100
AcDbMaterial
  1
BYLAYER
  0
MATERIAL
  5
1019A
102
{ACAD_REACTORS
330
10197
102
}
102
{ACAD_XDICTIONARY
360
1026E
102
}
330
10197
100
AcDbMaterial
  1
GLOBAL
  0
ACAD_PROXY_OBJECT
  5
101C0
102
{ACAD_REACTORS
330
101BF
102
}
330
101BF
100
AcDbProxyObject
 90
      499
 91
      505
 93
      610
310
40901902A4063FBFFFFFE056BD1B81E855B9FC0AD7A3703D0AD73F4214DD185B99185C9900AD7A3703D0AC73F90141901A02B5E8DC0F42B1CFC02B5E8DC0F42B1CFE5764000000000000300FC0
340
10168
340
0
340
10166
340
0
 94
        0
1001
ACAD_MLEADERVER
1070
     2
  0
MLINESTYLE
  5
1016C
102
{ACAD_REACTORS
330
1016B
102
}
330
1016B
100
AcDbMlineStyle
  2
Standard
 70
     0
  3

 62
   256
 51
90.0
 52
90.0
 71
     2
 49
0.5
 62
   256
  6
BYLAYER
 49
-0.5
 62
   256
  6
BYLAYER
  0
ACAD_PROXY_OBJECT
  5
1019C
102
{ACAD_REACTORS
330
1019B
102
}
330
1019B
100
AcDbProxyObject
 90
      499
 91
      503
 93
       41
310
903313A31580
  0
ACAD_PROXY_OBJECT
  5
1019D
102
{ACAD_REACTORS
330
1019B
102
}
330
1019B
100
AcDbProxyObject
 90
      499
 91
      503
 93
      105
310
903313A324000000000000004000
  0
ACAD_PROXY_OBJECT
  5
1019E
102
{ACAD_REACTORS
330
1019B
102
}
330
1019B
100
AcDbProxyObject
 90
      499
 91
      503
 93
      105
310
903313A344000000000000104000
  0
ACAD_PROXY_OBJECT
  5
1019F
102
{ACAD_REACTORS
330
1019B
102
}
330
1019B
100
AcDbProxyObject
 90
      499
 91
      503
 93
      105
310
903313A354000000000000144000
  0
ACAD_PROXY_OBJECT
  5
101A0
102
{ACAD_REACTORS
330
1019B
102
}
330
1019B
100
AcDbProxyObject
 90
      499
 91
      503
 93
      105
310
903313A384000000000000204000
  0
ACAD_PROXY_OBJECT
  5
101A1
102
{ACAD_REACTORS
330
1019B
102
}
330
1019B
100
AcDbProxyObject
 90
      499
 91
      503
 93
      113
310
904313A31304000000000000244000
  0
ACAD_PROXY_OBJECT
  5
101A2
102
{ACAD_REACTORS
330
1019B
102
}
330
1019B
100
AcDbProxyObject
 90
      499
 91
      503
 93
      113
310
904313A31364000000000000304000
  0
ACAD_PROXY_OBJECT
  5
101A3
102
{ACAD_REACTORS
330
1019B
102
}
330
1019B
100
AcDbProxyObject
 90
      499
 91
      503
 93
      113
310
904313A32304000000000000344000
  0
ACAD_PROXY_OBJECT
  5
101A4
102
{ACAD_REACTORS
330
1019B
102
}
330
1019B
100
AcDbProxyObject
 90
      499
 91
      503
 93
      113
310
904313A333040000000000003E4000
  0
ACAD_PROXY_OBJECT
  5
101A5
102
{ACAD_REACTORS
330
1019B
102
}
330
1019B
100
AcDbProxyObject
 90
      499
 91
      503
 93
      113
310
904313A34304000000000000444000
  0
ACAD_PROXY_OBJECT
  5
101A6
102
{ACAD_REACTORS
330
1019B
102
}
330
1019B
100
AcDbProxyObject
 90
      499
 91
      503
 93
      113
310
904313A35304000000000000494000
  0
ACAD_PROXY_OBJECT
  5
101A7
102
{ACAD_REACTORS
330
1019B
102
}
330
1019B
100
AcDbProxyObject
 90
      499
 91
      503
 93
      121
310
905313A3130304000000000000594000
  0
ACAD_PROXY_OBJECT
  5
101A8
102
{ACAD_REACTORS
330
1019B
102
}
330
1019B
100
AcDbProxyObject
 90
      499
 91
      503
 93
      105
310
903323A310000000000000010100
  0
ACAD_PROXY_OBJECT
  5
101A9
102
{ACAD_REACTORS
330
1019B
102
}
330
1019B
100
AcDbProxyObject
 90
      499
 91
      503
 93
      105
310
903343A310000000000000410100
  0
ACAD_PROXY_OBJECT
  5
101AA
102
{ACAD_REACTORS
330
1019B
102
}
330
1019B
100
AcDbProxyObject
 90
      499
 91
      503
 93
      105
310
903383A310000000000000810100
  0
ACAD_PROXY_OBJECT
  5
101AB
102
{ACAD_REACTORS
330
1019B
102
}
330
1019B
100
AcDbProxyObject
 90
      499
 91
      503
 93
      113
310
90431303A310000000000000910100
  0
ACAD_PROXY_OBJECT
  5
101AC
102
{ACAD_REACTORS
330
1019B
102
}
330
1019B
100
AcDbProxyObject
 90
      499
 91
      503
 93
      121
310
9053130303A310000000000001650100
  0
ACAD_PROXY_OBJECT
  5
101AD
102
{ACAD_REACTORS
330
1019B
102
}
330
1019B
100
AcDbProxyObject
 90
      499
 91
      503
 93
      257
310
90E312F31323822203D2031272D3022000000000000200FC000000000000284000
  0
ACAD_PROXY_OBJECT
  5
101AE
102
{ACAD_REACTORS
330
1019B
102
}
330
1019B
100
AcDbProxyObject
 90
      499
 91
      503
 93
      249
310
90D312F363422203D2031272D3022000000000000240FC000000000000284000
  0
ACAD_PROXY_OBJECT
  5
101AF
102
{ACAD_REACTORS
330
1019B
102
}
330
1019B
100
AcDbProxyObject
 90
      499
 91
      503
 93
      249
310
90D312F333222203D2031272D3022000000000000280FC000000000000284000
  0
ACAD_PROXY_OBJECT
  5
101B0
102
{ACAD_REACTORS
330
1019B
102
}
330
1019B
100
AcDbProxyObject
 90
      499
 91
      503
 93
      249
310
90D312F313622203D2031272D30220000000000002C0FC000000000000284000
  0
ACAD_PROXY_OBJECT
  5
101B1
102
{ACAD_REACTORS
330
1019B
102
}
330
1019B
100
AcDbProxyObject
 90
      499
 91
      503
 93
      249
310
90D332F333222203D2031272D30220000000000002E0FC000000000000284000
  0
ACAD_PROXY_OBJECT
  5
101B2
102
{ACAD_REACTORS
330
1019B
102
}
330
1019B
100
AcDbProxyObject
 90
      499
 91
      503
 93
      241
310
90C312F3822203D2031272D3022000000000000300FC000000000000284000
  0
ACAD_PROXY_OBJECT
  5
101B3
102
{ACAD_REACTORS
330
1019B
102
}
330
1019B
100
AcDbProxyObject
 90
      499
 91
      503
 93
      249
310
90D332F313622203D2031272D3022000000000000320FC000000000000284000
  0
ACAD_PROXY_OBJECT
  5
101B4
102
{ACAD_REACTORS
330
1019B
102
}
330
1019B
100
AcDbProxyObject
 90
      499
 91
      503
 93
      241
310
90C312F3422203D2031272D3022000000000000340FC000000000000284000
  0
ACAD_PROXY_OBJECT
  5
101B5
102
{ACAD_REACTORS
330
1019B
102
}
330
1019B
100
AcDbProxyObject
 90
      499
 91
      503
 93
      241
310
90C332F3822203D2031272D3022000000000000360FC000000000000284000
  0
ACAD_PROXY_OBJECT
  5
101B6
102
{ACAD_REACTORS
330
1019B
102
}
330
1019B
100
AcDbProxyObject
 90
      499
 91
      503
 93
      241
310
90C312F3222203D2031272D3022000000000000380FC000000000000284000
  0
ACAD_PROXY_OBJECT
  5
101B7
102
{ACAD_REACTORS
330
1019B
102
}
330
1019B
100
AcDbProxyObject
 90
      499
 91
      503
 93
      241
310
90C332F3422203D2031272D30220000000000003A0FC000000000000284000
  0
ACAD_PROXY_OBJECT
  5
101B8
102
{ACAD_REACTORS
330
1019B
102
}
330
1019B
100
AcDbProxyObject
 90
      499
 91
      503
 93
      161
310
90A3122203D2031272D30224000000000000284000
  0
ACAD_PROXY_OBJECT
  5
101B9
102
{ACAD_REACTORS
330
1019B
102
}
330
1019B
100
AcDbProxyObject
 90
      499
 91
      503
 93
      257
310
90E312D312F3222203D2031272D30220000000000003E0FC000000000000284000
  0
ACAD_PROXY_OBJECT
  5
101BA
102
{ACAD_REACTORS
330
1019B
102
}
330
1019B
100
AcDbProxyObject
 90
      499
 91
      503
 93
      225
310
90A3322203D2031272D302200000000000002100000000000000284000
  0
ACAD_PROXY_OBJECT
  5
101BB
102
{ACAD_REACTORS
330
1019B
102
}
330
1019B
100
AcDbProxyObject
 90
      499
 91
      503
 93
      225
310
90A3622203D2031272D302200000000000006100000000000000284000
  0
ACAD_PROXY_OBJECT
  5
101BC
102
{ACAD_REACTORS
330
1019B
102
}
330
1019B
100
AcDbProxyObject
 90
      499
 91
      503
 93
      249
310
90D31272D3022203D2031272D30220000000000000A100000000000000284000
  0
ACAD_PROXY_OBJECT
  5
10183
102
{ACAD_REACTORS
330
1017E
102
}
330
1017E
100
AcDbProxyObject
 90
      499
 91
      501
 93
      436
310
42CC9915DA5C99599C985B595049028333333333333E33F0000000000000F90107901411070040501600405405064090741402480A0340
1001
ACAD
1000
AcDbSavedByObjectVersion
1070
     0
  0
ACAD_PROXY_OBJECT
  5
10186
102
{ACAD_REACTORS
330
1017E
102
}
330
1017E
100
AcDbProxyObject
 90
      499
 91
      501
 93
      388
310
4150985CDA58D07406404333333333333E33F0000000000000F90107A41107004050150841D405064090741402480A0350
1001
ACAD
1000
AcDbSavedByObjectVersion
1070
     0
  0
ACAD_PROXY_OBJECT
  5
1018A
102
{ACAD_REACTORS
330
1017E
102
}
330
1017E
100
AcDbProxyObject
 90
      499
 91
      501
 93
      428
310
42109C9A59DA1D195B90C409028333333333333E33F0000000000000F9010790141107004050150841D405064090741402480A029950
1001
ACAD
1000
AcDbSavedByObjectVersion
1070
     0
  0
ACAD_PROXY_OBJECT
  5
1018E
102
{ACAD_REACTORS
330
1017E
102
}
330
1017E
100
AcDbProxyObject
 90
      499
 91
      501
 93
      452
310
42D0DBDB1BDC90DA185B99D95104090240C333333333333E33F0000000000000F90108901411070040501508421405064090741402480A0350
1001
ACAD
1000
AcDbSavedByObjectVersion
1070
     0
  0
ACAD_PROXY_OBJECT
  5
10188
102
{ACAD_REACTORS
330
1017E
102
}
330
1017E
100
AcDbProxyObject
 90
      499
 91
      501
 93
      500
310
4290DBDB98D95C1D1D585B10940D028333333333333E33F0000000000000F90107902409070040501000000000018199010841D405064090740C02480A0340
1001
ACAD
1000
AcDbSavedByObjectVersion
1070
     0
  0
ACAD_PROXY_OBJECT
  5
10189
102
{ACAD_REACTORS
330
1017E
102
}
330
1017E
100
AcDbProxyObject
 90
      499
 91
      501
 93
      412
310
40D11A5B50B409028333333333333E33F0000000000000F9010790141107004050150841D405064090741402480A02677FFFFFD0
1001
ACAD
1000
AcDbSavedByObjectVersion
1070
     0
  0
ACAD_PROXY_OBJECT
  5
10191
102
{ACAD_REACTORS
330
1017E
102
}
330
1017E
100
AcDbProxyObject
 90
      499
 91
      501
 93
      452
310
43115919D950DBDB1BDC93D999916409028333333333333E33F0000000000000F9010790141107004050150841D405064090741402480A0350
1001
ACAD
1000
AcDbSavedByObjectVersion
1070
     0
  0
ACAD_PROXY_OBJECT
  5
1018D
102
{ACAD_REACTORS
330
1017E
102
}
330
1017E
100
AcDbProxyObject
 90
      499
 91
      501
 93
      444
310
42D19858D95C185D1D195C9B90F409028333333333333E33F0000000000000F9010790141107004050150841D405064090741402480A0350
1001
ACAD
1000
AcDbSavedByObjectVersion
1070
     0
  0
ACAD_PROXY_OBJECT
  5
1017F
102
{ACAD_REACTORS
330
1017E
102
}
330
1017E
100
AcDbProxyObject
 90
      499
 91
      501
 93
      380
310
41119B185D240901404333333333333E33F0000000000000F9010740A907004050150841D405064090741402480A1B50
1001
ACAD
1000
AcDbSavedByObjectVersion
1070
     0
  0
ACAD_PROXY_OBJECT
  5
10180
102
{ACAD_REACTORS
330
1017E
102
}
330
1017E
100
AcDbProxyObject
 90
      499
 91
      501
 93
      468
310
43519B185D15DA5D1A115919D95CD0140901404333333333333E33F0000000000000F90107409019070040501600405405064090741402480A1B50
1001
ACAD
1000
AcDbSavedByObjectVersion
1070
     0
  0
ACAD_PROXY_OBJECT
  5
10181
102
{ACAD_REACTORS
330
1017E
102
}
330
1017E
100
AcDbProxyObject
 90
      499
 91
      501
 93
      404
310
41D1DBDD5C985D5910240902404333333333333E33F0000000000000F9010740A9070040501641D405064090741402480A1B50
1001
ACAD
1000
AcDbSavedByObjectVersion
1070
     0
  0
ACAD_PROXY_OBJECT
  5
10182
102
{ACAD_REACTORS
330
1017E
102
}
330
1017E
100
AcDbProxyObject
 90
      499
 91
      501
 93
      492
310
4411DBDD5C985D5915DA5D1A115919D95CD0340902404333333333333E33F0000000000000F90107409019070040501600405405064090741402480A1B50
1001
ACAD
1000
AcDbSavedByObjectVersion
1070
     0
  0
ACAD_PROXY_OBJECT
  5
10185
102
{ACAD_REACTORS
330
1017E
102
}
330
1017E
100
AcDbProxyObject
 90
      499
 91
      501
 93
      476
310
41921A5919195B90640502408333333333333E33F0000000000000F901079024090700405020000000000001110200405405064090740C02480A0340
1001
ACAD
1000
AcDbSavedByObjectVersion
1070
     0
  0
ACAD_PROXY_OBJECT
  5
1018F
102
{ACAD_REACTORS
330
1017E
102
}
330
1017E
100
AcDbProxyObject
 90
      499
 91
      501
 93
      428
310
42529A5D1D195C93D999914409028333333333333E33F0000000000000F9010790141107004050150A41D405064090741402480A0350
1001
ACAD
1000
AcDbSavedByObjectVersion
1070
     0
  0
ACAD_PROXY_OBJECT
  5
1018C
102
{ACAD_REACTORS
330
1017E
102
}
330
1017E
100
AcDbProxyObject
 90
      499
 91
      501
 93
      444
310
42D31A5B995C185D1D195C9B90E409028333333333333E33F0000000000000F9010790141107004050750841D405064090741402483A0350
1001
ACAD
1000
AcDbSavedByObjectVersion
1070
     0
  0
ACAD_PROXY_OBJECT
  5
10190
102
{ACAD_REACTORS
330
1017E
102
}
330
1017E
100
AcDbProxyObject
 90
      499
 91
      501
 93
      444
310
42D3DD995C9A185B99D3D999915409028333333333333E33F0000000000000F9010790141107004050150941D405064090741402480A0350
1001
ACAD
1000
AcDbSavedByObjectVersion
1070
     0
  0
ACAD_PROXY_OBJECT
  5
10187
102
{ACAD_REACTORS
330
1017E
102
}
330
1017E
100
AcDbProxyObject
 90
      499
 91
      501
 93
      428
310
425499585B1A5CDD1A58D08409038333333333333E33F0000000000000F9010740A907004050150800405405064090740C02480A1B40
1001
ACAD
1000
AcDbSavedByObjectVersion
1070
     0
  0
ACAD_PROXY_OBJECT
  5
10196
102
{ACAD_REACTORS
330
1017E
102
}
330
1017E
100
AcDbProxyObject
 90
      499
 91
      501
 93
      420
310
4194DA1859195911B40902404333333333333E33F0000000000000F9010740A41107004050150800405405064090840C02480A0B40
1001
ACAD
1000
AcDbSavedByObjectVersion
1070
     0
  0
ACAD_PROXY_OBJECT
  5
10195
102
{ACAD_REACTORS
330
1017E
102
}
330
1017E
100
AcDbProxyObject
 90
      499
 91
      501
 93
      516
310
4454DA18591959081DDA5D1A08195919D95CD1A40902404333333333333E33F0000000000000F901074090142907004050250800405405064090740C02480A0B40
1001
ACAD
1000
AcDbSavedByObjectVersion
1070
     0
  0
ACAD_PROXY_OBJECT
  5
10192
102
{ACAD_REACTORS
330
1017E
102
}
330
1017E
100
AcDbProxyObject
 90
      499
 91
      501
 93
      532
310
4394DA1859195CC81BD98811DC985E5174090240C333333333333E33F0000000000000F901079024090741D01000000000000111010841D405064090740C02480A0340
1001
ACAD
1000
AcDbSavedByObjectVersion
1070
     0
  0
ACAD_PROXY_OBJECT
  5
10193
102
{ACAD_REACTORS
330
1017E
102
}
330
1017E
100
AcDbProxyObject
 90
      499
 91
      501
 93
      476
310
41D4DAD95D18DA1E51840502408333333333333E33F0000000000000F901079024090741D01000000000000111010B41D405064090741802480A0340
1001
ACAD
1000
AcDbSavedByObjectVersion
1070
     0
  0
ACAD_PROXY_OBJECT
  5
1018B
102
{ACAD_REACTORS
330
1017E
102
}
330
1017E
100
AcDbProxyObject
 90
      499
 91
      501
 93
      412
310
41D51A1A58DAD95B90D409028333333333333E33F0000000000000F9010790141107004050150C41D405064090741402480A0350
1001
ACAD
1000
AcDbSavedByObjectVersion
1070
     0
  0
ACAD_PROXY_OBJECT
  5
10184
102
{ACAD_REACTORS
330
1017E
102
}
330
1017E
100
AcDbProxyObject
 90
      499
 91
      501
 93
      420
310
4255DA5C99599C985B595059028333333333333E33F0000000000000F90107901411070040501600405405064090740C02480A0340
1001
ACAD
1000
AcDbSavedByObjectVersion
1070
     0
  0
ACAD_PROXY_OBJECT
  5
10194
102
{ACAD_REACTORS
330
1017E
102
}
330
1017E
100
AcDbProxyObject
 90
      499
 91
      501
 93
      404
310
41560B54985E51940902404000000000000E03F0000000000000F9010740501907004050150841D405064090740C02480A1B40
1001
ACAD
1000
AcDbSavedByObjectVersion
1070
     0
  0
XRECORD
  5
10247
102
{ACAD_REACTORS
330
1023D
102
}
330
1023D
100
AcDbXrecord
340
0
  0
XRECORD
  5
10246
102
{ACAD_REACTORS
330
1023D
102
}
330
1023D
100
AcDbXrecord
 90
        0
  0
XRECORD
  5
1025D
102
{ACAD_REACTORS
330
1023D
102
}
330
1023D
100
AcDbXrecord
1000
DSTYLE
1002
{
1070
   176
 70
    18
1070
   177
 70
    18
1070
   178
 70
    18
1070
   340
340
10166
1002
}
  0
XRECORD
  5
10248
102
{ACAD_REACTORS
330
1023D
102
}
330
1023D
100
AcDbXrecord
  1
{404318d5-5cf4-4d90-853d-3bc1a54e1a98}
  0
XRECORD
  5
10240
102
{ACAD_REACTORS
330
1023D
102
}
330
1023D
100
AcDbXrecord
  1

  0
XRECORD
  5
10245
102
{ACAD_REACTORS
330
1023D
102
}
330
1023D
100
AcDbXrecord
 90
        4
  0
XRECORD
  5
10242
102
{ACAD_REACTORS
330
1023D
102
}
330
1023D
100
AcDbXrecord
340
1016E
  0
XRECORD
  5
10244
102
{ACAD_REACTORS
330
1023D
102
}
330
1023D
100
AcDbXrecord
 90
    10781
  0
XRECORD
  5
10243
102
{ACAD_REACTORS
330
1023D
102
}
330
1023D
100
AcDbXrecord
340
1016D
  0
XRECORD
  5
1024A
102
{ACAD_REACTORS
330
1023D
102
}
330
1023D
100
AcDbXrecord
 40
0.0
  0
XRECORD
  5
1024D
102
{ACAD_REACTORS
330
1023D
102
}
330
1023D
100
AcDbXrecord
340
0
  0
XRECORD
  5
10253
102
{ACAD_REACTORS
330
1023D
102
}
330
1023D
100
AcDbXrecord
 10
0.0
 20
0.0
 30
0.0
  0
XRECORD
  5
1024F
102
{ACAD_REACTORS
330
1023D
102
}
330
1023D
100
AcDbXrecord
 10
0.0
 20
0.0
 30
0.0
  0
XRECORD
  5
10252
102
{ACAD_REACTORS
330
1023D
102
}
330
1023D
100
AcDbXrecord
 10
0.0
 20
0.0
 30
0.0
  0
XRECORD
  5
10250
102
{ACAD_REACTORS
330
1023D
102
}
330
1023D
100
AcDbXrecord
 10
0.0
 20
0.0
 30
0.0
  0
XRECORD
  5
10251
102
{ACAD_REACTORS
330
1023D
102
}
330
1023D
100
AcDbXrecord
 10
0.0
 20
0.0
 30
0.0
  0
XRECORD
  5
1024E
102
{ACAD_REACTORS
330
1023D
102
}
330
1023D
100
AcDbXrecord
 10
0.0
 20
0.0
 30
0.0
  0
XRECORD
  5
1024B
102
{ACAD_REACTORS
330
1023D
102
}
330
1023D
100
AcDbXrecord
340
0
  0
XRECORD
  5
1024C
102
{ACAD_REACTORS
330
1023D
102
}
330
1023D
100
AcDbXrecord
 70
     0
  0
XRECORD
  5
10241
102
{ACAD_REACTORS
330
1023D
102
}
330
1023D
100
AcDbXrecord
  1

  0
XRECORD
  5
1023E
102
{ACAD_REACTORS
330
1023D
102
}
330
1023D
100
AcDbXrecord
 90
        1
  0
XRECORD
  5
1023F
102
{ACAD_REACTORS
330
1023D
102
}
330
1023D
100
AcDbXrecord
 90
       70
  0
XRECORD
  5
10256
102
{ACAD_REACTORS
330
1023D
102
}
330
1023D
100
AcDbXrecord
340
0
  0
XRECORD
  5
1025C
102
{ACAD_REACTORS
330
1023D
102
}
330
1023D
100
AcDbXrecord
 10
0.0
 20
0.0
 30
0.0
  0
XRECORD
  5
10258
102
{ACAD_REACTORS
330
1023D
102
}
330
1023D
100
AcDbXrecord
 10
0.0
 20
0.0
 30
0.0
  0
XRECORD
  5
1025B
102
{ACAD_REACTORS
330
1023D
102
}
330
1023D
100
AcDbXrecord
 10
0.0
 20
0.0
 30
0.0
  0
XRECORD
  5
10259
102
{ACAD_REACTORS
330
1023D
102
}
330
1023D
100
AcDbXrecord
 10
0.0
 20
0.0
 30
0.0
  0
XRECORD
  5
1025A
102
{ACAD_REACTORS
330
1023D
102
}
330
1023D
100
AcDbXrecord
 10
0.0
 20
0.0
 30
0.0
  0
XRECORD
  5
10257
102
{ACAD_REACTORS
330
1023D
102
}
330
1023D
100
AcDbXrecord
 10
0.0
 20
0.0
 30
0.0
  0
XRECORD
  5
10254
102
{ACAD_REACTORS
330
1023D
102
}
330
1023D
100
AcDbXrecord
340
0
  0
XRECORD
  5
10255
102
{ACAD_REACTORS
330
1023D
102
}
330
1023D
100
AcDbXrecord
 70
     0
  0
XRECORD
  5
10249
102
{ACAD_REACTORS
330
1023D
102
}
330
1023D
100
AcDbXrecord
  1
{FAEB1C32-E019-11D5-929B-00C0DF256EC4}
  0
DICTIONARYVAR
  5
10268
102
{ACAD_REACTORS
330
1025E
102
}
330
1025E
100
DictionaryVariables
280
     0
  1
1:1
  0
DICTIONARYVAR
  5
10260
102
{ACAD_REACTORS
330
1025E
102
}
330
1025E
100
DictionaryVariables
280
     0
  1
Standard
  0
DICTIONARYVAR
  5
1025F
102
{ACAD_REACTORS
330
1025E
102
}
330
1025E
100
DictionaryVariables
280
     0
  1
Standard
  0
DICTIONARYVAR
  5
10263
102
{ACAD_REACTORS
330
1025E
102
}
330
1025E
100
DictionaryVariables
280
     0
  1
2
  0
DICTIONARYVAR
  5
10264
102
{ACAD_REACTORS
330
1025E
102
}
330
1025E
100
DictionaryVariables
280
     0
  1
1
  0
DICTIONARYVAR
  5
10269
102
{ACAD_REACTORS
330
1025E
102
}
330
1025E
100
DictionaryVariables
280
     0
  1
1
  0
XRECORD
  5
101C5
102
{ACAD_REACTORS
330
101C3
102
}
330
101C3
100
AcDbXrecord
1000
#ffffff
  0
XRECORD
  5
101C6
102
{ACAD_REACTORS
330
101C3
102
}
330
101C3
100
AcDbXrecord
1000
FullColor
  0
ACAD_PROXY_OBJECT
  5
101C7
102
{ACAD_REACTORS
330
101C3
102
}
330
101C3
100
AcDbProxyObject
 90
      499
 91
      508
 93
       34
310
40C8804040
  0
ACAD_PROXY_OBJECT
  5
101C8
102
{ACAD_REACTORS
330
101C3
102
}
330
101C3
100
AcDbProxyObject
 90
      499
 91
      508
 93
       34
310
40C8804040
  0
ACAD_PROXY_OBJECT
  5
101C9
102
{ACAD_REACTORS
330
101C3
102
}
330
101C3
100
AcDbProxyObject
 90
      499
 91
      508
 93
       34
310
40C8804040
  0
ACAD_PROXY_OBJECT
  5
101CA
102
{ACAD_REACTORS
330
101C3
102
}
330
101C3
100
AcDbProxyObject
 90
      499
 91
      508
 93
       34
310
40C8804040
  0
XRECORD
  5
101CB
102
{ACAD_REACTORS
330
101C3
102
}
330
101C3
100
AcDbXrecord
1000
auto
  0
XRECORD
  5
101CC
102
{ACAD_REACTORS
330
101C3
102
}
330
101C3
100
AcDbXrecord
1000
auto
  0
XRECORD
  5
101CD
102
{ACAD_REACTORS
330
101C3
102
}
330
101C3
100
AcDbXrecord
1000
auto
  0
XRECORD
  5
101CE
102
{ACAD_REACTORS
330
101C3
102
}
330
101C3
100
AcDbXrecord
1000
auto
  0
XRECORD
  5
101CF
102
{ACAD_REACTORS
330
101C3
102
}
330
101C3
100
AcDbXrecord
1000
auto
  0
XRECORD
  5
101D0
102
{ACAD_REACTORS
330
101C3
102
}
330
101C3
100
AcDbXrecord
1000
auto
  0
XRECORD
  5
101D1
102
{ACAD_REACTORS
330
101C3
102
}
330
101C3
100
AcDbXrecord
1000
auto
  0
XRECORD
  5
101D2
102
{ACAD_REACTORS
330
101C3
102
}
330
101C3
100
AcDbXrecord
1000
auto
  0
ACAD_PROXY_OBJECT
  5
101D3
102
{ACAD_REACTORS
330
101C3
102
}
330
101C3
100
AcDbProxyObject
 90
      499
 91
      508
 93
       34
310
40C8804000
  0
ACAD_PROXY_OBJECT
  5
101D4
102
{ACAD_REACTORS
330
101C3
102
}
330
101C3
100
AcDbProxyObject
 90
      499
 91
      508
 93
       34
310
40C8804000
  0
ACAD_PROXY_OBJECT
  5
101D5
102
{ACAD_REACTORS
330
101C3
102
}
330
101C3
100
AcDbProxyObject
 90
      499
 91
      508
 93
       34
310
40C8804000
  0
ACAD_PROXY_OBJECT
  5
101D6
102
{ACAD_REACTORS
330
101C3
102
}
330
101C3
100
AcDbProxyObject
 90
      499
 91
      508
 93
       34
310
40C8804000
  0
XRECORD
  5
101D7
102
{ACAD_REACTORS
330
101C3
102
}
330
101C3
100
AcDbXrecord
 90
    65537
  0
XRECORD
  5
101D8
102
{ACAD_REACTORS
330
101C3
102
}
330
101C3
100
AcDbXrecord
 90
    65537
  0
XRECORD
  5
101D9
102
{ACAD_REACTORS
330
101C3
102
}
330
101C3
100
AcDbXrecord
 90
    65537
  0
XRECORD
  5
101DA
102
{ACAD_REACTORS
330
101C3
102
}
330
101C3
100
AcDbXrecord
 90
    65537
  0
XRECORD
  5
101DB
102
{ACAD_REACTORS
330
101C3
102
}
330
101C3
100
AcDbXrecord
1000
auto
  0
XRECORD
  5
101DC
102
{ACAD_REACTORS
330
101C3
102
}
330
101C3
100
AcDbXrecord
1000
auto
  0
XRECORD
  5
101DD
102
{ACAD_REACTORS
330
101C3
102
}
330
101C3
100
AcDbXrecord
1000
auto
  0
XRECORD
  5
101DE
102
{ACAD_REACTORS
330
101C3
102
}
330
101C3
100
AcDbXrecord
1000
auto
  0
XRECORD
  5
101DF
102
{ACAD_REACTORS
330
101C3
102
}
330
101C3
100
AcDbXrecord
1000
auto
  0
XRECORD
  5
101E0
102
{ACAD_REACTORS
330
101C3
102
}
330
101C3
100
AcDbXrecord
1000
auto
  0
XRECORD
  5
101E1
102
{ACAD_REACTORS
330
101C3
102
}
330
101C3
100
AcDbXrecord
1000
auto
  0
XRECORD
  5
101E2
102
{ACAD_REACTORS
330
101C3
102
}
330
101C3
100
AcDbXrecord
1000
auto
  0
XRECORD
  5
101E3
102
{ACAD_REACTORS
330
101C3
102
}
330
101C3
100
AcDbXrecord
 90
        1
  0
XRECORD
  5
101E4
102
{ACAD_REACTORS
330
101C3
102
}
330
101C3
100
AcDbXrecord
 40
10.0
  0
XRECORD
  5
101E5
102
{ACAD_REACTORS
330
101C3
102
}
330
101C3
100
AcDbXrecord
 40
10.0
  0
XRECORD
  5
101E6
102
{ACAD_REACTORS
330
101C3
102
}
330
101C3
100
AcDbXrecord
 40
10.0
  0
XRECORD
  5
101E7
102
{ACAD_REACTORS
330
101C3
102
}
330
101C3
100
AcDbXrecord
 40
10.0
  0
XRECORD
  5
101EA
102
{ACAD_REACTORS
330
101C3
102
}
330
101C3
100
AcDbXrecord
 40
10.0
  0
XRECORD
  5
101EB
102
{ACAD_REACTORS
330
101C3
102
}
330
101C3
100
AcDbXrecord
 40
10.0
  0
XRECORD
  5
101EC
102
{ACAD_REACTORS
330
101C3
102
}
330
101C3
100
AcDbXrecord
 40
10.0
  0
XRECORD
  5
101ED
102
{ACAD_REACTORS
330
101C3
102
}
330
101C3
100
AcDbXrecord
 40
10.0
  0
ACAD_PROXY_OBJECT
  5
101E8
102
{ACAD_REACTORS
330
101C3
102
}
330
101C3
100
AcDbProxyObject
 90
      499
 91
      508
 93
       34
310
40C8804000
  0
ACAD_PROXY_OBJECT
  5
101EE
102
{ACAD_REACTORS
330
101C3
102
}
330
101C3
100
AcDbProxyObject
 90
      499
 91
      508
 93
       34
310
40C8804000
  0
XRECORD
  5
101E9
102
{ACAD_REACTORS
330
101C3
102
}
330
101C3
100
AcDbXrecord
 90
        1
  0
XRECORD
  5
101EF
102
{ACAD_REACTORS
330
101C3
102
}
330
101C3
100
AcDbXrecord
 40
0.0
  0
XRECORD
  5
101F0
102
{ACAD_REACTORS
330
101C3
102
}
330
101C3
100
AcDbXrecord
 40
0.0
  0
XRECORD
  5
101F1
102
{ACAD_REACTORS
330
101C3
102
}
330
101C3
100
AcDbXrecord
1000
Portrait
  0
XRECORD
  5
101F2
102
{ACAD_REACTORS
330
101C3
102
}
330
101C3
100
AcDbXrecord
 40
297.0
  0
XRECORD
  5
101F3
102
{ACAD_REACTORS
330
101C3
102
}
330
101C3
100
AcDbXrecord
 40
210.0
  0
XRECORD
  5
101F4
102
{ACAD_REACTORS
330
101C3
102
}
330
101C3
100
AcDbXrecord
1000
1:1
  0
ACAD_PROXY_OBJECT
  5
101F5
102
{ACAD_REACTORS
330
101C3
102
}
330
101C3
100
AcDbProxyObject
 90
      499
 91
      508
 93
       34
310
40C8804040
  0
ACAD_PROXY_OBJECT
  5
101F6
102
{ACAD_REACTORS
330
101C3
102
}
330
101C3
100
AcDbProxyObject
 90
      499
 91
      508
 93
       34
310
40C8804000
  0
XRECORD
  5
101F7
102
{ACAD_REACTORS
330
101C3
102
}
330
101C3
100
AcDbXrecord
1000
Inside
  0
XRECORD
  5
101F8
102
{ACAD_REACTORS
330
101C3
102
}
330
101C3
100
AcDbXrecord
1000
Arial,10,-1,5,50,0,0,0,0,0
  0
XRECORD
  5
101F9
102
{ACAD_REACTORS
330
101C3
102
}
330
101C3
100
AcDbXrecord
1000
TopLeft
  0
XRECORD
  5
101FA
102
{ACAD_REACTORS
330
101C3
102
}
330
101C3
100
AcDbXrecord
1000
3.24.3
  0
XRECORD
  5
101FB
102
{ACAD_REACTORS
330
101C3
102
}
330
101C3
100
AcDbXrecord
 90
        4
  0
XRECORD
  5
101FC
102
{ACAD_REACTORS
330
101C3
102
}
330
101C3
100
AcDbXrecord
  0
XRECORD
  5
101FD
102
{ACAD_REACTORS
330
101C3
102
}
330
101C3
100
AcDbXrecord
 40
308.1265274074273
  0
XRECORD
  5
101FE
102
{ACAD_REACTORS
330
101C3
102
}
330
101C3
100
AcDbXrecord
 40
539.4257508989443
  0
DICTIONARY
  5
1026C
330
10199
100
AcDbDictionary
280
     1
  3
ACAD_XREC_ROUNDTRIP
360
1026D
  0
DICTIONARY
  5
1026A
330
10198
100
AcDbDictionary
280
     1
  3
ACAD_XREC_ROUNDTRIP
360
1026B
  0
DICTIONARY
  5
1026E
330
1019A
100
AcDbDictionary
280
     1
  3
ACAD_XREC_ROUNDTRIP
360
1026F
  0
XRECORD
  5
1026D
102
{ACAD_REACTORS
330
1026C
102
}
330
1026C
100
AcDbXrecord
102
MATERIAL
148
0.0
149
0.0
149
0.0
 93
        0
 94
      127
282
     0
 72
     1
 77
     1
171
     1
175
     1
179
     1
273
     0
  0
XRECORD
  5
1026B
102
{ACAD_REACTORS
330
1026A
102
}
330
1026A
100
AcDbXrecord
102
MATERIAL
148
0.0
149
0.0
149
0.0
 93
        0
 94
      127
282
     0
 72
     1
 77
     1
171
     1
175
     1
179
     1
273
     0
  0
XRECORD
  5
1026F
102
{ACAD_REACTORS
330
1026E
102
}
330
1026E
100
AcDbXrecord
102
MATERIAL
148
0.0
149
0.0
149
0.0
 93
        0
 94
      127
282
     0
 72
     1
 77
     1
171
     1
175
     1
179
     1
273
     0
  0
ENDSEC
  0
EOF
