M48
; DRILL file {KiCad (5.99.0-13123-g97e9348ee1)} date 2021 December 06, Monday 14:29:13
; FORMAT={-:-/ absolute / inch / decimal}
; #@! TF.CreationDate,2021-12-06T14:29:13+03:00
; #@! TF.GenerationSoftware,Kicad,Pcbnew,(5.99.0-13123-g97e9348ee1)
; #@! TF.FileFunction,Plated,1,2,PTH
FMAT,2
INCH
; #@! TA.AperFunction,Plated,PTH,ViaDrill
T1C0.0118
; #@! TA.AperFunction,Plated,PTH,ViaDrill
T2C0.0157
; #@! TA.AperFunction,Plated,PTH,ComponentDrill
T3C0.0236
; #@! TA.AperFunction,Plated,PTH,ComponentDrill
T4C0.0866
%
G90
G05
T1
X3.6507Y-2.5958
X3.8645Y-2.5672
X3.9126Y-2.7463
T2
X3.5531Y-2.637
X3.5591Y-2.437
X3.5591Y-2.5502
X3.5955Y-2.7431
X3.6787Y-2.6362
X3.7126Y-2.7431
X3.7224Y-2.4498
X3.8386Y-2.4498
X3.8933Y-2.6787
X3.9321Y-2.5778
X4.002Y-2.437
X4.002Y-2.5146
X4.0089Y-2.6264
X4.0089Y-2.7118
T4
X3.5039Y-2.3031
X3.5039Y-2.7953
X4.0551Y-2.3031
X4.0551Y-2.7953
T3
G00X3.6102Y-2.3386
M15
G01X3.6102Y-2.315
M16
G05
G00X3.6102Y-2.5138
M15
G01X3.6102Y-2.4705
M16
G05
G00X3.9488Y-2.3386
M15
G01X3.9488Y-2.315
M16
G05
G00X3.9488Y-2.5138
M15
G01X3.9488Y-2.4705
M16
G05
T0
M30
