%TF.GenerationSoftware,KiCad,Pcbnew,(5.99.0-13123-g97e9348ee1)*%
%TF.CreationDate,2021-12-06T14:29:08+03:00*%
%TF.ProjectId,Daughterboard,44617567-6874-4657-9262-6f6172642e6b,rev?*%
%TF.SameCoordinates,Original*%
%TF.FileFunction,Copper,L2,Bot*%
%TF.FilePolarity,Positive*%
%FSLAX46Y46*%
G04 Gerber Fmt 4.6, Leading zero omitted, Abs format (unit mm)*
G04 Created by KiCad (PCBNEW (5.99.0-13123-g97e9348ee1)) date 2021-12-06 14:29:08*
%MOMM*%
%LPD*%
G01*
G04 APERTURE LIST*
%TA.AperFunction,ComponentPad*%
%ADD10O,1.100000X2.200000*%
%TD*%
%TA.AperFunction,ComponentPad*%
%ADD11O,1.300000X1.900000*%
%TD*%
%TA.AperFunction,ComponentPad*%
%ADD12C,3.500000*%
%TD*%
%TA.AperFunction,ViaPad*%
%ADD13C,0.800000*%
%TD*%
%TA.AperFunction,ViaPad*%
%ADD14C,0.600000*%
%TD*%
%TA.AperFunction,Conductor*%
%ADD15C,0.600000*%
%TD*%
G04 APERTURE END LIST*
D10*
%TO.P,J1,S*%
%TO.N,GNDPWR*%
X91700000Y-63300000D03*
X100300000Y-63300000D03*
D11*
X91700000Y-59100000D03*
X100300000Y-59100000D03*
%TD*%
D12*
%TO.P,J3,1*%
%TO.N,GNDPWR*%
X103000000Y-58500000D03*
%TD*%
%TO.P,J4,1*%
%TO.N,GNDPWR*%
X103000000Y-71000000D03*
%TD*%
%TO.P,J5,1*%
%TO.N,GNDPWR*%
X89000000Y-71000000D03*
%TD*%
%TO.P,J6,1*%
%TO.N,GNDPWR*%
X89000000Y-58500000D03*
%TD*%
D13*
%TO.N,GND*%
X101650000Y-63870000D03*
X97500000Y-62225000D03*
X90250000Y-66980000D03*
X90400000Y-61900000D03*
X94550000Y-62225000D03*
X91325000Y-69675000D03*
X93440000Y-66960000D03*
X90400000Y-64775000D03*
X101825000Y-68880000D03*
X94300000Y-69675000D03*
X99875000Y-65475000D03*
X101650000Y-61900000D03*
X101825000Y-66710000D03*
X98890000Y-68040000D03*
D14*
%TO.N,VBUS*%
X98158300Y-65206880D03*
X99380000Y-69755000D03*
X92726804Y-65933219D03*
%TD*%
D15*
%TO.N,VBUS*%
X95804260Y-65933320D02*
X95834477Y-65932949D01*
X95864675Y-65931836D02*
X95894837Y-65929983D01*
X95924944Y-65927391D02*
X95954979Y-65924060D01*
X95984922Y-65919993D02*
X96014757Y-65915193D01*
X96014757Y-65915193D02*
X96044465Y-65909661D01*
X96044465Y-65909661D02*
X96074029Y-65903403D01*
X96074029Y-65903403D02*
X96103430Y-65896420D01*
X95954979Y-65924060D02*
X95984922Y-65919993D01*
X95834477Y-65932949D02*
X95864675Y-65931836D01*
X95894837Y-65929983D02*
X95924944Y-65927391D01*
X96161674Y-65880302D02*
X96190481Y-65871176D01*
X96275439Y-65839596D02*
X96303214Y-65827690D01*
X96608480Y-65634383D02*
X96631117Y-65614366D01*
X96384668Y-65787935D02*
X96411141Y-65773364D01*
X96513224Y-65708721D02*
X96537715Y-65691019D01*
X96561764Y-65672721D02*
X96585357Y-65653839D01*
X96437250Y-65758148D02*
X96462976Y-65742295D01*
X96103430Y-65896420D02*
X96132651Y-65888719D01*
X96132651Y-65888719D02*
X96161674Y-65880302D01*
X96303214Y-65827690D02*
X96330688Y-65815106D01*
X96330688Y-65815106D02*
X96357844Y-65801852D01*
X96462976Y-65742295D02*
X96488306Y-65725816D01*
X96357844Y-65801852D02*
X96384668Y-65787935D01*
X96488306Y-65725816D02*
X96513224Y-65708721D01*
X96585357Y-65653839D02*
X96608480Y-65634383D01*
X96411141Y-65773364D02*
X96437250Y-65758148D01*
X96537715Y-65691019D02*
X96561764Y-65672721D01*
X96631117Y-65614366D02*
X96653257Y-65593799D01*
X96190481Y-65871176D02*
X96219056Y-65861346D01*
X96247381Y-65850817D02*
X96275439Y-65839596D01*
X96653257Y-65593799D02*
X96674885Y-65572695D01*
X96219056Y-65861346D02*
X96247381Y-65850817D01*
X96435012Y-69048226D02*
X96422428Y-69020752D01*
X97164479Y-65269022D02*
X97193287Y-65259896D01*
X96476754Y-69128680D02*
X96462183Y-69102206D01*
X96317169Y-66410563D02*
X96316800Y-66440780D01*
X96866654Y-65414382D02*
X96891984Y-65397903D01*
X96596280Y-69302895D02*
X96577397Y-69279302D01*
X96524301Y-65756734D02*
X96541397Y-65731816D01*
X97078821Y-69661276D02*
X97051046Y-69649370D01*
X96422428Y-65941826D02*
X96435011Y-65914353D01*
X95633943Y-66064787D02*
X95606786Y-66051532D01*
X97399281Y-69745740D02*
X97369338Y-69741673D01*
X96680075Y-65567504D02*
X96701703Y-65546399D01*
X96524302Y-69205844D02*
X96507823Y-69180514D01*
X95523480Y-66015822D02*
X95495155Y-66005293D01*
X96746480Y-65505815D02*
X96769603Y-65486360D01*
X96891284Y-69563975D02*
X96865954Y-69547496D01*
X97051046Y-69649370D02*
X97023572Y-69636786D01*
X96462183Y-65860372D02*
X96476754Y-65833899D01*
X96369816Y-68879212D02*
X96361400Y-68850189D01*
X96841036Y-69530401D02*
X96816545Y-69512699D01*
X96943119Y-69595044D02*
X96917010Y-69579828D01*
X96353698Y-68820968D02*
X96346716Y-68791568D01*
X96378943Y-68908020D02*
X96369816Y-68879212D01*
X97024272Y-65325092D02*
X97051746Y-65312508D01*
X97489585Y-69753516D02*
X97459423Y-69751663D01*
X96615735Y-69326017D02*
X96596280Y-69302895D01*
X95660766Y-66078703D02*
X95633943Y-66064787D01*
X97221609Y-69710399D02*
X97192586Y-69701982D01*
X96507822Y-65782064D02*
X96524301Y-65756734D01*
X97310495Y-65230537D02*
X97340203Y-65225006D01*
X96307540Y-67019041D02*
X96303473Y-66989098D01*
X96723843Y-65525833D02*
X96746480Y-65505815D01*
X95884577Y-66232255D02*
X95861455Y-66212800D01*
X96326058Y-66290061D02*
X96322727Y-66320096D01*
X97051746Y-65312508D02*
X97079521Y-65300602D01*
X96841736Y-65431477D02*
X96866654Y-65414382D01*
X96817245Y-65449179D02*
X96841736Y-65431477D01*
X96346716Y-68791568D02*
X96340457Y-68762004D01*
X96559100Y-69255253D02*
X96541398Y-69230762D01*
X97519783Y-69754629D02*
X97489585Y-69753516D01*
X96462183Y-69102206D02*
X96448267Y-69075383D01*
X96286883Y-66899991D02*
X96279900Y-66870590D01*
X95956175Y-66299135D02*
X95950984Y-66293944D01*
X96223076Y-66698581D02*
X96211170Y-66670806D01*
X96322727Y-66320096D02*
X96320135Y-66350203D01*
X92726804Y-65933219D02*
X96413821Y-65933219D01*
X95110576Y-65933690D02*
X95080360Y-65933320D01*
X96996416Y-69623532D02*
X96969592Y-69609615D01*
X96701703Y-65546399D02*
X96723843Y-65525833D01*
X96316800Y-68521800D02*
X96316800Y-66440780D01*
X95408749Y-65977920D02*
X95379528Y-65970218D01*
X97459423Y-69751663D02*
X97429316Y-69749071D01*
X97079521Y-65300602D02*
X97107579Y-65289382D01*
X96559099Y-65707325D02*
X96577396Y-65683276D01*
X95201043Y-65939248D02*
X95170936Y-65936655D01*
X97222310Y-65251480D02*
X97251530Y-65243778D01*
X96263782Y-66812346D02*
X96254656Y-66783539D01*
X96279900Y-66870590D02*
X96272199Y-66841369D01*
X95170936Y-65936655D02*
X95140774Y-65934802D01*
X96917010Y-69579828D02*
X96891284Y-69563975D01*
X96435011Y-65914353D02*
X96448266Y-65887196D01*
X95789322Y-66157918D02*
X95764404Y-66140822D01*
X96326059Y-68672517D02*
X96322728Y-68642483D01*
X97520483Y-65207250D02*
X97550700Y-65206880D01*
X96422428Y-65941826D02*
X96410522Y-65969601D01*
X97369338Y-69741673D02*
X97339503Y-69736873D01*
X96361399Y-66112390D02*
X96353698Y-66141610D01*
X96320135Y-66350203D02*
X96318282Y-66380365D01*
X96303473Y-66989098D02*
X96298673Y-66959263D01*
X95495155Y-66005293D02*
X95466580Y-65995463D01*
X95606786Y-66051532D02*
X95579312Y-66038948D01*
X97399981Y-65216139D02*
X97430016Y-65212808D01*
X96185332Y-66616176D02*
X96171415Y-66589352D01*
X96037319Y-66388663D02*
X96017863Y-66365540D01*
X97339503Y-69736873D02*
X97309795Y-69731341D01*
X95907215Y-66252273D02*
X95884577Y-66232255D01*
X96997116Y-65338346D02*
X97024272Y-65325092D01*
X95466580Y-65995463D02*
X95437772Y-65986336D01*
X95290856Y-65951446D02*
X95261021Y-65946646D01*
X96970292Y-65352263D02*
X96997116Y-65338346D01*
X96701003Y-69415479D02*
X96679375Y-69394375D01*
X96577396Y-65683276D02*
X96596279Y-65659683D01*
X95929355Y-66272840D02*
X95907215Y-66252273D01*
X96317170Y-68552016D02*
X96316800Y-68521800D01*
X96109296Y-66485714D02*
X96092201Y-66460796D01*
X96410522Y-65969601D02*
X96399301Y-65997659D01*
X96615734Y-65636561D02*
X96635752Y-65613923D01*
X95379528Y-65970218D02*
X95350128Y-65963236D01*
X96334926Y-68732296D02*
X96330126Y-68702461D01*
X97460123Y-65210215D02*
X97490285Y-65208362D01*
X96388773Y-68936595D02*
X96378943Y-68908020D01*
X95813813Y-66175620D02*
X95789322Y-66157918D01*
X96346715Y-66171011D02*
X96340457Y-66200575D01*
X97106879Y-69672497D02*
X97078821Y-69661276D01*
X96254656Y-66783539D02*
X96244826Y-66754964D01*
X96943819Y-65366834D02*
X96970292Y-65352263D01*
X96865954Y-69547496D02*
X96841036Y-69530401D01*
X95320564Y-65956977D02*
X95290856Y-65951446D01*
X96353698Y-66141610D02*
X96346715Y-66171011D01*
X96677423Y-65570155D02*
X96680075Y-65567504D01*
X96171415Y-66589352D02*
X96156844Y-66562879D01*
X96310871Y-67049076D02*
X96307540Y-67019041D01*
X97429316Y-69749071D02*
X97399281Y-69745740D01*
X96330125Y-66260118D02*
X96326058Y-66290061D01*
X96125775Y-66511044D02*
X96109296Y-66485714D01*
X95551538Y-66027042D02*
X95523480Y-66015822D01*
X96340457Y-66200575D02*
X96334926Y-66230283D01*
X95437772Y-65986336D02*
X95408749Y-65977920D01*
X96745780Y-69456063D02*
X96723143Y-69436046D01*
X96316800Y-67169760D02*
X96316429Y-67139543D01*
X96369816Y-66083367D02*
X96361399Y-66112390D01*
X96272199Y-66841369D02*
X96263782Y-66812346D01*
X96322728Y-68642483D02*
X96320135Y-68612376D01*
X96677424Y-69392424D02*
X96656320Y-69370795D01*
X97550700Y-65206880D02*
X98158300Y-65206880D01*
X96092201Y-66460796D02*
X96074499Y-66436305D01*
X97280231Y-69725083D02*
X97250830Y-69718100D01*
X97135904Y-65278853D02*
X97164479Y-65269022D01*
X97251530Y-65243778D02*
X97280931Y-65236796D01*
X95739074Y-66124343D02*
X95713348Y-66108491D01*
X96541398Y-69230762D02*
X96524302Y-69205844D01*
X96476754Y-65833899D02*
X96491970Y-65807791D01*
X97107579Y-65289382D02*
X97135904Y-65278853D01*
X96410522Y-68992978D02*
X96399302Y-68964920D01*
X97193287Y-65259896D02*
X97222310Y-65251480D01*
X96656318Y-65591783D02*
X96677423Y-65570155D01*
X95261021Y-65946646D02*
X95231077Y-65942579D01*
X96234297Y-66726639D02*
X96223076Y-66698581D01*
X96448266Y-65887196D02*
X96462183Y-65860372D01*
X96491970Y-65807791D02*
X96507822Y-65782064D01*
X97550000Y-69755000D02*
X97519783Y-69754629D01*
X96244826Y-66754964D02*
X96234297Y-66726639D01*
X96298673Y-66959263D02*
X96293141Y-66929555D01*
X96541397Y-65731816D02*
X96559099Y-65707325D01*
X96156844Y-66562879D02*
X96141628Y-66536770D01*
X95861455Y-66212800D02*
X95837862Y-66193917D01*
X96141628Y-66536770D02*
X96125775Y-66511044D01*
X96318282Y-66380365D02*
X96317169Y-66410563D01*
X96792496Y-69494401D02*
X96768903Y-69475519D01*
X96635752Y-65613923D02*
X96656318Y-65591783D01*
X96917711Y-65382050D02*
X96943819Y-65366834D01*
X97250830Y-69718100D02*
X97221609Y-69710399D01*
X96315316Y-67109345D02*
X96313463Y-67079183D01*
X96679375Y-69394375D02*
X96677424Y-69392424D01*
X97280931Y-65236796D02*
X97310495Y-65230537D01*
X96413821Y-65933219D02*
X96422428Y-65941826D01*
X96056201Y-66412256D02*
X96037319Y-66388663D01*
X95579312Y-66038948D02*
X95551538Y-66027042D01*
X96793196Y-65467477D02*
X96817245Y-65449179D01*
X96577397Y-69279302D02*
X96559100Y-69255253D01*
X96491971Y-69154788D02*
X96476754Y-69128680D01*
X96378942Y-66054559D02*
X96369816Y-66083367D01*
X96507823Y-69180514D02*
X96491971Y-69154788D01*
X97490285Y-65208362D02*
X97520483Y-65207250D01*
X96891984Y-65397903D02*
X96917711Y-65382050D01*
X97192586Y-69701982D02*
X97163779Y-69692856D01*
X96320135Y-68612376D02*
X96318282Y-68582214D01*
X96017863Y-66365540D02*
X95997846Y-66342903D01*
X96313463Y-67079183D02*
X96310871Y-67049076D01*
X96330126Y-68702461D02*
X96326059Y-68672517D01*
X96211170Y-66670806D02*
X96198586Y-66643332D01*
X96635753Y-69348655D02*
X96615735Y-69326017D01*
X96422428Y-69020752D02*
X96410522Y-68992978D01*
X96816545Y-69512699D02*
X96792496Y-69494401D01*
X95997846Y-66342903D02*
X95977279Y-66320763D01*
X96399302Y-68964920D02*
X96388773Y-68936595D01*
X96656320Y-69370795D02*
X96635753Y-69348655D01*
X96399301Y-65997659D02*
X96388772Y-66025984D01*
X97163779Y-69692856D02*
X97135204Y-69683026D01*
X95950984Y-66293944D02*
X95929355Y-66272840D01*
X96316429Y-67139543D02*
X96315316Y-67109345D01*
X96074499Y-66436305D02*
X96056201Y-66412256D01*
X97309795Y-69731341D02*
X97280231Y-69725083D01*
X97370038Y-65220206D02*
X97399981Y-65216139D01*
X95977279Y-66320763D02*
X95956175Y-66299135D01*
X95350128Y-65963236D02*
X95320564Y-65956977D01*
X96723143Y-69436046D02*
X96701003Y-69415479D01*
X96768903Y-69475519D02*
X96745780Y-69456063D01*
X96969592Y-69609615D02*
X96943119Y-69595044D01*
X95231077Y-65942579D02*
X95201043Y-65939248D01*
X96318282Y-68582214D02*
X96317170Y-68552016D01*
X95713348Y-66108491D02*
X95687240Y-66093274D01*
X96388772Y-66025984D02*
X96378942Y-66054559D01*
X95837862Y-66193917D02*
X95813813Y-66175620D01*
X97023572Y-69636786D02*
X96996416Y-69623532D01*
X95764404Y-66140822D02*
X95739074Y-66124343D01*
X97135204Y-69683026D02*
X97106879Y-69672497D01*
X96769603Y-65486360D02*
X96793196Y-65467477D01*
X96293141Y-66929555D02*
X96286883Y-66899991D01*
X96340457Y-68762004D02*
X96334926Y-68732296D01*
X97430016Y-65212808D02*
X97460123Y-65210215D01*
X96334926Y-66230283D02*
X96330125Y-66260118D01*
X96198586Y-66643332D02*
X96185332Y-66616176D01*
X95140774Y-65934802D02*
X95110576Y-65933690D01*
X96448267Y-69075383D02*
X96435012Y-69048226D01*
X97340203Y-65225006D02*
X97370038Y-65220206D01*
X97550000Y-69755000D02*
X99380000Y-69755000D01*
X96596279Y-65659683D02*
X96615734Y-65636561D01*
X96361400Y-68850189D02*
X96353698Y-68820968D01*
X95687240Y-66093274D02*
X95660766Y-66078703D01*
%TD*%
%TA.AperFunction,Conductor*%
%TO.N,GNDPWR*%
G36*
X102984357Y-56701628D02*
G01*
X102992618Y-56703528D01*
X102992619Y-56703528D01*
X102999642Y-56705143D01*
X103008295Y-56703185D01*
X103026606Y-56701744D01*
X103230763Y-56715125D01*
X103239063Y-56716218D01*
X103351502Y-56738583D01*
X103461767Y-56760516D01*
X103469844Y-56762681D01*
X103577352Y-56799175D01*
X103684855Y-56835668D01*
X103692589Y-56838871D01*
X103715696Y-56850266D01*
X103896242Y-56939301D01*
X103903486Y-56943483D01*
X104092284Y-57069634D01*
X104098922Y-57074727D01*
X104269638Y-57224442D01*
X104275558Y-57230362D01*
X104425273Y-57401078D01*
X104430369Y-57407720D01*
X104556515Y-57596511D01*
X104560701Y-57603761D01*
X104661129Y-57807411D01*
X104664332Y-57815145D01*
X104737318Y-58030151D01*
X104739485Y-58038237D01*
X104783782Y-58260937D01*
X104784875Y-58269237D01*
X104798227Y-58472943D01*
X104796736Y-58491469D01*
X104794857Y-58499642D01*
X104798422Y-58515397D01*
X104800000Y-58529522D01*
X104800000Y-70970014D01*
X104798372Y-70984356D01*
X104794857Y-70999642D01*
X104796448Y-71006672D01*
X104796815Y-71008295D01*
X104798256Y-71026606D01*
X104784875Y-71230763D01*
X104783782Y-71239063D01*
X104739485Y-71461763D01*
X104737318Y-71469849D01*
X104664332Y-71684855D01*
X104661129Y-71692589D01*
X104560701Y-71896239D01*
X104556515Y-71903489D01*
X104430369Y-72092280D01*
X104425273Y-72098922D01*
X104275558Y-72269638D01*
X104269638Y-72275558D01*
X104098922Y-72425273D01*
X104092284Y-72430366D01*
X103903489Y-72556515D01*
X103896242Y-72560699D01*
X103791942Y-72612134D01*
X103692589Y-72661129D01*
X103684855Y-72664332D01*
X103577352Y-72700825D01*
X103469844Y-72737319D01*
X103461767Y-72739484D01*
X103351502Y-72761417D01*
X103239063Y-72783782D01*
X103230763Y-72784875D01*
X103155853Y-72789785D01*
X103027054Y-72798227D01*
X103008531Y-72796736D01*
X103000358Y-72794857D01*
X102984824Y-72798372D01*
X102984603Y-72798422D01*
X102970478Y-72800000D01*
X89029986Y-72800000D01*
X89015643Y-72798372D01*
X89007382Y-72796472D01*
X89007381Y-72796472D01*
X89000358Y-72794857D01*
X88992054Y-72796736D01*
X88991705Y-72796815D01*
X88973394Y-72798256D01*
X88769237Y-72784875D01*
X88760937Y-72783782D01*
X88648498Y-72761417D01*
X88538233Y-72739484D01*
X88530156Y-72737319D01*
X88422648Y-72700825D01*
X88315145Y-72664332D01*
X88307411Y-72661129D01*
X88208058Y-72612134D01*
X88103758Y-72560699D01*
X88096511Y-72556515D01*
X87907716Y-72430366D01*
X87901078Y-72425273D01*
X87730362Y-72275558D01*
X87724442Y-72269638D01*
X87574727Y-72098922D01*
X87569631Y-72092280D01*
X87443485Y-71903489D01*
X87439299Y-71896239D01*
X87338871Y-71692589D01*
X87335668Y-71684855D01*
X87262682Y-71469849D01*
X87260515Y-71461763D01*
X87216218Y-71239063D01*
X87215125Y-71230763D01*
X87201773Y-71027057D01*
X87203264Y-71008531D01*
X87205143Y-71000358D01*
X87201578Y-70984603D01*
X87200000Y-70970478D01*
X87200000Y-69212457D01*
X89505000Y-69212457D01*
X89509316Y-69253782D01*
X89514781Y-69279660D01*
X89523297Y-69308820D01*
X89525955Y-69312837D01*
X89536697Y-69329070D01*
X89572415Y-69383049D01*
X89607858Y-69416860D01*
X89673747Y-69458674D01*
X89676682Y-69459809D01*
X89676687Y-69459812D01*
X89704269Y-69470482D01*
X89713118Y-69473905D01*
X89721291Y-69477749D01*
X89804141Y-69524148D01*
X89921044Y-69589617D01*
X89928600Y-69594581D01*
X90110578Y-69733462D01*
X90117359Y-69739440D01*
X90277953Y-69902577D01*
X90283824Y-69909451D01*
X90389853Y-70053000D01*
X90419834Y-70093591D01*
X90424677Y-70101222D01*
X90511959Y-70262983D01*
X90533386Y-70302695D01*
X90537105Y-70310932D01*
X90608941Y-70505654D01*
X90608942Y-70505656D01*
X90611422Y-70512378D01*
X90630615Y-70550979D01*
X90645404Y-70574082D01*
X90664720Y-70599525D01*
X90737312Y-70651031D01*
X90740635Y-70652407D01*
X90740636Y-70652408D01*
X90741320Y-70652691D01*
X90782567Y-70669776D01*
X90785654Y-70670390D01*
X90785657Y-70670391D01*
X90856015Y-70684386D01*
X90856017Y-70684386D01*
X90859103Y-70685000D01*
X101140132Y-70685000D01*
X101193660Y-70677704D01*
X101215903Y-70671526D01*
X101225003Y-70668998D01*
X101225007Y-70668997D01*
X101226669Y-70668535D01*
X101266526Y-70652691D01*
X101270876Y-70648951D01*
X101331287Y-70597003D01*
X101334014Y-70594658D01*
X101349212Y-70574082D01*
X101361250Y-70557785D01*
X101361251Y-70557783D01*
X101363117Y-70555257D01*
X101386463Y-70505656D01*
X101395004Y-70487509D01*
X101395005Y-70487507D01*
X101396339Y-70484672D01*
X101397025Y-70481912D01*
X101397032Y-70481882D01*
X101397094Y-70481632D01*
X101398150Y-70478663D01*
X101398215Y-70478686D01*
X101399357Y-70475171D01*
X101470611Y-70299252D01*
X101485301Y-70262983D01*
X101489279Y-70254864D01*
X101578995Y-70100409D01*
X101579006Y-70100392D01*
X101604260Y-70056915D01*
X101609341Y-70049438D01*
X101751059Y-69869668D01*
X101757143Y-69862981D01*
X101834556Y-69789133D01*
X101922782Y-69704969D01*
X101929747Y-69699207D01*
X102116011Y-69566100D01*
X102123720Y-69561376D01*
X102300475Y-69469560D01*
X102343449Y-69447237D01*
X102343518Y-69447369D01*
X102345815Y-69445584D01*
X102362095Y-69437727D01*
X102363707Y-69436949D01*
X102387755Y-69421820D01*
X102414525Y-69401662D01*
X102425971Y-69385530D01*
X102463951Y-69332002D01*
X102463952Y-69332000D01*
X102466031Y-69329070D01*
X102484776Y-69283815D01*
X102485603Y-69279660D01*
X102499386Y-69210367D01*
X102499386Y-69210365D01*
X102500000Y-69207279D01*
X102500000Y-61928598D01*
X102499686Y-61917396D01*
X102499284Y-61910230D01*
X102498341Y-61899040D01*
X102482000Y-61754005D01*
X102478240Y-61731880D01*
X102475050Y-61717908D01*
X102468843Y-61696369D01*
X102421836Y-61562032D01*
X102413254Y-61541312D01*
X102407036Y-61528400D01*
X102396187Y-61508770D01*
X102320465Y-61388259D01*
X102307491Y-61369973D01*
X102298556Y-61358768D01*
X102283606Y-61342039D01*
X102182961Y-61241394D01*
X102166232Y-61226444D01*
X102155027Y-61217509D01*
X102144694Y-61210178D01*
X102137466Y-61205049D01*
X102137457Y-61205043D01*
X102136741Y-61204535D01*
X102016230Y-61128813D01*
X101996600Y-61117964D01*
X101983688Y-61111746D01*
X101962968Y-61103164D01*
X101828631Y-61056157D01*
X101825621Y-61055290D01*
X101807940Y-61050194D01*
X101807924Y-61050190D01*
X101807095Y-61049951D01*
X101803901Y-61049222D01*
X101794015Y-61046964D01*
X101794000Y-61046961D01*
X101793124Y-61046761D01*
X101792239Y-61046611D01*
X101792226Y-61046608D01*
X101771873Y-61043149D01*
X101771871Y-61043149D01*
X101770996Y-61043000D01*
X101770126Y-61042902D01*
X101770119Y-61042901D01*
X101720084Y-61037264D01*
X101625960Y-61026659D01*
X101625541Y-61026624D01*
X101625534Y-61026623D01*
X101623808Y-61026478D01*
X101614770Y-61025716D01*
X101612988Y-61025616D01*
X101608022Y-61025337D01*
X101607992Y-61025336D01*
X101607604Y-61025314D01*
X101596402Y-61025000D01*
X90408598Y-61025000D01*
X90397396Y-61025314D01*
X90397008Y-61025336D01*
X90396978Y-61025337D01*
X90392012Y-61025616D01*
X90390230Y-61025716D01*
X90381192Y-61026478D01*
X90379466Y-61026623D01*
X90379459Y-61026624D01*
X90379040Y-61026659D01*
X90284916Y-61037264D01*
X90234881Y-61042901D01*
X90234874Y-61042902D01*
X90234004Y-61043000D01*
X90233129Y-61043149D01*
X90233127Y-61043149D01*
X90212774Y-61046608D01*
X90212761Y-61046611D01*
X90211876Y-61046761D01*
X90211000Y-61046961D01*
X90210985Y-61046964D01*
X90201099Y-61049222D01*
X90197905Y-61049951D01*
X90197076Y-61050190D01*
X90197060Y-61050194D01*
X90179379Y-61055290D01*
X90176369Y-61056157D01*
X90042032Y-61103164D01*
X90021312Y-61111746D01*
X90008400Y-61117964D01*
X89988770Y-61128813D01*
X89868259Y-61204535D01*
X89867543Y-61205043D01*
X89867534Y-61205049D01*
X89860306Y-61210178D01*
X89849973Y-61217509D01*
X89838768Y-61226444D01*
X89822039Y-61241394D01*
X89721394Y-61342039D01*
X89706444Y-61358768D01*
X89697509Y-61369973D01*
X89684535Y-61388259D01*
X89608813Y-61508770D01*
X89597964Y-61528400D01*
X89591746Y-61541312D01*
X89583164Y-61562032D01*
X89536157Y-61696369D01*
X89529950Y-61717908D01*
X89526760Y-61731880D01*
X89523000Y-61754005D01*
X89506659Y-61899040D01*
X89505716Y-61910230D01*
X89505314Y-61917396D01*
X89505000Y-61928598D01*
X89505000Y-69212457D01*
X87200000Y-69212457D01*
X87200000Y-58529986D01*
X87201628Y-58515643D01*
X87203528Y-58507382D01*
X87203528Y-58507381D01*
X87205143Y-58500358D01*
X87203185Y-58491705D01*
X87201744Y-58473394D01*
X87215125Y-58269237D01*
X87216218Y-58260937D01*
X87260515Y-58038237D01*
X87262682Y-58030151D01*
X87335668Y-57815145D01*
X87338871Y-57807411D01*
X87439299Y-57603761D01*
X87443485Y-57596511D01*
X87569631Y-57407720D01*
X87574727Y-57401078D01*
X87724442Y-57230362D01*
X87730362Y-57224442D01*
X87901078Y-57074727D01*
X87907716Y-57069634D01*
X88096514Y-56943483D01*
X88103758Y-56939301D01*
X88284304Y-56850266D01*
X88307411Y-56838871D01*
X88315145Y-56835668D01*
X88422648Y-56799175D01*
X88530156Y-56762681D01*
X88538233Y-56760516D01*
X88648498Y-56738583D01*
X88760937Y-56716218D01*
X88769237Y-56715125D01*
X88844147Y-56710215D01*
X88972946Y-56701773D01*
X88991469Y-56703264D01*
X88999642Y-56705143D01*
X89015397Y-56701578D01*
X89029522Y-56700000D01*
X102970014Y-56700000D01*
X102984357Y-56701628D01*
G37*
%TD.AperFunction*%
%TA.AperFunction,Conductor*%
G36*
X100305865Y-62269491D02*
G01*
X100305879Y-62269491D01*
X100308581Y-62269505D01*
X100352923Y-62269737D01*
X100368179Y-62271664D01*
X100465949Y-62296222D01*
X100480306Y-62301733D01*
X100536962Y-62331731D01*
X100569403Y-62348908D01*
X100582029Y-62357684D01*
X100657302Y-62424749D01*
X100667472Y-62436284D01*
X100691385Y-62471078D01*
X100691386Y-62471080D01*
X100724570Y-62519363D01*
X100731694Y-62532990D01*
X100759167Y-62605695D01*
X100767331Y-62627301D01*
X100770997Y-62642229D01*
X100780036Y-62716924D01*
X100780500Y-62724613D01*
X100780500Y-63877548D01*
X100779953Y-63885901D01*
X100769843Y-63962701D01*
X100766019Y-63977592D01*
X100731155Y-64067013D01*
X100729399Y-64071518D01*
X100722133Y-64085070D01*
X100664167Y-64167547D01*
X100653876Y-64178976D01*
X100577903Y-64245250D01*
X100565185Y-64253892D01*
X100479213Y-64298267D01*
X100475607Y-64300128D01*
X100461195Y-64305488D01*
X100429245Y-64313159D01*
X100363163Y-64329023D01*
X100347889Y-64330790D01*
X100294135Y-64330509D01*
X100294121Y-64330509D01*
X100291419Y-64330495D01*
X100247077Y-64330263D01*
X100231821Y-64328336D01*
X100134051Y-64303778D01*
X100119694Y-64298267D01*
X100063038Y-64268269D01*
X100063037Y-64268268D01*
X100030593Y-64251089D01*
X100017967Y-64242314D01*
X99942698Y-64175252D01*
X99932529Y-64163717D01*
X99886647Y-64096959D01*
X99875432Y-64080641D01*
X99868308Y-64067013D01*
X99832671Y-63972702D01*
X99829003Y-63957769D01*
X99819964Y-63883075D01*
X99819500Y-63875386D01*
X99819500Y-62722449D01*
X99820048Y-62714095D01*
X99821758Y-62701107D01*
X99824518Y-62701470D01*
X99824519Y-62701467D01*
X99821758Y-62701103D01*
X99830158Y-62637296D01*
X99833981Y-62622409D01*
X99870602Y-62528480D01*
X99877867Y-62514930D01*
X99908686Y-62471080D01*
X99935833Y-62432453D01*
X99946124Y-62421024D01*
X100022097Y-62354750D01*
X100034814Y-62346108D01*
X100073851Y-62325959D01*
X100124394Y-62299872D01*
X100138805Y-62294512D01*
X100170755Y-62286841D01*
X100236837Y-62270977D01*
X100252111Y-62269210D01*
X100305865Y-62269491D01*
G37*
%TD.AperFunction*%
%TA.AperFunction,Conductor*%
G36*
X91705865Y-62269491D02*
G01*
X91705879Y-62269491D01*
X91708581Y-62269505D01*
X91752923Y-62269737D01*
X91768179Y-62271664D01*
X91865949Y-62296222D01*
X91880306Y-62301733D01*
X91936962Y-62331731D01*
X91969403Y-62348908D01*
X91982029Y-62357684D01*
X92057302Y-62424749D01*
X92067472Y-62436284D01*
X92091385Y-62471078D01*
X92091386Y-62471080D01*
X92124570Y-62519363D01*
X92131694Y-62532990D01*
X92159167Y-62605695D01*
X92167331Y-62627301D01*
X92170997Y-62642229D01*
X92180036Y-62716924D01*
X92180500Y-62724613D01*
X92180500Y-63877548D01*
X92179953Y-63885901D01*
X92169843Y-63962701D01*
X92166019Y-63977592D01*
X92131155Y-64067013D01*
X92129399Y-64071518D01*
X92122133Y-64085070D01*
X92064167Y-64167547D01*
X92053876Y-64178976D01*
X91977903Y-64245250D01*
X91965185Y-64253892D01*
X91879213Y-64298267D01*
X91875607Y-64300128D01*
X91861195Y-64305488D01*
X91829245Y-64313159D01*
X91763163Y-64329023D01*
X91747889Y-64330790D01*
X91694135Y-64330509D01*
X91694121Y-64330509D01*
X91691419Y-64330495D01*
X91647077Y-64330263D01*
X91631821Y-64328336D01*
X91534051Y-64303778D01*
X91519694Y-64298267D01*
X91463038Y-64268269D01*
X91463037Y-64268268D01*
X91430593Y-64251089D01*
X91417967Y-64242314D01*
X91342698Y-64175252D01*
X91332529Y-64163717D01*
X91286647Y-64096959D01*
X91275432Y-64080641D01*
X91268308Y-64067013D01*
X91232671Y-63972702D01*
X91229003Y-63957769D01*
X91219964Y-63883075D01*
X91219500Y-63875386D01*
X91219500Y-62722449D01*
X91220048Y-62714095D01*
X91221758Y-62701107D01*
X91224518Y-62701470D01*
X91224519Y-62701467D01*
X91221758Y-62701103D01*
X91230158Y-62637296D01*
X91233981Y-62622409D01*
X91270602Y-62528480D01*
X91277867Y-62514930D01*
X91308686Y-62471080D01*
X91335833Y-62432453D01*
X91346124Y-62421024D01*
X91422097Y-62354750D01*
X91434814Y-62346108D01*
X91473851Y-62325959D01*
X91524394Y-62299872D01*
X91538805Y-62294512D01*
X91570755Y-62286841D01*
X91636837Y-62270977D01*
X91652111Y-62269210D01*
X91705865Y-62269491D01*
G37*
%TD.AperFunction*%
%TD*%
%TA.AperFunction,Conductor*%
%TO.N,GND*%
G36*
X101603568Y-61225402D02*
G01*
X101748604Y-61241743D01*
X101762575Y-61244933D01*
X101896912Y-61291940D01*
X101909824Y-61298158D01*
X102030335Y-61373880D01*
X102041540Y-61382815D01*
X102142185Y-61483460D01*
X102151120Y-61494665D01*
X102226842Y-61615176D01*
X102233060Y-61628088D01*
X102280067Y-61762425D01*
X102283257Y-61776397D01*
X102299598Y-61921432D01*
X102300000Y-61928598D01*
X102300000Y-69207279D01*
X102281255Y-69252534D01*
X102257207Y-69267663D01*
X102253388Y-69269004D01*
X102253376Y-69269009D01*
X102251255Y-69269754D01*
X102208281Y-69292077D01*
X102016936Y-69391472D01*
X102016931Y-69391475D01*
X102014931Y-69392514D01*
X101798262Y-69547348D01*
X101796626Y-69548909D01*
X101796622Y-69548912D01*
X101696505Y-69644420D01*
X101605571Y-69731167D01*
X101604163Y-69732953D01*
X101443937Y-69936199D01*
X101440702Y-69940302D01*
X101406057Y-69999948D01*
X101308080Y-70168626D01*
X101308077Y-70168632D01*
X101306945Y-70170581D01*
X101306099Y-70172671D01*
X101306096Y-70172676D01*
X101285239Y-70224170D01*
X101206969Y-70417409D01*
X101202930Y-70433670D01*
X101202244Y-70436430D01*
X101173141Y-70475831D01*
X101140132Y-70485000D01*
X90859103Y-70485000D01*
X90813848Y-70466255D01*
X90799059Y-70443152D01*
X90796579Y-70436430D01*
X90718272Y-70224170D01*
X90591815Y-69989804D01*
X90587429Y-69983865D01*
X90434941Y-69777414D01*
X90433596Y-69775593D01*
X90246774Y-69585813D01*
X90244311Y-69583933D01*
X90036881Y-69425627D01*
X90036878Y-69425625D01*
X90035075Y-69424249D01*
X90026403Y-69419392D01*
X89901865Y-69349648D01*
X89802723Y-69294126D01*
X89800612Y-69293309D01*
X89800607Y-69293307D01*
X89745908Y-69272146D01*
X89710465Y-69238335D01*
X89705000Y-69212457D01*
X89705000Y-65927905D01*
X92291909Y-65927905D01*
X92296603Y-65963793D01*
X92298024Y-65974662D01*
X92298403Y-65978434D01*
X92301926Y-66028190D01*
X92303654Y-66032657D01*
X92303832Y-66033118D01*
X92305921Y-66041311D01*
X92306081Y-66041266D01*
X92307308Y-66045660D01*
X92307899Y-66050179D01*
X92321663Y-66081459D01*
X92328298Y-66096539D01*
X92329407Y-66099224D01*
X92346906Y-66144458D01*
X92346908Y-66144462D01*
X92348634Y-66148923D01*
X92351595Y-66152679D01*
X92352024Y-66153431D01*
X92354773Y-66157346D01*
X92355728Y-66158880D01*
X92357563Y-66163051D01*
X92360496Y-66166540D01*
X92392453Y-66204558D01*
X92393720Y-66206115D01*
X92428778Y-66250585D01*
X92432712Y-66253304D01*
X92433306Y-66253862D01*
X92435056Y-66255240D01*
X92436911Y-66257447D01*
X92440706Y-66259974D01*
X92440707Y-66259974D01*
X92485143Y-66289554D01*
X92486066Y-66290181D01*
X92531329Y-66321463D01*
X92531331Y-66321464D01*
X92535271Y-66324187D01*
X92538894Y-66325333D01*
X92539563Y-66325778D01*
X92600391Y-66344782D01*
X92658698Y-66363222D01*
X92662335Y-66363508D01*
X92662339Y-66363509D01*
X92663101Y-66363569D01*
X92665013Y-66363719D01*
X92720415Y-66363719D01*
X92721588Y-66363730D01*
X92780562Y-66364811D01*
X92783535Y-66364000D01*
X92788068Y-66363719D01*
X95069098Y-66363719D01*
X95069882Y-66363724D01*
X95099209Y-66364083D01*
X95100761Y-66364121D01*
X95111540Y-66364518D01*
X95118879Y-66364788D01*
X95120447Y-66364865D01*
X95128539Y-66365362D01*
X95138505Y-66365974D01*
X95140026Y-66366087D01*
X95158070Y-66367641D01*
X95159596Y-66367791D01*
X95173590Y-66369343D01*
X95177591Y-66369787D01*
X95179144Y-66369979D01*
X95197091Y-66372416D01*
X95198606Y-66372640D01*
X95216462Y-66375512D01*
X95217993Y-66375778D01*
X95235839Y-66379101D01*
X95237371Y-66379406D01*
X95249789Y-66382036D01*
X95254987Y-66383136D01*
X95256516Y-66383479D01*
X95274184Y-66387674D01*
X95275655Y-66388043D01*
X95293197Y-66392666D01*
X95294694Y-66393081D01*
X95312031Y-66398109D01*
X95313531Y-66398564D01*
X95319435Y-66400434D01*
X95330848Y-66404050D01*
X95332247Y-66404512D01*
X95346049Y-66409260D01*
X95349351Y-66410396D01*
X95350832Y-66410925D01*
X95367805Y-66417235D01*
X95369243Y-66417790D01*
X95386068Y-66424518D01*
X95387486Y-66425105D01*
X95404141Y-66432244D01*
X95405536Y-66432862D01*
X95422030Y-66440417D01*
X95423394Y-66441063D01*
X95439671Y-66449008D01*
X95441042Y-66449697D01*
X95455344Y-66457117D01*
X95457114Y-66458035D01*
X95458502Y-66458777D01*
X95474348Y-66467499D01*
X95475713Y-66468272D01*
X95491329Y-66477373D01*
X95492678Y-66478182D01*
X95508077Y-66487671D01*
X95509398Y-66488507D01*
X95524573Y-66498380D01*
X95525814Y-66499209D01*
X95540781Y-66509478D01*
X95542044Y-66510368D01*
X95556716Y-66520973D01*
X95557977Y-66521908D01*
X95572376Y-66532863D01*
X95573616Y-66533831D01*
X95587728Y-66545126D01*
X95588913Y-66546098D01*
X95602783Y-66557768D01*
X95603904Y-66558734D01*
X95617548Y-66570799D01*
X95618615Y-66571767D01*
X95631985Y-66584188D01*
X95633019Y-66585173D01*
X95647500Y-66599301D01*
X95648147Y-66599933D01*
X95648706Y-66600485D01*
X95649627Y-66601406D01*
X95650179Y-66601965D01*
X95664914Y-66617066D01*
X95665995Y-66618202D01*
X95678324Y-66631473D01*
X95679362Y-66632618D01*
X95691331Y-66646154D01*
X95692356Y-66647342D01*
X95704003Y-66661184D01*
X95705000Y-66662399D01*
X95716298Y-66676516D01*
X95717262Y-66677751D01*
X95728223Y-66692156D01*
X95729162Y-66693423D01*
X95739757Y-66708083D01*
X95740660Y-66709365D01*
X95750863Y-66724237D01*
X95751734Y-66725540D01*
X95761630Y-66740750D01*
X95762441Y-66742031D01*
X95771958Y-66757474D01*
X95772725Y-66758754D01*
X95781825Y-66774368D01*
X95782599Y-66775734D01*
X95791350Y-66791634D01*
X95792089Y-66793017D01*
X95800427Y-66809088D01*
X95801100Y-66810426D01*
X95809046Y-66826705D01*
X95809702Y-66828090D01*
X95815912Y-66841648D01*
X95817241Y-66844550D01*
X95817877Y-66845985D01*
X95825000Y-66862601D01*
X95825602Y-66864054D01*
X95832322Y-66880859D01*
X95832885Y-66882320D01*
X95839200Y-66899306D01*
X95839731Y-66900790D01*
X95845584Y-66917805D01*
X95846077Y-66919296D01*
X95851564Y-66936618D01*
X95852010Y-66938085D01*
X95857050Y-66955463D01*
X95857452Y-66956919D01*
X95862070Y-66974443D01*
X95862451Y-66975964D01*
X95866631Y-66993565D01*
X95866976Y-66995100D01*
X95870722Y-67012798D01*
X95871026Y-67014327D01*
X95874340Y-67032120D01*
X95874602Y-67033629D01*
X95877474Y-67051481D01*
X95877704Y-67053035D01*
X95880141Y-67070981D01*
X95880333Y-67072535D01*
X95882329Y-67090528D01*
X95882477Y-67092031D01*
X95883601Y-67105090D01*
X95884029Y-67110061D01*
X95884143Y-67111602D01*
X95884268Y-67113626D01*
X95885253Y-67129665D01*
X95885330Y-67131224D01*
X95885999Y-67149384D01*
X95886037Y-67150955D01*
X95886295Y-67171966D01*
X95886300Y-67172752D01*
X95886300Y-68453825D01*
X95885837Y-68458954D01*
X95885995Y-68458964D01*
X95885576Y-68465285D01*
X95885591Y-68466536D01*
X95885591Y-68466548D01*
X95885887Y-68490694D01*
X95885334Y-68498397D01*
X95884952Y-68499780D01*
X95884688Y-68506109D01*
X95884734Y-68507359D01*
X95884734Y-68507366D01*
X95885623Y-68531499D01*
X95885259Y-68539217D01*
X95884912Y-68540604D01*
X95884803Y-68546937D01*
X95884879Y-68548172D01*
X95886361Y-68572303D01*
X95886187Y-68580023D01*
X95885874Y-68581419D01*
X95885921Y-68587753D01*
X95887000Y-68600277D01*
X95888101Y-68613067D01*
X95888116Y-68620789D01*
X95887838Y-68622192D01*
X95888040Y-68628523D01*
X95888178Y-68629765D01*
X95890841Y-68653777D01*
X95891045Y-68661495D01*
X95890802Y-68662902D01*
X95891160Y-68669227D01*
X95891330Y-68670478D01*
X95894579Y-68694404D01*
X95894972Y-68702111D01*
X95894764Y-68703522D01*
X95895277Y-68709836D01*
X95895474Y-68711061D01*
X95895476Y-68711077D01*
X95899313Y-68734928D01*
X95899896Y-68742626D01*
X95899722Y-68744046D01*
X95900389Y-68750345D01*
X95900617Y-68751571D01*
X95900619Y-68751583D01*
X95905039Y-68775324D01*
X95905812Y-68783013D01*
X95905672Y-68784437D01*
X95906494Y-68790718D01*
X95906753Y-68791941D01*
X95906755Y-68791953D01*
X95911756Y-68815573D01*
X95912717Y-68823236D01*
X95912612Y-68824660D01*
X95913588Y-68830919D01*
X95919461Y-68855648D01*
X95920608Y-68863278D01*
X95920538Y-68864707D01*
X95921667Y-68870940D01*
X95921986Y-68872150D01*
X95921987Y-68872155D01*
X95928142Y-68895507D01*
X95929476Y-68903109D01*
X95929442Y-68904535D01*
X95930724Y-68910739D01*
X95931071Y-68911934D01*
X95931074Y-68911948D01*
X95937801Y-68935145D01*
X95939323Y-68942718D01*
X95939324Y-68944159D01*
X95940758Y-68950329D01*
X95941139Y-68951531D01*
X95948431Y-68974547D01*
X95950136Y-68982070D01*
X95950172Y-68983497D01*
X95951084Y-68987027D01*
X95951085Y-68987032D01*
X95951280Y-68987785D01*
X95951757Y-68989630D01*
X95952162Y-68990807D01*
X95960023Y-69013660D01*
X95961915Y-69021153D01*
X95961986Y-69022582D01*
X95963720Y-69028674D01*
X95964160Y-69029857D01*
X95964163Y-69029867D01*
X95972572Y-69052488D01*
X95974645Y-69059923D01*
X95974751Y-69061343D01*
X95976634Y-69067391D01*
X95977097Y-69068550D01*
X95977101Y-69068560D01*
X95986069Y-69090987D01*
X95988327Y-69098377D01*
X95988468Y-69099802D01*
X95990499Y-69105802D01*
X95990987Y-69106941D01*
X95990993Y-69106956D01*
X96000510Y-69129155D01*
X96002947Y-69136483D01*
X96003122Y-69137898D01*
X96005300Y-69143846D01*
X96005819Y-69144979D01*
X96005828Y-69145001D01*
X96015880Y-69166947D01*
X96018498Y-69174219D01*
X96018709Y-69175633D01*
X96021032Y-69181526D01*
X96021584Y-69182657D01*
X96032177Y-69204360D01*
X96034967Y-69211552D01*
X96035211Y-69212954D01*
X96037678Y-69218788D01*
X96048337Y-69239333D01*
X96049380Y-69241344D01*
X96052349Y-69248472D01*
X96052630Y-69249879D01*
X96055240Y-69255651D01*
X96067205Y-69277390D01*
X96067491Y-69277910D01*
X96070638Y-69284973D01*
X96070953Y-69286371D01*
X96072535Y-69289654D01*
X96072536Y-69289656D01*
X96072696Y-69289987D01*
X96073703Y-69292077D01*
X96074326Y-69293147D01*
X96074333Y-69293159D01*
X96086499Y-69314033D01*
X96089811Y-69320999D01*
X96090158Y-69322382D01*
X96091822Y-69325629D01*
X96091823Y-69325630D01*
X96092064Y-69326099D01*
X96093048Y-69328019D01*
X96093710Y-69329093D01*
X96093716Y-69329104D01*
X96106375Y-69349648D01*
X96109862Y-69356542D01*
X96110244Y-69357918D01*
X96113271Y-69363482D01*
X96113949Y-69364524D01*
X96127130Y-69384785D01*
X96130783Y-69391587D01*
X96131198Y-69392954D01*
X96134361Y-69398443D01*
X96135078Y-69399488D01*
X96148734Y-69419392D01*
X96152553Y-69426101D01*
X96153002Y-69427459D01*
X96156299Y-69432868D01*
X96157028Y-69433876D01*
X96171181Y-69453457D01*
X96175164Y-69460074D01*
X96175645Y-69461417D01*
X96179074Y-69466744D01*
X96190653Y-69481962D01*
X96194456Y-69486961D01*
X96198606Y-69493486D01*
X96199123Y-69494825D01*
X96202681Y-69500066D01*
X96203461Y-69501040D01*
X96218557Y-69519902D01*
X96222857Y-69526308D01*
X96223404Y-69527628D01*
X96227090Y-69532780D01*
X96232573Y-69539296D01*
X96243452Y-69552226D01*
X96247912Y-69558532D01*
X96248493Y-69559842D01*
X96252304Y-69564902D01*
X96269137Y-69583938D01*
X96273743Y-69590124D01*
X96274356Y-69591417D01*
X96276620Y-69594275D01*
X96276623Y-69594279D01*
X96277494Y-69595378D01*
X96278290Y-69596382D01*
X96295586Y-69615001D01*
X96300344Y-69621074D01*
X96300987Y-69622349D01*
X96305041Y-69627216D01*
X96315022Y-69637445D01*
X96321828Y-69644420D01*
X96325087Y-69648427D01*
X96325208Y-69648324D01*
X96329322Y-69653141D01*
X96329261Y-69653194D01*
X96330234Y-69654407D01*
X96330323Y-69654574D01*
X96334496Y-69659340D01*
X96335400Y-69660222D01*
X96352680Y-69677084D01*
X96357737Y-69682923D01*
X96358444Y-69684170D01*
X96362733Y-69688832D01*
X96363648Y-69689682D01*
X96363652Y-69689686D01*
X96381348Y-69706125D01*
X96386544Y-69711835D01*
X96387278Y-69713058D01*
X96391680Y-69717614D01*
X96392610Y-69718437D01*
X96392618Y-69718444D01*
X96410715Y-69734447D01*
X96416053Y-69740031D01*
X96416820Y-69741241D01*
X96421332Y-69745687D01*
X96422278Y-69746483D01*
X96422289Y-69746493D01*
X96440778Y-69762050D01*
X96446250Y-69767500D01*
X96447043Y-69768686D01*
X96449698Y-69771177D01*
X96449700Y-69771179D01*
X96450763Y-69772176D01*
X96451663Y-69773020D01*
X96464708Y-69783460D01*
X96471496Y-69788893D01*
X96477099Y-69794207D01*
X96477920Y-69795371D01*
X96482645Y-69799591D01*
X96483640Y-69800348D01*
X96483652Y-69800358D01*
X96502871Y-69814981D01*
X96508604Y-69820157D01*
X96509454Y-69821302D01*
X96514281Y-69825404D01*
X96534875Y-69840290D01*
X96540734Y-69845324D01*
X96541616Y-69846453D01*
X96544450Y-69848744D01*
X96544452Y-69848746D01*
X96545350Y-69849472D01*
X96546542Y-69850435D01*
X96547563Y-69851135D01*
X96547565Y-69851137D01*
X96567496Y-69864811D01*
X96573467Y-69869692D01*
X96574374Y-69870795D01*
X96579397Y-69874655D01*
X96580455Y-69875343D01*
X96600687Y-69888506D01*
X96606785Y-69893246D01*
X96607716Y-69894324D01*
X96610655Y-69896471D01*
X96610657Y-69896472D01*
X96611829Y-69897328D01*
X96611837Y-69897333D01*
X96612832Y-69898060D01*
X96613889Y-69898712D01*
X96613893Y-69898714D01*
X96634467Y-69911392D01*
X96640685Y-69915984D01*
X96641653Y-69917051D01*
X96646859Y-69920660D01*
X96668818Y-69933458D01*
X96675125Y-69937881D01*
X96676109Y-69938914D01*
X96679160Y-69940920D01*
X96680354Y-69941706D01*
X96680363Y-69941712D01*
X96681401Y-69942394D01*
X96682498Y-69942998D01*
X96682500Y-69942999D01*
X96703659Y-69954645D01*
X96710096Y-69958928D01*
X96711108Y-69959939D01*
X96716484Y-69963288D01*
X96717604Y-69963869D01*
X96739035Y-69974988D01*
X96745568Y-69979107D01*
X96746605Y-69980093D01*
X96749745Y-69981944D01*
X96749747Y-69981945D01*
X96750213Y-69982220D01*
X96752062Y-69983309D01*
X96753200Y-69983864D01*
X96753201Y-69983865D01*
X96774898Y-69994455D01*
X96781523Y-69998407D01*
X96782586Y-69999370D01*
X96788121Y-70002451D01*
X96789254Y-70002970D01*
X96789262Y-70002974D01*
X96811219Y-70013031D01*
X96817952Y-70016828D01*
X96819033Y-70017760D01*
X96822255Y-70019452D01*
X96822258Y-70019454D01*
X96823527Y-70020120D01*
X96824641Y-70020705D01*
X96825794Y-70021199D01*
X96825804Y-70021204D01*
X96847998Y-70030718D01*
X96854811Y-70034343D01*
X96855912Y-70035245D01*
X96859176Y-70036858D01*
X96859178Y-70036859D01*
X96860004Y-70037267D01*
X96861591Y-70038051D01*
X96862762Y-70038519D01*
X96862768Y-70038522D01*
X96885183Y-70047486D01*
X96892087Y-70050944D01*
X96893216Y-70051824D01*
X96898962Y-70054490D01*
X96900152Y-70054932D01*
X96900156Y-70054934D01*
X96922777Y-70063342D01*
X96929770Y-70066633D01*
X96930923Y-70067487D01*
X96934271Y-70068942D01*
X96934272Y-70068942D01*
X96935576Y-70069509D01*
X96935590Y-70069514D01*
X96936733Y-70070011D01*
X96957102Y-70077018D01*
X96960756Y-70078275D01*
X96967824Y-70081392D01*
X96968990Y-70082212D01*
X96974860Y-70084593D01*
X96998298Y-70092018D01*
X96999078Y-70092265D01*
X97006222Y-70095208D01*
X97007405Y-70095998D01*
X97013331Y-70098235D01*
X97018841Y-70099833D01*
X97037742Y-70105315D01*
X97044956Y-70108081D01*
X97046169Y-70108848D01*
X97052149Y-70110938D01*
X97076708Y-70117410D01*
X97083984Y-70119998D01*
X97085202Y-70120727D01*
X97091231Y-70122670D01*
X97101794Y-70125179D01*
X97115954Y-70128542D01*
X97123303Y-70130954D01*
X97124553Y-70131661D01*
X97130628Y-70133455D01*
X97148597Y-70137258D01*
X97155483Y-70138716D01*
X97162872Y-70140942D01*
X97164121Y-70141609D01*
X97170238Y-70143254D01*
X97171462Y-70143482D01*
X97171480Y-70143486D01*
X97195222Y-70147906D01*
X97202672Y-70149952D01*
X97203959Y-70150599D01*
X97208545Y-70151711D01*
X97208898Y-70151797D01*
X97208902Y-70151798D01*
X97210115Y-70152092D01*
X97211343Y-70152290D01*
X97211365Y-70152294D01*
X97235200Y-70156129D01*
X97242693Y-70157990D01*
X97243978Y-70158597D01*
X97248259Y-70159526D01*
X97248933Y-70159672D01*
X97248936Y-70159673D01*
X97250169Y-70159940D01*
X97251409Y-70160108D01*
X97251418Y-70160110D01*
X97264649Y-70161907D01*
X97275352Y-70163361D01*
X97282888Y-70165038D01*
X97284192Y-70165615D01*
X97290413Y-70166806D01*
X97291668Y-70166945D01*
X97291680Y-70166947D01*
X97315670Y-70169607D01*
X97323256Y-70171100D01*
X97324577Y-70171647D01*
X97328171Y-70172243D01*
X97328173Y-70172244D01*
X97328744Y-70172339D01*
X97330826Y-70172684D01*
X97341597Y-70173611D01*
X97356136Y-70174863D01*
X97363748Y-70176168D01*
X97365078Y-70176681D01*
X97371350Y-70177564D01*
X97372597Y-70177641D01*
X97372601Y-70177641D01*
X97396710Y-70179122D01*
X97404345Y-70180239D01*
X97405687Y-70180719D01*
X97409311Y-70181139D01*
X97409312Y-70181139D01*
X97410728Y-70181303D01*
X97411980Y-70181448D01*
X97429695Y-70182101D01*
X97437373Y-70182384D01*
X97445048Y-70183316D01*
X97446403Y-70183763D01*
X97452711Y-70184338D01*
X97476747Y-70184633D01*
X97481882Y-70185161D01*
X97481894Y-70185003D01*
X97488209Y-70185500D01*
X97520735Y-70185500D01*
X97523091Y-70185543D01*
X97536251Y-70186028D01*
X97538625Y-70185760D01*
X97541006Y-70185670D01*
X97541007Y-70185698D01*
X97544527Y-70185500D01*
X97546956Y-70185500D01*
X97547742Y-70185505D01*
X97574668Y-70185836D01*
X97574673Y-70185836D01*
X97577058Y-70185865D01*
X97579024Y-70185594D01*
X97582045Y-70185500D01*
X99373611Y-70185500D01*
X99374784Y-70185511D01*
X99433758Y-70186592D01*
X99465390Y-70177968D01*
X99472709Y-70176425D01*
X99503287Y-70171828D01*
X99503289Y-70171827D01*
X99508014Y-70171117D01*
X99525748Y-70162601D01*
X99536607Y-70158552D01*
X99552730Y-70154156D01*
X99556613Y-70151772D01*
X99556617Y-70151770D01*
X99583641Y-70135177D01*
X99589411Y-70132030D01*
X99624710Y-70115080D01*
X99636600Y-70104089D01*
X99646545Y-70096554D01*
X99657817Y-70089633D01*
X99684501Y-70060154D01*
X99688478Y-70056136D01*
X99719771Y-70027208D01*
X99723259Y-70021204D01*
X99726153Y-70016220D01*
X99734043Y-70005420D01*
X99740571Y-69998208D01*
X99745525Y-69987984D01*
X99759416Y-69959312D01*
X99761670Y-69955073D01*
X99782386Y-69919407D01*
X99784790Y-69915268D01*
X99786870Y-69906294D01*
X99791621Y-69892840D01*
X99792351Y-69891334D01*
X99792352Y-69891331D01*
X99794338Y-69887232D01*
X99802087Y-69841171D01*
X99802852Y-69837341D01*
X99805619Y-69825404D01*
X99814021Y-69789158D01*
X99813617Y-69783456D01*
X99814239Y-69770538D01*
X99814166Y-69770531D01*
X99814324Y-69768773D01*
X99814346Y-69768308D01*
X99814387Y-69768063D01*
X99814387Y-69768062D01*
X99814797Y-69765626D01*
X99814927Y-69755000D01*
X99813593Y-69745687D01*
X99808675Y-69711344D01*
X99808189Y-69706791D01*
X99805216Y-69664801D01*
X99805216Y-69664800D01*
X99804878Y-69660029D01*
X99802234Y-69653194D01*
X99801870Y-69652253D01*
X99798204Y-69638230D01*
X99798092Y-69637445D01*
X99798091Y-69637442D01*
X99797445Y-69632930D01*
X99777742Y-69589595D01*
X99776323Y-69586220D01*
X99759897Y-69543760D01*
X99758170Y-69539296D01*
X99755168Y-69535488D01*
X99750937Y-69528542D01*
X99750747Y-69528664D01*
X99748293Y-69524827D01*
X99746405Y-69520674D01*
X99713038Y-69481949D01*
X99711304Y-69479847D01*
X99678026Y-69437634D01*
X99674092Y-69434915D01*
X99673493Y-69434352D01*
X99669527Y-69431267D01*
X99668885Y-69430707D01*
X99665910Y-69427255D01*
X99620046Y-69397527D01*
X99618479Y-69396478D01*
X99575469Y-69366752D01*
X99575467Y-69366751D01*
X99571533Y-69364032D01*
X99566973Y-69362590D01*
X99566212Y-69362217D01*
X99564615Y-69361598D01*
X99562431Y-69360183D01*
X99558062Y-69358876D01*
X99558057Y-69358874D01*
X99506439Y-69343436D01*
X99505479Y-69343141D01*
X99461092Y-69329104D01*
X99448106Y-69324997D01*
X99444469Y-69324711D01*
X99444465Y-69324710D01*
X99443703Y-69324650D01*
X99441791Y-69324500D01*
X99387197Y-69324500D01*
X99386806Y-69324499D01*
X99386151Y-69324495D01*
X99320974Y-69324097D01*
X99319919Y-69324399D01*
X99318431Y-69324500D01*
X97553038Y-69324500D01*
X97552253Y-69324495D01*
X97547626Y-69324438D01*
X97531145Y-69324236D01*
X97529580Y-69324198D01*
X97511443Y-69323530D01*
X97509932Y-69323455D01*
X97491848Y-69322343D01*
X97490370Y-69322235D01*
X97472305Y-69320680D01*
X97470751Y-69320527D01*
X97452775Y-69318533D01*
X97451219Y-69318341D01*
X97433236Y-69315899D01*
X97431699Y-69315671D01*
X97421520Y-69314033D01*
X97413913Y-69312809D01*
X97412364Y-69312540D01*
X97394567Y-69309226D01*
X97393071Y-69308929D01*
X97375316Y-69305171D01*
X97373836Y-69304839D01*
X97356111Y-69300629D01*
X97354744Y-69300286D01*
X97337203Y-69295664D01*
X97335730Y-69295257D01*
X97318296Y-69290200D01*
X97316818Y-69289752D01*
X97299519Y-69284272D01*
X97298072Y-69283793D01*
X97280996Y-69277918D01*
X97279520Y-69277390D01*
X97262570Y-69271090D01*
X97261099Y-69270523D01*
X97244318Y-69263811D01*
X97242873Y-69263212D01*
X97226208Y-69256069D01*
X97224769Y-69255431D01*
X97219905Y-69253203D01*
X97208350Y-69247910D01*
X97206939Y-69247243D01*
X97190720Y-69239327D01*
X97189331Y-69238628D01*
X97173228Y-69230274D01*
X97171834Y-69229529D01*
X97156002Y-69220813D01*
X97154644Y-69220044D01*
X97139039Y-69210950D01*
X97137692Y-69210142D01*
X97122286Y-69200650D01*
X97120956Y-69199808D01*
X97105808Y-69189953D01*
X97104502Y-69189080D01*
X97089574Y-69178838D01*
X97088321Y-69177957D01*
X97073634Y-69167340D01*
X97072379Y-69166409D01*
X97069046Y-69163873D01*
X97057979Y-69155453D01*
X97056772Y-69154511D01*
X97042643Y-69143203D01*
X97041428Y-69142206D01*
X97027571Y-69130546D01*
X97026407Y-69129542D01*
X97012848Y-69117553D01*
X97011717Y-69116527D01*
X96998449Y-69104202D01*
X96997310Y-69103118D01*
X96983391Y-69089536D01*
X96982282Y-69088427D01*
X96968670Y-69074477D01*
X96967608Y-69073362D01*
X96955268Y-69060078D01*
X96954236Y-69058938D01*
X96942262Y-69045398D01*
X96941264Y-69044242D01*
X96929535Y-69030301D01*
X96928611Y-69029175D01*
X96917300Y-69015042D01*
X96916342Y-69013815D01*
X96905371Y-68999395D01*
X96904437Y-68998135D01*
X96893864Y-68983508D01*
X96892999Y-68982282D01*
X96882671Y-68967228D01*
X96881867Y-68966023D01*
X96871985Y-68950834D01*
X96871156Y-68949525D01*
X96870891Y-68949094D01*
X96861649Y-68934096D01*
X96860850Y-68932763D01*
X96851744Y-68917140D01*
X96850966Y-68915767D01*
X96842272Y-68899968D01*
X96841535Y-68898589D01*
X96833180Y-68882487D01*
X96832495Y-68881127D01*
X96824549Y-68864848D01*
X96823881Y-68863435D01*
X96816363Y-68847021D01*
X96815727Y-68845586D01*
X96808596Y-68828951D01*
X96807995Y-68827500D01*
X96801268Y-68810679D01*
X96800720Y-68809259D01*
X96794380Y-68792201D01*
X96793877Y-68790794D01*
X96788006Y-68773727D01*
X96787514Y-68772239D01*
X96782047Y-68754984D01*
X96781602Y-68753517D01*
X96776542Y-68736068D01*
X96776149Y-68734648D01*
X96771528Y-68717118D01*
X96771147Y-68715595D01*
X96766971Y-68698011D01*
X96766627Y-68696478D01*
X96762880Y-68678779D01*
X96762573Y-68677237D01*
X96759260Y-68659440D01*
X96758992Y-68657896D01*
X96756125Y-68640082D01*
X96755894Y-68638523D01*
X96753460Y-68620596D01*
X96753268Y-68619040D01*
X96751274Y-68601060D01*
X96751120Y-68599497D01*
X96749566Y-68581450D01*
X96749451Y-68579887D01*
X96748346Y-68561916D01*
X96748268Y-68560343D01*
X96747775Y-68546937D01*
X96747601Y-68542222D01*
X96747563Y-68540655D01*
X96747305Y-68519561D01*
X96747300Y-68518778D01*
X96747300Y-67237732D01*
X96747764Y-67232591D01*
X96747607Y-67232581D01*
X96747943Y-67227514D01*
X96747943Y-67227512D01*
X96748026Y-67226261D01*
X96747714Y-67200854D01*
X96748267Y-67193149D01*
X96748649Y-67191766D01*
X96748913Y-67185437D01*
X96748446Y-67172752D01*
X96747977Y-67160046D01*
X96748341Y-67152333D01*
X96748686Y-67150955D01*
X96748795Y-67144622D01*
X96747420Y-67122242D01*
X96747300Y-67118317D01*
X96747300Y-67113626D01*
X96747411Y-67111547D01*
X96747723Y-67110154D01*
X96747677Y-67103819D01*
X96747536Y-67102180D01*
X96747300Y-67096691D01*
X96747300Y-66443769D01*
X96747305Y-66442988D01*
X96747329Y-66441063D01*
X96747562Y-66421935D01*
X96747600Y-66420358D01*
X96748269Y-66402211D01*
X96748347Y-66400642D01*
X96748490Y-66398327D01*
X96749454Y-66382637D01*
X96749563Y-66381153D01*
X96751120Y-66363071D01*
X96751274Y-66361508D01*
X96753264Y-66343566D01*
X96753456Y-66342009D01*
X96755895Y-66324049D01*
X96756126Y-66322491D01*
X96756292Y-66321463D01*
X96758992Y-66304684D01*
X96759260Y-66303141D01*
X96762574Y-66285339D01*
X96762881Y-66283796D01*
X96766630Y-66266088D01*
X96766973Y-66264559D01*
X96769513Y-66253862D01*
X96771159Y-66246931D01*
X96771515Y-66245513D01*
X96776140Y-66227963D01*
X96776553Y-66226471D01*
X96781591Y-66209098D01*
X96782047Y-66207596D01*
X96787516Y-66190331D01*
X96787990Y-66188894D01*
X96793903Y-66171705D01*
X96794405Y-66170305D01*
X96800709Y-66153347D01*
X96801274Y-66151881D01*
X96807989Y-66135091D01*
X96808589Y-66133644D01*
X96815722Y-66117002D01*
X96816334Y-66115619D01*
X96823893Y-66099116D01*
X96824554Y-66097719D01*
X96832491Y-66081459D01*
X96833195Y-66080060D01*
X96841497Y-66064058D01*
X96842240Y-66062669D01*
X96850980Y-66046791D01*
X96851751Y-66045429D01*
X96860853Y-66029810D01*
X96861662Y-66028460D01*
X96871169Y-66013031D01*
X96872011Y-66011702D01*
X96881840Y-65996595D01*
X96882711Y-65995292D01*
X96892942Y-65980379D01*
X96893847Y-65979094D01*
X96904452Y-65964422D01*
X96905387Y-65963161D01*
X96916342Y-65948762D01*
X96917310Y-65947522D01*
X96928605Y-65933410D01*
X96929600Y-65932197D01*
X96933212Y-65927905D01*
X96941230Y-65918375D01*
X96942246Y-65917197D01*
X96954264Y-65903607D01*
X96955295Y-65902470D01*
X96958461Y-65899061D01*
X96964950Y-65892076D01*
X96968142Y-65888884D01*
X96968200Y-65888822D01*
X96969954Y-65887192D01*
X96971447Y-65885319D01*
X96972119Y-65884594D01*
X96973250Y-65883405D01*
X96980023Y-65876465D01*
X96981110Y-65875379D01*
X96998691Y-65858224D01*
X96998708Y-65858241D01*
X97000295Y-65856612D01*
X97012421Y-65845349D01*
X97013580Y-65844298D01*
X97027121Y-65832324D01*
X97028312Y-65831297D01*
X97028382Y-65831238D01*
X97042169Y-65819638D01*
X97043342Y-65818676D01*
X97057466Y-65807372D01*
X97058703Y-65806406D01*
X97064586Y-65801930D01*
X97073101Y-65795451D01*
X97074342Y-65794532D01*
X97089022Y-65783922D01*
X97090305Y-65783018D01*
X97105187Y-65772808D01*
X97106489Y-65771938D01*
X97121643Y-65762078D01*
X97122974Y-65761235D01*
X97138395Y-65751733D01*
X97139716Y-65750941D01*
X97155385Y-65741809D01*
X97156654Y-65741090D01*
X97172588Y-65732320D01*
X97173913Y-65731612D01*
X97190060Y-65723234D01*
X97191333Y-65722594D01*
X97207677Y-65714617D01*
X97209047Y-65713969D01*
X97225500Y-65706433D01*
X97226934Y-65705797D01*
X97243559Y-65698670D01*
X97245013Y-65698068D01*
X97261808Y-65691352D01*
X97263222Y-65690806D01*
X97280252Y-65684477D01*
X97281698Y-65683960D01*
X97298786Y-65678081D01*
X97300279Y-65677587D01*
X97309607Y-65674632D01*
X97317538Y-65672120D01*
X97318977Y-65671683D01*
X97336435Y-65666621D01*
X97337884Y-65666220D01*
X97355390Y-65661607D01*
X97356909Y-65661226D01*
X97362940Y-65659794D01*
X97374524Y-65657042D01*
X97376026Y-65656705D01*
X97393743Y-65652954D01*
X97395244Y-65652656D01*
X97413054Y-65649341D01*
X97414532Y-65649084D01*
X97432430Y-65646204D01*
X97433940Y-65645980D01*
X97451919Y-65643538D01*
X97453474Y-65643346D01*
X97455462Y-65643125D01*
X97471492Y-65641347D01*
X97473016Y-65641198D01*
X97491007Y-65639650D01*
X97492566Y-65639535D01*
X97510623Y-65638425D01*
X97512194Y-65638347D01*
X97520868Y-65638027D01*
X97530276Y-65637681D01*
X97531836Y-65637643D01*
X97552939Y-65637385D01*
X97553721Y-65637380D01*
X98151911Y-65637380D01*
X98153084Y-65637391D01*
X98212058Y-65638472D01*
X98243690Y-65629848D01*
X98251009Y-65628305D01*
X98281587Y-65623708D01*
X98281589Y-65623707D01*
X98286314Y-65622997D01*
X98304048Y-65614481D01*
X98314907Y-65610432D01*
X98331030Y-65606036D01*
X98334913Y-65603652D01*
X98334917Y-65603650D01*
X98361941Y-65587057D01*
X98367711Y-65583910D01*
X98403010Y-65566960D01*
X98414900Y-65555969D01*
X98424845Y-65548434D01*
X98436117Y-65541513D01*
X98462801Y-65512034D01*
X98466778Y-65508016D01*
X98498071Y-65479088D01*
X98504455Y-65468098D01*
X98512343Y-65457300D01*
X98518871Y-65450088D01*
X98522872Y-65441831D01*
X98537716Y-65411192D01*
X98539970Y-65406953D01*
X98560686Y-65371287D01*
X98563090Y-65367148D01*
X98565170Y-65358174D01*
X98569921Y-65344720D01*
X98570651Y-65343214D01*
X98570652Y-65343211D01*
X98572638Y-65339112D01*
X98580387Y-65293051D01*
X98581152Y-65289221D01*
X98582499Y-65283411D01*
X98592321Y-65241038D01*
X98591917Y-65235336D01*
X98592539Y-65222418D01*
X98592466Y-65222411D01*
X98592624Y-65220653D01*
X98592646Y-65220188D01*
X98592687Y-65219943D01*
X98592687Y-65219942D01*
X98593097Y-65217506D01*
X98593227Y-65206880D01*
X98592877Y-65204435D01*
X98586975Y-65163224D01*
X98586489Y-65158671D01*
X98583516Y-65116681D01*
X98583516Y-65116680D01*
X98583178Y-65111909D01*
X98580170Y-65104133D01*
X98576504Y-65090110D01*
X98576392Y-65089325D01*
X98576391Y-65089322D01*
X98575745Y-65084810D01*
X98556042Y-65041475D01*
X98554623Y-65038100D01*
X98538197Y-64995640D01*
X98536470Y-64991176D01*
X98533468Y-64987368D01*
X98529237Y-64980422D01*
X98529047Y-64980544D01*
X98526593Y-64976707D01*
X98524705Y-64972554D01*
X98491338Y-64933829D01*
X98489604Y-64931727D01*
X98456326Y-64889514D01*
X98452392Y-64886795D01*
X98451793Y-64886232D01*
X98447827Y-64883147D01*
X98447185Y-64882587D01*
X98444210Y-64879135D01*
X98398346Y-64849407D01*
X98396779Y-64848358D01*
X98353769Y-64818632D01*
X98353767Y-64818631D01*
X98349833Y-64815912D01*
X98345273Y-64814470D01*
X98344512Y-64814097D01*
X98342915Y-64813478D01*
X98340731Y-64812063D01*
X98336362Y-64810756D01*
X98336357Y-64810754D01*
X98284739Y-64795316D01*
X98283779Y-64795021D01*
X98232009Y-64778649D01*
X98226406Y-64776877D01*
X98222769Y-64776591D01*
X98222765Y-64776590D01*
X98222003Y-64776530D01*
X98220091Y-64776380D01*
X98165497Y-64776380D01*
X98165106Y-64776379D01*
X98099274Y-64775977D01*
X98098219Y-64776279D01*
X98096731Y-64776380D01*
X97618675Y-64776380D01*
X97613546Y-64775917D01*
X97613536Y-64776075D01*
X97608470Y-64775739D01*
X97608465Y-64775739D01*
X97607215Y-64775656D01*
X97605964Y-64775671D01*
X97605952Y-64775671D01*
X97581805Y-64775967D01*
X97574102Y-64775414D01*
X97572719Y-64775032D01*
X97566390Y-64774768D01*
X97565140Y-64774814D01*
X97565133Y-64774814D01*
X97541000Y-64775703D01*
X97533282Y-64775339D01*
X97531895Y-64774992D01*
X97528248Y-64774929D01*
X97528246Y-64774929D01*
X97526797Y-64774904D01*
X97526791Y-64774904D01*
X97525562Y-64774883D01*
X97523137Y-64775032D01*
X97500194Y-64776441D01*
X97492475Y-64776267D01*
X97491079Y-64775954D01*
X97487435Y-64775981D01*
X97487245Y-64775982D01*
X97484745Y-64776001D01*
X97459429Y-64778181D01*
X97451710Y-64778196D01*
X97450308Y-64777918D01*
X97446663Y-64778034D01*
X97446660Y-64778034D01*
X97445229Y-64778080D01*
X97445228Y-64778080D01*
X97443977Y-64778120D01*
X97431145Y-64779543D01*
X97418721Y-64780921D01*
X97411004Y-64781126D01*
X97409594Y-64780882D01*
X97405951Y-64781088D01*
X97405947Y-64781088D01*
X97404776Y-64781155D01*
X97403269Y-64781240D01*
X97402033Y-64781408D01*
X97402021Y-64781409D01*
X97378095Y-64784659D01*
X97370387Y-64785052D01*
X97368977Y-64784844D01*
X97365346Y-64785139D01*
X97365345Y-64785139D01*
X97363913Y-64785255D01*
X97363902Y-64785256D01*
X97362663Y-64785357D01*
X97361438Y-64785554D01*
X97361422Y-64785556D01*
X97337571Y-64789393D01*
X97329873Y-64789976D01*
X97328453Y-64789802D01*
X97324827Y-64790186D01*
X97324826Y-64790186D01*
X97323406Y-64790336D01*
X97323395Y-64790338D01*
X97322154Y-64790469D01*
X97320928Y-64790697D01*
X97320916Y-64790699D01*
X97297175Y-64795119D01*
X97289486Y-64795892D01*
X97288062Y-64795752D01*
X97284456Y-64796224D01*
X97284452Y-64796224D01*
X97283574Y-64796339D01*
X97281781Y-64796574D01*
X97280560Y-64796832D01*
X97280557Y-64796833D01*
X97273402Y-64798348D01*
X97256924Y-64801836D01*
X97249268Y-64802796D01*
X97247843Y-64802692D01*
X97244240Y-64803254D01*
X97244237Y-64803254D01*
X97243714Y-64803336D01*
X97241584Y-64803668D01*
X97216857Y-64809540D01*
X97209222Y-64810688D01*
X97207787Y-64810618D01*
X97204193Y-64811269D01*
X97204192Y-64811269D01*
X97203605Y-64811376D01*
X97201554Y-64811747D01*
X97176989Y-64818222D01*
X97169391Y-64819556D01*
X97167964Y-64819522D01*
X97161761Y-64820804D01*
X97160554Y-64821154D01*
X97137356Y-64827880D01*
X97129791Y-64829401D01*
X97128354Y-64829402D01*
X97124796Y-64830229D01*
X97124795Y-64830229D01*
X97124235Y-64830359D01*
X97122184Y-64830836D01*
X97121000Y-64831211D01*
X97120982Y-64831216D01*
X97097962Y-64838509D01*
X97090421Y-64840218D01*
X97088989Y-64840254D01*
X97085455Y-64841167D01*
X97085453Y-64841167D01*
X97084208Y-64841489D01*
X97082856Y-64841838D01*
X97058828Y-64850105D01*
X97051341Y-64851995D01*
X97049918Y-64852066D01*
X97046411Y-64853064D01*
X97045022Y-64853459D01*
X97045014Y-64853462D01*
X97043825Y-64853800D01*
X97042667Y-64854230D01*
X97042647Y-64854237D01*
X97020011Y-64862652D01*
X97012576Y-64864725D01*
X97011156Y-64864831D01*
X97007668Y-64865917D01*
X97006311Y-64866339D01*
X97006301Y-64866343D01*
X97005108Y-64866714D01*
X97003940Y-64867181D01*
X97003929Y-64867185D01*
X96981512Y-64876150D01*
X96974124Y-64878406D01*
X96972702Y-64878547D01*
X96969244Y-64879718D01*
X96969242Y-64879718D01*
X96968829Y-64879858D01*
X96966702Y-64880578D01*
X96945856Y-64889514D01*
X96943353Y-64890587D01*
X96936017Y-64893026D01*
X96934600Y-64893202D01*
X96931182Y-64894453D01*
X96931178Y-64894454D01*
X96930038Y-64894872D01*
X96928652Y-64895379D01*
X96927521Y-64895897D01*
X96927509Y-64895902D01*
X96905549Y-64905961D01*
X96898283Y-64908577D01*
X96896871Y-64908787D01*
X96893476Y-64910125D01*
X96893477Y-64910125D01*
X96892149Y-64910648D01*
X96892140Y-64910652D01*
X96890978Y-64911110D01*
X96889857Y-64911657D01*
X96889846Y-64911662D01*
X96868146Y-64922254D01*
X96860948Y-64925047D01*
X96859539Y-64925292D01*
X96853705Y-64927759D01*
X96841981Y-64933842D01*
X96831150Y-64939461D01*
X96824019Y-64942432D01*
X96822612Y-64942712D01*
X96818553Y-64944547D01*
X96817998Y-64944798D01*
X96817990Y-64944802D01*
X96816840Y-64945322D01*
X96794579Y-64957575D01*
X96787533Y-64960715D01*
X96786140Y-64961028D01*
X96780433Y-64963779D01*
X96779353Y-64964409D01*
X96779352Y-64964409D01*
X96758480Y-64976574D01*
X96751504Y-64979890D01*
X96750113Y-64980239D01*
X96744476Y-64983129D01*
X96743407Y-64983788D01*
X96743403Y-64983790D01*
X96722847Y-64996457D01*
X96715954Y-64999943D01*
X96714581Y-65000324D01*
X96711378Y-65002066D01*
X96711376Y-65002067D01*
X96710118Y-65002751D01*
X96710107Y-65002758D01*
X96709016Y-65003351D01*
X96707960Y-65004038D01*
X96707950Y-65004044D01*
X96687719Y-65017206D01*
X96680917Y-65020859D01*
X96679554Y-65021273D01*
X96676392Y-65023095D01*
X96676393Y-65023095D01*
X96675146Y-65023813D01*
X96675136Y-65023819D01*
X96674066Y-65024436D01*
X96653107Y-65038815D01*
X96646403Y-65042630D01*
X96645039Y-65043081D01*
X96641921Y-65044982D01*
X96641918Y-65044983D01*
X96640702Y-65045724D01*
X96640692Y-65045731D01*
X96639630Y-65046378D01*
X96638615Y-65047112D01*
X96638613Y-65047113D01*
X96619038Y-65061262D01*
X96612420Y-65065246D01*
X96611071Y-65065730D01*
X96605745Y-65069158D01*
X96585518Y-65084548D01*
X96579006Y-65088689D01*
X96577673Y-65089204D01*
X96572432Y-65092762D01*
X96571466Y-65093535D01*
X96571454Y-65093544D01*
X96552598Y-65108636D01*
X96546194Y-65112933D01*
X96544878Y-65113479D01*
X96539726Y-65117165D01*
X96538777Y-65117964D01*
X96538766Y-65117972D01*
X96528104Y-65126943D01*
X96520274Y-65133531D01*
X96513966Y-65137992D01*
X96512646Y-65138578D01*
X96507586Y-65142389D01*
X96506645Y-65143221D01*
X96506628Y-65143235D01*
X96488556Y-65159217D01*
X96482367Y-65163826D01*
X96481089Y-65164431D01*
X96477681Y-65167131D01*
X96477103Y-65167588D01*
X96477096Y-65167594D01*
X96476124Y-65168364D01*
X96475208Y-65169215D01*
X96457502Y-65185661D01*
X96451418Y-65190429D01*
X96450133Y-65191077D01*
X96445266Y-65195132D01*
X96428083Y-65211900D01*
X96424134Y-65215112D01*
X96424242Y-65215239D01*
X96419424Y-65219352D01*
X96419361Y-65219415D01*
X96417323Y-65221049D01*
X96417232Y-65221097D01*
X96412466Y-65225269D01*
X96411591Y-65226165D01*
X96411578Y-65226178D01*
X96394715Y-65243459D01*
X96388870Y-65248521D01*
X96387619Y-65249231D01*
X96382957Y-65253520D01*
X96382113Y-65254429D01*
X96365667Y-65272133D01*
X96359962Y-65277325D01*
X96358740Y-65278058D01*
X96354185Y-65282459D01*
X96353346Y-65283408D01*
X96353343Y-65283411D01*
X96348472Y-65288920D01*
X96344095Y-65293407D01*
X96342532Y-65294859D01*
X96341398Y-65295886D01*
X96327864Y-65307853D01*
X96326674Y-65308880D01*
X96312860Y-65320503D01*
X96311649Y-65321497D01*
X96297500Y-65332822D01*
X96296293Y-65333764D01*
X96281894Y-65344720D01*
X96281851Y-65344753D01*
X96280587Y-65345689D01*
X96265954Y-65356265D01*
X96264672Y-65357168D01*
X96249773Y-65367390D01*
X96248464Y-65368265D01*
X96233305Y-65378126D01*
X96231985Y-65378962D01*
X96216575Y-65388459D01*
X96215274Y-65389240D01*
X96199580Y-65398387D01*
X96198315Y-65399103D01*
X96184053Y-65406953D01*
X96182385Y-65407871D01*
X96181021Y-65408600D01*
X96164917Y-65416955D01*
X96163581Y-65417627D01*
X96147295Y-65425575D01*
X96145879Y-65426245D01*
X96129397Y-65433794D01*
X96128063Y-65434385D01*
X96111413Y-65441523D01*
X96110008Y-65442105D01*
X96093171Y-65448839D01*
X96091708Y-65449403D01*
X96084438Y-65452106D01*
X96074704Y-65455724D01*
X96073280Y-65456233D01*
X96056149Y-65462126D01*
X96054757Y-65462586D01*
X96037395Y-65468087D01*
X96035932Y-65468530D01*
X96018566Y-65473567D01*
X96017083Y-65473977D01*
X95999578Y-65478590D01*
X95998057Y-65478971D01*
X95980465Y-65483149D01*
X95978929Y-65483494D01*
X95961221Y-65487242D01*
X95959693Y-65487546D01*
X95941900Y-65490860D01*
X95940417Y-65491117D01*
X95922511Y-65493998D01*
X95920985Y-65494224D01*
X95903039Y-65496661D01*
X95901486Y-65496853D01*
X95899502Y-65497073D01*
X95883485Y-65498850D01*
X95881991Y-65498996D01*
X95863927Y-65500551D01*
X95862418Y-65500663D01*
X95844345Y-65501773D01*
X95842798Y-65501849D01*
X95828434Y-65502379D01*
X95824636Y-65502519D01*
X95823067Y-65502557D01*
X95810939Y-65502706D01*
X95810279Y-65502714D01*
X95809493Y-65502719D01*
X95106904Y-65502719D01*
X95104549Y-65502676D01*
X95094094Y-65502291D01*
X95091723Y-65502559D01*
X95089335Y-65502649D01*
X95089332Y-65502571D01*
X95086701Y-65502719D01*
X95075137Y-65502719D01*
X95074353Y-65502714D01*
X95055680Y-65502485D01*
X95055676Y-65502485D01*
X95053288Y-65502456D01*
X95051801Y-65502661D01*
X95049936Y-65502719D01*
X92734001Y-65502719D01*
X92733610Y-65502718D01*
X92732955Y-65502714D01*
X92667778Y-65502316D01*
X92639174Y-65510491D01*
X92631102Y-65512244D01*
X92603517Y-65516391D01*
X92603515Y-65516392D01*
X92598790Y-65517102D01*
X92594481Y-65519171D01*
X92578318Y-65526932D01*
X92568204Y-65530774D01*
X92549210Y-65536203D01*
X92540794Y-65541513D01*
X92521104Y-65553936D01*
X92514663Y-65557499D01*
X92482094Y-65573139D01*
X92467968Y-65586197D01*
X92458687Y-65593319D01*
X92444919Y-65602005D01*
X92433899Y-65614483D01*
X92420625Y-65629513D01*
X92416098Y-65634144D01*
X92390546Y-65657763D01*
X92390544Y-65657766D01*
X92387033Y-65661011D01*
X92379122Y-65674632D01*
X92371749Y-65684855D01*
X92363289Y-65694434D01*
X92350084Y-65722560D01*
X92346215Y-65730801D01*
X92343624Y-65735746D01*
X92327600Y-65763333D01*
X92322014Y-65772951D01*
X92319243Y-65784907D01*
X92314830Y-65797649D01*
X92310881Y-65806059D01*
X92304845Y-65844826D01*
X92304163Y-65849204D01*
X92303275Y-65853795D01*
X92292783Y-65899061D01*
X92293403Y-65907812D01*
X92292800Y-65922182D01*
X92292610Y-65923400D01*
X92292610Y-65923404D01*
X92291909Y-65927905D01*
X89705000Y-65927905D01*
X89705000Y-63891302D01*
X91019500Y-63891302D01*
X91034289Y-64013514D01*
X91092509Y-64167589D01*
X91094694Y-64170769D01*
X91094695Y-64170770D01*
X91121822Y-64210240D01*
X91185800Y-64303328D01*
X91188680Y-64305894D01*
X91305894Y-64410328D01*
X91305897Y-64410330D01*
X91308777Y-64412896D01*
X91312186Y-64414701D01*
X91312189Y-64414703D01*
X91369451Y-64445022D01*
X91454339Y-64489968D01*
X91614084Y-64530093D01*
X91693075Y-64530506D01*
X91774931Y-64530935D01*
X91774933Y-64530935D01*
X91778789Y-64530955D01*
X91782537Y-64530055D01*
X91782539Y-64530055D01*
X91935193Y-64493406D01*
X91935195Y-64493405D01*
X91938945Y-64492505D01*
X92085307Y-64416962D01*
X92209424Y-64308688D01*
X92211642Y-64305533D01*
X92211644Y-64305530D01*
X92301909Y-64177097D01*
X92301911Y-64177093D01*
X92304132Y-64173933D01*
X92363962Y-64020476D01*
X92380500Y-63894854D01*
X92380500Y-63891302D01*
X99619500Y-63891302D01*
X99634289Y-64013514D01*
X99692509Y-64167589D01*
X99694694Y-64170769D01*
X99694695Y-64170770D01*
X99721822Y-64210240D01*
X99785800Y-64303328D01*
X99788680Y-64305894D01*
X99905894Y-64410328D01*
X99905897Y-64410330D01*
X99908777Y-64412896D01*
X99912186Y-64414701D01*
X99912189Y-64414703D01*
X99969451Y-64445022D01*
X100054339Y-64489968D01*
X100214084Y-64530093D01*
X100293075Y-64530506D01*
X100374931Y-64530935D01*
X100374933Y-64530935D01*
X100378789Y-64530955D01*
X100382537Y-64530055D01*
X100382539Y-64530055D01*
X100535193Y-64493406D01*
X100535195Y-64493405D01*
X100538945Y-64492505D01*
X100685307Y-64416962D01*
X100809424Y-64308688D01*
X100811642Y-64305533D01*
X100811644Y-64305530D01*
X100901909Y-64177097D01*
X100901911Y-64177093D01*
X100904132Y-64173933D01*
X100963962Y-64020476D01*
X100980500Y-63894854D01*
X100980500Y-62708698D01*
X100969506Y-62617845D01*
X100966175Y-62590317D01*
X100966174Y-62590314D01*
X100965711Y-62586486D01*
X100946256Y-62535000D01*
X100908856Y-62436023D01*
X100908855Y-62436022D01*
X100907491Y-62432411D01*
X100900957Y-62422903D01*
X100856210Y-62357797D01*
X100814200Y-62296672D01*
X100801100Y-62285000D01*
X100694106Y-62189672D01*
X100694103Y-62189670D01*
X100691223Y-62187104D01*
X100687814Y-62185299D01*
X100687811Y-62185297D01*
X100630549Y-62154978D01*
X100545661Y-62110032D01*
X100385916Y-62069907D01*
X100306925Y-62069494D01*
X100225069Y-62069065D01*
X100225067Y-62069065D01*
X100221211Y-62069045D01*
X100217463Y-62069945D01*
X100217461Y-62069945D01*
X100064807Y-62106594D01*
X100064805Y-62106595D01*
X100061055Y-62107495D01*
X99914693Y-62183038D01*
X99790576Y-62291312D01*
X99788358Y-62294467D01*
X99788356Y-62294470D01*
X99698091Y-62422903D01*
X99698089Y-62422907D01*
X99695868Y-62426067D01*
X99636038Y-62579524D01*
X99635534Y-62583350D01*
X99635534Y-62583351D01*
X99623469Y-62675000D01*
X99619500Y-62705146D01*
X99619500Y-63891302D01*
X92380500Y-63891302D01*
X92380500Y-62780000D01*
X92585000Y-62780000D01*
X92595000Y-62845000D01*
X92615000Y-62925000D01*
X92630000Y-62960000D01*
X92655000Y-63010000D01*
X92670000Y-63035000D01*
X92690000Y-63065000D01*
X92710000Y-63090000D01*
X92745000Y-63125000D01*
X92745802Y-63125701D01*
X92745814Y-63125713D01*
X92784461Y-63159529D01*
X92784477Y-63159543D01*
X92785000Y-63160000D01*
X92785546Y-63160437D01*
X92785557Y-63160446D01*
X92791250Y-63165000D01*
X92810000Y-63180000D01*
X92840000Y-63200000D01*
X92855621Y-63207811D01*
X92869465Y-63214733D01*
X92869486Y-63214743D01*
X92870000Y-63215000D01*
X92897011Y-63227278D01*
X92923466Y-63239303D01*
X92923470Y-63239305D01*
X92925000Y-63240000D01*
X92926583Y-63240528D01*
X92926589Y-63240530D01*
X92968119Y-63254373D01*
X92970000Y-63255000D01*
X93020000Y-63265000D01*
X93047984Y-63269664D01*
X93077389Y-63274565D01*
X93077391Y-63274565D01*
X93080000Y-63275000D01*
X93135000Y-63275000D01*
X93136743Y-63274806D01*
X93136749Y-63274806D01*
X93157581Y-63272491D01*
X93180000Y-63270000D01*
X93181565Y-63269665D01*
X93181569Y-63269664D01*
X93248741Y-63255270D01*
X93248746Y-63255269D01*
X93250000Y-63255000D01*
X93274295Y-63247712D01*
X93297361Y-63240792D01*
X93297364Y-63240791D01*
X93300000Y-63240000D01*
X93350534Y-63214733D01*
X93387425Y-63196288D01*
X93387429Y-63196285D01*
X93390000Y-63195000D01*
X93430000Y-63165000D01*
X93435010Y-63160446D01*
X93482963Y-63116852D01*
X93482964Y-63116851D01*
X93485000Y-63115000D01*
X93504445Y-63090000D01*
X93519342Y-63070846D01*
X93520695Y-63069166D01*
X93545000Y-63040000D01*
X93560000Y-63020000D01*
X93595000Y-62950000D01*
X93605000Y-62925000D01*
X93615000Y-62895000D01*
X93619863Y-62870685D01*
X93620144Y-62869352D01*
X93625238Y-62846427D01*
X93630000Y-62825000D01*
X93635000Y-62780000D01*
X98365000Y-62780000D01*
X98375000Y-62845000D01*
X98395000Y-62925000D01*
X98410000Y-62960000D01*
X98435000Y-63010000D01*
X98450000Y-63035000D01*
X98470000Y-63065000D01*
X98490000Y-63090000D01*
X98525000Y-63125000D01*
X98525802Y-63125701D01*
X98525814Y-63125713D01*
X98564461Y-63159529D01*
X98564477Y-63159543D01*
X98565000Y-63160000D01*
X98565546Y-63160437D01*
X98565557Y-63160446D01*
X98571250Y-63165000D01*
X98590000Y-63180000D01*
X98620000Y-63200000D01*
X98635621Y-63207811D01*
X98649465Y-63214733D01*
X98649486Y-63214743D01*
X98650000Y-63215000D01*
X98677011Y-63227278D01*
X98703466Y-63239303D01*
X98703470Y-63239305D01*
X98705000Y-63240000D01*
X98706583Y-63240528D01*
X98706589Y-63240530D01*
X98748119Y-63254373D01*
X98750000Y-63255000D01*
X98800000Y-63265000D01*
X98827984Y-63269664D01*
X98857389Y-63274565D01*
X98857391Y-63274565D01*
X98860000Y-63275000D01*
X98915000Y-63275000D01*
X98916743Y-63274806D01*
X98916749Y-63274806D01*
X98937581Y-63272491D01*
X98960000Y-63270000D01*
X98961565Y-63269665D01*
X98961569Y-63269664D01*
X99028741Y-63255270D01*
X99028746Y-63255269D01*
X99030000Y-63255000D01*
X99054295Y-63247712D01*
X99077361Y-63240792D01*
X99077364Y-63240791D01*
X99080000Y-63240000D01*
X99130534Y-63214733D01*
X99167425Y-63196288D01*
X99167429Y-63196285D01*
X99170000Y-63195000D01*
X99210000Y-63165000D01*
X99215010Y-63160446D01*
X99262963Y-63116852D01*
X99262964Y-63116851D01*
X99265000Y-63115000D01*
X99284445Y-63090000D01*
X99299342Y-63070846D01*
X99300695Y-63069166D01*
X99325000Y-63040000D01*
X99340000Y-63020000D01*
X99375000Y-62950000D01*
X99385000Y-62925000D01*
X99395000Y-62895000D01*
X99399863Y-62870685D01*
X99400144Y-62869352D01*
X99405238Y-62846427D01*
X99410000Y-62825000D01*
X99415000Y-62780000D01*
X99415000Y-62720000D01*
X99413959Y-62710631D01*
X99410096Y-62675860D01*
X99410094Y-62675844D01*
X99410000Y-62675000D01*
X99409820Y-62673917D01*
X99405267Y-62646605D01*
X99405000Y-62645000D01*
X99390000Y-62590000D01*
X99370000Y-62535000D01*
X99350000Y-62495000D01*
X99315000Y-62440000D01*
X99311907Y-62436023D01*
X99281741Y-62397238D01*
X99281739Y-62397236D01*
X99280000Y-62395000D01*
X99241111Y-62360000D01*
X99230447Y-62350402D01*
X99230438Y-62350394D01*
X99230000Y-62350000D01*
X99200000Y-62325000D01*
X99160000Y-62300000D01*
X99159288Y-62299604D01*
X99159272Y-62299595D01*
X99116242Y-62275690D01*
X99115000Y-62275000D01*
X99070000Y-62255000D01*
X99015000Y-62240000D01*
X98994275Y-62235855D01*
X98966546Y-62230309D01*
X98966542Y-62230308D01*
X98965000Y-62230000D01*
X98915000Y-62225000D01*
X98865000Y-62225000D01*
X98863142Y-62225219D01*
X98863135Y-62225219D01*
X98816322Y-62230727D01*
X98780000Y-62235000D01*
X98715000Y-62255000D01*
X98713438Y-62255669D01*
X98713431Y-62255672D01*
X98669677Y-62274424D01*
X98645000Y-62285000D01*
X98643008Y-62286226D01*
X98643002Y-62286229D01*
X98581498Y-62324078D01*
X98580000Y-62325000D01*
X98535000Y-62360000D01*
X98532727Y-62362778D01*
X98532726Y-62362779D01*
X98495940Y-62407740D01*
X98445000Y-62470000D01*
X98443572Y-62472618D01*
X98443570Y-62472621D01*
X98430557Y-62496478D01*
X98415000Y-62525000D01*
X98395000Y-62575000D01*
X98394716Y-62575853D01*
X98394712Y-62575863D01*
X98390000Y-62590000D01*
X98380000Y-62620000D01*
X98370000Y-62675000D01*
X98365000Y-62720000D01*
X98365000Y-62780000D01*
X93635000Y-62780000D01*
X93635000Y-62720000D01*
X93633959Y-62710631D01*
X93630096Y-62675860D01*
X93630094Y-62675844D01*
X93630000Y-62675000D01*
X93629820Y-62673917D01*
X93625267Y-62646605D01*
X93625000Y-62645000D01*
X93610000Y-62590000D01*
X93590000Y-62535000D01*
X93570000Y-62495000D01*
X93535000Y-62440000D01*
X93531907Y-62436023D01*
X93501741Y-62397238D01*
X93501739Y-62397236D01*
X93500000Y-62395000D01*
X93461111Y-62360000D01*
X93450447Y-62350402D01*
X93450438Y-62350394D01*
X93450000Y-62350000D01*
X93420000Y-62325000D01*
X93380000Y-62300000D01*
X93379288Y-62299604D01*
X93379272Y-62299595D01*
X93336242Y-62275690D01*
X93335000Y-62275000D01*
X93290000Y-62255000D01*
X93235000Y-62240000D01*
X93214275Y-62235855D01*
X93186546Y-62230309D01*
X93186542Y-62230308D01*
X93185000Y-62230000D01*
X93135000Y-62225000D01*
X93085000Y-62225000D01*
X93083142Y-62225219D01*
X93083135Y-62225219D01*
X93036322Y-62230727D01*
X93000000Y-62235000D01*
X92935000Y-62255000D01*
X92933438Y-62255669D01*
X92933431Y-62255672D01*
X92889677Y-62274424D01*
X92865000Y-62285000D01*
X92863008Y-62286226D01*
X92863002Y-62286229D01*
X92801498Y-62324078D01*
X92800000Y-62325000D01*
X92755000Y-62360000D01*
X92752727Y-62362778D01*
X92752726Y-62362779D01*
X92715940Y-62407740D01*
X92665000Y-62470000D01*
X92663572Y-62472618D01*
X92663570Y-62472621D01*
X92650557Y-62496478D01*
X92635000Y-62525000D01*
X92615000Y-62575000D01*
X92614716Y-62575853D01*
X92614712Y-62575863D01*
X92610000Y-62590000D01*
X92600000Y-62620000D01*
X92590000Y-62675000D01*
X92585000Y-62720000D01*
X92585000Y-62780000D01*
X92380500Y-62780000D01*
X92380500Y-62708698D01*
X92369506Y-62617845D01*
X92366175Y-62590317D01*
X92366174Y-62590314D01*
X92365711Y-62586486D01*
X92346256Y-62535000D01*
X92308856Y-62436023D01*
X92308855Y-62436022D01*
X92307491Y-62432411D01*
X92300957Y-62422903D01*
X92256210Y-62357797D01*
X92214200Y-62296672D01*
X92201100Y-62285000D01*
X92094106Y-62189672D01*
X92094103Y-62189670D01*
X92091223Y-62187104D01*
X92087814Y-62185299D01*
X92087811Y-62185297D01*
X92030549Y-62154978D01*
X91945661Y-62110032D01*
X91785916Y-62069907D01*
X91706925Y-62069494D01*
X91625069Y-62069065D01*
X91625067Y-62069065D01*
X91621211Y-62069045D01*
X91617463Y-62069945D01*
X91617461Y-62069945D01*
X91464807Y-62106594D01*
X91464805Y-62106595D01*
X91461055Y-62107495D01*
X91314693Y-62183038D01*
X91190576Y-62291312D01*
X91188358Y-62294467D01*
X91188356Y-62294470D01*
X91098091Y-62422903D01*
X91098089Y-62422907D01*
X91095868Y-62426067D01*
X91036038Y-62579524D01*
X91035534Y-62583350D01*
X91035534Y-62583351D01*
X91023469Y-62675000D01*
X91019500Y-62705146D01*
X91019500Y-63891302D01*
X89705000Y-63891302D01*
X89705000Y-61928598D01*
X89705402Y-61921432D01*
X89721743Y-61776397D01*
X89724933Y-61762425D01*
X89771940Y-61628088D01*
X89778158Y-61615176D01*
X89853880Y-61494665D01*
X89862815Y-61483460D01*
X89963460Y-61382815D01*
X89974665Y-61373880D01*
X90095176Y-61298158D01*
X90108088Y-61291940D01*
X90242425Y-61244933D01*
X90256396Y-61241743D01*
X90401432Y-61225402D01*
X90408598Y-61225000D01*
X101596402Y-61225000D01*
X101603568Y-61225402D01*
G37*
%TD.AperFunction*%
%TD*%
M02*
