%TF.GenerationSoftware,KiCad,Pcbnew,(5.99.0-13123-g97e9348ee1)*%
%TF.CreationDate,2021-12-06T14:29:08+03:00*%
%TF.ProjectId,Daughterboard,44617567-6874-4657-9262-6f6172642e6b,rev?*%
%TF.SameCoordinates,Original*%
%TF.FileFunction,Soldermask,Top*%
%TF.FilePolarity,Negative*%
%FSLAX46Y46*%
G04 Gerber Fmt 4.6, Leading zero omitted, Abs format (unit mm)*
G04 Created by KiCad (PCBNEW (5.99.0-13123-g97e9348ee1)) date 2021-12-06 14:29:08*
%MOMM*%
%LPD*%
G01*
G04 APERTURE LIST*
G04 Aperture macros list*
%AMRoundRect*
0 Rectangle with rounded corners*
0 $1 Rounding radius*
0 $2 $3 $4 $5 $6 $7 $8 $9 X,Y pos of 4 corners*
0 Add a 4 corners polygon primitive as box body*
4,1,4,$2,$3,$4,$5,$6,$7,$8,$9,$2,$3,0*
0 Add four circle primitives for the rounded corners*
1,1,$1+$1,$2,$3*
1,1,$1+$1,$4,$5*
1,1,$1+$1,$6,$7*
1,1,$1+$1,$8,$9*
0 Add four rect primitives between the rounded corners*
20,1,$1+$1,$2,$3,$4,$5,0*
20,1,$1+$1,$4,$5,$6,$7,0*
20,1,$1+$1,$6,$7,$8,$9,0*
20,1,$1+$1,$8,$9,$2,$3,0*%
G04 Aperture macros list end*
%ADD10C,0.650000*%
%ADD11R,0.600000X1.450000*%
%ADD12R,0.300000X1.450000*%
%ADD13O,1.100000X2.200000*%
%ADD14O,1.300000X1.900000*%
%ADD15C,3.500000*%
%ADD16RoundRect,0.120000X-0.630000X0.280000X-0.630000X-0.280000X0.630000X-0.280000X0.630000X0.280000X0*%
%ADD17RoundRect,0.090000X0.210000X0.210000X-0.210000X0.210000X-0.210000X-0.210000X0.210000X-0.210000X0*%
%ADD18RoundRect,0.090000X-0.210000X-0.210000X0.210000X-0.210000X0.210000X0.210000X-0.210000X0.210000X0*%
%ADD19R,0.300000X0.740000*%
%ADD20R,0.350000X0.740000*%
%ADD21RoundRect,0.091000X-0.259000X-0.684000X0.259000X-0.684000X0.259000X0.684000X-0.259000X0.684000X0*%
%ADD22RoundRect,0.144000X-0.456000X-0.756000X0.456000X-0.756000X0.456000X0.756000X-0.456000X0.756000X0*%
%ADD23RoundRect,0.150000X0.350000X0.550000X-0.350000X0.550000X-0.350000X-0.550000X0.350000X-0.550000X0*%
G04 APERTURE END LIST*
D10*
%TO.C,J1*%
X93110000Y-62749000D03*
X98890000Y-62749000D03*
D11*
X99250000Y-64075000D03*
X98450000Y-64075000D03*
D12*
X97250000Y-64075000D03*
X96254000Y-64075000D03*
X95750000Y-64075000D03*
X94750000Y-64075000D03*
D11*
X92750000Y-64075000D03*
X93550000Y-64075000D03*
D12*
X94250000Y-64075000D03*
X95250000Y-64075000D03*
X96750000Y-64075000D03*
X97750000Y-64075000D03*
D13*
X91700000Y-63300000D03*
X100300000Y-63300000D03*
D14*
X91700000Y-59100000D03*
X100300000Y-59100000D03*
%TD*%
D15*
%TO.C,J3*%
X103000000Y-58500000D03*
%TD*%
%TO.C,J4*%
X103000000Y-71000000D03*
%TD*%
%TO.C,J5*%
X89000000Y-71000000D03*
%TD*%
%TO.C,J6*%
X89000000Y-58500000D03*
%TD*%
D16*
%TO.C,F1*%
X91300000Y-65980000D03*
X91300000Y-67980000D03*
%TD*%
D17*
%TO.C,R2*%
X94990000Y-65900000D03*
X93990000Y-65900000D03*
%TD*%
D18*
%TO.C,R1*%
X97658300Y-65849500D03*
X98658300Y-65849500D03*
%TD*%
D19*
%TO.C,U2*%
X101072240Y-67728600D03*
D20*
X100572240Y-67728600D03*
D19*
X100072240Y-67728600D03*
X100072240Y-69088600D03*
D20*
X100572240Y-69088600D03*
D19*
X101072240Y-69088600D03*
%TD*%
D21*
%TO.C,J2*%
X94500000Y-67975000D03*
X95500000Y-67975000D03*
X96500000Y-67975000D03*
X97500000Y-67975000D03*
D22*
X93200000Y-71850000D03*
X98800000Y-71850000D03*
%TD*%
D23*
%TO.C,L1*%
X103400000Y-65330000D03*
X101400000Y-65330000D03*
%TD*%
M02*
