%TF.GenerationSoftware,KiCad,Pcbnew,(5.99.0-13123-g97e9348ee1)*%
%TF.CreationDate,2021-12-06T14:29:07+03:00*%
%TF.ProjectId,Daughterboard,44617567-6874-4657-9262-6f6172642e6b,rev?*%
%TF.SameCoordinates,Original*%
%TF.FileFunction,Copper,L1,Top*%
%TF.FilePolarity,Positive*%
%FSLAX46Y46*%
G04 Gerber Fmt 4.6, Leading zero omitted, Abs format (unit mm)*
G04 Created by KiCad (PCBNEW (5.99.0-13123-g97e9348ee1)) date 2021-12-06 14:29:07*
%MOMM*%
%LPD*%
G01*
G04 APERTURE LIST*
G04 Aperture macros list*
%AMRoundRect*
0 Rectangle with rounded corners*
0 $1 Rounding radius*
0 $2 $3 $4 $5 $6 $7 $8 $9 X,Y pos of 4 corners*
0 Add a 4 corners polygon primitive as box body*
4,1,4,$2,$3,$4,$5,$6,$7,$8,$9,$2,$3,0*
0 Add four circle primitives for the rounded corners*
1,1,$1+$1,$2,$3*
1,1,$1+$1,$4,$5*
1,1,$1+$1,$6,$7*
1,1,$1+$1,$8,$9*
0 Add four rect primitives between the rounded corners*
20,1,$1+$1,$2,$3,$4,$5,0*
20,1,$1+$1,$4,$5,$6,$7,0*
20,1,$1+$1,$6,$7,$8,$9,0*
20,1,$1+$1,$8,$9,$2,$3,0*%
G04 Aperture macros list end*
%TA.AperFunction,SMDPad,CuDef*%
%ADD10R,0.600000X1.450000*%
%TD*%
%TA.AperFunction,SMDPad,CuDef*%
%ADD11R,0.300000X1.450000*%
%TD*%
%TA.AperFunction,ComponentPad*%
%ADD12O,1.100000X2.200000*%
%TD*%
%TA.AperFunction,ComponentPad*%
%ADD13O,1.300000X1.900000*%
%TD*%
%TA.AperFunction,ComponentPad*%
%ADD14C,3.500000*%
%TD*%
%TA.AperFunction,SMDPad,CuDef*%
%ADD15RoundRect,0.120000X-0.630000X0.280000X-0.630000X-0.280000X0.630000X-0.280000X0.630000X0.280000X0*%
%TD*%
%TA.AperFunction,SMDPad,CuDef*%
%ADD16RoundRect,0.090000X0.210000X0.210000X-0.210000X0.210000X-0.210000X-0.210000X0.210000X-0.210000X0*%
%TD*%
%TA.AperFunction,SMDPad,CuDef*%
%ADD17RoundRect,0.090000X-0.210000X-0.210000X0.210000X-0.210000X0.210000X0.210000X-0.210000X0.210000X0*%
%TD*%
%TA.AperFunction,SMDPad,CuDef*%
%ADD18R,0.300000X0.740000*%
%TD*%
%TA.AperFunction,SMDPad,CuDef*%
%ADD19R,0.350000X0.740000*%
%TD*%
%TA.AperFunction,SMDPad,CuDef*%
%ADD20RoundRect,0.091000X-0.259000X-0.684000X0.259000X-0.684000X0.259000X0.684000X-0.259000X0.684000X0*%
%TD*%
%TA.AperFunction,SMDPad,CuDef*%
%ADD21RoundRect,0.144000X-0.456000X-0.756000X0.456000X-0.756000X0.456000X0.756000X-0.456000X0.756000X0*%
%TD*%
%TA.AperFunction,SMDPad,CuDef*%
%ADD22RoundRect,0.150000X0.350000X0.550000X-0.350000X0.550000X-0.350000X-0.550000X0.350000X-0.550000X0*%
%TD*%
%TA.AperFunction,ViaPad*%
%ADD23C,0.800000*%
%TD*%
%TA.AperFunction,ViaPad*%
%ADD24C,0.600000*%
%TD*%
%TA.AperFunction,Conductor*%
%ADD25C,0.600000*%
%TD*%
%TA.AperFunction,Conductor*%
%ADD26C,1.000000*%
%TD*%
%TA.AperFunction,Conductor*%
%ADD27C,1.100000*%
%TD*%
%TA.AperFunction,Conductor*%
%ADD28C,0.300000*%
%TD*%
%TA.AperFunction,Conductor*%
%ADD29C,0.350000*%
%TD*%
%TA.AperFunction,Conductor*%
%ADD30C,0.500000*%
%TD*%
G04 APERTURE END LIST*
D10*
%TO.P,J1,A1*%
%TO.N,GND*%
X99250000Y-64075000D03*
%TO.P,J1,A4*%
%TO.N,VBUS*%
X98450000Y-64075000D03*
D11*
%TO.P,J1,A5*%
%TO.N,Net-(J1-PadA5)*%
X97250000Y-64075000D03*
%TO.P,J1,A6*%
%TO.N,DBUS+*%
X96254000Y-64075000D03*
%TO.P,J1,A7*%
%TO.N,DBUS-*%
X95750000Y-64075000D03*
%TO.P,J1,A8*%
%TO.N,Net-(J1-PadA8)*%
X94750000Y-64075000D03*
D10*
%TO.P,J1,B1*%
%TO.N,GND*%
X92750000Y-64075000D03*
%TO.P,J1,B4*%
%TO.N,VBUS*%
X93550000Y-64075000D03*
D11*
%TO.P,J1,B5*%
%TO.N,Net-(J1-PadB5)*%
X94250000Y-64075000D03*
%TO.P,J1,B6*%
%TO.N,DBUS+*%
X95250000Y-64075000D03*
%TO.P,J1,B7*%
%TO.N,DBUS-*%
X96750000Y-64075000D03*
%TO.P,J1,B8*%
%TO.N,Net-(J1-PadB8)*%
X97750000Y-64075000D03*
D12*
%TO.P,J1,S*%
%TO.N,GNDPWR*%
X91700000Y-63300000D03*
X100300000Y-63300000D03*
D13*
X91700000Y-59100000D03*
X100300000Y-59100000D03*
%TD*%
D14*
%TO.P,J3,1*%
%TO.N,GNDPWR*%
X103000000Y-58500000D03*
%TD*%
%TO.P,J4,1*%
%TO.N,GNDPWR*%
X103000000Y-71000000D03*
%TD*%
%TO.P,J5,1*%
%TO.N,GNDPWR*%
X89000000Y-71000000D03*
%TD*%
%TO.P,J6,1*%
%TO.N,GNDPWR*%
X89000000Y-58500000D03*
%TD*%
D15*
%TO.P,F1,1*%
%TO.N,VBUS*%
X91300000Y-65980000D03*
%TO.P,F1,2*%
%TO.N,+5V*%
X91300000Y-67980000D03*
%TD*%
D16*
%TO.P,R2,1*%
%TO.N,GND*%
X94990000Y-65900000D03*
%TO.P,R2,2*%
%TO.N,Net-(J1-PadB5)*%
X93990000Y-65900000D03*
%TD*%
D17*
%TO.P,R1,1*%
%TO.N,Net-(J1-PadA5)*%
X97658300Y-65849500D03*
%TO.P,R1,2*%
%TO.N,GND*%
X98658300Y-65849500D03*
%TD*%
D18*
%TO.P,U2,1*%
%TO.N,DBUS-*%
X101072240Y-67728600D03*
D19*
%TO.P,U2,2*%
%TO.N,GND*%
X100572240Y-67728600D03*
D18*
%TO.P,U2,3*%
%TO.N,DBUS+*%
X100072240Y-67728600D03*
%TO.P,U2,4*%
%TO.N,D+*%
X100072240Y-69088600D03*
D19*
%TO.P,U2,5*%
%TO.N,VBUS*%
X100572240Y-69088600D03*
D18*
%TO.P,U2,6*%
%TO.N,D-*%
X101072240Y-69088600D03*
%TD*%
D20*
%TO.P,J2,1*%
%TO.N,+5V*%
X94500000Y-67975000D03*
%TO.P,J2,2*%
%TO.N,D-*%
X95500000Y-67975000D03*
%TO.P,J2,3*%
%TO.N,D+*%
X96500000Y-67975000D03*
%TO.P,J2,4*%
%TO.N,GND*%
X97500000Y-67975000D03*
D21*
%TO.P,J2,5*%
%TO.N,GNDPWR*%
X93200000Y-71850000D03*
%TO.P,J2,6*%
X98800000Y-71850000D03*
%TD*%
D22*
%TO.P,L1,1*%
%TO.N,GNDPWR*%
X103400000Y-65330000D03*
%TO.P,L1,2*%
%TO.N,GND*%
X101400000Y-65330000D03*
%TD*%
D23*
%TO.N,GND*%
X101650000Y-63870000D03*
X97500000Y-62225000D03*
X90250000Y-66980000D03*
X90400000Y-61900000D03*
X94550000Y-62225000D03*
X91325000Y-69675000D03*
X93440000Y-66960000D03*
X90400000Y-64775000D03*
X101825000Y-68880000D03*
X94300000Y-69675000D03*
X99875000Y-65475000D03*
X101650000Y-61900000D03*
X101825000Y-66710000D03*
X98890000Y-68040000D03*
D24*
%TO.N,VBUS*%
X98158300Y-65206880D03*
X99380000Y-69755000D03*
X92726804Y-65933219D03*
%TD*%
D25*
%TO.N,GNDPWR*%
X103400000Y-65330000D02*
X104285000Y-65330000D01*
D26*
X89850000Y-71850000D02*
X89000000Y-71000000D01*
X98800000Y-71850000D02*
X102150000Y-71850000D01*
X93200000Y-71850000D02*
X89850000Y-71850000D01*
X102150000Y-71850000D02*
X103000000Y-71000000D01*
D25*
X103400000Y-65330000D02*
X103400000Y-66415000D01*
X103400000Y-65330000D02*
X103400000Y-64245000D01*
D27*
X100300000Y-63300000D02*
X100300000Y-59100000D01*
D26*
X93200000Y-71850000D02*
X98800000Y-71850000D01*
D27*
X91700000Y-63300000D02*
X91700000Y-59100000D01*
D28*
X103380000Y-65330000D02*
X103380000Y-65150000D01*
%TO.N,GND*%
X94990000Y-65900000D02*
X94990000Y-66670000D01*
D25*
X97500000Y-67975000D02*
X98825000Y-67975000D01*
X101400000Y-65330000D02*
X101400000Y-64120000D01*
X101400000Y-65330000D02*
X101400000Y-66360000D01*
X99250000Y-64075000D02*
X99250000Y-65160000D01*
D29*
X100572240Y-67728600D02*
X100572240Y-68342240D01*
D25*
X98825000Y-67975000D02*
X98890000Y-68040000D01*
X101400000Y-65330000D02*
X100580000Y-65330000D01*
X101400000Y-64120000D02*
X101650000Y-63870000D01*
X92750000Y-64075000D02*
X92750000Y-65005000D01*
D29*
%TO.N,VBUS*%
X100568159Y-69591048D02*
X100569113Y-69585922D01*
X100547155Y-69649750D02*
X100549556Y-69645122D01*
X100500916Y-69708565D02*
X100504736Y-69705016D01*
X100556069Y-69630903D02*
X100558005Y-69626061D01*
X100536436Y-69667633D02*
X100539280Y-69663262D01*
X100510015Y-69699827D02*
X100513657Y-69696095D01*
X100551843Y-69640436D02*
X100554015Y-69635695D01*
X100544641Y-69654318D02*
X100547155Y-69649750D01*
X100513657Y-69696095D02*
X100517206Y-69692274D01*
X100508467Y-69701375D02*
X100510015Y-69699827D01*
X100561518Y-69616243D02*
X100563093Y-69611273D01*
X100504736Y-69705016D02*
X100508467Y-69701375D01*
X100434702Y-69749365D02*
X100439543Y-69747429D01*
X100554015Y-69635695D02*
X100556069Y-69630903D01*
X100414905Y-69755905D02*
X100419913Y-69754452D01*
X100542015Y-69658823D02*
X100544641Y-69654318D01*
X100488949Y-69718634D02*
X100493020Y-69715376D01*
X100517206Y-69692274D02*
X100520660Y-69688368D01*
X100409863Y-69757234D02*
X100414905Y-69755905D01*
X100533487Y-69671932D02*
X100536436Y-69667633D01*
X100559822Y-69621174D02*
X100561518Y-69616243D01*
X100493020Y-69715376D02*
X100497009Y-69712019D01*
X100520660Y-69688368D02*
X100524017Y-69684379D01*
X100564545Y-69606265D02*
X100565874Y-69601223D01*
X100558005Y-69626061D02*
X100559822Y-69621174D01*
X100539280Y-69663262D02*
X100542015Y-69658823D01*
X100524017Y-69684379D02*
X100527275Y-69680308D01*
X100497009Y-69712019D02*
X100500916Y-69708565D01*
X100565874Y-69601223D02*
X100567079Y-69596150D01*
D28*
X100363455Y-69738537D02*
X100368666Y-69738345D01*
D29*
X99375900Y-69763601D02*
X100358241Y-69763601D01*
X100389415Y-69761301D02*
X100394563Y-69760473D01*
X100563093Y-69611273D02*
X100564545Y-69606265D01*
X100453762Y-69740916D02*
X100458391Y-69738514D01*
D28*
X100368666Y-69738345D02*
X100373870Y-69738025D01*
X100358241Y-69738601D02*
X100363455Y-69738537D01*
D29*
X100484799Y-69721792D02*
X100488949Y-69718634D01*
X100429814Y-69751181D02*
X100434702Y-69749365D01*
X100439543Y-69747429D02*
X100444336Y-69745374D01*
X100571985Y-69560026D02*
X100572177Y-69554815D01*
X100571665Y-69565230D02*
X100571985Y-69560026D01*
X100572240Y-69549602D02*
X100572240Y-69113600D01*
X100449076Y-69743203D02*
X100453762Y-69740916D01*
X100471903Y-69730639D02*
X100476274Y-69727796D01*
X100384248Y-69762003D02*
X100389415Y-69761301D01*
X100571218Y-69570425D02*
X100571665Y-69565230D01*
X100419913Y-69754452D02*
X100424884Y-69752878D01*
X100424884Y-69752878D02*
X100429814Y-69751181D01*
X100462959Y-69736000D02*
X100467464Y-69733375D01*
X100476274Y-69727796D02*
X100480573Y-69724846D01*
X100569113Y-69585922D02*
X100569941Y-69580774D01*
X100570643Y-69575608D02*
X100571218Y-69570425D01*
X100444336Y-69745374D02*
X100449076Y-69743203D01*
X100404790Y-69758438D02*
X100409863Y-69757234D01*
X100567079Y-69596150D02*
X100568159Y-69591048D01*
X100379065Y-69762577D02*
X100384248Y-69762003D01*
X100549556Y-69645122D02*
X100551843Y-69640436D01*
X100572177Y-69554815D02*
X100572240Y-69549602D01*
X100530432Y-69676158D02*
X100533487Y-69671932D01*
X100458391Y-69738514D02*
X100462959Y-69736000D01*
X100527275Y-69680308D02*
X100530432Y-69676158D01*
D28*
X100373870Y-69738025D02*
X100379065Y-69737577D01*
D29*
X100467464Y-69733375D02*
X100471903Y-69730639D01*
X100480573Y-69724846D02*
X100484799Y-69721792D01*
X100569941Y-69580774D02*
X100570643Y-69575608D01*
X100399689Y-69759518D02*
X100404790Y-69758438D01*
X100394563Y-69760473D02*
X100399689Y-69759518D01*
D30*
X92570847Y-65968240D02*
X92597172Y-65964004D01*
X93488240Y-65050847D02*
X93484004Y-65077172D01*
X93316908Y-65495008D02*
X93301823Y-65516994D01*
X92544426Y-65971829D02*
X92570847Y-65968240D01*
D25*
X98158300Y-65206880D02*
X98450000Y-64915180D01*
D30*
X93345435Y-65449958D02*
X93331448Y-65472658D01*
X93160553Y-65680421D02*
X93141018Y-65698569D01*
X93467441Y-65155412D02*
X93460645Y-65181195D01*
X93500000Y-64891440D02*
X93499671Y-64918101D01*
X92491360Y-65977055D02*
X92517925Y-65974768D01*
X93286204Y-65538604D02*
X93270059Y-65559824D01*
X93236231Y-65601043D02*
X93218568Y-65621017D01*
X93331448Y-65472658D02*
X93316908Y-65495008D01*
X93181801Y-65659637D02*
X93179638Y-65661801D01*
X93270059Y-65559824D02*
X93253398Y-65580641D01*
X92851692Y-65886796D02*
X92827185Y-65897302D01*
X92623385Y-65959124D02*
X92649470Y-65953602D01*
X92517925Y-65974768D02*
X92544426Y-65971829D01*
X92899895Y-65863998D02*
X92875934Y-65875693D01*
X93500000Y-64125000D02*
X93550000Y-64075000D01*
X93417302Y-65307185D02*
X93406796Y-65331691D01*
X93499671Y-64918101D02*
X93498690Y-64944746D01*
X93479124Y-65103385D02*
X93473602Y-65129470D01*
X92923563Y-65851718D02*
X92899895Y-65863998D01*
X93500000Y-64891440D02*
X93500000Y-64125000D01*
X93445166Y-65232222D02*
X93436492Y-65257435D01*
X92777435Y-65916492D02*
X92752222Y-65925166D01*
X93121044Y-65716231D02*
X93100642Y-65733398D01*
X92946922Y-65838862D02*
X92923563Y-65851718D01*
X93358861Y-65426921D02*
X93345435Y-65449958D01*
X93395693Y-65355933D02*
X93383998Y-65379895D01*
X93371718Y-65403562D02*
X93358861Y-65426921D01*
X93453219Y-65206803D02*
X93445166Y-65232222D01*
X93058605Y-65766204D02*
X93036995Y-65781823D01*
X93079825Y-65750059D02*
X93058605Y-65766204D01*
X93141018Y-65698569D02*
X93121044Y-65716231D01*
X92597172Y-65964004D02*
X92623385Y-65959124D01*
X93383998Y-65379895D02*
X93371718Y-65403562D01*
X92992659Y-65811448D02*
X92969959Y-65825435D01*
X92411440Y-65980000D02*
X92438101Y-65979672D01*
X92464746Y-65978690D02*
X92491360Y-65977055D01*
X93200421Y-65640552D02*
X93181801Y-65659637D01*
X93460645Y-65181195D02*
X93453219Y-65206803D01*
X92438101Y-65979672D02*
X92464746Y-65978690D01*
X93484004Y-65077172D02*
X93479124Y-65103385D01*
X93491828Y-65024426D02*
X93488240Y-65050847D01*
X93494767Y-64997925D02*
X93491828Y-65024426D01*
X92675412Y-65947441D02*
X92701195Y-65940645D01*
X93253398Y-65580641D02*
X93236231Y-65601043D01*
X92969959Y-65825435D02*
X92946922Y-65838862D01*
X93015009Y-65796908D02*
X92992659Y-65811448D01*
X93179638Y-65661801D02*
X93160553Y-65680421D01*
X92649470Y-65953602D02*
X92675412Y-65947441D01*
X92701195Y-65940645D02*
X92726804Y-65933219D01*
X93406796Y-65331691D02*
X93395693Y-65355933D01*
X92752222Y-65925166D02*
X92726804Y-65933219D01*
X93498690Y-64944746D02*
X93497055Y-64971360D01*
X93100642Y-65733398D02*
X93079825Y-65750059D01*
X93036995Y-65781823D02*
X93015009Y-65796908D01*
X93427202Y-65282428D02*
X93417302Y-65307185D01*
X93436492Y-65257435D02*
X93427202Y-65282428D01*
X92827185Y-65897302D02*
X92802428Y-65907202D01*
X93301823Y-65516994D02*
X93286204Y-65538604D01*
X93497055Y-64971360D02*
X93494767Y-64997925D01*
X92802428Y-65907202D02*
X92777435Y-65916492D01*
X93218568Y-65621017D02*
X93200421Y-65640552D01*
X92875934Y-65875693D02*
X92851692Y-65886796D01*
D25*
X98450000Y-64915180D02*
X98450000Y-64075000D01*
D30*
X93473602Y-65129470D02*
X93467441Y-65155412D01*
X91300000Y-65980000D02*
X92411440Y-65980000D01*
X92726804Y-65933219D02*
X92726804Y-65933219D01*
%TO.N,+5V*%
X94500000Y-67975000D02*
X91305000Y-67975000D01*
X91305000Y-67975000D02*
X91300000Y-67980000D01*
D28*
%TO.N,DBUS-*%
X96468482Y-63014974D02*
X96476637Y-63016493D01*
X96832384Y-66059896D02*
X96824498Y-66044696D01*
X96803109Y-65998000D02*
X96796751Y-65982100D01*
X97075707Y-66321733D02*
X97061354Y-66312395D01*
X96443827Y-63011626D02*
X96452072Y-63012540D01*
X96858246Y-66104271D02*
X96849263Y-66089692D01*
X96942394Y-66212096D02*
X96930739Y-66199550D01*
X96717549Y-63204790D02*
X96713910Y-63197335D01*
X95826718Y-63136400D02*
X95832059Y-63130052D01*
X95816512Y-63149478D02*
X95821535Y-63142876D01*
X96637677Y-63097554D02*
X96643755Y-63103200D01*
X97397653Y-66428089D02*
X97380592Y-66426620D01*
X95903043Y-63066959D02*
X95909997Y-63062435D01*
X97033355Y-66292676D02*
X97019727Y-66282307D01*
X96562662Y-63046087D02*
X96570025Y-63049908D01*
X100962466Y-66860532D02*
X100952024Y-66842615D01*
X96743505Y-63283361D02*
X96741787Y-63275245D01*
X96955626Y-66225626D02*
X96954353Y-66224353D01*
X100225200Y-66429980D02*
X97448980Y-66429980D01*
X100509863Y-66479373D02*
X100490252Y-66472627D01*
X95760128Y-63268694D02*
X95762242Y-63260673D01*
X96701913Y-63175538D02*
X96697562Y-63168476D01*
X95896203Y-63071652D02*
X95903043Y-63066959D01*
X100287360Y-66432269D02*
X100266660Y-66430997D01*
X96785214Y-65949857D02*
X96780042Y-65933533D01*
X100880439Y-66740972D02*
X100867087Y-66725104D01*
X96930739Y-66199550D02*
X96919396Y-66186722D01*
X95767058Y-63244798D02*
X95769756Y-63236954D01*
X97181978Y-66376870D02*
X97166239Y-66370123D01*
X96460292Y-63013657D02*
X96468482Y-63014974D01*
X96651005Y-63110305D02*
X96649693Y-63108993D01*
X97105080Y-66339338D02*
X97090286Y-66330716D01*
X96732941Y-63243278D02*
X96730242Y-63235434D01*
X100567618Y-66502470D02*
X100548557Y-66494299D01*
X95806960Y-63163041D02*
X95811653Y-63156201D01*
X96049447Y-63012540D02*
X96057692Y-63011625D01*
X101069950Y-67214859D02*
X101068171Y-67194197D01*
X100548557Y-66494299D02*
X100529302Y-66486599D01*
X100641686Y-66539752D02*
X100623518Y-66529753D01*
X101007920Y-66953661D02*
X100999749Y-66934600D01*
X97246446Y-66399936D02*
X97230121Y-66394765D01*
X96476637Y-63016493D02*
X96484752Y-63018211D01*
X100824752Y-66679532D02*
X100822687Y-66677467D01*
X97363573Y-66424732D02*
X97346604Y-66422428D01*
X97213929Y-66389194D02*
X97197878Y-66383228D01*
X95848994Y-63111824D02*
X95851826Y-63108993D01*
X96435562Y-63010914D02*
X96443827Y-63011626D01*
X95789908Y-63191491D02*
X95793908Y-63184224D01*
X96016766Y-63018210D02*
X96024882Y-63016492D01*
X95924226Y-63053907D02*
X95931493Y-63049907D01*
X100952024Y-66842615D02*
X100941144Y-66824959D01*
X96753359Y-65799387D02*
X96751890Y-65782326D01*
X95772646Y-63229178D02*
X95775726Y-63221476D01*
X96540041Y-63035726D02*
X96547665Y-63038995D01*
X96090821Y-63009999D02*
X96410699Y-63009999D01*
X96775273Y-65917087D02*
X96770909Y-65900528D01*
X95775726Y-63221476D02*
X95778995Y-63213851D01*
X96745023Y-63291516D02*
X96743505Y-63283361D01*
X95802436Y-63169995D02*
X95806960Y-63163041D01*
X95762242Y-63260673D02*
X95764552Y-63252706D01*
X96024882Y-63016492D02*
X96033037Y-63014974D01*
X96809856Y-66013739D02*
X96803109Y-65998000D01*
X97006358Y-66271607D02*
X96993256Y-66260582D01*
X96721003Y-63212332D02*
X96717549Y-63204790D01*
X96673279Y-63134881D02*
X96667939Y-63128534D01*
X97061354Y-66312395D02*
X97047234Y-66302707D01*
X95969180Y-63032645D02*
X95976955Y-63029755D01*
X95793908Y-63184224D02*
X95798085Y-63177057D01*
X96750000Y-65731000D02*
X96750000Y-63525000D01*
X96662444Y-63122319D02*
X96656798Y-63116242D01*
X96688345Y-63154682D02*
X96683486Y-63147959D01*
X96919396Y-66186722D02*
X96908371Y-66173620D01*
X96887303Y-66146622D02*
X96877272Y-66132744D01*
X100390046Y-66446215D02*
X100369658Y-66442419D01*
X96570025Y-63049908D02*
X96577292Y-63053908D01*
X96763406Y-65867115D02*
X96760271Y-65850281D01*
X100893397Y-66757164D02*
X100880439Y-66740972D01*
X96750000Y-63349300D02*
X96750000Y-63525000D01*
X97197878Y-66383228D02*
X97181978Y-66376870D01*
X97380592Y-66426620D02*
X97363573Y-66424732D01*
X95931493Y-63049907D02*
X95938856Y-63046087D01*
X97296111Y-66413027D02*
X97279450Y-66409070D01*
X96877272Y-66132744D02*
X96867584Y-66118624D01*
X95750000Y-63350820D02*
X95750000Y-63525000D01*
X95753657Y-63301226D02*
X95754975Y-63293036D01*
X95750406Y-63334235D02*
X95750914Y-63325955D01*
X96796751Y-65982100D02*
X96790785Y-65966050D01*
X96484752Y-63018211D02*
X96492823Y-63020128D01*
X95756493Y-63284881D02*
X95758211Y-63276765D01*
X96760271Y-65850281D02*
X96757551Y-65833374D01*
X100991113Y-66915746D02*
X100982017Y-66897109D01*
X96750210Y-65748122D02*
X96750000Y-65731000D01*
X97135282Y-66355481D02*
X97120082Y-66347595D01*
X101071985Y-67256283D02*
X101071222Y-67235558D01*
X96427283Y-63010406D02*
X96435562Y-63010914D01*
X96713910Y-63197335D02*
X96710090Y-63189972D01*
X95821535Y-63142876D02*
X95826718Y-63136400D01*
X97047234Y-66302707D02*
X97033355Y-66292676D01*
X96706090Y-63182705D02*
X96701913Y-63175538D01*
X100982017Y-66897109D02*
X100972466Y-66878701D01*
X96500844Y-63022242D02*
X96508811Y-63024552D01*
X95953853Y-63038994D02*
X95961477Y-63035726D01*
X95876402Y-63086718D02*
X95882878Y-63081534D01*
X96577292Y-63053908D02*
X96584459Y-63058085D01*
X95843200Y-63117760D02*
X95848994Y-63111824D01*
X100853349Y-66709568D02*
X100839235Y-66694374D01*
X101022846Y-66992356D02*
X101015620Y-66972917D01*
X96755247Y-65816406D02*
X96753359Y-65799387D01*
X95778995Y-63213851D02*
X95782449Y-63206310D01*
X95837554Y-63123838D02*
X95843200Y-63117760D01*
X96730242Y-63235434D02*
X96727352Y-63227659D01*
X96584459Y-63058085D02*
X96591521Y-63062436D01*
X101041631Y-67051654D02*
X101035855Y-67031736D01*
X97448980Y-66429980D02*
X97431857Y-66429769D01*
X100623518Y-66529753D02*
X100605109Y-66520202D01*
X96555207Y-63042449D02*
X96562662Y-63046087D01*
X100430511Y-66455302D02*
X100410334Y-66450510D01*
X96816987Y-66029307D02*
X96809856Y-66013739D01*
X97346604Y-66422428D02*
X97329698Y-66419708D01*
X96739870Y-63267175D02*
X96737756Y-63259153D01*
X97150671Y-66362992D02*
X97135282Y-66355481D01*
X96737756Y-63259153D02*
X96735446Y-63251186D01*
X100972466Y-66878701D02*
X100962466Y-66860532D01*
X96605315Y-63071653D02*
X96612038Y-63076512D01*
X96656798Y-63116242D02*
X96651005Y-63110305D01*
X97019727Y-66282307D02*
X97006358Y-66271607D01*
X96766952Y-65883868D02*
X96763406Y-65867115D01*
X95976955Y-63029755D02*
X95984799Y-63027057D01*
X100839235Y-66694374D02*
X100824752Y-66679532D01*
X96598475Y-63066960D02*
X96605315Y-63071653D01*
X100490252Y-66472627D02*
X100470483Y-66466364D01*
X96757551Y-65833374D02*
X96755247Y-65816406D01*
X96867584Y-66118624D02*
X96858246Y-66104271D01*
X101035855Y-67031736D02*
X101029592Y-67011966D01*
X100999749Y-66934600D02*
X100991113Y-66915746D01*
X95750100Y-63342525D02*
X95750406Y-63334235D01*
X101065885Y-67173585D02*
X101063094Y-67153036D01*
X100245936Y-66430234D02*
X100225200Y-66429980D01*
X95870054Y-63092058D02*
X95876402Y-63086718D01*
X96041227Y-63013656D02*
X96049447Y-63012540D01*
X96008696Y-63020127D02*
X96016766Y-63018210D01*
X95984799Y-63027057D02*
X95992707Y-63024551D01*
X97090286Y-66330716D02*
X97075707Y-66321733D01*
X96750840Y-65765234D02*
X96750210Y-65748122D01*
X95909997Y-63062435D02*
X95917059Y-63058084D01*
X95750000Y-63350820D02*
X95750100Y-63342525D01*
X96747458Y-63307926D02*
X96746341Y-63299706D01*
X96897671Y-66160250D02*
X96887303Y-66146622D01*
X95992707Y-63024551D02*
X96000674Y-63022241D01*
X97262892Y-66404706D02*
X97246446Y-66399936D01*
X96667939Y-63128534D02*
X96662444Y-63122319D01*
X96643755Y-63103200D02*
X96649693Y-63108993D01*
X96065956Y-63010914D02*
X96074236Y-63010405D01*
X96516719Y-63027057D02*
X96524563Y-63029756D01*
X100905955Y-66773668D02*
X100893397Y-66757164D01*
X95782449Y-63206310D02*
X95786088Y-63198855D01*
X100677259Y-66561074D02*
X100659603Y-66550195D01*
X100929835Y-66807576D02*
X100918103Y-66790475D01*
X96618639Y-63081535D02*
X96625116Y-63086718D01*
X95769756Y-63236954D02*
X95772646Y-63229178D01*
X95752540Y-63309446D02*
X95753657Y-63301226D01*
X96735446Y-63251186D02*
X96732941Y-63243278D01*
X100792650Y-66648869D02*
X100777114Y-66635132D01*
X96780042Y-65933533D02*
X96775273Y-65917087D01*
X95857763Y-63103199D02*
X95863840Y-63097553D01*
X100659603Y-66550195D02*
X100641686Y-66539752D01*
X97279450Y-66409070D02*
X97262892Y-66404706D01*
X96849263Y-66089692D02*
X96840641Y-66074898D01*
X101059799Y-67132561D02*
X101056004Y-67112173D01*
X97230121Y-66394765D02*
X97213929Y-66389194D01*
X96790785Y-65966050D02*
X96785214Y-65949857D01*
X101063094Y-67153036D02*
X101059799Y-67132561D01*
X95917059Y-63058084D02*
X95924226Y-63053907D01*
X96418993Y-63010100D02*
X96427283Y-63010406D01*
X96591521Y-63062436D02*
X96598475Y-63066960D01*
X95938856Y-63046087D02*
X95946311Y-63042448D01*
X95786088Y-63198855D02*
X95789908Y-63191491D01*
X95851826Y-63108993D02*
X95857763Y-63103199D01*
X95961477Y-63035726D02*
X95969180Y-63032645D01*
X100586473Y-66511106D02*
X100567618Y-66502470D01*
X96770909Y-65900528D02*
X96766952Y-65883868D01*
X96980427Y-66249239D02*
X96967882Y-66237584D01*
X101072240Y-67277020D02*
X101072240Y-67728600D01*
X95863840Y-63097553D02*
X95870054Y-63092058D01*
X100410334Y-66450510D02*
X100390046Y-66446215D01*
X95889480Y-63076511D02*
X95896203Y-63071652D01*
X96746341Y-63299706D02*
X96745023Y-63291516D01*
X96492823Y-63020128D02*
X96500844Y-63022242D01*
X101029592Y-67011966D02*
X101022846Y-66992356D01*
X100369658Y-66442419D02*
X100349183Y-66439125D01*
X100711743Y-66584115D02*
X100694642Y-66572383D01*
X100807843Y-66662983D02*
X100792650Y-66648869D01*
X97120082Y-66347595D02*
X97105080Y-66339338D01*
X100761245Y-66621780D02*
X100745054Y-66608821D01*
X96749084Y-63324435D02*
X96748372Y-63316171D01*
X95750914Y-63325955D02*
X95751626Y-63317691D01*
X96000674Y-63022241D02*
X96008696Y-63020127D01*
X96532339Y-63032646D02*
X96540041Y-63035726D01*
X96452072Y-63012540D02*
X96460292Y-63013657D01*
X101046917Y-67071707D02*
X101041631Y-67051654D01*
X96524563Y-63029756D02*
X96532339Y-63032646D01*
X96724272Y-63219956D02*
X96721003Y-63212332D01*
X100328633Y-66436334D02*
X100308021Y-66434048D01*
X96082526Y-63010100D02*
X96090821Y-63009999D01*
X96625116Y-63086718D02*
X96631463Y-63092059D01*
X101068171Y-67194197D02*
X101065885Y-67173585D01*
X95832059Y-63130052D02*
X95837554Y-63123838D01*
X97166239Y-66370123D02*
X97150671Y-66362992D01*
X100918103Y-66790475D02*
X100905955Y-66773668D01*
X96410699Y-63009999D02*
X96418993Y-63010100D01*
X96678463Y-63141357D02*
X96673279Y-63134881D01*
X96710090Y-63189972D02*
X96706090Y-63182705D01*
X96749592Y-63332715D02*
X96749084Y-63324435D01*
X100728550Y-66596264D02*
X100711743Y-66584115D01*
X100745054Y-66608821D02*
X100728550Y-66596264D01*
X100777114Y-66635132D02*
X100761245Y-66621780D01*
X101072240Y-67277020D02*
X101071985Y-67256283D01*
X101071222Y-67235558D02*
X101069950Y-67214859D01*
X95798085Y-63177057D02*
X95802436Y-63169995D01*
X96697562Y-63168476D02*
X96693038Y-63161522D01*
X100529302Y-66486599D02*
X100509863Y-66479373D01*
X96908371Y-66173620D02*
X96897671Y-66160250D01*
X100605109Y-66520202D02*
X100586473Y-66511106D01*
X101051708Y-67091884D02*
X101046917Y-67071707D01*
X96824498Y-66044696D02*
X96816987Y-66029307D01*
X100822687Y-66677467D02*
X100807843Y-66662983D01*
X100470483Y-66466364D02*
X100450565Y-66460588D01*
X95751626Y-63317691D02*
X95752540Y-63309446D01*
X100308021Y-66434048D02*
X100287360Y-66432269D01*
X96741787Y-63275245D02*
X96739870Y-63267175D01*
X96751890Y-65782326D02*
X96750840Y-65765234D01*
X101015620Y-66972917D02*
X101007920Y-66953661D01*
X96057692Y-63011625D02*
X96065956Y-63010914D01*
X97312863Y-66416573D02*
X97296111Y-66413027D01*
X100694642Y-66572383D02*
X100677259Y-66561074D01*
X96750000Y-63349300D02*
X96749898Y-63341005D01*
X95946311Y-63042448D02*
X95953853Y-63038994D01*
X96547665Y-63038995D02*
X96555207Y-63042449D01*
X95754975Y-63293036D02*
X95756493Y-63284881D01*
X100266660Y-66430997D02*
X100245936Y-66430234D01*
X100867087Y-66725104D02*
X100853349Y-66709568D01*
X95758211Y-63276765D02*
X95760128Y-63268694D01*
X96508811Y-63024552D02*
X96516719Y-63027057D01*
X100450565Y-66460588D02*
X100430511Y-66455302D01*
X95882878Y-63081534D02*
X95889480Y-63076511D01*
X100941144Y-66824959D02*
X100929835Y-66807576D01*
X101056004Y-67112173D02*
X101051708Y-67091884D01*
X96748372Y-63316171D02*
X96747458Y-63307926D01*
X96631463Y-63092059D02*
X96637677Y-63097554D01*
X96033037Y-63014974D02*
X96041227Y-63013656D01*
X95811653Y-63156201D02*
X95816512Y-63149478D01*
X96693038Y-63161522D02*
X96688345Y-63154682D01*
X96074236Y-63010405D02*
X96082526Y-63010100D01*
X96840641Y-66074898D02*
X96832384Y-66059896D01*
X96749898Y-63341005D02*
X96749592Y-63332715D01*
X96612038Y-63076512D02*
X96618639Y-63081535D01*
X97329698Y-66419708D02*
X97312863Y-66416573D01*
X95764552Y-63252706D02*
X95767058Y-63244798D01*
X96954353Y-66224353D02*
X96942394Y-66212096D01*
X97414745Y-66429139D02*
X97397653Y-66428089D01*
X96683486Y-63147959D02*
X96678463Y-63141357D01*
X100349183Y-66439125D02*
X100328633Y-66436334D01*
X96993256Y-66260582D02*
X96980427Y-66249239D01*
X96967882Y-66237584D02*
X96955626Y-66225626D01*
X97431857Y-66429769D02*
X97414745Y-66429139D01*
X96727352Y-63227659D02*
X96724272Y-63219956D01*
%TO.N,DBUS+*%
X96625168Y-66591892D02*
X95532842Y-65499566D01*
X100071055Y-67325554D02*
X100070134Y-67314869D01*
X95829035Y-65796075D02*
X95842439Y-65808526D01*
X95842439Y-65808526D02*
X95856723Y-65819957D01*
X96262424Y-65893847D02*
X96259393Y-65866522D01*
X99986246Y-67097395D02*
X99979752Y-67088860D01*
X95284979Y-65074284D02*
X95278938Y-65051366D01*
X96399527Y-66308865D02*
X96386271Y-66284779D01*
X100065805Y-67282994D02*
X100063842Y-67272450D01*
X96221009Y-65742837D02*
X96229435Y-65726598D01*
X99877298Y-66993633D02*
X99886142Y-66999700D01*
X95273462Y-65028306D02*
X95268553Y-65005119D01*
X95332845Y-65208059D02*
X95323507Y-65186275D01*
X96257034Y-65839130D02*
X96255349Y-65811689D01*
X99688020Y-66923276D02*
X99698647Y-66924719D01*
X100053423Y-67230853D02*
X100050184Y-67220629D01*
X95278938Y-65051366D02*
X95273462Y-65028306D01*
X96664988Y-66629804D02*
X96644845Y-66611092D01*
X95342714Y-65229607D02*
X95332845Y-65208059D01*
X97171829Y-66892771D02*
X97145080Y-66886419D01*
X96938320Y-66812439D02*
X96913613Y-66800380D01*
X95469199Y-65429348D02*
X95454389Y-65410844D01*
X99740705Y-66933085D02*
X99751076Y-66935818D01*
X95532842Y-65499566D02*
X95516289Y-65482603D01*
X95484458Y-65447483D02*
X95469199Y-65429348D01*
X96865123Y-66774461D02*
X96841370Y-66760618D01*
X100072240Y-67357700D02*
X100072240Y-67728600D01*
X96242595Y-65692483D02*
X96247257Y-65674792D01*
X96266124Y-65921090D02*
X96262424Y-65893847D01*
X99919948Y-67026082D02*
X99927982Y-67033187D01*
X99751076Y-66935818D02*
X99761376Y-66938805D01*
X100070134Y-67314869D02*
X100068952Y-67304209D01*
X96099876Y-65849947D02*
X96116510Y-65842329D01*
X100010070Y-67133050D02*
X100004444Y-67123920D01*
X99959041Y-67064246D02*
X99951742Y-67056389D01*
X99709235Y-66926423D02*
X99719779Y-66928386D01*
X97280142Y-66911565D02*
X97252899Y-66907865D01*
X95856723Y-65819957D02*
X95871809Y-65830308D01*
X99868308Y-66987784D02*
X99877298Y-66993633D01*
X96544185Y-66509000D02*
X96525973Y-66488404D01*
X100015470Y-67142316D02*
X100010070Y-67133050D01*
X96250606Y-65656806D02*
X96252623Y-65638622D01*
X97014113Y-66844928D02*
X96988585Y-66834720D01*
X99859178Y-66982158D02*
X99868308Y-66987784D01*
X96255349Y-65811689D02*
X96254337Y-65784214D01*
X95264215Y-64981819D02*
X95260450Y-64958419D01*
X99791794Y-66949270D02*
X99801751Y-66953252D01*
X100046695Y-67210488D02*
X100042958Y-67200435D01*
X96132538Y-65833507D02*
X96147873Y-65823530D01*
X99677360Y-66922094D02*
X99688020Y-66923276D01*
X96310538Y-66108108D02*
X96302235Y-66081899D01*
X95992575Y-65868566D02*
X96010869Y-65868790D01*
X95254648Y-64911377D02*
X95252615Y-64887764D01*
X95257260Y-64934934D02*
X95254648Y-64911377D01*
X95291580Y-65097047D02*
X95284979Y-65074284D01*
X99992528Y-67106087D02*
X99986246Y-67097395D01*
X96259393Y-65866522D02*
X96257034Y-65839130D01*
X96116510Y-65842329D02*
X96132538Y-65833507D01*
X99655971Y-66920516D02*
X99666675Y-66921173D01*
X96386271Y-66284779D02*
X96373609Y-66260375D01*
X100025580Y-67161231D02*
X100020641Y-67151712D01*
X96254000Y-65756724D02*
X96254000Y-63525000D01*
X95375453Y-65292708D02*
X95364025Y-65271944D01*
X96508272Y-66467367D02*
X96491093Y-66445902D01*
X99979752Y-67088860D02*
X99973050Y-67080487D01*
X95250289Y-64840423D02*
X95250000Y-64816724D01*
X95268553Y-65005119D02*
X95264215Y-64981819D01*
X96294577Y-66055493D02*
X96287570Y-66028908D01*
X100061621Y-67261958D02*
X100059143Y-67251524D01*
X96319481Y-66134105D02*
X96310538Y-66108108D01*
X99951742Y-67056389D02*
X99944253Y-67048713D01*
X100056410Y-67241153D02*
X100053423Y-67230853D01*
X96442786Y-66379070D02*
X96427794Y-66356024D01*
X95887615Y-65839520D02*
X95904057Y-65847544D01*
X99935839Y-67040486D02*
X99943516Y-67047976D01*
X97362300Y-66918640D02*
X97334859Y-66916954D01*
X96728086Y-66682896D02*
X96706621Y-66665717D01*
X96010869Y-65868790D02*
X96029129Y-65867669D01*
X99894833Y-67005982D02*
X99903368Y-67012476D01*
X99761376Y-66938805D02*
X99771600Y-66942044D01*
X96706621Y-66665717D02*
X96685584Y-66648016D01*
X96685584Y-66648016D02*
X96664988Y-66629804D01*
X96963316Y-66823888D02*
X96938320Y-66812439D01*
X99801751Y-66953252D02*
X99811609Y-66957477D01*
X96794918Y-66731202D02*
X96772247Y-66715649D01*
X96162433Y-65812453D02*
X96176139Y-65800334D01*
X99666675Y-66921173D02*
X99677360Y-66922094D01*
X96841370Y-66760618D02*
X96817963Y-66746195D01*
X95454389Y-65410844D02*
X95440038Y-65391981D01*
X96889209Y-66787718D02*
X96865123Y-66774461D01*
X100068952Y-67304209D02*
X100067509Y-67293582D01*
X99849912Y-66976758D02*
X99859178Y-66982158D01*
X96772247Y-66715649D02*
X96749966Y-66699543D01*
X96254337Y-65784214D02*
X96254000Y-65756724D01*
X100072240Y-67357700D02*
X100072107Y-67346976D01*
X95298738Y-65119641D02*
X95291580Y-65097047D01*
X99730271Y-66930607D02*
X99740705Y-66933085D01*
X95306448Y-65142053D02*
X95298738Y-65119641D01*
X97225755Y-66903498D02*
X97198726Y-66898465D01*
X97334859Y-66916954D02*
X97307467Y-66914595D01*
X100034751Y-67180620D02*
X100030284Y-67170869D01*
X97118495Y-66879412D02*
X97092090Y-66871754D01*
X96458340Y-66401740D02*
X96442786Y-66379070D01*
X100020641Y-67151712D02*
X100015470Y-67142316D01*
X97145080Y-66886419D02*
X97118495Y-66879412D01*
X96211412Y-65758413D02*
X96221009Y-65742837D01*
X99645253Y-66920121D02*
X99655971Y-66920516D01*
X96491093Y-66445902D02*
X96474445Y-66424022D01*
X99886142Y-66999700D02*
X99894833Y-67005982D01*
X99973050Y-67080487D02*
X99966145Y-67072280D01*
X99811609Y-66957477D02*
X99821359Y-66961943D01*
X95399821Y-65333363D02*
X95387388Y-65313185D01*
X99821359Y-66961943D02*
X99830997Y-66966647D01*
X96270491Y-65948234D02*
X96266124Y-65921090D01*
X95440038Y-65391981D02*
X95426154Y-65372773D01*
X95516289Y-65482603D02*
X95500158Y-65465238D01*
X97039883Y-66854507D02*
X97014113Y-66844928D01*
X95974347Y-65866996D02*
X95992575Y-65868566D01*
X95387388Y-65313185D02*
X95375453Y-65292708D01*
X95252615Y-64887764D02*
X95251161Y-64864107D01*
X96082728Y-65856322D02*
X96099876Y-65849947D01*
X96281218Y-66002159D02*
X96275524Y-65975262D01*
X95314706Y-65164269D02*
X95306448Y-65142053D01*
X96350101Y-66210672D02*
X96339269Y-66185403D01*
X100050184Y-67220629D02*
X100046695Y-67210488D01*
X95871809Y-65830308D02*
X95887615Y-65839520D01*
X95250000Y-64816724D02*
X95250000Y-63525000D01*
X96236643Y-65709783D02*
X96242595Y-65692483D01*
X95956285Y-65864090D02*
X95974347Y-65866996D01*
X95353110Y-65250907D02*
X95342714Y-65229607D01*
X100004444Y-67123920D02*
X99998595Y-67114930D01*
X96427794Y-66356024D02*
X96413371Y-66332618D01*
X96302235Y-66081899D02*
X96294577Y-66055493D01*
X95251161Y-64864107D02*
X95250289Y-64840423D01*
X97252899Y-66907865D02*
X97225755Y-66903498D01*
X97307467Y-66914595D02*
X97280142Y-66911565D01*
X96644845Y-66611092D02*
X96625168Y-66591892D01*
X100042958Y-67200435D02*
X100038976Y-67190477D01*
X95260450Y-64958419D02*
X95257260Y-64934934D01*
X99719779Y-66928386D02*
X99730271Y-66930607D01*
X99911742Y-67019178D02*
X99919948Y-67026082D01*
X97417266Y-66919990D02*
X97389775Y-66919652D01*
X95938485Y-65859863D02*
X95956285Y-65864090D01*
X96988585Y-66834720D02*
X96963316Y-66823888D01*
X95904057Y-65847544D02*
X95921044Y-65854338D01*
X99927982Y-67033187D02*
X99935839Y-67040486D01*
X99998595Y-67114930D02*
X99992528Y-67106087D01*
X96200694Y-65773240D02*
X96211412Y-65758413D01*
X96817963Y-66746195D02*
X96794918Y-66731202D01*
X97065880Y-66863451D02*
X97039883Y-66854507D01*
X100071712Y-67336258D02*
X100071055Y-67325554D01*
X96373609Y-66260375D02*
X96361550Y-66235668D01*
X100072107Y-67346976D02*
X100071712Y-67336258D01*
X96065157Y-65861417D02*
X96082728Y-65856322D01*
X95412746Y-65353229D02*
X95399821Y-65333363D01*
X99840517Y-66971587D02*
X99849912Y-66976758D01*
X96913613Y-66800380D02*
X96889209Y-66787718D01*
X99943516Y-67047976D02*
X99944253Y-67048713D01*
X96287570Y-66028908D02*
X96281218Y-66002159D01*
X95364025Y-65271944D02*
X95353110Y-65250907D01*
X99634530Y-66919990D02*
X97417266Y-66919990D01*
X97389775Y-66919652D02*
X97362300Y-66918640D01*
X99634530Y-66919990D02*
X99645253Y-66920121D01*
X100067509Y-67293582D02*
X100065805Y-67282994D01*
X96582097Y-66548821D02*
X96625168Y-66591892D01*
X99771600Y-66942044D02*
X99781741Y-66945533D01*
X99698647Y-66924719D02*
X99709235Y-66926423D01*
X95323507Y-65186275D02*
X95314706Y-65164269D01*
X100038976Y-67190477D02*
X100034751Y-67180620D01*
X96562897Y-66529142D02*
X96544185Y-66509000D01*
X99781741Y-66945533D02*
X99791794Y-66949270D01*
X96047258Y-65865206D02*
X96065157Y-65861417D01*
X96252623Y-65638622D02*
X96253300Y-65620340D01*
X96474445Y-66424022D02*
X96458340Y-66401740D01*
X96247257Y-65674792D02*
X96250606Y-65656806D01*
X96525973Y-66488404D02*
X96508272Y-66467367D01*
X96188915Y-65787239D02*
X96200694Y-65773240D01*
X96749966Y-66699543D02*
X96728086Y-66682896D01*
X96582097Y-66548821D02*
X96562897Y-66529142D01*
X96329061Y-66159876D02*
X96319481Y-66134105D01*
X100063842Y-67272450D02*
X100061621Y-67261958D01*
X99830997Y-66966647D02*
X99840517Y-66971587D01*
X96361550Y-66235668D02*
X96350101Y-66210672D01*
X100030284Y-67170869D02*
X100025580Y-67161231D01*
X96029129Y-65867669D02*
X96047258Y-65865206D01*
X96176139Y-65800334D02*
X96188915Y-65787239D01*
X97092090Y-66871754D02*
X97065880Y-66863451D01*
X95426154Y-65372773D02*
X95412746Y-65353229D01*
X99966145Y-67072280D02*
X99959041Y-67064246D01*
X95921044Y-65854338D02*
X95938485Y-65859863D01*
X97198726Y-66898465D02*
X97171829Y-66892771D01*
X96275524Y-65975262D02*
X96270491Y-65948234D01*
X96229435Y-65726598D02*
X96236643Y-65709783D01*
X96339269Y-66185403D02*
X96329061Y-66159876D01*
X95500158Y-65465238D02*
X95484458Y-65447483D01*
X96413371Y-66332618D02*
X96399527Y-66308865D01*
X100059143Y-67251524D02*
X100056410Y-67241153D01*
X96147873Y-65823530D02*
X96162433Y-65812453D01*
X99903368Y-67012476D02*
X99911742Y-67019178D01*
%TO.N,Net-(J1-PadB5)*%
X94248837Y-65563663D02*
X94248183Y-65569552D01*
X94221492Y-65653804D02*
X94218635Y-65658995D01*
X94249360Y-63525640D02*
X94250000Y-63525000D01*
X94248183Y-65569552D02*
X94247386Y-65575423D01*
X94246445Y-65581273D02*
X94245360Y-65587098D01*
X94244133Y-65592895D02*
X94242764Y-65598660D01*
X94247386Y-65575423D02*
X94246445Y-65581273D01*
X94235887Y-65621332D02*
X94233822Y-65626885D01*
X94212543Y-65669159D02*
X94209312Y-65674125D01*
X94202489Y-65683813D02*
X94198901Y-65688529D01*
X94198901Y-65688529D02*
X94195199Y-65693155D01*
X94237814Y-65615729D02*
X94235887Y-65621332D01*
X94231622Y-65632387D02*
X94229287Y-65637833D01*
X94233822Y-65626885D02*
X94231622Y-65632387D01*
X94183426Y-65706468D02*
X94179289Y-65710710D01*
X94187459Y-65702127D02*
X94183426Y-65706468D01*
X94229287Y-65637833D02*
X94226820Y-65643220D01*
X94215652Y-65664114D02*
X94212543Y-65669159D01*
X94241254Y-65604389D02*
X94239604Y-65610080D01*
X94249345Y-65557759D02*
X94248837Y-65563663D01*
X94218635Y-65658995D02*
X94215652Y-65664114D01*
X94224221Y-65648545D02*
X94221492Y-65653804D01*
X94205960Y-65679011D02*
X94202489Y-65683813D01*
X94242764Y-65598660D02*
X94241254Y-65604389D01*
X94239604Y-65610080D02*
X94237814Y-65615729D01*
X94179289Y-65710710D02*
X93990000Y-65900000D01*
X94226820Y-65643220D02*
X94224221Y-65648545D01*
X94250000Y-65540000D02*
X94249926Y-65545924D01*
X94245360Y-65587098D02*
X94244133Y-65592895D01*
X94209312Y-65674125D02*
X94205960Y-65679011D01*
X94250000Y-65540000D02*
X94250000Y-63525000D01*
X94191384Y-65697689D02*
X94187459Y-65702127D01*
X94249708Y-65551845D02*
X94249345Y-65557759D01*
X94195199Y-65693155D02*
X94191384Y-65697689D01*
X94249926Y-65545924D02*
X94249708Y-65551845D01*
%TO.N,Net-(J1-PadA5)*%
X97286754Y-65425975D02*
X97282354Y-65414972D01*
X97259277Y-65335397D02*
X97257108Y-65323747D01*
X97359600Y-65547511D02*
X97352195Y-65538259D01*
X97251308Y-65276720D02*
X97250581Y-65264891D01*
X97301555Y-65458291D02*
X97296358Y-65447641D01*
X97261732Y-65346991D02*
X97259277Y-65335397D01*
X97318694Y-65489430D02*
X97312727Y-65479191D01*
X97324911Y-65499519D02*
X97318694Y-65489430D01*
X97345019Y-65528828D02*
X97338077Y-65519224D01*
X97307013Y-65468809D02*
X97301555Y-65458291D01*
X97250000Y-65241200D02*
X97250000Y-63525000D01*
X97391421Y-65582621D02*
X97658300Y-65849500D01*
X97352195Y-65538259D02*
X97345019Y-65528828D01*
X97367230Y-65556578D02*
X97359600Y-65547511D01*
X97391421Y-65582621D02*
X97383145Y-65574138D01*
X97291423Y-65436867D02*
X97286754Y-65425975D01*
X97250581Y-65264891D02*
X97250145Y-65253049D01*
X97278225Y-65403864D02*
X97274369Y-65392658D01*
X97312727Y-65479191D02*
X97307013Y-65468809D01*
X97282354Y-65414972D02*
X97278225Y-65403864D01*
X97255225Y-65312047D02*
X97253631Y-65300304D01*
X97331373Y-65509452D02*
X97324911Y-65499519D01*
X97250145Y-65253049D02*
X97250000Y-65241200D01*
X97375080Y-65565456D02*
X97367230Y-65556578D01*
X97274369Y-65392658D02*
X97270791Y-65381361D01*
X97296358Y-65447641D02*
X97291423Y-65436867D01*
X97253631Y-65300304D02*
X97252324Y-65288526D01*
X97270791Y-65381361D02*
X97267490Y-65369980D01*
X97383145Y-65574138D02*
X97375080Y-65565456D01*
X97267490Y-65369980D02*
X97264470Y-65358520D01*
X97338077Y-65519224D02*
X97331373Y-65509452D01*
X97264470Y-65358520D02*
X97261732Y-65346991D01*
X97257108Y-65323747D02*
X97255225Y-65312047D01*
X97252324Y-65288526D02*
X97251308Y-65276720D01*
%TO.N,D-*%
X96348002Y-70338602D02*
X100225138Y-70338602D01*
X95811954Y-70146801D02*
X95796086Y-70133449D01*
X95861457Y-70184465D02*
X95844650Y-70172317D01*
X95949683Y-70238828D02*
X95931514Y-70228828D01*
X95931514Y-70228828D02*
X95913597Y-70218386D01*
X95750514Y-70091114D02*
X95747487Y-70088087D01*
X96183155Y-70322366D02*
X96162866Y-70318070D01*
X96122636Y-70307993D02*
X96102718Y-70302217D01*
X95986728Y-70257475D02*
X95968091Y-70248379D01*
X96162866Y-70318070D02*
X96142689Y-70313279D01*
X95733004Y-70073243D02*
X95747487Y-70088087D01*
X95796086Y-70133449D02*
X95780550Y-70119711D01*
X95913597Y-70218386D02*
X95895941Y-70207506D01*
X96142689Y-70313279D02*
X96122636Y-70307993D01*
X96285841Y-70336312D02*
X96265179Y-70334533D01*
X95828146Y-70159759D02*
X95811954Y-70146801D01*
X96082948Y-70295954D02*
X96063338Y-70289208D01*
X95895941Y-70207506D02*
X95878558Y-70196197D01*
X95844650Y-70172317D02*
X95828146Y-70159759D01*
X96102718Y-70302217D02*
X96082948Y-70295954D01*
X96265179Y-70334533D02*
X96244567Y-70332247D01*
X95780550Y-70119711D02*
X95765356Y-70105597D01*
X95968091Y-70248379D02*
X95949683Y-70238828D01*
X96043899Y-70281982D02*
X96024643Y-70274282D01*
X96224018Y-70329456D02*
X96203543Y-70326161D01*
X96306540Y-70337584D02*
X96285841Y-70336312D01*
X95765356Y-70105597D02*
X95750514Y-70091114D01*
X96203543Y-70326161D02*
X96183155Y-70322366D01*
X96005582Y-70266111D02*
X95986728Y-70257475D01*
X96327265Y-70338347D02*
X96306540Y-70337584D01*
X96063338Y-70289208D02*
X96043899Y-70281982D01*
X96348002Y-70338602D02*
X96327265Y-70338347D01*
X95878558Y-70196197D02*
X95861457Y-70184465D01*
X96024643Y-70274282D02*
X96005582Y-70266111D01*
X96244567Y-70332247D02*
X96224018Y-70329456D01*
X95590222Y-69870509D02*
X95599773Y-69888917D01*
X95500254Y-69511336D02*
X95501017Y-69532060D01*
X95549393Y-69775263D02*
X95556619Y-69794701D01*
X101035855Y-69736783D02*
X101041631Y-69716865D01*
X95666284Y-69993950D02*
X95678841Y-70010454D01*
X100929835Y-69960942D02*
X100941144Y-69943559D01*
X100807780Y-70105596D02*
X100822624Y-70091114D01*
X95654136Y-69977142D02*
X95666284Y-69993950D01*
X95536384Y-69735883D02*
X95542647Y-69755652D01*
X95504068Y-69573421D02*
X95506354Y-69594033D01*
X101007919Y-69814857D02*
X101015620Y-69795602D01*
X100905954Y-69994850D02*
X100918103Y-69978042D01*
X101046916Y-69696812D02*
X101051708Y-69676634D01*
X100839234Y-70074143D02*
X100853349Y-70058949D01*
X100982016Y-69871409D02*
X100991112Y-69852773D01*
X95705152Y-70042514D02*
X95718889Y-70058049D01*
X95691800Y-70026645D02*
X95705152Y-70042514D01*
X95581126Y-69851872D02*
X95590222Y-69870509D01*
X100824752Y-70088987D02*
X100839234Y-70074143D01*
X100728487Y-70172316D02*
X100744991Y-70159758D01*
X100761182Y-70146800D02*
X100777050Y-70133448D01*
X95678841Y-70010454D02*
X95691800Y-70026645D01*
X95642403Y-69960042D02*
X95654136Y-69977142D01*
X95631094Y-69942659D02*
X95642403Y-69960042D01*
X95620215Y-69925003D02*
X95631094Y-69942659D01*
X95501017Y-69532060D02*
X95502289Y-69552760D01*
X101022845Y-69776163D02*
X101029592Y-69756552D01*
X95525322Y-69695911D02*
X95530608Y-69715965D01*
X95500000Y-69490600D02*
X95500254Y-69511336D01*
X95609773Y-69907086D02*
X95620215Y-69925003D01*
X100952023Y-69925903D02*
X100962466Y-69907986D01*
X100853349Y-70058949D02*
X100867086Y-70043414D01*
X100822624Y-70091114D02*
X100824752Y-70088987D01*
X95516235Y-69655446D02*
X95520531Y-69675734D01*
X95512440Y-69635058D02*
X95516235Y-69655446D01*
X95502289Y-69552760D02*
X95504068Y-69573421D01*
X100991112Y-69852773D02*
X100999748Y-69833918D01*
X100744991Y-70159758D02*
X100761182Y-70146800D01*
X95520531Y-69675734D02*
X95525322Y-69695911D01*
X100349121Y-70329455D02*
X100369596Y-70326161D01*
X100962466Y-69907986D02*
X100972465Y-69889818D01*
X100999748Y-69833918D02*
X101007919Y-69814857D01*
X101015620Y-69795602D02*
X101022845Y-69776163D01*
X100941144Y-69943559D02*
X100952023Y-69925903D01*
X100867086Y-70043414D02*
X100880438Y-70027545D01*
X95506354Y-69594033D02*
X95509145Y-69614583D01*
X95530608Y-69715965D02*
X95536384Y-69735883D01*
X95500000Y-69490600D02*
X95500000Y-67995000D01*
X95564319Y-69813957D02*
X95572490Y-69833018D01*
X95509145Y-69614583D02*
X95512440Y-69635058D01*
X95572490Y-69833018D02*
X95581126Y-69851872D01*
X100490190Y-70295953D02*
X100509800Y-70289207D01*
X100893397Y-70011354D02*
X100905954Y-69994850D01*
X95542647Y-69755652D02*
X95549393Y-69775263D01*
X101041631Y-69716865D02*
X101046916Y-69696812D01*
X100972465Y-69889818D02*
X100982016Y-69871409D01*
X100918103Y-69978042D02*
X100929835Y-69960942D01*
X101029592Y-69756552D02*
X101035855Y-69736783D01*
X100777050Y-70133448D02*
X100792586Y-70119711D01*
X100792586Y-70119711D02*
X100807780Y-70105596D01*
X95599773Y-69888917D02*
X95609773Y-69907086D01*
X95718889Y-70058049D02*
X95733004Y-70073243D01*
X95556619Y-69794701D02*
X95564319Y-69813957D01*
X100880438Y-70027545D02*
X100893397Y-70011354D01*
X101063093Y-69615483D02*
X101065884Y-69594933D01*
X100287298Y-70336311D02*
X100307959Y-70334532D01*
X100529239Y-70281981D02*
X100548495Y-70274281D01*
X101068170Y-69574321D02*
X101069950Y-69553660D01*
X100307959Y-70334532D02*
X100328571Y-70332246D01*
X100328571Y-70332246D02*
X100349121Y-70329455D01*
X101065884Y-69594933D02*
X101068170Y-69574321D01*
X100369596Y-70326161D02*
X100389984Y-70322365D01*
X101069950Y-69553660D02*
X101071221Y-69532960D01*
X100659540Y-70218385D02*
X100677196Y-70207506D01*
X100245874Y-70338346D02*
X100266598Y-70337583D01*
X100711679Y-70184464D02*
X100728487Y-70172316D01*
X100410272Y-70318070D02*
X100430449Y-70313278D01*
X101059799Y-69635958D02*
X101063093Y-69615483D01*
X100225138Y-70338602D02*
X100245874Y-70338346D01*
X100470420Y-70302216D02*
X100490190Y-70295953D01*
X100567555Y-70266110D02*
X100586410Y-70257474D01*
X100266598Y-70337583D02*
X100287298Y-70336311D01*
X101051708Y-69676634D02*
X101056003Y-69656346D01*
X100694579Y-70196197D02*
X100711679Y-70184464D01*
X100430449Y-70313278D02*
X100450502Y-70307992D01*
X100509800Y-70289207D02*
X100529239Y-70281981D01*
X100548495Y-70274281D02*
X100567555Y-70266110D01*
X100641623Y-70228827D02*
X100659540Y-70218385D01*
X100450502Y-70307992D02*
X100470420Y-70302216D01*
X100623455Y-70238827D02*
X100641623Y-70228827D01*
X100389984Y-70322365D02*
X100410272Y-70318070D01*
X100586410Y-70257474D02*
X100605047Y-70248378D01*
X100677196Y-70207506D02*
X100694579Y-70196197D01*
X100605047Y-70248378D02*
X100623455Y-70238827D01*
X101071221Y-69532960D02*
X101071985Y-69512236D01*
X101071985Y-69512236D02*
X101072240Y-69491500D01*
X101072240Y-69491500D02*
X101072240Y-69108600D01*
X101056003Y-69656346D02*
X101059799Y-69635958D01*
%TO.N,D+*%
X96542760Y-68961707D02*
X96547045Y-68969494D01*
X96500000Y-67975000D02*
X96700000Y-68175000D01*
X96556183Y-68984739D02*
X96561030Y-68992189D01*
X96500981Y-68817640D02*
X96501743Y-68826495D01*
X96754005Y-69140322D02*
X96745600Y-69137431D01*
X96501743Y-68826495D02*
X96502723Y-68835328D01*
X96788255Y-69149800D02*
X96779608Y-69147747D01*
X96651877Y-69087334D02*
X96644803Y-69081953D01*
X96637864Y-69076399D02*
X96631063Y-69070677D01*
X96500436Y-68808768D02*
X96500981Y-68817640D01*
X96508799Y-68870343D02*
X96510852Y-68878990D01*
X96823270Y-69155876D02*
X96814463Y-69154680D01*
X96762478Y-69143006D02*
X96754005Y-69140322D01*
X96503919Y-68844135D02*
X96505331Y-68852910D01*
X96582200Y-69020734D02*
X96587922Y-69027534D01*
X96571264Y-69006721D02*
X96576646Y-69013795D01*
X96551521Y-68977173D02*
X96556183Y-68984739D01*
X96617893Y-69058740D02*
X96611533Y-69052533D01*
X96624405Y-69064789D02*
X96617893Y-69058740D01*
X96518277Y-68904594D02*
X96521168Y-68912998D01*
X96858712Y-69158490D02*
X96849830Y-69158163D01*
X96720848Y-69127532D02*
X96712767Y-69123831D01*
X96515593Y-68896121D02*
X96518277Y-68904594D01*
X96867600Y-69158600D02*
X100002240Y-69158600D01*
X96644803Y-69081953D02*
X96637864Y-69076399D01*
X96587922Y-69027534D02*
X96593809Y-69034192D01*
X96666409Y-69097569D02*
X96659080Y-69092541D01*
X96524265Y-68921329D02*
X96527565Y-68929581D01*
X96500000Y-68791000D02*
X96500000Y-67975000D01*
X96729017Y-69131034D02*
X96720848Y-69127532D01*
X96805688Y-69153268D02*
X96796951Y-69151641D01*
X96814463Y-69154680D02*
X96805688Y-69153268D01*
X100002240Y-69158600D02*
X100072240Y-69088600D01*
X96534768Y-68945831D02*
X96538666Y-68953818D01*
X96659080Y-69092541D02*
X96651877Y-69087334D01*
X96593809Y-69034192D02*
X96599858Y-69040704D01*
X96681425Y-69107078D02*
X96673859Y-69102416D01*
X96771014Y-69145482D02*
X96762478Y-69143006D01*
X96696891Y-69115839D02*
X96689104Y-69111554D01*
X96712767Y-69123831D02*
X96704780Y-69119932D01*
X96538666Y-68953818D02*
X96542760Y-68961707D01*
X96689104Y-69111554D02*
X96681425Y-69107078D01*
X96513117Y-68887585D02*
X96515593Y-68896121D01*
X96510852Y-68878990D02*
X96513117Y-68887585D01*
X96745600Y-69137431D02*
X96737269Y-69134334D01*
X96500000Y-68791000D02*
X96500109Y-68799887D01*
X96779608Y-69147747D02*
X96771014Y-69145482D01*
X96506958Y-68861648D02*
X96508799Y-68870343D01*
X96849830Y-69158163D02*
X96840959Y-69157618D01*
X96521168Y-68912998D02*
X96524265Y-68921329D01*
X96867600Y-69158600D02*
X96858712Y-69158490D01*
X96704780Y-69119932D02*
X96696891Y-69115839D01*
X96673859Y-69102416D02*
X96666409Y-69097569D01*
X96599858Y-69040704D02*
X96606066Y-69047066D01*
X96832104Y-69156856D02*
X96823270Y-69155876D01*
X96737269Y-69134334D02*
X96729017Y-69131034D01*
X96576646Y-69013795D02*
X96582200Y-69020734D01*
X96631063Y-69070677D02*
X96624405Y-69064789D01*
X96796951Y-69151641D02*
X96788255Y-69149800D01*
X96502723Y-68835328D02*
X96503919Y-68844135D01*
X96547045Y-68969494D02*
X96551521Y-68977173D01*
X96611533Y-69052533D02*
X96606066Y-69047066D01*
X96531067Y-68937750D02*
X96534768Y-68945831D01*
X96527565Y-68929581D02*
X96531067Y-68937750D01*
X96505331Y-68852910D02*
X96506958Y-68861648D01*
X96840959Y-69157618D02*
X96832104Y-69156856D01*
X96500109Y-68799887D02*
X96500436Y-68808768D01*
X96566058Y-68999518D02*
X96571264Y-69006721D01*
X96561030Y-68992189D02*
X96566058Y-68999518D01*
%TD*%
%TA.AperFunction,Conductor*%
%TO.N,GNDPWR*%
G36*
X102984357Y-56701628D02*
G01*
X102992618Y-56703528D01*
X102992619Y-56703528D01*
X102999642Y-56705143D01*
X103008295Y-56703185D01*
X103026606Y-56701744D01*
X103230763Y-56715125D01*
X103239063Y-56716218D01*
X103351502Y-56738583D01*
X103461767Y-56760516D01*
X103469844Y-56762681D01*
X103577352Y-56799175D01*
X103684855Y-56835668D01*
X103692589Y-56838871D01*
X103715696Y-56850266D01*
X103896242Y-56939301D01*
X103903486Y-56943483D01*
X104092284Y-57069634D01*
X104098922Y-57074727D01*
X104269638Y-57224442D01*
X104275558Y-57230362D01*
X104425273Y-57401078D01*
X104430369Y-57407720D01*
X104556515Y-57596511D01*
X104560701Y-57603761D01*
X104661129Y-57807411D01*
X104664332Y-57815145D01*
X104737318Y-58030151D01*
X104739485Y-58038237D01*
X104783782Y-58260937D01*
X104784875Y-58269237D01*
X104798227Y-58472943D01*
X104796736Y-58491469D01*
X104794857Y-58499642D01*
X104798422Y-58515397D01*
X104800000Y-58529522D01*
X104800000Y-70970014D01*
X104798372Y-70984356D01*
X104794857Y-70999642D01*
X104796453Y-71006694D01*
X104796814Y-71008290D01*
X104798256Y-71026604D01*
X104784875Y-71230763D01*
X104783782Y-71239063D01*
X104739485Y-71461763D01*
X104737318Y-71469849D01*
X104664332Y-71684855D01*
X104661129Y-71692589D01*
X104560701Y-71896239D01*
X104556515Y-71903489D01*
X104430369Y-72092280D01*
X104425273Y-72098922D01*
X104275558Y-72269638D01*
X104269638Y-72275558D01*
X104098922Y-72425273D01*
X104092284Y-72430366D01*
X103903489Y-72556515D01*
X103896242Y-72560699D01*
X103791942Y-72612134D01*
X103692589Y-72661129D01*
X103684855Y-72664332D01*
X103617283Y-72687270D01*
X103469844Y-72737319D01*
X103461767Y-72739484D01*
X103383762Y-72755000D01*
X103239063Y-72783782D01*
X103230763Y-72784875D01*
X103155853Y-72789785D01*
X103027054Y-72798227D01*
X103008531Y-72796736D01*
X103000358Y-72794857D01*
X102984824Y-72798372D01*
X102984603Y-72798422D01*
X102970478Y-72800000D01*
X99579088Y-72800000D01*
X99533833Y-72781255D01*
X99515088Y-72736000D01*
X99519960Y-72711508D01*
X99524727Y-72700000D01*
X99530000Y-72700000D01*
X99530000Y-71090000D01*
X99525000Y-71040000D01*
X99515000Y-71005000D01*
X99512858Y-71000000D01*
X99500970Y-70972263D01*
X99500969Y-70972261D01*
X99500000Y-70970000D01*
X99475000Y-70930000D01*
X99450000Y-70900000D01*
X99405000Y-70865000D01*
X99394402Y-70859112D01*
X99363023Y-70841679D01*
X99363020Y-70841678D01*
X99360000Y-70840000D01*
X99356691Y-70839007D01*
X99356688Y-70839006D01*
X99312947Y-70825884D01*
X99312946Y-70825884D01*
X99310000Y-70825000D01*
X99260000Y-70820000D01*
X98320000Y-70820000D01*
X98316906Y-70820619D01*
X98316904Y-70820619D01*
X98290580Y-70825884D01*
X98270000Y-70830000D01*
X98240000Y-70840000D01*
X98200000Y-70860000D01*
X98170000Y-70880000D01*
X98145000Y-70905000D01*
X98143530Y-70907022D01*
X98143526Y-70907026D01*
X98128034Y-70928328D01*
X98105000Y-70960000D01*
X98090000Y-70990000D01*
X98089170Y-70993044D01*
X98089169Y-70993046D01*
X98075656Y-71042594D01*
X98075000Y-71045000D01*
X98070000Y-71090000D01*
X98070000Y-72725000D01*
X98069685Y-72725000D01*
X98069684Y-72760493D01*
X98035046Y-72795129D01*
X98010556Y-72800000D01*
X93979088Y-72800000D01*
X93933833Y-72781255D01*
X93915088Y-72736000D01*
X93919960Y-72711508D01*
X93924727Y-72700000D01*
X93930000Y-72700000D01*
X93930000Y-71090000D01*
X93925000Y-71040000D01*
X93915000Y-71005000D01*
X93912858Y-71000000D01*
X93900970Y-70972263D01*
X93900969Y-70972261D01*
X93900000Y-70970000D01*
X93875000Y-70930000D01*
X93850000Y-70900000D01*
X93805000Y-70865000D01*
X93794402Y-70859112D01*
X93763023Y-70841679D01*
X93763020Y-70841678D01*
X93760000Y-70840000D01*
X93756691Y-70839007D01*
X93756688Y-70839006D01*
X93712947Y-70825884D01*
X93712946Y-70825884D01*
X93710000Y-70825000D01*
X93660000Y-70820000D01*
X92720000Y-70820000D01*
X92716906Y-70820619D01*
X92716904Y-70820619D01*
X92690580Y-70825884D01*
X92670000Y-70830000D01*
X92640000Y-70840000D01*
X92600000Y-70860000D01*
X92570000Y-70880000D01*
X92545000Y-70905000D01*
X92543530Y-70907022D01*
X92543526Y-70907026D01*
X92528034Y-70928328D01*
X92505000Y-70960000D01*
X92490000Y-70990000D01*
X92489170Y-70993044D01*
X92489169Y-70993046D01*
X92475656Y-71042594D01*
X92475000Y-71045000D01*
X92470000Y-71090000D01*
X92470000Y-72725000D01*
X92469685Y-72725000D01*
X92469684Y-72760493D01*
X92435046Y-72795129D01*
X92410556Y-72800000D01*
X89029986Y-72800000D01*
X89015643Y-72798372D01*
X89007382Y-72796472D01*
X89007381Y-72796472D01*
X89000358Y-72794857D01*
X88992054Y-72796736D01*
X88991705Y-72796815D01*
X88973394Y-72798256D01*
X88769237Y-72784875D01*
X88760937Y-72783782D01*
X88616238Y-72755000D01*
X88538233Y-72739484D01*
X88530156Y-72737319D01*
X88382717Y-72687270D01*
X88315145Y-72664332D01*
X88307411Y-72661129D01*
X88208058Y-72612134D01*
X88103758Y-72560699D01*
X88096511Y-72556515D01*
X87907716Y-72430366D01*
X87901078Y-72425273D01*
X87730362Y-72275558D01*
X87724442Y-72269638D01*
X87574727Y-72098922D01*
X87569631Y-72092280D01*
X87443485Y-71903489D01*
X87439299Y-71896239D01*
X87338871Y-71692589D01*
X87335668Y-71684855D01*
X87262682Y-71469849D01*
X87260515Y-71461763D01*
X87216218Y-71239063D01*
X87215125Y-71230763D01*
X87205784Y-71088251D01*
X87201773Y-71027054D01*
X87203264Y-71008531D01*
X87205143Y-71000358D01*
X87201578Y-70984603D01*
X87200000Y-70970478D01*
X87200000Y-61929302D01*
X89505190Y-61929302D01*
X89505521Y-63156000D01*
X89507157Y-69213365D01*
X89511478Y-69254660D01*
X89516942Y-69280518D01*
X89517277Y-69281663D01*
X89517280Y-69281677D01*
X89524102Y-69305031D01*
X89524104Y-69305034D01*
X89525453Y-69309654D01*
X89574571Y-69383883D01*
X89610014Y-69417694D01*
X89675903Y-69459508D01*
X89713137Y-69473912D01*
X89721304Y-69477756D01*
X89803761Y-69523935D01*
X89803779Y-69523945D01*
X89921039Y-69589613D01*
X89928596Y-69594577D01*
X90110578Y-69733462D01*
X90117359Y-69739440D01*
X90277953Y-69902577D01*
X90283824Y-69909451D01*
X90409880Y-70080114D01*
X90419834Y-70093591D01*
X90424677Y-70101222D01*
X90517524Y-70273297D01*
X90533386Y-70302695D01*
X90537105Y-70310932D01*
X90606840Y-70499959D01*
X90606840Y-70499960D01*
X90611421Y-70512377D01*
X90630615Y-70550979D01*
X90645404Y-70574082D01*
X90646179Y-70575103D01*
X90646184Y-70575110D01*
X90657466Y-70589970D01*
X90664720Y-70599525D01*
X90681194Y-70611214D01*
X90734296Y-70648891D01*
X90737312Y-70651031D01*
X90740635Y-70652407D01*
X90740636Y-70652408D01*
X90775083Y-70666676D01*
X90782567Y-70669776D01*
X90785654Y-70670390D01*
X90785657Y-70670391D01*
X90856015Y-70684386D01*
X90856017Y-70684386D01*
X90859103Y-70685000D01*
X95600818Y-70685000D01*
X95601202Y-70684989D01*
X95601233Y-70684989D01*
X95611441Y-70684707D01*
X95611461Y-70684706D01*
X95611865Y-70684695D01*
X95618933Y-70684304D01*
X95674592Y-70668340D01*
X95700912Y-70660791D01*
X95700913Y-70660790D01*
X95704363Y-70659801D01*
X95709980Y-70656708D01*
X95744909Y-70637473D01*
X95744911Y-70637471D01*
X95747271Y-70636172D01*
X95751698Y-70632653D01*
X95763508Y-70623264D01*
X95797254Y-70596436D01*
X95844343Y-70582947D01*
X95864115Y-70589970D01*
X95864663Y-70588813D01*
X95869324Y-70591021D01*
X95884239Y-70596565D01*
X95891092Y-70599873D01*
X95891695Y-70600350D01*
X95896408Y-70602442D01*
X95897711Y-70602890D01*
X95897713Y-70602891D01*
X95911434Y-70607611D01*
X95918383Y-70610757D01*
X95918990Y-70611214D01*
X95923753Y-70613190D01*
X95925060Y-70613604D01*
X95925079Y-70613611D01*
X95938911Y-70617993D01*
X95945927Y-70620964D01*
X95946546Y-70621405D01*
X95951357Y-70623264D01*
X95966625Y-70627692D01*
X95973703Y-70630486D01*
X95974333Y-70630913D01*
X95979188Y-70632653D01*
X95980529Y-70633006D01*
X95980537Y-70633009D01*
X95994570Y-70636709D01*
X96001723Y-70639331D01*
X96002376Y-70639750D01*
X96007272Y-70641370D01*
X96008604Y-70641686D01*
X96008610Y-70641688D01*
X96022737Y-70645042D01*
X96029938Y-70647484D01*
X96030584Y-70647877D01*
X96035518Y-70649376D01*
X96036870Y-70649662D01*
X96036869Y-70649662D01*
X96051079Y-70652671D01*
X96058360Y-70654942D01*
X96059034Y-70655330D01*
X96064004Y-70656708D01*
X96078460Y-70659398D01*
X96079629Y-70659616D01*
X96086942Y-70661702D01*
X96087607Y-70662063D01*
X96092609Y-70663318D01*
X96093975Y-70663538D01*
X96093976Y-70663538D01*
X96108307Y-70665844D01*
X96115681Y-70667753D01*
X96116367Y-70668104D01*
X96121399Y-70669236D01*
X96122748Y-70669419D01*
X96122769Y-70669423D01*
X96137153Y-70671377D01*
X96144574Y-70673105D01*
X96145259Y-70673434D01*
X96150316Y-70674443D01*
X96157852Y-70675279D01*
X96166121Y-70676196D01*
X96173579Y-70677740D01*
X96174282Y-70678057D01*
X96179362Y-70678941D01*
X96180738Y-70679059D01*
X96180742Y-70679060D01*
X96195200Y-70680305D01*
X96202686Y-70681664D01*
X96203391Y-70681961D01*
X96208492Y-70682720D01*
X96224373Y-70683696D01*
X96231893Y-70684873D01*
X96232609Y-70685154D01*
X96237727Y-70685788D01*
X96253617Y-70686373D01*
X96261159Y-70687364D01*
X96261871Y-70687624D01*
X96267004Y-70688132D01*
X96271535Y-70688188D01*
X96281663Y-70688313D01*
X96286887Y-70688899D01*
X96286908Y-70688657D01*
X96290667Y-70688983D01*
X96290677Y-70688983D01*
X96292046Y-70689102D01*
X96312345Y-70689102D01*
X96314102Y-70689210D01*
X96314286Y-70689191D01*
X96315141Y-70689524D01*
X96315141Y-70689102D01*
X96326552Y-70689102D01*
X96328907Y-70689145D01*
X96343465Y-70689681D01*
X96346080Y-70689344D01*
X96348336Y-70689241D01*
X96352045Y-70689179D01*
X96370160Y-70689402D01*
X96370167Y-70689402D01*
X96372806Y-70689434D01*
X96374460Y-70689179D01*
X96376674Y-70689102D01*
X100163108Y-70689102D01*
X100168352Y-70689627D01*
X100168370Y-70689385D01*
X100173513Y-70689766D01*
X100174901Y-70689749D01*
X100174905Y-70689749D01*
X100181871Y-70689663D01*
X100189406Y-70689570D01*
X100196980Y-70690188D01*
X100197701Y-70690412D01*
X100202852Y-70690667D01*
X100218741Y-70690082D01*
X100226348Y-70690516D01*
X100227089Y-70690726D01*
X100232245Y-70690855D01*
X100248109Y-70689880D01*
X100255719Y-70690126D01*
X100256459Y-70690317D01*
X100261617Y-70690319D01*
X100274134Y-70689241D01*
X100277457Y-70688955D01*
X100285075Y-70689015D01*
X100285824Y-70689188D01*
X100290980Y-70689064D01*
X100292349Y-70688912D01*
X100292366Y-70688911D01*
X100306780Y-70687312D01*
X100314399Y-70687185D01*
X100315143Y-70687338D01*
X100320294Y-70687088D01*
X100321667Y-70686902D01*
X100321673Y-70686901D01*
X100336048Y-70684949D01*
X100343654Y-70684635D01*
X100344404Y-70684770D01*
X100349548Y-70684393D01*
X100351830Y-70684026D01*
X100365245Y-70681868D01*
X100372848Y-70681367D01*
X100373609Y-70681485D01*
X100378742Y-70680982D01*
X100394379Y-70678071D01*
X100401955Y-70677384D01*
X100402715Y-70677483D01*
X100407834Y-70676854D01*
X100423392Y-70673560D01*
X100430956Y-70672688D01*
X100431719Y-70672768D01*
X100436821Y-70672014D01*
X100452292Y-70668340D01*
X100459831Y-70667281D01*
X100460600Y-70667343D01*
X100465682Y-70666463D01*
X100467019Y-70666111D01*
X100467026Y-70666109D01*
X100481048Y-70662412D01*
X100488559Y-70661170D01*
X100489321Y-70661212D01*
X100494379Y-70660208D01*
X100495706Y-70659823D01*
X100495711Y-70659822D01*
X100509651Y-70655780D01*
X100517126Y-70654353D01*
X100517896Y-70654377D01*
X100522928Y-70653249D01*
X100524245Y-70652832D01*
X100524259Y-70652828D01*
X100538087Y-70648447D01*
X100545524Y-70646838D01*
X100546291Y-70646843D01*
X100551294Y-70645592D01*
X100566336Y-70640418D01*
X100573730Y-70638627D01*
X100574505Y-70638613D01*
X100579476Y-70637239D01*
X100594376Y-70631700D01*
X100601722Y-70629730D01*
X100602484Y-70629697D01*
X100607420Y-70628202D01*
X100622194Y-70622295D01*
X100629492Y-70620143D01*
X100630271Y-70620090D01*
X100635169Y-70618474D01*
X100646513Y-70613611D01*
X100649777Y-70612212D01*
X100657026Y-70609881D01*
X100657780Y-70609811D01*
X100662637Y-70608076D01*
X100677094Y-70601455D01*
X100684281Y-70598946D01*
X100685044Y-70598857D01*
X100689856Y-70597003D01*
X100694661Y-70594658D01*
X100704141Y-70590031D01*
X100711275Y-70587344D01*
X100712035Y-70587236D01*
X100715758Y-70585696D01*
X100718817Y-70584861D01*
X100767410Y-70591033D01*
X100776876Y-70598475D01*
X100777536Y-70599525D01*
X100806520Y-70620090D01*
X100847112Y-70648891D01*
X100850128Y-70651031D01*
X100853451Y-70652407D01*
X100853452Y-70652408D01*
X100887899Y-70666676D01*
X100895383Y-70669776D01*
X100898470Y-70670390D01*
X100898473Y-70670391D01*
X100968831Y-70684386D01*
X100968833Y-70684386D01*
X100971919Y-70685000D01*
X101140132Y-70685000D01*
X101193660Y-70677704D01*
X101216438Y-70671377D01*
X101225003Y-70668998D01*
X101225007Y-70668997D01*
X101226669Y-70668535D01*
X101266526Y-70652691D01*
X101270876Y-70648951D01*
X101331287Y-70597003D01*
X101334014Y-70594658D01*
X101336692Y-70591033D01*
X101361247Y-70557789D01*
X101361248Y-70557787D01*
X101363117Y-70555257D01*
X101365855Y-70549440D01*
X101384059Y-70510754D01*
X101396345Y-70484646D01*
X101397103Y-70481597D01*
X101398155Y-70478638D01*
X101398222Y-70478662D01*
X101399357Y-70475169D01*
X101456319Y-70334535D01*
X101456897Y-70333108D01*
X101467835Y-70296274D01*
X101472516Y-70272249D01*
X101475892Y-70245215D01*
X101464628Y-70178918D01*
X101475528Y-70131163D01*
X101509665Y-70106799D01*
X101520791Y-70103527D01*
X101520798Y-70103524D01*
X101524245Y-70102510D01*
X101566983Y-70078576D01*
X101626323Y-70027895D01*
X101751060Y-69869667D01*
X101757143Y-69862982D01*
X101821146Y-69801926D01*
X101922782Y-69704970D01*
X101929747Y-69699207D01*
X102116011Y-69566100D01*
X102123720Y-69561376D01*
X102337158Y-69450506D01*
X102341676Y-69448379D01*
X102341898Y-69448285D01*
X102341899Y-69448284D01*
X102342823Y-69447893D01*
X102342827Y-69447891D01*
X102342813Y-69447863D01*
X102342817Y-69447861D01*
X102342696Y-69447628D01*
X102343453Y-69447235D01*
X102343581Y-69447481D01*
X102345400Y-69446066D01*
X102365889Y-69436176D01*
X102367403Y-69435223D01*
X102367407Y-69435221D01*
X102388804Y-69421755D01*
X102388805Y-69421754D01*
X102389948Y-69421035D01*
X102397265Y-69415523D01*
X102412785Y-69403831D01*
X102412787Y-69403829D01*
X102416732Y-69400857D01*
X102468219Y-69328252D01*
X102486952Y-69282992D01*
X102502155Y-69206457D01*
X102502151Y-69189889D01*
X102502151Y-69189883D01*
X102501299Y-66035000D01*
X102770000Y-66035000D01*
X102770435Y-66037609D01*
X102770435Y-66037611D01*
X102774589Y-66062535D01*
X102775000Y-66065000D01*
X102780000Y-66080000D01*
X102785000Y-66090000D01*
X102795000Y-66105000D01*
X102825000Y-66135000D01*
X102850000Y-66150000D01*
X102855685Y-66151034D01*
X102855686Y-66151034D01*
X102855934Y-66151079D01*
X102905000Y-66160000D01*
X103900000Y-66160000D01*
X103903094Y-66159381D01*
X103903096Y-66159381D01*
X103944605Y-66151079D01*
X103950000Y-66150000D01*
X103975000Y-66135000D01*
X104005000Y-66105000D01*
X104015000Y-66090000D01*
X104025000Y-66060000D01*
X104030000Y-66025000D01*
X104030000Y-64620000D01*
X104025000Y-64595000D01*
X104020000Y-64580000D01*
X104005000Y-64555000D01*
X103985000Y-64535000D01*
X103970000Y-64525000D01*
X103957762Y-64516841D01*
X103957760Y-64516840D01*
X103955000Y-64515000D01*
X103951924Y-64513770D01*
X103951921Y-64513768D01*
X103933542Y-64506417D01*
X103933544Y-64506417D01*
X103930000Y-64505000D01*
X103926226Y-64504461D01*
X103926223Y-64504460D01*
X103911733Y-64502390D01*
X103895000Y-64500000D01*
X102895000Y-64500000D01*
X102892391Y-64500435D01*
X102892389Y-64500435D01*
X102867465Y-64504589D01*
X102867463Y-64504590D01*
X102865000Y-64505000D01*
X102862636Y-64505788D01*
X102862632Y-64505789D01*
X102853314Y-64508895D01*
X102850000Y-64510000D01*
X102825000Y-64525000D01*
X102795000Y-64555000D01*
X102785000Y-64570000D01*
X102780000Y-64580000D01*
X102779149Y-64583404D01*
X102775763Y-64596950D01*
X102775000Y-64600000D01*
X102774790Y-64601261D01*
X102774789Y-64601265D01*
X102770435Y-64627389D01*
X102770000Y-64630000D01*
X102770000Y-66035000D01*
X102501299Y-66035000D01*
X102500190Y-61928352D01*
X102499873Y-61917145D01*
X102499495Y-61910440D01*
X102499495Y-61910433D01*
X102499492Y-61910397D01*
X102499469Y-61909981D01*
X102498523Y-61898799D01*
X102482148Y-61753796D01*
X102478385Y-61731686D01*
X102475193Y-61717717D01*
X102468982Y-61696174D01*
X102421954Y-61561867D01*
X102413372Y-61541160D01*
X102407155Y-61528255D01*
X102406729Y-61527485D01*
X102406720Y-61527467D01*
X102396736Y-61509410D01*
X102396300Y-61508621D01*
X102320564Y-61388136D01*
X102308265Y-61370808D01*
X102308100Y-61370575D01*
X102308089Y-61370560D01*
X102307589Y-61369856D01*
X102298659Y-61358661D01*
X102298083Y-61358017D01*
X102298069Y-61358000D01*
X102284318Y-61342617D01*
X102284315Y-61342614D01*
X102283710Y-61341937D01*
X102183069Y-61241324D01*
X102166349Y-61226386D01*
X102155145Y-61217453D01*
X102136853Y-61204477D01*
X102016353Y-61128778D01*
X101996727Y-61117933D01*
X101983817Y-61111717D01*
X101963095Y-61103136D01*
X101962262Y-61102845D01*
X101962250Y-61102840D01*
X101942269Y-61095850D01*
X101829622Y-61056440D01*
X101829612Y-61056437D01*
X101828775Y-61056144D01*
X101818480Y-61053179D01*
X101808095Y-61050187D01*
X101808089Y-61050185D01*
X101807223Y-61049936D01*
X101806358Y-61049739D01*
X101806344Y-61049735D01*
X101798676Y-61047986D01*
X101793256Y-61046749D01*
X101771152Y-61042994D01*
X101770282Y-61042896D01*
X101770268Y-61042894D01*
X101717256Y-61036922D01*
X101717252Y-61036922D01*
X101626145Y-61026659D01*
X101625769Y-61026627D01*
X101625736Y-61026624D01*
X101615395Y-61025752D01*
X101615372Y-61025750D01*
X101614964Y-61025716D01*
X101607801Y-61025314D01*
X101596594Y-61025000D01*
X101044500Y-61025000D01*
X101041414Y-61025614D01*
X101041412Y-61025614D01*
X100971054Y-61039609D01*
X100971051Y-61039610D01*
X100967964Y-61040224D01*
X100965054Y-61041430D01*
X100965052Y-61041430D01*
X100925199Y-61057937D01*
X100925193Y-61057940D01*
X100922709Y-61058969D01*
X100920430Y-61060401D01*
X100920428Y-61060402D01*
X100880829Y-61085284D01*
X100865975Y-61094617D01*
X100814469Y-61167209D01*
X100813093Y-61170532D01*
X100813092Y-61170533D01*
X100800231Y-61201584D01*
X100795724Y-61212464D01*
X100795110Y-61215551D01*
X100795109Y-61215554D01*
X100789857Y-61241957D01*
X100780500Y-61289000D01*
X100780500Y-63877558D01*
X100779952Y-63885912D01*
X100775775Y-63917639D01*
X100769843Y-63962691D01*
X100766020Y-63977584D01*
X100729396Y-64071524D01*
X100722129Y-64085077D01*
X100699612Y-64117115D01*
X100664167Y-64167547D01*
X100653878Y-64178974D01*
X100577904Y-64245249D01*
X100565185Y-64253892D01*
X100479213Y-64298267D01*
X100475607Y-64300128D01*
X100461195Y-64305488D01*
X100429245Y-64313159D01*
X100363163Y-64329023D01*
X100347889Y-64330790D01*
X100294135Y-64330509D01*
X100294121Y-64330509D01*
X100291419Y-64330495D01*
X100247077Y-64330263D01*
X100231821Y-64328336D01*
X100134051Y-64303778D01*
X100119694Y-64298267D01*
X100063038Y-64268269D01*
X100063037Y-64268268D01*
X100030593Y-64251089D01*
X100017967Y-64242314D01*
X99927714Y-64161902D01*
X99927709Y-64161897D01*
X99921789Y-64156623D01*
X99919615Y-64154686D01*
X99917131Y-64153177D01*
X99917128Y-64153175D01*
X99860250Y-64118628D01*
X99857759Y-64117115D01*
X99830419Y-64106702D01*
X99817483Y-64101775D01*
X99817480Y-64101774D01*
X99815185Y-64100900D01*
X99801157Y-64097910D01*
X99760804Y-64070141D01*
X99750500Y-64035316D01*
X99750500Y-63347562D01*
X99762304Y-63310527D01*
X99785531Y-63277791D01*
X99804276Y-63232536D01*
X99819500Y-63156000D01*
X99819500Y-61289000D01*
X99810143Y-61241957D01*
X99804891Y-61215554D01*
X99804890Y-61215551D01*
X99804276Y-61212464D01*
X99800776Y-61204014D01*
X99786563Y-61169699D01*
X99786560Y-61169693D01*
X99785531Y-61167209D01*
X99749883Y-61110475D01*
X99677291Y-61058969D01*
X99671253Y-61056468D01*
X99634948Y-61041430D01*
X99634946Y-61041430D01*
X99632036Y-61040224D01*
X99628949Y-61039610D01*
X99628946Y-61039609D01*
X99558588Y-61025614D01*
X99558586Y-61025614D01*
X99555500Y-61025000D01*
X92444500Y-61025000D01*
X92441414Y-61025614D01*
X92441412Y-61025614D01*
X92371054Y-61039609D01*
X92371051Y-61039610D01*
X92367964Y-61040224D01*
X92365054Y-61041430D01*
X92365052Y-61041430D01*
X92325199Y-61057937D01*
X92325193Y-61057940D01*
X92322709Y-61058969D01*
X92320430Y-61060401D01*
X92320428Y-61060402D01*
X92280829Y-61085284D01*
X92265975Y-61094617D01*
X92214469Y-61167209D01*
X92213093Y-61170532D01*
X92213092Y-61170533D01*
X92200231Y-61201584D01*
X92195724Y-61212464D01*
X92195110Y-61215551D01*
X92195109Y-61215554D01*
X92189857Y-61241957D01*
X92180500Y-61289000D01*
X92180500Y-63156000D01*
X92195724Y-63232536D01*
X92196930Y-63235446D01*
X92196930Y-63235448D01*
X92213437Y-63275301D01*
X92213440Y-63275307D01*
X92214469Y-63277791D01*
X92215901Y-63280070D01*
X92215902Y-63280072D01*
X92239690Y-63317930D01*
X92249500Y-63351980D01*
X92249500Y-64037642D01*
X92230755Y-64082897D01*
X92199512Y-64100089D01*
X92170038Y-64106702D01*
X92170033Y-64106704D01*
X92166529Y-64107490D01*
X92123380Y-64128075D01*
X92122992Y-64128275D01*
X92122964Y-64128289D01*
X92116792Y-64131473D01*
X92112326Y-64133777D01*
X92090726Y-64153175D01*
X92090511Y-64153368D01*
X92079523Y-64159779D01*
X92077949Y-64157975D01*
X91977904Y-64245249D01*
X91965185Y-64253892D01*
X91879213Y-64298267D01*
X91875607Y-64300128D01*
X91861195Y-64305488D01*
X91829245Y-64313159D01*
X91763163Y-64329023D01*
X91747889Y-64330790D01*
X91694135Y-64330509D01*
X91694121Y-64330509D01*
X91691419Y-64330495D01*
X91647077Y-64330263D01*
X91631821Y-64328336D01*
X91534051Y-64303778D01*
X91519694Y-64298267D01*
X91463038Y-64268269D01*
X91463037Y-64268268D01*
X91430593Y-64251089D01*
X91417967Y-64242314D01*
X91374253Y-64203366D01*
X91342697Y-64175251D01*
X91332529Y-64163717D01*
X91331155Y-64161717D01*
X91286647Y-64096959D01*
X91275432Y-64080641D01*
X91268308Y-64067013D01*
X91232670Y-63972699D01*
X91229002Y-63957766D01*
X91219964Y-63883081D01*
X91219500Y-63875392D01*
X91219500Y-61289000D01*
X91210143Y-61241957D01*
X91204891Y-61215554D01*
X91204890Y-61215551D01*
X91204276Y-61212464D01*
X91200776Y-61204014D01*
X91186563Y-61169699D01*
X91186560Y-61169693D01*
X91185531Y-61167209D01*
X91149883Y-61110475D01*
X91077291Y-61058969D01*
X91071253Y-61056468D01*
X91034948Y-61041430D01*
X91034946Y-61041430D01*
X91032036Y-61040224D01*
X91028949Y-61039610D01*
X91028946Y-61039609D01*
X90958588Y-61025614D01*
X90958586Y-61025614D01*
X90955500Y-61025000D01*
X90408780Y-61025000D01*
X90404250Y-61025127D01*
X90398001Y-61025302D01*
X90397974Y-61025303D01*
X90397552Y-61025315D01*
X90394494Y-61025487D01*
X90390822Y-61025693D01*
X90390793Y-61025695D01*
X90390385Y-61025718D01*
X90389951Y-61025755D01*
X90389946Y-61025755D01*
X90388140Y-61025908D01*
X90379216Y-61026661D01*
X90378809Y-61026707D01*
X90378777Y-61026710D01*
X90292021Y-61036487D01*
X90234165Y-61043007D01*
X90212053Y-61046764D01*
X90211203Y-61046958D01*
X90211193Y-61046960D01*
X90205567Y-61048245D01*
X90198087Y-61049952D01*
X90197251Y-61050193D01*
X90197235Y-61050197D01*
X90177400Y-61055913D01*
X90176529Y-61056164D01*
X90100773Y-61082677D01*
X90063134Y-61095850D01*
X90042161Y-61103190D01*
X90021436Y-61111777D01*
X90020631Y-61112165D01*
X90020626Y-61112167D01*
X90009315Y-61117615D01*
X90009302Y-61117622D01*
X90008525Y-61117996D01*
X89988895Y-61128847D01*
X89868524Y-61204497D01*
X89866693Y-61201584D01*
X89866532Y-61201685D01*
X89868530Y-61204506D01*
X89852931Y-61215554D01*
X89850084Y-61217570D01*
X89838880Y-61226506D01*
X89822145Y-61241464D01*
X89721494Y-61342144D01*
X89720894Y-61342816D01*
X89720887Y-61342823D01*
X89707329Y-61358000D01*
X89706554Y-61358867D01*
X89697623Y-61370069D01*
X89684642Y-61388369D01*
X89609157Y-61508548D01*
X89609006Y-61508788D01*
X89598080Y-61528547D01*
X89591864Y-61541460D01*
X89583281Y-61562192D01*
X89536292Y-61696570D01*
X89530086Y-61718131D01*
X89526900Y-61732106D01*
X89526750Y-61732988D01*
X89526750Y-61732990D01*
X89523369Y-61752924D01*
X89523149Y-61754219D01*
X89506843Y-61899271D01*
X89506811Y-61899649D01*
X89506809Y-61899671D01*
X89505942Y-61909981D01*
X89505903Y-61910440D01*
X89505502Y-61917607D01*
X89505190Y-61928834D01*
X89505190Y-61929302D01*
X87200000Y-61929302D01*
X87200000Y-58529986D01*
X87201628Y-58515643D01*
X87203528Y-58507382D01*
X87203528Y-58507381D01*
X87205143Y-58500358D01*
X87203185Y-58491705D01*
X87201744Y-58473394D01*
X87215125Y-58269237D01*
X87216218Y-58260937D01*
X87260515Y-58038237D01*
X87262682Y-58030151D01*
X87335668Y-57815145D01*
X87338871Y-57807411D01*
X87439299Y-57603761D01*
X87443485Y-57596511D01*
X87569631Y-57407720D01*
X87574727Y-57401078D01*
X87724442Y-57230362D01*
X87730362Y-57224442D01*
X87901078Y-57074727D01*
X87907716Y-57069634D01*
X88096514Y-56943483D01*
X88103758Y-56939301D01*
X88284304Y-56850266D01*
X88307411Y-56838871D01*
X88315145Y-56835668D01*
X88422648Y-56799175D01*
X88530156Y-56762681D01*
X88538233Y-56760516D01*
X88648498Y-56738583D01*
X88760937Y-56716218D01*
X88769237Y-56715125D01*
X88844147Y-56710215D01*
X88972946Y-56701773D01*
X88991469Y-56703264D01*
X88999642Y-56705143D01*
X89015397Y-56701578D01*
X89029522Y-56700000D01*
X102970014Y-56700000D01*
X102984357Y-56701628D01*
G37*
%TD.AperFunction*%
%TD*%
%TA.AperFunction,Conductor*%
%TO.N,GND*%
G36*
X91000755Y-61243745D02*
G01*
X91019500Y-61289000D01*
X91019500Y-63891302D01*
X91019733Y-63893225D01*
X91031323Y-63989000D01*
X91034289Y-64013514D01*
X91092509Y-64167589D01*
X91094694Y-64170769D01*
X91094695Y-64170770D01*
X91121822Y-64210240D01*
X91185800Y-64303328D01*
X91188680Y-64305894D01*
X91305894Y-64410328D01*
X91305897Y-64410330D01*
X91308777Y-64412896D01*
X91312186Y-64414701D01*
X91312189Y-64414703D01*
X91369451Y-64445022D01*
X91454339Y-64489968D01*
X91614084Y-64530093D01*
X91693075Y-64530506D01*
X91774931Y-64530935D01*
X91774933Y-64530935D01*
X91778789Y-64530955D01*
X91782537Y-64530055D01*
X91782539Y-64530055D01*
X91935193Y-64493406D01*
X91935195Y-64493405D01*
X91938945Y-64492505D01*
X92085307Y-64416962D01*
X92209424Y-64308688D01*
X92209496Y-64308586D01*
X92252645Y-64288001D01*
X92298821Y-64304348D01*
X92320000Y-64351913D01*
X92320000Y-64809657D01*
X92320614Y-64815892D01*
X92326313Y-64844541D01*
X92331045Y-64855966D01*
X92352771Y-64888481D01*
X92361519Y-64897229D01*
X92394034Y-64918955D01*
X92405459Y-64923687D01*
X92434108Y-64929386D01*
X92440343Y-64930000D01*
X92587271Y-64930000D01*
X92596272Y-64926272D01*
X92600000Y-64917271D01*
X92600000Y-63989000D01*
X92618745Y-63943745D01*
X92664000Y-63925000D01*
X92836000Y-63925000D01*
X92881255Y-63943745D01*
X92900000Y-63989000D01*
X92900000Y-64917271D01*
X92903728Y-64926272D01*
X92912729Y-64930000D01*
X93047169Y-64930000D01*
X93092424Y-64948745D01*
X93111169Y-64994000D01*
X93110356Y-65004167D01*
X93109201Y-65011345D01*
X93108936Y-65012876D01*
X93106098Y-65028120D01*
X93106052Y-65028367D01*
X93105746Y-65029903D01*
X93102489Y-65045294D01*
X93102144Y-65046832D01*
X93098488Y-65062226D01*
X93098106Y-65063750D01*
X93094112Y-65078903D01*
X93093694Y-65080414D01*
X93090345Y-65091966D01*
X93089290Y-65095603D01*
X93088852Y-65097050D01*
X93084065Y-65112157D01*
X93083587Y-65113602D01*
X93078467Y-65128486D01*
X93077957Y-65129912D01*
X93075688Y-65136018D01*
X93072442Y-65144750D01*
X93071882Y-65146202D01*
X93066024Y-65160852D01*
X93065440Y-65162261D01*
X93059221Y-65176767D01*
X93058606Y-65178155D01*
X93052012Y-65192554D01*
X93051355Y-65193941D01*
X93044442Y-65208105D01*
X93043761Y-65209459D01*
X93036448Y-65223552D01*
X93035784Y-65224793D01*
X93028124Y-65238713D01*
X93027381Y-65240024D01*
X93019431Y-65253663D01*
X93018625Y-65255007D01*
X93010369Y-65268406D01*
X93009528Y-65269734D01*
X93000939Y-65282936D01*
X93000070Y-65284237D01*
X92991133Y-65297262D01*
X92990254Y-65298511D01*
X92981002Y-65311312D01*
X92980071Y-65312567D01*
X92971495Y-65323840D01*
X92970561Y-65325067D01*
X92969611Y-65326285D01*
X92959703Y-65338665D01*
X92958753Y-65339822D01*
X92956763Y-65342187D01*
X92948591Y-65351898D01*
X92947606Y-65353040D01*
X92937122Y-65364897D01*
X92936101Y-65366022D01*
X92925341Y-65377605D01*
X92924268Y-65378733D01*
X92912169Y-65391134D01*
X92911116Y-65392187D01*
X92898673Y-65404326D01*
X92897603Y-65405345D01*
X92889536Y-65412839D01*
X92886041Y-65416086D01*
X92884878Y-65417140D01*
X92873092Y-65427562D01*
X92871918Y-65428575D01*
X92866509Y-65433127D01*
X92859830Y-65438747D01*
X92858642Y-65439722D01*
X92850222Y-65446461D01*
X92846336Y-65449571D01*
X92845102Y-65450534D01*
X92832550Y-65460085D01*
X92831296Y-65461015D01*
X92818863Y-65470001D01*
X92818516Y-65470252D01*
X92817278Y-65471124D01*
X92804179Y-65480111D01*
X92802978Y-65480913D01*
X92789729Y-65489533D01*
X92788430Y-65490355D01*
X92783642Y-65493305D01*
X92749680Y-65502816D01*
X92711738Y-65502584D01*
X92667778Y-65502316D01*
X92549210Y-65536203D01*
X92540794Y-65541513D01*
X92495443Y-65570127D01*
X92461292Y-65580000D01*
X92185301Y-65580000D01*
X92140046Y-65561255D01*
X92132094Y-65551566D01*
X92110601Y-65519399D01*
X92086911Y-65503570D01*
X92032982Y-65467536D01*
X92032980Y-65467535D01*
X92027740Y-65464034D01*
X92021559Y-65462805D01*
X92021558Y-65462804D01*
X91957762Y-65450114D01*
X91957759Y-65450114D01*
X91954674Y-65449500D01*
X90645326Y-65449500D01*
X90642241Y-65450114D01*
X90642238Y-65450114D01*
X90578442Y-65462804D01*
X90578441Y-65462805D01*
X90572260Y-65464034D01*
X90567020Y-65467535D01*
X90567018Y-65467536D01*
X90513089Y-65503570D01*
X90489399Y-65519399D01*
X90485895Y-65524643D01*
X90437536Y-65597018D01*
X90437535Y-65597020D01*
X90434034Y-65602260D01*
X90432805Y-65608441D01*
X90432804Y-65608442D01*
X90420579Y-65669902D01*
X90419500Y-65675326D01*
X90419500Y-66284674D01*
X90420114Y-66287759D01*
X90420114Y-66287762D01*
X90432149Y-66348262D01*
X90434034Y-66357740D01*
X90437535Y-66362980D01*
X90437536Y-66362982D01*
X90484822Y-66433751D01*
X90489399Y-66440601D01*
X90494643Y-66444105D01*
X90567018Y-66492464D01*
X90567020Y-66492465D01*
X90572260Y-66495966D01*
X90578441Y-66497195D01*
X90578442Y-66497196D01*
X90642238Y-66509886D01*
X90642241Y-66509886D01*
X90645326Y-66510500D01*
X91954674Y-66510500D01*
X91957759Y-66509886D01*
X91957762Y-66509886D01*
X92021558Y-66497196D01*
X92021559Y-66497195D01*
X92027740Y-66495966D01*
X92032980Y-66492465D01*
X92032982Y-66492464D01*
X92105357Y-66444105D01*
X92110601Y-66440601D01*
X92115178Y-66433751D01*
X92142110Y-66393444D01*
X92182838Y-66366230D01*
X92195324Y-66365000D01*
X95975079Y-66365000D01*
X96020334Y-66383745D01*
X96366333Y-66729744D01*
X96367967Y-66731439D01*
X96375150Y-66739171D01*
X96377186Y-66740680D01*
X96378748Y-66742159D01*
X96382266Y-66745677D01*
X96382824Y-66746242D01*
X96388790Y-66752358D01*
X96391916Y-66755805D01*
X96392790Y-66756842D01*
X96392800Y-66756853D01*
X96393806Y-66758047D01*
X96394925Y-66759139D01*
X96394927Y-66759141D01*
X96409120Y-66772990D01*
X96413671Y-66778497D01*
X96413719Y-66778455D01*
X96417631Y-66782875D01*
X96418773Y-66783935D01*
X96418778Y-66783941D01*
X96433302Y-66797433D01*
X96437991Y-66802832D01*
X96438039Y-66802788D01*
X96442057Y-66807111D01*
X96443223Y-66808142D01*
X96443227Y-66808146D01*
X96458086Y-66821285D01*
X96462904Y-66826565D01*
X96462950Y-66826520D01*
X96467073Y-66830742D01*
X96468270Y-66831750D01*
X96468272Y-66831751D01*
X96483444Y-66844517D01*
X96488392Y-66849678D01*
X96488436Y-66849633D01*
X96492662Y-66853753D01*
X96508823Y-66866687D01*
X96509365Y-66867121D01*
X96514436Y-66872157D01*
X96514480Y-66872110D01*
X96518806Y-66876126D01*
X96535833Y-66889081D01*
X96541014Y-66893981D01*
X96541058Y-66893932D01*
X96545481Y-66897840D01*
X96560818Y-66908927D01*
X96562824Y-66910377D01*
X96568147Y-66915168D01*
X96568187Y-66915121D01*
X96572705Y-66918919D01*
X96590349Y-66931024D01*
X96595764Y-66935664D01*
X96595805Y-66935612D01*
X96599199Y-66938327D01*
X96599208Y-66938333D01*
X96600414Y-66939298D01*
X96601716Y-66940145D01*
X96601720Y-66940148D01*
X96618349Y-66950967D01*
X96628931Y-66959588D01*
X96629810Y-66960476D01*
X96648324Y-67005826D01*
X96629349Y-67050985D01*
X96584325Y-67069500D01*
X96219186Y-67069500D01*
X96217513Y-67069833D01*
X96214107Y-67070000D01*
X95785893Y-67070000D01*
X95782487Y-67069833D01*
X95780814Y-67069500D01*
X95219186Y-67069500D01*
X95217513Y-67069833D01*
X95214107Y-67070000D01*
X94785893Y-67070000D01*
X94782487Y-67069833D01*
X94780814Y-67069500D01*
X94219186Y-67069500D01*
X94216100Y-67070114D01*
X94216098Y-67070114D01*
X94193436Y-67074622D01*
X94154575Y-67082352D01*
X94081308Y-67131308D01*
X94032352Y-67204575D01*
X94027391Y-67229515D01*
X94020763Y-67262839D01*
X94019500Y-67269186D01*
X94019500Y-67530500D01*
X94000755Y-67575755D01*
X93955500Y-67594500D01*
X92194990Y-67594500D01*
X92149735Y-67575755D01*
X92141776Y-67566056D01*
X92114105Y-67524643D01*
X92110601Y-67519399D01*
X92105357Y-67515895D01*
X92032982Y-67467536D01*
X92032980Y-67467535D01*
X92027740Y-67464034D01*
X92021559Y-67462805D01*
X92021558Y-67462804D01*
X91957762Y-67450114D01*
X91957759Y-67450114D01*
X91954674Y-67449500D01*
X90645326Y-67449500D01*
X90642241Y-67450114D01*
X90642238Y-67450114D01*
X90578442Y-67462804D01*
X90578441Y-67462805D01*
X90572260Y-67464034D01*
X90567020Y-67467535D01*
X90567018Y-67467536D01*
X90494643Y-67515895D01*
X90489399Y-67519399D01*
X90485895Y-67524643D01*
X90437536Y-67597018D01*
X90437535Y-67597020D01*
X90434034Y-67602260D01*
X90419500Y-67675326D01*
X90419500Y-68284674D01*
X90434034Y-68357740D01*
X90437535Y-68362980D01*
X90437536Y-68362982D01*
X90475300Y-68419500D01*
X90489399Y-68440601D01*
X90494643Y-68444105D01*
X90567018Y-68492464D01*
X90567020Y-68492465D01*
X90572260Y-68495966D01*
X90578441Y-68497195D01*
X90578442Y-68497196D01*
X90642238Y-68509886D01*
X90642241Y-68509886D01*
X90645326Y-68510500D01*
X91954674Y-68510500D01*
X91957759Y-68509886D01*
X91957762Y-68509886D01*
X92021558Y-68497196D01*
X92021559Y-68497195D01*
X92027740Y-68495966D01*
X92032980Y-68492465D01*
X92032982Y-68492464D01*
X92105357Y-68444105D01*
X92110601Y-68440601D01*
X92148458Y-68383944D01*
X92189184Y-68356730D01*
X92201671Y-68355500D01*
X93955500Y-68355500D01*
X94000755Y-68374245D01*
X94019500Y-68419500D01*
X94019500Y-68680814D01*
X94032352Y-68745425D01*
X94081308Y-68818692D01*
X94154575Y-68867648D01*
X94189339Y-68874563D01*
X94216098Y-68879886D01*
X94216100Y-68879886D01*
X94219186Y-68880500D01*
X94780814Y-68880500D01*
X94782487Y-68880167D01*
X94785893Y-68880000D01*
X95155500Y-68880000D01*
X95200755Y-68898745D01*
X95219500Y-68944000D01*
X95219500Y-69434913D01*
X95219266Y-69440378D01*
X95218914Y-69444486D01*
X95218933Y-69446050D01*
X95218933Y-69446053D01*
X95219093Y-69459130D01*
X95218417Y-69466242D01*
X95218480Y-69466246D01*
X95218121Y-69472137D01*
X95218178Y-69473686D01*
X95218178Y-69473690D01*
X95218660Y-69486769D01*
X95218158Y-69493904D01*
X95218220Y-69493906D01*
X95218006Y-69499804D01*
X95218101Y-69501349D01*
X95218101Y-69501356D01*
X95218904Y-69514418D01*
X95218578Y-69521550D01*
X95218642Y-69521551D01*
X95218572Y-69527453D01*
X95218706Y-69529007D01*
X95219828Y-69542038D01*
X95219676Y-69549189D01*
X95219740Y-69549188D01*
X95219815Y-69555090D01*
X95219989Y-69556659D01*
X95221428Y-69569641D01*
X95221453Y-69576784D01*
X95221517Y-69576782D01*
X95221737Y-69582680D01*
X95221948Y-69584233D01*
X95221949Y-69584245D01*
X95223707Y-69597187D01*
X95223907Y-69604339D01*
X95223970Y-69604335D01*
X95224335Y-69610226D01*
X95224582Y-69611761D01*
X95226660Y-69624673D01*
X95227034Y-69631798D01*
X95227100Y-69631792D01*
X95227609Y-69637672D01*
X95227894Y-69639203D01*
X95230289Y-69652070D01*
X95230841Y-69659217D01*
X95230901Y-69659210D01*
X95231554Y-69665076D01*
X95234586Y-69679394D01*
X95235308Y-69686485D01*
X95235375Y-69686476D01*
X95236171Y-69692324D01*
X95239555Y-69706575D01*
X95240454Y-69713672D01*
X95240516Y-69713662D01*
X95241456Y-69719489D01*
X95245189Y-69733651D01*
X95246260Y-69740706D01*
X95246323Y-69740694D01*
X95247012Y-69744383D01*
X95247406Y-69746496D01*
X95251485Y-69760561D01*
X95252730Y-69767599D01*
X95252792Y-69767586D01*
X95254017Y-69773359D01*
X95258437Y-69787309D01*
X95259854Y-69794309D01*
X95259917Y-69794294D01*
X95261283Y-69800036D01*
X95266049Y-69813891D01*
X95267639Y-69820865D01*
X95267699Y-69820849D01*
X95269206Y-69826555D01*
X95273637Y-69838474D01*
X95274306Y-69840274D01*
X95276063Y-69847187D01*
X95276125Y-69847169D01*
X95277772Y-69852837D01*
X95278348Y-69854278D01*
X95278352Y-69854289D01*
X95280349Y-69859282D01*
X95282418Y-69864454D01*
X95283208Y-69866430D01*
X95285140Y-69873323D01*
X95285200Y-69873304D01*
X95286985Y-69878930D01*
X95292752Y-69892381D01*
X95294851Y-69899218D01*
X95294911Y-69899197D01*
X95296834Y-69904777D01*
X95297488Y-69906204D01*
X95297490Y-69906210D01*
X95302930Y-69918088D01*
X95305194Y-69924860D01*
X95305254Y-69924838D01*
X95307313Y-69930370D01*
X95312985Y-69941992D01*
X95313733Y-69943524D01*
X95316166Y-69950253D01*
X95316225Y-69950229D01*
X95318419Y-69955708D01*
X95319138Y-69957094D01*
X95319139Y-69957096D01*
X95325161Y-69968704D01*
X95327755Y-69975358D01*
X95327814Y-69975333D01*
X95330141Y-69980756D01*
X95330891Y-69982118D01*
X95330895Y-69982127D01*
X95337200Y-69993582D01*
X95339956Y-70000174D01*
X95340015Y-70000147D01*
X95342475Y-70005512D01*
X95343259Y-70006857D01*
X95343263Y-70006865D01*
X95349849Y-70018166D01*
X95352765Y-70024685D01*
X95352823Y-70024657D01*
X95354728Y-70028557D01*
X95354732Y-70028565D01*
X95355414Y-70029960D01*
X95356236Y-70031294D01*
X95363095Y-70042427D01*
X95366174Y-70048879D01*
X95366230Y-70048850D01*
X95367852Y-70051972D01*
X95368950Y-70054087D01*
X95369801Y-70055395D01*
X95369805Y-70055402D01*
X95376935Y-70066361D01*
X95380174Y-70072741D01*
X95380229Y-70072711D01*
X95383077Y-70077880D01*
X95383967Y-70079177D01*
X95383970Y-70079182D01*
X95391354Y-70089943D01*
X95394739Y-70096225D01*
X95394797Y-70096191D01*
X95397771Y-70101290D01*
X95406351Y-70113162D01*
X95409895Y-70119369D01*
X95409948Y-70119336D01*
X95413047Y-70124359D01*
X95413991Y-70125600D01*
X95413996Y-70125607D01*
X95421913Y-70136013D01*
X95425610Y-70142134D01*
X95425663Y-70142099D01*
X95428884Y-70147045D01*
X95429862Y-70148267D01*
X95429865Y-70148271D01*
X95438031Y-70158473D01*
X95441869Y-70164490D01*
X95441923Y-70164453D01*
X95445264Y-70169318D01*
X95446264Y-70170507D01*
X95446275Y-70170521D01*
X95454691Y-70180524D01*
X95458686Y-70186458D01*
X95458737Y-70186421D01*
X95462196Y-70191203D01*
X95463226Y-70192368D01*
X95463239Y-70192384D01*
X95471892Y-70202169D01*
X95476029Y-70208000D01*
X95476080Y-70207961D01*
X95479656Y-70212657D01*
X95489624Y-70223387D01*
X95493888Y-70229097D01*
X95493939Y-70229056D01*
X95496651Y-70232442D01*
X95496658Y-70232449D01*
X95497629Y-70233662D01*
X95507821Y-70244108D01*
X95511454Y-70248164D01*
X95514104Y-70251391D01*
X95514206Y-70251493D01*
X95515229Y-70252846D01*
X95515346Y-70252748D01*
X95519148Y-70257263D01*
X95529631Y-70267492D01*
X95534187Y-70273007D01*
X95534234Y-70272965D01*
X95538145Y-70277385D01*
X95539295Y-70278453D01*
X95548870Y-70287348D01*
X95553551Y-70292737D01*
X95553599Y-70292693D01*
X95557617Y-70297015D01*
X95558791Y-70298053D01*
X95558795Y-70298057D01*
X95562531Y-70301360D01*
X95567924Y-70306128D01*
X95568582Y-70306710D01*
X95573403Y-70311995D01*
X95573449Y-70311950D01*
X95577573Y-70316173D01*
X95578777Y-70317186D01*
X95588779Y-70325603D01*
X95593731Y-70330769D01*
X95593775Y-70330724D01*
X95598001Y-70334844D01*
X95599221Y-70335820D01*
X95599224Y-70335823D01*
X95609426Y-70343987D01*
X95614485Y-70349013D01*
X95614531Y-70348963D01*
X95618857Y-70352979D01*
X95620116Y-70353937D01*
X95630509Y-70361845D01*
X95635709Y-70366762D01*
X95635751Y-70366715D01*
X95640174Y-70370623D01*
X95640844Y-70371107D01*
X95641776Y-70372801D01*
X95642065Y-70373139D01*
X95641995Y-70373198D01*
X95664427Y-70413932D01*
X95650794Y-70460980D01*
X95607886Y-70484609D01*
X95600818Y-70485000D01*
X90859103Y-70485000D01*
X90813848Y-70466255D01*
X90799059Y-70443152D01*
X90794478Y-70430735D01*
X90718272Y-70224170D01*
X90591815Y-69989804D01*
X90588347Y-69985108D01*
X90434941Y-69777414D01*
X90433596Y-69775593D01*
X90246774Y-69585813D01*
X90244974Y-69584439D01*
X90036881Y-69425627D01*
X90036878Y-69425625D01*
X90035075Y-69424249D01*
X90032449Y-69422778D01*
X89901502Y-69349445D01*
X89802723Y-69294126D01*
X89800612Y-69293309D01*
X89800607Y-69293307D01*
X89748064Y-69272980D01*
X89712621Y-69239169D01*
X89707157Y-69213311D01*
X89705190Y-61928780D01*
X89705591Y-61921613D01*
X89721897Y-61776561D01*
X89725083Y-61762586D01*
X89772072Y-61628208D01*
X89778288Y-61615295D01*
X89778439Y-61615055D01*
X89854005Y-61494747D01*
X89862936Y-61483545D01*
X89963587Y-61382865D01*
X89974791Y-61373929D01*
X89974946Y-61373832D01*
X90095317Y-61298182D01*
X90108228Y-61291963D01*
X90242596Y-61244937D01*
X90256562Y-61241749D01*
X90401613Y-61225403D01*
X90408780Y-61225000D01*
X90955500Y-61225000D01*
X91000755Y-61243745D01*
G37*
%TD.AperFunction*%
%TA.AperFunction,Conductor*%
G36*
X101603757Y-61225402D02*
G01*
X101694864Y-61235665D01*
X101748763Y-61241737D01*
X101762730Y-61244924D01*
X101876226Y-61284631D01*
X101897053Y-61291917D01*
X101909963Y-61298133D01*
X102030463Y-61373832D01*
X102041667Y-61382765D01*
X102142308Y-61483378D01*
X102151238Y-61494573D01*
X102226974Y-61615058D01*
X102233191Y-61627963D01*
X102280219Y-61762270D01*
X102283411Y-61776239D01*
X102299786Y-61921242D01*
X102300190Y-61928406D01*
X102302151Y-69189937D01*
X102302155Y-69206505D01*
X102283422Y-69251765D01*
X102259363Y-69266906D01*
X102253384Y-69269006D01*
X102253380Y-69269008D01*
X102251255Y-69269754D01*
X102248406Y-69271234D01*
X102016936Y-69391472D01*
X102016931Y-69391475D01*
X102014931Y-69392514D01*
X101798262Y-69547348D01*
X101796626Y-69548909D01*
X101796622Y-69548912D01*
X101683095Y-69657212D01*
X101605571Y-69731167D01*
X101604163Y-69732953D01*
X101469260Y-69904076D01*
X101426522Y-69928010D01*
X101379378Y-69914714D01*
X101355444Y-69871976D01*
X101355000Y-69864454D01*
X101355000Y-69455000D01*
X101353825Y-69455000D01*
X101352740Y-69449544D01*
X101352740Y-69082510D01*
X101352739Y-69082507D01*
X101352739Y-68705746D01*
X101345169Y-68667681D01*
X101316326Y-68624514D01*
X101309740Y-68620113D01*
X101288487Y-68605913D01*
X101273159Y-68595671D01*
X101235095Y-68588100D01*
X101231946Y-68588100D01*
X101072085Y-68588101D01*
X100909386Y-68588101D01*
X100871321Y-68595671D01*
X100866081Y-68599172D01*
X100860256Y-68601585D01*
X100859019Y-68598598D01*
X100822259Y-68605913D01*
X100809603Y-68600671D01*
X100809224Y-68601586D01*
X100803404Y-68599175D01*
X100798159Y-68595671D01*
X100760095Y-68588100D01*
X100756946Y-68588100D01*
X100572061Y-68588101D01*
X100384386Y-68588101D01*
X100346321Y-68595671D01*
X100341081Y-68599172D01*
X100335256Y-68601585D01*
X100334019Y-68598598D01*
X100297259Y-68605913D01*
X100284603Y-68600671D01*
X100284224Y-68601586D01*
X100278404Y-68599175D01*
X100273159Y-68595671D01*
X100235095Y-68588100D01*
X100231946Y-68588100D01*
X100072085Y-68588101D01*
X99909386Y-68588101D01*
X99871321Y-68595671D01*
X99866082Y-68599172D01*
X99866081Y-68599172D01*
X99833398Y-68621010D01*
X99828154Y-68624514D01*
X99799311Y-68667681D01*
X99791740Y-68705745D01*
X99791740Y-68814100D01*
X99772995Y-68859355D01*
X99727740Y-68878100D01*
X98044000Y-68878100D01*
X97998745Y-68859355D01*
X97980000Y-68814100D01*
X97980000Y-68137729D01*
X97976272Y-68128728D01*
X97967271Y-68125000D01*
X97414000Y-68125000D01*
X97368745Y-68106255D01*
X97350000Y-68061000D01*
X97350000Y-67889000D01*
X97368745Y-67843745D01*
X97414000Y-67825000D01*
X97967270Y-67825000D01*
X97976271Y-67821272D01*
X97979999Y-67812271D01*
X97979999Y-67272377D01*
X97979840Y-67270762D01*
X97979999Y-67270238D01*
X97979999Y-67269232D01*
X97980304Y-67269232D01*
X97994060Y-67223888D01*
X98037260Y-67200798D01*
X98043532Y-67200490D01*
X99632427Y-67200490D01*
X99633201Y-67200495D01*
X99633944Y-67200504D01*
X99637613Y-67200549D01*
X99639107Y-67200585D01*
X99641513Y-67200674D01*
X99642958Y-67200745D01*
X99645266Y-67200886D01*
X99646773Y-67200997D01*
X99649123Y-67201200D01*
X99650617Y-67201348D01*
X99651767Y-67201475D01*
X99652924Y-67201604D01*
X99654440Y-67201790D01*
X99656741Y-67202103D01*
X99658265Y-67202329D01*
X99658685Y-67202397D01*
X99660552Y-67202698D01*
X99662064Y-67202961D01*
X99664241Y-67203366D01*
X99665793Y-67203674D01*
X99668060Y-67204154D01*
X99669595Y-67204499D01*
X99671784Y-67205019D01*
X99673293Y-67205397D01*
X99675495Y-67205977D01*
X99677009Y-67206396D01*
X99679200Y-67207031D01*
X99680727Y-67207494D01*
X99682834Y-67208162D01*
X99684320Y-67208653D01*
X99686505Y-67209405D01*
X99687939Y-67209918D01*
X99690134Y-67210734D01*
X99691548Y-67211279D01*
X99693697Y-67212138D01*
X99695180Y-67212753D01*
X99697233Y-67213634D01*
X99698643Y-67214259D01*
X99700665Y-67215185D01*
X99702080Y-67215854D01*
X99704187Y-67216882D01*
X99705520Y-67217552D01*
X99707660Y-67218663D01*
X99708916Y-67219334D01*
X99710951Y-67220454D01*
X99712313Y-67221226D01*
X99714279Y-67222372D01*
X99715609Y-67223169D01*
X99717543Y-67224360D01*
X99718848Y-67225186D01*
X99720817Y-67226467D01*
X99722107Y-67227329D01*
X99723985Y-67228618D01*
X99725258Y-67229515D01*
X99727112Y-67230855D01*
X99728361Y-67231781D01*
X99730156Y-67233147D01*
X99731358Y-67234085D01*
X99733200Y-67235559D01*
X99734380Y-67236526D01*
X99736121Y-67237991D01*
X99737269Y-67238981D01*
X99739048Y-67240554D01*
X99740153Y-67241557D01*
X99741827Y-67243112D01*
X99742944Y-67244175D01*
X99745004Y-67246185D01*
X99746064Y-67247245D01*
X99746794Y-67247993D01*
X99748012Y-67249241D01*
X99749090Y-67250373D01*
X99750660Y-67252063D01*
X99751717Y-67253230D01*
X99753221Y-67254931D01*
X99754259Y-67256135D01*
X99755712Y-67257863D01*
X99756690Y-67259054D01*
X99758095Y-67260809D01*
X99759069Y-67262057D01*
X99760449Y-67263871D01*
X99761378Y-67265124D01*
X99762722Y-67266983D01*
X99763629Y-67268271D01*
X99764910Y-67270138D01*
X99765783Y-67271445D01*
X99767012Y-67273334D01*
X99767853Y-67274661D01*
X99769046Y-67276597D01*
X99769860Y-67277956D01*
X99770996Y-67279906D01*
X99771768Y-67281269D01*
X99772858Y-67283250D01*
X99773591Y-67284620D01*
X99774438Y-67286251D01*
X99774655Y-67286670D01*
X99775365Y-67288081D01*
X99776347Y-67290093D01*
X99777023Y-67291522D01*
X99777979Y-67293610D01*
X99778607Y-67295028D01*
X99779496Y-67297101D01*
X99780100Y-67298557D01*
X99780940Y-67300657D01*
X99781502Y-67302114D01*
X99781931Y-67303266D01*
X99782298Y-67304254D01*
X99782818Y-67305708D01*
X99783558Y-67307858D01*
X99783573Y-67307901D01*
X99784056Y-67309363D01*
X99784732Y-67311495D01*
X99785195Y-67313022D01*
X99785837Y-67315237D01*
X99786249Y-67316726D01*
X99786835Y-67318952D01*
X99787207Y-67320438D01*
X99787742Y-67322693D01*
X99788084Y-67324215D01*
X99788542Y-67326379D01*
X99788848Y-67327917D01*
X99789271Y-67330189D01*
X99789534Y-67331702D01*
X99789895Y-67333938D01*
X99790131Y-67335530D01*
X99790434Y-67337762D01*
X99790626Y-67339313D01*
X99790880Y-67341602D01*
X99791030Y-67343122D01*
X99791228Y-67345424D01*
X99791341Y-67346970D01*
X99791480Y-67349231D01*
X99791555Y-67350757D01*
X99791643Y-67353134D01*
X99791680Y-67354639D01*
X99791725Y-67358259D01*
X99791735Y-67359050D01*
X99791740Y-67359838D01*
X99791740Y-67754690D01*
X99791741Y-67754693D01*
X99791741Y-68111454D01*
X99799311Y-68149519D01*
X99828154Y-68192686D01*
X99871321Y-68221529D01*
X99909385Y-68229100D01*
X99912534Y-68229100D01*
X100072395Y-68229099D01*
X100235094Y-68229099D01*
X100256349Y-68224872D01*
X100266975Y-68222759D01*
X100266976Y-68222759D01*
X100273159Y-68221529D01*
X100278401Y-68218026D01*
X100284225Y-68215614D01*
X100285380Y-68218403D01*
X100322693Y-68210991D01*
X100335049Y-68216110D01*
X100335450Y-68215142D01*
X100352701Y-68222287D01*
X100381348Y-68227986D01*
X100387583Y-68228600D01*
X100409511Y-68228600D01*
X100418512Y-68224872D01*
X100422240Y-68215871D01*
X100422240Y-67423520D01*
X100440985Y-67378265D01*
X100486240Y-67359520D01*
X100658240Y-67359520D01*
X100703495Y-67378265D01*
X100722240Y-67423520D01*
X100722240Y-68215871D01*
X100725968Y-68224872D01*
X100734969Y-68228600D01*
X100756897Y-68228600D01*
X100763132Y-68227986D01*
X100791779Y-68222287D01*
X100809030Y-68215142D01*
X100810313Y-68218239D01*
X100846784Y-68210990D01*
X100859916Y-68216429D01*
X100860254Y-68215614D01*
X100866080Y-68218027D01*
X100871321Y-68221529D01*
X100909385Y-68229100D01*
X100912534Y-68229100D01*
X101072395Y-68229099D01*
X101235094Y-68229099D01*
X101273159Y-68221529D01*
X101281270Y-68216110D01*
X101311082Y-68196190D01*
X101316326Y-68192686D01*
X101345169Y-68149519D01*
X101352740Y-68111455D01*
X101352740Y-67332717D01*
X101352974Y-67327251D01*
X101353194Y-67324682D01*
X101353328Y-67323121D01*
X101353148Y-67308483D01*
X101353823Y-67301378D01*
X101353759Y-67301374D01*
X101354023Y-67297043D01*
X101354023Y-67297042D01*
X101354118Y-67295483D01*
X101353846Y-67288081D01*
X101353579Y-67280847D01*
X101354081Y-67273713D01*
X101354019Y-67273711D01*
X101354233Y-67267813D01*
X101353335Y-67253200D01*
X101353662Y-67246070D01*
X101353597Y-67246069D01*
X101353619Y-67244194D01*
X101353667Y-67240167D01*
X101352411Y-67225579D01*
X101352562Y-67218429D01*
X101352499Y-67218430D01*
X101352444Y-67214100D01*
X101352424Y-67212528D01*
X101352223Y-67210712D01*
X101350811Y-67197975D01*
X101350786Y-67190832D01*
X101350722Y-67190834D01*
X101350560Y-67186483D01*
X101350559Y-67186477D01*
X101350502Y-67184936D01*
X101349716Y-67179144D01*
X101348532Y-67170427D01*
X101348332Y-67163279D01*
X101348269Y-67163283D01*
X101348000Y-67158937D01*
X101347999Y-67158931D01*
X101347904Y-67157392D01*
X101345579Y-67142943D01*
X101345205Y-67135821D01*
X101345139Y-67135827D01*
X101345047Y-67134765D01*
X101344630Y-67129947D01*
X101341949Y-67115546D01*
X101341399Y-67108405D01*
X101341338Y-67108412D01*
X101340859Y-67104111D01*
X101340685Y-67102546D01*
X101340360Y-67101010D01*
X101340358Y-67100999D01*
X101337654Y-67088231D01*
X101336931Y-67081133D01*
X101336864Y-67081142D01*
X101336279Y-67076841D01*
X101336277Y-67076832D01*
X101336068Y-67075294D01*
X101335709Y-67073784D01*
X101335707Y-67073771D01*
X101332685Y-67061043D01*
X101331784Y-67053942D01*
X101331723Y-67053952D01*
X101331031Y-67049664D01*
X101330783Y-67048125D01*
X101327052Y-67033971D01*
X101325980Y-67026913D01*
X101325916Y-67026925D01*
X101325769Y-67026137D01*
X101324834Y-67021123D01*
X101324401Y-67019628D01*
X101324396Y-67019609D01*
X101320756Y-67007056D01*
X101319510Y-67000024D01*
X101319448Y-67000037D01*
X101319335Y-66999505D01*
X101318223Y-66994264D01*
X101317751Y-66992773D01*
X101313802Y-66980305D01*
X101312384Y-66973305D01*
X101312322Y-66973320D01*
X101311321Y-66969112D01*
X101311321Y-66969111D01*
X101310956Y-66967578D01*
X101308513Y-66960476D01*
X101306192Y-66953728D01*
X101304602Y-66946759D01*
X101304541Y-66946775D01*
X101303962Y-66944584D01*
X101303034Y-66941069D01*
X101297933Y-66927345D01*
X101296176Y-66920430D01*
X101296113Y-66920448D01*
X101294901Y-66916275D01*
X101294467Y-66914780D01*
X101293891Y-66913339D01*
X101293887Y-66913328D01*
X101289030Y-66901182D01*
X101287099Y-66894296D01*
X101287039Y-66894315D01*
X101285727Y-66890179D01*
X101285725Y-66890174D01*
X101285254Y-66888689D01*
X101284641Y-66887260D01*
X101284637Y-66887248D01*
X101279486Y-66875232D01*
X101277388Y-66868400D01*
X101277328Y-66868421D01*
X101276545Y-66866150D01*
X101275405Y-66862841D01*
X101274183Y-66860173D01*
X101269309Y-66849530D01*
X101267045Y-66842757D01*
X101266985Y-66842779D01*
X101265469Y-66838706D01*
X101265467Y-66838702D01*
X101264926Y-66837248D01*
X101258506Y-66824094D01*
X101256073Y-66817365D01*
X101256014Y-66817389D01*
X101254399Y-66813356D01*
X101253820Y-66811910D01*
X101253106Y-66810535D01*
X101253102Y-66810525D01*
X101249087Y-66802788D01*
X101247080Y-66798919D01*
X101244485Y-66792259D01*
X101244425Y-66792285D01*
X101242718Y-66788306D01*
X101242717Y-66788305D01*
X101242098Y-66786861D01*
X101239261Y-66781706D01*
X101235038Y-66774032D01*
X101232283Y-66767444D01*
X101232224Y-66767471D01*
X101230415Y-66763526D01*
X101229764Y-66762106D01*
X101228985Y-66760769D01*
X101228977Y-66760754D01*
X101222390Y-66749453D01*
X101219469Y-66742922D01*
X101219412Y-66742950D01*
X101219398Y-66742922D01*
X101216821Y-66737647D01*
X101209140Y-66725183D01*
X101206066Y-66718739D01*
X101206008Y-66718769D01*
X101204011Y-66714922D01*
X101204005Y-66714911D01*
X101203288Y-66713531D01*
X101202435Y-66712220D01*
X101202427Y-66712206D01*
X101195306Y-66701260D01*
X101192074Y-66694894D01*
X101192017Y-66694925D01*
X101189927Y-66691131D01*
X101189169Y-66689755D01*
X101180884Y-66677679D01*
X101177495Y-66671387D01*
X101177439Y-66671419D01*
X101175259Y-66667682D01*
X101174465Y-66666320D01*
X101165886Y-66654452D01*
X101162339Y-66648239D01*
X101162286Y-66648272D01*
X101160007Y-66644578D01*
X101160006Y-66644577D01*
X101159187Y-66643249D01*
X101150328Y-66631606D01*
X101146640Y-66625499D01*
X101146584Y-66625536D01*
X101144222Y-66621907D01*
X101144216Y-66621899D01*
X101143364Y-66620590D01*
X101134214Y-66609156D01*
X101130365Y-66603121D01*
X101130312Y-66603157D01*
X101127858Y-66599582D01*
X101127852Y-66599574D01*
X101126971Y-66598291D01*
X101117546Y-66587091D01*
X101113554Y-66581158D01*
X101113502Y-66581196D01*
X101110958Y-66577680D01*
X101110042Y-66576414D01*
X101100347Y-66565450D01*
X101096215Y-66559625D01*
X101096163Y-66559665D01*
X101093528Y-66556205D01*
X101092587Y-66554969D01*
X101091531Y-66553833D01*
X101091525Y-66553825D01*
X101086964Y-66548916D01*
X101082619Y-66544239D01*
X101078338Y-66538506D01*
X101078289Y-66538545D01*
X101075569Y-66535150D01*
X101074599Y-66533939D01*
X101064411Y-66523499D01*
X101060769Y-66519434D01*
X101058136Y-66516230D01*
X101058239Y-66516145D01*
X101057939Y-66515750D01*
X101057850Y-66515825D01*
X101055062Y-66512515D01*
X101054048Y-66511311D01*
X101052588Y-66509886D01*
X101043563Y-66501079D01*
X101039018Y-66495580D01*
X101038971Y-66495622D01*
X101035059Y-66491203D01*
X101033916Y-66490141D01*
X101033909Y-66490134D01*
X101024335Y-66481240D01*
X101019642Y-66475835D01*
X101019595Y-66475879D01*
X101016644Y-66472705D01*
X101015576Y-66471556D01*
X101004606Y-66461856D01*
X100999790Y-66456580D01*
X100999745Y-66456624D01*
X100996709Y-66453516D01*
X100995621Y-66452402D01*
X100984424Y-66442981D01*
X100979482Y-66437825D01*
X100979436Y-66437872D01*
X100976330Y-66434843D01*
X100976328Y-66434841D01*
X100975210Y-66433751D01*
X100963778Y-66424601D01*
X100958705Y-66419563D01*
X100958662Y-66419609D01*
X100955489Y-66416663D01*
X100955485Y-66416659D01*
X100954336Y-66415593D01*
X100942688Y-66406731D01*
X100937500Y-66401825D01*
X100937457Y-66401874D01*
X100934213Y-66399008D01*
X100933034Y-66397966D01*
X100926779Y-66393444D01*
X100921165Y-66389386D01*
X100915844Y-66384596D01*
X100915804Y-66384644D01*
X100912475Y-66381845D01*
X100912469Y-66381840D01*
X100911286Y-66380846D01*
X100899213Y-66372564D01*
X100893793Y-66367920D01*
X100893753Y-66367970D01*
X100890361Y-66365258D01*
X100889143Y-66364284D01*
X100887845Y-66363440D01*
X100887836Y-66363433D01*
X100876866Y-66356296D01*
X100871328Y-66351783D01*
X100871290Y-66351833D01*
X100867820Y-66349196D01*
X100866591Y-66348262D01*
X100854135Y-66340587D01*
X100848487Y-66336210D01*
X100848449Y-66336263D01*
X100844921Y-66333715D01*
X100843664Y-66332807D01*
X100842322Y-66332025D01*
X100842313Y-66332019D01*
X100831008Y-66325430D01*
X100825249Y-66321189D01*
X100825214Y-66321241D01*
X100821639Y-66318791D01*
X100820345Y-66317904D01*
X100807524Y-66310848D01*
X100801666Y-66306752D01*
X100801631Y-66306806D01*
X100797999Y-66304445D01*
X100797998Y-66304444D01*
X100796682Y-66303589D01*
X100795289Y-66302866D01*
X100795285Y-66302864D01*
X100783690Y-66296849D01*
X100777736Y-66292899D01*
X100777702Y-66292955D01*
X100774011Y-66290683D01*
X100772676Y-66289861D01*
X100768375Y-66287762D01*
X100759521Y-66283440D01*
X100753464Y-66279633D01*
X100753432Y-66279688D01*
X100749692Y-66277510D01*
X100749685Y-66277507D01*
X100748331Y-66276718D01*
X100746906Y-66276066D01*
X100746890Y-66276057D01*
X100735017Y-66270619D01*
X100728883Y-66266971D01*
X100728852Y-66267027D01*
X100725050Y-66264937D01*
X100725049Y-66264936D01*
X100723680Y-66264184D01*
X100710217Y-66258412D01*
X100703989Y-66254912D01*
X100703960Y-66254967D01*
X100698720Y-66252252D01*
X100685127Y-66246816D01*
X100678819Y-66243471D01*
X100678791Y-66243529D01*
X100674897Y-66241631D01*
X100674894Y-66241630D01*
X100673485Y-66240943D01*
X100672014Y-66240396D01*
X100672002Y-66240391D01*
X100659758Y-66235839D01*
X100653356Y-66232644D01*
X100653330Y-66232702D01*
X100649386Y-66230897D01*
X100649383Y-66230896D01*
X100647963Y-66230246D01*
X100634119Y-66225484D01*
X100627658Y-66222454D01*
X100627632Y-66222514D01*
X100623640Y-66220805D01*
X100623641Y-66220805D01*
X100622206Y-66220191D01*
X100608246Y-66215769D01*
X100601703Y-66212894D01*
X100601680Y-66212953D01*
X100597664Y-66211349D01*
X100597662Y-66211348D01*
X100596199Y-66210764D01*
X100582134Y-66206685D01*
X100575531Y-66203977D01*
X100575509Y-66204037D01*
X100571451Y-66202530D01*
X100571441Y-66202527D01*
X100569976Y-66201983D01*
X100555816Y-66198251D01*
X100549141Y-66195701D01*
X100549120Y-66195761D01*
X100543538Y-66193843D01*
X100542018Y-66193482D01*
X100542011Y-66193480D01*
X100529297Y-66190461D01*
X100522554Y-66188073D01*
X100522535Y-66188135D01*
X100516908Y-66186355D01*
X100502579Y-66183322D01*
X100495792Y-66181104D01*
X100495774Y-66181166D01*
X100490105Y-66179524D01*
X100475709Y-66176844D01*
X100468859Y-66174791D01*
X100468843Y-66174852D01*
X100463135Y-66173351D01*
X100448683Y-66171026D01*
X100441793Y-66169145D01*
X100441778Y-66169207D01*
X100437564Y-66168208D01*
X100437557Y-66168207D01*
X100436035Y-66167846D01*
X100434489Y-66167636D01*
X100434478Y-66167634D01*
X100421529Y-66165876D01*
X100414591Y-66164163D01*
X100414578Y-66164226D01*
X100410332Y-66163329D01*
X100408803Y-66163006D01*
X100407258Y-66162835D01*
X100407248Y-66162833D01*
X100396427Y-66161633D01*
X100394250Y-66161392D01*
X100387269Y-66159848D01*
X100387257Y-66159911D01*
X100381454Y-66158833D01*
X100371229Y-66157952D01*
X100366873Y-66157577D01*
X100359861Y-66156208D01*
X100359851Y-66156272D01*
X100354024Y-66155336D01*
X100339398Y-66154437D01*
X100332356Y-66153239D01*
X100332348Y-66153302D01*
X100328054Y-66152720D01*
X100328045Y-66152719D01*
X100326500Y-66152510D01*
X100324946Y-66152453D01*
X100324937Y-66152452D01*
X100311866Y-66151971D01*
X100304795Y-66150947D01*
X100304788Y-66151010D01*
X100300471Y-66150533D01*
X100300467Y-66150533D01*
X100298921Y-66150362D01*
X100284315Y-66150183D01*
X100278856Y-66149882D01*
X100276315Y-66149633D01*
X100276312Y-66149633D01*
X100274753Y-66149480D01*
X100258718Y-66149480D01*
X100258718Y-66149417D01*
X100257377Y-66148909D01*
X100257377Y-66149480D01*
X100245387Y-66149480D01*
X100243032Y-66149437D01*
X100233128Y-66149072D01*
X100233124Y-66149072D01*
X100230184Y-66148964D01*
X100227499Y-66149362D01*
X100223807Y-66149441D01*
X100205493Y-66149217D01*
X100205492Y-66149217D01*
X100202548Y-66149181D01*
X100201177Y-66149419D01*
X100199654Y-66149480D01*
X99151875Y-66149480D01*
X99106620Y-66130735D01*
X99087875Y-66085480D01*
X99088183Y-66079204D01*
X99088300Y-66078017D01*
X99088300Y-66012229D01*
X99084572Y-66003228D01*
X99075571Y-65999500D01*
X98424000Y-65999500D01*
X98378745Y-65980755D01*
X98360000Y-65935500D01*
X98360000Y-65919706D01*
X100770000Y-65919706D01*
X100770224Y-65923478D01*
X100772338Y-65941244D01*
X100774854Y-65950402D01*
X100812850Y-66035943D01*
X100819428Y-66045514D01*
X100884888Y-66110861D01*
X100894472Y-66117423D01*
X100980067Y-66155263D01*
X100989253Y-66157768D01*
X101006552Y-66159784D01*
X101010258Y-66160000D01*
X101237271Y-66160000D01*
X101246272Y-66156272D01*
X101250000Y-66147271D01*
X101550000Y-66147271D01*
X101553728Y-66156272D01*
X101562729Y-66160000D01*
X101789706Y-66160000D01*
X101793478Y-66159776D01*
X101811244Y-66157662D01*
X101820402Y-66155146D01*
X101905943Y-66117150D01*
X101915514Y-66110572D01*
X101980861Y-66045112D01*
X101987423Y-66035528D01*
X102025263Y-65949933D01*
X102027768Y-65940747D01*
X102029784Y-65923448D01*
X102030000Y-65919742D01*
X102030000Y-65492729D01*
X102026272Y-65483728D01*
X102017271Y-65480000D01*
X101562729Y-65480000D01*
X101553728Y-65483728D01*
X101550000Y-65492729D01*
X101550000Y-66147271D01*
X101250000Y-66147271D01*
X101250000Y-65492729D01*
X101246272Y-65483728D01*
X101237271Y-65480000D01*
X100782729Y-65480000D01*
X100773728Y-65483728D01*
X100770000Y-65492729D01*
X100770000Y-65919706D01*
X98360000Y-65919706D01*
X98360000Y-65763500D01*
X98378745Y-65718245D01*
X98424000Y-65699500D01*
X98495571Y-65699500D01*
X98504572Y-65695772D01*
X98508300Y-65686771D01*
X98508300Y-65492209D01*
X98527045Y-65446954D01*
X98572631Y-65401368D01*
X98617886Y-65382623D01*
X98663141Y-65401368D01*
X98675590Y-65420000D01*
X98675000Y-65420000D01*
X98675000Y-65430000D01*
X98744300Y-65430000D01*
X98789555Y-65448745D01*
X98808300Y-65494000D01*
X98808300Y-65686771D01*
X98812028Y-65695772D01*
X98821029Y-65699500D01*
X99075570Y-65699500D01*
X99084571Y-65695772D01*
X99088299Y-65686771D01*
X99088299Y-65620983D01*
X99087684Y-65614744D01*
X99076765Y-65559846D01*
X99072031Y-65548416D01*
X99030415Y-65486133D01*
X99021667Y-65477385D01*
X98959381Y-65435767D01*
X98947958Y-65431035D01*
X98893055Y-65420114D01*
X98886820Y-65419500D01*
X98809607Y-65419500D01*
X98807093Y-65420000D01*
X98708509Y-65420000D01*
X98663254Y-65401255D01*
X98644509Y-65356000D01*
X98663254Y-65310745D01*
X98733639Y-65240360D01*
X98739271Y-65235355D01*
X98740658Y-65234262D01*
X98741739Y-65233409D01*
X98763611Y-65216167D01*
X98763614Y-65216164D01*
X98767366Y-65213206D01*
X98799113Y-65167271D01*
X100770000Y-65167271D01*
X100773728Y-65176272D01*
X100782729Y-65180000D01*
X101237271Y-65180000D01*
X101246272Y-65176272D01*
X101250000Y-65167271D01*
X101550000Y-65167271D01*
X101553728Y-65176272D01*
X101562729Y-65180000D01*
X102017271Y-65180000D01*
X102026272Y-65176272D01*
X102030000Y-65167271D01*
X102030000Y-64740295D01*
X102029776Y-64736522D01*
X102027662Y-64718756D01*
X102025146Y-64709598D01*
X101987150Y-64624057D01*
X101980572Y-64614486D01*
X101915112Y-64549139D01*
X101905528Y-64542577D01*
X101819933Y-64504737D01*
X101810747Y-64502232D01*
X101793448Y-64500216D01*
X101789742Y-64500000D01*
X101562729Y-64500000D01*
X101553728Y-64503728D01*
X101550000Y-64512729D01*
X101550000Y-65167271D01*
X101250000Y-65167271D01*
X101250000Y-64512729D01*
X101246272Y-64503728D01*
X101237271Y-64500000D01*
X101010295Y-64500000D01*
X101006522Y-64500224D01*
X100988756Y-64502338D01*
X100979598Y-64504854D01*
X100894057Y-64542850D01*
X100884486Y-64549428D01*
X100819139Y-64614888D01*
X100812577Y-64624472D01*
X100774737Y-64710067D01*
X100772232Y-64719253D01*
X100770216Y-64736552D01*
X100770000Y-64740258D01*
X100770000Y-65167271D01*
X98799113Y-65167271D01*
X98799750Y-65166350D01*
X98800918Y-65164717D01*
X98831918Y-65122747D01*
X98831919Y-65122745D01*
X98834759Y-65118900D01*
X98836344Y-65114387D01*
X98836804Y-65113518D01*
X98837035Y-65113137D01*
X98837641Y-65111949D01*
X98837819Y-65111523D01*
X98838246Y-65110652D01*
X98840968Y-65106713D01*
X98858144Y-65052402D01*
X98858778Y-65050503D01*
X98876067Y-65001271D01*
X98876068Y-65001268D01*
X98877651Y-64996759D01*
X98877839Y-64991981D01*
X98878022Y-64991021D01*
X98878248Y-64990128D01*
X98878904Y-64986763D01*
X98880003Y-64983286D01*
X98880156Y-64981341D01*
X98906931Y-64940926D01*
X98942697Y-64930000D01*
X99087271Y-64930000D01*
X99096272Y-64926272D01*
X99100000Y-64917271D01*
X99100000Y-63989000D01*
X99118745Y-63943745D01*
X99164000Y-63925000D01*
X99336000Y-63925000D01*
X99381255Y-63943745D01*
X99400000Y-63989000D01*
X99400000Y-64917271D01*
X99403728Y-64926272D01*
X99412729Y-64930000D01*
X99559657Y-64930000D01*
X99565892Y-64929386D01*
X99594541Y-64923687D01*
X99605966Y-64918955D01*
X99638481Y-64897229D01*
X99647229Y-64888481D01*
X99668955Y-64855966D01*
X99673687Y-64844541D01*
X99679386Y-64815892D01*
X99680000Y-64809657D01*
X99680000Y-64351803D01*
X99698745Y-64306548D01*
X99744000Y-64287803D01*
X99786574Y-64304018D01*
X99794668Y-64311229D01*
X99905894Y-64410328D01*
X99905897Y-64410330D01*
X99908777Y-64412896D01*
X99912186Y-64414701D01*
X99912189Y-64414703D01*
X99969451Y-64445022D01*
X100054339Y-64489968D01*
X100214084Y-64530093D01*
X100293075Y-64530506D01*
X100374931Y-64530935D01*
X100374933Y-64530935D01*
X100378789Y-64530955D01*
X100382537Y-64530055D01*
X100382539Y-64530055D01*
X100535193Y-64493406D01*
X100535195Y-64493405D01*
X100538945Y-64492505D01*
X100685307Y-64416962D01*
X100809424Y-64308688D01*
X100811642Y-64305533D01*
X100811644Y-64305530D01*
X100901909Y-64177097D01*
X100901911Y-64177093D01*
X100904132Y-64173933D01*
X100955315Y-64042654D01*
X100962559Y-64024075D01*
X100962559Y-64024074D01*
X100963962Y-64020476D01*
X100974064Y-63943745D01*
X100980228Y-63896923D01*
X100980228Y-63896917D01*
X100980500Y-63894854D01*
X100980500Y-61289000D01*
X100999245Y-61243745D01*
X101044500Y-61225000D01*
X101596594Y-61225000D01*
X101603757Y-61225402D01*
G37*
%TD.AperFunction*%
%TA.AperFunction,Conductor*%
G36*
X99600755Y-61243745D02*
G01*
X99619500Y-61289000D01*
X99619500Y-63156000D01*
X99600755Y-63201255D01*
X99555500Y-63220000D01*
X99479000Y-63220000D01*
X99433745Y-63201255D01*
X99415000Y-63156000D01*
X99415000Y-62720000D01*
X99410000Y-62675000D01*
X99400000Y-62625000D01*
X99390000Y-62590000D01*
X99380000Y-62560000D01*
X99365000Y-62525000D01*
X99342778Y-62485000D01*
X99340405Y-62480728D01*
X99340396Y-62480712D01*
X99340000Y-62480000D01*
X99315000Y-62440000D01*
X99290000Y-62410000D01*
X99230000Y-62350000D01*
X99200000Y-62325000D01*
X99185000Y-62315000D01*
X99145000Y-62290000D01*
X99125000Y-62280000D01*
X99095717Y-62266985D01*
X99081409Y-62260626D01*
X99081405Y-62260624D01*
X99080000Y-62260000D01*
X99057351Y-62252450D01*
X99036162Y-62245387D01*
X99036154Y-62245385D01*
X99035000Y-62245000D01*
X99033811Y-62244703D01*
X99033805Y-62244701D01*
X98995738Y-62235184D01*
X98995719Y-62235180D01*
X98995000Y-62235000D01*
X98970000Y-62230000D01*
X98935890Y-62226899D01*
X98916444Y-62225131D01*
X98916438Y-62225131D01*
X98915000Y-62225000D01*
X98865000Y-62225000D01*
X98815000Y-62230000D01*
X98780000Y-62235000D01*
X98777910Y-62235597D01*
X98777906Y-62235598D01*
X98745651Y-62244814D01*
X98745000Y-62245000D01*
X98744358Y-62245214D01*
X98715863Y-62254712D01*
X98715853Y-62254716D01*
X98715000Y-62255000D01*
X98714163Y-62255335D01*
X98714157Y-62255337D01*
X98666224Y-62274510D01*
X98666216Y-62274514D01*
X98665000Y-62275000D01*
X98635000Y-62290000D01*
X98595000Y-62315000D01*
X98593914Y-62315815D01*
X98593906Y-62315820D01*
X98580212Y-62326091D01*
X98555000Y-62345000D01*
X98554610Y-62345312D01*
X98532218Y-62363225D01*
X98532214Y-62363229D01*
X98530000Y-62365000D01*
X98495000Y-62405000D01*
X98465000Y-62440000D01*
X98435000Y-62485000D01*
X98415000Y-62525000D01*
X98400000Y-62560000D01*
X98385000Y-62605000D01*
X98375000Y-62650000D01*
X98374829Y-62651198D01*
X98371233Y-62676371D01*
X98370000Y-62685000D01*
X98365000Y-62725000D01*
X98365000Y-63155501D01*
X98346255Y-63200756D01*
X98301000Y-63219501D01*
X98137146Y-63219501D01*
X98135477Y-63219833D01*
X98132077Y-63220000D01*
X97917934Y-63220000D01*
X97914528Y-63219833D01*
X97912855Y-63219500D01*
X97909714Y-63219500D01*
X97750001Y-63219501D01*
X97587146Y-63219501D01*
X97585477Y-63219833D01*
X97582077Y-63220000D01*
X97417934Y-63220000D01*
X97414528Y-63219833D01*
X97412855Y-63219500D01*
X97409714Y-63219500D01*
X97250001Y-63219501D01*
X97087146Y-63219501D01*
X97085477Y-63219833D01*
X97082077Y-63220000D01*
X97068916Y-63220000D01*
X97023661Y-63201255D01*
X97007455Y-63173849D01*
X97007003Y-63172292D01*
X97006201Y-63169530D01*
X97005625Y-63168088D01*
X97005619Y-63168072D01*
X97005379Y-63167471D01*
X97005232Y-63166946D01*
X97005111Y-63166595D01*
X97005131Y-63166588D01*
X97003443Y-63160567D01*
X97003386Y-63160585D01*
X97002780Y-63158676D01*
X97001601Y-63154959D01*
X97000741Y-63152954D01*
X97000591Y-63152465D01*
X97000437Y-63152051D01*
X97000461Y-63152042D01*
X96998651Y-63146147D01*
X96998586Y-63146170D01*
X96997175Y-63142073D01*
X96997174Y-63142070D01*
X96996664Y-63140590D01*
X96995746Y-63138586D01*
X96995578Y-63138084D01*
X96995433Y-63137720D01*
X96995454Y-63137712D01*
X96993475Y-63131787D01*
X96993417Y-63131809D01*
X96991907Y-63127752D01*
X96991358Y-63126277D01*
X96990401Y-63124317D01*
X96990226Y-63123833D01*
X96990053Y-63123429D01*
X96990076Y-63123419D01*
X96987972Y-63117599D01*
X96987910Y-63117624D01*
X96986301Y-63113604D01*
X96986297Y-63113596D01*
X96985716Y-63112144D01*
X96984701Y-63110188D01*
X96984508Y-63109692D01*
X96984343Y-63109332D01*
X96984364Y-63109322D01*
X96982104Y-63103522D01*
X96982046Y-63103547D01*
X96980919Y-63100921D01*
X96979718Y-63098123D01*
X96978659Y-63096199D01*
X96978456Y-63095714D01*
X96978280Y-63095353D01*
X96978301Y-63095343D01*
X96975906Y-63089614D01*
X96975847Y-63089641D01*
X96974042Y-63085705D01*
X96973387Y-63084276D01*
X96972277Y-63082371D01*
X96972063Y-63081894D01*
X96971880Y-63081541D01*
X96971901Y-63081530D01*
X96969367Y-63075866D01*
X96969309Y-63075894D01*
X96967407Y-63072000D01*
X96967402Y-63071991D01*
X96966718Y-63070591D01*
X96965564Y-63068718D01*
X96965336Y-63068239D01*
X96965145Y-63067893D01*
X96965165Y-63067882D01*
X96962483Y-63062260D01*
X96962428Y-63062289D01*
X96960424Y-63058431D01*
X96960423Y-63058429D01*
X96959707Y-63057051D01*
X96958863Y-63055754D01*
X96958858Y-63055745D01*
X96958509Y-63055209D01*
X96958266Y-63054730D01*
X96958067Y-63054389D01*
X96958087Y-63054377D01*
X96955270Y-63048827D01*
X96955214Y-63048858D01*
X96952366Y-63043689D01*
X96951122Y-63041875D01*
X96950870Y-63041409D01*
X96950665Y-63041076D01*
X96950684Y-63041064D01*
X96947741Y-63035601D01*
X96947685Y-63035634D01*
X96945499Y-63031886D01*
X96945495Y-63031879D01*
X96944711Y-63030536D01*
X96943799Y-63029274D01*
X96943793Y-63029265D01*
X96943428Y-63028760D01*
X96943168Y-63028304D01*
X96942938Y-63027951D01*
X96942959Y-63027938D01*
X96939878Y-63022542D01*
X96939823Y-63022576D01*
X96937542Y-63018876D01*
X96937536Y-63018868D01*
X96936725Y-63017552D01*
X96935388Y-63015794D01*
X96935109Y-63015333D01*
X96934897Y-63015024D01*
X96934915Y-63015012D01*
X96931683Y-63009662D01*
X96931632Y-63009695D01*
X96929268Y-63006065D01*
X96928411Y-63004749D01*
X96927050Y-63003050D01*
X96926779Y-63002625D01*
X96926517Y-63002262D01*
X96926538Y-63002247D01*
X96923217Y-62997042D01*
X96923160Y-62997081D01*
X96920702Y-62993501D01*
X96919819Y-62992215D01*
X96918407Y-62990537D01*
X96918114Y-62990101D01*
X96917868Y-62989778D01*
X96917887Y-62989764D01*
X96914415Y-62984605D01*
X96914363Y-62984643D01*
X96911823Y-62981131D01*
X96910904Y-62979860D01*
X96909446Y-62978210D01*
X96909141Y-62977781D01*
X96908892Y-62977470D01*
X96908910Y-62977456D01*
X96905294Y-62972358D01*
X96905245Y-62972395D01*
X96902614Y-62968941D01*
X96901669Y-62967700D01*
X96900185Y-62966103D01*
X96899878Y-62965692D01*
X96899602Y-62965364D01*
X96899621Y-62965348D01*
X96895910Y-62960380D01*
X96895858Y-62960421D01*
X96893140Y-62957028D01*
X96893138Y-62957025D01*
X96892168Y-62955815D01*
X96890667Y-62954277D01*
X96887022Y-62950207D01*
X96885058Y-62947816D01*
X96885056Y-62947812D01*
X96885288Y-62947622D01*
X96884869Y-62947391D01*
X96884842Y-62947331D01*
X96882883Y-62945005D01*
X96882053Y-62944019D01*
X96882047Y-62944012D01*
X96881040Y-62942817D01*
X96879476Y-62941291D01*
X96879143Y-62940888D01*
X96878849Y-62940572D01*
X96878867Y-62940555D01*
X96874929Y-62935788D01*
X96874878Y-62935833D01*
X96872001Y-62932582D01*
X96871997Y-62932578D01*
X96870966Y-62931413D01*
X96869370Y-62929930D01*
X96869031Y-62929541D01*
X96868729Y-62929231D01*
X96868747Y-62929213D01*
X96864679Y-62924530D01*
X96864631Y-62924575D01*
X96860612Y-62920253D01*
X96858971Y-62918802D01*
X96858615Y-62918411D01*
X96858320Y-62918124D01*
X96858337Y-62918107D01*
X96854151Y-62913520D01*
X96854105Y-62913565D01*
X96849982Y-62909343D01*
X96848298Y-62907925D01*
X96847932Y-62907544D01*
X96847640Y-62907273D01*
X96847656Y-62907256D01*
X96843331Y-62902744D01*
X96843288Y-62902788D01*
X96842557Y-62902075D01*
X96839062Y-62898668D01*
X96837839Y-62897689D01*
X96837351Y-62897298D01*
X96836978Y-62896927D01*
X96836663Y-62896649D01*
X96836679Y-62896631D01*
X96832305Y-62892286D01*
X96832259Y-62892336D01*
X96829075Y-62889381D01*
X96827933Y-62888321D01*
X96826696Y-62887380D01*
X96826688Y-62887373D01*
X96826179Y-62886986D01*
X96825789Y-62886617D01*
X96825495Y-62886370D01*
X96825509Y-62886353D01*
X96820971Y-62882062D01*
X96820931Y-62882107D01*
X96817682Y-62879237D01*
X96817683Y-62879237D01*
X96816507Y-62878199D01*
X96814746Y-62876926D01*
X96814369Y-62876587D01*
X96814019Y-62876307D01*
X96814035Y-62876287D01*
X96809429Y-62872140D01*
X96809386Y-62872192D01*
X96806060Y-62869396D01*
X96804868Y-62868394D01*
X96803055Y-62867150D01*
X96802655Y-62866807D01*
X96802339Y-62866567D01*
X96802353Y-62866549D01*
X96797623Y-62862496D01*
X96797583Y-62862545D01*
X96794192Y-62859833D01*
X96794191Y-62859832D01*
X96792974Y-62858859D01*
X96791120Y-62857653D01*
X96790699Y-62857310D01*
X96790396Y-62857091D01*
X96790409Y-62857073D01*
X96785582Y-62853139D01*
X96785544Y-62853188D01*
X96782074Y-62850551D01*
X96780845Y-62849617D01*
X96779537Y-62848811D01*
X96779531Y-62848807D01*
X96778991Y-62848475D01*
X96778570Y-62848149D01*
X96778229Y-62847915D01*
X96778243Y-62847895D01*
X96773336Y-62844093D01*
X96773297Y-62844147D01*
X96769769Y-62841599D01*
X96768512Y-62840691D01*
X96767174Y-62839911D01*
X96767163Y-62839904D01*
X96766615Y-62839585D01*
X96766187Y-62839270D01*
X96765852Y-62839052D01*
X96765865Y-62839032D01*
X96760868Y-62835352D01*
X96760831Y-62835406D01*
X96758021Y-62833480D01*
X96755963Y-62832069D01*
X96754044Y-62831013D01*
X96753621Y-62830717D01*
X96753262Y-62830496D01*
X96753275Y-62830475D01*
X96748195Y-62826923D01*
X96748159Y-62826978D01*
X96744531Y-62824619D01*
X96744528Y-62824617D01*
X96743211Y-62823761D01*
X96741824Y-62823041D01*
X96741810Y-62823033D01*
X96741245Y-62822740D01*
X96740798Y-62822444D01*
X96740466Y-62822250D01*
X96740477Y-62822231D01*
X96735269Y-62818776D01*
X96735238Y-62818827D01*
X96731539Y-62816550D01*
X96730212Y-62815733D01*
X96728818Y-62815053D01*
X96728811Y-62815049D01*
X96728232Y-62814767D01*
X96727776Y-62814481D01*
X96727437Y-62814294D01*
X96727448Y-62814274D01*
X96722187Y-62810968D01*
X96722155Y-62811023D01*
X96718419Y-62808848D01*
X96718418Y-62808847D01*
X96717055Y-62808054D01*
X96715071Y-62807146D01*
X96714636Y-62806887D01*
X96714243Y-62806683D01*
X96714255Y-62806660D01*
X96708952Y-62803506D01*
X96708919Y-62803566D01*
X96705109Y-62801471D01*
X96705110Y-62801471D01*
X96703747Y-62800722D01*
X96701723Y-62799854D01*
X96701259Y-62799593D01*
X96700914Y-62799425D01*
X96700924Y-62799405D01*
X96695471Y-62796340D01*
X96695443Y-62796394D01*
X96690203Y-62793678D01*
X96688164Y-62792863D01*
X96687708Y-62792621D01*
X96687328Y-62792447D01*
X96687338Y-62792425D01*
X96681840Y-62789510D01*
X96681812Y-62789567D01*
X96677911Y-62787665D01*
X96677904Y-62787662D01*
X96676507Y-62786981D01*
X96675041Y-62786436D01*
X96675029Y-62786431D01*
X96674446Y-62786214D01*
X96673979Y-62785981D01*
X96673601Y-62785819D01*
X96673610Y-62785797D01*
X96668079Y-62783036D01*
X96668051Y-62783097D01*
X96664116Y-62781296D01*
X96664111Y-62781294D01*
X96662684Y-62780641D01*
X96660599Y-62779924D01*
X96660123Y-62779701D01*
X96659754Y-62779553D01*
X96659763Y-62779531D01*
X96654113Y-62776882D01*
X96654089Y-62776939D01*
X96650099Y-62775230D01*
X96650091Y-62775227D01*
X96648664Y-62774616D01*
X96646566Y-62773952D01*
X96646077Y-62773737D01*
X96645706Y-62773599D01*
X96645714Y-62773577D01*
X96640021Y-62771077D01*
X96639998Y-62771136D01*
X96635971Y-62769528D01*
X96634516Y-62768947D01*
X96633005Y-62768509D01*
X96632997Y-62768506D01*
X96632398Y-62768332D01*
X96631915Y-62768134D01*
X96631540Y-62768005D01*
X96631548Y-62767983D01*
X96625803Y-62765627D01*
X96625781Y-62765687D01*
X96620248Y-62763633D01*
X96618129Y-62763075D01*
X96617640Y-62762888D01*
X96617236Y-62762760D01*
X96617243Y-62762736D01*
X96611458Y-62760527D01*
X96611437Y-62760589D01*
X96607335Y-62759180D01*
X96607330Y-62759179D01*
X96605855Y-62758672D01*
X96603704Y-62758161D01*
X96603195Y-62757981D01*
X96602837Y-62757877D01*
X96602843Y-62757856D01*
X96596973Y-62755777D01*
X96596954Y-62755837D01*
X96592816Y-62754528D01*
X96591327Y-62754057D01*
X96589787Y-62753731D01*
X96589776Y-62753728D01*
X96589170Y-62753599D01*
X96588677Y-62753438D01*
X96588286Y-62753335D01*
X96588292Y-62753312D01*
X96582403Y-62751389D01*
X96582385Y-62751452D01*
X96578228Y-62750248D01*
X96578229Y-62750248D01*
X96576716Y-62749810D01*
X96574537Y-62749404D01*
X96574015Y-62749248D01*
X96573650Y-62749161D01*
X96573655Y-62749140D01*
X96567663Y-62747344D01*
X96567648Y-62747400D01*
X96561940Y-62745899D01*
X96560406Y-62745652D01*
X96560390Y-62745649D01*
X96559788Y-62745552D01*
X96559294Y-62745417D01*
X96558863Y-62745326D01*
X96558868Y-62745301D01*
X96552923Y-62743678D01*
X96552907Y-62743746D01*
X96547164Y-62742384D01*
X96544976Y-62742087D01*
X96544451Y-62741957D01*
X96544079Y-62741888D01*
X96544083Y-62741866D01*
X96538016Y-62740369D01*
X96538004Y-62740427D01*
X96532229Y-62739208D01*
X96530679Y-62739036D01*
X96530659Y-62739033D01*
X96530060Y-62738967D01*
X96529563Y-62738857D01*
X96529126Y-62738787D01*
X96529130Y-62738762D01*
X96523087Y-62737426D01*
X96523075Y-62737492D01*
X96517272Y-62736414D01*
X96515714Y-62736280D01*
X96515708Y-62736279D01*
X96515262Y-62736241D01*
X96515075Y-62736225D01*
X96514552Y-62736123D01*
X96514157Y-62736069D01*
X96514160Y-62736046D01*
X96508039Y-62734850D01*
X96508029Y-62734910D01*
X96502202Y-62733975D01*
X96500015Y-62733841D01*
X96499492Y-62733752D01*
X96499086Y-62733707D01*
X96499089Y-62733683D01*
X96493007Y-62732650D01*
X96492998Y-62732717D01*
X96487149Y-62731925D01*
X96485582Y-62731867D01*
X96485581Y-62731867D01*
X96485133Y-62731850D01*
X96484930Y-62731843D01*
X96484390Y-62731765D01*
X96484032Y-62731734D01*
X96484034Y-62731713D01*
X96477831Y-62730814D01*
X96477825Y-62730872D01*
X96475507Y-62730616D01*
X96471958Y-62730224D01*
X96470134Y-62730202D01*
X96469767Y-62730197D01*
X96464317Y-62729897D01*
X96461814Y-62729652D01*
X96461811Y-62729652D01*
X96460252Y-62729499D01*
X96439751Y-62729499D01*
X96438623Y-62729451D01*
X96436584Y-62729463D01*
X96433643Y-62729210D01*
X96430929Y-62729477D01*
X96427224Y-62729375D01*
X96418421Y-62728835D01*
X96415742Y-62729166D01*
X96412078Y-62729154D01*
X96408063Y-62729006D01*
X96403268Y-62728829D01*
X96400566Y-62729230D01*
X96396854Y-62729309D01*
X96392510Y-62729257D01*
X96388026Y-62729202D01*
X96386663Y-62729439D01*
X96385156Y-62729499D01*
X96146484Y-62729499D01*
X96141008Y-62729264D01*
X96140519Y-62729222D01*
X96136956Y-62728916D01*
X96135386Y-62728935D01*
X96135385Y-62728935D01*
X96135321Y-62728936D01*
X96134750Y-62728943D01*
X96134221Y-62728892D01*
X96133828Y-62728878D01*
X96133829Y-62728855D01*
X96127628Y-62728266D01*
X96127624Y-62728327D01*
X96123293Y-62728063D01*
X96123292Y-62728063D01*
X96121733Y-62727968D01*
X96120182Y-62728025D01*
X96120180Y-62728025D01*
X96119954Y-62728033D01*
X96119532Y-62728049D01*
X96118989Y-62728011D01*
X96118603Y-62728006D01*
X96118603Y-62727984D01*
X96112385Y-62727546D01*
X96112383Y-62727608D01*
X96106485Y-62727393D01*
X96104940Y-62727488D01*
X96104935Y-62727488D01*
X96104624Y-62727507D01*
X96104306Y-62727527D01*
X96103778Y-62727503D01*
X96103358Y-62727508D01*
X96103358Y-62727484D01*
X96097186Y-62727201D01*
X96097185Y-62727269D01*
X96091283Y-62727199D01*
X96089076Y-62727389D01*
X96088530Y-62727377D01*
X96088160Y-62727391D01*
X96088159Y-62727369D01*
X96081905Y-62727237D01*
X96081906Y-62727295D01*
X96076004Y-62727371D01*
X96074467Y-62727541D01*
X96074442Y-62727543D01*
X96073814Y-62727613D01*
X96073287Y-62727615D01*
X96072896Y-62727639D01*
X96072895Y-62727616D01*
X96066709Y-62727637D01*
X96066711Y-62727704D01*
X96062366Y-62727866D01*
X96062365Y-62727866D01*
X96060813Y-62727924D01*
X96059268Y-62728134D01*
X96059253Y-62728135D01*
X96058617Y-62728221D01*
X96058081Y-62728236D01*
X96057710Y-62728268D01*
X96057708Y-62728246D01*
X96051470Y-62728421D01*
X96051474Y-62728481D01*
X96045583Y-62728846D01*
X96044045Y-62729093D01*
X96044040Y-62729094D01*
X96043420Y-62729194D01*
X96042897Y-62729222D01*
X96042497Y-62729266D01*
X96042494Y-62729243D01*
X96036296Y-62729569D01*
X96036302Y-62729634D01*
X96031968Y-62730009D01*
X96031965Y-62730009D01*
X96030422Y-62730143D01*
X96028906Y-62730425D01*
X96028885Y-62730428D01*
X96028259Y-62730545D01*
X96027726Y-62730586D01*
X96027337Y-62730639D01*
X96027334Y-62730616D01*
X96021131Y-62731095D01*
X96021138Y-62731158D01*
X96015272Y-62731811D01*
X96013122Y-62732266D01*
X96012594Y-62732320D01*
X96012197Y-62732384D01*
X96012193Y-62732361D01*
X96005990Y-62732994D01*
X96005998Y-62733054D01*
X96000150Y-62733852D01*
X95998015Y-62734359D01*
X95997489Y-62734426D01*
X95997091Y-62734500D01*
X95997087Y-62734477D01*
X95990951Y-62735254D01*
X95990962Y-62735320D01*
X95985135Y-62736260D01*
X95983631Y-62736656D01*
X95983628Y-62736657D01*
X95983006Y-62736821D01*
X95982474Y-62736902D01*
X95982090Y-62736983D01*
X95982085Y-62736961D01*
X95975944Y-62737892D01*
X95975956Y-62737955D01*
X95970154Y-62739037D01*
X95968645Y-62739474D01*
X95968639Y-62739476D01*
X95968039Y-62739650D01*
X95967519Y-62739742D01*
X95967119Y-62739837D01*
X95967113Y-62739814D01*
X95960970Y-62740901D01*
X95960983Y-62740961D01*
X95955209Y-62742186D01*
X95953723Y-62742657D01*
X95953715Y-62742659D01*
X95953142Y-62742841D01*
X95952645Y-62742942D01*
X95952204Y-62743058D01*
X95952197Y-62743032D01*
X95946149Y-62744256D01*
X95946166Y-62744326D01*
X95940424Y-62745691D01*
X95938938Y-62746202D01*
X95938935Y-62746203D01*
X95938354Y-62746403D01*
X95937847Y-62746519D01*
X95937439Y-62746637D01*
X95937432Y-62746613D01*
X95931364Y-62747997D01*
X95931380Y-62748059D01*
X95927179Y-62749168D01*
X95927173Y-62749170D01*
X95925673Y-62749566D01*
X95923612Y-62750332D01*
X95923095Y-62750463D01*
X95922721Y-62750582D01*
X95922714Y-62750560D01*
X95916671Y-62752096D01*
X95916688Y-62752156D01*
X95912523Y-62753366D01*
X95912518Y-62753368D01*
X95911020Y-62753803D01*
X95909575Y-62754381D01*
X95909569Y-62754383D01*
X95908972Y-62754622D01*
X95908455Y-62754767D01*
X95908089Y-62754893D01*
X95908082Y-62754872D01*
X95902118Y-62756544D01*
X95902137Y-62756605D01*
X95896512Y-62758390D01*
X95894507Y-62759250D01*
X95894015Y-62759401D01*
X95893608Y-62759552D01*
X95893599Y-62759528D01*
X95887670Y-62761349D01*
X95887691Y-62761411D01*
X95883594Y-62762822D01*
X95883591Y-62762823D01*
X95882111Y-62763333D01*
X95880107Y-62764251D01*
X95879605Y-62764419D01*
X95879241Y-62764564D01*
X95879233Y-62764543D01*
X95873308Y-62766522D01*
X95873330Y-62766580D01*
X95869561Y-62767983D01*
X95867798Y-62768639D01*
X95866395Y-62769324D01*
X95866390Y-62769326D01*
X95865840Y-62769595D01*
X95865354Y-62769771D01*
X95864950Y-62769944D01*
X95864940Y-62769921D01*
X95859120Y-62772025D01*
X95859145Y-62772087D01*
X95855125Y-62773696D01*
X95855117Y-62773700D01*
X95853665Y-62774281D01*
X95851836Y-62775230D01*
X95851711Y-62775295D01*
X95851213Y-62775489D01*
X95850853Y-62775654D01*
X95850843Y-62775633D01*
X95845043Y-62777893D01*
X95845068Y-62777951D01*
X95839644Y-62780279D01*
X95837722Y-62781337D01*
X95837235Y-62781541D01*
X95836874Y-62781717D01*
X95836864Y-62781696D01*
X95831135Y-62784091D01*
X95831162Y-62784150D01*
X95825797Y-62786610D01*
X95823892Y-62787720D01*
X95823415Y-62787934D01*
X95823062Y-62788117D01*
X95823051Y-62788096D01*
X95817387Y-62790630D01*
X95817415Y-62790688D01*
X95813521Y-62792590D01*
X95813512Y-62792595D01*
X95812112Y-62793279D01*
X95810239Y-62794433D01*
X95809760Y-62794661D01*
X95809414Y-62794852D01*
X95809403Y-62794832D01*
X95803781Y-62797514D01*
X95803810Y-62797569D01*
X95800276Y-62799405D01*
X95798572Y-62800290D01*
X95797275Y-62801134D01*
X95797266Y-62801139D01*
X95796730Y-62801488D01*
X95796251Y-62801731D01*
X95795910Y-62801930D01*
X95795898Y-62801910D01*
X95790348Y-62804727D01*
X95790379Y-62804783D01*
X95785210Y-62807631D01*
X95783922Y-62808515D01*
X95783397Y-62808875D01*
X95782930Y-62809127D01*
X95782597Y-62809332D01*
X95782585Y-62809313D01*
X95777122Y-62812256D01*
X95777155Y-62812312D01*
X95773407Y-62814498D01*
X95773400Y-62814502D01*
X95772057Y-62815286D01*
X95770795Y-62816198D01*
X95770786Y-62816204D01*
X95770281Y-62816569D01*
X95769825Y-62816829D01*
X95769472Y-62817059D01*
X95769459Y-62817038D01*
X95764063Y-62820119D01*
X95764097Y-62820174D01*
X95760397Y-62822455D01*
X95760389Y-62822461D01*
X95759073Y-62823272D01*
X95757315Y-62824609D01*
X95756854Y-62824888D01*
X95756545Y-62825100D01*
X95756533Y-62825082D01*
X95751183Y-62828314D01*
X95751216Y-62828365D01*
X95746270Y-62831586D01*
X95745046Y-62832566D01*
X95744568Y-62832949D01*
X95744136Y-62833224D01*
X95743783Y-62833480D01*
X95743768Y-62833459D01*
X95738581Y-62836769D01*
X95738620Y-62836826D01*
X95733755Y-62840167D01*
X95732566Y-62841167D01*
X95732561Y-62841171D01*
X95732067Y-62841587D01*
X95731618Y-62841889D01*
X95731316Y-62842119D01*
X95731303Y-62842101D01*
X95726108Y-62845597D01*
X95726143Y-62845645D01*
X95723006Y-62847915D01*
X95721361Y-62849105D01*
X95720185Y-62850145D01*
X95719711Y-62850564D01*
X95719280Y-62850870D01*
X95718975Y-62851114D01*
X95718961Y-62851096D01*
X95713878Y-62854702D01*
X95713916Y-62854752D01*
X95709221Y-62858328D01*
X95707611Y-62859824D01*
X95707190Y-62860139D01*
X95706885Y-62860395D01*
X95706870Y-62860377D01*
X95701882Y-62864103D01*
X95701922Y-62864153D01*
X95697316Y-62867843D01*
X95696190Y-62868942D01*
X95696183Y-62868948D01*
X95695710Y-62869409D01*
X95691642Y-62873053D01*
X95688566Y-62875580D01*
X95688557Y-62875569D01*
X95687297Y-62876522D01*
X95687392Y-62876634D01*
X95682877Y-62880435D01*
X95681792Y-62881547D01*
X95681334Y-62882016D01*
X95680908Y-62882368D01*
X95680640Y-62882617D01*
X95680626Y-62882601D01*
X95675795Y-62886594D01*
X95675833Y-62886637D01*
X95672733Y-62889381D01*
X95671413Y-62890549D01*
X95669930Y-62892145D01*
X95669541Y-62892484D01*
X95669231Y-62892786D01*
X95669213Y-62892768D01*
X95664530Y-62896836D01*
X95664575Y-62896884D01*
X95660253Y-62900903D01*
X95658796Y-62902550D01*
X95658409Y-62902903D01*
X95658129Y-62903191D01*
X95658112Y-62903175D01*
X95653505Y-62907379D01*
X95653548Y-62907423D01*
X95649326Y-62911547D01*
X95648325Y-62912737D01*
X95647920Y-62913218D01*
X95647537Y-62913585D01*
X95647252Y-62913892D01*
X95647234Y-62913875D01*
X95642757Y-62918167D01*
X95642804Y-62918213D01*
X95638684Y-62922439D01*
X95637317Y-62924147D01*
X95636947Y-62924519D01*
X95636670Y-62924833D01*
X95636652Y-62924817D01*
X95632273Y-62929225D01*
X95632321Y-62929270D01*
X95630332Y-62931413D01*
X95628305Y-62933596D01*
X95627352Y-62934848D01*
X95627344Y-62934858D01*
X95626964Y-62935357D01*
X95626601Y-62935741D01*
X95626346Y-62936044D01*
X95626328Y-62936029D01*
X95622060Y-62940543D01*
X95622107Y-62940585D01*
X95618199Y-62945009D01*
X95616926Y-62946770D01*
X95616587Y-62947147D01*
X95616307Y-62947497D01*
X95616287Y-62947481D01*
X95612140Y-62952087D01*
X95612192Y-62952130D01*
X95608394Y-62956648D01*
X95607508Y-62957940D01*
X95607150Y-62958461D01*
X95606807Y-62958861D01*
X95606567Y-62959177D01*
X95606549Y-62959163D01*
X95602496Y-62963893D01*
X95602545Y-62963933D01*
X95598859Y-62968542D01*
X95597653Y-62970396D01*
X95597310Y-62970817D01*
X95597091Y-62971120D01*
X95597073Y-62971107D01*
X95593139Y-62975934D01*
X95593188Y-62975972D01*
X95589617Y-62980671D01*
X95588811Y-62981979D01*
X95588807Y-62981985D01*
X95588475Y-62982525D01*
X95588149Y-62982946D01*
X95587915Y-62983287D01*
X95587895Y-62983273D01*
X95584093Y-62988180D01*
X95584147Y-62988219D01*
X95580691Y-62993004D01*
X95579911Y-62994342D01*
X95579904Y-62994353D01*
X95579585Y-62994901D01*
X95579270Y-62995329D01*
X95579052Y-62995664D01*
X95579032Y-62995651D01*
X95575352Y-63000648D01*
X95575406Y-63000685D01*
X95572069Y-63005553D01*
X95571314Y-63006925D01*
X95571309Y-63006933D01*
X95571009Y-63007479D01*
X95570709Y-63007908D01*
X95570496Y-63008254D01*
X95570476Y-63008242D01*
X95566897Y-63013359D01*
X95566949Y-63013393D01*
X95563733Y-63018342D01*
X95563019Y-63019718D01*
X95563004Y-63019744D01*
X95562718Y-63020296D01*
X95562431Y-63020729D01*
X95562227Y-63021079D01*
X95562207Y-63021067D01*
X95558790Y-63026219D01*
X95558847Y-63026254D01*
X95555753Y-63031280D01*
X95555072Y-63032676D01*
X95554794Y-63033245D01*
X95554510Y-63033697D01*
X95554313Y-63034055D01*
X95554292Y-63034044D01*
X95550977Y-63039318D01*
X95551032Y-63039350D01*
X95548062Y-63044451D01*
X95547412Y-63045871D01*
X95547154Y-63046434D01*
X95546888Y-63046881D01*
X95546690Y-63047263D01*
X95546668Y-63047251D01*
X95543500Y-63052576D01*
X95543558Y-63052608D01*
X95540714Y-63057780D01*
X95539850Y-63059796D01*
X95539591Y-63060256D01*
X95539416Y-63060615D01*
X95539395Y-63060605D01*
X95536338Y-63066045D01*
X95536394Y-63066074D01*
X95533678Y-63071314D01*
X95532863Y-63073353D01*
X95532621Y-63073809D01*
X95532447Y-63074189D01*
X95532425Y-63074179D01*
X95529510Y-63079677D01*
X95529567Y-63079705D01*
X95526981Y-63085010D01*
X95526215Y-63087070D01*
X95525980Y-63087541D01*
X95525822Y-63087911D01*
X95525800Y-63087902D01*
X95523023Y-63093468D01*
X95523080Y-63093494D01*
X95521589Y-63096754D01*
X95520625Y-63098861D01*
X95519917Y-63100921D01*
X95519694Y-63101397D01*
X95519534Y-63101797D01*
X95519511Y-63101788D01*
X95516893Y-63107371D01*
X95516956Y-63107398D01*
X95515520Y-63110753D01*
X95514633Y-63112824D01*
X95514162Y-63114311D01*
X95513962Y-63114941D01*
X95513741Y-63115444D01*
X95513620Y-63115770D01*
X95513601Y-63115763D01*
X95511082Y-63121498D01*
X95511136Y-63121519D01*
X95508947Y-63127001D01*
X95508509Y-63128512D01*
X95508506Y-63128520D01*
X95508332Y-63129119D01*
X95508134Y-63129602D01*
X95508005Y-63129977D01*
X95507983Y-63129969D01*
X95505627Y-63135714D01*
X95505687Y-63135736D01*
X95503633Y-63141269D01*
X95503233Y-63142787D01*
X95503075Y-63143387D01*
X95502888Y-63143877D01*
X95502760Y-63144281D01*
X95502736Y-63144274D01*
X95500527Y-63150059D01*
X95500589Y-63150080D01*
X95498672Y-63155662D01*
X95498164Y-63157800D01*
X95497984Y-63158308D01*
X95497876Y-63158682D01*
X95497854Y-63158676D01*
X95495774Y-63164550D01*
X95495834Y-63164569D01*
X95494054Y-63170197D01*
X95493728Y-63171738D01*
X95493582Y-63172292D01*
X95463934Y-63211284D01*
X95431690Y-63220000D01*
X95417934Y-63220000D01*
X95414528Y-63219833D01*
X95412855Y-63219500D01*
X95409714Y-63219500D01*
X95250001Y-63219501D01*
X95087146Y-63219501D01*
X95085477Y-63219833D01*
X95082077Y-63220000D01*
X94917934Y-63220000D01*
X94914528Y-63219833D01*
X94912855Y-63219500D01*
X94909714Y-63219500D01*
X94750001Y-63219501D01*
X94587146Y-63219501D01*
X94585477Y-63219833D01*
X94582077Y-63220000D01*
X94417934Y-63220000D01*
X94414528Y-63219833D01*
X94412855Y-63219500D01*
X94409714Y-63219500D01*
X94250001Y-63219501D01*
X94087146Y-63219501D01*
X94085477Y-63219833D01*
X94082077Y-63220000D01*
X93867934Y-63220000D01*
X93864528Y-63219833D01*
X93862855Y-63219500D01*
X93699000Y-63219500D01*
X93653745Y-63200755D01*
X93635000Y-63155500D01*
X93635000Y-62720000D01*
X93630000Y-62675000D01*
X93620000Y-62625000D01*
X93610000Y-62590000D01*
X93600000Y-62560000D01*
X93585000Y-62525000D01*
X93562778Y-62485000D01*
X93560405Y-62480728D01*
X93560396Y-62480712D01*
X93560000Y-62480000D01*
X93535000Y-62440000D01*
X93510000Y-62410000D01*
X93450000Y-62350000D01*
X93420000Y-62325000D01*
X93405000Y-62315000D01*
X93365000Y-62290000D01*
X93345000Y-62280000D01*
X93315717Y-62266985D01*
X93301409Y-62260626D01*
X93301405Y-62260624D01*
X93300000Y-62260000D01*
X93277351Y-62252450D01*
X93256162Y-62245387D01*
X93256154Y-62245385D01*
X93255000Y-62245000D01*
X93253811Y-62244703D01*
X93253805Y-62244701D01*
X93215738Y-62235184D01*
X93215719Y-62235180D01*
X93215000Y-62235000D01*
X93190000Y-62230000D01*
X93155890Y-62226899D01*
X93136444Y-62225131D01*
X93136438Y-62225131D01*
X93135000Y-62225000D01*
X93085000Y-62225000D01*
X93035000Y-62230000D01*
X93000000Y-62235000D01*
X92997910Y-62235597D01*
X92997906Y-62235598D01*
X92965651Y-62244814D01*
X92965000Y-62245000D01*
X92964358Y-62245214D01*
X92935863Y-62254712D01*
X92935853Y-62254716D01*
X92935000Y-62255000D01*
X92934163Y-62255335D01*
X92934157Y-62255337D01*
X92886224Y-62274510D01*
X92886216Y-62274514D01*
X92885000Y-62275000D01*
X92855000Y-62290000D01*
X92815000Y-62315000D01*
X92813914Y-62315815D01*
X92813906Y-62315820D01*
X92800212Y-62326091D01*
X92775000Y-62345000D01*
X92774610Y-62345312D01*
X92752218Y-62363225D01*
X92752214Y-62363229D01*
X92750000Y-62365000D01*
X92715000Y-62405000D01*
X92685000Y-62440000D01*
X92655000Y-62485000D01*
X92635000Y-62525000D01*
X92620000Y-62560000D01*
X92605000Y-62605000D01*
X92595000Y-62650000D01*
X92594829Y-62651198D01*
X92591233Y-62676371D01*
X92590000Y-62685000D01*
X92585000Y-62725000D01*
X92585000Y-63156000D01*
X92566255Y-63201255D01*
X92521000Y-63220000D01*
X92444500Y-63220000D01*
X92399245Y-63201255D01*
X92380500Y-63156000D01*
X92380500Y-61289000D01*
X92399245Y-61243745D01*
X92444500Y-61225000D01*
X99555500Y-61225000D01*
X99600755Y-61243745D01*
G37*
%TD.AperFunction*%
%TD*%
M02*
