M48
; DRILL file {KiCad (5.99.0-13123-g97e9348ee1)} date 2021 December 06, Monday 14:10:16
; FORMAT={-:-/ absolute / inch / decimal}
; #@! TF.CreationDate,2021-12-06T14:10:16+03:00
; #@! TF.GenerationSoftware,Kicad,Pcbnew,(5.99.0-13123-g97e9348ee1)
; #@! TF.FileFunction,Plated,1,2,PTH
FMAT,2
INCH
; #@! TA.AperFunction,Plated,PTH,ViaDrill
T1C0.0118
; #@! TA.AperFunction,Plated,PTH,ViaDrill
T2C0.0157
; #@! TA.AperFunction,Plated,PTH,ComponentDrill
T3C0.0315
; #@! TA.AperFunction,Plated,PTH,ComponentDrill
T4C0.0579
; #@! TA.AperFunction,Plated,PTH,ComponentDrill
T5C0.0591
%
G90
G05
T1
X3.0063Y-4.6767
X3.0371Y-4.6996
X3.068Y-4.7193
X3.1326Y-4.5988
X4.3918Y-4.8607
X5.1315Y-4.8401
X5.8739Y-4.8224
X6.6166Y-4.8004
X7.3619Y-4.7816
X8.1087Y-4.7626
X8.8567Y-4.7413
X9.6064Y-4.7232
X10.3564Y-4.7035
X11.1064Y-4.6838
X11.1875Y-3.7215
X11.4688Y-6.6208
X11.5156Y-5.9715
X11.533Y-4.5354
X11.5625Y-4.5551
X11.592Y-4.5748
X11.6215Y-4.5944
X11.75Y-5.1209
X11.8564Y-4.6641
X13.3567Y-3.7091
X13.3567Y-5.3313
T2
X3.0997Y-4.7451
X3.0998Y-4.8612
X3.1595Y-4.5325
X3.2162Y-5.2509
X3.2213Y-4.9904
X3.2466Y-5.2266
X3.4466Y-4.6573
X3.4466Y-4.9127
T3
X3.1056Y-5.3684
X3.1056Y-5.4684
X3.2056Y-5.3734
X3.2056Y-5.4734
X3.3056Y-5.3684
X3.3056Y-5.4684
T4
X2.6625Y-3.425
X3.4125Y-3.425
X3.6Y-5.675
X3.7875Y-4.175
X3.7875Y-6.425
X3.975Y-4.925
X4.1625Y-3.425
X4.35Y-5.675
X4.5375Y-4.175
X4.725Y-4.925
X4.9125Y-3.425
X5.1Y-5.675
X5.2875Y-4.175
X5.475Y-4.925
X5.6625Y-3.425
X5.85Y-5.675
X6.0375Y-4.175
X6.225Y-4.925
X6.4125Y-3.425
X6.6Y-5.675
X6.7875Y-4.175
X6.975Y-4.925
X7.1625Y-3.425
X7.35Y-5.675
X7.5375Y-4.175
X7.725Y-4.925
X7.9125Y-3.425
X8.1Y-5.675
X8.2875Y-4.175
X8.475Y-4.925
X8.6625Y-3.425
X8.85Y-5.675
X9.0375Y-4.175
X9.225Y-4.925
X9.4125Y-3.425
X9.6Y-5.675
X9.7875Y-4.175
X9.975Y-4.925
X10.1625Y-3.425
X10.35Y-5.675
X10.5375Y-4.175
X10.725Y-4.925
X10.9125Y-3.425
X11.1Y-5.675
X11.2875Y-4.175
X11.475Y-4.925
X11.6625Y-3.425
X12.0375Y-4.175
X12.0375Y-6.425
X12.225Y-4.925
X12.4125Y-3.425
X13.1625Y-3.425
X13.1625Y-5.675
T5
X2.4125Y-3.525
X2.5063Y-5.025
X2.5063Y-5.775
X2.6Y-4.275
X2.6Y-6.525
X2.6938Y-5.025
X2.7563Y-4.925
X2.7563Y-5.675
X2.85Y-4.175
X2.85Y-6.425
X2.8813Y-5.775
X2.9438Y-4.925
X3.1313Y-5.675
X3.1625Y-3.525
X3.35Y-5.775
X3.5375Y-4.275
X3.5375Y-6.525
X3.725Y-5.025
X3.9125Y-3.525
X4.1Y-5.775
X4.2875Y-4.275
X4.475Y-5.025
X4.475Y-6.525
X4.6625Y-3.525
X4.725Y-6.425
X4.85Y-5.775
X5.0375Y-4.275
X5.225Y-5.025
X5.4125Y-3.525
X5.6Y-5.775
X5.7875Y-4.275
X5.975Y-5.025
X6.1625Y-3.525
X6.35Y-5.775
X6.5375Y-4.275
X6.725Y-5.025
X6.9125Y-3.525
X7.1Y-5.775
X7.2875Y-4.275
X7.475Y-5.025
X7.6625Y-3.525
X7.6625Y-6.525
X7.85Y-5.775
X7.9125Y-6.425
X8.0375Y-4.275
X8.225Y-5.025
X8.4125Y-3.525
X8.6Y-5.775
X8.7875Y-4.275
X8.975Y-5.025
X9.1625Y-3.525
X9.35Y-5.775
X9.5375Y-4.275
X9.725Y-5.025
X9.9125Y-3.525
X10.1Y-5.775
X10.2875Y-4.275
X10.475Y-5.025
X10.6625Y-3.525
X10.85Y-5.775
X10.85Y-6.525
X11.0375Y-4.275
X11.1Y-6.425
X11.225Y-5.025
X11.4125Y-3.525
X11.7875Y-4.275
X11.7875Y-6.525
X11.8812Y-5.775
X11.975Y-5.025
X12.1312Y-5.675
X12.1625Y-3.525
X12.2562Y-5.775
X12.4437Y-5.025
X12.5062Y-5.675
X12.5375Y-3.525
X12.6937Y-4.925
X12.725Y-4.275
X12.725Y-6.525
X12.7875Y-3.425
X12.8187Y-4.65
X12.9125Y-3.525
X12.9125Y-5.775
X12.975Y-4.175
X12.975Y-6.425
X13.0687Y-4.55
T0
M30
