%TF.GenerationSoftware,KiCad,Pcbnew,(5.99.0-13123-g97e9348ee1)*%
%TF.CreationDate,2021-12-06T14:10:23+03:00*%
%TF.ProjectId,Monoflex60,4d6f6e6f-666c-4657-9836-302e6b696361,rev?*%
%TF.SameCoordinates,Original*%
%TF.FileFunction,Paste,Bot*%
%TF.FilePolarity,Positive*%
%FSLAX46Y46*%
G04 Gerber Fmt 4.6, Leading zero omitted, Abs format (unit mm)*
G04 Created by KiCad (PCBNEW (5.99.0-13123-g97e9348ee1)) date 2021-12-06 14:10:23*
%MOMM*%
%LPD*%
G01*
G04 APERTURE LIST*
G04 Aperture macros list*
%AMRoundRect*
0 Rectangle with rounded corners*
0 $1 Rounding radius*
0 $2 $3 $4 $5 $6 $7 $8 $9 X,Y pos of 4 corners*
0 Add a 4 corners polygon primitive as box body*
4,1,4,$2,$3,$4,$5,$6,$7,$8,$9,$2,$3,0*
0 Add four circle primitives for the rounded corners*
1,1,$1+$1,$2,$3*
1,1,$1+$1,$4,$5*
1,1,$1+$1,$6,$7*
1,1,$1+$1,$8,$9*
0 Add four rect primitives between the rounded corners*
20,1,$1+$1,$2,$3,$4,$5,0*
20,1,$1+$1,$4,$5,$6,$7,0*
20,1,$1+$1,$6,$7,$8,$9,0*
20,1,$1+$1,$8,$9,$2,$3,0*%
G04 Aperture macros list end*
%ADD10RoundRect,0.104000X-0.296000X0.346000X-0.296000X-0.346000X0.296000X-0.346000X0.296000X0.346000X0*%
%ADD11R,0.600000X0.850000*%
%ADD12RoundRect,0.090000X-0.210000X-0.210000X0.210000X-0.210000X0.210000X0.210000X-0.210000X0.210000X0*%
%ADD13RoundRect,0.091000X-0.684000X0.259000X-0.684000X-0.259000X0.684000X-0.259000X0.684000X0.259000X0*%
%ADD14RoundRect,0.144000X-0.756000X0.456000X-0.756000X-0.456000X0.756000X-0.456000X0.756000X0.456000X0*%
%ADD15RoundRect,0.250000X-0.275000X-0.275000X0.275000X-0.275000X0.275000X0.275000X-0.275000X0.275000X0*%
%ADD16R,1.075000X0.300000*%
%ADD17R,0.300000X1.075000*%
%ADD18R,0.400000X1.900000*%
%ADD19RoundRect,0.090000X0.210000X0.210000X-0.210000X0.210000X-0.210000X-0.210000X0.210000X-0.210000X0*%
%ADD20RoundRect,0.090000X0.210000X-0.210000X0.210000X0.210000X-0.210000X0.210000X-0.210000X-0.210000X0*%
%ADD21R,0.550000X0.570000*%
G04 APERTURE END LIST*
D10*
%TO.C,D1*%
X73662500Y-91075000D03*
X75562500Y-91075000D03*
X74612500Y-93075000D03*
%TD*%
%TO.C,D2*%
X111762500Y-91075000D03*
X113662500Y-91075000D03*
X112712500Y-93075000D03*
%TD*%
%TO.C,D4*%
X187962500Y-91075000D03*
X189862500Y-91075000D03*
X188912500Y-93075000D03*
%TD*%
%TO.C,D5*%
X226062500Y-91075000D03*
X227962500Y-91075000D03*
X227012500Y-93075000D03*
%TD*%
%TO.C,D6*%
X264162500Y-91075000D03*
X266062500Y-91075000D03*
X265112500Y-93075000D03*
%TD*%
%TO.C,D7*%
X302262500Y-91075000D03*
X304162500Y-91075000D03*
X303212500Y-93075000D03*
%TD*%
%TO.C,D10*%
X121287500Y-110125000D03*
X123187500Y-110125000D03*
X122237500Y-112125000D03*
%TD*%
%TO.C,D11*%
X159387500Y-110125000D03*
X161287500Y-110125000D03*
X160337500Y-112125000D03*
%TD*%
%TO.C,D12*%
X197487500Y-110125000D03*
X199387500Y-110125000D03*
X198437500Y-112125000D03*
%TD*%
%TO.C,D13*%
X235587500Y-110125000D03*
X237487500Y-110125000D03*
X236537500Y-112125000D03*
%TD*%
%TO.C,D14*%
X273687500Y-110125000D03*
X275587500Y-110125000D03*
X274637500Y-112125000D03*
%TD*%
%TO.C,D15*%
X314168750Y-110125000D03*
X316068750Y-110125000D03*
X315118750Y-112125000D03*
%TD*%
%TO.C,D17*%
X145100000Y-129175000D03*
X147000000Y-129175000D03*
X146050000Y-131175000D03*
%TD*%
%TO.C,D18*%
X183200000Y-129175000D03*
X185100000Y-129175000D03*
X184150000Y-131175000D03*
%TD*%
%TO.C,D19*%
X221300000Y-129175000D03*
X223200000Y-129175000D03*
X222250000Y-131175000D03*
%TD*%
%TO.C,D20*%
X259400000Y-129175000D03*
X261300000Y-129175000D03*
X260350000Y-131175000D03*
%TD*%
%TO.C,D21*%
X297500000Y-129175000D03*
X299400000Y-129175000D03*
X298450000Y-131175000D03*
%TD*%
%TO.C,D24*%
X116525000Y-148225000D03*
X118425000Y-148225000D03*
X117475000Y-150225000D03*
%TD*%
%TO.C,D25*%
X154625000Y-148225000D03*
X156525000Y-148225000D03*
X155575000Y-150225000D03*
%TD*%
%TO.C,D26*%
X192725000Y-148225000D03*
X194625000Y-148225000D03*
X193675000Y-150225000D03*
%TD*%
%TO.C,D27*%
X230825000Y-148225000D03*
X232725000Y-148225000D03*
X231775000Y-150225000D03*
%TD*%
%TO.C,D28*%
X268925000Y-148225000D03*
X270825000Y-148225000D03*
X269875000Y-150225000D03*
%TD*%
%TO.C,D31*%
X104618750Y-167275000D03*
X106518750Y-167275000D03*
X105568750Y-169275000D03*
%TD*%
%TO.C,D33*%
X290356250Y-167275000D03*
X292256250Y-167275000D03*
X291306250Y-169275000D03*
%TD*%
D11*
%TO.C,D34*%
X315118750Y-169425000D03*
X315118750Y-167125000D03*
%TD*%
D12*
%TO.C,R1*%
X127568500Y-99949000D03*
X128568500Y-99949000D03*
%TD*%
%TO.C,R2*%
X127568500Y-100949000D03*
X128568500Y-100949000D03*
%TD*%
D10*
%TO.C,D3*%
X149862500Y-91075000D03*
X151762500Y-91075000D03*
X150812500Y-93075000D03*
%TD*%
D13*
%TO.C,J1*%
X130768500Y-98949000D03*
X130768500Y-99949000D03*
X130768500Y-100949000D03*
X130768500Y-101949000D03*
D14*
X134643500Y-97649000D03*
X134643500Y-103249000D03*
%TD*%
D15*
%TO.C,U1*%
X81313220Y-120639160D03*
X81313220Y-119339160D03*
X83913220Y-121939160D03*
X82613220Y-123239160D03*
X85213220Y-119339160D03*
X82613220Y-119339160D03*
X82613220Y-120639160D03*
X82613220Y-121939160D03*
X83913220Y-119339160D03*
X81313220Y-121939160D03*
X83913220Y-120639160D03*
X85213220Y-123239160D03*
X85213220Y-121939160D03*
X83913220Y-123239160D03*
X85213220Y-120639160D03*
X81313220Y-123239160D03*
D16*
X79925720Y-123789160D03*
X79925720Y-123289160D03*
X79925720Y-122789160D03*
X79925720Y-122289160D03*
X79925720Y-121789160D03*
X79925720Y-121289160D03*
X79925720Y-120789160D03*
X79925720Y-120289160D03*
X79925720Y-119789160D03*
X79925720Y-119289160D03*
X79925720Y-118789160D03*
D17*
X80763220Y-117951660D03*
X81263220Y-117951660D03*
X81763220Y-117951660D03*
X82263220Y-117951660D03*
X82763220Y-117951660D03*
X83263220Y-117951660D03*
X83763220Y-117951660D03*
X84263220Y-117951660D03*
X84763220Y-117951660D03*
X85263220Y-117951660D03*
X85763220Y-117951660D03*
D16*
X86600720Y-118789160D03*
X86600720Y-119289160D03*
X86600720Y-119789160D03*
X86600720Y-120289160D03*
X86600720Y-120789160D03*
X86600720Y-121289160D03*
X86600720Y-121789160D03*
X86600720Y-122289160D03*
X86600720Y-122789160D03*
X86600720Y-123289160D03*
X86600720Y-123789160D03*
D17*
X85763220Y-124626660D03*
X85263220Y-124626660D03*
X84763220Y-124626660D03*
X84263220Y-124626660D03*
X83763220Y-124626660D03*
X83263220Y-124626660D03*
X82763220Y-124626660D03*
X82263220Y-124626660D03*
X81763220Y-124626660D03*
X81263220Y-124626660D03*
X80763220Y-124626660D03*
%TD*%
D18*
%TO.C,Y1*%
X84213220Y-113243360D03*
X83013220Y-113243360D03*
X81813220Y-113243360D03*
%TD*%
D19*
%TO.C,C6*%
X78093220Y-121207180D03*
X77093220Y-121207180D03*
%TD*%
%TO.C,C4*%
X88940820Y-125704320D03*
X87940820Y-125704320D03*
%TD*%
%TO.C,C3*%
X88948820Y-119205120D03*
X87948820Y-119205120D03*
%TD*%
D12*
%TO.C,C2*%
X79252240Y-116088540D03*
X80252240Y-116088540D03*
%TD*%
D20*
%TO.C,C5*%
X80677500Y-126963140D03*
X80677500Y-125963140D03*
%TD*%
%TO.C,C1*%
X77774540Y-124414180D03*
X77774540Y-123414180D03*
%TD*%
D19*
%TO.C,R3*%
X88940820Y-123870720D03*
X87940820Y-123870720D03*
%TD*%
D10*
%TO.C,D16*%
X107000000Y-129175000D03*
X108900000Y-129175000D03*
X107950000Y-131175000D03*
%TD*%
D12*
%TO.C,R4*%
X81585180Y-134327900D03*
X82585180Y-134327900D03*
%TD*%
D21*
%TO.C,SW0*%
X88998980Y-137511400D03*
X86448980Y-137511400D03*
X88998980Y-136351400D03*
X86448980Y-136351400D03*
%TD*%
D11*
%TO.C,D22*%
X85325000Y-132625480D03*
X85325000Y-130325480D03*
%TD*%
D10*
%TO.C,D23*%
X79156520Y-151273000D03*
X81056520Y-151273000D03*
X80106520Y-153273000D03*
%TD*%
%TO.C,D9*%
X80806250Y-107966000D03*
X82706250Y-107966000D03*
X81756250Y-109966000D03*
%TD*%
%TO.C,D29*%
X322497410Y-148225000D03*
X324397410Y-148225000D03*
X323447410Y-150225000D03*
%TD*%
D11*
%TO.C,D8*%
X339260180Y-93225000D03*
X339260180Y-90925000D03*
%TD*%
%TO.C,D30*%
X81756250Y-169425000D03*
X81756250Y-167125000D03*
%TD*%
%TO.C,D32*%
X205930500Y-169425000D03*
X205930500Y-167125000D03*
%TD*%
M02*
